<?xml version="1.0" encoding="UTF-8" standalone="no"?>
<svg
   xmlns:osb="http://www.openswatchbook.org/uri/2009/osb"
   xmlns:dc="http://purl.org/dc/elements/1.1/"
   xmlns:cc="http://creativecommons.org/ns#"
   xmlns:rdf="http://www.w3.org/1999/02/22-rdf-syntax-ns#"
   xmlns:svg="http://www.w3.org/2000/svg"
   xmlns="http://www.w3.org/2000/svg"
   xmlns:xlink="http://www.w3.org/1999/xlink"
   version="1.1"
   id="svg2985"
   height="874.8288"
   width="552.24664">
  <defs
     id="defs5498">
    <linearGradient
       osb:paint="solid"
       id="linearGradient4756">
      <stop
         id="stop4758"
         offset="0"
         style="stop-color:#ffffff;stop-opacity:1;" />
    </linearGradient>
    <linearGradient
       osb:paint="solid"
       id="linearGradient4750">
      <stop
         id="stop4752"
         offset="0"
         style="stop-color:#000000;stop-opacity:1;" />
    </linearGradient>
    <linearGradient
       osb:paint="solid"
       id="linearGradient5694">
      <stop
         id="stop5696"
         offset="0"
         style="stop-color:#002b11;stop-opacity:1;" />
    </linearGradient>
    <linearGradient
       osb:paint="solid"
       id="linearGradient4712">
      <stop
         id="stop4714"
         offset="0"
         style="stop-color:#162d50;stop-opacity:1;" />
    </linearGradient>
    <linearGradient
       osb:paint="solid"
       id="linearGradient4706">
      <stop
         id="stop4708"
         offset="0"
         style="stop-color:#d40000;stop-opacity:1;" />
    </linearGradient>
    <linearGradient
       gradientUnits="userSpaceOnUse"
       y2="508.69208"
       x2="761.44257"
       y1="508.69208"
       x1="262.13925"
       id="linearGradient4716"
       xlink:href="#linearGradient4712" />
    <linearGradient
       gradientUnits="userSpaceOnUse"
       y2="500.0004"
       x2="771.30902"
       y1="500.0004"
       x1="228.69211"
       id="linearGradient4754"
       xlink:href="#linearGradient4750" />
    <linearGradient
       gradientUnits="userSpaceOnUse"
       y2="500.10483"
       x2="752.40271"
       y1="500.10483"
       x1="248.61133"
       id="linearGradient4760"
       xlink:href="#linearGradient4756" />
    <linearGradient
       y2="508.69208"
       x2="761.44257"
       y1="508.69208"
       x1="262.13925"
       gradientUnits="userSpaceOnUse"
       id="linearGradient501"
       xlink:href="#linearGradient4712" />
    <linearGradient
       y2="508.69208"
       x2="761.44257"
       y1="508.69208"
       x1="262.13925"
       gradientUnits="userSpaceOnUse"
       id="linearGradient503"
       xlink:href="#linearGradient4712" />
    <linearGradient
       y2="508.69208"
       x2="761.44257"
       y1="508.69208"
       x1="262.13925"
       gradientUnits="userSpaceOnUse"
       id="linearGradient505"
       xlink:href="#linearGradient4712" />
  </defs>
  <metadata
     id="metadata5594">
    <rdf:RDF>
      <cc:Work
         rdf:about="">
        <dc:format>image/svg+xml</dc:format>
        <dc:type
           rdf:resource="http://purl.org/dc/dcmitype/StillImage" />
        <dc:title />
      </cc:Work>
    </rdf:RDF>
  </metadata>
  <g
     transform="translate(-223.8769,-62.58594)"
     style="display:inline"
     id="layer35">
    <path
       id="path5072"
       d="m 628.44727,80.667969 c -5.9433,-0.06612 -13.40962,0.0065 -22.07032,0.222656 -12.64185,0.315595 -23.2077,0.487019 -37.08007,0.53125 -13.87238,0.04423 -31.05128,-0.03873 -56.91993,-0.232422 -5.45682,-0.04086 -10.61741,-0.0018 -15.55664,0.123047 -4.93922,0.124863 -9.65791,0.334547 -14.22656,0.634766 -4.56865,0.300218 -8.98888,0.690573 -13.33398,1.175781 -4.3451,0.485208 -8.61424,1.066264 -12.88282,1.746094 -5.5,0.87596 -13.15,2.051091 -17,2.613281 -6.10965,0.892165 -25.13932,4.508634 -44.06445,8.263672 -18.92513,3.755038 -37.7457,7.648646 -43.43555,9.097656 -3.575,0.91044 -9.48346,2.29112 -13.13086,3.06836 -1.7145,0.36536 -3.19249,0.71454 -4.6914,1.15039 -1.49891,0.43585 -3.01949,0.95782 -4.81446,1.66602 -3.58994,1.41639 -8.2829,3.57989 -16.12695,7.29687 -5.0948,2.41422 -9.8603,4.38867 -10.5918,4.38867 -0.3657,0 -1.47544,0.55138 -2.96875,1.44141 -1.4933,0.89003 -3.37018,2.11871 -5.26953,3.46875 -2.07516,1.47498 -4.05531,3.06865 -5.93945,4.77539 -1.88414,1.70674 -3.67165,3.52647 -5.35937,5.45508 -1.68773,1.9286 -3.27581,3.9649 -4.76172,6.10547 -1.48592,2.14057 -2.86973,4.38587 -4.14844,6.72851 -1.27871,2.34264 -2.45342,4.78355 -3.51953,7.31836 -1.06611,2.53481 -2.02494,5.16378 -2.87305,7.88086 -0.84811,2.71708 -1.58426,5.52266 -2.20898,8.41211 -0.62473,2.88945 -1.13727,5.86213 -1.53321,8.91406 -0.42813,3.3 -1.26607,8.475 -1.86133,11.5 -1.08597,5.51893 -3.22128,18.43536 -5.20703,31.5 -0.80326,5.28485 -1.50925,11.10362 -2.15234,17.81641 -0.64309,6.71279 -1.22329,14.31961 -1.77539,23.18359 -0.54811,8.8 -1.57447,20.5 -2.28125,26 -0.25035,1.94818 -0.4676,5.6351 -0.65039,10.61524 -0.18279,4.98014 -0.33078,11.25237 -0.44727,18.37109 -0.23298,14.23744 -0.33518,31.85961 -0.31054,49.29102 0.0246,17.4314 0.1751,34.67212 0.44726,48.15039 0.13608,6.73913 0.30394,12.53845 0.5,16.94922 0.19607,4.41076 0.421,7.43403 0.67578,8.62304 0.31465,1.46834 0.56503,3.38405 0.76367,6.40235 0.19865,3.01829 0.34478,7.13832 0.45118,13.01562 0.2128,11.7546 0.26565,30.53712 0.25195,61.58203 -0.0114,25.92392 -0.10907,45.0594 -0.30859,58.45899 -0.19953,13.39958 -0.50095,21.06326 -0.91993,24.04101 -0.81885,5.81969 -1.59482,12.88755 -2.3125,21.0293 -0.71767,8.14175 -1.37705,17.35739 -1.96289,27.4707 -0.54162,9.35 -1.47716,20.15 -2.07812,24 -0.30049,1.925 -0.63287,6.80803 -0.92774,13.125 -0.29486,6.31698 -0.55219,14.06791 -0.69921,21.72656 -0.14126,7.35812 -0.25068,12.82713 -0.25196,17.34571 -0.001,4.51857 0.10478,8.08659 0.39844,11.64062 0.29366,3.55404 0.77401,7.0941 1.51758,11.5586 0.74357,4.46449 1.75117,9.85355 3.09961,17.10351 1.56314,8.40432 2.51349,13.86196 3.1582,18.67774 0.64471,4.81577 0.98377,8.98967 1.32617,14.82226 0.14909,2.53955 0.61336,6.26169 1.25977,10.48047 0.64641,4.21878 1.47541,8.93474 2.35351,13.46289 0.8781,4.52815 1.80429,8.86828 2.64844,12.33594 0.84415,3.46766 1.60583,6.06231 2.15039,7.09961 0.46825,0.89194 2.08446,5.35967 3.5918,9.92773 0.85696,2.59705 1.87095,5.067 2.94531,7.21485 1.07436,2.14784 2.20909,3.97359 3.30664,5.28515 0.96525,1.15347 1.94628,2.48222 2.74805,3.69532 0.80177,1.21309 1.42428,2.31054 1.67578,2.99804 0.21708,0.59343 0.77822,1.37959 1.58398,2.27344 0.80576,0.89385 1.85668,1.89563 3.05274,2.91992 2.39212,2.04858 5.36591,4.1878 8.1289,5.73828 1.46661,0.82303 4.0154,1.78464 8.49219,3.13868 4.4768,1.35403 10.88159,3.1005 20.05664,5.49609 7.56225,1.97448 14.02958,3.45358 20.43555,4.62891 6.40597,1.17532 12.7506,2.04687 20.06445,2.80273 5.775,0.59682 14.55,1.74205 19.5,2.54297 2.475,0.40046 6.80664,0.87857 11.79102,1.32812 4.98437,0.44956 10.62148,0.87055 15.70898,1.15235 10.175,0.56359 22.1,1.4497 26.5,1.9707 4.4,0.521 14.75,1.46972 23,2.10742 8.25,0.6377 17.925,1.48065 21.5,1.87305 5.3292,0.58494 8.10369,0.86576 9.92188,0.68359 0.90909,-0.0911 1.57759,-0.29793 2.20898,-0.64062 0.63139,-0.3427 1.2248,-0.82089 1.97852,-1.45508 0.86705,-0.72935 1.87142,-1.33905 3.03515,-1.83203 1.16373,-0.49299 2.48625,-0.86981 3.99414,-1.13477 1.5079,-0.26495 3.20007,-0.41764 5.09961,-0.46289 1.89955,-0.0453 4.00703,0.0175 6.34571,0.1836 3.804,0.2702 14.79101,0.97086 24.41601,1.55664 4.8125,0.29289 9.75,0.73055 13.82813,1.19922 4.07812,0.46866 7.29687,0.96832 8.67187,1.38671 1.375,0.41839 3.41289,0.79895 5.58789,1.07618 2.175,0.27722 4.48711,0.45112 6.41211,0.45312 l 7,0.008 0.002,-0.13281 18.99804,0.17578 0,0.14453 5.64844,-0.0937 1.63477,0.0156 0.0391,-0.043 33.17773,-0.54688 c 11.01563,-0.18152 19.61629,-0.3511 26.58594,-0.58984 6.96965,-0.23874 12.30875,-0.54724 16.80078,-1.00195 4.49203,-0.45471 8.13599,-1.05728 11.71875,-1.88672 3.58276,-0.82944 7.10386,-1.88512 11.3457,-3.24805 2.27989,-0.73253 4.07376,-1.32931 5.57032,-1.90039 1.49655,-0.57108 2.69517,-1.11623 3.78515,-1.74219 1.08998,-0.62595 2.07071,-1.33329 3.13086,-2.23047 1.06016,-0.89717 2.20035,-1.9844 3.60743,-3.36914 2.1841,-2.1494 4.04238,-4.25179 5.77343,-6.75195 1.73105,-2.50016 3.33402,-5.39801 5.01172,-9.14062 1.6777,-3.74262 3.42906,-8.33027 5.45313,-14.20703 2.02406,-5.87677 4.32167,-13.04272 7.09179,-21.94532 1.35545,-4.3562 2.47622,-8.2528 3.42578,-12.08789 0.94957,-3.83508 1.72843,-7.60957 2.40235,-11.71679 0.67392,-4.10723 1.24298,-8.54808 1.77148,-13.72071 0.52851,-5.17263 1.01597,-11.07613 1.5293,-18.10742 0.4671,-6.39806 1.31888,-14.27306 1.89258,-17.5 1.03107,-5.80047 1.88403,-11.15208 2.61133,-16.70703 0.7273,-5.55495 1.32961,-11.31256 1.85742,-17.92969 0.52781,-6.61713 0.98146,-14.09306 1.41406,-23.08008 0.4326,-8.98701 0.84348,-19.48579 1.28516,-32.15039 0.3112,-8.92347 0.48148,-26.7395 0.53906,-48.55859 0.0576,-21.81909 0.002,-47.64029 -0.13867,-72.57617 -0.14082,-24.93589 -0.3664,-48.98591 -0.65039,-67.25977 -0.284,-18.27385 -0.6261,-30.77246 -0.99805,-32.60547 -0.2875,-1.41681 -0.61777,-8.72014 -0.95117,-19.83203 -0.33341,-11.11189 -0.66918,-26.0319 -0.97266,-42.67969 -0.60696,-33.29557 -1.07903,-73.50421 -1.11133,-103.98828 -0.012,-11.1375 0.11798,-26.04414 0.33789,-41.08789 0.21991,-15.04375 0.52975,-30.22461 0.875,-41.91211 0.3139,-10.62625 0.53273,-19.2346 0.63672,-26.50976 0.104,-7.27517 0.0938,-13.21709 -0.0488,-18.50782 -0.14265,-5.29072 -0.41769,-9.93058 -0.84375,-14.60351 -0.42605,-4.67293 -1.0038,-9.37901 -1.75,-14.80078 -0.29282,-2.1276 -0.69476,-4.26261 -1.18554,-6.34766 -0.49079,-2.08504 -1.07031,-4.12021 -1.72071,-6.04883 -0.65039,-1.92861 -1.3709,-3.74988 -2.14257,-5.4082 -0.77167,-1.65832 -1.59462,-3.15359 -2.44922,-4.42773 -0.85143,-1.26939 -2.44778,-3.1945 -4.40821,-5.38868 -1.96042,-2.19417 -4.28453,-4.65739 -6.5957,-7.00586 -2.31117,-2.34846 -4.60806,-4.58219 -6.51172,-6.31445 -1.90365,-1.732255 -3.41447,-2.963046 -4.15234,-3.308592 -1.2772,-0.598143 -5.92227,-2.312427 -10.32227,-3.810547 -4.4,-1.49811 -10.36039,-3.5819 -13.24609,-4.63086 -1.24603,-0.452927 -2.96695,-0.910707 -5.19336,-1.376953 -2.22641,-0.466246 -4.9581,-0.940694 -8.22852,-1.429687 -6.54082,-0.977988 -15.23348,-2.011164 -26.33203,-3.136719 -5.5,-0.55778 -13.6,-1.491322 -18,-2.076172 -2.5661,-0.3411 -6.98638,-0.547161 -12.92968,-0.613281 z"
       style="color:#000000;clip-rule:nonzero;display:inline;overflow:visible;visibility:visible;opacity:1;isolation:auto;mix-blend-mode:normal;color-interpolation:sRGB;color-interpolation-filters:linearRGB;solid-color:#000000;solid-opacity:1;fill:#ff9955;fill-opacity:1;fill-rule:nonzero;stroke:none;stroke-width:1;stroke-linecap:butt;stroke-linejoin:miter;stroke-miterlimit:4;stroke-dasharray:none;stroke-dashoffset:0;stroke-opacity:1;color-rendering:auto;image-rendering:auto;shape-rendering:auto;text-rendering:auto;enable-background:accumulate" />
    <path
       id="path5070"
       d="m 565.37695,62.589844 c -38.0269,0.02525 -60.60215,0.1434 -76.00781,0.597656 -7.70283,0.227128 -13.61197,0.536766 -18.76562,0.962891 -5.15366,0.426124 -9.55134,0.968012 -14.22657,1.654297 -5.5,0.80736 -13.825,1.969901 -18.5,2.582031 -4.675,0.61212 -15.025,2.400189 -23,3.974609 -7.975,1.57442 -23.05,4.504719 -33.5,6.511719 -13.8911,2.66788 -22.2122,4.337808 -31.10547,6.509765 -8.89326,2.171958 -18.35871,4.845945 -34.5371,9.521485 -1.27651,0.368915 -2.91749,1.051552 -4.53321,1.855469 -1.61571,0.803916 -3.20616,1.729113 -4.38086,2.580078 -1.17475,0.850966 -2.8105,1.792656 -4.49804,2.624996 -1.68755,0.83234 -3.4269,1.55533 -4.8125,1.9668 -2.44442,0.72591 -4.89373,1.71423 -7.32422,2.93555 -2.4305,1.22131 -4.84314,2.67645 -7.21094,4.33789 -2.36781,1.66144 -4.69092,3.52794 -6.94727,5.57422 -2.25634,2.04628 -4.44489,4.27064 -6.54101,6.64648 -2.09612,2.37585 -4.09921,4.90261 -5.98633,7.55274 -1.88712,2.65013 -3.65776,5.42383 -5.28711,8.29296 -1.62935,2.86914 -3.11859,5.83433 -4.44141,8.86719 -1.32281,3.03287 -2.47976,6.13408 -3.44726,9.27539 -2.08891,6.78232 -3.45143,11.45733 -4.29102,14.85547 -0.83959,3.39815 -1.15625,5.51943 -1.15625,7.19141 0,2.03991 -0.63792,6.80207 -1.41797,10.58203 -0.88722,4.29927 -1.79342,9.31799 -2.67187,14.7168 -0.87845,5.3988 -1.72927,11.1782 -2.50781,16.99609 -0.77854,5.81789 -1.48479,11.67394 -2.07227,17.23047 -0.58748,5.55652 -1.05606,10.81303 -1.36133,15.42773 -0.52756,7.975 -1.69446,23.05 -2.59375,33.5 -0.5103,5.92983 -0.96178,17.17083 -1.32617,30.89258 -0.36439,13.72175 -0.64171,29.92383 -0.80273,45.7793 -0.16103,15.85547 -0.20527,31.36433 -0.10547,43.69531 0.0998,12.33098 0.34364,21.48453 0.76172,24.63281 0.78958,5.94583 1.4077,11.01092 1.88867,16.03711 0.48097,5.0262 0.8253,10.01402 1.06836,15.80664 0.24306,5.79263 0.38507,12.38965 0.46094,20.63477 0.0759,8.24511 0.0851,18.13781 0.0644,30.52148 -0.0435,26.09929 -0.37811,49.00347 -0.95117,67.01367 -0.28653,9.00511 -0.63264,16.78732 -1.03125,23.13282 -0.39862,6.3455 -0.85049,11.25461 -1.34766,14.51562 -0.62549,4.10265 -1.27034,10.28897 -1.94726,18.71094 -0.67693,8.42197 -1.38593,19.0796 -2.13868,32.12695 -0.55531,9.625 -1.45126,19.66121 -1.99023,22.30078 -0.26949,1.31979 -0.51415,5.28978 -0.69141,10.6211 -0.17726,5.33132 -0.28711,12.02397 -0.28711,18.79297 0,6.39743 0.0119,11.31883 0.11524,15.53515 0.10332,4.21632 0.29839,7.72703 0.66211,11.30664 0.36371,3.57961 0.89656,7.22755 1.67773,11.71485 0.78117,4.4873 1.81033,9.81451 3.16602,16.7539 0.6729,3.44441 1.39608,7.81094 2.01953,12.07032 0.62345,4.25937 1.14719,8.41159 1.41992,11.42968 0.93211,10.31474 1.62916,17.06054 2.47461,22.85157 0.84545,5.79102 1.83929,10.62726 3.36133,17.12304 0.83766,3.575 1.88064,7.49961 2.88672,10.94336 1.00608,3.44375 1.97526,6.40664 2.66406,8.05664 1.37759,3.3 2.5163,6.55164 2.5293,7.22461 0.009,0.47925 0.44243,1.68479 1.11914,3.25977 0.6767,1.57498 1.59614,3.51961 2.58007,5.47461 1.96787,3.91 4.19084,7.86412 5.22657,9 1.02441,1.12347 2.55716,3.4192 3.40625,5.10156 0.41076,0.81387 1.08421,1.74183 1.96093,2.74219 0.87673,1.00035 1.95636,2.07274 3.17969,3.17773 2.44667,2.20999 5.46698,4.54805 8.58399,6.68555 3.117,2.1375 6.33152,4.0741 9.16406,5.48437 1.41627,0.70514 2.73621,1.27912 3.90234,1.67969 1.16613,0.40057 2.17797,0.62842 2.97461,0.64258 0.8666,0.0154 4.79692,1.15234 8.73242,2.52734 3.9356,1.375 7.86683,2.5 8.73633,2.5 0.8695,0 3.69123,0.63484 6.26953,1.41016 2.52948,0.76061 5.74633,1.55433 9.40625,2.33984 3.65993,0.78552 7.76198,1.56353 12.0625,2.29102 4.30053,0.72749 8.80068,1.40371 13.25196,1.99023 4.45127,0.58653 8.85462,1.08268 12.96679,1.44531 3.85,0.33952 10.77136,1.27065 15.38086,2.07032 2.3048,0.39984 5.11339,0.76402 7.78321,1.02734 2.66981,0.26332 5.20086,0.42578 6.94726,0.42578 3.4927,0 9.39644,0.4445 13.11914,0.98633 3.7227,0.54184 14.64453,1.43331 24.26953,1.98047 10.05645,0.5716 22.32437,1.51419 32.17188,2.4082 9.8475,0.89401 17.27459,1.73944 17.65039,2.11524 0.2805,0.2805 11.46065,0.50976 24.84375,0.50976 8.8096,0 15.52251,-0.10843 20.85937,-0.35937 5.33686,-0.25094 9.29767,-0.6444 12.60352,-1.21485 4.1795,-0.7213 6.60118,-1.08173 8.73633,-1.07617 2.13515,0.006 3.98377,0.37715 7.01367,1.11719 1.42217,0.34735 2.87215,0.61816 4.74414,0.82226 1.87199,0.20411 4.16561,0.34236 7.27539,0.42383 6.21956,0.16295 15.70306,0.10039 31.60156,-0.10351 29.5441,-0.3789 52.5783,-0.89575 69.02149,-1.54883 8.22159,-0.32654 14.79441,-0.68814 19.71094,-1.08203 4.91652,-0.39389 8.176,-0.8208 9.76757,-1.28125 4.6235,-1.33756 8.80548,-2.68366 12.57422,-4.05274 3.76874,-1.36907 7.12455,-2.76056 10.09766,-4.18945 2.97311,-1.42889 5.56221,-2.89511 7.79883,-4.41211 2.23661,-1.517 4.12043,-3.08533 5.67968,-4.71875 2.0178,-2.11384 4.97955,-5.89859 7.4375,-9.33203 1.22898,-1.71672 2.33329,-3.34713 3.12891,-4.63477 0.79562,-1.28763 1.2832,-2.23338 1.2832,-2.58593 0,-0.49406 1.06032,-3.23173 2.35743,-6.08399 1.12334,-2.47027 2.58669,-6.24769 4.18945,-10.71094 1.60275,-4.46324 3.34487,-9.61321 5.02734,-14.83007 1.68247,-5.21687 3.30547,-10.49935 4.66797,-15.23047 1.3625,-4.73112 2.46457,-8.90999 3.10742,-11.91602 1.1294,-5.28112 2.06416,-10.70459 2.83008,-16.4707 0.76592,-5.76611 1.36301,-11.87487 1.81836,-18.5293 0.40915,-5.97985 1.12645,-13.06051 2.00781,-20.09765 0.88137,-7.03715 1.92679,-14.03078 2.99414,-19.83594 0.5495,-2.98851 1,-7.8023 1,-10.69922 0,-2.89691 0.45181,-7.42684 1.00391,-10.06641 0.4444,-2.12459 0.87186,-7.50842 1.26172,-15.36132 0.38986,-7.85291 0.74282,-18.17435 1.03906,-30.17188 0.29624,-11.99753 0.53569,-25.67201 0.69922,-40.23047 0.16353,-14.55845 0.25044,-30.00142 0.24219,-45.53711 -0.0198,-37.30699 -0.43543,-79.41792 -1.01953,-113.20898 -0.29206,-16.89553 -0.62657,-31.71129 -0.97461,-42.80664 -0.34805,-11.09536 -0.70934,-18.46999 -1.05664,-20.48438 -0.38645,-2.24154 -0.72618,-13.27205 -0.99805,-29.14258 -0.27187,-15.87052 -0.47664,-36.58184 -0.5918,-58.18164 -0.11516,-21.5998 -0.14031,-44.0882 -0.0566,-63.51757 0.0837,-19.42938 0.27694,-35.79896 0.60156,-45.15821 0.772,-22.2549 1.16376,-41.52486 1.17383,-56.9082 0.005,-7.69167 -0.0857,-14.4106 -0.27148,-20.04688 -0.18579,-5.63627 -0.4669,-10.18904 -0.84375,-13.54492 -0.884,-7.87238 -1.83334,-14.619 -2.72656,-19.5625 -0.44661,-2.47174 -0.88043,-4.49366 -1.28321,-5.97851 -0.40278,-1.48486 -0.77531,-2.43353 -1.10351,-2.76172 -0.30155,-0.30156 -0.5749,-0.76405 -0.77344,-1.26563 -0.19854,-0.50157 -0.32227,-1.04224 -0.32227,-1.50195 0,-0.81851 -0.6498,-2.32507 -1.75781,-4.25586 -1.10801,-1.93079 -2.67326,-4.28492 -4.50391,-6.79883 -1.83064,-2.5139 -3.92779,-5.18799 -6.0957,-7.75586 -2.16791,-2.567862 -4.40754,-5.03038 -6.52734,-7.123044 -2.73338,-2.698405 -4.99453,-4.875179 -6.95508,-6.654297 -1.96055,-1.779117 -3.61954,-3.161439 -5.15039,-4.269531 -1.53086,-1.108092 -2.93268,-1.941624 -4.37695,-2.626953 -1.44428,-0.685329 -2.93199,-1.221594 -4.63282,-1.732422 -3.025,-0.90853 -10.08098,-3.237581 -15.67968,-5.175781 -2.5764,-0.891905 -4.75349,-1.610537 -6.90821,-2.228516 -2.15471,-0.617979 -4.28725,-1.135914 -6.77148,-1.628906 -4.96846,-0.985984 -11.34693,-1.870325 -22.14063,-3.25 -5.85545,-0.748463 -10.89891,-1.330008 -16.34375,-1.779297 -5.44483,-0.449289 -11.29022,-0.76554 -18.7539,-0.988281 C 631.8156,62.85343 622.73427,62.72507 610.82226,62.65625 598.91025,62.58743 584.16674,62.57737 565.37694,62.58984 Z m 63.07032,18.078125 c 5.9433,0.06612 10.36358,0.272181 12.92968,0.613281 4.4,0.58485 12.5,1.518392 18,2.076172 11.09855,1.125555 19.79121,2.158731 26.33203,3.136719 3.27042,0.488993 6.00211,0.963441 8.22852,1.429687 2.22641,0.466246 3.94733,0.924026 5.19336,1.376953 2.8857,1.04896 8.84609,3.13275 13.24609,4.63086 4.4,1.49812 9.04507,3.212404 10.32227,3.810547 0.73787,0.345546 2.24869,1.576337 4.15234,3.308592 1.90366,1.73226 4.20055,3.96599 6.51172,6.31445 2.31117,2.34847 4.63528,4.81169 6.5957,7.00586 1.96043,2.19418 3.55678,4.11929 4.40821,5.38868 0.8546,1.27414 1.67755,2.76941 2.44922,4.42773 0.77167,1.65832 1.49218,3.47959 2.14257,5.4082 0.6504,1.92862 1.22992,3.96379 1.72071,6.04883 0.49078,2.08505 0.89272,4.22006 1.18554,6.34766 0.7462,5.42177 1.32395,10.12785 1.75,14.80078 0.42606,4.67293 0.7011,9.31279 0.84375,14.60351 0.14266,5.29073 0.15283,11.23265 0.0488,18.50782 -0.10399,7.27516 -0.32282,15.88351 -0.63672,26.50976 -0.34525,11.6875 -0.65509,26.86836 -0.875,41.91211 -0.21991,15.04375 -0.34989,29.95039 -0.33789,41.08789 0.0323,30.48407 0.50437,70.69271 1.11133,103.98828 0.30348,16.64779 0.63925,31.5678 0.97266,42.67969 0.3334,11.11189 0.66367,18.41522 0.95117,19.83203 0.37195,1.83301 0.71405,14.33162 0.99805,32.60547 0.28399,18.27386 0.50957,42.32388 0.65039,67.25977 0.14082,24.93588 0.19625,50.75708 0.13867,72.57617 -0.0576,21.81909 -0.22786,39.63512 -0.53906,48.55859 -0.44168,12.6646 -0.85256,23.16338 -1.28516,32.15039 -0.4326,8.98702 -0.88625,16.46295 -1.41406,23.08008 -0.52781,6.61713 -1.13012,12.37474 -1.85742,17.92969 -0.7273,5.55495 -1.58026,10.90656 -2.61133,16.70703 -0.5737,3.22694 -1.42548,11.10194 -1.89258,17.5 -0.51333,7.03129 -1.00079,12.93479 -1.5293,18.10742 -0.5285,5.17263 -1.09756,9.61348 -1.77148,13.72071 -0.67392,4.10722 -1.45278,7.88171 -2.40235,11.71679 -0.94956,3.83509 -2.07033,7.73169 -3.42578,12.08789 -2.77012,8.9026 -5.06773,16.06855 -7.09179,21.94532 -2.02407,5.87676 -3.77543,10.46441 -5.45313,14.20703 -1.6777,3.74261 -3.28067,6.64046 -5.01172,9.14062 -1.73105,2.50016 -3.58933,4.60255 -5.77343,6.75195 -1.40708,1.38474 -2.54727,2.47197 -3.60743,3.36914 -1.06015,0.89718 -2.04088,1.60452 -3.13086,2.23047 -1.08998,0.62596 -2.2886,1.17111 -3.78515,1.74219 -1.49656,0.57108 -3.29043,1.16786 -5.57032,1.90039 -4.24184,1.36293 -7.76294,2.41861 -11.3457,3.24805 -3.58276,0.82944 -7.22672,1.43201 -11.71875,1.88672 -4.49203,0.45471 -9.83113,0.76321 -16.80078,1.00195 -6.96965,0.23874 -15.57031,0.40832 -26.58594,0.58984 l -33.17773,0.54688 -0.0391,0.043 -1.63477,-0.0156 -5.64844,0.0937 0,-0.14453 -18.99804,-0.17578 -0.002,0.13281 -7,-0.008 c -1.925,-0.002 -4.23711,-0.1759 -6.41211,-0.45312 -2.175,-0.27723 -4.21289,-0.65779 -5.58789,-1.07618 -1.375,-0.41839 -4.59375,-0.91805 -8.67187,-1.38671 -4.07813,-0.46867 -9.01563,-0.90633 -13.82813,-1.19922 -9.625,-0.58578 -20.61201,-1.28644 -24.41601,-1.55664 -2.33868,-0.16612 -4.44616,-0.22885 -6.34571,-0.1836 -1.89954,0.0452 -3.59171,0.19794 -5.09961,0.46289 -1.50789,0.26496 -2.83041,0.64178 -3.99414,1.13477 -1.16373,0.49298 -2.1681,1.10268 -3.03515,1.83203 -0.75372,0.63419 -1.34713,1.11238 -1.97852,1.45508 -0.63139,0.34269 -1.29989,0.54954 -2.20898,0.64062 -1.81819,0.18217 -4.59268,-0.0986 -9.92188,-0.68359 -3.575,-0.3924 -13.25,-1.23535 -21.5,-1.87305 -8.25,-0.6377 -18.6,-1.58642 -23,-2.10742 -4.4,-0.521 -16.325,-1.40711 -26.5,-1.9707 -5.0875,-0.2818 -10.72461,-0.70279 -15.70898,-1.15235 -4.98438,-0.44955 -9.31602,-0.92766 -11.79102,-1.32812 -4.95,-0.80092 -13.725,-1.94615 -19.5,-2.54297 -7.31385,-0.75586 -13.65848,-1.62741 -20.06445,-2.80273 -6.40597,-1.17533 -12.8733,-2.65443 -20.43555,-4.62891 -9.17505,-2.39559 -15.57984,-4.14206 -20.05664,-5.49609 -4.47679,-1.35404 -7.02558,-2.31565 -8.49219,-3.13868 -2.76299,-1.55048 -5.73678,-3.6897 -8.1289,-5.73828 -1.19606,-1.02429 -2.24698,-2.02607 -3.05274,-2.91992 -0.80576,-0.89385 -1.3669,-1.68001 -1.58398,-2.27344 -0.2515,-0.6875 -0.87401,-1.78495 -1.67578,-2.99804 -0.80177,-1.2131 -1.7828,-2.54185 -2.74805,-3.69532 -1.09755,-1.31156 -2.23228,-3.13731 -3.30664,-5.28515 -1.07436,-2.14785 -2.08835,-4.6178 -2.94531,-7.21485 -1.50734,-4.56806 -3.12355,-9.03579 -3.5918,-9.92773 -0.54456,-1.0373 -1.30624,-3.63195 -2.15039,-7.09961 -0.84415,-3.46766 -1.77034,-7.80779 -2.64844,-12.33594 -0.8781,-4.52815 -1.7071,-9.24411 -2.35351,-13.46289 -0.64641,-4.21878 -1.11068,-7.94092 -1.25977,-10.48047 -0.3424,-5.83259 -0.68146,-10.00649 -1.32617,-14.82226 -0.64471,-4.81578 -1.59506,-10.27342 -3.1582,-18.67774 -1.34844,-7.24996 -2.35604,-12.63902 -3.09961,-17.10351 -0.74357,-4.4645 -1.22392,-8.00456 -1.51758,-11.5586 -0.29366,-3.55403 -0.39972,-7.12205 -0.39844,-11.64062 0.001,-4.51858 0.1107,-9.98759 0.25196,-17.34571 0.14702,-7.65865 0.40435,-15.40958 0.69921,-21.72656 0.29487,-6.31697 0.62725,-11.2 0.92774,-13.125 0.60096,-3.85 1.5365,-14.65 2.07812,-24 0.58584,-10.11331 1.24522,-19.32895 1.96289,-27.4707 0.71768,-8.14175 1.49365,-15.20961 2.3125,-21.0293 0.41898,-2.97775 0.7204,-10.64143 0.91993,-24.04101 0.19952,-13.39959 0.29714,-32.53507 0.30859,-58.45899 0.0137,-31.04491 -0.0392,-49.82743 -0.25195,-61.58203 -0.1064,-5.8773 -0.25253,-9.99733 -0.45118,-13.01562 -0.19864,-3.0183 -0.44902,-4.93401 -0.76367,-6.40235 -0.25478,-1.18901 -0.47971,-4.21228 -0.67578,-8.62304 -0.19606,-4.41077 -0.36392,-10.21009 -0.5,-16.94922 -0.27216,-13.47827 -0.42263,-30.71899 -0.44726,-48.15039 -0.0246,-17.43141 0.0776,-35.05358 0.31054,-49.29102 0.11649,-7.11872 0.26448,-13.39095 0.44727,-18.37109 0.18279,-4.98014 0.40004,-8.66706 0.65039,-10.61524 0.70678,-5.5 1.73314,-17.2 2.28125,-26 0.5521,-8.86398 1.1323,-16.4708 1.77539,-23.18359 0.64309,-6.71279 1.34908,-12.53156 2.15234,-17.81641 1.98575,-13.06464 4.12106,-25.98107 5.20703,-31.5 0.59526,-3.025 1.4332,-8.2 1.86133,-11.5 0.39594,-3.05193 0.90848,-6.02461 1.53321,-8.91406 0.62472,-2.88945 1.36087,-5.69503 2.20898,-8.41211 0.84811,-2.71708 1.80694,-5.34605 2.87305,-7.88086 1.06611,-2.53481 2.24082,-4.97572 3.51953,-7.31836 1.27871,-2.34264 2.66252,-4.58794 4.14844,-6.72851 1.48591,-2.14057 3.07399,-4.17687 4.76172,-6.10547 1.68772,-1.92861 3.47523,-3.74834 5.35937,-5.45508 1.88414,-1.70674 3.86429,-3.30041 5.93945,-4.77539 1.89935,-1.35004 3.77623,-2.57872 5.26953,-3.46875 1.49331,-0.89003 2.60305,-1.44141 2.96875,-1.44141 0.7315,0 5.497,-1.97445 10.5918,-4.38867 7.84405,-3.71698 12.53701,-5.88048 16.12695,-7.29687 1.79497,-0.7082 3.31555,-1.23017 4.81446,-1.66602 1.49891,-0.43585 2.9769,-0.78503 4.6914,-1.15039 3.6474,-0.77724 9.55586,-2.15792 13.13086,-3.06836 5.68985,-1.44901 24.51042,-5.342618 43.43555,-9.097656 18.92513,-3.755038 37.9548,-7.371507 44.06445,-8.263672 3.85,-0.56219 11.5,-1.737321 17,-2.613281 4.26858,-0.67983 8.53772,-1.260886 12.88282,-1.746094 4.3451,-0.485208 8.76533,-0.875563 13.33398,-1.175781 4.56865,-0.300219 9.28734,-0.509903 14.22656,-0.634766 4.93923,-0.124863 10.09982,-0.163907 15.55664,-0.123047 25.86865,0.19369 43.04755,0.276653 56.91993,0.232422 13.87237,-0.04423 24.43822,-0.215655 37.08007,-0.53125 8.6607,-0.216205 16.12702,-0.288773 22.07032,-0.222656 z"
       style="color:#000000;clip-rule:nonzero;display:inline;overflow:visible;visibility:visible;opacity:1;isolation:auto;mix-blend-mode:normal;color-interpolation:sRGB;color-interpolation-filters:linearRGB;solid-color:#000000;solid-opacity:1;fill:url(#linearGradient4750);fill-opacity:1;fill-rule:nonzero;stroke:none;stroke-width:1;stroke-linecap:butt;stroke-linejoin:miter;stroke-miterlimit:4;stroke-dasharray:none;stroke-dashoffset:0;stroke-opacity:1;color-rendering:auto;image-rendering:auto;shape-rendering:auto;text-rendering:auto;enable-background:accumulate" />
  </g>
</svg>
