<?xml version="1.0" encoding="UTF-8" standalone="no"?>
<svg
   xmlns:osb="http://www.openswatchbook.org/uri/2009/osb"
   xmlns:dc="http://purl.org/dc/elements/1.1/"
   xmlns:cc="http://creativecommons.org/ns#"
   xmlns:rdf="http://www.w3.org/1999/02/22-rdf-syntax-ns#"
   xmlns:svg="http://www.w3.org/2000/svg"
   xmlns="http://www.w3.org/2000/svg"
   xmlns:xlink="http://www.w3.org/1999/xlink"
   version="1.1"
   id="svg2985"
   height="931.58612"
   width="612.86682">
  <defs
     id="defs5498">
    <linearGradient
       osb:paint="solid"
       id="linearGradient4756">
      <stop
         id="stop4758"
         offset="0"
         style="stop-color:#ffffff;stop-opacity:1;" />
    </linearGradient>
    <linearGradient
       osb:paint="solid"
       id="linearGradient4750">
      <stop
         id="stop4752"
         offset="0"
         style="stop-color:#000000;stop-opacity:1;" />
    </linearGradient>
    <linearGradient
       osb:paint="solid"
       id="linearGradient5694">
      <stop
         id="stop5696"
         offset="0"
         style="stop-color:#002b11;stop-opacity:1;" />
    </linearGradient>
    <linearGradient
       osb:paint="solid"
       id="linearGradient4712">
      <stop
         id="stop4714"
         offset="0"
         style="stop-color:#162d50;stop-opacity:1;" />
    </linearGradient>
    <linearGradient
       osb:paint="solid"
       id="linearGradient4706">
      <stop
         id="stop4708"
         offset="0"
         style="stop-color:#d40000;stop-opacity:1;" />
    </linearGradient>
    <linearGradient
       gradientUnits="userSpaceOnUse"
       y2="508.69208"
       x2="761.44257"
       y1="508.69208"
       x1="262.13925"
       id="linearGradient4716"
       xlink:href="#linearGradient4712" />
    <linearGradient
       gradientUnits="userSpaceOnUse"
       y2="500.0004"
       x2="771.30902"
       y1="500.0004"
       x1="228.69211"
       id="linearGradient4754"
       xlink:href="#linearGradient4750" />
    <linearGradient
       gradientUnits="userSpaceOnUse"
       y2="500.10483"
       x2="752.40271"
       y1="500.10483"
       x1="248.61133"
       id="linearGradient4760"
       xlink:href="#linearGradient4756" />
    <linearGradient
       y2="508.69208"
       x2="761.44257"
       y1="508.69208"
       x1="262.13925"
       gradientUnits="userSpaceOnUse"
       id="linearGradient501"
       xlink:href="#linearGradient4712" />
    <linearGradient
       y2="508.69208"
       x2="761.44257"
       y1="508.69208"
       x1="262.13925"
       gradientUnits="userSpaceOnUse"
       id="linearGradient503"
       xlink:href="#linearGradient4712" />
    <linearGradient
       y2="508.69208"
       x2="761.44257"
       y1="508.69208"
       x1="262.13925"
       gradientUnits="userSpaceOnUse"
       id="linearGradient505"
       xlink:href="#linearGradient4712" />
  </defs>
  <metadata
     id="metadata5594">
    <rdf:RDF>
      <cc:Work
         rdf:about="">
        <dc:format>image/svg+xml</dc:format>
        <dc:type
           rdf:resource="http://purl.org/dc/dcmitype/StillImage" />
        <dc:title />
      </cc:Work>
    </rdf:RDF>
  </metadata>
  <g
     transform="translate(-193.56631,-34.20703)"
     style="display:inline"
     id="layer33">
    <path
       id="path5063"
       d="m 634.52539,53.083984 c -11.275,0.02953 -25.9,0.473846 -32.5,0.988282 -6.6,0.514436 -17.85,1.351039 -25,1.859375 -7.15,0.508336 -19.3,1.839923 -27,2.958984 -7.7,1.119061 -22.55,3.177863 -33,4.574219 -10.45,1.396356 -23.95,3.212082 -30,4.035156 -6.05,0.823074 -19.4458,2.63876 -29.76953,4.035156 -10.32372,1.396395 -19.86825,2.957046 -21.20898,3.466797 -1.34076,0.509752 -7.518,1.646864 -13.72852,2.527344 -6.21053,0.880481 -13.54297,2.21794 -16.29297,2.972656 -2.75,0.754717 -7.925,1.85499 -11.5,2.445313 -3.575,0.590323 -8.975,1.73417 -12,2.541015 -8.64486,2.305807 -21.91202,5.58172 -28.80664,7.113281 -3.46847,0.770483 -8.41847,2.279992 -11,3.355469 -2.58153,1.075477 -6.65639,2.459634 -9.05664,3.074219 -1.90421,0.487572 -4.62489,1.63326 -7.78125,3.20703 -3.15637,1.57378 -6.7488,3.57527 -10.39844,5.77734 -3.64964,2.20208 -7.3562,4.60409 -10.74023,6.97657 -3.38403,2.37248 -6.44515,4.7158 -8.80469,6.80078 -4.37311,3.86425 -8.13076,7.30934 -11.38477,10.46289 -3.254,3.15355 -6.00404,6.01485 -8.36523,8.7168 -2.36119,2.70194 -4.33269,5.24447 -6.02734,7.7539 -1.69466,2.50943 -3.11278,4.9865 -4.36719,7.5625 -1.934,3.97155 -4.69645,8.78809 -6.14063,10.70508 -1.99558,2.64893 -3.83086,5.61175 -5.50976,8.91992 -1.6789,3.30817 -3.20161,6.96152 -4.57227,10.99024 -1.37066,4.02872 -2.5893,8.43356 -3.66015,13.24414 -1.07086,4.81057 -1.99394,10.0279 -2.77344,15.68164 -0.7795,5.65374 -1.41554,11.74257 -1.91211,18.30078 -0.49657,6.5582 -0.85408,13.5854 -1.07617,21.10937 -0.22209,7.52398 -0.30763,15.54661 -0.26367,24.09766 0.0439,8.55106 0.21797,17.63009 0.51953,27.26953 0.46477,14.8565 1.13726,27.68628 1.94531,37.59375 0.40402,4.95374 0.84243,9.17662 1.30469,12.55664 0.46226,3.38003 0.94906,5.918 1.45117,7.5 0.44535,1.40319 0.83022,3.09977 1.16992,5.25781 0.3397,2.15805 0.635,4.77849 0.89649,8.03126 0.52297,6.50552 0.91619,15.53939 1.29101,28.46289 0.25989,8.96057 0.58225,16.40978 0.93555,21.89453 0.3533,5.48475 0.73754,9.00505 1.125,10.10547 0.54724,1.55423 1.34393,7.56877 1.99414,14.08984 0.65021,6.52107 1.15394,13.54866 1.11914,17.13086 -0.007,0.74805 -0.1768,1.68555 -0.44336,2.5918 -0.26656,0.90625 -0.63012,1.78125 -1.02734,2.4082 -0.65857,1.03944 -1.1839,2.16813 -1.64063,4.08984 -0.45673,1.92171 -0.84579,4.6371 -1.22851,8.84766 -0.76545,8.42111 -1.50974,22.82582 -2.7461,48.8418 -0.26791,5.6375 -0.62773,11.30328 -0.99023,15.88867 -0.36251,4.58538 -0.72769,8.09037 -1.00977,9.41015 -0.28208,1.31979 -0.54042,5.29766 -0.73047,10.64453 -0.19005,5.34688 -0.31181,12.06276 -0.31836,18.85547 -0.007,6.79272 -0.12158,13.41898 -0.30078,18.6211 -0.1792,5.20211 -0.42256,8.98008 -0.6875,10.08008 -0.52988,2.2 -1.64598,10.075 -2.48047,17.5 -0.83449,7.425 -1.94899,16.65 -2.47851,20.5 -0.52951,3.85 -0.9781,9.46413 -0.9961,12.47656 -0.018,3.01244 -0.67817,8.86244 -1.46679,13 -0.78862,4.13757 -1.92707,10.67344 -2.5293,14.52344 -1.60459,10.25795 -2.84468,17.90068 -3.74805,23.08203 -0.90337,5.18134 -1.47002,7.90131 -1.72656,8.3164 -0.31496,0.50961 -1.00152,4.67842 -1.52539,9.26368 -1.0984,9.61396 -1.86219,15.69675 -2.85938,21.62695 -0.99718,5.9302 -2.22775,11.70781 -4.25976,20.71094 -0.49654,2.2 -1.58453,10.525 -2.41797,18.5 -0.83344,7.975 -1.93431,16.75 -2.44727,19.5 -0.25647,1.375 -0.49811,3.86171 -0.67968,6.76171 -0.18157,2.9 -0.30307,6.21329 -0.32227,9.23829 -0.0183,2.8839 0.0722,5.51841 0.28906,7.98632 0.21686,2.46791 0.55964,4.76947 1.04883,6.99024 0.48919,2.22077 1.12509,4.35948 1.92383,6.50195 0.79874,2.14248 1.76076,4.28846 2.90625,6.52149 1.12855,2.2 2.95069,5.8 4.05078,8 1.50568,3.0111 3.19408,5.87121 5.06446,8.57812 1.87037,2.70691 3.92179,5.2603 6.15234,7.6582 2.23055,2.3979 4.64035,4.64053 7.22656,6.72461 2.58621,2.08409 5.34976,4.00994 8.28711,5.77539 4.675,2.80984 10.33344,6.34847 12.57422,7.86329 1.12039,0.7574 2.84256,1.62893 4.71484,2.42187 1.87229,0.79294 3.8947,1.50729 5.61524,1.95313 3.44107,0.89166 8.59595,2.65547 11.45508,3.91992 2.85912,1.26444 6.9859,2.6143 9.16992,3 2.18402,0.3857 6.6707,1.55428 9.9707,2.5957 2.26611,0.71514 7.83446,1.82398 15.07422,3.08398 7.23976,1.26001 16.15077,2.67171 25.09961,3.99414 8.94884,1.32244 17.93673,2.5546 25.33008,3.45704 7.39335,0.90243 13.19234,1.47461 15.76562,1.47461 3.18124,0 18.32825,1.575 33.66016,3.5 7.66595,0.9625 15.32104,1.83755 21.47851,2.47265 6.15748,0.6351 10.81734,1.03025 12.49414,1.03125 3.35361,0.002 10.14766,0.66911 15.09766,1.48242 2.475,0.40665 5.56797,0.77891 8.55859,1.05079 2.99063,0.27187 5.87891,0.44336 7.94141,0.44921 2.0625,0.006 4.95078,0.17735 7.94141,0.44922 2.99062,0.27188 6.08359,0.64413 8.55859,1.05078 4.95,0.8133 11.925,1.51992 15.5,1.57032 3.575,0.0504 8.525,0.46024 11,0.91015 1.62833,0.296 8.88217,0.47804 19.09766,0.56446 10.21549,0.0864 23.39222,0.0765 36.86328,-0.0117 13.47106,-0.0882 27.23777,-0.25448 38.63281,-0.48242 11.39504,-0.22795 20.41883,-0.51688 24.40625,-0.84961 7.425,-0.61959 16.64999,-1.79108 20.5,-2.60352 3.85,-0.81244 11.275,-2.19458 16.5,-3.07227 9.02275,-1.51563 16.54271,-2.95192 22.96289,-4.46875 3.21009,-0.75841 6.14519,-1.5368 8.85547,-2.35546 2.71028,-0.81867 5.19678,-1.67682 7.50781,-2.59571 2.31103,-0.91889 4.44665,-1.89795 6.45899,-2.95703 2.01233,-1.05908 3.90064,-2.19826 5.71484,-3.4375 1.8142,-1.23924 3.55486,-2.5797 5.27149,-4.03906 1.71662,-1.45937 3.4093,-3.03835 5.1289,-4.75781 2.77478,-2.77455 5.07041,-5.35558 7.02539,-8.07032 0.97749,-1.35736 1.86857,-2.74821 2.69336,-4.21289 0.82479,-1.46467 1.58214,-3.00471 2.28906,-4.6582 1.41384,-3.30699 2.62795,-7.07174 3.7793,-11.62305 1.15135,-4.55131 2.24068,-9.88824 3.4082,-16.33593 0.51443,-2.84103 0.91583,-5.3048 1.23829,-8.05469 0.32245,-2.74989 0.56577,-5.78494 0.76171,-9.77344 0.39189,-7.97701 0.5964,-19.76195 0.875,-40.67187 0.16855,-12.65 0.41235,-24.34207 0.66797,-32.98829 0.25563,-8.64621 0.52309,-14.24656 0.74219,-14.71484 0.25272,-0.54009 0.52416,-3.89071 0.80859,-9.83203 0.28444,-5.94132 0.58097,-14.47313 0.88477,-25.375 0.60761,-21.80373 1.24252,-53.08808 1.85351,-92.08984 0.26281,-16.775 0.61602,-32.75586 0.97461,-44.99024 0.3586,-12.23437 0.72256,-20.72226 1.00391,-22.50976 0.5628,-3.575 1.2787,-12.35 1.5918,-19.5 0.3132,-7.15 1.20331,-17.725 1.97851,-23.5 1.42415,-10.60904 2.32917,-17.81755 2.98633,-24.29688 0.65716,-6.47933 1.06645,-12.22948 1.49805,-19.92187 0.24255,-4.32248 0.54463,-8.38355 0.83594,-11.44532 0.2913,-3.06176 0.57183,-5.12422 0.77148,-5.44726 0.19965,-0.32304 0.47584,-5.4104 0.75977,-13.34571 0.28392,-7.9353 0.57559,-18.71856 0.80664,-30.43554 0.231,-11.71699 0.54573,-23.32466 0.86718,-32.58789 0.32146,-9.26324 0.64965,-16.18203 0.90625,-18.51953 0.31093,-2.8324 0.55027,-10.74044 0.71485,-21.12891 0.16457,-10.38847 0.25462,-23.25695 0.26758,-36.00977 0.013,-12.75282 -0.0514,-25.39097 -0.19532,-35.3164 -0.14393,-9.92544 -0.36772,-17.1386 -0.67382,-19.04492 -0.5299,-3.3 -1.67794,-11.85 -2.55274,-19 -1.93245,-15.79451 -3.03274,-24.68333 -3.76172,-30.07618 -0.72898,-5.39284 -1.08665,-7.28971 -1.5332,-9.09765 -0.5198,-2.10444 -1.49186,-8.55117 -2.16016,-14.32617 -0.432,-3.73302 -1.27773,-8.58986 -2.36328,-13.88672 -1.08554,-5.29687 -2.41003,-11.03306 -3.80273,-16.52735 -1.39271,-5.49428 -2.85355,-10.74698 -4.20703,-15.07226 -1.35349,-4.32528 -2.60049,-7.72382 -3.56836,-9.51367 -1.041,-1.925 -2.65319,-6.2 -3.58399,-9.5 -0.9308,-3.3 -2.37909,-7.0825 -3.21679,-8.40625 -0.83772,-1.32374 -2.5367,-5.6923 -3.7754,-9.70704 -0.82205,-2.66438 -1.81391,-5.067787 -3.17968,-7.587886 -1.36578,-2.5201 -3.10548,-5.156894 -5.42383,-8.28711 -2.32688,-3.141692 -4.42871,-5.709751 -6.68359,-7.927734 -1.12745,-1.108992 -2.293,-2.129248 -3.54493,-3.091797 -1.25192,-0.962549 -2.58915,-1.865852 -4.06054,-2.738281 -2.94279,-1.744858 -6.41997,-3.365574 -10.81055,-5.087891 -4.39058,-1.722317 -9.69469,-3.546905 -16.29297,-5.697265 -4.95,-1.613191 -9.80135,-2.941472 -10.78125,-2.951172 -0.9798,-0.0097 -4.49665,-0.933079 -7.81445,-2.050782 -3.12173,-1.051632 -6.36839,-1.949024 -9.82422,-2.703124 -3.45583,-0.754101 -7.12084,-1.364541 -11.08203,-1.841797 -3.96119,-0.477256 -8.21767,-0.821869 -12.85547,-1.042969 -4.6378,-0.2211 -9.65692,-0.319055 -15.14258,-0.304688 z"
       style="color:#000000;clip-rule:nonzero;display:inline;overflow:visible;visibility:visible;opacity:1;isolation:auto;mix-blend-mode:normal;color-interpolation:sRGB;color-interpolation-filters:linearRGB;solid-color:#000000;solid-opacity:1;fill:url(#linearGradient4756);fill-opacity:1;fill-rule:nonzero;stroke:none;stroke-width:1;stroke-linecap:butt;stroke-linejoin:miter;stroke-miterlimit:4;stroke-dasharray:none;stroke-dashoffset:0;stroke-opacity:1;color-rendering:auto;image-rendering:auto;shape-rendering:auto;text-rendering:auto;enable-background:accumulate" />
    <path
       id="path5061"
       d="m 631.625,34.318359 c -11.44871,0.198364 -28.20667,0.924208 -42.73633,1.75 -7.26483,0.412896 -13.97376,0.850718 -19.18164,1.259766 -5.20788,0.409048 -8.9155,0.789828 -10.18164,1.087891 -3.25789,0.766943 -71.98349,10.180522 -92,12.601562 -10.10958,1.222777 -17.426,2.181717 -23.05664,3.046875 -5.63064,0.865159 -9.57552,1.636536 -12.94336,2.484375 -3.025,0.761532 -10.225,2.078582 -16,2.925781 -5.775,0.847199 -14.325,2.397699 -19,3.447266 -4.675,1.049566 -13.9,3.09777 -20.5,4.550781 -6.6,1.453011 -14.475,3.353617 -17.5,4.222656 -3.025,0.869041 -8.65,2.401405 -12.5,3.40625 -6.18369,1.613935 -12.88975,3.758301 -18.85351,5.962891 -2.98189,1.102295 -5.77843,2.218608 -8.23047,3.292969 -2.45204,1.07436 -4.5604,2.105796 -6.16602,3.035156 -3.4375,1.989683 -8.95837,5.172772 -12.26953,7.074219 -2.1522,1.235903 -4.23084,2.537159 -6.31836,3.96875 -2.08752,1.43159 -4.18305,2.993713 -6.37109,4.753903 -4.37609,3.52038 -9.11928,7.83066 -14.88868,13.46289 -3.29025,3.21203 -6.1731,6.13502 -8.70117,8.83399 -2.52807,2.69897 -4.70223,5.17446 -6.57617,7.49414 -1.87393,2.31968 -3.44755,4.48249 -4.77539,6.55664 -1.32784,2.07415 -2.40904,4.0591 -3.29883,6.02148 -1.58956,3.5057 -4.00623,7.85359 -5.36914,9.66211 -1.6388,2.17461 -4.13313,6.49916 -6.55664,11.18164 -2.42351,4.68248 -4.77618,9.72289 -6.13086,13.33204 -1.11957,2.98276 -2.15071,6.39805 -3.0918,10.22656 -0.94108,3.82851 -1.79272,8.06974 -2.55273,12.70312 -0.76001,4.63338 -1.42757,9.65928 -2.00391,15.05664 -0.57633,5.39737 -1.0611,11.16663 -1.45117,17.28711 -0.39006,6.12048 -0.68552,12.59182 -0.88672,19.39453 -0.20119,6.80272 -0.30863,13.93679 -0.31836,21.38086 -0.01,7.44408 0.0774,15.19959 0.26172,23.24414 0.18434,8.04456 0.46666,16.37827 0.84766,24.98243 0.51475,11.62495 1.06682,20.18634 1.91797,28.12304 0.42557,3.96835 0.92528,7.78094 1.5332,11.74219 0.60792,3.96125 1.32392,8.07064 2.17969,12.63477 0.56137,2.99398 0.93916,6.94383 1.17969,13.04492 0.24052,6.10108 0.34377,14.35339 0.35742,25.95508 0.0159,13.46942 0.0927,21.57119 0.38672,27.47656 0.14703,2.95268 0.34727,5.35714 0.62304,7.60742 0.27578,2.25028 0.62634,4.34722 1.07032,6.6875 0.562,2.9624 0.98539,5.79375 1.21484,7.96875 0.22945,2.175 0.26496,3.69365 0.0508,4.03125 -0.33976,0.53556 -0.65513,1.64791 -0.95312,3.41602 -0.29799,1.7681 -0.57769,4.19182 -0.84766,7.35351 -0.53994,6.32338 -1.03849,15.59509 -1.54883,28.45899 -0.27274,6.875 -0.64835,13.96875 -1.0332,19.85937 -0.38486,5.89063 -0.77897,10.57813 -1.08985,12.64063 -0.31088,2.0625 -0.67866,7.59375 -1.01953,14.84375 -0.34086,7.25 -0.6548,16.21875 -0.86132,25.15625 -0.20653,8.9375 -0.50894,17.51328 -0.83008,24.1289 -0.32115,6.61563 -0.66102,11.2711 -0.94141,12.3711 -0.56077,2.2 -1.76815,10.975 -2.68359,19.5 -0.91545,8.525 -2.07819,17.65925 -2.58399,20.29882 -0.5058,2.63957 -0.92278,7.58957 -0.92578,11 -0.001,1.70522 -0.12534,3.69753 -0.32422,5.53516 -0.19887,1.83763 -0.47277,3.52059 -0.77343,4.60352 -0.60132,2.16585 -1.46042,7.11585 -1.90821,11 -0.4161,3.60926 -1.15101,8.65465 -2.0957,14.4707 -0.94469,5.81605 -2.09917,12.40275 -3.35547,19.0918 -0.77474,4.125 -2.1359,12.675 -3.02539,19 -1.11716,7.94396 -1.96812,13.58609 -2.75195,18.06445 -0.78384,4.47836 -1.50056,7.79295 -2.34961,11.08398 -0.80158,3.10705 -1.8965,9.74455 -2.4336,14.75 -0.5371,5.00546 -1.40246,13.0577 -1.92383,17.89258 -0.52136,4.83488 -1.41137,10.79738 -1.97656,13.25 -0.38508,1.67105 -0.65908,4.35243 -0.82812,7.52734 -0.16905,3.17492 -0.23384,6.84382 -0.19727,10.48829 0.0366,3.64446 0.17449,7.26406 0.40625,10.34375 0.23177,3.07969 0.55808,5.61901 0.97461,7.09961 2.19105,7.78819 3.5682,12.4726 4.67578,15.58203 0.55379,1.55471 1.03989,2.71501 1.52735,3.67382 0.48745,0.95882 0.97572,1.7155 1.5332,2.46094 1.34998,1.80517 3.08168,4.85821 3.84766,6.78321 0.59046,1.48391 1.80309,3.58379 3.38086,5.9707 1.57776,2.3869 3.52045,5.06177 5.57226,7.69336 2.05181,2.63158 4.21202,5.21955 6.22461,7.4375 2.01259,2.21795 3.87777,4.06493 5.33789,5.21094 3.04916,2.39318 9.23905,6.53194 13.75586,9.19921 4.5168,2.66728 9.63557,5.91678 11.375,7.22071 0.83844,0.62851 2.57476,1.49642 4.93359,2.50586 2.35884,1.00944 5.33923,2.16113 8.66602,3.35351 6.65358,2.38476 14.69158,4.93668 21.90234,6.86524 4.76485,1.27439 9.16319,2.6275 9.77539,3.00586 0.66011,0.40796 5.36255,1.33311 12.17969,2.49023 6.81715,1.15712 15.74949,2.54706 24.86719,3.88672 9.1177,1.33966 18.42065,2.62841 25.98242,3.58398 7.56177,0.95558 13.38189,1.57716 15.53125,1.58203 1.65,0.004 6.30039,0.41116 12.46289,1.0625 6.1625,0.65135 13.83711,1.54685 21.53711,2.53126 15.4,1.96879 34.075,3.98534 41.5,4.48046 7.425,0.49513 15.525,1.33383 18,1.86524 2.475,0.53142 8.1,0.98852 12.5,1.01562 4.4,0.0271 10.7,0.52903 14,1.11524 3.3,0.5862 10.725,1.41619 16.5,1.84375 3.88344,0.28752 13.16568,0.50273 25.13867,0.64648 11.97299,0.14375 26.6371,0.21681 41.28711,0.2168 14.65002,-10e-6 29.2847,-0.073 41.19922,-0.2168 11.91452,-0.14375 21.1085,-0.359 24.875,-0.64648 4.25599,-0.32485 8.6795,-0.76143 13.36914,-1.32617 4.68965,-0.56475 9.64638,-1.25754 14.9707,-2.09375 10.64865,-1.67243 22.76671,-3.91946 37.16016,-6.86719 2.763,-0.56586 5.44768,-1.219 8.05859,-1.96094 2.61092,-0.74193 5.14775,-1.57298 7.61524,-2.49609 2.46749,-0.92312 4.86651,-1.93748 7.19922,-3.04688 2.33271,-1.10939 4.60006,-2.31446 6.80664,-3.61523 2.20658,-1.30078 4.3523,-2.69806 6.4414,-4.19532 2.08911,-1.49725 4.12128,-3.09413 6.10157,-4.79296 1.98028,-1.69883 3.90894,-3.49879 5.78906,-5.4043 1.88012,-1.90551 3.7114,-3.91592 5.5,-6.0332 1.40049,-1.65785 2.68085,-3.28036 3.85937,-4.92969 1.17853,-1.64933 2.2558,-3.32542 3.25196,-5.0918 0.99616,-1.76638 1.91026,-3.62186 2.76367,-5.63086 0.85341,-2.00899 1.64622,-4.17166 2.39648,-6.54883 0.75026,-2.37716 1.45782,-4.96894 2.14453,-7.83984 0.68672,-2.8709 1.35285,-6.02152 2.01563,-9.51172 1.32556,-6.98039 2.64192,-15.32422 4.10937,-25.53515 0.2569,-1.7875 0.5338,-8.69961 0.77344,-18.39649 0.23964,-9.69687 0.44203,-22.17851 0.54883,-35.10351 0.1228,-14.85856 0.32332,-27.11418 0.58399,-36.08985 0.26066,-8.97567 0.58145,-14.67138 0.9414,-16.41015 0.3568,-1.72341 0.73466,-9.1653 1.10156,-21.26758 0.36691,-12.10228 0.72286,-28.86494 1.03516,-49.23242 0.6064,-39.55181 1.21724,-69.25901 1.85547,-89.91797 0.31911,-10.32949 0.64411,-18.39849 0.98047,-24.30274 0.33636,-5.90424 0.68317,-9.64461 1.04297,-11.32226 0.5962,-2.78031 1.08984,-7.84543 1.08984,-11.25586 0.003,-3.41043 0.4683,-8.90117 1.0332,-12.20117 0.7505,-4.3848 1.71578,-12.7937 2.62891,-22.40235 0.91313,-9.60864 1.7741,-20.41702 2.3125,-29.59765 0.5161,-8.8 1.40591,-19.6 1.97852,-24 0.28624,-2.2 0.59765,-8.30547 0.86914,-16.3711 0.27148,-8.06562 0.50305,-18.0914 0.6289,-28.1289 0.1258,-10.0375 0.34859,-19.78204 0.60742,-27.39454 0.25884,-7.6125 0.55372,-13.09296 0.82032,-14.60546 0.32452,-1.84095 0.57293,-9.24844 0.74414,-19.44336 0.17121,-10.19493 0.26481,-23.17732 0.27734,-36.17188 0.0125,-12.99456 -0.0555,-26.00038 -0.20703,-36.24023 -0.15152,-10.23986 -0.38611,-17.71372 -0.70703,-19.64453 -0.5485,-3.3 -1.4339,-9.6 -1.9668,-14 -0.533,-4.4 -1.68555,-13.625 -2.56055,-20.5 -0.875,-6.875 -1.96181,-15.425 -2.41601,-19 -0.4543,-3.575 -1.29108,-8.525 -1.85938,-11 -0.5683,-2.475 -1.55244,-9 -2.18554,-14.5 -0.6332,-5.5 -2.04222,-13.6 -3.13282,-18 -1.7101,-6.89881 -4.20702,-15.88458 -6.4082,-23.30274 -2.20118,-7.41816 -4.10661,-13.26871 -4.63086,-13.90039 -0.5525,-0.66561 -2.48361,-5.3923 -4.29101,-10.50391 -2.1099,-5.9669 -3.83642,-10.73704 -5.38086,-14.718746 -1.54444,-3.981709 -2.90763,-7.175027 -4.28711,-9.988281 -1.37949,-2.813253 -2.7756,-5.245493 -4.39063,-7.707031 -1.61503,-2.461538 -3.44814,-4.952343 -5.69922,-7.878906 -1.23113,-1.600559 -2.52223,-3.121292 -3.88867,-4.572266 -1.36644,-1.450974 -2.80762,-2.832609 -4.3418,-4.152344 -1.53417,-1.319734 -3.16017,-2.578315 -4.89453,-3.785156 -1.73435,-1.206841 -3.57795,-2.362317 -5.54492,-3.474609 -1.96696,-1.112293 -4.059,-2.180707 -6.29101,-3.216797 -2.23202,-1.036091 -4.60331,-2.039345 -7.13282,-3.017578 -5.05901,-1.956467 -10.74585,-3.81528 -17.18945,-5.650391 -9.53807,-2.716402 -17.10199,-4.815421 -23.5625,-6.427734 -6.46051,-1.612314 -11.81821,-2.73841 -16.94141,-3.507813 -5.1232,-0.769403 -10.01292,-1.181469 -15.53906,-1.36914 -5.52613,-0.187672 -11.6881,-0.15046 -19.35742,-0.01758 z m 2.90039,18.765625 c 5.48566,-0.01437 10.50478,0.08359 15.14258,0.304688 4.6378,0.2211 8.89428,0.565713 12.85547,1.042969 3.96119,0.477256 7.6262,1.087696 11.08203,1.841797 3.45583,0.7541 6.70249,1.651492 9.82422,2.703124 3.3178,1.117703 6.83465,2.041082 7.81445,2.050782 0.9799,0.0097 5.83125,1.337981 10.78125,2.951172 6.59828,2.15036 11.90239,3.974948 16.29297,5.697265 4.39058,1.722317 7.86776,3.343033 10.81055,5.087891 1.47139,0.872429 2.80862,1.775732 4.06054,2.738281 1.25193,0.962549 2.41748,1.982805 3.54493,3.091797 2.25488,2.217983 4.35671,4.786042 6.68359,7.927734 2.31835,3.130216 4.05805,5.76701 5.42383,8.28711 1.36577,2.520099 2.35763,4.923506 3.17968,7.587886 1.2387,4.01474 2.93768,8.3833 3.7754,9.70704 0.8377,1.32375 2.28599,5.10625 3.21679,8.40625 0.9308,3.3 2.54299,7.575 3.58399,9.5 0.96787,1.78985 2.21487,5.18839 3.56836,9.51367 1.35348,4.32528 2.81432,9.57798 4.20703,15.07226 1.3927,5.49429 2.71719,11.23048 3.80273,16.52735 1.08555,5.29686 1.93128,10.1537 2.36328,13.88672 0.6683,5.775 1.64036,12.22173 2.16016,14.32617 0.44655,1.80794 0.80422,3.70481 1.5332,9.09765 0.72898,5.39285 1.82927,14.28167 3.76172,30.07618 0.8748,7.15 2.02284,15.7 2.55274,19 0.3061,1.90632 0.52989,9.11948 0.67382,19.04492 0.14394,9.92543 0.20827,22.56358 0.19532,35.3164 -0.013,12.75282 -0.10301,25.6213 -0.26758,36.00977 -0.16458,10.38847 -0.40392,18.29651 -0.71485,21.12891 -0.2566,2.3375 -0.58479,9.25629 -0.90625,18.51953 -0.32145,9.26323 -0.63618,20.8709 -0.86718,32.58789 -0.23105,11.71698 -0.52272,22.50024 -0.80664,30.43554 -0.28393,7.93531 -0.56012,13.02267 -0.75977,13.34571 -0.19965,0.32304 -0.48018,2.3855 -0.77148,5.44726 -0.29131,3.06177 -0.59339,7.12284 -0.83594,11.44532 -0.4316,7.69239 -0.84089,13.44254 -1.49805,19.92187 -0.65716,6.47933 -1.56218,13.68784 -2.98633,24.29688 -0.7752,5.775 -1.66531,16.35 -1.97851,23.5 -0.3131,7.15 -1.029,15.925 -1.5918,19.5 -0.28135,1.7875 -0.64531,10.27539 -1.00391,22.50976 -0.35859,12.23438 -0.7118,28.21524 -0.97461,44.99024 -0.61099,39.00176 -1.2459,70.28611 -1.85351,92.08984 -0.3038,10.90187 -0.60033,19.43368 -0.88477,25.375 -0.28443,5.94132 -0.55587,9.29194 -0.80859,9.83203 -0.2191,0.46828 -0.48656,6.06863 -0.74219,14.71484 -0.25562,8.64622 -0.49942,20.33829 -0.66797,32.98829 -0.2786,20.90992 -0.48311,32.69486 -0.875,40.67187 -0.19594,3.9885 -0.43926,7.02355 -0.76171,9.77344 -0.32246,2.74989 -0.72386,5.21366 -1.23829,8.05469 -1.16752,6.44769 -2.25685,11.78462 -3.4082,16.33593 -1.15135,4.55131 -2.36546,8.31606 -3.7793,11.62305 -0.70692,1.65349 -1.46427,3.19353 -2.28906,4.6582 -0.82479,1.46468 -1.71587,2.85553 -2.69336,4.21289 -1.95498,2.71474 -4.25061,5.29577 -7.02539,8.07032 -1.7196,1.71946 -3.41228,3.29844 -5.1289,4.75781 -1.71663,1.45936 -3.45729,2.79982 -5.27149,4.03906 -1.8142,1.23924 -3.70251,2.37842 -5.71484,3.4375 -2.01234,1.05908 -4.14796,2.03814 -6.45899,2.95703 -2.31103,0.91889 -4.79753,1.77704 -7.50781,2.59571 -2.71028,0.81866 -5.64538,1.59705 -8.85547,2.35546 -6.42018,1.51683 -13.94014,2.95312 -22.96289,4.46875 -5.225,0.87769 -12.65,2.25983 -16.5,3.07227 -3.85001,0.81244 -13.075,1.98393 -20.5,2.60352 -3.98742,0.33273 -13.01121,0.62166 -24.40625,0.84961 -11.39504,0.22794 -25.16175,0.39419 -38.63281,0.48242 -13.47106,0.0882 -26.64779,0.0981 -36.86328,0.0117 -10.21549,-0.0864 -17.46933,-0.26846 -19.09766,-0.56446 -2.475,-0.44991 -7.425,-0.85975 -11,-0.91015 -3.575,-0.0504 -10.55,-0.75702 -15.5,-1.57032 -2.475,-0.40665 -5.56797,-0.7789 -8.55859,-1.05078 -2.99063,-0.27187 -5.87891,-0.44337 -7.94141,-0.44922 -2.0625,-0.006 -4.95078,-0.17734 -7.94141,-0.44921 -2.99062,-0.27188 -6.08359,-0.64414 -8.55859,-1.05079 -4.95,-0.81331 -11.74405,-1.48042 -15.09766,-1.48242 -1.6768,-10e-4 -6.33666,-0.39615 -12.49414,-1.03125 -6.15747,-0.6351 -13.81256,-1.51015 -21.47851,-2.47265 -15.33191,-1.925 -30.47892,-3.5 -33.66016,-3.5 -2.57328,0 -8.37227,-0.57218 -15.76562,-1.47461 -7.39335,-0.90244 -16.38124,-2.1346 -25.33008,-3.45704 -8.94884,-1.32243 -17.85985,-2.73413 -25.09961,-3.99414 -7.23976,-1.26 -12.80811,-2.36884 -15.07422,-3.08398 -3.3,-1.04142 -7.78668,-2.21 -9.9707,-2.5957 -2.18402,-0.3857 -6.3108,-1.73556 -9.16992,-3 -2.85913,-1.26445 -8.01401,-3.02826 -11.45508,-3.91992 -1.72054,-0.44584 -3.74295,-1.16019 -5.61524,-1.95313 -1.87228,-0.79294 -3.59445,-1.66447 -4.71484,-2.42187 -2.24078,-1.51482 -7.89922,-5.05345 -12.57422,-7.86329 -2.93735,-1.76545 -5.7009,-3.6913 -8.28711,-5.77539 -2.58621,-2.08408 -4.99601,-4.32671 -7.22656,-6.72461 -2.23055,-2.3979 -4.28197,-4.95129 -6.15234,-7.6582 -1.87038,-2.70691 -3.55878,-5.56702 -5.06446,-8.57812 -1.10009,-2.2 -2.92223,-5.8 -4.05078,-8 -1.14549,-2.23303 -2.10751,-4.37901 -2.90625,-6.52149 -0.79874,-2.14247 -1.43464,-4.28118 -1.92383,-6.50195 -0.48919,-2.22077 -0.83197,-4.52233 -1.04883,-6.99024 -0.21685,-2.46791 -0.30733,-5.10242 -0.28906,-7.98632 0.0192,-3.025 0.1407,-6.33829 0.32227,-9.23829 0.18157,-2.9 0.42321,-5.38671 0.67968,-6.76171 0.51296,-2.75 1.61383,-11.525 2.44727,-19.5 0.83344,-7.975 1.92143,-16.3 2.41797,-18.5 2.03201,-9.00313 3.26258,-14.78074 4.25976,-20.71094 0.99719,-5.9302 1.76098,-12.01299 2.85938,-21.62695 0.52387,-4.58526 1.21043,-8.75407 1.52539,-9.26368 0.25654,-0.41509 0.82319,-3.13506 1.72656,-8.3164 0.90337,-5.18135 2.14346,-12.82408 3.74805,-23.08203 0.60223,-3.85 1.74068,-10.38587 2.5293,-14.52344 0.78862,-4.13756 1.44879,-9.98756 1.46679,-13 0.018,-3.01243 0.46659,-8.62656 0.9961,-12.47656 0.52952,-3.85 1.64402,-13.075 2.47851,-20.5 0.83449,-7.425 1.95059,-15.3 2.48047,-17.5 0.26494,-1.1 0.5083,-4.87797 0.6875,-10.08008 0.1792,-5.20212 0.29423,-11.82838 0.30078,-18.6211 0.007,-6.79271 0.12831,-13.50859 0.31836,-18.85547 0.19005,-5.34687 0.44839,-9.32474 0.73047,-10.64453 0.28208,-1.31978 0.64726,-4.82477 1.00977,-9.41015 0.3625,-4.58539 0.72232,-10.25117 0.99023,-15.88867 1.23636,-26.01598 1.98065,-40.42069 2.7461,-48.8418 0.38272,-4.21056 0.77178,-6.92595 1.22851,-8.84766 0.45673,-1.92171 0.98206,-3.0504 1.64063,-4.08984 0.39722,-0.62695 0.76078,-1.50195 1.02734,-2.4082 0.26656,-0.90625 0.43611,-1.84375 0.44336,-2.5918 0.0348,-3.5822 -0.46893,-10.60979 -1.11914,-17.13086 -0.65021,-6.52107 -1.4469,-12.53561 -1.99414,-14.08984 -0.38746,-1.10042 -0.7717,-4.62072 -1.125,-10.10547 -0.3533,-5.48475 -0.67566,-12.93396 -0.93555,-21.89453 -0.37482,-12.9235 -0.76804,-21.95737 -1.29101,-28.46289 -0.26149,-3.25277 -0.55679,-5.87321 -0.89649,-8.03126 -0.3397,-2.15804 -0.72457,-3.85462 -1.16992,-5.25781 -0.50211,-1.582 -0.98891,-4.11997 -1.45117,-7.5 -0.46226,-3.38002 -0.90067,-7.6029 -1.30469,-12.55664 -0.80805,-9.90747 -1.48054,-22.73725 -1.94531,-37.59375 -0.30156,-9.63944 -0.47558,-18.71847 -0.51953,-27.26953 -0.044,-8.55105 0.0416,-16.57368 0.26367,-24.09766 0.22209,-7.52397 0.5796,-14.55117 1.07617,-21.10937 0.49657,-6.55821 1.13261,-12.64704 1.91211,-18.30078 0.7795,-5.65374 1.70258,-10.87107 2.77344,-15.68164 1.07085,-4.81058 2.28949,-9.21542 3.66015,-13.24414 1.37066,-4.02872 2.89337,-7.68207 4.57227,-10.99024 1.6789,-3.30817 3.51418,-6.27099 5.50976,-8.91992 1.44418,-1.91699 4.20663,-6.73353 6.14063,-10.70508 1.25441,-2.576 2.67253,-5.05307 4.36719,-7.5625 1.69465,-2.50943 3.66615,-5.05196 6.02734,-7.7539 2.36119,-2.70195 5.11123,-5.56325 8.36523,-8.7168 3.25401,-3.15355 7.01166,-6.59864 11.38477,-10.46289 2.35954,-2.08498 5.42066,-4.4283 8.80469,-6.80078 3.38403,-2.37248 7.09059,-4.77449 10.74023,-6.97657 3.64964,-2.20207 7.24207,-4.20356 10.39844,-5.77734 3.15636,-1.57377 5.87704,-2.719458 7.78125,-3.20703 2.40025,-0.614585 6.47511,-1.998742 9.05664,-3.074219 2.58153,-1.075477 7.53153,-2.584986 11,-3.355469 6.89462,-1.531561 20.16178,-4.807474 28.80664,-7.113281 3.025,-0.806845 8.425,-1.950692 12,-2.541015 3.575,-0.590323 8.75,-1.690596 11.5,-2.445313 2.75,-0.754716 10.08244,-2.092175 16.29297,-2.972656 6.21052,-0.88048 12.38776,-2.017592 13.72852,-2.527344 1.34073,-0.509751 10.88526,-2.070402 21.20898,-3.466797 10.32373,-1.396396 23.71953,-3.212082 29.76953,-4.035156 6.05,-0.823074 19.55,-2.6388 30,-4.035156 10.45,-1.396356 25.3,-3.455158 33,-4.574219 7.7,-1.119061 19.85,-2.450648 27,-2.958984 7.15,-0.508336 18.4,-1.344939 25,-1.859375 6.6,-0.514436 21.225,-0.958752 32.5,-0.988282 z"
       style="color:#000000;clip-rule:nonzero;display:inline;overflow:visible;visibility:visible;opacity:1;isolation:auto;mix-blend-mode:normal;color-interpolation:sRGB;color-interpolation-filters:linearRGB;solid-color:#000000;solid-opacity:1;fill:url(#linearGradient4750);fill-opacity:1;fill-rule:nonzero;stroke:none;stroke-width:1;stroke-linecap:butt;stroke-linejoin:miter;stroke-miterlimit:4;stroke-dasharray:none;stroke-dashoffset:0;stroke-opacity:1;color-rendering:auto;image-rendering:auto;shape-rendering:auto;text-rendering:auto;enable-background:accumulate" />
    <path
       id="path6068"
       d="m 509.23633,134.97852 c -3.06103,-0.0395 -6.22952,0.72987 -9.25,2.5 -5.78743,3.39166 -10.07362,10.39699 -11.3418,18.53125 -0.55737,3.575 -1.2392,20 -1.51562,36.5 -0.39269,23.43998 -0.95773,32.95201 -2.58399,43.5 -1.14477,7.425 -2.50758,19.575 -3.02734,27 -0.51976,7.425 -1.39068,16.65 -1.93555,20.5 -0.54488,3.85 -1.00544,11.65527 -1.02344,17.3457 l -0.0332,10.3457 -10.75,-0.71484 c -5.9125,-0.393 -13,-1.13213 -15.75,-1.64453 -2.75,-0.51241 -16.925,-1.17946 -31.5,-1.48047 -20.79399,-0.42944 -28.83117,-0.21678 -37.33008,0.98633 -10.40954,1.47357 -10.95439,1.45862 -14,-0.39844 -2.08889,-1.27371 -4.99746,-1.93355 -8.5332,-1.93555 -7.01527,-0.005 -12.49123,3.04003 -15.88672,8.83399 l -2.55469,4.35937 0.6836,22.65039 c 0.37671,12.45817 1.08722,25.35235 1.57812,28.65235 0.49091,3.3 1.1718,20.85 1.51367,39 0.34188,18.15 1.02743,36.15 1.52344,40 0.49602,3.85 1.19338,13.98041 1.54883,22.51367 l 0.64648,15.51562 -3.52539,1.27539 c -7.09119,2.5642 -12.65044,12.34226 -11.10351,19.5293 2.20099,10.22579 9.7154,15.60001 21.93945,15.69141 2.79297,0.0209 5.85711,0.68574 6.94141,1.50586 1.06762,0.80751 3.99262,1.468 6.5,1.46875 2.50738,7.5e-4 8.38359,0.68065 13.05859,1.50976 9.44673,1.67538 48.35917,5.77306 71.5,7.5293 8.25,0.62612 15.3487,1.46972 15.77539,1.875 1.10101,1.04573 0.34098,65.52715 -1.06836,90.58594 -1.07445,19.10438 -1.79832,26.13751 -5.25,51 -0.61085,4.4 -1.49768,17 -1.9707,28 -1.12903,26.25558 -2.71016,48.19124 -4.53906,63 -0.81511,6.6 -1.47485,18.3 -1.46485,26 0.0103,8.36735 -0.58602,17.15338 -1.48242,21.83789 -0.9385,4.90448 -1.5,13.74198 -1.5,23.61328 0,8.67655 -0.44959,18.15045 -1,21.05273 -0.68383,3.60581 -0.66785,6.51728 0.0527,9.19336 1.31624,4.8881 7.17197,11.49467 11.31641,12.76953 8.52345,2.62188 18.8709,-1.59206 23.35547,-9.50976 2.0835,-3.67849 2.24766,-5.22988 2.31836,-21.95703 0.0418,-9.9 0.52986,-20.25 1.08398,-23 0.55412,-2.75 1.34394,-14.6975 1.75586,-26.54883 0.41193,-11.85134 1.0741,-22.07311 1.47071,-22.71485 0.39661,-0.64173 1.15126,-7.59424 1.67578,-15.45117 0.52452,-7.85694 1.38312,-19.23515 1.91015,-25.28515 0.52703,-6.05 0.98177,-16.28014 1.00977,-22.73243 0.028,-6.45229 0.5011,-14.77729 1.05078,-18.5 1.38798,-9.40001 4.05959,-34.58957 5.06641,-47.76757 2.38341,-31.19593 2.8288,-42.92516 2.8789,-75.75 0.0327,-21.46064 0.42919,-35.75 0.99024,-35.75 0.51405,0 4.00155,0.62515 7.75,1.39062 3.74846,0.76546 12.66445,1.8921 19.81445,2.50391 36.98601,3.16482 46.76166,4.19257 52.60742,5.52539 3.51635,0.80172 9.76758,1.73719 13.89258,2.08008 8.77538,0.72945 21.74386,2.40158 24.25,3.12695 1.48317,0.42929 1.75,1.75688 1.75,8.70508 0,6.07529 0.48062,9.09465 1.85547,11.6582 5.03213,9.38295 16.62117,12.84956 25.51953,7.63477 2.44816,-1.43471 5.50077,-4.29983 6.7832,-6.36719 2.25915,-3.642 2.3498,-4.64478 2.9043,-32.30664 0.3148,-15.70214 0.83977,-28.98455 1.16797,-29.51563 0.3282,-0.53109 1.3279,-7.25939 2.2207,-14.95117 6.0477,-52.10454 9.74082,-78.38592 12.01172,-85.48437 0.7918,-2.475 2.41864,-10.3382 3.61524,-17.47266 2.7326,-16.29317 2.27571,-24.38687 -1.77149,-31.44922 -5.2265,-9.1202 -14.23922,-20.76081 -18.20312,-23.50781 -4.16274,-2.88478 -16.21149,-7.10627 -24.60352,-8.6211 -9.88543,-1.7844 -36.28912,-4.88441 -51,-5.98828 -8.25,-0.61906 -24.45,-2.64086 -36,-4.49218 -11.55,-1.85132 -24.7125,-3.91632 -29.25,-4.58985 l -8.25,-1.22461 0.0176,-13.07812 c 0.01,-7.19234 0.67715,-17.35117 1.48242,-22.57617 0.80527,-5.225 1.4803,-12.65 1.5,-16.5 0.0197,-3.85 0.72715,-11.275 1.57227,-16.5 2.11037,-13.04746 3.44603,-31.9488 4.34375,-61.5 0.4177,-13.75 1.27081,-26.8 1.89648,-29 3.26,-11.46296 -5.42525,-21.55142 -15.79687,-22.46485 -0.43216,-0.0381 -0.8674,-0.0608 -1.30469,-0.0664 z m -87.39649,209.15234 c 11.60212,-0.009 19.17462,0.4904 32.68555,1.86719 11.825,1.205 21.51119,2.26356 21.52539,2.35156 0.42349,2.62772 -1.56304,144.49896 -2.06445,147.43359 -0.40168,2.35091 -1.00742,4.398 -1.34571,4.54883 -2.62488,1.17036 -83.34636,-7.22136 -84.95703,-8.83203 -0.24606,-0.24607 -0.61521,-2.81916 -0.82031,-5.71875 -0.2051,-2.8996 -0.84519,-9.77148 -1.42187,-15.27148 -0.57667,-5.5 -1.46347,-22.15 -1.97071,-37 -2.01967,-59.1282 -2.88924,-81.14029 -3.32812,-84.1543 -0.37442,-2.57144 -0.0596,-3.28402 1.71094,-3.86133 1.19434,-0.38944 13.19687,-0.9284 26.67187,-1.19726 5.13206,-0.10241 9.44708,-0.16289 13.31445,-0.16602 z m 92.9961,9.55078 c 0.71468,-0.0321 1.80326,0.16799 3.53515,0.49219 11.31721,2.11846 49.34056,7.73424 56.1543,8.29297 26.77754,2.19577 56.83603,5.79396 63.14258,7.55859 2.66333,0.74523 4.76938,2.51059 7.83008,6.56445 l 4.1875,5.54493 -1.15039,7.1875 c -0.63249,3.95309 -1.99093,10.3375 -3.01954,14.1875 -1.02859,3.85 -2.33646,9.475 -2.90624,12.5 -1.53545,8.15156 -8.23958,60.81521 -9.61133,75.5 -0.35964,3.85 -1.31689,11.26604 -2.12696,16.48046 -0.81007,5.21443 -1.55791,9.51018 -1.66015,9.54688 -0.91356,0.3282 -26.4482,-3.01771 -34.68555,-4.54492 -5.775,-1.0707 -21.75,-2.86161 -35.5,-3.98047 -21.11568,-1.71823 -43.65734,-4.32177 -48.18359,-5.56445 -1.23459,-0.33896 -1.11616,-3.57605 0.74218,-20.4375 0.51524,-4.675 0.93746,-34.43125 0.93946,-66.125 0.002,-31.69375 0.27006,-58.96561 0.59765,-60.60352 0.2955,-1.4775 0.45391,-2.22094 1.11524,-2.48633 0.16533,-0.0663 0.36138,-0.10259 0.59961,-0.11328 z"
       style="fill:url(#linearGradient4706)" />
  </g>
</svg>
