<?xml version="1.0" encoding="UTF-8" standalone="no"?>
<svg
   xmlns:osb="http://www.openswatchbook.org/uri/2009/osb"
   xmlns:dc="http://purl.org/dc/elements/1.1/"
   xmlns:cc="http://creativecommons.org/ns#"
   xmlns:rdf="http://www.w3.org/1999/02/22-rdf-syntax-ns#"
   xmlns:svg="http://www.w3.org/2000/svg"
   xmlns="http://www.w3.org/2000/svg"
   xmlns:xlink="http://www.w3.org/1999/xlink"
   version="1.1"
   id="svg2985"
   height="921.4314"
   width="556.70294">
  <defs
     id="defs5498">
    <linearGradient
       osb:paint="solid"
       id="linearGradient4756">
      <stop
         id="stop4758"
         offset="0"
         style="stop-color:#ffffff;stop-opacity:1;" />
    </linearGradient>
    <linearGradient
       osb:paint="solid"
       id="linearGradient4750">
      <stop
         id="stop4752"
         offset="0"
         style="stop-color:#000000;stop-opacity:1;" />
    </linearGradient>
    <linearGradient
       osb:paint="solid"
       id="linearGradient5694">
      <stop
         id="stop5696"
         offset="0"
         style="stop-color:#002b11;stop-opacity:1;" />
    </linearGradient>
    <linearGradient
       osb:paint="solid"
       id="linearGradient4712">
      <stop
         id="stop4714"
         offset="0"
         style="stop-color:#162d50;stop-opacity:1;" />
    </linearGradient>
    <linearGradient
       osb:paint="solid"
       id="linearGradient4706">
      <stop
         id="stop4708"
         offset="0"
         style="stop-color:#d40000;stop-opacity:1;" />
    </linearGradient>
    <linearGradient
       gradientUnits="userSpaceOnUse"
       y2="508.69208"
       x2="761.44257"
       y1="508.69208"
       x1="262.13925"
       id="linearGradient4716"
       xlink:href="#linearGradient4712" />
    <linearGradient
       gradientUnits="userSpaceOnUse"
       y2="500.0004"
       x2="771.30902"
       y1="500.0004"
       x1="228.69211"
       id="linearGradient4754"
       xlink:href="#linearGradient4750" />
    <linearGradient
       gradientUnits="userSpaceOnUse"
       y2="500.10483"
       x2="752.40271"
       y1="500.10483"
       x1="248.61133"
       id="linearGradient4760"
       xlink:href="#linearGradient4756" />
    <linearGradient
       y2="508.69208"
       x2="761.44257"
       y1="508.69208"
       x1="262.13925"
       gradientUnits="userSpaceOnUse"
       id="linearGradient501"
       xlink:href="#linearGradient4712" />
    <linearGradient
       y2="508.69208"
       x2="761.44257"
       y1="508.69208"
       x1="262.13925"
       gradientUnits="userSpaceOnUse"
       id="linearGradient503"
       xlink:href="#linearGradient4712" />
    <linearGradient
       y2="508.69208"
       x2="761.44257"
       y1="508.69208"
       x1="262.13925"
       gradientUnits="userSpaceOnUse"
       id="linearGradient505"
       xlink:href="#linearGradient4712" />
  </defs>
  <metadata
     id="metadata5594">
    <rdf:RDF>
      <cc:Work
         rdf:about="">
        <dc:format>image/svg+xml</dc:format>
        <dc:type
           rdf:resource="http://purl.org/dc/dcmitype/StillImage" />
        <dc:title />
      </cc:Work>
    </rdf:RDF>
  </metadata>
  <g
     transform="translate(-221.64823,-39.284191)"
     style="display:inline"
     id="layer20">
    <path
       id="path4905"
       d="m 658.53906,56.390625 c -5.36991,-0.135501 -11.13521,0.01045 -17.58008,0.394531 -9.625,0.573606 -43.6,1.46739 -75.5,1.984375 -31.9,0.516985 -63.625,1.354048 -70.5,1.861328 -6.875,0.50728 -22.75684,0.959087 -35.29101,1.003907 -7.482,0.02675 -13.62093,0.102813 -19.22266,0.314453 -5.60173,0.21164 -10.66561,0.558479 -16,1.126953 -5.33438,0.568474 -10.93917,1.357823 -17.61914,2.455078 -6.67996,1.097255 -14.43575,2.502798 -24.07422,4.300781 -5.2289,0.975413 -9.78916,1.928273 -14.27539,3.064453 -4.48622,1.136181 -8.89857,2.454951 -13.83203,4.164063 -4.93345,1.709111 -10.3884,3.807748 -16.95898,6.501953 -6.57059,2.694205 -14.25667,5.98471 -23.6543,10.076172 -4.99038,2.17267 -9.53566,4.250393 -13.68164,6.279297 -4.14598,2.028901 -7.89251,4.009051 -11.28711,5.986331 -3.3946,1.97728 -6.43757,3.95095 -9.17383,5.96875 -2.73626,2.01779 -5.16694,4.08002 -7.33789,6.23047 -2.17095,2.15045 -4.08063,4.39037 -5.7793,6.76562 -1.69866,2.37525 -3.18449,4.88594 -4.5039,7.57813 -1.31941,2.69218 -2.47268,5.56475 -3.50586,8.66601 -1.03319,3.10126 -1.94712,6.43072 -2.78711,10.0332 -0.8044,3.44987 -1.6445,8.67962 -2.45313,14.93164 -0.80862,6.25203 -1.58501,13.52706 -2.26171,21.06446 -0.67671,7.53739 -1.25348,15.33659 -1.66211,22.64258 -0.40864,7.30598 -0.64989,14.11799 -0.6543,19.67578 -0.005,5.43259 -0.1752,13.07113 -0.44531,21.00195 -0.27011,7.93082 -0.63962,16.15391 -1.04493,22.75391 -0.28616,4.66005 -0.52076,10.04611 -0.71289,16.85742 -0.19212,6.81131 -0.34162,15.04817 -0.45507,25.4082 -0.22691,20.72006 -0.312,49.93472 -0.31641,93.23438 -0.004,36.2014 -0.10233,65.04086 -0.28711,85.72265 -0.18478,20.68179 -0.45549,33.20591 -0.80664,36.77735 -0.59483,6.05 -1.7407,16.85 -2.54688,24 -0.29065,2.57782 -0.53959,6.43075 -0.76171,12.43945 -0.22213,6.0087 -0.41738,14.17222 -0.59961,25.37305 -0.36448,22.40166 -0.67788,56.94979 -1.05469,110.6875 -0.41387,59.02229 -0.60309,93.36388 -0.52539,114.52929 0.0388,10.58271 0.14466,17.8723 0.32226,23.30469 0.17761,5.4324 0.42699,9.008 0.75391,12.16602 0.53658,5.1832 1.10752,9.56303 1.80273,13.40429 0.69522,3.84127 1.51501,7.14402 2.55079,10.17579 1.03577,3.03176 2.28743,5.79218 3.8457,8.54687 1.55827,2.75469 3.42285,5.50362 5.68555,8.51367 1.42457,1.8951 2.88731,3.62012 4.50195,5.26563 1.61464,1.6455 3.38026,3.21243 5.41601,4.78711 2.03576,1.57467 4.3414,3.15724 7.0293,4.83984 2.6879,1.6826 5.75898,3.46429 9.33008,5.43359 l 11.16602,6.15821 40.33398,-0.0684 c 18.03927,-0.0303 28.3733,0.004 35.25977,0.26172 3.44323,0.12873 6.02376,0.31187 8.27539,0.57226 2.25163,0.26039 4.17439,0.59743 6.29882,1.0293 5.225,1.06217 14.225,2.44664 20,3.07617 5.775,0.62952 14.91121,2.01112 20.30469,3.07031 6.32676,1.24247 11.67722,2.10484 19.48242,2.9668 7.80521,0.86196 18.06516,1.72349 34.21289,2.96289 14.575,1.11869 27.175,2.23767 28,2.48633 1.30934,0.39465 11.73504,1.33563 49.5,4.46875 4.08209,0.33866 9.82178,0.5779 16.38282,0.72265 6.56103,0.14476 13.9426,0.19437 21.30859,0.1543 7.366,-0.0401 14.71593,-0.16895 21.21289,-0.38476 6.49696,-0.21582 12.14177,-0.51791 16.0957,-0.90039 11.81815,-1.14321 20.03622,-2.00219 26.2793,-2.78125 6.24309,-0.77907 10.51118,-1.47822 14.42969,-2.29883 4.70871,-0.9861 13.41337,-3.45595 21.76172,-6.05469 4.17417,-1.29937 8.25874,-2.6317 11.71093,-3.82617 3.4522,-1.19448 6.27177,-2.25108 7.91407,-3.00195 1.31004,-0.59897 2.87156,-1.57192 4.64453,-2.88282 1.77297,-1.31089 3.75769,-2.95883 5.91016,-4.90625 2.15246,-1.94741 4.47334,-4.19461 6.92187,-6.70312 2.44853,-2.50852 5.0244,-5.27924 7.68555,-8.27344 1.67293,-1.88231 2.93166,-3.30986 3.93554,-4.77539 1.00389,-1.46553 1.7524,-2.96868 2.40235,-5.00391 0.64995,-2.03522 1.20137,-4.60197 1.8125,-8.19336 0.61113,-3.59138 1.2825,-8.20777 2.16992,-14.34179 0.55039,-3.80443 1.0406,-7.91645 1.48828,-12.63477 0.44768,-4.71832 0.85293,-10.0436 1.23438,-16.27148 0.76288,-12.45577 1.42967,-28.52568 2.14648,-50.59375 0.50915,-15.675 1.44378,-35.925 2.07617,-45 0.3885,-5.57512 0.64057,-15.90078 0.75977,-31.29492 0.1192,-15.39415 0.10553,-35.85679 -0.0391,-61.70508 -0.19224,-34.3681 -0.35484,-54.08883 -0.71484,-67.85742 -0.18,-6.8843 -0.4095,-12.28064 -0.7168,-17.2754 -0.30729,-4.99475 -0.69209,-9.58842 -1.18359,-14.86718 -1.20344,-12.925 -2.64304,-26.65 -3.19922,-30.5 -0.27809,-1.925 -0.65882,-14.36211 -1.04687,-32.84961 -0.38806,-18.4875 -0.78345,-43.02539 -1.09375,-69.15039 -0.43675,-36.77017 -0.64949,-63.06058 -0.63477,-84.51368 0.0147,-21.45309 0.25692,-38.06888 0.73047,-55.48632 0.64816,-23.83882 1.06007,-37.06751 1.72852,-47.09766 0.33422,-5.01507 0.73143,-9.22931 1.25585,-13.57226 0.52443,-4.34296 1.17563,-8.81369 2.01368,-14.3379 1.16755,-7.69616 3.49347,-22.99218 5.16992,-33.99218 2.13639,-14.01791 3.45066,-23.65984 4.15234,-31.16407 0.35084,-3.75211 0.54845,-6.9709 0.61914,-9.93359 0.0707,-2.96269 0.0145,-5.66976 -0.14258,-8.40234 -0.13825,-2.40471 -0.34636,-4.64601 -0.63867,-6.7461 -0.2923,-2.10008 -0.66942,-4.05891 -1.14257,-5.89648 -0.47316,-1.83757 -1.0438,-3.5547 -1.72461,-5.17188 -0.68082,-1.61717 -1.47146,-3.135325 -2.38672,-4.574215 -0.91527,-1.43889 -1.95434,-2.798846 -3.13086,-4.101563 -1.17652,-1.302716 -2.4905,-2.547205 -3.95508,-3.755859 -1.46458,-1.208654 -3.07994,-2.380405 -4.85938,-3.537109 -1.77943,-1.156705 -3.72265,-2.298446 -5.84375,-3.445313 -8.67927,-4.692849 -14.26861,-7.647182 -19.0332,-9.964843 -4.76459,-2.317662 -8.70445,-3.998653 -14.08789,-6.146485 -4.16043,-1.659886 -8.06571,-3.088999 -11.83398,-4.304687 -3.76828,-1.215689 -7.40024,-2.217478 -11.01563,-3.025391 -3.61539,-0.807913 -7.21424,-1.420863 -10.91601,-1.857422 -3.70178,-0.436559 -7.50577,-0.697202 -11.53321,-0.798828 z"
       style="color:#000000;clip-rule:nonzero;display:inline;overflow:visible;visibility:visible;opacity:1;isolation:auto;mix-blend-mode:normal;color-interpolation:sRGB;color-interpolation-filters:linearRGB;solid-color:#000000;solid-opacity:1;fill:url(#linearGradient4756);fill-opacity:1;fill-rule:nonzero;stroke:none;stroke-width:1;stroke-linecap:butt;stroke-linejoin:miter;stroke-miterlimit:4;stroke-dasharray:none;stroke-dashoffset:0;stroke-opacity:1;color-rendering:auto;image-rendering:auto;shape-rendering:auto;text-rendering:auto;enable-background:accumulate" />
    <path
       id="path4903"
       d="m 647.95898,39.291016 c -7.5625,0.02075 -15.95055,0.171875 -23.37304,0.398437 -7.42249,0.226563 -13.87941,0.528567 -17.57813,0.851563 -3.76597,0.328868 -11.75413,0.627299 -21.74414,0.845703 -9.99,0.218404 -21.98184,0.356782 -33.75586,0.367187 -11.56378,0.01022 -23.53811,0.131473 -33.51562,0.31836 -9.97751,0.186886 -17.95821,0.439403 -21.53321,0.71289 -7.15,0.546976 -28.075,1.384804 -46.5,1.861328 -8.61552,0.222822 -15.36525,0.419422 -21.11914,0.679688 -5.75388,0.260266 -10.51263,0.583748 -15.14453,1.060547 -4.63189,0.476799 -9.13715,1.108048 -14.38672,1.980469 -5.24956,0.87242 -11.24272,1.986462 -18.84961,3.433593 -5.36421,1.020486 -10.40033,2.117033 -15.35156,3.369141 -4.95122,1.252108 -9.81712,2.660609 -14.83984,4.302734 -5.02272,1.642125 -10.20257,3.518448 -15.78125,5.708985 -5.57869,2.190536 -11.55665,4.694454 -18.17578,7.591797 -9.75679,4.270762 -17.93036,8.022766 -24.87891,11.486328 -3.47428,1.73178 -6.64225,3.39162 -9.54883,5.007812 -2.90658,1.616192 -5.55201,3.188015 -7.98047,4.746094 -2.42845,1.558078 -4.63978,3.102717 -6.67968,4.660156 -2.03991,1.557442 -3.90751,3.127912 -5.64844,4.742192 -1.74093,1.61427 -3.3552,3.27141 -4.88672,5 -1.53152,1.72858 -2.98088,3.52931 -4.39258,5.42968 -1.70061,2.2893 -3.09485,4.27328 -4.28906,6.1875 -1.19421,1.91423 -2.18835,3.75905 -3.08594,5.76758 -0.89758,2.00853 -1.69903,4.18169 -2.50976,6.75391 -0.81074,2.57222 -1.6308,5.54315 -2.56446,9.14843 -1.0834,4.18352 -2.05659,8.88005 -2.92382,14.11524 -0.86724,5.23519 -1.62855,11.00918 -2.28516,17.34961 -0.65662,6.34043 -1.2086,13.24686 -1.66016,20.74609 -0.45155,7.49924 -0.80263,15.59113 -1.05468,24.30274 -0.4774,16.5 -1.33075,37.875 -1.89649,47.5 -0.29767,5.06418 -0.55686,21.49687 -0.74219,44.94726 -0.18532,23.4504 -0.29678,53.91851 -0.30078,87.05274 -0.003,28.78812 -0.0113,50.62703 -0.0801,67.64258 -0.0687,17.01554 -0.19831,29.20789 -0.4414,38.70507 -0.2431,9.49719 -0.60052,16.2982 -1.12696,22.53125 -0.52644,6.23305 -1.22185,11.89796 -2.14062,19.1211 -0.32412,2.54809 -0.5963,5.77963 -0.83398,10.49414 -0.23769,4.7145 -0.44068,10.91131 -0.62696,19.38867 -0.37256,16.95473 -0.67754,43.03229 -1.05469,84.61719 -0.44492,49.05879 -0.77399,86.07888 -0.92968,114.32031 -0.15569,28.24143 -0.1375,47.70381 0.11328,61.64844 0.12539,6.97231 0.30765,12.56483 0.55664,17.18554 0.24899,4.62072 0.56393,8.26933 0.95117,11.35352 0.38725,3.08419 0.84852,5.60406 1.38867,7.9668 0.54016,2.36273 1.15947,4.56904 1.86719,7.02539 0.62874,2.18224 1.35549,4.32816 2.17773,6.43359 0.82225,2.10543 1.74066,4.16939 2.75,6.18945 1.00935,2.02007 2.11075,3.99571 3.30079,5.92188 1.19003,1.92616 2.4677,3.80323 3.83203,5.62695 1.36432,1.82372 2.81544,3.5939 4.34765,5.30664 1.53222,1.71274 3.14615,3.36773 4.83985,4.96094 1.69369,1.59321 3.46568,3.1247 5.31445,4.58984 1.84877,1.46514 3.77404,2.86483 5.77148,4.19336 2.19888,1.4625 6.00262,3.64031 10.58399,6.11914 4.58137,2.47884 9.93945,5.25848 15.25,7.92383 5.31055,2.66536 10.57258,5.21623 14.95898,7.23828 4.3864,2.02206 7.8981,3.51552 9.70703,4.06446 3.94345,1.19667 8.82372,2.30456 13.43946,3.11328 4.61573,0.80872 8.96693,1.31826 11.85547,1.31836 2.14457,7e-5 3.58543,-0.11715 4.73828,-0.48242 1.15284,-0.36528 2.01767,-0.97861 3.01172,-1.97266 0.66792,-0.66792 1.20486,-1.45304 1.60351,-2.31055 0.39866,-0.85751 0.65899,-1.78672 0.77735,-2.74414 0.11835,-0.95742 0.0929,-1.94252 -0.0801,-2.91015 -0.17297,-0.96764 -0.49343,-1.91849 -0.96875,-2.80665 l -1.1211,-2.0957 14.3711,0.66406 c 3.9521,0.18266 7.99594,0.45939 11.32617,0.75782 3.33023,0.29842 5.94687,0.61854 7.04687,0.88867 2.2,0.54026 10.975,1.89778 19.5,3.01562 8.525,1.11784 18.65,2.68617 22.5,3.48633 4.11355,0.85494 10.97873,1.88918 18.32032,2.81445 7.34158,0.92528 15.15956,1.74159 21.17968,2.16407 18.60425,1.30559 35.12106,2.71339 47.5,4.04883 7.15,0.77132 22.45,2.12795 34,3.01367 11.55,0.88573 21.45,1.76848 22,1.96093 0.7615,0.26647 4.5144,0.41955 9.93555,0.47852 5.42115,0.059 12.51104,0.0236 19.94336,-0.0859 7.43232,-0.10951 15.20695,-0.29228 22.00195,-0.53125 6.79501,-0.23896 12.60993,-0.53387 16.11914,-0.86328 9.48287,-0.89015 16.99131,-1.62666 23.28321,-2.33984 6.2919,-0.71318 11.36705,-1.4032 15.98242,-2.20117 4.61537,-0.79798 8.77132,-1.70311 13.22461,-2.84766 4.45329,-1.14455 9.20412,-2.52836 15.00976,-4.28125 6.34364,-1.91533 11.20516,-3.41214 15.19727,-4.84766 1.99605,-0.71776 3.77478,-1.42108 5.41211,-2.15234 1.63733,-0.73126 3.13502,-1.4905 4.56641,-2.32422 1.43138,-0.83372 2.79756,-1.74243 4.17578,-2.76758 1.37821,-1.02515 2.76827,-2.16711 4.24609,-3.47265 2.95564,-2.61109 6.26251,-5.8722 10.5332,-10.13868 4.11244,-4.10837 8.00323,-8.22602 11.01563,-11.61328 3.0124,-3.38725 5.14641,-6.04411 5.74414,-7.23242 0.65497,-1.30209 1.29579,-2.96968 1.91797,-4.9668 0.62218,-1.99711 1.22662,-4.32431 1.80664,-6.94336 1.16003,-5.23809 2.22505,-11.64621 3.16016,-18.93359 0.9351,-7.28738 1.73984,-15.45305 2.375,-24.20508 0.63515,-8.75202 1.10113,-18.09061 1.36132,-27.72265 0.34172,-12.65 1.26415,-35.6 2.05078,-51 0.41678,-8.15945 0.75306,-24.02463 0.99805,-43.49805 0.24499,-19.47342 0.39943,-42.55467 0.45313,-65.14844 0.0537,-22.59376 0.007,-44.70021 -0.15039,-62.2207 -0.15711,-17.52049 -0.4251,-30.4554 -0.8125,-34.70899 -0.52216,-5.73302 -1.4807,-16.27382 -2.12891,-23.42382 -0.6482,-7.15 -1.57435,-16.375 -2.05859,-20.5 -0.3032,-2.58279 -0.65563,-11.2676 -1.01368,-23.74414 -0.35804,-12.47655 -0.72126,-28.74407 -1.04882,-46.49219 -0.65513,-35.49624 -1.1644,-76.91421 -1.18555,-105.76367 -0.0125,-17.08898 0.088,-32.48334 0.31055,-46.38086 0.22257,-13.89752 0.56643,-26.29843 1.04101,-37.40039 0.47458,-11.10196 1.08074,-20.90514 1.82422,-29.60743 0.74348,-8.70228 1.62504,-16.30344 2.6543,-23.00195 4.9494,-32.21151 7.40325,-48.14847 8.63476,-58.14062 0.61576,-4.99608 0.9261,-8.506 1.08985,-11.82032 0.16374,-3.31432 0.18089,-6.43382 0.21093,-10.64843 0.0312,-4.3705 9.3e-4,-7.99649 -0.12695,-11.12891 -0.12787,-3.13242 -0.35418,-5.77214 -0.7168,-8.16601 -0.36261,-2.39388 -0.86014,-4.54242 -1.5332,-6.69727 -0.67306,-2.15485 -1.52086,-4.315115 -2.58008,-6.730469 -0.95497,-2.177642 -1.94818,-4.151509 -3.02929,-5.982422 -1.08112,-1.830914 -2.24972,-3.518338 -3.55664,-5.125 -1.30693,-1.606663 -2.75236,-3.131831 -4.38477,-4.636719 -1.63241,-1.504888 -3.4522,-2.990034 -5.50977,-4.515625 -2.35649,-1.747231 -6.06292,-4.031867 -10.51562,-6.550781 -4.4527,-2.518914 -9.65104,-5.272336 -14.99414,-7.957032 -5.3431,-2.684695 -10.82974,-5.300345 -15.85742,-7.544921 -5.02769,-2.244577 -9.59706,-4.117851 -13.10352,-5.316407 -4.78543,-1.635728 -8.67102,-2.900486 -12.28516,-3.876953 -3.61413,-0.976466 -6.95743,-1.663938 -10.6582,-2.144531 -3.70077,-0.480593 -7.75936,-0.754236 -12.80469,-0.902344 -5.04533,-0.148107 -11.07678,-0.17138 -18.72461,-0.15039 z m 10.58008,17.099609 c 4.02744,0.101626 7.83143,0.362269 11.53321,0.798828 3.70177,0.436559 7.30062,1.049509 10.91601,1.857422 3.61539,0.807913 7.24735,1.809702 11.01563,3.025391 3.76827,1.215688 7.67355,2.644801 11.83398,4.304687 5.38344,2.147832 9.3233,3.828823 14.08789,6.146485 4.76459,2.317661 10.35393,5.271994 19.0332,9.964843 2.1211,1.146867 4.06432,2.288608 5.84375,3.445313 1.77944,1.156704 3.3948,2.328455 4.85938,3.537109 1.46458,1.208654 2.77856,2.453143 3.95508,3.755859 1.17652,1.302717 2.21559,2.662673 3.13086,4.101563 0.91526,1.43889 1.7059,2.957045 2.38672,4.574215 0.68081,1.61718 1.25145,3.33431 1.72461,5.17188 0.47315,1.83757 0.85027,3.7964 1.14257,5.89648 0.29231,2.10009 0.50042,4.34139 0.63867,6.7461 0.15711,2.73258 0.21327,5.43965 0.14258,8.40234 -0.0707,2.96269 -0.2683,6.18148 -0.61914,9.93359 -0.70168,7.50423 -2.01595,17.14616 -4.15234,31.16407 -1.67645,11 -4.00237,26.29602 -5.16992,33.99218 -0.83805,5.52421 -1.48925,9.99494 -2.01368,14.3379 -0.52442,4.34295 -0.92163,8.55719 -1.25585,13.57226 -0.66845,10.03015 -1.08036,23.25884 -1.72852,47.09766 -0.47355,17.41744 -0.71575,34.03323 -0.73047,55.48632 -0.0147,21.4531 0.19802,47.74351 0.63477,84.51368 0.3103,26.125 0.70569,50.66289 1.09375,69.15039 0.38805,18.4875 0.76878,30.92461 1.04687,32.84961 0.55618,3.85 1.99578,17.575 3.19922,30.5 0.4915,5.27876 0.8763,9.87243 1.18359,14.86718 0.3073,4.99476 0.5368,10.3911 0.7168,17.2754 0.36,13.76859 0.5226,33.48932 0.71484,67.85742 0.1446,25.84829 0.15827,46.31093 0.0391,61.70508 -0.1192,15.39414 -0.37127,25.7198 -0.75977,31.29492 -0.63239,9.075 -1.56702,29.325 -2.07617,45 -0.71681,22.06807 -1.3836,38.13798 -2.14648,50.59375 -0.38145,6.22788 -0.7867,11.55316 -1.23438,16.27148 -0.44768,4.71832 -0.93789,8.83034 -1.48828,12.63477 -0.88742,6.13402 -1.55879,10.75041 -2.16992,14.34179 -0.61113,3.59139 -1.16255,6.15814 -1.8125,8.19336 -0.64995,2.03523 -1.39846,3.53838 -2.40235,5.00391 -1.00388,1.46553 -2.26261,2.89308 -3.93554,4.77539 -2.66115,2.9942 -5.23702,5.76492 -7.68555,8.27344 -2.44853,2.50851 -4.76941,4.75571 -6.92187,6.70312 -2.15247,1.94742 -4.13719,3.59536 -5.91016,4.90625 -1.77297,1.3109 -3.33449,2.28385 -4.64453,2.88282 -1.6423,0.75087 -4.46187,1.80747 -7.91407,3.00195 -3.45219,1.19447 -7.53676,2.5268 -11.71093,3.82617 -8.34835,2.59874 -17.05301,5.06859 -21.76172,6.05469 -3.91851,0.82061 -8.1866,1.51976 -14.42969,2.29883 -6.24308,0.77906 -14.46115,1.63804 -26.2793,2.78125 -3.95393,0.38248 -9.59874,0.68457 -16.0957,0.90039 -6.49696,0.21581 -13.84689,0.34469 -21.21289,0.38476 -7.36599,0.0401 -14.74756,-0.01 -21.30859,-0.1543 -6.56104,-0.14475 -12.30073,-0.38399 -16.38282,-0.72265 -37.76496,-3.13312 -48.19066,-4.0741 -49.5,-4.46875 -0.825,-0.24866 -13.425,-1.36764 -28,-2.48633 -16.14773,-1.2394 -26.40768,-2.10093 -34.21289,-2.96289 -7.8052,-0.86196 -13.15566,-1.72433 -19.48242,-2.9668 -5.39348,-1.05919 -14.52969,-2.44079 -20.30469,-3.07031 -5.775,-0.62953 -14.775,-2.014 -20,-3.07617 -2.12443,-0.43187 -4.04719,-0.76891 -6.29882,-1.0293 -2.25163,-0.26039 -4.83216,-0.44353 -8.27539,-0.57226 -6.88647,-0.25746 -17.2205,-0.29202 -35.25977,-0.26172 l -40.33398,0.0684 -11.16602,-6.15821 c -3.5711,-1.9693 -6.64218,-3.75099 -9.33008,-5.43359 -2.6879,-1.6826 -4.99354,-3.26517 -7.0293,-4.83984 -2.03575,-1.57468 -3.80137,-3.14161 -5.41601,-4.78711 -1.61464,-1.64551 -3.07738,-3.37053 -4.50195,-5.26563 -2.2627,-3.01005 -4.12728,-5.75898 -5.68555,-8.51367 -1.55827,-2.75469 -2.80993,-5.51511 -3.8457,-8.54687 -1.03578,-3.03177 -1.85557,-6.33452 -2.55079,-10.17579 -0.69521,-3.84126 -1.26615,-8.22109 -1.80273,-13.40429 -0.32692,-3.15802 -0.5763,-6.73362 -0.75391,-12.16602 -0.1776,-5.43239 -0.28341,-12.72198 -0.32226,-23.30469 -0.0777,-21.16541 0.11152,-55.507 0.52539,-114.52929 0.37681,-53.73771 0.69021,-88.28584 1.05469,-110.6875 0.18223,-11.20083 0.37748,-19.36435 0.59961,-25.37305 0.22212,-6.0087 0.47106,-9.86163 0.76171,-12.43945 0.80618,-7.15 1.95205,-17.95 2.54688,-24 0.35115,-3.57144 0.62186,-16.09556 0.80664,-36.77735 0.18478,-20.68179 0.28361,-49.52125 0.28711,-85.72265 0.004,-43.29966 0.0895,-72.51432 0.31641,-93.23438 0.11345,-10.36003 0.26295,-18.59689 0.45507,-25.4082 0.19213,-6.81131 0.42673,-12.19737 0.71289,-16.85742 0.40531,-6.6 0.77482,-14.82309 1.04493,-22.75391 0.27011,-7.93082 0.44081,-15.56936 0.44531,-21.00195 0.004,-5.55779 0.24566,-12.3698 0.6543,-19.67578 0.40863,-7.30599 0.9854,-15.10519 1.66211,-22.64258 0.6767,-7.5374 1.45309,-14.81243 2.26171,-21.06446 0.80863,-6.25202 1.64873,-11.48177 2.45313,-14.93164 0.83999,-3.60248 1.75392,-6.93194 2.78711,-10.0332 1.03318,-3.10126 2.18645,-5.97383 3.50586,-8.66601 1.31941,-2.69219 2.80524,-5.20288 4.5039,-7.57813 1.69867,-2.37525 3.60835,-4.61517 5.7793,-6.76562 2.17095,-2.15045 4.60163,-4.21268 7.33789,-6.23047 2.73626,-2.0178 5.77923,-3.99147 9.17383,-5.96875 3.3946,-1.97728 7.14113,-3.95743 11.28711,-5.986331 4.14598,-2.028904 8.69126,-4.106627 13.68164,-6.279297 9.39763,-4.091462 17.08371,-7.381967 23.6543,-10.076172 6.57058,-2.694205 12.02553,-4.792842 16.95898,-6.501953 4.93346,-1.709112 9.34581,-3.027882 13.83203,-4.164063 4.48623,-1.13618 9.04649,-2.08904 14.27539,-3.064453 9.63847,-1.797983 17.39426,-3.203526 24.07422,-4.300781 6.67997,-1.097255 12.28476,-1.886604 17.61914,-2.455078 5.33439,-0.568474 10.39827,-0.915313 16,-1.126953 5.60173,-0.21164 11.74066,-0.287699 19.22266,-0.314453 12.53417,-0.04482 28.41601,-0.496627 35.29101,-1.003907 6.875,-0.50728 38.6,-1.344343 70.5,-1.861328 31.9,-0.516985 65.875,-1.410769 75.5,-1.984375 6.44487,-0.384084 12.21017,-0.530032 17.58008,-0.394531 z"
       style="color:#000000;clip-rule:nonzero;display:inline;overflow:visible;visibility:visible;opacity:1;isolation:auto;mix-blend-mode:normal;color-interpolation:sRGB;color-interpolation-filters:linearRGB;solid-color:#000000;solid-opacity:1;fill:url(#linearGradient4750);fill-opacity:1;fill-rule:nonzero;stroke:none;stroke-width:1;stroke-linecap:butt;stroke-linejoin:miter;stroke-miterlimit:4;stroke-dasharray:none;stroke-dashoffset:0;stroke-opacity:1;color-rendering:auto;image-rendering:auto;shape-rendering:auto;text-rendering:auto;enable-background:accumulate" />
    <path
       id="path4899"
       d="m 510.50586,148.42969 c -6.24975,0 -10.55118,2.2308 -14.01367,7.26562 -4.05321,5.89382 -4.41446,8.10971 -4.99414,30.70508 -0.93668,36.51052 -3.70729,85.476 -4.92188,86.99414 -0.0787,0.0984 -10.93759,1.54742 -24.13086,3.21875 -39.22811,4.96944 -54.08631,7.06506 -71.48633,10.08399 -17.70572,3.07196 -35.11866,5.67375 -46.67968,6.97461 -11.7599,1.32323 -16.98742,7.00605 -16.11524,17.52343 0.80313,9.68467 6.71954,14.52149 17.76172,14.52149 6.34685,0 34.36718,-3.73844 48.5332,-6.47461 15.18079,-2.93218 88.39995,-12.95944 89.1504,-12.20899 0.63686,0.63687 -3.09135,48.4566 -3.83594,49.20118 -0.67319,0.6732 -33.90419,3.48108 -40.93946,3.45898 -9.451,-0.0297 -49.07928,2.77061 -58.875,4.16016 -8.72497,1.23766 -12.33749,3.06714 -15.21289,7.71093 -4.25351,6.86945 -1.83236,18.64989 4.53321,22.05664 2.2253,1.19095 2.43601,2.03444 3.05859,12.28516 0.36767,6.05363 1.15097,14.44965 1.74219,18.6582 0.59123,4.20854 1.14336,13.19927 1.22656,19.98047 l 0.15234,12.33008 -3.8164,1.32617 c -7.32362,2.5437 -10.9707,7.90864 -10.9707,16.14258 0,8.88236 5.53794,14.71233 16.01757,16.86133 2.66075,0.54563 3.41005,1.31066 4.23828,4.33594 2.50967,9.16709 8.28558,14.16587 16.37891,14.17187 8.75441,0.007 15.10346,-4.84334 16.34375,-12.48633 l 0.57031,-3.50976 32.36914,0 32.36914,0 0.11914,6.75 c 0.29767,16.65299 -0.1034,28.36892 -1.23632,36.0625 -1.11328,7.56013 -1.4811,8.44446 -4.0586,9.77734 -4.15394,2.14809 -7.50845,8.04216 -8.20117,14.41016 -1.54876,14.23718 -14.06122,46.43731 -23.92578,61.57226 -2.48291,3.80946 -10.86713,15.25274 -18.63281,25.42774 -7.76567,10.175 -16.68227,21.875 -19.81446,26 -6.80937,8.96773 -12.73712,14.97079 -33.25,33.67382 -16.86736,15.37917 -29.23855,25.5536 -37.93164,31.19727 -5.02636,3.26318 -6.25686,3.62082 -12.63086,3.66992 -11.97901,0.0924 -17.9352,5.5743 -17.875,16.45117 0.061,11.02608 5.53976,17.16797 15.89454,17.82032 18.06216,1.13792 36.48141,-9.79898 73.54296,-43.66797 29.09311,-26.58696 32.78819,-30.79614 64.83399,-73.84766 4.1769,-5.6114 7.74211,-10.05478 7.92383,-9.87305 0.18173,0.18174 -0.54918,5.67346 -1.625,12.20313 -1.07583,6.52967 -2.25664,17.27305 -2.62305,23.87305 -0.3664,6.6 -0.83138,13.35 -1.0332,15 -0.20182,1.65 -0.65423,7.725 -1.00586,13.5 -0.35163,5.775 -1.27587,14.65671 -2.05469,19.73828 -0.77881,5.08158 -1.41602,11.48014 -1.41602,14.21875 0,2.73861 -1.54862,15.00691 -3.4414,27.26172 -1.89278,12.25481 -4.15557,29.70625 -5.02735,38.78125 -0.87179,9.075 -2.25496,22.4327 -3.07421,29.68554 -1.49012,13.19206 -2.93094,36.56358 -2.8125,45.63086 0.0708,5.42143 2.10719,8.86962 7.34375,12.4336 l 0,-0.002 c 4.6211,3.14549 13.38899,3.14489 18.05859,-0.002 6.25431,-4.21478 7.22861,-7.23727 7.60352,-23.60937 0.18433,-8.05079 1.21081,-22.73672 2.2832,-32.63672 1.07239,-9.9 2.46299,-23.625 3.08789,-30.5 0.6249,-6.875 2.46163,-20.51988 4.08398,-30.32227 1.62236,-9.80238 3.37979,-23.44663 3.9043,-30.31836 0.5245,-6.87174 1.20603,-12.90339 1.51563,-13.40429 0.30958,-0.50093 0.98856,-7.33364 1.50781,-15.1836 0.51926,-7.84996 1.19834,-16.97148 1.50781,-20.27148 0.30946,-3.3 0.94687,-11.4 1.41797,-18 1.03207,-14.45919 6.27827,-49.90756 9.02734,-61 2.38099,-9.60725 3.68926,-18.75306 4.50391,-31.4668 0.3336,-5.2062 0.72025,-9.57767 0.85742,-9.71484 0.91001,-0.91001 12.30339,15.82862 17.98242,26.41796 3.75714,7.0057 8.98837,15.66795 11.625,19.25 2.63662,3.58207 8.33868,12.59118 12.66992,20.01954 4.33123,7.42837 10.575,18.1266 13.875,23.77539 3.3,5.64879 9.9998,16.67129 14.88868,24.49414 4.88889,7.82285 12.50916,20.07461 16.93554,27.22461 4.42639,7.15 10.14811,15.75379 12.71485,19.11914 5.25301,6.88743 13.09293,19.65597 18.03906,29.38086 2.27875,4.48039 3.50793,8.55614 3.95508,13.12109 1.12683,11.50312 7.07368,16.60027 18.19531,15.5918 11.49116,-1.04198 17.54659,-8.3471 16.58008,-20.00196 -0.34113,-4.11356 -2.11921,-8.65628 -7.74024,-19.77539 -9.16991,-18.13925 -14.64485,-27.41687 -21.79296,-36.93554 -4.99056,-6.6456 -12.06236,-17.64532 -30.22071,-47 -2.89188,-4.675 -12.46102,-20.65 -21.26367,-35.5 -8.80265,-14.85 -17.92515,-29.70296 -20.27344,-33.00586 -2.34828,-3.30291 -5.96882,-9.37791 -8.04492,-13.5 -5.43993,-10.80101 -13.04767,-22.24463 -23.03711,-34.65039 -4.80282,-5.96456 -10.26234,-13.14125 -12.13086,-15.94922 -1.86852,-2.80798 -4.48302,-5.68797 -5.81055,-6.39844 l -2.41406,-1.29101 0.40821,-16.60352 c 0.22423,-9.13156 0.43058,-19.34428 0.45898,-22.69531 l 0.0527,-6.0918 18.25,-0.73047 c 10.0375,-0.40119 21.71393,-1.04446 25.94922,-1.42969 l 7.70118,-0.69921 0.65429,4.02148 c 1.45871,8.95555 7.13088,13.89844 15.94531,13.89844 9.27745,0 14.23931,-4.68667 16.45118,-15.53907 0.63783,-3.12951 1.7992,-5.91115 2.5957,-6.21679 0.79275,-0.30421 2.34227,-2.02997 3.44336,-3.83594 2.35157,-3.85696 2.68393,-12.9362 0.61133,-16.67578 -1.66467,-3.00355 -0.99278,-6.1603 4.50781,-21.16992 2.29641,-6.26627 4.73271,-13.65381 5.41211,-16.41602 0.6794,-2.7622 2.86361,-10.62829 4.85547,-17.48047 7.80278,-26.84221 3.11444,-43.85876 -14.41992,-52.32812 -9.49271,-4.58512 -20.96966,-5.71289 -58.08594,-5.71289 l -33.14844,0 0.62891,-6.25 c 0.34517,-3.4375 1.08685,-13 1.65039,-21.25 1.43683,-21.03456 1.48208,-21.22777 4.99804,-22 1.61527,-0.35477 18.58895,-0.65994 37.71875,-0.67774 34.83427,-0.0324 46.07428,0.85462 52.17774,4.1211 3.12494,1.67242 11.92622,1.27323 15.26758,-0.69336 5.85963,-3.44874 8.73367,-11.20095 6.80664,-18.35742 -2.30154,-8.54726 -10.5783,-13.46283 -27.04297,-16.0625 -5.94562,-0.93878 -19.77241,-1.33008 -46.93555,-1.33008 l -38.50586,0 0.70703,-7.5 c 1.1629,-12.35609 2.86932,-47.11032 3.40821,-69.41602 0.29372,-12.15727 0.96048,-21.76789 1.59375,-22.95117 0.59922,-1.11965 1.08984,-4.35548 1.08984,-7.18945 0,-9.63167 -6.10164,-15.73047 -15.73828,-15.73047 z m 32.12109,237.47461 c 15.27226,-0.0554 31.47834,0.19609 35.83203,0.80273 12.02491,1.67554 11.82562,1.56824 11.10352,6.08399 -0.74347,4.64944 -3.50066,13.87118 -12.08398,40.42578 -3.55557,11 -6.68801,21.146 -6.96094,22.54687 -0.49511,2.54118 -0.53294,2.54911 -16.77735,3.78906 -21.8195,1.6655 -41.16754,2.53089 -41.78125,1.86915 -0.6359,-0.68566 -0.46288,-27.57813 0.18164,-28.22266 0.92079,-0.92079 17.35514,-1.24709 22.41407,-0.44531 5.78816,0.91737 10.37303,2.85655 15.30078,6.4707 4.02543,2.95236 12.38497,3.43063 17.12305,0.98047 7.29816,-3.77402 10.16855,-14.2993 6.07617,-22.2793 -2.515,-4.90415 -5.34612,-7.36789 -12.67578,-11.0293 -9.79762,-4.89423 -17.35978,-6.46211 -32.90039,-6.82031 -7.6886,-0.17722 -14.45103,-0.50346 -15.02735,-0.72461 -1.16433,-0.44678 -1.21514,-11.24535 -0.0586,-12.40429 0.62342,-0.62472 14.96211,-0.98753 30.23437,-1.04297 z m -68.25195,3.98437 c 2.42477,-0.0985 4.01818,-0.0717 4.19531,0.10547 1.06002,1.05998 1.07426,8.79811 0.0176,9.45117 -0.53844,0.33277 -4.16311,0.75945 -8.05469,0.94922 -3.89158,0.18977 -10.89922,0.78507 -15.57422,1.32227 -4.675,0.53719 -13.675,1.26908 -20,1.62695 -6.325,0.35786 -15.6347,1.64379 -20.6875,2.85742 l -9.1875,2.20703 -0.68359,-6.39062 c -0.37649,-3.51513 -0.41223,-6.66589 -0.0781,-7 0.89793,-0.89794 28.73283,-3.21366 39.13671,-3.25586 4.95,-0.0201 14.72875,-0.56944 21.73243,-1.22266 3.50183,-0.3266 6.75882,-0.55187 9.18359,-0.65039 z m 2.72461,42.68164 c 1.06059,0.14689 1.44393,0.55487 1.7207,1.30274 0.35046,0.947 0.60751,7.4875 0.57031,14.5332 l -0.0684,12.81055 -35.0625,0.26172 -35.0625,0.26367 -0.60547,-2.26367 c -0.33346,-1.24446 -0.61114,-6.19922 -0.61914,-11.01172 l -0.0137,-8.75 3.53516,0 c 1.9449,0 7.2324,-0.86633 11.75,-1.92383 4.51759,-1.0575 15.63984,-2.45065 24.71484,-3.09766 9.075,-0.647 19.58679,-1.48563 23.36133,-1.86133 2.98087,-0.29669 4.71871,-0.41055 5.7793,-0.26367 z"
       style="fill:#000000" />
  </g>
</svg>
