<?xml version="1.0" encoding="UTF-8" standalone="no"?>
<svg
   xmlns:osb="http://www.openswatchbook.org/uri/2009/osb"
   xmlns:dc="http://purl.org/dc/elements/1.1/"
   xmlns:cc="http://creativecommons.org/ns#"
   xmlns:rdf="http://www.w3.org/1999/02/22-rdf-syntax-ns#"
   xmlns:svg="http://www.w3.org/2000/svg"
   xmlns="http://www.w3.org/2000/svg"
   xmlns:xlink="http://www.w3.org/1999/xlink"
   version="1.1"
   id="svg2985"
   height="939.54742"
   width="569.64362">
  <defs
     id="defs5498">
    <linearGradient
       osb:paint="solid"
       id="linearGradient4756">
      <stop
         id="stop4758"
         offset="0"
         style="stop-color:#ffffff;stop-opacity:1;" />
    </linearGradient>
    <linearGradient
       osb:paint="solid"
       id="linearGradient4750">
      <stop
         id="stop4752"
         offset="0"
         style="stop-color:#000000;stop-opacity:1;" />
    </linearGradient>
    <linearGradient
       osb:paint="solid"
       id="linearGradient5694">
      <stop
         id="stop5696"
         offset="0"
         style="stop-color:#002b11;stop-opacity:1;" />
    </linearGradient>
    <linearGradient
       osb:paint="solid"
       id="linearGradient4712">
      <stop
         id="stop4714"
         offset="0"
         style="stop-color:#162d50;stop-opacity:1;" />
    </linearGradient>
    <linearGradient
       osb:paint="solid"
       id="linearGradient4706">
      <stop
         id="stop4708"
         offset="0"
         style="stop-color:#d40000;stop-opacity:1;" />
    </linearGradient>
    <linearGradient
       gradientUnits="userSpaceOnUse"
       y2="508.69208"
       x2="761.44257"
       y1="508.69208"
       x1="262.13925"
       id="linearGradient4716"
       xlink:href="#linearGradient4712" />
    <linearGradient
       gradientUnits="userSpaceOnUse"
       y2="500.0004"
       x2="771.30902"
       y1="500.0004"
       x1="228.69211"
       id="linearGradient4754"
       xlink:href="#linearGradient4750" />
    <linearGradient
       gradientUnits="userSpaceOnUse"
       y2="500.10483"
       x2="752.40271"
       y1="500.10483"
       x1="248.61133"
       id="linearGradient4760"
       xlink:href="#linearGradient4756" />
    <linearGradient
       y2="508.69208"
       x2="761.44257"
       y1="508.69208"
       x1="262.13925"
       gradientUnits="userSpaceOnUse"
       id="linearGradient501"
       xlink:href="#linearGradient4712" />
    <linearGradient
       y2="508.69208"
       x2="761.44257"
       y1="508.69208"
       x1="262.13925"
       gradientUnits="userSpaceOnUse"
       id="linearGradient503"
       xlink:href="#linearGradient4712" />
    <linearGradient
       y2="508.69208"
       x2="761.44257"
       y1="508.69208"
       x1="262.13925"
       gradientUnits="userSpaceOnUse"
       id="linearGradient505"
       xlink:href="#linearGradient4712" />
  </defs>
  <metadata
     id="metadata5594">
    <rdf:RDF>
      <cc:Work
         rdf:about="">
        <dc:format>image/svg+xml</dc:format>
        <dc:type
           rdf:resource="http://purl.org/dc/dcmitype/StillImage" />
        <dc:title />
      </cc:Work>
    </rdf:RDF>
  </metadata>
  <g
     transform="translate(-215.17808,-30.226234)"
     style="display:inline"
     id="layer32">
    <path
       id="path5047"
       d="m 588.35156,49.373047 c -5.22694,0.110437 -9.98056,0.34288 -13.33008,0.677734 -11.25476,1.125153 -23.46733,2.140854 -35.88476,2.996094 -12.41743,0.85524 -25.03971,1.54955 -37.11524,2.03125 -6.08003,0.242536 -11.24306,0.50799 -15.75586,0.832031 -4.51279,0.324042 -8.37529,0.706663 -11.85351,1.185547 -3.47822,0.478884 -6.57251,1.054654 -9.54883,1.761719 -2.97632,0.707065 -5.83472,1.546104 -8.8418,2.554687 -1.59987,0.536604 -5.07497,1.351426 -9.55468,2.289063 -4.47971,0.937637 -9.96322,1.997491 -15.58203,3.019531 -5.61882,1.02204 -11.37343,2.007063 -16.39063,2.796875 -5.0172,0.789812 -9.2978,1.384046 -11.97266,1.625 -3.109,0.280063 -7.24704,0.899731 -11.78515,1.714844 -4.53812,0.815112 -9.47651,1.826655 -14.1875,2.892578 -4.71099,1.065923 -9.19463,2.186254 -12.82227,3.21875 -3.62763,1.032496 -6.39945,1.976577 -7.6875,2.691406 -1.28956,0.715671 -3.76034,1.73275 -7.23828,2.986328 -3.47793,1.253579 -7.96264,2.744697 -13.2793,4.410157 -1.64999,0.516868 -3.825,1.352799 -6,2.285156 -2.175,0.932357 -4.34999,1.959678 -6,2.857422 -3.29999,1.795487 -7.80987,4.196164 -10.02148,5.333984 -1.36555,0.702537 -3.16566,1.815897 -5.19336,3.183597 -2.0277,1.3677 -4.28279,2.98951 -6.56055,4.71093 -4.5555,3.44286 -9.19804,7.28236 -12.28125,10.27149 -1.11681,1.08274 -2.70419,2.94304 -4.45507,5.1543 -1.75089,2.21125 -3.6653,4.7726 -5.44141,7.25976 -1.77611,2.48717 -3.41299,4.90007 -4.60547,6.81055 -1.19248,1.91048 -1.94141,3.31959 -1.94141,3.80078 0,0.3998 -2.19078,5.93424 -4.86914,12.30078 -2.93608,6.97919 -5.08316,12.46887 -6.80664,17.54297 -1.72348,5.0741 -3.02459,9.73404 -4.26562,15.05273 -1.02907,4.41031 -2.56331,9.58531 -3.41016,11.5 -0.67943,1.53616 -1.52807,4.39247 -2.4414,8.04883 -0.91334,3.65636 -1.89171,8.11297 -2.83204,12.84766 -0.94032,4.73468 -1.84116,9.74643 -2.60156,14.51758 -0.7604,4.77114 -1.38036,9.30068 -1.7539,13.0664 -0.38191,3.85 -2.53353,16.45 -4.78125,28 -1.46198,7.51244 -2.58241,13.42463 -3.44141,18.63086 -0.859,5.20623 -1.45674,9.70711 -1.87109,14.40039 -0.41435,4.69328 -0.64543,9.5772 -0.77344,15.55078 -0.12802,5.97359 -0.15235,13.03684 -0.15235,22.08399 0,8.44945 0.044,15.28716 0.16016,20.8457 0.11615,5.55854 0.30366,9.83679 0.59375,13.16797 0.29009,3.33118 0.68327,5.71505 1.20508,7.48242 0.2609,0.88369 0.55314,1.61332 0.88281,2.23047 0.32967,0.61715 0.69591,1.12113 1.10156,1.55469 0.528,0.56431 1.46381,2.35802 2.54688,4.79297 1.08307,2.43494 2.31245,5.51249 3.42773,8.64258 2.23056,6.26017 4.62382,12.06601 5.31836,12.90234 0.20719,0.24948 0.38803,1.28492 0.54102,2.97851 0.15299,1.6936 0.2797,4.04529 0.3789,6.92383 0.19841,5.75709 0.28965,13.62457 0.27539,22.56641 -0.0143,8.94184 -0.13381,18.95849 -0.35742,29.01172 -0.2236,10.05323 -0.55276,20.14312 -0.98242,29.23437 -0.4788,10.1308 -0.7191,17.32066 -0.72461,23.19532 -0.006,5.87465 0.22472,10.43411 0.68945,15.30468 0.5981,6.26838 1.07052,11.68028 1.44336,17.06055 0.37284,5.38027 0.64593,10.72869 0.84766,16.86914 0.40346,12.2809 0.51857,27.73009 0.5625,52.94141 0.035,20.06854 -0.0216,33.46528 -0.23047,42.83398 -0.10441,4.68435 -0.24809,8.36243 -0.43555,11.36328 -0.18745,3.00086 -0.41983,5.3244 -0.70507,7.30274 -0.91305,6.33247 -1.62196,11.43752 -2.17188,15.9707 -0.54991,4.53318 -0.9401,8.49495 -1.21679,12.54492 -0.2767,4.04997 -0.43982,8.18746 -0.53321,13.07031 -0.0934,4.88285 -0.11719,10.51116 -0.11719,17.54297 0,7.95012 0.0388,14.51605 0.14063,20.10547 0.10185,5.58942 0.2665,10.20265 0.52148,14.24414 0.25499,4.04149 0.5992,7.51204 1.0586,10.81836 0.4594,3.30633 1.0349,6.4481 1.75,9.83203 1.04603,4.95 2.5562,12.6 3.35547,17 0.39963,2.2 1.29141,5.63311 2.4082,9.39258 1.11678,3.75947 2.45715,7.84559 3.75195,11.34961 1.1058,2.99253 1.98262,5.31801 2.78907,7.25195 0.80644,1.93395 1.54356,3.4772 2.36914,4.90235 0.82557,1.42514 1.73915,2.73309 2.90234,4.19922 1.16318,1.46613 2.57525,3.08958 4.39453,5.14648 2.14512,2.42529 4.39949,4.83221 6.64844,7.11719 2.24895,2.28498 4.49198,4.44737 6.61523,6.38281 2.12325,1.93544 4.12651,3.64481 5.89453,5.02148 1.76803,1.37668 3.30111,2.42062 4.48438,3.0293 1.69635,0.87262 5.51228,3.5073 8.48047,5.85352 1.53464,1.21306 3.9598,2.63682 6.91797,4.12695 2.95817,1.49013 6.45031,3.04571 10.11914,4.52539 3.66882,1.47969 7.51502,2.88272 11.18164,4.06445 3.66661,1.18173 7.15393,2.14201 10.10547,2.73828 3.91147,0.7902 10.93633,2.36158 15.61132,3.49024 10.74707,2.59461 16.99362,4.07827 21.47852,5.04492 4.4849,0.96665 7.20886,1.41603 10.91016,1.93555 4.33836,0.60895 9.96336,1.74621 12.5,2.52734 2.53662,0.78112 9.52336,2.11869 15.52734,2.97266 3.00199,0.42698 6.19141,0.9757 8.91016,1.51758 2.71875,0.54187 4.96683,1.07748 6.08984,1.47265 1.12301,0.39518 4.73171,1.14877 9.64062,2.04492 4.90892,0.89615 11.11836,1.93394 17.44336,2.89844 12.65,1.929 25.73699,3.95358 29.08204,4.5 3.34506,0.54643 8.52007,0.99813 11.5,1.00196 1.48997,0.002 5.82344,0.50861 11.60351,1.32421 5.78007,0.81561 13.00732,1.94019 20.28711,3.17579 7.2798,1.23558 14.4625,2.36272 20.17188,3.18554 5.70937,0.82283 9.94542,1.34068 11.32812,1.35352 2.76542,0.0257 7.95234,0.67075 11.52734,1.43359 1.23654,0.26385 2.70982,0.47826 4.58008,0.64649 1.87026,0.16823 4.13825,0.29108 6.96485,0.37304 5.65318,0.16393 13.54088,0.16408 24.95507,0.0391 13.83707,-0.15154 21.5501,-0.28228 27.07422,-0.6621 2.76206,-0.18992 4.97755,-0.44259 7.13672,-0.79102 2.15918,-0.34843 4.26288,-0.79262 6.80274,-1.36719 6.17452,-1.3968 13.01217,-3.29817 19.10546,-5.25195 3.04665,-0.97689 5.90788,-1.96722 8.40626,-2.91406 2.49837,-0.94685 4.6343,-1.85036 6.23242,-2.6543 2.33354,-1.17389 10.07242,-5.79286 17.19726,-10.26562 2.64201,-1.65858 4.91102,-3.13508 6.98242,-4.57032 2.07141,-1.43524 3.94461,-2.83007 5.79493,-4.32422 3.70063,-2.98828 7.30922,-6.37561 12.22265,-11.29296 3.31258,-3.31523 6.48779,-6.66016 8.9375,-9.37891 2.44972,-2.71875 4.17389,-4.81132 4.57813,-5.62109 0.80846,-1.61956 2.99644,-5.39622 4.86328,-8.39258 1.86684,-2.99636 3.97958,-7.10811 4.69531,-9.13672 0.71574,-2.02861 2.05719,-5.15011 2.98047,-6.93555 0.4894,-0.94639 1.12313,-3.06087 1.81836,-5.91601 0.69522,-2.85515 1.45288,-6.45086 2.19141,-10.35547 0.73852,-3.90462 1.45687,-8.11809 2.07617,-12.21289 0.6193,-4.09481 1.13901,-8.07038 1.47656,-11.4961 1.87969,-19.07669 2.96856,-31.12687 3.58203,-41.44531 0.30674,-5.15922 0.49529,-9.88468 0.60352,-14.83984 0.10822,-4.95516 0.13659,-10.14008 0.125,-16.21485 -0.0134,-7.04218 -0.25801,-16.75929 -0.65039,-27.5664 -0.39239,-10.80711 -0.93347,-22.70361 -1.53711,-34.10743 -0.60365,-11.40381 -1.27078,-22.31418 -1.91797,-31.14648 -0.64719,-8.8323 -1.27385,-15.58713 -1.79688,-18.67969 -0.32557,-1.925 -1.22093,-10.475 -1.99023,-19 -1.71872,-19.04608 -2.86115,-31.37432 -3.63086,-39.03515 -0.76971,-7.66084 -1.16765,-10.65466 -1.40039,-11.03125 -0.2441,-0.39495 -0.48711,-1.64689 -1.05274,-6.60352 -0.56562,-4.95663 -1.45328,-13.61755 -2.99023,-28.83008 -0.66557,-6.58772 -1.20485,-12.90827 -1.63867,-19.78125 -0.43383,-6.87297 -0.76332,-14.2989 -1.01172,-23.09765 -0.2484,-8.79875 -0.41416,-18.96894 -0.52344,-31.33399 -0.10928,-12.36504 -0.16125,-26.92424 -0.17773,-44.49609 -0.0193,-20.55868 -0.13734,-38.46825 -0.32813,-51.7832 -0.19079,-13.31496 -0.45514,-22.03529 -0.76172,-24.2168 -0.28177,-2.00499 -0.64905,-8.88947 -1.01562,-18.36719 -0.36657,-9.47772 -0.73146,-21.54883 -1.00586,-33.92383 -0.54882,-24.75 -1.46542,-55.35 -2.03711,-68 -0.29468,-6.52054 -0.49598,-17.27096 -0.58398,-29.66601 -0.088,-12.39506 -0.0636,-26.43403 0.0918,-39.53125 0.14699,-12.38872 0.21977,-22.24621 0.17774,-30.19532 -0.042,-7.9491 -0.19859,-13.98939 -0.51172,-18.74609 -0.31313,-4.7567 -0.78292,-8.229524 -1.44922,-11.041015 -0.33315,-1.405745 -0.71551,-2.647489 -1.15234,-3.800781 -0.43683,-1.153293 -0.92775,-2.218651 -1.47852,-3.275391 -0.57184,-1.097109 -1.36616,-2.285745 -2.30469,-3.488281 -0.93852,-1.202536 -2.02037,-2.418346 -3.16797,-3.56836 -1.14759,-1.150013 -2.3615,-2.234286 -3.56054,-3.173828 -1.19905,-0.939541 -2.38369,-1.735519 -3.47657,-2.30664 -3.05683,-1.597459 -6.53899,-3.15379 -10.24218,-4.609375 -3.70319,-1.455586 -7.62659,-2.81004 -11.56641,-4 -3.93982,-1.189961 -7.89539,-2.215042 -11.66211,-3.015625 -3.76672,-0.800584 -7.3454,-1.376608 -10.5293,-1.664063 -3.29999,-0.297938 -9.825,-1.392969 -14.5,-2.433593 -9.56673,-2.129494 -16.97739,-3.764754 -23,-5.027344 -6.0226,-1.262591 -10.65743,-2.151756 -14.67382,-2.792969 -4.0164,-0.641213 -7.41481,-1.033466 -10.96289,-1.298828 -3.54809,-0.265362 -7.24559,-0.404026 -11.86329,-0.539063 -5.24272,-0.153315 -10.94298,-0.165125 -16.16992,-0.05469 z"
       style="color:#000000;clip-rule:nonzero;display:inline;overflow:visible;visibility:visible;opacity:1;isolation:auto;mix-blend-mode:normal;color-interpolation:sRGB;color-interpolation-filters:linearRGB;solid-color:#000000;solid-opacity:1;fill:url(#linearGradient4756);fill-opacity:1;fill-rule:nonzero;stroke:none;stroke-width:1;stroke-linecap:butt;stroke-linejoin:miter;stroke-miterlimit:4;stroke-dasharray:none;stroke-dashoffset:0;stroke-opacity:1;color-rendering:auto;image-rendering:auto;shape-rendering:auto;text-rendering:auto;enable-background:accumulate" />
    <path
       id="path5045"
       d="m 605.82422,30.287109 c -4.11771,-0.109718 -8.40191,-0.06481 -13.30274,0.08594 -8.18881,0.251893 -21.44235,1.079309 -32.82226,1.951172 -5.68996,0.435931 -10.91117,0.883819 -14.79688,1.27539 -3.8857,0.391571 -6.43644,0.727097 -6.7832,0.941407 -0.42444,0.262316 -14.23136,0.939657 -30.68359,1.503906 -7.82127,0.26824 -14.3786,0.549175 -20.01758,0.886719 -5.63898,0.337543 -10.36034,0.729909 -14.51367,1.21875 -4.15334,0.48884 -7.73723,1.074742 -11.10157,1.796875 -3.36433,0.722132 -6.50926,1.581722 -9.78125,2.61914 -2.19408,0.695661 -6.45129,1.702155 -11.69921,2.820313 -5.24793,1.118157 -11.48723,2.347188 -17.64649,3.490234 -6.15926,1.143046 -12.23791,2.200376 -17.16601,2.970703 -4.92811,0.770327 -8.70532,1.253906 -10.25977,1.253906 -1.0558,0 -3.4921,0.350952 -6.68945,0.919922 -3.19736,0.568971 -7.15495,1.355275 -11.25196,2.228516 -8.194,1.746482 -16.94591,3.837531 -21.28711,5.212891 -2.475,0.784118 -7.65,2.649981 -11.5,4.146484 -3.85,1.496504 -10.375,3.757124 -14.5,5.023437 -3.37698,1.036687 -6.54762,2.24804 -10.68945,4.183594 -4.14183,1.935555 -9.25483,4.594876 -16.51953,8.53125 -1.50013,0.812846 -3.62182,2.175033 -6.05078,3.84961 -2.42896,1.674576 -5.16577,3.662444 -7.89844,5.726562 -2.73267,2.064118 -5.45985,4.204076 -7.87109,6.185547 -2.41125,1.981473 -4.50601,3.803833 -5.97071,5.230463 -2.475,2.41068 -5.6704,6.15567 -7.10156,8.32227 -4.04438,6.12271 -6.97844,10.75401 -9.13476,14.46875 -2.15633,3.71474 -3.53635,6.51309 -4.47266,8.9707 -1.15246,3.025 -3.88313,10 -6.07031,15.5 -2.81157,7.07013 -4.37839,11.07653 -5.51367,14.4375 -1.13529,3.36097 -1.83972,6.0765 -2.93164,10.5625 -1.071,4.4 -2.58519,9.48183 -3.36524,11.29297 -0.49371,1.14631 -1.26555,3.69497 -2.14648,6.93359 -0.88093,3.23863 -1.87126,7.16677 -2.80078,11.07422 -0.92953,3.90746 -1.79802,7.79448 -2.4375,10.94727 -0.63949,3.15279 -1.04973,5.57224 -1.06055,6.54687 -0.0196,1.76302 -0.68756,5.90508 -1.48438,9.20508 -0.79682,3.3 -1.45584,7.94654 -1.46484,10.32617 -0.004,1.18982 -0.53276,4.82305 -1.38086,9.7168 -0.8481,4.89375 -2.01635,11.04802 -3.29883,17.2832 l -4.66211,22.67383 -0.42383,40.91016 c -0.11579,11.1742 -0.12278,21.80025 -0.0273,31.60351 0.0954,9.80327 0.2916,18.78371 0.57813,26.66211 0.28652,7.87841 0.66362,14.65506 1.12109,20.05469 0.45747,5.39963 0.99525,9.42214 1.60352,11.78906 0.50538,1.96659 1.25993,4.23451 2.14843,6.5625 0.88851,2.328 1.91185,4.71551 2.95508,6.92188 1.04323,2.20637 2.10661,4.23033 3.07617,5.83203 0.96957,1.6017 1.84618,2.78094 2.51367,3.29492 l 2.11719,1.63086 -1.27539,32.36914 c -0.51331,13.03313 -0.87586,23.93951 -1.07422,33.43946 -0.19836,9.49994 -0.23264,17.5942 -0.0879,25.00195 0.14475,7.40775 0.46836,14.13017 0.98438,20.88672 0.51601,6.75654 1.22519,13.54741 2.14062,21.09375 0.26861,2.21427 0.51242,9.12294 0.68946,18.4707 0.17703,9.34776 0.2871,21.13302 0.2871,33.10156 0,10.98944 -0.005,19.32777 -0.0781,26.08008 -0.0728,6.75231 -0.21326,11.92052 -0.48242,16.57031 -0.26916,4.64979 -0.66678,8.78103 -1.25586,13.46289 -0.58909,4.68187 -1.36977,9.91319 -2.40235,16.76172 -0.45135,2.99359 -0.76578,8.37051 -0.96289,16.87305 -0.1971,8.50254 -0.2766,20.13071 -0.2539,35.62695 0.031,21.15277 0.0682,32.23015 0.36523,38.98047 0.14853,3.37516 0.36197,5.66917 0.67188,7.59961 0.30991,1.93044 0.71741,3.49694 1.25195,5.41992 1.2231,4.4 2.66569,11.45682 3.20703,15.68164 0.36358,2.83748 1.14479,6.42389 2.19922,10.34571 1.05443,3.92182 2.38296,8.17852 3.83984,12.35742 1.45689,4.1789 3.04236,8.27995 4.61329,11.88867 1.57092,3.60872 3.12687,6.72623 4.52343,8.9375 2.00791,3.17926 4.51231,6.56474 7.31446,9.95703 2.80214,3.39229 5.90289,6.79143 9.10156,9.99805 3.19867,3.20662 6.49588,6.21955 9.69336,8.8418 3.19748,2.62224 6.29518,4.85301 9.09375,6.49218 2.34756,1.375 6.75392,4.42628 9.79297,6.7793 2.1494,1.66421 5.04751,3.37848 8.57812,5.10352 3.53062,1.72503 7.69298,3.45927 12.37109,5.16015 4.67812,1.70088 9.87296,3.36918 15.46485,4.96094 5.59189,1.59176 11.58156,3.1082 17.85351,4.50586 6.6,1.47076 14.30773,3.3035 17.12891,4.07422 2.82119,0.77072 10.49058,2.30261 17.04297,3.40234 6.55238,1.09972 14.14466,2.65342 16.87109,3.45313 2.72643,0.79971 9.00703,1.96751 13.95703,2.5957 2.475,0.31409 5.45625,0.81336 8.26563,1.36328 2.80937,0.54992 5.44687,1.14966 7.23437,1.66992 1.97361,0.57443 6.96506,1.54525 13.45118,2.67774 6.48611,1.13248 14.46659,2.42762 22.42187,3.65039 7.95528,1.22276 15.88452,2.37347 22.26563,3.21875 6.3811,0.84527 11.21492,1.38476 12.97851,1.38476 1.38803,0 5.6297,0.50664 11.34766,1.32227 5.71796,0.81562 12.91172,1.94023 20.19922,3.17773 7.28749,1.2375 14.49455,2.37047 20.23437,3.19727 5.73982,0.8268 10.0124,1.34828 11.4336,1.36523 2.8424,0.0339 8.09296,0.69086 11.66796,1.46094 1.25336,0.26998 2.72869,0.48825 4.61133,0.6582 1.88264,0.16996 4.17297,0.29092 7.05274,0.3711 5.75954,0.16035 13.88081,0.15297 25.83593,0.0156 15.18239,-0.17442 23.00913,-0.28092 28.87696,-0.73242 2.93391,-0.22575 5.37884,-0.53755 8.00781,-0.98828 2.62897,-0.45073 5.44208,-1.04079 9.11523,-1.82031 4.125,-0.87542 8.34234,-1.8744 11.8125,-2.78125 3.47017,-0.90685 6.19391,-1.72021 7.33399,-2.22071 2.28014,-1.00099 5.65514,-2.14695 7.5,-2.54687 0.90805,-0.19685 2.18441,-0.65274 3.73828,-1.3125 1.55387,-0.65977 3.38506,-1.5234 5.40234,-2.53906 4.03458,-2.03134 8.8135,-4.66764 13.60743,-7.48047 4.79392,-2.81284 9.60308,-5.80281 13.69726,-8.54102 4.09418,-2.73821 7.47288,-5.22574 9.4082,-7.0332 1.925,-1.79782 5.22103,-4.54083 7.32422,-6.09571 1.50574,-1.11317 3.37725,-2.87151 5.45118,-5.07031 2.07392,-2.19879 4.35029,-4.83712 6.6621,-7.71093 2.31182,-2.87382 4.65951,-5.98285 6.87891,-9.1211 2.2194,-3.13825 4.31074,-6.30675 6.10742,-9.29883 1.80859,-3.01188 3.45252,-5.89565 4.64453,-8.11523 1.19202,-2.21958 1.93164,-3.7751 1.93164,-4.13086 0,-0.71153 0.85564,-2.69524 1.9004,-4.41016 0.49818,-0.81773 1.01575,-1.98698 1.54492,-3.45312 0.52917,-1.46614 1.0698,-3.22983 1.61132,-5.24219 1.08305,-4.02473 2.17076,-9.04022 3.19141,-14.63672 1.02065,-5.59649 1.97405,-11.77422 2.7832,-18.125 0.80916,-6.35077 1.47525,-12.87454 1.92383,-19.16211 0.56898,-7.975 1.54175,-19.225 2.16211,-25 0.33426,-3.11171 0.53651,-9.98619 0.62695,-18.74218 0.0905,-8.756 0.0684,-19.39419 -0.0449,-30.0293 -0.11327,-10.63511 -0.31686,-21.26852 -0.59375,-30.01758 -0.27688,-8.74906 -0.62695,-15.6131 -1.02734,-18.71094 -0.56871,-4.4 -1.49521,-16.55 -2.06055,-27 -0.56536,-10.45 -1.68927,-25.3 -2.49609,-33 -1.38221,-13.19131 -3.60014,-35.72094 -5.51367,-56 -0.46709,-4.95 -1.28955,-11.25 -1.82813,-14 -0.53855,-2.75 -1.27908,-9.275 -1.64453,-14.5 -0.36545,-5.225 -1.11045,-12.11891 -1.65625,-15.32031 -0.50576,-2.96649 -0.9469,-7.35569 -1.33594,-13.65625 -0.38903,-6.30056 -0.72543,-14.51218 -1.02539,-25.125 -0.59991,-21.22563 -1.04949,-52.05467 -1.45898,-96.39844 -0.25645,-27.77065 -0.56826,-51.00772 -0.89453,-67.68359 -0.32628,-16.67587 -0.66762,-26.79055 -0.98438,-28.31641 -0.28544,-1.375 -0.60994,-7.34309 -0.90234,-15.85156 -0.2924,-8.50847 -0.55274,-19.55739 -0.71094,-31.0918 -0.1582,-11.5344 -0.42195,-22.7126 -0.7207,-31.43164 -0.29876,-8.71904 -0.63265,-14.97935 -0.92774,-16.67383 -0.35646,-2.04694 -0.56784,-6.22015 -0.63476,-12.49023 -0.0669,-6.27008 0.0111,-14.63699 0.23437,-25.06641 0.61645,-28.7936 0.88814,-46.43819 0.76172,-57.91797 -0.0632,-5.73988 -0.22463,-9.93829 -0.49414,-13.218743 -0.26951,-3.280457 -0.64719,-5.641938 -1.13672,-7.708984 -0.45035,-1.901645 -0.98968,-3.773133 -1.60937,-5.601563 -0.61969,-1.828429 -1.31914,-3.613834 -2.0918,-5.345703 -0.77266,-1.731869 -1.61808,-3.409521 -2.52734,-5.021484 -0.90927,-1.611964 -1.8826,-3.158241 -2.91211,-4.626953 -1.02951,-1.468713 -2.11466,-2.859993 -3.24805,-4.16211 -1.13339,-1.302117 -2.31425,-2.514777 -3.53516,-3.626953 -1.2209,-1.112176 -2.48138,-2.124548 -3.77343,-3.023437 -1.29206,-0.89889 -2.61606,-1.685398 -3.96289,-2.347657 -4.40114,-2.164096 -8.86991,-4.133945 -13.38086,-5.904297 -4.51096,-1.770351 -9.064,-3.340836 -13.63672,-4.703125 -4.57272,-1.362288 -9.16358,-2.517123 -13.75,-3.457031 -4.58642,-0.939907 -9.16865,-1.664761 -13.72071,-2.167969 -3.85,-0.425599 -16.9,-2.83276 -29,-5.349609 -7.16383,-1.490105 -13.14532,-2.675322 -18.39453,-3.605469 -5.24921,-0.930147 -9.76616,-1.606154 -14,-2.076172 -4.23383,-0.470018 -8.18502,-0.734032 -12.30273,-0.84375 z m -17.47266,19.085938 c 5.22694,-0.110438 10.9272,-0.09863 16.16992,0.05469 4.6177,0.135037 8.3152,0.273701 11.86329,0.539063 3.54808,0.265362 6.94649,0.657615 10.96289,1.298828 4.01639,0.641213 8.65122,1.530378 14.67382,2.792969 6.02261,1.26259 13.43327,2.89785 23,5.027344 4.675,1.040624 11.20001,2.135655 14.5,2.433593 3.1839,0.287455 6.76258,0.863479 10.5293,1.664063 3.76672,0.800583 7.72229,1.825664 11.66211,3.015625 3.93982,1.18996 7.86322,2.544414 11.56641,4 3.70319,1.455585 7.18535,3.011916 10.24218,4.609375 1.09288,0.571121 2.27752,1.367099 3.47657,2.30664 1.19904,0.939542 2.41295,2.023815 3.56054,3.173828 1.1476,1.150014 2.22945,2.365824 3.16797,3.56836 0.93853,1.202536 1.73285,2.391172 2.30469,3.488281 0.55077,1.05674 1.04169,2.122098 1.47852,3.275391 0.43683,1.153292 0.81919,2.395036 1.15234,3.800781 0.6663,2.811491 1.13609,6.284312 1.44922,11.041012 0.31313,4.7567 0.46968,10.79699 0.51172,18.74609 0.042,7.94911 -0.0308,17.8066 -0.17774,30.19532 -0.15539,13.09722 -0.1798,27.13619 -0.0918,39.53125 0.088,12.39505 0.2893,23.14547 0.58398,29.66601 0.57169,12.65 1.48829,43.25 2.03711,68 0.2744,12.375 0.63929,24.44611 1.00586,33.92383 0.36657,9.47772 0.73385,16.3622 1.01562,18.36719 0.30658,2.18151 0.57093,10.90184 0.76172,24.2168 0.19079,13.31495 0.30883,31.22452 0.32813,51.7832 0.0165,17.57185 0.0684,32.13105 0.17773,44.49609 0.10928,12.36505 0.27504,22.53524 0.52344,31.33399 0.2484,8.79875 0.57789,16.22468 1.01172,23.09765 0.43382,6.87298 0.9731,13.19353 1.63867,19.78125 1.53695,15.21253 2.42461,23.87345 2.99023,28.83008 0.56563,4.95663 0.80864,6.20857 1.05274,6.60352 0.23274,0.37659 0.63068,3.37041 1.40039,11.03125 0.76971,7.66083 1.91214,19.98907 3.63086,39.03515 0.7693,8.525 1.66466,17.075 1.99023,19 0.52303,3.09256 1.14969,9.84739 1.79688,18.67969 0.64719,8.8323 1.31432,19.74267 1.91797,31.14648 0.60364,11.40382 1.14472,23.30032 1.53711,34.10743 0.39238,10.80711 0.63696,20.52422 0.65039,27.5664 0.0116,6.07477 -0.0168,11.25969 -0.125,16.21485 -0.10823,4.95516 -0.29678,9.68062 -0.60352,14.83984 -0.61347,10.31844 -1.70234,22.36862 -3.58203,41.44531 -0.33755,3.42572 -0.85726,7.40129 -1.47656,11.4961 -0.6193,4.0948 -1.33765,8.30827 -2.07617,12.21289 -0.73853,3.90461 -1.49619,7.50032 -2.19141,10.35547 -0.69523,2.85514 -1.32896,4.96962 -1.81836,5.91601 -0.92328,1.78544 -2.26473,4.90694 -2.98047,6.93555 -0.71573,2.02861 -2.82847,6.14036 -4.69531,9.13672 -1.86684,2.99636 -4.05482,6.77302 -4.86328,8.39258 -0.40424,0.80977 -2.12841,2.90234 -4.57813,5.62109 -2.44971,2.71875 -5.62492,6.06368 -8.9375,9.37891 -4.91343,4.91735 -8.52202,8.30468 -12.22265,11.29296 -1.85032,1.49415 -3.72352,2.88898 -5.79493,4.32422 -2.0714,1.43524 -4.34041,2.91174 -6.98242,4.57032 -7.12484,4.47276 -14.86372,9.09173 -17.19726,10.26562 -1.59812,0.80394 -3.73405,1.70745 -6.23242,2.6543 -2.49838,0.94684 -5.35961,1.93717 -8.40626,2.91406 -6.09329,1.95378 -12.93094,3.85515 -19.10546,5.25195 -2.53986,0.57457 -4.64356,1.01876 -6.80274,1.36719 -2.15917,0.34843 -4.37466,0.6011 -7.13672,0.79102 -5.52412,0.37982 -13.23715,0.51056 -27.07422,0.6621 -11.41419,0.12502 -19.30189,0.12487 -24.95507,-0.0391 -2.8266,-0.082 -5.09459,-0.20481 -6.96485,-0.37304 -1.87026,-0.16823 -3.34354,-0.38264 -4.58008,-0.64649 -3.575,-0.76284 -8.76192,-1.40789 -11.52734,-1.43359 -1.3827,-0.0128 -5.61875,-0.53069 -11.32812,-1.35352 -5.70938,-0.82282 -12.89208,-1.94996 -20.17188,-3.18554 -7.27979,-1.2356 -14.50704,-2.36018 -20.28711,-3.17579 -5.78007,-0.8156 -10.11354,-1.32222 -11.60351,-1.32421 -2.97993,-0.004 -8.15494,-0.45553 -11.5,-1.00196 -3.34505,-0.54642 -16.43204,-2.571 -29.08204,-4.5 -6.325,-0.9645 -12.53444,-2.00229 -17.44336,-2.89844 -4.90891,-0.89615 -8.51761,-1.64974 -9.64062,-2.04492 -1.12301,-0.39517 -3.37109,-0.93078 -6.08984,-1.47265 -2.71875,-0.54188 -5.90817,-1.0906 -8.91016,-1.51758 -6.00398,-0.85397 -12.99072,-2.19154 -15.52734,-2.97266 -2.53664,-0.78113 -8.16164,-1.91839 -12.5,-2.52734 -3.7013,-0.51952 -6.42526,-0.9689 -10.91016,-1.93555 -4.4849,-0.96665 -10.73145,-2.45031 -21.47852,-5.04492 -4.67499,-1.12866 -11.69985,-2.70004 -15.61132,-3.49024 -2.95154,-0.59627 -6.43886,-1.55655 -10.10547,-2.73828 -3.66662,-1.18173 -7.51282,-2.58476 -11.18164,-4.06445 -3.66883,-1.47968 -7.16097,-3.03526 -10.11914,-4.52539 -2.95817,-1.49013 -5.38333,-2.91389 -6.91797,-4.12695 -2.96819,-2.34622 -6.78412,-4.9809 -8.48047,-5.85352 -1.18327,-0.60868 -2.71635,-1.65262 -4.48438,-3.0293 -1.76802,-1.37667 -3.77128,-3.08604 -5.89453,-5.02148 -2.12325,-1.93544 -4.36628,-4.09783 -6.61523,-6.38281 -2.24895,-2.28498 -4.50332,-4.6919 -6.64844,-7.11719 -1.81928,-2.0569 -3.23135,-3.68035 -4.39453,-5.14648 -1.16319,-1.46613 -2.07677,-2.77408 -2.90234,-4.19922 -0.82558,-1.42515 -1.5627,-2.9684 -2.36914,-4.90235 -0.80645,-1.93394 -1.68327,-4.25942 -2.78907,-7.25195 -1.2948,-3.50402 -2.63517,-7.59014 -3.75195,-11.34961 -1.11679,-3.75947 -2.00857,-7.19258 -2.4082,-9.39258 -0.79927,-4.4 -2.30944,-12.05 -3.35547,-17 -0.7151,-3.38393 -1.2906,-6.5257 -1.75,-9.83203 -0.4594,-3.30632 -0.80361,-6.77687 -1.0586,-10.81836 -0.25498,-4.04149 -0.41963,-8.65472 -0.52148,-14.24414 -0.10185,-5.58942 -0.14063,-12.15535 -0.14063,-20.10547 0,-7.03181 0.0238,-12.66012 0.11719,-17.54297 0.0934,-4.88285 0.25651,-9.02034 0.53321,-13.07031 0.27669,-4.04997 0.66688,-8.01174 1.21679,-12.54492 0.54992,-4.53318 1.25883,-9.63823 2.17188,-15.9707 0.28524,-1.97834 0.51762,-4.30188 0.70507,-7.30274 0.18746,-3.00085 0.33114,-6.67893 0.43555,-11.36328 0.20883,-9.3687 0.26542,-22.76544 0.23047,-42.83398 -0.0439,-25.21132 -0.15904,-40.66051 -0.5625,-52.94141 -0.20173,-6.14045 -0.47482,-11.48887 -0.84766,-16.86914 -0.37284,-5.38027 -0.84526,-10.79217 -1.44336,-17.06055 -0.46473,-4.87057 -0.69496,-9.43003 -0.68945,-15.30468 0.006,-5.87466 0.24581,-13.06452 0.72461,-23.19532 0.42966,-9.09125 0.75882,-19.18114 0.98242,-29.23437 0.22361,-10.05323 0.34317,-20.06988 0.35742,-29.01172 0.0143,-8.94184 -0.077,-16.80932 -0.27539,-22.56641 -0.0992,-2.87854 -0.22591,-5.23023 -0.3789,-6.92383 -0.15299,-1.69359 -0.33383,-2.72903 -0.54102,-2.97851 -0.69454,-0.83633 -3.0878,-6.64217 -5.31836,-12.90234 -1.11528,-3.13009 -2.34466,-6.20764 -3.42773,-8.64258 -1.08307,-2.43495 -2.01888,-4.22866 -2.54688,-4.79297 -0.40565,-0.43356 -0.77189,-0.93754 -1.10156,-1.55469 -0.32967,-0.61715 -0.62191,-1.34678 -0.88281,-2.23047 -0.52181,-1.76737 -0.91499,-4.15124 -1.20508,-7.48242 -0.29009,-3.33118 -0.4776,-7.60943 -0.59375,-13.16797 -0.11615,-5.55854 -0.16016,-12.39625 -0.16016,-20.8457 0,-9.04715 0.0243,-16.1104 0.15235,-22.08399 0.12801,-5.97358 0.35909,-10.8575 0.77344,-15.55078 0.41435,-4.69328 1.01209,-9.19416 1.87109,-14.40039 0.859,-5.20623 1.97943,-11.11842 3.44141,-18.63086 2.24772,-11.55 4.39934,-24.15 4.78125,-28 0.37354,-3.76572 0.9935,-8.29526 1.7539,-13.0664 0.7604,-4.77115 1.66124,-9.7829 2.60156,-14.51758 0.94033,-4.73469 1.9187,-9.1913 2.83204,-12.84766 0.91333,-3.65636 1.76197,-6.51267 2.4414,-8.04883 0.84685,-1.91469 2.38109,-7.08969 3.41016,-11.5 1.24103,-5.31869 2.54214,-9.97863 4.26562,-15.05273 1.72348,-5.0741 3.87056,-10.56378 6.80664,-17.54297 2.67836,-6.36654 4.86914,-11.90098 4.86914,-12.30078 0,-0.48119 0.74893,-1.8903 1.94141,-3.80078 1.19248,-1.91048 2.82936,-4.32338 4.60547,-6.81055 1.77611,-2.48716 3.69052,-5.04851 5.44141,-7.25976 1.75088,-2.21126 3.33826,-4.07156 4.45507,-5.1543 3.08321,-2.98913 7.72575,-6.82863 12.28125,-10.27149 2.27776,-1.72142 4.53285,-3.34323 6.56055,-4.71093 2.0277,-1.3677 3.82781,-2.48106 5.19336,-3.183594 2.21161,-1.13782 6.72149,-3.538497 10.02148,-5.333984 1.65001,-0.897744 3.825,-1.925065 6,-2.857422 2.175,-0.932357 4.35001,-1.768288 6,-2.285156 5.31666,-1.66546 9.80137,-3.156578 13.2793,-4.410157 3.47794,-1.253578 5.94872,-2.270657 7.23828,-2.986328 1.28805,-0.714829 4.05987,-1.65891 7.6875,-2.691406 3.62764,-1.032496 8.11128,-2.152827 12.82227,-3.21875 4.71099,-1.065923 9.64938,-2.077466 14.1875,-2.892578 4.53811,-0.815113 8.67615,-1.434781 11.78515,-1.714844 2.67486,-0.240954 6.95546,-0.835188 11.97266,-1.625 5.0172,-0.789812 10.77181,-1.774835 16.39063,-2.796875 5.61881,-1.02204 11.10232,-2.081894 15.58203,-3.019531 4.47971,-0.937637 7.95481,-1.752459 9.55468,-2.289063 3.00708,-1.008583 5.86548,-1.847622 8.8418,-2.554687 2.97632,-0.707065 6.07061,-1.282835 9.54883,-1.761719 3.47822,-0.478884 7.34072,-0.861505 11.85351,-1.185547 4.5128,-0.324041 9.67583,-0.589495 15.75586,-0.832031 12.07553,-0.4817 24.69781,-1.17601 37.11524,-2.03125 12.41743,-0.85524 24.63,-1.870941 35.88476,-2.996094 3.34952,-0.334854 8.10314,-0.567297 13.33008,-0.677734 z"
       style="color:#000000;clip-rule:nonzero;display:inline;overflow:visible;visibility:visible;opacity:1;isolation:auto;mix-blend-mode:normal;color-interpolation:sRGB;color-interpolation-filters:linearRGB;solid-color:#000000;solid-opacity:1;fill:url(#linearGradient4750);fill-opacity:1;fill-rule:nonzero;stroke:none;stroke-width:1;stroke-linecap:butt;stroke-linejoin:miter;stroke-miterlimit:4;stroke-dasharray:none;stroke-dashoffset:0;stroke-opacity:1;color-rendering:auto;image-rendering:auto;shape-rendering:auto;text-rendering:auto;enable-background:accumulate" />
  </g>
</svg>
