<?xml version="1.0" encoding="UTF-8" standalone="no"?>
<svg
   xmlns:osb="http://www.openswatchbook.org/uri/2009/osb"
   xmlns:dc="http://purl.org/dc/elements/1.1/"
   xmlns:cc="http://creativecommons.org/ns#"
   xmlns:rdf="http://www.w3.org/1999/02/22-rdf-syntax-ns#"
   xmlns:svg="http://www.w3.org/2000/svg"
   xmlns="http://www.w3.org/2000/svg"
   xmlns:xlink="http://www.w3.org/1999/xlink"
   version="1.1"
   id="svg2985"
   height="917.42926"
   width="565.76843">
  <defs
     id="defs5498">
    <linearGradient
       osb:paint="solid"
       id="linearGradient4756">
      <stop
         id="stop4758"
         offset="0"
         style="stop-color:#ffffff;stop-opacity:1;" />
    </linearGradient>
    <linearGradient
       osb:paint="solid"
       id="linearGradient4750">
      <stop
         id="stop4752"
         offset="0"
         style="stop-color:#000000;stop-opacity:1;" />
    </linearGradient>
    <linearGradient
       osb:paint="solid"
       id="linearGradient5694">
      <stop
         id="stop5696"
         offset="0"
         style="stop-color:#002b11;stop-opacity:1;" />
    </linearGradient>
    <linearGradient
       osb:paint="solid"
       id="linearGradient4712">
      <stop
         id="stop4714"
         offset="0"
         style="stop-color:#162d50;stop-opacity:1;" />
    </linearGradient>
    <linearGradient
       osb:paint="solid"
       id="linearGradient4706">
      <stop
         id="stop4708"
         offset="0"
         style="stop-color:#d40000;stop-opacity:1;" />
    </linearGradient>
    <linearGradient
       gradientUnits="userSpaceOnUse"
       y2="508.69208"
       x2="761.44257"
       y1="508.69208"
       x1="262.13925"
       id="linearGradient4716"
       xlink:href="#linearGradient4712" />
    <linearGradient
       gradientUnits="userSpaceOnUse"
       y2="500.0004"
       x2="771.30902"
       y1="500.0004"
       x1="228.69211"
       id="linearGradient4754"
       xlink:href="#linearGradient4750" />
    <linearGradient
       gradientUnits="userSpaceOnUse"
       y2="500.10483"
       x2="752.40271"
       y1="500.10483"
       x1="248.61133"
       id="linearGradient4760"
       xlink:href="#linearGradient4756" />
    <linearGradient
       y2="508.69208"
       x2="761.44257"
       y1="508.69208"
       x1="262.13925"
       gradientUnits="userSpaceOnUse"
       id="linearGradient501"
       xlink:href="#linearGradient4712" />
    <linearGradient
       y2="508.69208"
       x2="761.44257"
       y1="508.69208"
       x1="262.13925"
       gradientUnits="userSpaceOnUse"
       id="linearGradient503"
       xlink:href="#linearGradient4712" />
    <linearGradient
       y2="508.69208"
       x2="761.44257"
       y1="508.69208"
       x1="262.13925"
       gradientUnits="userSpaceOnUse"
       id="linearGradient505"
       xlink:href="#linearGradient4712" />
  </defs>
  <metadata
     id="metadata5594">
    <rdf:RDF>
      <cc:Work
         rdf:about="">
        <dc:format>image/svg+xml</dc:format>
        <dc:type
           rdf:resource="http://purl.org/dc/dcmitype/StillImage" />
        <dc:title />
      </cc:Work>
    </rdf:RDF>
  </metadata>
  <g
     transform="translate(-217.11653,-41.285336)"
     style="display:inline"
     id="layer34">
    <path
       id="path5055"
       d="m 646.89844,59.679688 c -21.46302,0.06107 -47.29639,0.539665 -69.09766,1.185546 -10.90063,0.322941 -20.79318,0.686796 -28.62695,1.0625 -7.83377,0.375705 -13.60944,0.762729 -16.27539,1.128907 -2.0625,0.283295 -5.39961,0.549146 -9.11524,0.748047 -3.71562,0.1989 -7.80976,0.330849 -11.38476,0.349609 -5.57576,0.02926 -12.38817,0.234772 -19.69922,0.564453 -7.31105,0.329681 -15.12092,0.783504 -22.6875,1.310547 -7.56658,0.527042 -14.89007,1.126706 -21.23242,1.748047 -6.34236,0.62134 -11.70342,1.264378 -15.3418,1.876953 -4.97175,0.83706 -11.51406,1.918837 -14.53906,2.404297 -3.90895,0.62732 -11.40523,2.466685 -19.17578,4.607422 -7.77055,2.140736 -15.81537,4.582844 -20.82422,6.412109 -5.36231,1.958345 -9.40497,3.579587 -13.62696,5.572266 -4.22198,1.992678 -8.6233,4.356793 -14.70117,7.798828 -5.34294,3.02582 -10.71738,5.816291 -11.94336,6.201171 -0.95712,0.30048 -2.20724,0.89259 -3.66797,1.7207 -1.46072,0.82812 -3.13301,1.89149 -4.93164,3.13282 -3.59725,2.48265 -7.70363,5.67805 -11.6582,9.12695 -4.17938,3.64497 -8.73119,7.21554 -10.11523,7.93359 -0.84015,0.43588 -2.4011,1.79328 -4.29493,3.64258 -1.89382,1.8493 -4.11992,4.19022 -6.29296,6.5957 -2.17305,2.40548 -4.2929,4.8741 -5.97071,6.97852 -1.6778,2.10442 -2.91415,3.8449 -3.32226,4.79102 -0.71174,1.65 -2.16744,4.125 -3.23633,5.5 -0.53445,0.6875 -1.22103,1.93086 -1.89649,3.38085 -0.67545,1.45 -1.33978,3.10665 -1.83007,4.61915 -0.98058,3.025 -2.47366,6.85 -3.31836,8.5 -0.8447,1.65 -2.75437,6.375 -4.24219,10.5 -1.48782,4.125 -3.93737,10.65 -5.44531,14.5 -1.50794,3.85 -3.54899,9.7 -4.53516,13 -0.98617,3.3 -2.69705,8.475 -3.80078,11.5 -1.11886,3.06649 -2.4848,8.21393 -3.7793,14.02148 -1.29449,5.80755 -2.51754,12.27522 -3.35351,17.97852 -0.60463,4.125 -1.77912,11.82574 -2.61133,17.11328 l -1.51367,9.61523 2.9082,7.38477 c 1.05044,2.66812 1.88949,4.97042 2.56445,7.20312 0.67496,2.2327 1.18607,4.39496 1.58399,6.78321 0.39791,2.38824 0.68108,5.00195 0.90039,8.13671 0.21931,3.13476 0.37452,6.79143 0.51367,11.26368 0.18308,5.88418 0.44664,10.4136 0.85742,14.20703 0.41079,3.79343 0.9688,6.85088 1.74219,9.79297 0.63892,2.43058 1.30009,6.21803 1.90625,10.78125 0.60616,4.56321 1.15733,9.90219 1.57617,15.4375 0.75821,10.02035 1.69722,18.73701 2.08789,19.36914 0.20866,0.33762 0.4782,3.72483 0.76758,9.02148 0.28938,5.29665 0.59903,12.50369 0.88672,20.47656 0.57537,15.94575 1.06452,34.96019 1.13867,47.91407 0.0302,5.2752 -0.0595,10.29521 -0.29102,15.26171 -0.23148,4.96651 -0.60459,9.88024 -1.14062,14.94336 -0.53603,5.06313 -1.23568,10.27479 -2.11914,15.83985 -0.88346,5.56505 -1.95085,11.48278 -3.22461,17.95508 -2.68742,13.65553 -5.33142,28.94525 -7.30664,41.80078 -0.98761,6.42776 -1.80758,12.24642 -2.38281,16.94922 -0.57523,4.70279 -0.90549,8.28882 -0.91211,10.25 -0.009,2.75 -0.46812,6.8 -1.01953,9 -0.53627,2.1396 -1.08118,5.95277 -1.70704,12.13671 -0.62585,6.18395 -1.33266,14.73866 -2.18945,26.36329 -0.58779,7.975 -1.51481,18.12418 -2.06055,22.55273 -0.27286,2.21427 -0.52134,8.56533 -0.70117,17.01367 -0.17983,8.44834 -0.29101,18.99395 -0.29101,29.59766 0,12.09459 0.0409,21.49953 0.27148,29.44531 0.23058,7.94578 0.65167,14.43278 1.41211,20.69336 0.38022,3.13029 0.84526,6.20408 1.41406,9.375 0.5688,3.17092 1.24037,6.43948 2.03516,9.95898 1.58958,7.03901 3.6687,15.08225 6.38672,25.36329 0.93459,3.53513 1.85114,6.62886 2.8418,9.46875 0.99065,2.83989 2.05446,5.42573 3.2832,7.94336 1.22874,2.51762 2.62262,4.96681 4.27148,7.53515 1.64887,2.56834 3.55367,5.25603 5.80469,8.24805 0.81621,1.08488 2.63076,2.9945 4.99609,5.32226 2.36534,2.32777 5.28168,5.07419 8.30079,7.82813 3.0191,2.75394 6.14045,5.51549 8.91796,7.87891 2.77752,2.36341 5.21099,4.3282 6.85157,5.48437 2.50369,1.76445 6.3885,4.94012 8.63281,7.05859 1.80284,1.70176 3.63264,3.30242 5.50781,4.8125 1.87518,1.51008 3.79629,2.92918 5.7793,4.27149 1.98301,1.3423 4.02796,2.60626 6.1543,3.80469 2.12633,1.19842 4.3335,2.3317 6.63867,3.41015 9.47749,4.43395 16.51003,7.78978 21.61718,10.32422 5.10716,2.53445 8.28894,4.2475 10.06446,5.39844 1.01232,0.65621 2.75625,1.51652 4.75,2.375 1.99375,0.85848 4.23732,1.71512 6.25,2.36133 4.02536,1.2924 9.34336,3.09597 11.81836,4.00781 2.475,0.91185 13.39708,3.62933 24.27148,6.03906 10.8744,2.40974 20.60336,4.82551 21.61914,5.36914 0.83243,0.4455 4.58045,1.30544 9.9336,2.35938 5.35315,1.05393 12.31109,2.30097 19.56054,3.52148 7.24945,1.22052 14.79117,2.41414 21.3125,3.35938 6.52134,0.94523 12.02262,1.64299 15.19141,1.87109 6.81369,0.49047 12.64143,1.14535 12.95117,1.45508 0.31376,0.31376 6.71645,0.45797 16.44531,0.47265 9.72887,0.0147 22.7845,-0.1004 36.4043,-0.30273 13.6198,-0.20233 27.80251,-0.49279 39.78906,-0.83008 11.98655,-0.33728 21.77635,-0.72115 26.60547,-1.11133 10.7713,-0.87027 21.1213,-1.85475 23,-2.1875 1.8788,-0.33275 10.16602,-1.03753 18.41602,-1.5664 12.9799,-0.83209 23.17443,-1.72546 30.67383,-2.69141 3.74969,-0.48297 6.8247,-0.98321 9.23828,-1.5039 2.41357,-0.5207 4.1655,-1.06181 5.26562,-1.62305 1.59369,-0.81304 3.01121,-1.64684 4.27344,-2.60156 1.26223,-0.95473 2.36874,-2.03022 3.33789,-3.32422 0.96915,-1.29401 1.80119,-2.80779 2.51562,-4.63867 0.71444,-1.83089 1.31245,-3.97957 1.81055,-6.54493 0.4981,-2.56536 0.89667,-5.54749 1.2168,-9.04492 0.32013,-3.49743 0.56165,-7.50961 0.74219,-12.13672 0.36107,-9.2542 0.48074,-20.96536 0.51367,-35.92383 0.046,-20.91822 0.24295,-37.21885 0.75195,-54.38281 0.509,-17.16396 1.33005,-35.19125 2.62695,-59.5664 0.834,-15.675 1.94912,-46.95 2.47852,-69.5 0.26475,-11.275 0.61891,-22.42539 0.97656,-31.30665 0.35765,-8.88125 0.7188,-15.49335 0.9961,-17.69335 0.5546,-4.4 1.26889,-14.975 1.58789,-23.5 0.319,-8.525 1.02059,-18.65 1.55859,-22.5 0.538,-3.85 1.43153,-18.025 1.98633,-31.5 0.5729,-13.91293 1.15641,-24.80821 1.80664,-33.40235 0.65023,-8.59414 1.36717,-14.88715 2.20312,-19.59765 0.3172,-1.7875 0.70622,-7.34922 1.07618,-14.8711 0.36995,-7.52187 0.72084,-17.0039 0.96484,-26.6289 0.7266,-28.6618 1.67856,-60.65144 2.64258,-89.54297 0.96402,-28.89154 1.94009,-54.68498 2.71289,-70.95703 0.7967,-16.775 1.90263,-45.575 2.45703,-64 0.5545,-18.425 1.21876,-36.425 1.47656,-40 0.2578,-3.575 0.92984,-13.09733 1.49414,-21.16211 0.5643,-8.06479 1.5466,-17.65611 2.1836,-21.31446 0.29982,-1.72172 0.49521,-4.22267 0.59375,-7.22851 0.0985,-3.00585 0.0994,-6.51566 0.01,-10.25781 -0.0896,-3.74216 -0.2685,-7.71583 -0.5332,-11.64649 -0.2647,-3.93066 -0.61437,-7.81926 -1.04102,-11.39062 -0.31916,-2.67164 -0.67707,-5.137803 -1.08593,-7.41602 -0.40887,-2.278217 -0.86849,-4.369267 -1.38868,-6.289062 -0.52018,-1.919796 -1.10078,-3.669251 -1.7539,-5.265626 -0.65312,-1.596374 -1.37983,-3.039703 -2.1875,-4.347656 -0.80767,-1.307953 -1.6978,-2.478672 -2.68164,-3.533203 -0.98384,-1.054531 -2.06056,-1.992015 -3.24219,-2.828125 -1.18163,-0.836109 -2.46811,-1.571921 -3.86914,-2.224609 -1.40103,-0.652688 -2.91654,-1.222296 -4.55859,-1.726563 -6.687,-2.053552 -12.73651,-3.699951 -18.86329,-5.011718 -3.06338,-0.655884 -6.14707,-1.228732 -9.33789,-1.726563 -3.19081,-0.497831 -6.48976,-0.921257 -9.98632,-1.279297 -6.99313,-0.716079 -14.77646,-1.16906 -24.0625,-1.435547 -9.28605,-0.266486 -20.07453,-0.345604 -33.08008,-0.308593 z"
       style="color:#000000;clip-rule:nonzero;display:inline;overflow:visible;visibility:visible;opacity:1;isolation:auto;mix-blend-mode:normal;color-interpolation:sRGB;color-interpolation-filters:linearRGB;solid-color:#000000;solid-opacity:1;fill:url(#linearGradient4756);fill-opacity:1;fill-rule:nonzero;stroke:none;stroke-width:1;stroke-linecap:butt;stroke-linejoin:miter;stroke-miterlimit:4;stroke-dasharray:none;stroke-dashoffset:0;stroke-opacity:1;color-rendering:auto;image-rendering:auto;shape-rendering:auto;text-rendering:auto;enable-background:accumulate" />
    <path
       id="path5053"
       d="m 669.45703,41.34375 c -18.63337,-0.141551 -43.6032,-0.01839 -65.20508,0.292969 -10.80094,0.155678 -20.76075,0.357127 -28.66406,0.597656 -7.9033,0.240529 -13.75092,0.519709 -16.33008,0.826172 -4.87299,0.57903 -22.58437,1.495952 -39.35937,2.039062 -13.58895,0.439955 -25.18434,0.878898 -35.32617,1.359375 -10.14184,0.480478 -18.83051,1.002538 -26.60352,1.607422 -7.77301,0.604884 -14.63082,1.292293 -21.11328,2.105469 -6.48246,0.813176 -12.58918,1.752069 -18.85938,2.857422 -7.13788,1.25831 -15.64428,3.149341 -23.23047,5.089844 -3.79309,0.970251 -7.35475,1.953643 -10.40234,2.875 -3.04759,0.921357 -5.58018,1.781645 -7.31055,2.507812 -3.10963,1.30499 -7.67929,2.911636 -10.15429,3.572266 -1.06264,0.283642 -3.2037,1.16716 -5.86914,2.373047 -2.66545,1.205886 -5.85442,2.734392 -9.01172,4.308593 -3.1573,1.574202 -6.28406,3.193444 -8.82227,4.582032 -2.5382,1.388587 -4.48871,2.546267 -5.29687,3.195312 -0.7755,0.62281 -2.86472,1.757265 -4.88867,2.736328 -2.02396,0.979063 -3.98262,1.802735 -4.49415,1.802735 -0.3261,0 -1.28158,0.48473 -2.66406,1.316406 -1.38247,0.831676 -3.19272,2.010734 -5.22461,3.396484 -4.06376,2.771502 -9.01861,6.373115 -13.23828,9.695314 -4.95497,3.90113 -10.57997,8.18858 -12.5,9.5293 -1.92003,1.34071 -4.13849,3.36571 -4.92969,4.5 -0.79119,1.13428 -4.10412,4.7625 -7.36328,8.0625 -3.88375,3.93242 -5.90003,5.99079 -7.27539,7.72461 -1.37535,1.73381 -2.10979,3.14306 -3.43359,5.77539 -1.24468,2.475 -3.1103,5.58403 -4.14453,6.9082 -0.51712,0.66209 -1.16498,1.89375 -1.79297,3.34375 -0.62799,1.45 -1.23611,3.11834 -1.67188,4.65625 -0.43576,1.53791 -1.09179,3.38966 -1.79687,5.13281 -0.70508,1.74315 -1.45922,3.3777 -2.09375,4.48438 -0.63454,1.10667 -1.38137,2.72929 -2.07422,4.45117 -0.69285,1.72187 -1.33172,3.543 -1.74805,5.04883 -0.7013,2.53658 -1.91534,6.07334 -3.375,9.90625 -1.45966,3.83291 -3.16494,7.96197 -4.8457,11.67968 -0.77335,1.7106 -1.92038,5.5356 -2.54883,8.5 -0.62845,2.96439 -1.95819,7.00136 -2.95508,8.97266 -0.50807,1.0047 -1.25788,3.34127 -2.09765,6.35352 -0.83977,3.01224 -1.76911,6.70077 -2.63477,10.41015 -0.86565,3.70938 -1.66817,7.43905 -2.2539,10.53516 -0.58574,3.09611 -0.95508,5.55804 -0.95508,6.73047 l 0,3.0332 -2.63477,-2.07422 c -0.87352,-0.68711 -1.84541,-1.19838 -2.86328,-1.5332 -1.01787,-0.33482 -2.0818,-0.49244 -3.13867,-0.47656 -1.05688,0.0159 -2.10711,0.20533 -3.09766,0.57031 -0.99055,0.36497 -1.92134,0.90471 -2.74023,1.61719 -0.9579,0.83341 -1.6407,1.72018 -2.13477,2.86132 -0.49406,1.14115 -0.79939,2.53666 -1.0039,4.38868 -0.12847,1.16338 -0.20124,2.10512 -0.1543,3.02343 0.0469,0.91831 0.2134,1.81352 0.56641,2.88282 0.70601,2.13858 2.15499,4.97486 4.86914,10.09375 l 5.83203,11 0.50195,23 c 0.23054,10.56379 0.39993,16.39516 0.75977,20.04492 0.17991,1.82488 0.40827,3.10531 0.71484,4.1582 0.30657,1.05289 0.69139,1.87829 1.1875,2.79688 0.59409,1.1 1.4457,2.28481 2.33984,3.30859 0.89415,1.02378 1.83084,1.88652 2.59375,2.33984 0.59112,0.35124 1.07618,0.70703 1.4961,1.1543 0.41992,0.44727 0.77521,0.98581 1.10351,1.70312 0.6566,1.43464 1.209,3.58359 1.97657,7.14258 0.94572,4.38503 1.74218,9.23373 2.5039,15.48047 0.76172,6.24674 1.48871,13.89151 2.29492,23.8711 0.53319,6.6 1.41549,15.375 1.96094,19.5 0.38133,2.88381 0.71641,8.82761 0.98438,16.27734 0.26797,7.44973 0.4694,16.40624 0.58398,25.3125 0.11458,8.90626 0.14134,17.76223 0.0625,25.01562 -0.0788,7.2534 -0.26387,12.90339 -0.57617,15.39454 -0.58608,4.675 -1.47158,11.875 -1.9668,16 -0.49522,4.125 -2.51195,15.825 -4.48242,26 -3.23685,16.71431 -5.11343,26.57572 -6.1875,32.82812 -1.07407,6.2524 -1.34564,8.8958 -1.37109,11.17188 -0.0277,2.475 -0.69411,7.425 -1.48047,11 -0.39318,1.7875 -0.75403,4.01485 -1.01953,6.16406 -0.26551,2.14921 -0.43567,4.22027 -0.44532,5.69336 -0.0193,2.94616 -0.68369,9.24616 -1.47656,14 -0.65946,3.95391 -1.22743,8.4536 -1.91992,15.79492 -0.69249,7.34132 -1.5095,17.52428 -2.66797,32.84766 -0.31004,4.10121 -0.53804,12.64325 -0.68555,23.25976 -0.1475,10.61651 -0.21402,23.30822 -0.20312,35.71094 0.0109,12.40272 0.10046,24.51476 0.26562,33.97461 0.16517,9.45985 0.40542,16.26679 0.72071,18.05469 0.58192,3.3 1.43117,8.475 1.88672,11.5 0.73068,4.85191 1.51926,9.16683 2.5,13.54882 0.98073,4.382 2.15361,8.83106 3.65429,13.95118 1.61202,5.5 2.92126,10.69497 2.91016,11.54296 -0.008,0.61496 0.48295,2.25013 1.25586,4.39258 0.77291,2.14246 1.82718,4.79276 2.94531,7.4336 1.11813,2.64083 2.30051,5.27272 3.32813,7.38281 1.02761,2.11009 1.90098,3.69783 2.40234,4.24805 1.00231,1.1 2.73543,3.8 3.85156,6 1.01974,2.01001 2.60568,4.32294 4.71094,6.89453 2.10526,2.57158 4.73033,5.40152 7.83008,8.44531 3.09975,3.04379 6.67453,6.30189 10.67773,9.72851 4.00321,3.42663 8.43437,7.02209 13.25,10.74219 3.42521,2.646 7.80352,6.28842 9.72852,8.09375 1.74387,1.63546 3.59754,3.23092 5.53515,4.76758 1.93762,1.53666 3.95879,3.01392 6.03711,4.41602 2.07833,1.4021 4.21486,2.72916 6.38086,3.96093 2.166,1.23177 4.36186,2.36886 6.5625,3.39453 7.81608,3.64292 15.28209,7.2434 21.25196,10.22852 5.96986,2.98512 10.44358,5.35488 12.27734,6.53711 1.54136,0.99373 4.86085,2.45015 9.75391,4.29102 4.89305,1.84086 11.35968,4.06616 19.19531,6.59961 2.14163,0.69243 7.08987,1.92911 13.07226,3.30273 5.9824,1.37362 12.99896,2.88418 19.27735,4.125 3.21449,0.63529 7.48949,1.84439 9.5,2.6875 1.66882,0.69981 5.25785,1.59019 12.59179,3.0293 7.33395,1.4391 18.41281,3.42693 35.06446,6.32226 6.6,1.14759 16.5,2.45773 22,2.91211 3.79234,0.3133 13.90625,0.50758 27.08398,0.59961 13.17773,0.092 29.41851,0.0822 45.46875,-0.01 16.05025,-0.0919 31.90847,-0.26727 44.31836,-0.50585 12.4099,-0.23859 21.37223,-0.54075 23.62891,-0.88868 4.01155,-0.61848 10.39875,-1.30082 18.71484,-2.00976 8.31609,-0.70895 18.56106,-1.4445 30.28516,-2.16797 9.0831,-0.5605 16.61043,-1.23487 22.94336,-2.15039 3.16646,-0.45776 6.03458,-0.97594 8.64843,-1.57031 2.61386,-0.59438 4.97379,-1.26445 7.125,-2.02735 2.15122,-0.7629 4.09451,-1.6187 5.87305,-2.58203 1.77854,-0.96333 3.39286,-2.03481 4.88867,-3.23047 1.49582,-1.19566 2.87273,-2.51471 4.17578,-3.97461 1.30306,-1.45989 2.53216,-3.06036 3.73243,-4.8164 0.83347,-1.21941 1.56475,-2.30881 2.20898,-3.39258 0.64423,-1.08377 1.20065,-2.16217 1.68359,-3.35742 0.48295,-1.19525 0.89258,-2.50866 1.24219,-4.0625 0.34961,-1.55385 0.64054,-3.34827 0.88477,-5.50782 0.48845,-4.31909 0.7927,-10.09569 1.02734,-18.32031 0.23464,-8.22461 0.39907,-18.89686 0.60352,-33.0039 0.43205,-29.80943 1.04234,-56.5024 1.74218,-77.39649 0.34993,-10.44704 0.72227,-19.44389 1.10547,-26.65625 0.38321,-7.21236 0.77783,-12.64016 1.17188,-15.94726 0.3113,-2.6125 0.691,-9.43125 1.05273,-18.3125 0.36174,-8.88125 0.70551,-19.825 0.94336,-30.6875 0.50765,-23.18388 1.12556,-43.36388 1.80469,-59.40821 0.33956,-8.02216 0.69421,-15.01181 1.05859,-20.82422 0.36439,-5.8124 0.73806,-10.44817 1.11524,-13.76757 0.53435,-4.70239 1.05235,-11.2773 1.66797,-21.63868 0.61561,-10.36137 1.32885,-24.50921 2.2539,-44.36132 0.5254,-11.275 1.45511,-23.65 2.06641,-27.5 0.5431,-3.42032 1.0012,-6.98099 1.39844,-11.1543 0.39723,-4.17331 0.73382,-8.95956 1.0332,-14.83008 0.59875,-11.74104 1.04957,-27.82042 1.54492,-52.01562 0.2759,-13.475 0.63719,-26.62579 0.99609,-36.95704 0.35891,-10.33125 0.71543,-17.84296 0.98438,-20.04296 0.269,-2.2 0.57508,-7.85665 0.85156,-15.19727 0.27649,-7.34062 0.52338,-16.36523 0.67383,-25.30273 0.15045,-8.9375 0.39993,-18.01797 0.68164,-25.44922 0.28171,-7.43125 0.59565,-13.21328 0.87305,-15.55078 0.27745,-2.3375 0.63589,-8.28711 0.99023,-15.99024 0.35435,-7.70312 0.7046,-17.15976 0.96485,-26.50976 0.7383,-26.52613 1.43898,-46.50966 2.18164,-61.55469 0.37133,-7.52252 0.75433,-13.81065 1.15625,-19.06446 0.40192,-5.2538 0.82321,-9.47324 1.27539,-12.85937 0.62155,-4.6544 1.02072,-10.52774 1.21679,-16.91992 0.19608,-6.39218 0.18981,-13.30319 0,-20.03125 -0.1898,-6.72806 -0.56351,-13.27351 -1.09961,-18.93555 -0.26804,-2.831017 -0.57662,-5.44053 -0.92382,-7.742186 -0.3472,-2.301656 -0.7329,-4.295522 -1.1543,-5.892578 -0.79853,-3.026333 -1.61138,-5.694485 -2.49023,-8.101563 -0.87886,-2.407078 -1.82453,-4.553328 -2.88672,-6.533203 -1.06219,-1.979875 -2.24132,-3.794337 -3.58985,-5.539062 -1.34853,-1.744726 -2.86564,-3.419467 -4.60351,-5.121094 -1.6052,-1.571725 -3.04218,-2.859098 -4.58203,-3.986328 -1.53986,-1.12723 -3.18168,-2.094387 -5.20118,-3.029297 -2.01949,-0.934911 -4.41683,-1.837265 -7.46093,-2.832031 -3.04411,-0.994767 -6.73591,-2.081875 -11.34961,-3.388672 -2.668,-0.755695 -4.90471,-1.356597 -7.18946,-1.871094 -2.28474,-0.514497 -4.61792,-0.942243 -7.47851,-1.353516 -5.72119,-0.822545 -13.55278,-1.576963 -27.33203,-2.814453 -3.91345,-0.35146 -13.51916,-0.563835 -25.94141,-0.658203 z m -22.55859,18.335938 c 13.00555,-0.03701 23.79403,0.04211 33.08008,0.308593 9.28604,0.266487 17.06937,0.719468 24.0625,1.435547 3.49656,0.35804 6.79551,0.781466 9.98632,1.279297 3.19082,0.497831 6.27451,1.070679 9.33789,1.726563 6.12678,1.311767 12.17629,2.958166 18.86329,5.011718 1.64205,0.504267 3.15756,1.073875 4.55859,1.726563 1.40103,0.652688 2.68751,1.3885 3.86914,2.224609 1.18163,0.83611 2.25835,1.773594 3.24219,2.828125 0.98384,1.054531 1.87397,2.22525 2.68164,3.533203 0.80767,1.307953 1.53438,2.751282 2.1875,4.347656 0.65312,1.596375 1.23372,3.34583 1.7539,5.265626 0.52019,1.919795 0.97981,4.010845 1.38868,6.289062 0.40886,2.278217 0.76677,4.74438 1.08593,7.41602 0.42665,3.57136 0.77632,7.45996 1.04102,11.39062 0.2647,3.93066 0.44357,7.90433 0.5332,11.64649 0.0896,3.74215 0.0888,7.25196 -0.01,10.25781 -0.0985,3.00584 -0.29393,5.50679 -0.59375,7.22851 -0.637,3.65835 -1.6193,13.24967 -2.1836,21.31446 -0.5643,8.06478 -1.23634,17.58711 -1.49414,21.16211 -0.2578,3.575 -0.92206,21.575 -1.47656,40 -0.5544,18.425 -1.66033,47.225 -2.45703,64 -0.7728,16.27205 -1.74887,42.06549 -2.71289,70.95703 -0.96402,28.89153 -1.91598,60.88117 -2.64258,89.54297 -0.244,9.625 -0.59489,19.10703 -0.96484,26.6289 -0.36996,7.52188 -0.75898,13.0836 -1.07618,14.8711 -0.83595,4.7105 -1.55289,11.00351 -2.20312,19.59765 -0.65023,8.59414 -1.23374,19.48942 -1.80664,33.40235 -0.5548,13.475 -1.44833,27.65 -1.98633,31.5 -0.538,3.85 -1.23959,13.975 -1.55859,22.5 -0.319,8.525 -1.03329,19.1 -1.58789,23.5 -0.2773,2.2 -0.63845,8.8121 -0.9961,17.69335 -0.35765,8.88126 -0.71181,20.03165 -0.97656,31.30665 -0.5294,22.55 -1.64452,53.825 -2.47852,69.5 -1.2969,24.37515 -2.11795,42.40244 -2.62695,59.5664 -0.509,17.16396 -0.70595,33.46459 -0.75195,54.38281 -0.0329,14.95847 -0.1526,26.66963 -0.51367,35.92383 -0.18054,4.62711 -0.42206,8.63929 -0.74219,12.13672 -0.32013,3.49743 -0.7187,6.47956 -1.2168,9.04492 -0.4981,2.56536 -1.09611,4.71404 -1.81055,6.54493 -0.71443,1.83088 -1.54647,3.34466 -2.51562,4.63867 -0.96915,1.294 -2.07566,2.36949 -3.33789,3.32422 -1.26223,0.95472 -2.67975,1.78852 -4.27344,2.60156 -1.10012,0.56124 -2.85205,1.10235 -5.26562,1.62305 -2.41358,0.52069 -5.48859,1.02093 -9.23828,1.5039 -7.4994,0.96595 -17.69393,1.85932 -30.67383,2.69141 -8.25,0.52887 -16.53722,1.23365 -18.41602,1.5664 -1.8787,0.33275 -12.2287,1.31723 -23,2.1875 -4.82912,0.39018 -14.61892,0.77405 -26.60547,1.11133 -11.98655,0.33729 -26.16926,0.62775 -39.78906,0.83008 -13.6198,0.20233 -26.67543,0.31742 -36.4043,0.30273 -9.72886,-0.0147 -16.13155,-0.15889 -16.44531,-0.47265 -0.30974,-0.30973 -6.13748,-0.96461 -12.95117,-1.45508 -3.16879,-0.2281 -8.67007,-0.92586 -15.19141,-1.87109 -6.52133,-0.94524 -14.06305,-2.13886 -21.3125,-3.35938 -7.24945,-1.22051 -14.20739,-2.46755 -19.56054,-3.52148 -5.35315,-1.05394 -9.10117,-1.91388 -9.9336,-2.35938 -1.01578,-0.54363 -10.74474,-2.9594 -21.61914,-5.36914 -10.8744,-2.40973 -21.79648,-5.12721 -24.27148,-6.03906 -2.475,-0.91184 -7.793,-2.71541 -11.81836,-4.00781 -2.01268,-0.64621 -4.25625,-1.50285 -6.25,-2.36133 -1.99375,-0.85848 -3.73768,-1.71879 -4.75,-2.375 -1.77552,-1.15094 -4.9573,-2.86399 -10.06446,-5.39844 -5.10715,-2.53444 -12.13969,-5.89027 -21.61718,-10.32422 -2.30517,-1.07845 -4.51234,-2.21173 -6.63867,-3.41015 -2.12634,-1.19843 -4.17129,-2.46239 -6.1543,-3.80469 -1.98301,-1.34231 -3.90412,-2.76141 -5.7793,-4.27149 -1.87517,-1.51008 -3.70497,-3.11074 -5.50781,-4.8125 -2.24431,-2.11847 -6.12912,-5.29414 -8.63281,-7.05859 -1.64058,-1.15617 -4.07405,-3.12096 -6.85157,-5.48437 -2.77751,-2.36342 -5.89886,-5.12497 -8.91796,-7.87891 -3.01911,-2.75394 -5.93545,-5.50036 -8.30079,-7.82813 -2.36533,-2.32776 -4.17988,-4.23738 -4.99609,-5.32226 -2.25102,-2.99202 -4.15582,-5.67971 -5.80469,-8.24805 -1.64886,-2.56834 -3.04274,-5.01753 -4.27148,-7.53515 -1.22874,-2.51763 -2.29255,-5.10347 -3.2832,-7.94336 -0.99066,-2.83989 -1.90721,-5.93362 -2.8418,-9.46875 -2.71802,-10.28104 -4.79714,-18.32428 -6.38672,-25.36329 -0.79479,-3.5195 -1.46636,-6.78806 -2.03516,-9.95898 -0.5688,-3.17092 -1.03384,-6.24471 -1.41406,-9.375 -0.76044,-6.26058 -1.18153,-12.74758 -1.41211,-20.69336 -0.23057,-7.94578 -0.27148,-17.35072 -0.27148,-29.44531 0,-10.60371 0.11118,-21.14932 0.29101,-29.59766 0.17983,-8.44834 0.42831,-14.7994 0.70117,-17.01367 0.54574,-4.42855 1.47276,-14.57773 2.06055,-22.55273 0.85679,-11.62463 1.5636,-20.17934 2.18945,-26.36329 0.62586,-6.18394 1.17077,-9.99711 1.70704,-12.13671 0.55141,-2.2 1.01053,-6.25 1.01953,-9 0.007,-1.96118 0.33688,-5.54721 0.91211,-10.25 0.57523,-4.7028 1.3952,-10.52146 2.38281,-16.94922 1.97522,-12.85553 4.61922,-28.14525 7.30664,-41.80078 1.27376,-6.4723 2.34115,-12.39003 3.22461,-17.95508 0.88346,-5.56506 1.58311,-10.77672 2.11914,-15.83985 0.53603,-5.06312 0.90914,-9.97685 1.14062,-14.94336 0.23149,-4.9665 0.32122,-9.98651 0.29102,-15.26171 -0.0742,-12.95388 -0.5633,-31.96832 -1.13867,-47.91407 -0.28769,-7.97287 -0.59734,-15.17991 -0.88672,-20.47656 -0.28938,-5.29665 -0.55892,-8.68386 -0.76758,-9.02148 -0.39067,-0.63213 -1.32968,-9.34879 -2.08789,-19.36914 -0.41884,-5.53531 -0.97001,-10.87429 -1.57617,-15.4375 -0.60616,-4.56322 -1.26733,-8.35067 -1.90625,-10.78125 -0.77339,-2.94209 -1.3314,-5.99954 -1.74219,-9.79297 -0.41078,-3.79343 -0.67434,-8.32285 -0.85742,-14.20703 -0.13915,-4.47225 -0.29436,-8.12892 -0.51367,-11.26368 -0.21931,-3.13476 -0.50248,-5.74847 -0.90039,-8.13671 -0.39792,-2.38825 -0.90903,-4.55051 -1.58399,-6.78321 -0.67496,-2.2327 -1.51401,-4.535 -2.56445,-7.20312 l -2.9082,-7.38477 1.51367,-9.61523 c 0.83221,-5.28754 2.0067,-12.98828 2.61133,-17.11328 0.83597,-5.7033 2.05902,-12.17097 3.35351,-17.97852 1.2945,-5.80755 2.66044,-10.95499 3.7793,-14.02148 1.10373,-3.025 2.81461,-8.2 3.80078,-11.5 0.98617,-3.3 3.02722,-9.15 4.53516,-13 1.50794,-3.85 3.95749,-10.375 5.44531,-14.5 1.48782,-4.125 3.39749,-8.85 4.24219,-10.5 0.8447,-1.65 2.33778,-5.475 3.31836,-8.5 0.49029,-1.5125 1.15462,-3.16915 1.83007,-4.61915 0.67546,-1.44999 1.36204,-2.69335 1.89649,-3.38085 1.06889,-1.375 2.52459,-3.85 3.23633,-5.5 0.40811,-0.94612 1.64446,-2.6866 3.32226,-4.79102 1.67781,-2.10442 3.79766,-4.57304 5.97071,-6.97852 2.17304,-2.40548 4.39914,-4.7464 6.29296,-6.5957 1.89383,-1.8493 3.45478,-3.2067 4.29493,-3.64258 1.38404,-0.71805 5.93585,-4.28862 10.11523,-7.93359 3.95457,-3.4489 8.06095,-6.6443 11.6582,-9.12695 1.79863,-1.24133 3.47092,-2.3047 4.93164,-3.13282 1.46073,-0.82811 2.71085,-1.42022 3.66797,-1.7207 1.22598,-0.38488 6.60042,-3.175351 11.94336,-6.201171 6.07787,-3.442035 10.47919,-5.80615 14.70117,-7.798828 4.22199,-1.992679 8.26465,-3.613921 13.62696,-5.572266 5.00885,-1.829265 13.05367,-4.271373 20.82422,-6.412109 7.77055,-2.140737 15.26683,-3.980102 19.17578,-4.607422 3.025,-0.48546 9.56731,-1.567237 14.53906,-2.404297 3.63838,-0.612575 8.99944,-1.255613 15.3418,-1.876953 6.34235,-0.621341 13.66584,-1.221005 21.23242,-1.748047 7.56658,-0.527043 15.37645,-0.980866 22.6875,-1.310547 7.31105,-0.329681 14.12346,-0.535198 19.69922,-0.564453 3.575,-0.01876 7.66914,-0.150709 11.38476,-0.349609 3.71563,-0.198901 7.05274,-0.464752 9.11524,-0.748047 2.66595,-0.366178 8.44162,-0.753202 16.27539,-1.128907 7.83377,-0.375704 17.72632,-0.739559 28.62695,-1.0625 21.80127,-0.645881 47.63464,-1.124472 69.09766,-1.185546 z"
       style="color:#000000;clip-rule:nonzero;display:inline;overflow:visible;visibility:visible;opacity:1;isolation:auto;mix-blend-mode:normal;color-interpolation:sRGB;color-interpolation-filters:linearRGB;solid-color:#000000;solid-opacity:1;fill:url(#linearGradient4750);fill-opacity:1;fill-rule:nonzero;stroke:none;stroke-width:1;stroke-linecap:butt;stroke-linejoin:miter;stroke-miterlimit:4;stroke-dasharray:none;stroke-dashoffset:0;stroke-opacity:1;color-rendering:auto;image-rendering:auto;shape-rendering:auto;text-rendering:auto;enable-background:accumulate" />
    <path
       id="path6063"
       d="m 532.35156,634.32227 c -3.17101,-0.004 -5.44178,0.22311 -7.64258,0.68164 -10.34314,2.15495 -15.86021,7.61182 -16.58984,16.41015 l -0.44922,5.42578 -4.04883,0.54297 c -7.82574,1.04965 -12.90122,6.85209 -13.49023,15.42578 -0.43337,6.30825 -0.72031,5.61083 11.23633,27.26368 9.42423,17.0668 16.13055,28.24234 19.44922,32.4082 1.71202,2.14907 4.50491,6.64907 6.20507,10 1.70017,3.35094 5.53928,9.81636 8.53321,14.36719 2.99393,4.55084 6.90998,11.07584 8.70117,14.5 1.7912,3.42417 4.51284,8.11567 6.04883,10.42578 1.53599,2.31011 2.63583,4.57302 2.44336,5.02929 -0.90455,2.14441 -17.99773,17.42625 -23.1836,20.72657 -7.17862,4.56852 -21.19551,9.54082 -26.91406,9.54882 -10.31789,0.0135 -17.78696,4.93143 -19.90039,13.10352 -2.43714,9.42378 2.85626,18.38207 12.38477,20.96094 5.06255,1.37017 19.36589,0.46488 24.69335,-1.5625 1.96386,-0.74735 7.17032,-2.69418 11.57032,-4.32617 12.18825,-4.52069 22.80471,-11.34929 33.86523,-21.78321 5.47904,-5.16864 10.30127,-9.39843 10.71485,-9.39843 0.41358,0 2.25221,1.9094 4.08593,4.24218 1.83372,2.33278 6.0571,7.22224 9.38672,10.86524 7.78194,8.51436 29.67648,37.6862 44.42578,59.19336 6.3366,9.24005 12.79221,18.5824 14.34571,20.76172 3.8576,5.41173 10.93906,11.19527 15.44336,12.61132 4.8071,1.51127 4.99682,1.51611 9.73242,0.22852 7.6083,-2.06869 12.5,-8.63841 12.5,-16.78711 0,-6.91378 -1.11966,-9.2629 -7.50586,-15.75195 -3.0577,-3.10697 -10.78362,-13.34404 -17.16992,-22.75 -14.4392,-21.26631 -36.87183,-51.3091 -43.76563,-58.61328 -2.8551,-3.025 -8.44346,-9.43282 -12.41797,-14.24024 l -7.22461,-8.74023 2.54102,-3.74219 c 1.39828,-2.05776 2.54297,-4.09762 2.54297,-4.5332 0,-0.43559 1.59836,-3.1159 3.55273,-5.95703 5.90353,-8.58225 19.28704,-37.16603 20.86524,-44.5625 3.0637,-14.35814 3.56367,-17.08892 5.17187,-28.24219 2.1697,-15.04785 1.67365,-29.90223 -1.18555,-35.48828 -3.5609,-6.95694 -13.04947,-11.80549 -31.40429,-16.04688 -3.025,-0.69901 -7.975,-1.94936 -11,-2.77734 -22.81216,-6.24402 -29.4471,-7.57143 -43.5,-8.70899 -5.80347,-0.46978 -9.87586,-0.70647 -13.04688,-0.71093 z m 5.35352,35.00585 c 8.46563,0.30071 20.10619,1.94968 27.52539,4.10743 8.96326,2.6068 19.1627,5.21158 27.66797,7.0664 l 5.5,1.19922 -0.17578,4.43555 c -0.0968,2.43976 -0.68723,7.58555 -1.31055,11.43555 -2.86468,17.6938 -4.38985,23.43136 -8.59961,32.32031 -2.42751,5.12571 -4.41406,9.54609 -4.41406,9.82422 0,0.27814 -1.85255,3.62298 -4.11524,7.43164 -2.26268,3.80866 -4.23125,6.92383 -4.375,6.92383 -0.60998,0 -16.92289,-26.48017 -19.125,-31.04493 -1.32592,-2.74849 -4.696,-8.02564 -7.49023,-11.72656 -2.79423,-3.70091 -9.25131,-14.46621 -14.34766,-23.92383 l -9.26562,-17.19531 5.39258,-0.67383 c 1.84269,-0.23022 4.31093,-0.27992 7.13281,-0.17969 z"
       style="fill:url(#linearGradient5694)" />
    <path
       id="path6061"
       d="m 359.83789,145.56836 c -1.40539,-0.005 -2.79069,0.18239 -4.18945,0.55273 -4.59131,1.21561 -9.09046,4.84667 -11.33985,9.15235 -2.02745,3.88086 -1.78027,11.68209 0.48829,15.40234 4.01763,6.58858 13.41528,13.13497 34.14648,23.78906 5.79948,2.98044 14.34948,7.9249 19,10.98828 17.93962,11.81723 28.95326,19.77994 28.94726,20.92579 -0.004,0.65664 -0.92725,2.54336 -2.05273,4.19336 -1.12548,1.65 -3.65661,6.15 -5.625,10 -1.96838,3.85 -4.79785,8.8 -6.28906,11 -1.49121,2.2 -6.1702,11.07147 -10.39649,19.71289 l -7.68359,15.71093 -8.19336,-5.20117 c -4.50643,-2.86106 -14.05659,-9.82189 -21.22266,-15.4668 -15.00708,-11.82145 -20.34878,-14.17542 -27.72265,-12.22265 -7.7343,2.04822 -12.80664,8.57083 -12.80664,16.4668 0,8.18073 2.06618,10.51155 24.3125,27.41211 5.94738,4.51823 14.61813,10.66856 19.26758,13.66796 l 8.45312,5.45313 -1.47266,2.85156 c -0.81058,1.56749 -3.14392,5.03822 -5.18554,7.71289 -2.04163,2.67468 -9.7811,14.09674 -17.19727,25.38281 -18.6763,28.42198 -18.7923,28.59012 -26.99023,39.46485 -4.02126,5.33429 -9.62253,13.15409 -12.44727,17.37695 -2.82474,4.22285 -7.1835,10.2001 -9.6875,13.2832 -5.64478,6.95024 -16.0802,21.39928 -17.93555,24.83399 -0.76059,1.40804 -3.34008,4.8727 -5.73242,7.69922 -5.03513,5.94893 -6.38476,8.98461 -6.38476,14.36133 0,7.131 3.53975,12.93883 9.5,15.58789 3.90909,1.73742 10.7239,1.76414 14.81054,0.0566 3.80002,-1.58775 11.47734,-9.83095 16.43555,-17.64453 1.91955,-3.025 7.85029,-11.35 13.17774,-18.5 9.05356,-12.15085 25.34198,-34.64429 36.37109,-50.22657 2.6369,-3.72549 11.1869,-16.36379 19,-28.08593 7.81311,-11.72214 15.55508,-23.3264 17.20508,-25.78711 1.65,-2.46071 5.7,-7.88303 9,-12.04883 6.67771,-8.4297 10.45762,-14.22737 10.48242,-16.07617 0.0201,-1.49523 4.33505,-11.03933 11.75781,-26.00782 l 5.57227,-11.23437 4.1582,3.73437 c 9.90208,8.89043 21.84399,18.81276 28.38477,23.58594 3.87896,2.8307 13.93473,10.5604 22.34765,17.17578 19.22871,15.12023 26.64027,20.52094 39.73633,28.95899 5.74139,3.69929 16.54139,11.0901 24,16.42578 7.45862,5.33568 17.04742,12.05281 21.31055,14.92578 4.26313,2.87296 11.68813,8.65774 16.5,12.85547 4.81187,4.19774 11.675,9.53309 15.25,11.85547 6.51382,4.23149 40,37.03897 40,39.18945 0,2.00572 5.18253,7.31331 9.08594,9.30469 5.3521,2.73043 12.67218,2.59288 16.99218,-0.31836 7.0807,-4.77171 10.14219,-12.66434 8.02539,-20.6875 -1.5109,-5.72687 -6.92788,-14.01032 -11.20898,-17.13867 -1.8065,-1.3201 -10.50965,-9.56733 -19.33985,-18.32813 -9.15759,-9.08564 -18.9869,-17.82616 -22.8789,-20.3457 -3.7529,-2.42947 -10.0529,-7.32708 -14,-10.88281 -3.9471,-3.55573 -11.22578,-9.22957 -16.17578,-12.60938 -4.95,-3.3798 -15.17797,-10.55913 -22.72852,-15.95312 -7.55055,-5.39399 -19.02555,-13.23668 -25.5,-17.42774 -12.71889,-8.23323 -34.64006,-24.31892 -34.00586,-24.95312 0.2144,-0.2144 7.46496,-2.19394 16.11328,-4.40039 8.64831,-2.20645 17.38801,-4.85739 19.42188,-5.89063 2.03387,-1.03323 6.48869,-2.59109 9.89844,-3.46094 3.40975,-0.86984 9.70975,-3.34755 14,-5.50781 4.29025,-2.16027 8.92578,-4.26258 10.30078,-4.67187 5.25378,-1.56384 14.58535,-6.64401 17.63476,-9.59961 8.12787,-7.87787 5.64383,-21.98215 -4.83593,-27.45703 -3.48672,-1.82154 -11.1274,-1.80778 -15.14844,0.0273 -35.61829,16.25545 -58.9891,24.09591 -79.15039,26.55664 -11.78075,1.43787 -16.04417,2.77617 -19.68555,6.17773 l -3,2.80079 -10.35156,-9.62696 c -5.69383,-5.29474 -11.68138,-11.27883 -13.30469,-13.29883 l -2.95117,-3.67187 1.85547,-3.93945 c 4.85584,-10.31061 5.98818,-25.56902 2.41211,-32.48438 -4.53056,-8.76114 -38.76598,-33.83591 -63.97461,-46.85547 -11.37517,-5.87495 -14.75354,-7.84523 -22.51367,-13.13476 -5.43925,-3.70756 -9.83069,-5.45155 -14.04688,-5.4668 z m 336.11133,160.67773 c -10.4058,-0.58798 -18.86018,2.64614 -40.05078,15.32422 -5.775,3.45512 -13.78408,8.16338 -17.79688,10.46289 -13.1542,7.5378 -17.20312,12.37051 -17.20312,20.5293 0,7.92004 4.51866,14.21766 11.91406,16.60547 1.4225,0.45932 4.58585,0.62347 7.03125,0.36328 4.3971,-0.46787 5.69329,-1.15508 33.05469,-17.5293 13.5931,-8.13472 19.34204,-10.85877 25.27734,-11.9707 5.6664,-1.06156 8.94976,-3.04382 12.16016,-7.34375 2.9452,-3.94475 2.9452,-15.28572 0,-19.23047 -3.9045,-5.22965 -7.03042,-6.79527 -14.38672,-7.21094 z M 528.96094,458.38086 c -4.58831,0.0925 -9.32506,1.95592 -13.20313,5.83398 -4.82579,4.82579 -7.46844,12.99387 -5.96484,18.43946 0.91109,3.2997 0.21731,6.09596 -6.95117,28.02929 -4.3796,13.40021 -8.91823,26.73238 -10.08594,29.62696 -5.75452,14.26461 -7.98273,23.2189 -8.52539,34.26172 -0.51105,10.39958 -0.41023,11.1901 1.83789,14.47656 3.79845,5.55282 8.27186,8.02344 14.52734,8.02344 12.24289,0 19.27642,-8.8716 19.32422,-24.375 0.0158,-5.11017 0.61706,-8.39719 2.125,-11.625 1.15625,-2.475 5.6193,-14.78431 9.91797,-27.35547 4.29867,-12.57116 7.97157,-23.01259 8.16211,-23.20313 0.19054,-0.19054 2.57862,0.28884 5.30859,1.06641 6.63619,1.89018 24.91443,4.49109 31.59375,4.49609 13.83485,0.0104 44.49456,7.32223 60.87696,14.51758 3.5716,1.5687 6.6369,2.94957 6.8125,3.06836 0.1757,0.1188 -0.59148,2.21581 -1.70508,4.66016 -5.1675,11.34345 -11.60281,30.54688 -14.66211,43.75 -4.2477,18.33126 -4.70329,32.90754 -1.33789,42.87304 3.3044,9.78491 10.60377,17.00855 23.35547,23.11328 5.57,2.66655 11.90668,5.18086 14.08008,5.58789 2.1734,0.40703 5.52617,1.40105 7.45117,2.20899 1.925,0.80793 6.875,2.04086 11,2.74023 21.1575,3.58714 32.01212,-0.77659 38.98242,-15.67187 4.4183,-9.44163 5.98023,-18.27677 5.99023,-33.85156 0.007,-12.05595 -0.24137,-14.03664 -2.32617,-18.51368 -1.284,-2.75731 -2.89327,-6.70623 -3.57617,-8.77539 -1.5111,-4.57861 -5.33002,-9.27556 -9.14063,-11.24609 -1.5571,-0.80524 -5.26142,-1.46484 -8.23242,-1.46484 -6.2578,0 -10.73688,2.47426 -14.52148,8.02343 -2.0568,3.01584 -2.3082,4.33739 -1.9082,9.97657 0.2808,3.95937 1.53865,9.04063 3.21875,13 2.4423,5.75596 2.68865,7.31404 2.16015,13.60351 -0.3283,3.90636 -0.88081,7.84386 -1.22851,8.75 -0.8348,2.17539 -3.76024,2.07778 -10.67774,-0.35351 -3.1297,-1.1 -6.48864,-2.00939 -7.46484,-2.02149 -2.5906,-0.0321 -10.41759,-3.76668 -13.02539,-6.21484 -2.9747,-2.79253 -2.91062,-6.83714 0.33008,-20.99414 3.6636,-16.0043 12.40111,-40.26206 18.79101,-52.16797 3.3363,-6.21629 3.65169,-15.69776 0.71289,-21.39063 -2.2344,-4.32849 -8.03784,-10.00828 -13.24414,-12.96093 -6.9618,-3.94827 -28.55546,-13.25 -30.75976,-13.25 -1.2169,0 -3.08725,-0.46696 -4.15625,-1.03907 -2.8169,-1.50756 -24.08071,-6.93777 -33.42383,-8.53515 -4.4,-0.75227 -12.05,-1.62059 -17,-1.92969 -9.8537,-0.61531 -22.2958,-2.23023 -27,-3.50391 -1.65,-0.44674 -4.18329,-1.07253 -5.62891,-1.39062 -2.124,-0.46736 -2.84886,-1.45129 -3.77539,-5.13086 -2.15337,-8.55183 -9.38602,-13.31621 -17.0332,-13.16211 z m -184.98242,8.19726 c -5.04807,-0.23164 -9.15909,1.37393 -12.67969,4.89454 -7.85294,7.85294 -6.28111,20.68519 3.31055,27.02343 6.74013,4.45394 16.1626,5.77305 46.78906,6.55079 15.4,0.39106 28.82808,1.07058 29.83984,1.50976 1.35725,0.58913 1.69269,1.48355 1.2793,3.4082 -0.30816,1.43476 -1.04148,5.75743 -1.62891,9.60743 -0.58742,3.85 -1.53362,9.25 -2.10351,12 -0.5699,2.75 -1.29368,9.3875 -1.60743,14.75 -0.65599,11.21191 -0.26232,10.91821 -10.42382,7.80078 -3.49544,-1.07236 -10.06797,-2.42236 -14.60547,-3 -4.5375,-0.57764 -11.9625,-1.51538 -16.5,-2.08399 -4.5375,-0.5686 -14.9371,-2.18377 -23.10938,-3.58984 -10.97895,-1.88896 -17.42313,-2.46825 -24.67968,-2.2168 -10.54147,0.36528 -13.04628,1.39456 -17.31446,7.11133 -2.70484,3.62284 -3.32832,12.1614 -1.25195,17.13086 2.83936,6.79554 2.11634,19.70283 -2.34375,41.8457 -3.92514,19.48699 -5.90237,37.22598 -4.6875,42.06641 0.34938,1.39202 1.81519,3.93239 3.25586,5.64453 4.60432,5.47192 7.57664,6.4046 22.88086,7.17187 18.79395,0.94222 47.02158,3.54827 52.16797,4.81641 2.29235,0.56486 8.41937,1.66447 13.61718,2.44531 5.19781,0.78084 10.86164,2.14841 12.58399,3.03907 2.72311,1.40818 3.13086,2.14647 3.13086,5.65234 0,2.21743 -0.43162,7.04367 -0.95899,10.72461 -0.52737,3.68095 -1.62986,11.41641 -2.44922,17.19141 -0.81936,5.775 -1.77256,15.45 -2.11914,21.5 -0.34658,6.05 -1.25165,14.15 -2.00976,18 -0.75812,3.85 -2.08578,11.275 -2.95117,16.5 -1.33476,8.05896 -4.67592,23.21642 -7.3086,33.15234 l -0.70312,2.6543 -4.52539,-2.20508 c -2.48846,-1.21216 -6.53846,-3.0018 -9,-3.97656 -2.46153,-0.97475 -8.52461,-4.12556 -13.47461,-7.00391 -4.95,-2.87835 -10.24091,-5.85002 -11.75782,-6.60156 -1.5169,-0.75154 -8.00809,-6.01705 -14.42382,-11.70118 -12.43086,-11.01331 -16.47093,-13.06665 -23.22852,-11.81445 -8.64207,1.60141 -14.08984,8.28471 -14.08984,17.28516 0,5.92071 3.91201,12.4318 10.83203,18.02734 2.50651,2.02676 6.83083,5.7471 9.61133,8.26953 5.43498,4.93056 13.84105,10.91407 15.33203,10.91407 0.50313,0 3.7824,1.85394 7.28711,4.11914 6.401,4.13717 18.21129,10.21818 22.26367,11.46289 1.19509,0.36708 8.47383,3.83485 16.17383,7.70508 7.7,3.87023 15.575,7.38134 17.5,7.80273 8.4339,1.84624 18.67287,-2.40782 22.19336,-9.21875 1.22485,-2.36966 2.37199,-8.26809 3.30468,-17 0.78553,-7.35421 1.86031,-15.39609 2.38868,-17.87109 0.52837,-2.475 2.30437,-10.8 3.94726,-18.5 3.28416,-15.39239 5.53551,-29.68534 7.08789,-45 1.25232,-12.3545 3.01684,-27.21107 4.09571,-34.5 0.44775,-3.025 0.85203,-13.05108 0.89843,-22.28125 0.0957,-19.03261 -0.52697,-21.60361 -6.39843,-26.44336 -6.69987,-5.5226 -22.01369,-12.06252 -31.39454,-13.40821 -3.64287,-0.52257 -10.44804,-1.66522 -15.12304,-2.53906 -9.02722,-1.68736 -14.69701,-2.33594 -38.29492,-4.37695 -11.62785,-1.00571 -14.68361,-1.5663 -14.27735,-2.625 2.11809,-5.51966 6.57227,-32.60807 6.57227,-39.97266 l 0,-8.61719 4.25,0.60743 c 2.3375,0.33399 11.45,1.54643 20.25,2.69336 8.8,1.1469 18.925,2.70981 22.5,3.47265 3.575,0.76284 9.81914,2.10285 13.87695,2.97852 7.23258,1.56077 10.0882,2.65545 17.12305,6.56445 5.1792,2.87788 15.57443,2.70887 20.07812,-0.32617 4.13216,-2.78466 7.92188,-8.21611 7.92188,-11.35352 0,-1.28212 0.96796,-5.27699 2.15039,-8.8789 2.09784,-6.39048 2.10779,-6.68781 0.41601,-12.27539 -2.48539,-8.20866 -1.93744,-16.31196 3.11328,-45.94336 3.24135,-19.01622 0.34734,-32.73126 -8.0996,-38.38086 -9.03781,-6.04479 -20.4641,-7.89453 -48.76368,-7.89453 -19.18905,0 -29.71087,-0.95127 -40.36328,-3.65235 -1.90349,-0.48266 -3.69036,-0.76458 -5.37304,-0.8418 z"
       style="fill:url(#linearGradient5694)" />
  </g>
</svg>
