<?xml version="1.0" encoding="UTF-8" standalone="no"?>
<svg
   xmlns:osb="http://www.openswatchbook.org/uri/2009/osb"
   xmlns:dc="http://purl.org/dc/elements/1.1/"
   xmlns:cc="http://creativecommons.org/ns#"
   xmlns:rdf="http://www.w3.org/1999/02/22-rdf-syntax-ns#"
   xmlns:svg="http://www.w3.org/2000/svg"
   xmlns="http://www.w3.org/2000/svg"
   xmlns:xlink="http://www.w3.org/1999/xlink"
   version="1.1"
   id="svg2985"
   height="916.87012"
   width="582.80414">
  <defs
     id="defs5498">
    <linearGradient
       osb:paint="solid"
       id="linearGradient4756">
      <stop
         id="stop4758"
         offset="0"
         style="stop-color:#ffffff;stop-opacity:1;" />
    </linearGradient>
    <linearGradient
       osb:paint="solid"
       id="linearGradient4750">
      <stop
         id="stop4752"
         offset="0"
         style="stop-color:#000000;stop-opacity:1;" />
    </linearGradient>
    <linearGradient
       osb:paint="solid"
       id="linearGradient5694">
      <stop
         id="stop5696"
         offset="0"
         style="stop-color:#002b11;stop-opacity:1;" />
    </linearGradient>
    <linearGradient
       osb:paint="solid"
       id="linearGradient4712">
      <stop
         id="stop4714"
         offset="0"
         style="stop-color:#162d50;stop-opacity:1;" />
    </linearGradient>
    <linearGradient
       osb:paint="solid"
       id="linearGradient4706">
      <stop
         id="stop4708"
         offset="0"
         style="stop-color:#d40000;stop-opacity:1;" />
    </linearGradient>
    <linearGradient
       gradientUnits="userSpaceOnUse"
       y2="508.69208"
       x2="761.44257"
       y1="508.69208"
       x1="262.13925"
       id="linearGradient4716"
       xlink:href="#linearGradient4712" />
    <linearGradient
       gradientUnits="userSpaceOnUse"
       y2="500.0004"
       x2="771.30902"
       y1="500.0004"
       x1="228.69211"
       id="linearGradient4754"
       xlink:href="#linearGradient4750" />
    <linearGradient
       gradientUnits="userSpaceOnUse"
       y2="500.10483"
       x2="752.40271"
       y1="500.10483"
       x1="248.61133"
       id="linearGradient4760"
       xlink:href="#linearGradient4756" />
    <linearGradient
       y2="508.69208"
       x2="761.44257"
       y1="508.69208"
       x1="262.13925"
       gradientUnits="userSpaceOnUse"
       id="linearGradient501"
       xlink:href="#linearGradient4712" />
    <linearGradient
       y2="508.69208"
       x2="761.44257"
       y1="508.69208"
       x1="262.13925"
       gradientUnits="userSpaceOnUse"
       id="linearGradient503"
       xlink:href="#linearGradient4712" />
    <linearGradient
       y2="508.69208"
       x2="761.44257"
       y1="508.69208"
       x1="262.13925"
       gradientUnits="userSpaceOnUse"
       id="linearGradient505"
       xlink:href="#linearGradient4712" />
  </defs>
  <metadata
     id="metadata5594">
    <rdf:RDF>
      <cc:Work
         rdf:about="">
        <dc:format>image/svg+xml</dc:format>
        <dc:type
           rdf:resource="http://purl.org/dc/dcmitype/StillImage" />
        <dc:title />
      </cc:Work>
    </rdf:RDF>
  </metadata>
  <g
     transform="translate(-208.59814,-41.56523)"
     style="display:inline"
     id="layer30">
    <path
       id="path5021"
       d="m 546.57227,58.548828 c -7.26769,1.3e-5 -12.92301,0.01203 -17.84571,0.08984 -4.92269,0.07782 -9.11179,0.220759 -13.44726,0.482422 -8.67095,0.523326 -17.9262,1.521065 -34.79492,3.416015 -8.35127,0.938138 -14.87594,1.685743 -20.48829,2.396485 -5.61234,0.710742 -10.31235,1.385177 -15.01171,2.175781 -4.69937,0.790604 -9.39938,1.697276 -15.01172,2.875 -5.61235,1.177724 -12.13702,2.625944 -20.48828,4.498047 -21.19931,4.75225 -38.87707,8.911833 -53.04102,12.480469 -7.08197,1.784317 -13.28514,3.420954 -18.61133,4.910156 -5.32619,1.489202 -9.7752,2.830778 -13.34765,4.025391 -2.8875,0.965569 -6.30079,1.975087 -9.47266,2.822265 -3.17188,0.847178 -6.10234,1.532021 -8.02734,1.851571 -3.85001,0.63909 -10.57228,2.26379 -14.9375,3.61132 -2.18262,0.67377 -5.80122,1.56739 -9.87305,2.46485 -4.07183,0.89745 -8.59688,1.79875 -12.5918,2.48633 -5.03177,0.86603 -8.87191,1.5572 -11.91015,2.32226 -1.51913,0.38253 -2.83641,0.78378 -4.00391,1.23438 -1.1675,0.45059 -2.18393,0.95038 -3.09766,1.53125 -0.91373,0.58086 -1.72462,1.24228 -2.48242,2.01562 -0.75779,0.77334 -1.4624,1.65948 -2.16211,2.6875 -1.39941,2.05604 -2.78105,4.68286 -4.53516,8.13086 -2.39331,4.70449 -4.16756,8.11982 -5.48828,11.12305 -0.66036,1.50161 -1.20714,2.89915 -1.66211,4.30469 -0.45497,1.40553 -0.81795,2.81871 -1.10937,4.34765 -0.58284,3.05789 -0.87891,6.58268 -1.05859,11.45117 -0.17969,4.8685 -0.24227,11.08059 -0.35352,19.51563 l -0.39258,29.75 2.62695,0 c 0.85561,0 1.75462,0.27562 2.6211,0.74805 0.86648,0.47242 1.70023,1.14227 2.42773,1.92578 0.72751,0.7835 1.34843,1.68199 1.78711,2.61523 0.43868,0.93325 0.69532,1.90063 0.69532,2.82227 0,1.55078 -0.66835,7.6721 -1.48438,13.60351 -0.81602,5.93141 -1.92742,17.54173 -2.4707,25.79883 -0.27165,4.12855 -0.69008,8.78047 -1.14649,12.94922 -0.45641,4.16875 -0.9508,7.85433 -1.37109,10.05078 -0.4203,2.19645 -0.80734,5.0369 -1.09375,7.84375 -0.28641,2.80685 -0.47218,5.58008 -0.48633,7.64258 -0.0283,4.125 -0.45819,10.65 -0.95508,14.5 -0.49688,3.85 -1.59563,14.875 -2.44336,24.5 -0.84772,9.625 -2.26852,24.025 -3.15625,32 -0.51323,4.61072 -0.85764,9.53924 -1.03906,14.57226 -0.18142,5.03302 -0.19922,10.171 -0.0605,15.20313 0.13868,5.03213 0.43382,9.95836 0.88086,14.5664 0.44705,4.60805 1.04537,8.89744 1.78907,12.65821 1.02921,5.20456 1.86512,9.95933 2.55664,14.92187 0.69151,4.96255 1.23864,10.13367 1.6914,16.17188 0.45276,6.03821 0.81011,12.94344 1.12305,21.375 0.31294,8.43156 0.58146,18.38865 0.85352,30.53125 0.51805,23.12217 0.85707,43.27081 1.0039,61.08203 0.14683,17.81122 0.10089,33.28543 -0.14648,47.06055 -0.24738,13.77511 -0.69677,25.8514 -1.36133,36.86523 -0.66456,11.01383 -1.54371,20.9648 -2.64844,30.49219 -0.38784,3.34483 -0.66077,9.75858 -0.82617,17.66797 -0.1654,7.90938 -0.22233,17.31481 -0.17969,26.63867 0.0426,9.32385 0.18559,18.56606 0.42188,26.1543 0.23628,7.58823 0.56494,13.52208 0.98047,16.22461 1.85295,12.0513 4.16738,29.40696 6.50976,48.81445 0.51572,4.27292 1.03092,7.87512 1.6543,11.15234 0.62338,3.27722 1.35475,6.22871 2.30664,9.19922 0.95189,2.97052 2.12375,5.96164 3.625,9.31445 1.50124,3.35282 3.33207,7.06808 5.60351,11.49219 2.7251,5.30769 5.45114,10.00059 8.27149,14.17774 1.41017,2.08857 2.84318,4.04776 4.3125,5.89062 1.46932,1.84286 2.97532,3.56964 4.52734,5.19141 1.55202,1.62177 3.15033,3.13915 4.8086,4.56445 1.65827,1.4253 3.37598,2.75828 5.16406,4.01172 1.78807,1.25344 3.64646,2.427 5.58789,3.5332 1.94143,1.10621 3.96564,2.14532 6.08398,3.12891 5.12594,2.38006 7.67593,3.56564 11.9961,5.02539 4.32017,1.45975 10.41051,3.19367 22.61719,6.66992 13.2674,3.77833 21.71496,6.14863 27.42382,7.66406 5.70887,1.51543 8.67903,2.17598 10.99024,2.53321 2.42851,0.37536 7.37851,1.69001 11,2.91992 3.62149,1.2299 8.83594,2.54936 11.58594,2.93359 2.74999,0.38424 8.82499,1.77661 13.5,3.09375 4.675,1.31715 12.1,2.89637 16.5,3.50977 4.39999,0.6134 11.59998,1.75887 16,2.54492 6.52993,1.16656 13.90296,2.27777 20.32226,3.10351 6.4193,0.82575 11.88488,1.36603 14.60156,1.38868 2.79176,0.0233 8.90117,0.65312 13.57618,1.40039 1.58527,0.2534 5.01064,0.47677 9.81835,0.66992 4.80772,0.19315 10.99869,0.35616 18.11524,0.48828 14.23311,0.26424 32.16943,0.40647 50.15625,0.42188 17.98682,0.0154 36.02339,-0.0963 50.45508,-0.33594 7.21584,-0.11985 13.52967,-0.27224 18.48632,-0.45703 4.95666,-0.1848 8.55599,-0.40182 10.33985,-0.65235 5.57059,-0.78234 14.1789,-1.70172 19.12891,-2.04297 4.2845,-0.29536 9.71894,-0.91379 15.30273,-1.71289 5.58379,-0.79909 11.31695,-1.77886 16.19727,-2.79492 2.47499,-0.51528 8.54998,-1.69878 13.5,-2.6289 4.16948,-0.78346 8.78364,-1.98941 13.48242,-3.4668 4.69877,-1.47739 9.48231,-3.22542 13.99023,-5.09766 4.50792,-1.87223 8.74096,-3.86793 12.33789,-5.83593 1.79847,-0.98401 3.43735,-1.9622 4.87305,-2.91407 1.43569,-0.95187 2.66748,-1.87741 3.65039,-2.75976 1.26998,-1.14006 2.30812,-2.26744 3.17773,-3.57813 0.86961,-1.31068 1.5708,-2.80474 2.16407,-4.67773 0.59326,-1.873 1.07859,-4.12419 1.51953,-6.95117 0.44094,-2.82699 0.83736,-6.2297 1.25,-10.40235 0.60998,-6.16827 1.88237,-17.51484 2.82812,-25.21484 0.62054,-5.05227 1.04145,-10.22129 1.29492,-16.29297 0.25348,-6.07168 0.33952,-13.04601 0.29102,-21.70703 -1.07989,-192.81003 -1.70377,-318.93241 -1.93164,-399.79102 -0.11393,-40.4293 -0.1291,-69.54206 -0.0527,-90.01758 0.0764,-20.47551 0.24455,-32.31362 0.49609,-38.1914 0.58216,-13.60349 1.20927,-25.91229 1.89844,-37.125 0.68916,-11.21271 1.44119,-21.32963 2.27343,-30.55078 0.83224,-9.22116 1.74449,-17.54696 2.75586,-25.17578 1.01138,-7.62883 2.12108,-14.56038 3.34766,-20.9961 0.61787,-3.24184 1.09401,-6.73201 1.42773,-10.30469 0.33373,-3.57267 0.5249,-7.22843 0.57032,-10.80273 0.0454,-3.5743 -0.0537,-7.0658 -0.30079,-10.3125 -0.24705,-3.2467 -0.64187,-6.24801 -1.18554,-8.83789 -0.53903,-2.56781 -1.53771,-5.63279 -2.83008,-8.88086 -1.29237,-3.24807 -2.87898,-6.67993 -4.5957,-9.97656 -1.71673,-3.29663 -3.56292,-6.4584 -5.375,-9.17188 -1.81209,-2.71347 -3.58953,-4.97796 -5.16797,-6.47656 -0.60248,-0.57201 -2.55638,-1.76198 -5.21875,-3.21875 -2.66237,-1.45677 -6.03321,-3.180359 -9.4707,-4.818363 -6.875,-3.276 -19.25,-9.300459 -27.5,-13.386719 -4.125,-2.04313 -8.78202,-4.182381 -12.9629,-5.982422 -4.18087,-1.800041 -7.88559,-3.260874 -10.10351,-3.949219 -2.33103,-0.723447 -7.2251,-1.744131 -13.40625,-2.867187 -6.18116,-1.123056 -13.64872,-2.348649 -21.13086,-3.484375 -7.48214,-1.135726 -14.9789,-2.179949 -21.21289,-2.941407 -6.23399,-0.761457 -11.20589,-1.239984 -13.64258,-1.240234 -1.79905,-1.9e-4 -5.44869,-0.28125 -9.88086,-0.734375 -4.43217,-0.453125 -9.64687,-1.078315 -14.57226,-1.765625 -3.97893,-0.555235 -7.30142,-0.989639 -10.47071,-1.328125 -3.16929,-0.338485 -6.18583,-0.580212 -9.55468,-0.753906 -6.73772,-0.347389 -14.88334,-0.417994 -28.47461,-0.417969 z"
       style="color:#000000;clip-rule:nonzero;display:inline;overflow:visible;visibility:visible;opacity:1;isolation:auto;mix-blend-mode:normal;color-interpolation:sRGB;color-interpolation-filters:linearRGB;solid-color:#000000;solid-opacity:1;fill:url(#linearGradient4756);fill-opacity:1;fill-rule:nonzero;stroke:none;stroke-width:1;stroke-linecap:butt;stroke-linejoin:miter;stroke-miterlimit:4;stroke-dasharray:none;stroke-dashoffset:0;stroke-opacity:1;color-rendering:auto;image-rendering:auto;shape-rendering:auto;text-rendering:auto;enable-background:accumulate" />
    <path
       id="path5019"
       d="m 546.88477,41.566406 c -10.1105,-0.0044 -17.76573,-0.0047 -24.0586,0.05273 -6.29287,0.05748 -11.22269,0.173736 -15.88086,0.398437 -4.65816,0.224701 -9.04557,0.557433 -14.25195,1.054688 -5.20638,0.497255 -11.23242,1.158062 -19.16992,2.033203 -7.33733,0.80897 -13.2133,1.478361 -18.37696,2.132812 -5.16365,0.654452 -9.61436,1.29407 -14.10546,2.044922 -8.98222,1.501705 -18.12109,3.447024 -33.41993,6.839844 -19.8116,4.39362 -38.08887,8.675755 -53.27148,12.458984 -7.59131,1.891615 -14.40895,3.658718 -20.25781,5.251953 -5.84886,1.593236 -10.72904,3.013268 -14.44532,4.210938 -2.93211,0.94495 -6.73263,2.030712 -10.49218,3.019531 -3.75956,0.98882 -7.47816,1.880697 -10.25,2.435547 -5.54367,1.10971 -12.06867,2.739034 -14.5,3.621094 -1.21566,0.441025 -4.06774,1.155006 -7.6836,1.951172 -3.61585,0.796165 -7.99549,1.674516 -12.26562,2.441406 -4.27013,0.766885 -8.74434,1.720158 -12.51367,2.636719 -3.76934,0.91656 -6.83381,1.796407 -8.28321,2.419921 -1.98881,0.855563 -3.84965,1.952478 -5.62695,3.345704 -1.7773,1.393229 -3.47183,3.082439 -5.125,5.121089 -1.65317,2.03866 -3.26444,4.42687 -4.88086,7.21875 -1.61642,2.79189 -3.23725,5.98776 -4.9043,9.64062 -2.23912,4.90642 -3.89937,8.4111 -5.1289,11.82813 -0.61477,1.70851 -1.12047,3.39573 -1.53907,5.22461 -0.41859,1.82888 -0.74986,3.80041 -1.00976,6.07813 -0.51981,4.55544 -0.75918,10.33658 -0.86914,18.65821 -0.10997,8.32162 -0.0898,19.18283 -0.0898,33.89842 l 0,51.61719 2.60351,2.42384 c 0.60724,0.56513 1.07138,1.02702 1.41797,1.49609 0.34659,0.46906 0.57568,0.94562 0.71289,1.54102 0.27442,1.19079 0.1813,2.8563 -0.0742,5.88672 -0.30144,3.57499 -1.23125,10.1 -2.06836,14.5 -0.41855,2.19999 -0.80333,5.19747 -1.08594,8.25389 -0.2826,3.05645 -0.46305,6.17184 -0.47265,8.60938 -0.01,2.43753 -0.18279,5.79453 -0.45313,9.23828 -0.27034,3.44375 -0.63782,6.97425 -1.03906,9.76172 -0.73913,5.13493 -1.42104,10.81687 -2.0332,16.86133 -0.61217,6.04447 -1.15368,12.45063 -1.61328,19.03907 -0.45961,6.58843 -0.83769,13.35815 -1.11914,20.125 -0.28146,6.76684 -0.4672,13.53165 -0.54493,20.11133 -0.14974,12.67629 -0.19185,19.62461 0.0957,24.92969 0.14378,2.65253 0.37093,4.89479 0.70703,7.23631 0.33609,2.34153 0.78149,4.78229 1.36523,7.83399 1.19786,6.26218 2.21979,12.93964 3.06641,20.02539 0.84662,7.08574 1.51792,14.57976 2.01172,22.47461 0.25801,4.125 0.98181,36.3 1.60742,71.5 0.28482,16.02547 0.49393,28.32625 0.59766,38.51562 0.10372,10.18938 0.10155,18.26818 -0.0332,25.84572 -0.13475,7.57754 -0.40336,14.65377 -0.83398,22.84375 -0.43063,8.18997 -1.02276,17.49284 -1.80664,29.51953 -0.49198,7.54816 -1.3699,17.14312 -1.95117,21.32226 -0.40887,2.93965 -0.69889,9.32836 -0.87696,17.43164 -0.17807,8.10329 -0.24404,17.92048 -0.20508,27.71875 0.039,9.79828 0.18356,19.57696 0.42579,27.60157 0.24222,8.02461 0.58194,14.29583 1.01367,17.07812 1.18212,7.6182 2.31021,15.46701 3.3457,23.25195 1.03549,7.78494 1.97838,15.50601 2.78906,22.8711 0.52803,4.79709 1.01463,8.78014 1.5293,12.24219 0.51467,3.46204 1.05699,6.40242 1.69727,9.11914 0.64027,2.71671 1.37837,5.20842 2.2832,7.76953 0.90483,2.56111 1.9768,5.19228 3.28515,8.1875 1.51571,3.46991 3.02501,6.74875 4.54297,9.85547 1.51797,3.10671 3.04385,6.04204 4.5918,8.82226 1.54795,2.78022 3.11894,5.40606 4.72461,7.89649 1.60567,2.49042 3.24639,4.84469 4.9375,7.08203 1.69111,2.23733 3.43204,4.35796 5.23633,6.3789 1.80428,2.02095 3.672,3.94195 5.61719,5.78321 1.94518,1.84125 3.96821,3.60251 6.08203,5.30078 2.11381,1.69826 4.31873,3.3338 6.6289,4.92578 1.19021,0.82019 3.21035,1.9125 5.69532,3.12305 2.48496,1.21055 5.43469,2.53951 8.48632,3.83203 3.05164,1.29251 6.20549,2.54915 9.09571,3.61523 2.89022,1.06608 5.51686,1.94141 7.51758,2.47266 3.85,1.02229 11.04999,3.08467 16,4.58398 6.41386,1.9427 12.77857,3.76313 18.98242,5.43164 6.20384,1.66852 12.24683,3.18512 18.01758,4.51953 5.5,1.27181 13.375,3.24727 17.5,4.38868 5.63822,1.56012 12.45224,3.19421 19.82226,4.79297 7.37002,1.59875 15.29638,3.16311 23.16211,4.57812 7.86573,1.41501 15.66958,2.6825 22.79492,3.69141 7.12534,1.0089 13.57184,1.75825 18.72071,2.13867 7.14999,0.52828 15.02499,1.3634 17.5,1.85547 1.23749,0.24603 11.3621,0.47946 26.67773,0.6582 15.31563,0.17874 35.82227,0.30277 57.82227,0.32813 33.10034,0.0381 53.48923,-0.002 66.5332,-0.20508 6.52198,-0.10163 11.20759,-0.24419 14.72851,-0.4375 3.52093,-0.19332 5.87639,-0.43823 7.73829,-0.74414 4.95,-0.81331 11.55871,-1.48043 14.6875,-1.48243 1.46129,-10e-4 3.89465,-0.21113 7.01171,-0.58593 3.11707,-0.37481 6.91743,-0.91355 11.11719,-1.57227 8.39952,-1.31744 18.39176,-3.11356 27.6836,-5.02734 2.89123,-0.59549 6.4257,-1.53098 10.23437,-2.67383 3.80867,-1.14286 7.89237,-2.49276 11.88281,-3.91992 3.99045,-1.42716 7.88767,-2.9305 11.32422,-4.37891 3.43655,-1.44841 6.41161,-2.84222 8.5586,-4.04883 2.81135,-1.57998 5.36384,-3.18614 7.66015,-4.82031 2.29631,-1.63417 4.33584,-3.29614 6.11914,-4.98633 1.78331,-1.69018 3.31164,-3.40821 4.58399,-5.15625 1.27234,-1.74803 2.28931,-3.52627 3.05273,-5.33398 0.47138,-1.11613 0.91717,-2.53059 1.35742,-4.38086 0.44026,-1.85027 0.87551,-4.13538 1.32813,-6.99414 0.90523,-5.71753 1.87815,-13.72737 3.09375,-25.125 0.5423,-5.08463 0.95097,-8.99013 1.2539,-14.59375 0.30294,-5.60363 0.49997,-12.90525 0.62305,-24.7793 0.24617,-23.74809 0.19232,-65.78858 0.0762,-149.12695 -0.0744,-53.40089 -0.22685,-96.17412 -0.4414,-126.27344 -0.21456,-30.09932 -0.49121,-47.52473 -0.81641,-50.22656 -0.3293,-2.73697 -0.5496,-13.58488 -0.65625,-31.63672 -0.10665,-18.05185 -0.0997,-43.30763 0.0273,-74.86328 0.18525,-46.03378 0.47466,-76.9469 1.03516,-99.33203 0.28025,-11.19257 0.62845,-20.25248 1.06445,-28.00586 0.43601,-7.75338 0.9607,-14.19927 1.59375,-20.16211 0.5547,-5.225 1.01735,-12.59274 1.02735,-16.37305 0.005,-2.18087 0.28634,-6.07382 0.74609,-10.90234 0.45976,-4.82852 1.09826,-10.59186 1.82227,-16.51367 0.724,-5.92182 1.53183,-12.00214 2.33007,-17.46289 0.79825,-5.46076 1.58706,-10.3027 2.26954,-13.74805 0.8949,-4.51768 1.39842,-7.75202 1.62304,-11.74024 0.22462,-3.98821 0.17033,-8.7303 -0.0469,-16.25976 -0.14895,-5.16301 -0.32851,-9.33495 -0.625,-12.91211 -0.29649,-3.57717 -0.71009,-6.55914 -1.33008,-9.33984 -0.62,-2.78071 -1.44499,-5.36113 -2.56445,-8.13477 -1.11947,-2.77364 -2.53323,-5.74092 -4.32813,-9.29688 -2.4661,-4.88576 -4.73691,-8.97718 -7.01953,-12.48242 -1.14131,-1.75262 -2.28628,-3.358029 -3.45898,-4.843753 -1.17271,-1.485723 -2.37329,-2.85206 -3.62891,-4.123046 -1.25562,-1.270987 -2.56504,-2.44628 -3.95508,-3.554688 -1.39004,-1.108408 -2.86152,-2.148497 -4.4375,-3.146484 -3.15195,-1.995975 -6.72687,-3.824167 -10.93164,-5.691406 -4.92189,-2.185692 -16.14728,-7.633912 -24.94726,-12.107422 -5.42355,-2.757078 -10.20187,-5.031947 -14.8086,-6.964844 -4.60673,-1.932897 -9.04224,-3.523212 -13.7832,-4.910156 -4.74097,-1.386944 -9.78703,-2.570236 -15.61328,-3.689454 -5.82626,-1.119217 -12.43233,-2.17497 -20.29492,-3.304687 -6.7375,-0.96806 -14.4379,-1.959156 -21.41602,-2.777344 -6.97813,-0.818188 -13.23398,-1.463468 -17.08398,-1.736328 -7.70002,-0.54571 -18.275,-1.657623 -23.5,-2.470703 -3.6105,-0.56184 -8.45052,-0.932199 -16.29297,-1.164062 -7.84246,-0.231864 -18.68734,-0.325232 -34.30664,-0.332032 z m -0.3125,16.982422 c 13.59127,-2.5e-5 21.73689,0.07058 28.47461,0.417969 3.36885,0.173694 6.38539,0.415421 9.55468,0.753906 3.16929,0.338486 6.49178,0.77289 10.47071,1.328125 4.92539,0.68731 10.14009,1.3125 14.57226,1.765625 4.43217,0.453125 8.08181,0.734185 9.88086,0.734375 2.43669,2.5e-4 7.40859,0.478777 13.64258,1.240234 6.23399,0.761458 13.73075,1.805681 21.21289,2.941407 7.48214,1.135726 14.9497,2.361319 21.13086,3.484375 6.18115,1.123056 11.07522,2.14374 13.40625,2.867187 2.21792,0.688345 5.92264,2.149178 10.10351,3.949219 4.18088,1.800041 8.8379,3.939292 12.9629,5.982422 8.25,4.08626 20.625,10.110719 27.5,13.386719 3.43749,1.638004 6.80833,3.361589 9.4707,4.818359 2.66237,1.45677 4.61627,2.64674 5.21875,3.21875 1.57844,1.4986 3.35588,3.76309 5.16797,6.47656 1.81208,2.71348 3.65827,5.87525 5.375,9.17188 1.71672,3.29663 3.30333,6.72849 4.5957,9.97656 1.29237,3.24807 2.29105,6.31305 2.83008,8.88086 0.54367,2.58988 0.93849,5.59119 1.18554,8.83789 0.24706,3.2467 0.3462,6.7382 0.30079,10.3125 -0.0454,3.5743 -0.23659,7.23006 -0.57032,10.80273 -0.33372,3.57268 -0.80986,7.06285 -1.42773,10.30469 -1.22658,6.43572 -2.33628,13.36727 -3.34766,20.9961 -1.01137,7.62882 -1.92362,15.95462 -2.75586,25.17578 -0.83224,9.22115 -1.58427,19.33807 -2.27343,30.55078 -0.68917,11.21271 -1.31628,23.52151 -1.89844,37.125 -0.25154,5.87778 -0.41973,17.71589 -0.49609,38.1914 -0.0764,20.47552 -0.0612,49.58828 0.0527,90.01758 0.22787,80.85861 0.85175,206.98099 1.93164,399.79102 0.0485,8.66102 -0.0375,15.63535 -0.29102,21.70703 -0.25347,6.07168 -0.67438,11.2407 -1.29492,16.29297 -0.94575,7.7 -2.21814,19.04657 -2.82812,25.21484 -0.41264,4.17265 -0.80906,7.57536 -1.25,10.40235 -0.44094,2.82698 -0.92627,5.07817 -1.51953,6.95117 -0.59327,1.87299 -1.29446,3.36705 -2.16407,4.67773 -0.86961,1.31069 -1.90775,2.43807 -3.17773,3.57813 -0.98291,0.88235 -2.2147,1.80789 -3.65039,2.75976 -1.4357,0.95187 -3.07458,1.93006 -4.87305,2.91407 -3.59693,1.968 -7.82997,3.9637 -12.33789,5.83593 -4.50792,1.87224 -9.29146,3.62027 -13.99023,5.09766 -4.69878,1.47739 -9.31294,2.68334 -13.48242,3.4668 -4.95002,0.93012 -11.02501,2.11362 -13.5,2.6289 -4.88032,1.01606 -10.61348,1.99583 -16.19727,2.79492 -5.58379,0.7991 -11.01823,1.41753 -15.30273,1.71289 -4.95001,0.34125 -13.55832,1.26063 -19.12891,2.04297 -1.78386,0.25053 -5.38319,0.46755 -10.33985,0.65235 -4.95665,0.18479 -11.27048,0.33718 -18.48632,0.45703 -14.43169,0.23969 -32.46826,0.35134 -50.45508,0.33594 -17.98682,-0.0154 -35.92314,-0.15764 -50.15625,-0.42188 -7.11655,-0.13212 -13.30752,-0.29513 -18.11524,-0.48828 -4.80771,-0.19315 -8.23308,-0.41652 -9.81835,-0.66992 -4.67501,-0.74727 -10.78442,-1.37709 -13.57618,-1.40039 -2.71668,-0.0226 -8.18226,-0.56293 -14.60156,-1.38868 -6.4193,-0.82574 -13.79233,-1.93695 -20.32226,-3.10351 -4.40002,-0.78605 -11.60001,-1.93152 -16,-2.54492 -4.4,-0.6134 -11.825,-2.19262 -16.5,-3.50977 -4.67501,-1.31714 -10.75001,-2.70951 -13.5,-3.09375 -2.75,-0.38423 -7.96445,-1.70369 -11.58594,-2.93359 -3.62149,-1.22991 -8.57149,-2.54456 -11,-2.91992 -2.31121,-0.35723 -5.28137,-1.01778 -10.99024,-2.53321 -5.70886,-1.51543 -14.15642,-3.88573 -27.42382,-7.66406 -12.20668,-3.47625 -18.29702,-5.21017 -22.61719,-6.66992 -4.32017,-1.45975 -6.87016,-2.64533 -11.9961,-5.02539 -2.11834,-0.98359 -4.14255,-2.0227 -6.08398,-3.12891 -1.94143,-1.1062 -3.79982,-2.27976 -5.58789,-3.5332 -1.78808,-1.25344 -3.50579,-2.58642 -5.16406,-4.01172 -1.65827,-1.4253 -3.25658,-2.94268 -4.8086,-4.56445 -1.55202,-1.62177 -3.05802,-3.34855 -4.52734,-5.19141 -1.46932,-1.84286 -2.90233,-3.80205 -4.3125,-5.89062 -2.82035,-4.17715 -5.54639,-8.87005 -8.27149,-14.17774 -2.27144,-4.42411 -4.10227,-8.13937 -5.60351,-11.49219 -1.50125,-3.35281 -2.67311,-6.34393 -3.625,-9.31445 -0.95189,-2.97051 -1.68326,-5.922 -2.30664,-9.19922 -0.62338,-3.27722 -1.13858,-6.87942 -1.6543,-11.15234 -2.34238,-19.40749 -4.65681,-36.76315 -6.50976,-48.81445 -0.41553,-2.70253 -0.74419,-8.63638 -0.98047,-16.22461 -0.23629,-7.58824 -0.37924,-16.83045 -0.42188,-26.1543 -0.0426,-9.32386 0.0143,-18.72929 0.17969,-26.63867 0.1654,-7.90939 0.43833,-14.32314 0.82617,-17.66797 1.10473,-9.52739 1.98388,-19.47836 2.64844,-30.49219 0.66456,-11.01383 1.11395,-23.09012 1.36133,-36.86523 0.24737,-13.77512 0.29331,-29.24933 0.14648,-47.06055 -0.14683,-17.81122 -0.48585,-37.95986 -1.0039,-61.08203 -0.27206,-12.1426 -0.54058,-22.09969 -0.85352,-30.53125 -0.31294,-8.43156 -0.67029,-15.33679 -1.12305,-21.375 -0.45276,-6.03821 -0.99989,-11.20933 -1.6914,-16.17188 -0.69152,-4.96254 -1.52743,-9.71731 -2.55664,-14.92187 -0.7437,-3.76077 -1.34202,-8.05016 -1.78907,-12.65821 -0.44704,-4.60804 -0.74218,-9.53427 -0.88086,-14.5664 -0.13867,-5.03213 -0.12087,-10.17011 0.0605,-15.20313 0.18142,-5.03302 0.52583,-9.96154 1.03906,-14.57226 0.88773,-7.975 2.30853,-22.375 3.15625,-32 0.84773,-9.625 1.94648,-20.65 2.44336,-24.5 0.49689,-3.85 0.92678,-10.375 0.95508,-14.5 0.0142,-2.0625 0.19992,-4.83573 0.48633,-7.64258 0.28641,-2.80685 0.67345,-5.6473 1.09375,-7.84375 0.42029,-2.19645 0.91468,-5.88203 1.37109,-10.05078 0.45641,-4.16875 0.87484,-8.82067 1.14649,-12.94922 0.54328,-8.2571 1.65468,-19.86742 2.4707,-25.79883 0.81603,-5.93141 1.48438,-12.05273 1.48438,-13.60351 0,-0.92164 -0.25664,-1.88902 -0.69532,-2.82227 -0.43868,-0.93324 -1.0596,-1.83173 -1.78711,-2.61523 -0.7275,-0.78351 -1.56125,-1.45336 -2.42773,-1.92578 -0.86648,-0.47243 -1.76549,-0.74805 -2.6211,-0.74805 l -2.62695,0 0.39258,-29.75 c 0.11125,-8.43504 0.17383,-14.64713 0.35352,-19.51563 0.17968,-4.86849 0.47575,-8.39328 1.05859,-11.45117 0.29142,-1.52894 0.6544,-2.94212 1.10937,-4.34765 0.45497,-1.40554 1.00175,-2.80308 1.66211,-4.30469 1.32072,-3.00323 3.09497,-6.41856 5.48828,-11.12305 1.75411,-3.448 3.13575,-6.07482 4.53516,-8.13086 0.69971,-1.02802 1.40432,-1.91416 2.16211,-2.6875 0.7578,-0.77334 1.56869,-1.43476 2.48242,-2.01562 0.91373,-0.58087 1.93016,-1.08066 3.09766,-1.53125 1.1675,-0.4506 2.48478,-0.85185 4.00391,-1.23438 3.03824,-0.76506 6.87838,-1.45623 11.91015,-2.32226 3.99492,-0.68758 8.51997,-1.58888 12.5918,-2.48633 4.07183,-0.89746 7.69043,-1.79108 9.87305,-2.46485 4.36522,-1.34753 11.08749,-2.97223 14.9375,-3.61132 1.925,-0.31955 4.85546,-1.004389 8.02734,-1.851567 3.17187,-0.847178 6.58516,-1.856696 9.47266,-2.822265 3.57245,-1.194613 8.02146,-2.536189 13.34765,-4.025391 5.32619,-1.489202 11.52936,-3.125839 18.61133,-4.910156 14.16395,-3.568636 31.84171,-7.728219 53.04102,-12.480469 8.35126,-1.872103 14.87593,-3.320323 20.48828,-4.498047 5.61234,-1.177724 10.31235,-2.084396 15.01172,-2.875 4.69936,-0.790604 9.39937,-1.465039 15.01171,-2.175781 5.61235,-0.710742 12.13702,-1.458347 20.48829,-2.396485 16.86872,-1.89495 26.12397,-2.892689 34.79492,-3.416015 4.33547,-0.261663 8.52457,-0.404604 13.44726,-0.482422 4.9227,-0.07782 10.57802,-0.08983 17.84571,-0.08984 z"
       style="color:#000000;clip-rule:nonzero;display:inline;overflow:visible;visibility:visible;opacity:1;isolation:auto;mix-blend-mode:normal;color-interpolation:sRGB;color-interpolation-filters:linearRGB;solid-color:#000000;solid-opacity:1;fill:url(#linearGradient4750);fill-opacity:1;fill-rule:nonzero;stroke:none;stroke-width:1;stroke-linecap:butt;stroke-linejoin:miter;stroke-miterlimit:4;stroke-dasharray:none;stroke-dashoffset:0;stroke-opacity:1;color-rendering:auto;image-rendering:auto;shape-rendering:auto;text-rendering:auto;enable-background:accumulate" />
    <path
       id="path6040"
       d="m 543.98438,424.26367 c -8.59949,0 -11.15501,2.25405 -18.73243,16.53321 -8.86647,16.70832 -16.80033,31.1069 -17.60351,31.94726 -0.55178,0.57732 -50.03453,6.32093 -60.96289,7.07617 l -3.29688,0.22852 -4.46875,-13.30664 c -8.56161,-25.49542 -13.54069,-32.19336 -23.93554,-32.19336 -5.94851,0 -11.54738,3.25631 -14.10547,8.20312 -3.13054,6.05379 -1.80115,13.35728 5.42382,29.79688 1.08773,2.475 2.26905,5.89449 2.625,7.59765 l 0.64649,3.09571 -10.56055,1.30273 c -7.82317,0.96516 -17.62385,1.11483 -37.79687,0.57617 -14.97883,-0.39996 -28.72206,-0.69128 -30.54102,-0.64648 -11.51034,0.28346 -18.33334,14.51731 -11.66406,24.33203 3.44208,5.06547 7.1247,6.72311 17.30859,7.79492 13.20139,1.38939 62.15724,1.06996 72.16407,-0.4707 8.9232,-1.37383 10,-1.28368 10,0.8418 0,0.71864 1.6009,4.50867 3.55859,8.42187 2.63254,5.26213 4.7464,7.96672 8.11523,10.38477 l 4.55469,3.26953 -3.86523,0.6582 c -3.32131,0.56632 -21.51474,1.20655 -26.54688,0.93359 -0.92544,-0.0502 -1.97521,-1.0161 -2.33398,-2.14648 -0.35877,-1.13039 -2.48294,-3.38039 -4.71875,-5 -7.74619,-5.61132 -19.0551,-3.03632 -23.42578,5.33398 -2.45743,4.70623 -2.0527,13.65966 1.47656,32.72071 3.25223,17.56484 5.64698,32.26093 6.62109,40.61914 l 0.59766,5.11719 -4.42578,0.49804 c -8.89493,1.00258 -14.18487,7.80987 -13.40235,17.2461 0.52117,6.28461 3.32581,10.59507 8.48438,13.04297 3.3701,1.59922 6.00121,1.70841 27.26953,1.13085 28.2363,-0.76679 41.70395,-1.3755 48.91602,-2.20898 l 5.375,-0.62109 -0.75782,11.83789 c -0.41636,6.51069 -0.86854,15.43789 -1.00586,19.83789 l -0.25,8 -4.36914,0.27539 c -2.40277,0.15107 -9.31718,0.92684 -15.36718,1.72461 -6.05001,0.79778 -17.525,1.90963 -25.5,2.4707 -7.97501,0.56108 -23.00553,2.3728 -33.4004,4.02539 -20.49969,3.25907 -23.5996,3.52205 -23.5996,2.00977 0,-0.54655 -1.86788,-2.34655 -4.1504,-4 -5.79115,-4.19509 -12.84515,-4.24203 -18.53125,-0.12305 -2.18923,1.58587 -4.54931,4.26118 -5.24609,5.94336 -0.87504,2.11252 -2.18471,3.25966 -4.23047,3.70898 -4.14756,0.91096 -9.6051,6.68068 -10.41797,11.01368 -1.62959,8.68647 1.67609,16.02778 8.58985,19.07812 3.14602,1.38802 4.05667,2.38151 4.40429,4.81055 0.82946,5.79589 2.62304,33.08817 3.0918,47.04687 0.69141,20.58848 2.23728,33.52191 5.62109,47 3.41239,13.5919 6.04069,18.4219 11.41602,20.97266 4.88047,2.31593 12.98668,1.72287 17.16992,-1.25586 6.92055,-4.92787 7.9592,-13.75125 3.3418,-28.38477 -3.31221,-10.49707 -4.70305,-22.15191 -5.58985,-46.8164 -0.32628,-9.075 -1.00726,-20.55 -1.51367,-25.5 -1.12398,-10.98648 -1.21331,-19.49895 -0.20507,-19.50195 0.41249,-10e-4 10.875,-1.5871 23.25,-3.5254 12.375,-1.9383 28.8,-3.97409 36.5,-4.52343 12.96754,-0.92514 21.78827,-1.85152 33.75,-3.54688 4.50953,-0.63915 4.75349,-0.5542 4.85351,1.71094 0.38236,8.6599 0.30782,33.21874 -0.10351,33.87891 -1.2034,1.93133 -36.50099,10.00781 -43.73829,10.00781 -2.80723,0 -9.07014,4.72801 -10.86718,8.20312 -2.08506,4.03205 -2.08506,11.56366 0,15.59571 2.63032,5.08649 8.13408,8.20117 14.49023,8.20117 9.44988,0 33.62858,-5.01346 50.61914,-10.4961 3.85222,-1.24306 9.70222,-2.80286 13,-3.46679 3.29779,-0.66394 9.5961,-2.2627 13.9961,-3.55274 12.02974,-3.52699 35.72582,-8.29386 47,-9.45508 18.63613,-1.91949 18.17246,-1.93604 22.14257,0.76172 2.01467,1.369 5.6085,2.70856 7.98633,2.97657 4.00731,0.45168 4.54331,0.87611 7.32813,5.81054 4.02768,7.13667 8.95343,10.42188 15.62695,10.42188 3.66341,0 6.06034,-0.6401 8.42578,-2.25 5.62243,-3.82659 7.45508,-7.16077 7.45508,-13.55274 0,-5.3364 -0.57199,-6.7072 -8.98242,-21.51562 -9.2418,-16.27225 -19.07415,-29.62674 -25.82618,-35.07813 -3.43656,-2.77459 -4.5466,-3.10351 -10.5,-3.10351 -5.28504,0 -7.30095,0.45986 -9.7832,2.23047 -4.52966,3.23103 -6.69254,8.42022 -6.16406,14.79297 l 0.43555,5.24609 -8.57227,0.69726 c -12.86489,1.04711 -47.21217,7.26582 -50.14453,9.07813 -1.2811,0.79178 -1.50459,-1.80264 -1.38086,-16.04102 l 0.12305,-13.99804 3.91406,-0.69922 c 2.15326,-0.38524 11.34102,-1.18599 20.41602,-1.7793 16.64468,-1.08821 33.12653,-2.85197 51.5,-5.51172 5.5,-0.79619 14.95,-1.71504 21,-2.04101 6.04999,-0.32597 15.5,-1.33353 21,-2.23828 10.22606,-1.68221 44.13867,-2.19584 46.55078,-0.70508 1.87007,1.15577 0.3791,5.68736 -5.13672,15.62109 -8.79547,15.8402 -10.84666,24.32535 -11.32813,46.84766 -0.592,27.69313 1.58187,39.26266 11.52735,61.36523 2.19402,4.87594 3.74994,9.10356 3.45898,9.39453 -1.50881,1.5088 -28.08946,-12.10836 -46.07226,-23.60156 -3.85001,-2.46062 -10.82501,-6.46744 -15.5,-8.9043 -7.66363,-3.99469 -9.04863,-4.39134 -14.06641,-4.04101 -10.01256,0.69905 -15.56291,7.20594 -14.72852,17.26758 0.61428,7.40742 3.19163,10.38486 13.9961,16.17968 5.11389,2.74277 14.65449,8.27209 21.20117,12.28711 25.89153,15.87903 41.44336,22.66402 54.93164,23.96289 12.30639,1.18505 21.48057,0.27874 27.66602,-2.73242 7.9036,-3.84759 10,-7.44312 10,-17.15039 0,-9.56789 -2.93427,-18.43289 -15.13086,-45.73047 -3.42796,-7.67225 -4.99304,-18.04623 -5.02344,-33.29687 -0.0159,-7.975 0.48918,-16.75 1.12109,-19.5 0.63191,-2.75 4.2306,-11.3 7.99805,-19 7.64579,-15.62663 9.03516,-20.27678 9.03516,-30.26367 0,-9.13631 -2.33126,-15.62032 -7.46094,-20.75 -6.39264,-6.39264 -13.63474,-9.46274 -24.6836,-10.4668 -14.30816,-1.30026 -42.90924,-0.66904 -54.85546,1.21094 -5.77501,0.90881 -17.2913,2.13796 -25.5918,2.73242 -8.30049,0.59446 -17.75049,1.49581 -21,2.00195 -18.3774,2.86241 -31.39185,4.18454 -54.4082,5.52735 l -10.5,0.61328 1,-18.71485 1,-18.71289 27.66796,-0.0898 27.66797,-0.0879 4.38477,-3.08985 c 2.41165,-1.6999 6.32157,-3.40096 8.6875,-3.77929 9.6946,-1.55023 15.08614,-7.34887 17.08789,-18.37305 0.88368,-4.86665 3.60679,-11.53803 9.72656,-23.83398 8.44025,-16.95834 8.49805,-17.12721 8.49805,-24.73828 0,-14.70785 -5.77006,-21.20752 -23.99219,-27.02149 -13.3027,-4.24437 -26.04334,-5.93063 -45.82617,-6.0625 l -15.30469,-0.10156 2.85938,-3 c 3.10075,-3.25348 13.35156,-18.81609 17.17187,-26.07031 1.32647,-2.51877 3.25196,-4.68664 4.3711,-4.92188 1.1,-0.23122 13.7,-0.96672 28,-1.63476 33.99485,-1.58811 83.25584,-1.60832 86.19531,-0.0352 1.19457,0.63931 4.46927,1.16211 7.27734,1.16211 19.33159,0 24.94988,-23.20756 7.78906,-32.17383 -4.18522,-2.18676 -4.95855,-2.22864 -42.26171,-2.27734 -20.9,-0.0273 -45.35224,0.34102 -54.3379,0.81836 l -16.33789,0.86914 3.13086,-5.36914 c 7.10726,-12.18211 10.33008,-20.11221 10.33008,-25.42579 0,-9.6484 -6.10062,-15.72656 -15.78515,-15.72656 z m -58.8086,84.4336 c 0.83157,0.0755 1.3086,0.26743 1.3086,0.56445 0,0.54502 -2.71143,4.0624 -6.0254,7.8164 -6.65639,7.54024 -7.42986,9.39627 -6.76953,16.2754 l 0.45117,4.69531 -11.63867,0.0254 -11.63672,0.0254 2.78907,-2.34766 c 5.37953,-4.52658 6.04823,-15.41313 1.29297,-21.06445 l -2.34961,-2.79102 12.19336,-1.2539 c 6.70598,-0.68944 14.33085,-1.50478 16.94336,-1.8125 1.42373,-0.1677 2.60984,-0.20834 3.4414,-0.13281 z m 32.5586,61.16211 c 0.9625,-0.25153 2.5375,-0.25153 3.5,0 0.9625,0.25153 0.17499,0.45703 -1.75,0.45703 -1.925,0 -2.7125,-0.2055 -1.75,-0.45703 z m 10.77343,1.03124 c 0.9823,0.003 2.67735,0.0963 4.97071,0.23438 10.37228,0.62459 22.2475,3.19303 21.74414,4.70312 -0.39845,1.19534 -2.1023,2.01366 -2.80078,1.34376 -0.24064,-0.23077 -4.9375,-1.41371 -10.4375,-2.62696 -12.95612,-2.85799 -16.42347,-3.66311 -13.47657,-3.6543 z m -40.02343,30.36719 14.75,0.58203 c 11.04834,0.43592 17.25959,1.22362 24.75,3.13477 5.5,1.40331 10.83858,2.5565 11.86523,2.5625 1.44603,0.009 1.73077,0.51871 1.26367,2.26172 -0.33164,1.2375 -0.60823,2.475 -0.61523,2.75 -0.015,0.55067 -48.588,0.70382 -51.40625,0.16211 -1.08862,-0.20925 -1.53719,-0.90548 -1.18164,-1.83203 0.31539,-0.82188 0.57422,-3.32173 0.57422,-5.55664 l 0,-4.06446 z m -36.86719,0.83594 c 2.29311,-0.0411 3.80842,0.0334 3.99414,0.23242 0.37143,0.39803 0.44044,3.06136 0.15234,5.91992 -0.59178,5.8718 -0.38603,5.75892 -12.27929,6.77344 -3.575,0.30495 -11.78751,0.77729 -18.25,1.04883 l -11.75,0.49219 0,-5.91602 0,-5.91601 8.75,-0.61329 c 4.8125,-0.33719 14.13763,-1.03978 20.7246,-1.5625 3.29349,-0.26135 6.3651,-0.41789 8.65821,-0.45898 z"
       style="fill:url(#linearGradient4706)" />
    <path
       id="path6038"
       d="m 415.48438,130.56836 c -6.6168,-0.0153 -10.72806,2.18569 -14.01368,7.50195 -1.95302,3.16005 -2.28254,4.96618 -2.16406,11.85352 0.0769,4.46879 0.8774,11.95 1.78125,16.625 1.06533,5.51026 1.81431,16.07791 2.12695,30.04492 l 0.48243,21.54492 -16.85743,5.17969 c -9.27117,2.84858 -20.65254,6.12137 -25.29296,7.27344 -11.10071,2.75594 -47.66694,16.05532 -56.5586,20.57031 -13.39015,6.79923 -24.19951,15.06786 -27.20508,20.81055 -1.99989,3.82121 -1.95289,11.41345 0.0957,15.375 2.58145,4.99199 8.14939,8.20117 14.22656,8.20117 4.52768,0 5.89215,-0.53999 11.16797,-4.42383 17.24459,-12.69474 36.49696,-20.72858 74.21094,-30.9668 9.075,-2.46359 18.45551,-5.17819 20.8457,-6.0332 l 4.3457,-1.55469 -0.60351,5.23828 c -1.32058,11.48175 -1.82464,79.86006 -0.63477,86.09766 3.7416,19.6145 7.86224,32.0842 13.63672,41.26563 6.08371,9.6731 12.68672,14.64245 25.91016,19.5039 4.30734,1.58352 7.4243,1.79202 22.5,1.49414 15.32388,-0.30277 18.49966,-0.66039 25.54882,-2.87109 4.42761,-1.38856 13.14309,-3.49865 19.36719,-4.68945 6.2241,-1.1908 14.30093,-3.2924 17.94922,-4.66993 7.71219,-2.91198 34.91396,-9.42183 53.63477,-12.83593 19.17901,-3.49766 42.56867,-9.26509 51.66406,-12.73829 6.54413,-2.49897 8.52265,-3.78274 10.91406,-7.08398 3.92287,-5.41536 4.083,-12.55803 0.40234,-17.97461 -4.91228,-7.22908 -10.4085,-8.47346 -22.84179,-5.16797 -19.75882,5.25304 -38.09119,9.5217 -48.85938,11.37695 -14.84196,2.55715 -47.69595,10.33702 -55.27929,13.08985 -3.3,1.19793 -11.625,3.44765 -18.5,4.99805 -6.875,1.5504 -16.325,3.73547 -21,4.85742 -4.675,1.12196 -11.875,2.04197 -16,2.04297 -14.58884,0.004 -19.13513,-4.55695 -24.37891,-24.45118 -2.72409,-10.33484 -2.9308,-12.49459 -3.38281,-35.5039 -0.356,-18.12246 -0.0103,-30.66584 1.32422,-48.18945 l 1.80273,-23.69141 7.56641,-1.5957 c 4.16165,-0.87751 16.11836,-4.01522 26.56836,-6.97266 10.44999,-2.95743 24.39999,-6.52095 31,-7.91992 6.6,-1.39896 17.17499,-3.91344 23.5,-5.58789 6.325,-1.67445 18.475,-3.96446 27,-5.08789 8.52499,-1.12344 19.54999,-2.72332 24.5,-3.55469 4.95,-0.83138 12.94927,-2.17429 17.77734,-2.98633 4.82807,-0.81203 15.85307,-1.60042 24.5,-1.75195 12.49443,-0.21897 16.3833,-0.62654 18.94336,-1.98047 8.06541,-4.2655 10.86086,-15.41814 5.75,-22.93945 -4.62331,-6.80381 -6.45865,-7.2605 -28.4707,-7.09766 -13.19583,0.0976 -22.40963,0.67489 -28.5,1.78711 -15.36186,2.80535 -31.57313,5.32222 -42,6.51953 -11.42371,1.31178 -64.85528,13.70872 -84.5,19.60547 -4.67501,1.40329 -11.98751,3.37084 -16.25,4.37109 l -7.75,1.81836 0,-17 c 0,-10.96154 -0.56628,-20.31179 -1.5918,-26.32812 -1.18143,-6.93099 -1.33896,-10.50766 -0.61328,-13.91016 2.54545,-11.93484 -5.34106,-21.45948 -17.79492,-21.48828 z m 256.26757,248.50391 0,0 z"
       style="fill:#000000" />
  </g>
</svg>
