<?xml version="1.0" encoding="UTF-8" standalone="no"?>
<svg
   xmlns:osb="http://www.openswatchbook.org/uri/2009/osb"
   xmlns:dc="http://purl.org/dc/elements/1.1/"
   xmlns:cc="http://creativecommons.org/ns#"
   xmlns:rdf="http://www.w3.org/1999/02/22-rdf-syntax-ns#"
   xmlns:svg="http://www.w3.org/2000/svg"
   xmlns="http://www.w3.org/2000/svg"
   xmlns:xlink="http://www.w3.org/1999/xlink"
   version="1.1"
   id="svg2985"
   height="883.66827"
   width="605.64673">
  <defs
     id="defs5498">
    <linearGradient
       osb:paint="solid"
       id="linearGradient4756">
      <stop
         id="stop4758"
         offset="0"
         style="stop-color:#ffffff;stop-opacity:1;" />
    </linearGradient>
    <linearGradient
       osb:paint="solid"
       id="linearGradient4750">
      <stop
         id="stop4752"
         offset="0"
         style="stop-color:#000000;stop-opacity:1;" />
    </linearGradient>
    <linearGradient
       osb:paint="solid"
       id="linearGradient5694">
      <stop
         id="stop5696"
         offset="0"
         style="stop-color:#002b11;stop-opacity:1;" />
    </linearGradient>
    <linearGradient
       osb:paint="solid"
       id="linearGradient4712">
      <stop
         id="stop4714"
         offset="0"
         style="stop-color:#162d50;stop-opacity:1;" />
    </linearGradient>
    <linearGradient
       osb:paint="solid"
       id="linearGradient4706">
      <stop
         id="stop4708"
         offset="0"
         style="stop-color:#d40000;stop-opacity:1;" />
    </linearGradient>
    <linearGradient
       gradientUnits="userSpaceOnUse"
       y2="508.69208"
       x2="761.44257"
       y1="508.69208"
       x1="262.13925"
       id="linearGradient4716"
       xlink:href="#linearGradient4712" />
    <linearGradient
       gradientUnits="userSpaceOnUse"
       y2="500.0004"
       x2="771.30902"
       y1="500.0004"
       x1="228.69211"
       id="linearGradient4754"
       xlink:href="#linearGradient4750" />
    <linearGradient
       gradientUnits="userSpaceOnUse"
       y2="500.10483"
       x2="752.40271"
       y1="500.10483"
       x1="248.61133"
       id="linearGradient4760"
       xlink:href="#linearGradient4756" />
    <linearGradient
       y2="508.69208"
       x2="761.44257"
       y1="508.69208"
       x1="262.13925"
       gradientUnits="userSpaceOnUse"
       id="linearGradient501"
       xlink:href="#linearGradient4712" />
    <linearGradient
       y2="508.69208"
       x2="761.44257"
       y1="508.69208"
       x1="262.13925"
       gradientUnits="userSpaceOnUse"
       id="linearGradient503"
       xlink:href="#linearGradient4712" />
    <linearGradient
       y2="508.69208"
       x2="761.44257"
       y1="508.69208"
       x1="262.13925"
       gradientUnits="userSpaceOnUse"
       id="linearGradient505"
       xlink:href="#linearGradient4712" />
  </defs>
  <metadata
     id="metadata5594">
    <rdf:RDF>
      <cc:Work
         rdf:about="">
        <dc:format>image/svg+xml</dc:format>
        <dc:type
           rdf:resource="http://purl.org/dc/dcmitype/StillImage" />
        <dc:title />
      </cc:Work>
    </rdf:RDF>
  </metadata>
  <g
     transform="translate(-197.17721,-58.165746)"
     style="display:inline"
     id="layer28">
    <path
       id="path5002"
       d="m 508.43555,75.449219 c -14.93197,0.05259 -29.45417,0.360508 -42.47266,0.955078 -5.53327,0.252712 -12.70068,0.833392 -20.51953,1.613281 -7.81885,0.779889 -16.28987,1.759303 -24.43164,2.8125 -8.14177,1.053197 -15.95304,2.179316 -22.45508,3.251953 -6.50204,1.072638 -11.6941,2.091478 -14.59375,2.929688 -3.575,1.03344 -12.08116,2.815054 -18.90234,3.958984 -3.38795,0.568168 -6.56062,1.177632 -9.61914,1.855469 -3.05852,0.677837 -6.00212,1.424841 -8.92969,2.269531 -2.92758,0.84469 -5.84083,1.786743 -8.83594,2.855469 -2.99511,1.068726 -6.07286,2.263338 -9.33398,3.613278 -5.79297,2.39801 -12.6319,5.59423 -19.15039,8.89649 -6.5185,3.30226 -12.71654,6.71057 -17.22852,9.5332 -4.125,2.58054 -11.25536,6.90869 -15.8457,9.61914 -3.37251,1.99136 -6.79363,4.38583 -10.15625,7.07422 -3.36262,2.68839 -6.66721,5.66986 -9.80274,8.83594 -3.13552,3.16608 -6.10369,6.51696 -8.79492,9.9414 -2.69123,3.42444 -5.10504,6.92326 -7.13476,10.38672 -1.62533,2.77341 -3.29867,6.50145 -4.91211,10.79688 -1.61344,4.29542 -3.1671,9.15886 -4.55469,14.19922 -1.3876,5.04035 -2.60885,10.25742 -3.55664,15.26562 -0.94779,5.0082 -1.62199,9.8069 -1.91602,14.00586 -0.16517,2.35883 -0.18704,6.35156 -0.0879,10.88281 0.0992,4.53125 0.31933,9.60102 0.63477,14.11719 0.63086,9.03234 1.61769,23.17188 2.19336,31.42188 0.28783,4.125 0.71268,8.62793 1.16406,12.56054 0.45138,3.93262 0.9293,7.29493 1.32617,9.13672 0.47422,2.20072 0.82599,4.15762 1.04883,6.20117 0.22283,2.04356 0.31591,4.17406 0.27734,6.71875 -0.0386,2.5447 -0.20954,5.50485 -0.51953,9.20899 -0.30999,3.70413 -0.75818,8.15195 -1.34961,13.67383 -0.45467,4.24504 -0.8067,7.9762 -1.07812,12.44726 -0.27143,4.47106 -0.46248,9.68289 -0.59766,16.88867 -0.27035,14.41157 -0.31496,36.80042 -0.32226,77.20313 -0.007,35.91249 -0.0781,58.4734 -0.30079,73.27539 -0.11133,7.401 -0.26017,12.8609 -0.45703,17.08203 -0.19686,4.22113 -0.44271,7.20281 -0.74609,9.64258 -0.40906,3.28954 -0.84019,8.64309 -1.20508,14.61719 -0.36489,5.97409 -0.66353,12.56875 -0.80859,18.34375 -0.29014,11.55 -0.98867,26.625 -1.55274,33.5 -0.56408,6.875 -1.40959,26.45 -1.87695,43.5 -0.29571,10.78804 -0.71944,20.55134 -1.3125,29.92382 -0.59306,9.37248 -1.35545,18.35414 -2.32617,27.57618 -1.32429,12.58101 -2.00552,19.40682 -2.21289,24.97656 -0.10369,2.78487 -0.0891,5.25551 0.0234,7.97461 0.11258,2.7191 0.32253,5.68682 0.60938,9.46484 0.66463,8.75362 1.86104,19.77862 2.66016,24.5 0.79913,4.72137 1.9046,13.98399 2.45507,20.58399 0.35539,4.26093 0.9931,8.65329 1.86915,13.03906 0.87604,4.38577 1.99083,8.76519 3.30273,13.00195 1.3119,4.23676 2.81945,8.33062 4.48242,12.14453 1.66297,3.81391 3.48092,7.34762 5.41016,10.46485 2.16138,3.49232 6.00333,10.21253 8.53906,14.93359 1.53209,2.85247 3.06746,5.49769 4.5918,7.91797 1.52434,2.42028 3.03672,4.61551 4.52343,6.56445 1.48672,1.94895 2.94798,3.65333 4.36719,5.0918 1.41921,1.43847 2.7973,2.61114 4.11914,3.5 1.5397,1.03535 3.41792,2.14902 5.45899,3.25976 2.04106,1.11075 4.24581,2.21861 6.43554,3.24024 2.18974,1.02162 4.36393,1.95662 6.34961,2.72461 1.98569,0.76798 3.78202,1.36893 5.21094,1.71875 2.68139,0.65644 6.55275,2.03262 8.60352,3.05664 2.05077,1.02402 6.55077,2.51831 10,3.32226 3.44923,0.80395 10.32148,2.83765 15.27148,4.51954 2.475,0.84095 5.80979,1.76934 9.18945,2.58789 3.37966,0.81854 6.80419,1.52725 9.45704,1.92773 5.30567,0.80097 10.93065,1.95882 12.5,2.57422 1.10201,0.43215 3.24233,0.95141 6.05859,1.50391 2.81626,0.5525 6.3084,1.13808 10.11328,1.70312 7.60976,1.13008 16.47118,2.17758 23.68164,2.71094 7.15,0.52889 16.375,1.59952 20.5,2.38086 3.44475,0.65249 6.79031,1.17492 12.22656,1.83008 5.43626,0.65515 12.96322,1.44305 24.77344,2.6289 3.11244,0.31252 12.72719,0.55322 25.62305,0.71875 12.89585,0.16554 29.0736,0.25625 45.3125,0.26953 16.23889,0.0133 32.53812,-0.0511 45.67968,-0.19531 13.14157,-0.14425 23.12467,-0.36874 26.72852,-0.67578 12.35548,-1.05268 22.33112,-1.95303 30.60547,-2.80469 8.27435,-0.85166 14.84829,-1.65468 20.39648,-2.51562 5.54819,-0.86094 10.07106,-1.77886 14.24805,-2.85938 4.17699,-1.08051 8.00722,-2.32359 12.16797,-3.83398 2.95625,-1.07316 6.44905,-2.54209 10.1582,-4.24219 3.70916,-1.7001 7.63529,-3.6309 11.45899,-5.625 3.82369,-1.9941 7.54389,-4.05266 10.84375,-6.00781 3.29985,-1.95516 6.17875,-3.80736 8.3164,-5.39063 2.15505,-1.59614 4.5766,-3.63114 7.03907,-5.87109 2.46246,-2.23995 4.96568,-4.68488 7.2832,-7.09766 2.31752,-2.41278 4.4497,-4.79357 6.16992,-6.9082 1.72023,-2.11463 3.02864,-3.96308 3.69922,-5.30859 1.08242,-2.17189 2.08564,-4.55211 3.00976,-7.14844 0.92413,-2.59633 1.77014,-5.4081 2.53907,-8.44141 0.76893,-3.03331 1.45934,-6.28866 2.07617,-9.77148 0.61683,-3.48283 1.15913,-7.19381 1.62695,-11.13867 0.6196,-5.225 1.38799,-10.85 1.70899,-12.5 0.321,-1.65 0.92911,-18.975 1.34961,-38.5 0.6102,-28.33142 1.29421,-53.68886 1.97656,-73.78516 0.68235,-20.0963 1.36304,-34.93147 1.96289,-42.21484 0.6116,-7.425 1.55576,-21.6 2.09766,-31.5 1.11165,-20.30963 1.84738,-33.14622 2.42578,-41.77735 0.5784,-8.63113 0.99947,-13.0568 1.48242,-16.54492 0.5576,-4.0273 1.01653,-11.0023 1.01953,-15.5 0,-2.24885 0.10917,-4.68614 0.28516,-6.80273 0.17598,-2.1166 0.41879,-3.9125 0.68359,-4.875 0.5297,-1.925 1.66228,-11.825 2.51758,-22 0.8553,-10.175 1.97518,-20.525 2.48828,-23 0.5131,-2.475 0.95266,-6.83008 0.97656,-9.67969 0.012,-1.4248 0.82018,-7.42461 2.11328,-15.94336 1.29311,-8.51875 3.07114,-19.55644 5.02149,-31.05664 1.9504,-11.5002 3.81915,-23.08013 5.25781,-32.47266 1.43866,-9.39253 2.44724,-16.59765 2.67969,-19.34765 0.4648,-5.5 1.85002,-15.4 3.07812,-22 0.51393,-2.76197 0.91133,-5.08609 1.21875,-7.58008 0.30743,-2.494 0.52565,-5.15725 0.68164,-8.59766 0.31199,-6.88082 0.37541,-16.86948 0.41211,-34.82226 0.025,-12.13574 -0.0736,-23.11361 -0.27539,-32.06836 -0.20183,-8.95476 -0.50693,-15.8864 -0.89648,-19.93164 -0.6885,-7.15 -1.95486,-21.325 -2.81446,-31.5 -0.77465,-9.16973 -1.63067,-17.34063 -2.60351,-24.6836 -0.97285,-7.34296 -2.06332,-13.85836 -3.30664,-19.71484 -1.24332,-5.85648 -2.63854,-11.05535 -4.22461,-15.76563 -0.79304,-2.35514 -1.63312,-4.58636 -2.52539,-6.71875 -0.89228,-2.13239 -1.83734,-4.16501 -2.83789,-6.11718 -2.63758,-5.14623 -5.70356,-10.48945 -8.97266,-15.72266 -3.2691,-5.23322 -6.7418,-10.35551 -10.1914,-15.06055 -3.44961,-4.70503 -6.8756,-8.993 -10.05469,-12.55469 -1.58955,-1.78084 -3.11734,-3.3801 -4.55469,-4.75976 -1.43735,-1.37966 -2.7849,-2.53982 -4.01367,-3.44141 -1.41274,-1.03657 -3.09782,-2.11901 -4.99805,-3.22461 -1.90023,-1.10559 -4.01654,-2.23482 -6.29101,-3.36523 -4.54895,-2.26082 -9.73127,-4.526267 -15.09766,-6.621094 -5.36639,-2.094827 -10.91555,-4.018581 -16.19336,-5.59375 -5.27781,-1.57517 -10.28516,-2.802062 -14.56836,-3.503907 -3.575,-0.58579 -9.84384,-1.983431 -13.93164,-3.107421 -2.0439,-0.562 -4.54151,-1.072629 -6.91797,-1.44336 -2.37646,-0.37073 -4.63176,-0.601562 -6.19336,-0.601562 -1.56155,0 -4.4313,-0.228851 -7.79687,-0.597657 -3.36558,-0.368805 -7.22699,-0.877565 -10.77149,-1.4375 -5.65914,-0.893985 -12.93279,-1.697553 -21.36133,-2.398437 -8.42853,-0.700884 -18.01213,-1.298352 -28.28711,-1.779297 -10.27497,-0.480945 -21.24295,-0.84591 -32.4414,-1.080078 -11.19845,-0.234169 -22.6272,-0.338274 -33.82617,-0.298828 z"
       style="color:#000000;clip-rule:nonzero;display:inline;overflow:visible;visibility:visible;opacity:1;isolation:auto;mix-blend-mode:normal;color-interpolation:sRGB;color-interpolation-filters:linearRGB;solid-color:#000000;solid-opacity:1;fill:url(#linearGradient4756);fill-opacity:1;fill-rule:nonzero;stroke:none;stroke-width:1;stroke-linecap:butt;stroke-linejoin:miter;stroke-miterlimit:4;stroke-dasharray:none;stroke-dashoffset:0;stroke-opacity:1;color-rendering:auto;image-rendering:auto;shape-rendering:auto;text-rendering:auto;enable-background:accumulate" />
    <path
       id="path5000"
       d="m 553.48828,58.224609 c -12.1775,-0.107947 -27.94729,-0.06611 -48.02539,0.119141 -25.92038,0.239155 -40.83098,0.429666 -50.99414,0.798828 -5.08158,0.184581 -8.97683,0.414411 -12.4668,0.716797 -3.48997,0.302386 -6.57556,0.677237 -10.03906,1.154297 -18.26746,2.516155 -30.82825,4.31685 -39.30273,5.658203 -8.47449,1.341353 -12.86268,2.223364 -14.78711,2.902344 -2.25286,0.79486 -9.56758,2.35277 -16.25391,3.46289 -3.44922,0.57267 -6.82695,1.220598 -10.16602,1.955079 -3.33906,0.73448 -6.63881,1.555146 -9.92968,2.476562 -3.29087,0.921416 -6.57428,1.942695 -9.87891,3.076172 -3.30463,1.133477 -6.63137,2.379337 -10.01172,3.75 -3.38035,1.370662 -6.814,2.867026 -10.33203,4.5 -3.51803,1.632973 -7.12023,3.401856 -10.83789,5.322266 -7.43533,3.840819 -15.33187,8.282512 -23.9375,13.423832 -8.99217,5.37225 -14.12992,8.49565 -17.83398,11.01367 -1.85203,1.25901 -3.34605,2.36727 -4.78321,3.52929 -1.43715,1.16203 -2.81826,2.37744 -4.44531,3.85352 -3.38011,3.06648 -6.66652,6.38813 -9.76953,9.83984 -3.10301,3.45172 -6.02208,7.0331 -8.66602,10.62305 -2.64393,3.58995 -5.01273,7.18676 -7.01562,10.66797 -2.0029,3.4812 -3.64043,6.84719 -4.82031,9.97266 -2.47834,6.56502 -4.02457,10.88407 -5.27344,15.09375 -1.24887,4.20967 -2.20039,8.30995 -3.48828,14.4375 l -2.72657,12.96875 0.79493,28.5 c 0.43699,15.675 0.87019,34.575 0.96289,42 0.0464,3.7125 0.2176,7.5371 0.45508,10.70898 0.23747,3.17188 0.54116,5.69102 0.85546,6.79102 0.3143,1.1 0.60268,2.69807 0.81446,4.38671 0.21178,1.68865 0.34696,3.46786 0.35351,4.92969 0.007,1.46183 0.11644,2.98375 0.28711,4.25781 0.17067,1.27407 0.40212,2.30028 0.6543,2.77149 0.2818,0.52654 0.41151,1.57894 0.39258,2.99609 -0.0189,1.41715 -0.1865,3.19906 -0.50196,5.1875 -0.30564,1.9265 -0.63531,13.50592 -0.94336,31.93555 -0.30804,18.42963 -0.59447,43.70946 -0.81054,73.03516 -0.23108,31.36104 -0.51873,57.03101 -0.8418,75.77539 -0.32307,18.74438 -0.68154,30.56317 -1.05469,34.22461 -0.67241,6.59797 -1.22298,12.47081 -1.71289,18.83984 -0.4899,6.36903 -0.92001,13.23342 -1.34961,21.81445 -0.85919,17.16207 -1.7191,41.18994 -3.07031,81.84571 -0.40214,12.1 -1.22869,25.825 -1.83594,30.5 -1.57318,12.11139 -2.6728,22.34177 -3.31054,30.85546 -0.31888,4.25685 -0.52161,8.08462 -0.61133,11.50391 -0.0897,3.41929 -0.066,6.42976 0.0703,9.05273 0.43375,8.34731 1.03193,16.71831 1.66602,23.70313 0.63408,6.98482 1.30408,12.58344 1.88281,15.38477 0.56813,2.75 1.52613,10.79007 2.12891,17.86523 0.42542,4.99336 1.19832,10.14552 2.27343,15.31836 1.07512,5.17284 2.45295,10.36591 4.08789,15.43945 1.63495,5.07355 3.52596,10.02914 5.63086,14.72461 2.10491,4.69548 4.42321,9.1313 6.90821,13.16992 1.60162,2.60296 4.58955,7.82628 6.64062,11.60743 1.69263,3.12036 3.3167,5.9431 4.89844,8.5039 1.58174,2.56081 3.12035,4.86054 4.64258,6.93164 1.52222,2.0711 3.02887,3.9132 4.54297,5.56446 1.51409,1.65126 3.03641,3.11083 4.59375,4.4121 1.70328,1.42324 3.95998,3.0082 6.51757,4.62305 2.5576,1.61486 5.41513,3.25964 8.32227,4.79883 2.90714,1.53919 5.8633,2.97368 8.61523,4.16992 2.75194,1.19625 5.30061,2.15422 7.39258,2.74024 2.97959,0.83466 9.69297,2.92386 14.91797,4.64453 12.33243,4.06125 20.10763,6.54372 25.78711,8.14062 2.83974,0.79845 5.15627,1.3766 7.25586,1.81836 2.09959,0.44176 3.98221,0.74787 5.95703,1.00586 4.675,0.61075 10.54515,1.77057 13.04492,2.57813 1.59444,0.51509 4.58775,1.1763 8.29102,1.87695 3.70326,0.70064 8.11696,1.44054 12.55469,2.11719 4.43772,0.67664 8.89944,1.28932 12.69726,1.73242 3.79783,0.4431 6.93129,0.7168 8.71484,0.7168 1.63242,0 4.93015,0.29008 8.92969,0.75781 3.99954,0.46772 8.70088,1.11309 13.13672,1.82226 8.87168,1.41836 20.85586,2.92843 26.63086,3.35547 3.77719,0.27931 15.38597,0.49148 30.86914,0.63477 15.48317,0.14329 34.84153,0.2175 54.11719,0.22265 19.27566,0.005 38.46838,-0.0583 53.62305,-0.19336 15.15466,-0.13509 26.27045,-0.34167 29.39062,-0.61914 5.775,-0.51355 15.92168,-1.37667 22.54688,-1.91796 6.74572,-0.55114 13.27615,-1.37552 19.61523,-2.47852 6.33908,-1.103 12.48767,-2.48454 18.4668,-4.15234 5.97912,-1.66781 11.78921,-3.62164 17.45508,-5.86719 5.66586,-2.24555 11.18663,-4.78289 16.58593,-7.61914 3.79363,-1.99279 6.96419,-3.70333 9.74219,-5.28516 2.778,-1.58183 5.1638,-3.03536 7.38867,-4.51367 2.22488,-1.47831 4.28764,-2.98183 6.42188,-4.66406 2.13424,-1.68223 4.3396,-3.54274 6.8457,-5.73633 3.62114,-3.16958 6.85724,-6.20193 9.75,-9.26172 2.89276,-3.05978 5.44271,-6.14692 7.69336,-9.42969 1.12533,-1.64138 2.17527,-3.33227 3.15625,-5.09179 0.98098,-1.75952 1.89282,-3.58856 2.74023,-5.50782 0.84741,-1.91925 1.63084,-3.92824 2.35547,-6.04882 0.72463,-2.12059 1.38933,-4.35133 2.00196,-6.71485 1.22526,-4.72703 2.2381,-9.98136 3.08007,-15.92969 0.84198,-5.94832 1.51364,-12.59136 2.0586,-20.09375 0.54496,-7.50238 0.96265,-15.86469 1.29687,-25.2539 0.33422,-9.38922 0.58517,-19.80525 0.79492,-31.41406 0.2559,-14.1625 0.60229,-28.44297 0.95313,-40.04297 0.35084,-11.6 0.70612,-20.51953 0.98242,-23.95703 0.5525,-6.875 1.50569,-22.625 2.11719,-35 1.42185,-28.7763 2.82189,-53.64436 4.09375,-73.00977 0.63593,-9.68271 1.23963,-17.99126 1.79883,-24.72266 0.55919,-6.73139 1.07299,-11.88655 1.52929,-15.26757 0.7794,-5.775 1.91042,-16.125 2.51172,-23 0.6014,-6.875 1.75029,-17.05984 2.55469,-22.63477 0.8044,-5.57494 1.46289,-12.38882 1.46289,-15.14063 0,-2.7518 0.66105,-8.54002 1.46875,-12.86328 2.2708,-12.15451 5.65364,-32.21 8.46875,-49.71875 2.81511,-17.50874 5.0625,-32.47073 5.0625,-34.43945 0,-2.53334 0.87341,-9.80296 1.94141,-16.1543 0.82092,-4.88175 1.50304,-9.72702 2.05468,-14.71093 0.55165,-4.98392 0.97358,-10.1061 1.2754,-15.54297 0.30181,-5.43687 0.48325,-11.18907 0.55468,-17.42969 0.0714,-6.24062 0.0321,-12.97006 -0.10742,-20.36523 -0.25312,-13.41986 -0.72255,-26.52731 -1.38476,-39.0586 -0.66222,-12.53129 -1.51807,-24.48607 -2.54102,-35.60351 -1.02295,-11.11744 -2.21348,-21.39786 -3.54883,-30.57618 -0.66767,-4.58915 -1.37071,-8.90232 -2.10742,-12.9082 -0.73671,-4.00588 -1.50694,-7.70359 -2.30664,-11.06055 -1.134,-4.76022 -2.17927,-8.7828 -3.29492,-12.43164 -1.11566,-3.64883 -2.30083,-6.92408 -3.71289,-10.18945 -1.41207,-3.26537 -3.05098,-6.52103 -5.07422,-10.13086 -2.02324,-3.60982 -4.43169,-7.57365 -7.38086,-12.25586 -3.5433,-5.62543 -6.79482,-10.55743 -9.84375,-14.90234 -3.04894,-4.34492 -5.89458,-8.10364 -8.625,-11.37891 -2.73042,-3.27527 -5.34584,-6.06788 -7.9336,-8.48437 -2.58776,-2.416499 -5.14858,-4.456017 -7.76953,-6.224612 -3.51007,-2.368568 -7.8522,-4.833407 -12.65429,-7.244141 -4.80209,-2.410734 -10.06471,-4.76757 -15.41211,-6.919922 -5.34741,-2.152352 -10.77976,-4.099939 -15.92578,-5.693359 -5.14603,-1.593421 -10.00518,-2.832467 -14.20313,-3.566407 -4.675,-0.81734 -11.37868,-2.366316 -14.89648,-3.441406 -1.75885,-0.53754 -4.775,-1.13252 -8.21875,-1.658203 -3.44375,-0.525683 -7.3151,-0.982067 -10.78125,-1.242188 -6.9322,-0.52024 -15.30352,-1.440781 -18.60352,-2.044921 -3.3,-0.60413 -11.4,-1.485798 -18,-1.960938 -6.6,-0.47514 -19.425,-1.402987 -28.5,-2.060547 -5.7119,-0.41387 -14.29711,-0.671349 -26.47461,-0.779297 z m -45.05273,17.22461 c 11.19897,-0.03945 22.62772,0.06466 33.82617,0.298828 11.19845,0.234168 22.16643,0.599133 32.4414,1.080078 10.27498,0.480945 19.85858,1.078413 28.28711,1.779297 8.42854,0.700884 15.70219,1.504452 21.36133,2.398437 3.5445,0.559935 7.40591,1.068695 10.77149,1.4375 3.36557,0.368806 6.23532,0.597657 7.79687,0.597657 1.5616,0 3.8169,0.230832 6.19336,0.601562 2.37646,0.370731 4.87407,0.88136 6.91797,1.44336 4.0878,1.12399 10.35664,2.521631 13.93164,3.107421 4.2832,0.701845 9.29055,1.928737 14.56836,3.503907 5.27781,1.575169 10.82697,3.498923 16.19336,5.59375 5.36639,2.094827 10.54871,4.360274 15.09766,6.621094 2.27447,1.13041 4.39078,2.25964 6.29101,3.36523 1.90023,1.1056 3.58531,2.18804 4.99805,3.22461 1.22877,0.90159 2.57632,2.06175 4.01367,3.44141 1.43735,1.37966 2.96514,2.97892 4.55469,4.75976 3.17909,3.56169 6.60508,7.84966 10.05469,12.55469 3.4496,4.70504 6.9223,9.82733 10.1914,15.06055 3.2691,5.23321 6.33508,10.57643 8.97266,15.72266 1.00055,1.95217 1.94561,3.98479 2.83789,6.11718 0.89227,2.13239 1.73235,4.36361 2.52539,6.71875 1.58607,4.71028 2.98129,9.90915 4.22461,15.76563 1.24332,5.85648 2.33379,12.37188 3.30664,19.71484 0.97284,7.34297 1.82886,15.51387 2.60351,24.6836 0.8596,10.175 2.12596,24.35 2.81446,31.5 0.38955,4.04524 0.69465,10.97688 0.89648,19.93164 0.20183,8.95475 0.30039,19.93262 0.27539,32.06836 -0.0367,17.95278 -0.10012,27.94144 -0.41211,34.82226 -0.15599,3.44041 -0.37421,6.10366 -0.68164,8.59766 -0.30742,2.49399 -0.70482,4.81811 -1.21875,7.58008 -1.2281,6.6 -2.61332,16.5 -3.07812,22 -0.23245,2.75 -1.24103,9.95512 -2.67969,19.34765 -1.43866,9.39253 -3.30741,20.97246 -5.25781,32.47266 -1.95035,11.5002 -3.72838,22.53789 -5.02149,31.05664 -1.2931,8.51875 -2.10128,14.51856 -2.11328,15.94336 -0.0239,2.84961 -0.46346,7.20469 -0.97656,9.67969 -0.5131,2.475 -1.63298,12.825 -2.48828,23 -0.8553,10.175 -1.98788,20.075 -2.51758,22 -0.2648,0.9625 -0.50761,2.7584 -0.68359,4.875 -0.17599,2.11659 -0.28516,4.55388 -0.28516,6.80273 -0.003,4.4977 -0.46193,11.4727 -1.01953,15.5 -0.48295,3.48812 -0.90402,7.91379 -1.48242,16.54492 -0.5784,8.63113 -1.31413,21.46772 -2.42578,41.77735 -0.5419,9.9 -1.48606,24.075 -2.09766,31.5 -0.59985,7.28337 -1.28054,22.11854 -1.96289,42.21484 -0.68235,20.0963 -1.36636,45.45374 -1.97656,73.78516 -0.4205,19.525 -1.02861,36.85 -1.34961,38.5 -0.321,1.65 -1.08939,7.275 -1.70899,12.5 -0.46782,3.94486 -1.01012,7.65584 -1.62695,11.13867 -0.61683,3.48282 -1.30724,6.73817 -2.07617,9.77148 -0.76893,3.03331 -1.61494,5.84508 -2.53907,8.44141 -0.92412,2.59633 -1.92734,4.97655 -3.00976,7.14844 -0.67058,1.34551 -1.97899,3.19396 -3.69922,5.30859 -1.72022,2.11463 -3.8524,4.49542 -6.16992,6.9082 -2.31752,2.41278 -4.82074,4.85771 -7.2832,7.09766 -2.46247,2.23995 -4.88402,4.27495 -7.03907,5.87109 -2.13765,1.58327 -5.01655,3.43547 -8.3164,5.39063 -3.29986,1.95515 -7.02006,4.01371 -10.84375,6.00781 -3.8237,1.9941 -7.74983,3.9249 -11.45899,5.625 -3.70915,1.7001 -7.20195,3.16903 -10.1582,4.24219 -4.16075,1.51039 -7.99098,2.75347 -12.16797,3.83398 -4.17699,1.08052 -8.69986,1.99844 -14.24805,2.85938 -5.54819,0.86094 -12.12213,1.66396 -20.39648,2.51562 -8.27435,0.85166 -18.24999,1.75201 -30.60547,2.80469 -3.60385,0.30704 -13.58695,0.53153 -26.72852,0.67578 -13.14156,0.14425 -29.44079,0.20859 -45.67968,0.19531 -16.2389,-0.0133 -32.41665,-0.10399 -45.3125,-0.26953 -12.89586,-0.16553 -22.51061,-0.40623 -25.62305,-0.71875 -11.81022,-1.18585 -19.33718,-1.97375 -24.77344,-2.6289 -5.43625,-0.65516 -8.78181,-1.17759 -12.22656,-1.83008 -4.125,-0.78134 -13.35,-1.85197 -20.5,-2.38086 -7.21046,-0.53336 -16.07188,-1.58086 -23.68164,-2.71094 -3.80488,-0.56504 -7.29702,-1.15062 -10.11328,-1.70312 -2.81626,-0.5525 -4.95658,-1.07176 -6.05859,-1.50391 -1.56935,-0.6154 -7.19433,-1.77325 -12.5,-2.57422 -2.65285,-0.40048 -6.07738,-1.10919 -9.45704,-1.92773 -3.37966,-0.81855 -6.71445,-1.74694 -9.18945,-2.58789 -4.95,-1.68189 -11.82225,-3.71559 -15.27148,-4.51954 -3.44923,-0.80395 -7.94923,-2.29824 -10,-3.32226 -2.05077,-1.02402 -5.92213,-2.4002 -8.60352,-3.05664 -1.42892,-0.34982 -3.22525,-0.95077 -5.21094,-1.71875 -1.98568,-0.76799 -4.15987,-1.70299 -6.34961,-2.72461 -2.18973,-1.02163 -4.39448,-2.12949 -6.43554,-3.24024 -2.04107,-1.11074 -3.91929,-2.22441 -5.45899,-3.25976 -1.32184,-0.88886 -2.69993,-2.06153 -4.11914,-3.5 -1.41921,-1.43847 -2.88047,-3.14285 -4.36719,-5.0918 -1.48671,-1.94894 -2.99909,-4.14417 -4.52343,-6.56445 -1.52434,-2.42028 -3.05971,-5.0655 -4.5918,-7.91797 -2.53573,-4.72106 -6.37768,-11.44127 -8.53906,-14.93359 -1.92924,-3.11723 -3.74719,-6.65094 -5.41016,-10.46485 -1.66297,-3.81391 -3.17052,-7.90777 -4.48242,-12.14453 -1.3119,-4.23676 -2.42669,-8.61618 -3.30273,-13.00195 -0.87605,-4.38577 -1.51376,-8.77813 -1.86915,-13.03906 -0.55047,-6.6 -1.65594,-15.86262 -2.45507,-20.58399 -0.79912,-4.72138 -1.99553,-15.74638 -2.66016,-24.5 -0.28685,-3.77802 -0.4968,-6.74574 -0.60938,-9.46484 -0.11257,-2.7191 -0.12712,-5.18974 -0.0234,-7.97461 0.20737,-5.56974 0.8886,-12.39555 2.21289,-24.97656 0.97072,-9.22204 1.73311,-18.2037 2.32617,-27.57618 0.59306,-9.37248 1.01679,-19.13578 1.3125,-29.92382 0.46736,-17.05 1.31287,-36.625 1.87695,-43.5 0.56407,-6.875 1.2626,-21.95 1.55274,-33.5 0.14506,-5.775 0.4437,-12.36966 0.80859,-18.34375 0.36489,-5.9741 0.79602,-11.32765 1.20508,-14.61719 0.30338,-2.43977 0.54923,-5.42145 0.74609,-9.64258 0.19686,-4.22113 0.3457,-9.68103 0.45703,-17.08203 0.22266,-14.80199 0.29429,-37.3629 0.30079,-73.27539 0.007,-40.40271 0.0519,-62.79156 0.32226,-77.20313 0.13518,-7.20578 0.32623,-12.41761 0.59766,-16.88867 0.27142,-4.47106 0.62345,-8.20222 1.07812,-12.44726 0.59143,-5.52188 1.03962,-9.9697 1.34961,-13.67383 0.30999,-3.70414 0.48097,-6.66429 0.51953,-9.20899 0.0386,-2.54469 -0.0545,-4.67519 -0.27734,-6.71875 -0.22284,-2.04355 -0.57461,-4.00045 -1.04883,-6.20117 -0.39687,-1.84179 -0.87479,-5.2041 -1.32617,-9.13672 -0.45138,-3.93261 -0.87623,-8.43554 -1.16406,-12.56054 -0.57567,-8.25 -1.5625,-22.38954 -2.19336,-31.42188 -0.31544,-4.51617 -0.53561,-9.58594 -0.63477,-14.11719 -0.0991,-4.53125 -0.0773,-8.52398 0.0879,-10.88281 0.29403,-4.19896 0.96823,-8.99766 1.91602,-14.00586 0.94779,-5.0082 2.16904,-10.22527 3.55664,-15.26562 1.38759,-5.04036 2.94125,-9.9038 4.55469,-14.19922 1.61344,-4.29543 3.28678,-8.02347 4.91211,-10.79688 2.02972,-3.46346 4.44353,-6.96228 7.13476,-10.38672 2.69123,-3.42444 5.6594,-6.77532 8.79492,-9.9414 3.13553,-3.16608 6.44012,-6.14755 9.80274,-8.83594 3.36262,-2.68839 6.78374,-5.08286 10.15625,-7.07422 4.59034,-2.71045 11.7207,-7.0386 15.8457,-9.61914 4.51198,-2.82263 10.71002,-6.23094 17.22852,-9.5332 6.51849,-3.30226 13.35742,-6.49848 19.15039,-8.89649 3.26112,-1.34994 6.33887,-2.544552 9.33398,-3.613278 2.99511,-1.068726 5.90836,-2.010779 8.83594,-2.855469 2.92757,-0.84469 5.87117,-1.591694 8.92969,-2.269531 3.05852,-0.677837 6.23119,-1.287301 9.61914,-1.855469 6.82118,-1.14393 15.32734,-2.925544 18.90234,-3.958984 2.89965,-0.83821 8.09171,-1.85705 14.59375,-2.929688 6.50204,-1.072637 14.31331,-2.198756 22.45508,-3.251953 8.14177,-1.053197 16.61279,-2.032611 24.43164,-2.8125 7.81885,-0.779889 14.98626,-1.360569 20.51953,-1.613281 13.01849,-0.59457 27.54069,-0.902484 42.47266,-0.955078 z"
       style="color:#000000;clip-rule:nonzero;display:inline;overflow:visible;visibility:visible;opacity:1;isolation:auto;mix-blend-mode:normal;color-interpolation:sRGB;color-interpolation-filters:linearRGB;solid-color:#000000;solid-opacity:1;fill:url(#linearGradient4750);fill-opacity:1;fill-rule:nonzero;stroke:none;stroke-width:1;stroke-linecap:butt;stroke-linejoin:miter;stroke-miterlimit:4;stroke-dasharray:none;stroke-dashoffset:0;stroke-opacity:1;color-rendering:auto;image-rendering:auto;shape-rendering:auto;text-rendering:auto;enable-background:accumulate" />
    <path
       id="path6010"
       d="m 369.41602,545.75586 c -13.21373,0 -19.15337,11.62666 -13.94727,27.30078 1.6292,4.90505 1.6265,5.36598 -0.0527,9.08984 -3.67534,8.15047 -1.45828,16.87806 5.44921,21.44922 l 3.84571,2.54492 3.10156,14.70118 c 1.70549,8.08528 3.62529,17.54107 4.26758,21.01367 1.45479,7.86556 4.1046,11.86261 9.88281,14.91015 2.475,1.30539 5.41463,2.97156 6.53125,3.70313 5.5009,3.60399 30.89656,8.55797 43.96875,8.57617 4.4,0.006 11.05721,0.29956 14.79297,0.65235 l 6.79102,0.64062 -0.29102,6.53516 -0.29297,6.5332 -15.5,0.20898 c -36.70629,0.49787 -74.88996,3.31029 -100.16797,7.37696 -3.11705,0.50146 -7.4018,2.06081 -9.52344,3.46484 -8.58061,5.67838 -9.87966,13.83233 -4.09179,25.70703 4.36122,8.9477 4.98732,14.90095 5.29687,50.37696 0.34734,39.80682 1.3824,56.40345 3.75977,60.35351 2.96159,4.92076 7.22669,7.13867 13.72656,7.13867 6.61412,0 10.73458,-2.20649 14.00977,-7.50586 2.26832,-3.67021 2.28912,-3.99266 1.59375,-23.85351 -0.38768,-11.07293 -0.84624,-31.83281 -1.01953,-46.13281 -0.1733,-14.3 -0.65045,-29.0165 -1.06055,-32.70313 -0.7233,-6.50214 -0.67548,-6.71714 1.61523,-7.21875 11.76081,-2.57537 86.01801,-6.33596 88.97852,-4.50586 0.51948,0.32113 1.06382,12.76242 1.24023,28.33789 0.36154,31.92181 1.78218,28.03551 -11.35742,31.08399 -36.29184,8.41998 -44.07104,11.4803 -50.00781,19.67578 -2.3952,3.30647 -2.99219,5.15147 -2.99219,9.24804 0,12.92023 13.54984,20.08632 25.21484,13.33399 4.53088,-2.62271 18.50378,-6.73995 38.15625,-11.24219 9.44223,-2.16315 12.36733,-2.49439 14.29688,-1.61523 1.33425,0.60793 4.7673,1.10361 7.62891,1.09961 5.2903,-0.007 8.20129,-1.33136 12.40039,-5.63868 1.1498,-1.17933 4.05156,-2.46288 6.44726,-2.85351 2.3957,-0.39064 8.07118,-1.58029 12.61328,-2.64453 4.5421,-1.06425 12.87357,-2.34041 18.51368,-2.83594 5.63999,-0.49552 10.99766,-1.1865 11.90624,-1.53516 1.28962,-0.49486 2.49459,1.04948 5.48829,7.04102 6.815,13.63981 12.34481,18.47266 21.13671,18.47266 8.98032,0 15.42774,-6.70342 15.42774,-16.03907 0,-4.05133 -0.76534,-6.22474 -4.18164,-11.8789 -2.2999,-3.80649 -6.59357,-13.82036 -9.54297,-22.25196 -10.5909,-30.27715 -11.20685,-31.51092 -17.12305,-34.31836 -4.8102,-2.2826 -12.94726,-1.66904 -17.10156,1.28907 -5.926,4.21969 -7.91582,13.31474 -4.82812,22.0664 1.7094,4.84478 2.08767,4.65371 -10.95313,5.56641 -4.4,0.30794 -12.5,1.62288 -18,2.92383 -5.5,1.30094 -10.15952,2.232 -10.35351,2.06836 -0.9195,-0.77537 -0.29833,-48.71369 0.63867,-49.29297 1.7068,-1.05528 39.96604,-0.45138 51.71484,0.8164 6.05,0.65284 14.6,2.02044 19,3.03711 4.4,1.01667 10.025,2.1047 12.5,2.41993 20.1515,2.56656 28.655,4.11859 36,6.57031 4.675,1.5605 11.05855,3.55826 14.18555,4.43945 6.4378,1.81415 6.30929,1.59251 7.77539,13.55859 1.0571,8.62757 1.49643,89.0254 0.48633,89.0254 -2.3329,0 -32.08837,-5.28558 -36.44727,-6.47461 -7.7904,-2.12505 -15.55556,-1.96266 -19.38086,0.40625 -9.5637,5.92259 -9.44186,21.76284 0.21094,27.40039 4.4819,2.61752 19.30542,6.25014 35.29492,8.64843 7.3564,1.10339 16.975,2.88137 21.375,3.95118 15.5565,3.7824 25.25305,1.34122 29.49805,-7.42774 2.1293,-4.39853 2.13947,-4.73587 1.73437,-64.71289 -0.4283,-63.42888 -0.74859,-68.12127 -5.24609,-76.81836 -2.6289,-5.08374 -9.50791,-11.95306 -14.44531,-14.42383 -13.0572,-6.53411 -41.65362,-13.82985 -63.04102,-16.08593 -3.575,-0.37712 -9.875,-1.50212 -14,-2.49805 -11.9418,-2.88321 -27.7474,-4.21133 -53,-4.45703 l -23.5,-0.23047 0,-6.38867 0,-6.38867 12.5,0.27148 c 11.1824,0.24159 26.20248,1.65998 43.42188,4.10156 9.7312,1.37983 15.50607,-0.78417 19.54687,-7.32226 1.4706,-2.37946 2.94289,-3.55078 4.46289,-3.55078 1.2476,0 4.02297,-1.27981 6.16797,-2.84571 8.7043,-6.35425 27.08812,-27.78041 32.29492,-37.63867 2.331,-4.41336 2.8913,-15.15384 1.1211,-21.51562 -1.3085,-4.70263 -6.19229,-10.43207 -11.58399,-13.5918 -4.9029,-2.8733 -22.37624,-6.33387 -42.43164,-8.40234 -6.325,-0.65234 -14.2,-1.80372 -17.5,-2.5586 -3.3,-0.75487 -10.275,-1.84304 -15.5,-2.41797 -5.225,-0.57493 -14.60626,-2.03962 -20.84766,-3.25586 l -11.34765,-2.21289 -2.01953,-4.29492 c -2.6795,-5.7004 -6.82166,-8.52096 -13.30469,-9.05859 -6.33025,-0.52495 -11.62227,1.68765 -14.79102,6.18554 l -2.18945,3.10743 -17,0 c -20.07296,0 -40.73468,1.13445 -45.48242,2.49609 -1.86145,0.53385 -3.44503,0.86637 -3.51953,0.73828 -0.0745,-0.1281 -0.96641,-3.15937 -1.98047,-6.73437 -3.47925,-12.26583 -7.69107,-16.28516 -17.06445,-16.28516 z m 65.81445,51.53125 c 2.90734,-0.007 5.90762,0.0511 8.58984,0.1582 5.36445,0.21429 9.45314,0.62365 8.9668,1.09571 -0.17841,0.17316 -6.0975,0.61705 -13.1543,0.98632 -10.17254,0.53231 -15.35162,1.38219 -25,4.10547 -6.6932,1.88917 -12.91974,3.67289 -13.83593,3.96289 -1.93677,0.61304 -2.35639,0.0719 -3.27344,-4.20703 -0.65055,-3.03546 -0.53599,-3.17455 3.13086,-3.76758 2.0944,-0.33872 6.50859,-0.78973 9.80859,-1.00195 3.3,-0.21223 10.83245,-0.70658 16.73828,-1.09961 2.30753,-0.15356 5.12195,-0.22547 8.0293,-0.23242 z m 102.23242,13.68945 3.5,0.48633 c 1.925,0.26748 9.44183,1.25091 16.70313,2.18555 l 13.20117,1.69922 -2.02344,2.59765 c -1.1129,1.42846 -5.75461,6.45718 -10.31641,11.17578 -4.5617,4.71859 -9.08252,9.78109 -10.04492,11.25 -0.9625,1.4689 -2.03556,2.61006 -2.38476,2.53516 -0.3493,-0.0749 -1.75977,-0.32371 -3.13477,-0.55078 -5.0473,-0.83351 -5.35966,-1.24345 -2.59766,-3.41602 3.8597,-3.03606 5.6018,-7.10859 5.5918,-13.09765 -0.007,-5.61262 -1.93093,-9.65715 -6.20703,-13.05078 l -2.28711,-1.81446 z m -86.11523,20.71875 c 4.66,0.0552 4.2115,0.98124 3.72656,5.34571 -0.0611,0.55 -0.89883,0.92437 -1.86133,0.83007 -0.9625,-0.0943 -7.825,-0.49208 -15.25,-0.88281 -7.425,-0.39073 -14.175,-0.79729 -15,-0.9043 -0.825,-0.10701 1.36669,-1.04063 4.87109,-2.07421 3.98637,-1.17574 10.33729,-1.98969 16.9629,-2.17383 2.87614,-0.0799 4.99744,-0.15904 6.55078,-0.14063 z m 38.9375,0.0391 c 0.81806,-0.004 1.88396,0.0425 3.27539,0.11523 7.0119,0.36651 15.99324,2.47082 21.74804,5.09375 l 4.1543,1.89258 -14.92187,-0.14649 c -15.7888,-0.15591 -17.40522,-0.61142 -17.07032,-4.80859 0.132,-1.65417 0.36026,-2.13303 2.81446,-2.14648 z"
       style="fill:url(#linearGradient4706)" />
    <path
       id="path6008"
       d="m 551.95898,433.21484 c -7.7205,0.5447 -12.54998,5.44382 -13.99023,14.29297 -0.9367,5.75549 -7.56606,21.78547 -10.91016,26.38086 -1.9106,2.62552 -2.13267,2.66611 -20.76367,3.8418 -10.3577,0.65361 -26.03199,1.87792 -34.83203,2.7207 -8.8,0.84279 -16.50827,1.54445 -17.12891,1.56055 -1.74932,0.0454 -4.37109,-12.06713 -4.37109,-20.19336 0,-6.1742 -0.3942,-7.89112 -2.5293,-11.0332 -3.20822,-4.72132 -7.55866,-6.97461 -13.4707,-6.97461 -7.31435,0 -11.86002,2.98808 -15.51758,10.19922 -2.11496,4.16979 -2.15714,11.47641 -0.125,22.03125 0.7942,4.125 1.29456,7.6578 1.11133,7.8496 -0.55326,0.57912 -31.04541,4.06332 -45.46875,5.19532 -13.95101,1.09494 -39.86974,5.26469 -55.35937,8.90625 -12.58037,2.9576 -22.57372,7.35736 -26.83399,11.81445 -4.81313,5.03549 -5.80664,7.24931 -5.80664,12.9375 0,12.61103 13.63471,19.68714 25.21484,13.08594 2.35661,-1.34338 6.31016,-3.15306 8.78516,-4.02149 11.3899,-3.99651 41.74624,-9.36734 60.77734,-10.75195 7.85298,-0.57135 21.52469,-1.96367 30.38086,-3.0957 8.85617,-1.13203 16.4192,-1.68913 16.80664,-1.23828 0.38744,0.45085 1.50841,3.06836 2.49024,5.81836 7.48506,20.9648 23.97731,32.00823 35.80273,23.97265 4.72132,-3.20822 6.97266,-7.56061 6.97266,-13.47265 0,-5.65434 -1.8599,-9.45691 -6.72266,-13.74024 -2.02373,-1.78259 -3.49304,-3.80759 -3.26367,-4.5 0.27731,-0.83715 3.90732,-1.50914 10.83594,-2.0039 5.7306,-0.40922 13.86206,-1.10456 18.06836,-1.54493 l 7.64648,-0.79883 -4.14648,5.82813 c -2.2813,3.20547 -5.61094,7.88748 -7.39844,10.40625 -4.4503,6.27083 -4.58459,13.2133 -0.36719,19.03516 2.6882,3.71094 5.79099,5.64141 10.61719,6.60742 2.6949,0.53943 7.4492,-0.29459 10.5,-1.8418 3.4365,-1.74289 6.88042,-5.52794 14.22852,-15.64258 3.4497,-4.74855 9.53142,-12.65746 13.51562,-17.57422 l 7.24414,-8.93945 6.75586,-0.63867 c 3.7158,-0.35093 28.36329,-0.64053 54.77149,-0.64453 46.9842,-0.007 48.09883,0.0374 51.96093,2.10742 11.2807,6.04609 24.52344,-1.08011 24.52344,-13.19727 0,-9.66034 -4.81482,-15.85328 -14.69922,-18.90625 -6.1472,-1.89866 -9.24543,-2.01171 -55.36133,-2.01171 l -48.84961,0 3.11133,-7.25 c 3.9759,-9.26172 4.96282,-20.49299 2.29492,-26.11524 -2.4218,-5.10353 -6.75162,-7.90827 -13.01562,-8.42773 -1.2195,-0.10113 -2.38145,-0.11102 -3.48438,-0.0332 z"
       style="fill:url(#linearGradient4706)" />
    <path
       id="path6004"
       d="m 409.36133,123.93359 c -3.1772,0.0386 -6.44328,1.01808 -9.54688,2.98633 -6.16299,3.90845 -8.85156,8.49174 -8.85156,15.08789 0,4.54237 -0.72569,6.46491 -5.50977,14.59375 -3.03019,5.14873 -9.04379,13.76614 -13.36523,19.15039 -8.18809,10.20185 -26.08008,28.19143 -32.125,32.30078 -1.925,1.30862 -7.0825,5.72086 -11.46094,9.80469 -4.37844,4.08383 -11.35344,9.98328 -15.5,13.10938 -27.73811,20.91178 -29.32422,22.61586 -29.32422,31.51758 0,9.82794 6.04192,15.84374 15.91602,15.84374 5.74592,0 6.79672,-0.55748 18.9668,-10.0371 3.35395,-2.61249 10.32895,-7.9507 15.5,-11.86329 5.17105,-3.9126 10.52734,-8.33562 11.90234,-9.83007 l 2.5,-2.71875 0.5,78.33203 0.5,78.33008 2.21875,3.10937 c 1.22,1.71033 3.695,3.8646 5.5,4.78516 4.54698,2.31901 13.40298,1.72404 17.47266,-1.17383 6.67784,-4.75505 6.34377,0.60212 6.29297,-100.72461 l -0.0449,-91.63672 9.11328,-9.63086 c 10.6903,-11.29576 22.85393,-29.02959 30.2129,-44.04687 5.01427,-10.2325 5.23437,-11.02406 5.23437,-18.85352 0,-6.72537 -0.37042,-8.6739 -2.0918,-11 -3.6622,-4.94874 -8.71444,-7.49991 -14.00976,-7.43555 z m 36.4375,32.95118 -3.89063,2.57421 c -4.86935,3.22238 -7.17578,7.58861 -7.17578,13.58204 0,5.95018 2.30177,10.35791 7.05274,13.50195 3.50368,2.31863 4.9862,2.54782 21.22265,3.28515 9.60046,0.43599 31.74268,0.77571 49.20508,0.75391 17.4624,-0.0218 31.7499,0.20727 31.75,0.50977 10e-5,0.3025 -0.47459,1.02532 -1.05469,1.60547 -1.1821,1.1821 -2.33997,5.92552 -6.92187,28.34375 -1.7424,8.525 -4.93571,20.70387 -7.09571,27.06445 -2.15989,6.36057 -3.92773,12.29234 -3.92773,13.17969 0,1.79836 1.309,1.59394 -30.5,4.75 -20.8884,2.07252 -49.4921,8.12456 -55.71875,11.78906 -9.59408,5.64629 -9.55491,21.47104 0.0684,27.42969 4.83316,2.99265 11.26449,2.61471 28.01758,-1.64453 8.22734,-2.09171 20.1936,-4.27109 28,-5.09961 20.3055,-2.15512 18.47047,-3.25449 14.67187,8.78125 -1.7793,5.6375 -5.31713,15.49287 -7.86133,21.90039 -2.54428,6.40752 -5.58435,14.56982 -6.75585,18.13867 -2.0288,6.18008 -2.3031,6.51683 -5.77539,7.05469 -7.68641,1.19062 -19.42993,1.78088 -40.64649,2.04296 -18.30326,0.2261 -22.54067,0.55351 -25.2207,1.95313 -8.32412,4.34716 -10.94519,15.68203 -5.39649,23.3418 2.69034,3.7139 5.81088,5.65369 10.61719,6.60156 5.47795,1.08032 56.6344,-0.2604 65.5,-1.7168 13.0167,-2.13833 25.446,-3.2972 60.5,-5.63476 16.5,-1.1003 34.95,-2.57373 41,-3.27539 7.6189,-0.88362 24.0633,-1.20463 53.5,-1.04493 35.5637,0.19294 43.6424,0.50029 49.5,1.89063 16.1192,3.82604 27.48609,-2.29207 27.49609,-14.80078 0.005,-5.79366 -1.89147,-9.75504 -6.26367,-13.08985 -6.6526,-5.07422 -18.44016,-6.24308 -62.25586,-6.16796 l -33.22656,0.0566 3.94531,-11.44141 c 2.1697,-6.29273 5.08091,-14.16773 6.47071,-17.5 4.1051,-9.84221 5.30926,-15.52339 5.32226,-25.11133 0.0152,-11.59035 -2.66057,-17.63875 -10.35547,-23.40625 -9.9119,-7.42907 -9.90649,-7.4275 -41.46289,-7.82422 -22.8616,-0.28741 -28.23257,-0.60898 -27.82617,-1.66797 2.2522,-5.86915 5.16079,-17.32655 8.17969,-32.22656 1.9643,-9.69527 3.93611,-18.34647 4.38281,-19.22461 1.5021,-2.95263 1.97442,-7.69213 1.13672,-11.40625 l -0.83203,-3.6875 14.64453,0.52539 c 14.0177,0.50371 34.74378,2.46131 47.75976,4.50977 10.2029,1.60574 14.50658,1.24407 18.64258,-1.56641 4.8463,-3.29314 6.74828,-7.14286 6.73828,-13.67187 -0.007,-9.75106 -5.50302,-14.9854 -17.54492,-16.70899 -31.1012,-4.45159 -51.18817,-5.44985 -113.45117,-5.63672 -25.575,-0.0768 -54.97459,-0.47216 -65.33203,-0.87695 l -18.83203,-0.73437 z m 135.98828,134.20117 c 12.37345,0.0517 24.23163,0.33853 24.98828,0.81836 1.4076,0.89261 0.97755,2.38337 -5.68555,19.63672 -1.6992,4.4 -5.2455,13.84625 -7.8789,20.99023 l -4.78711,12.98828 -5.48047,0.81641 c -3.0142,0.44853 -16.54079,1.57727 -30.05859,2.50976 l -24.57813,1.69532 2.18945,-5.5 c 1.2039,-3.025 2.90013,-7.075 3.76953,-9 0.8693,-1.925 3.17801,-8.6072 5.12891,-14.84961 1.9509,-6.24241 5.12564,-14.84818 7.05664,-19.125 1.931,-4.27681 3.51172,-8.22322 3.51172,-8.76953 0,-0.54632 1.6875,-1.27238 3.75,-1.61329 2.81275,-0.46492 15.70077,-0.64932 28.07422,-0.59765 z"
       style="fill:#000000" />
  </g>
</svg>
