<?xml version="1.0" encoding="UTF-8" standalone="no"?>
<svg
   xmlns:osb="http://www.openswatchbook.org/uri/2009/osb"
   xmlns:dc="http://purl.org/dc/elements/1.1/"
   xmlns:cc="http://creativecommons.org/ns#"
   xmlns:rdf="http://www.w3.org/1999/02/22-rdf-syntax-ns#"
   xmlns:svg="http://www.w3.org/2000/svg"
   xmlns="http://www.w3.org/2000/svg"
   xmlns:xlink="http://www.w3.org/1999/xlink"
   version="1.1"
   id="svg2985"
   height="852.63513"
   width="514.89478">
  <defs
     id="defs5498">
    <linearGradient
       osb:paint="solid"
       id="linearGradient4756">
      <stop
         id="stop4758"
         offset="0"
         style="stop-color:#ffffff;stop-opacity:1;" />
    </linearGradient>
    <linearGradient
       osb:paint="solid"
       id="linearGradient4750">
      <stop
         id="stop4752"
         offset="0"
         style="stop-color:#000000;stop-opacity:1;" />
    </linearGradient>
    <linearGradient
       osb:paint="solid"
       id="linearGradient5694">
      <stop
         id="stop5696"
         offset="0"
         style="stop-color:#002b11;stop-opacity:1;" />
    </linearGradient>
    <linearGradient
       osb:paint="solid"
       id="linearGradient4712">
      <stop
         id="stop4714"
         offset="0"
         style="stop-color:#162d50;stop-opacity:1;" />
    </linearGradient>
    <linearGradient
       osb:paint="solid"
       id="linearGradient4706">
      <stop
         id="stop4708"
         offset="0"
         style="stop-color:#d40000;stop-opacity:1;" />
    </linearGradient>
    <linearGradient
       gradientUnits="userSpaceOnUse"
       y2="508.69208"
       x2="761.44257"
       y1="508.69208"
       x1="262.13925"
       id="linearGradient4716"
       xlink:href="#linearGradient4712" />
    <linearGradient
       gradientUnits="userSpaceOnUse"
       y2="500.0004"
       x2="771.30902"
       y1="500.0004"
       x1="228.69211"
       id="linearGradient4754"
       xlink:href="#linearGradient4750" />
    <linearGradient
       gradientUnits="userSpaceOnUse"
       y2="500.10483"
       x2="752.40271"
       y1="500.10483"
       x1="248.61133"
       id="linearGradient4760"
       xlink:href="#linearGradient4756" />
    <linearGradient
       y2="508.69208"
       x2="761.44257"
       y1="508.69208"
       x1="262.13925"
       gradientUnits="userSpaceOnUse"
       id="linearGradient501"
       xlink:href="#linearGradient4712" />
    <linearGradient
       y2="508.69208"
       x2="761.44257"
       y1="508.69208"
       x1="262.13925"
       gradientUnits="userSpaceOnUse"
       id="linearGradient503"
       xlink:href="#linearGradient4712" />
    <linearGradient
       y2="508.69208"
       x2="761.44257"
       y1="508.69208"
       x1="262.13925"
       gradientUnits="userSpaceOnUse"
       id="linearGradient505"
       xlink:href="#linearGradient4712" />
  </defs>
  <metadata
     id="metadata5594">
    <rdf:RDF>
      <cc:Work
         rdf:about="">
        <dc:format>image/svg+xml</dc:format>
        <dc:type
           rdf:resource="http://purl.org/dc/dcmitype/StillImage" />
        <dc:title />
      </cc:Work>
    </rdf:RDF>
  </metadata>
  <g
     transform="translate(-242.55288,-73.682092)"
     style="display:inline"
     id="layer25">
    <path
       id="path4978"
       d="m 581.05273,91.376953 -68.5,0.496094 c -17.74161,0.128627 -31.24239,0.236103 -41.80859,0.394531 -10.5662,0.158428 -18.19876,0.36758 -24.20508,0.701172 -6.00631,0.333592 -10.38531,0.791192 -14.44726,1.445312 -4.06196,0.654121 -7.80594,1.504988 -12.53907,2.625 -27.37063,6.476768 -66.95961,15.430228 -71,16.056638 -1.92805,0.29893 -5.07264,1.02343 -8.76171,1.97461 -3.68908,0.95119 -7.92338,2.12991 -12.0293,3.33789 -4.10592,1.20798 -8.08314,2.44436 -11.26172,3.51368 -3.17858,1.06931 -5.55778,1.97068 -6.46484,2.50585 -2.84072,1.67607 -5.56625,3.52493 -8.19727,5.56446 -2.63102,2.03953 -5.16663,4.26917 -7.62695,6.71093 -2.46033,2.44177 -4.84519,5.09575 -7.17383,7.97852 -2.32864,2.88277 -4.60194,5.99488 -6.83789,9.35742 -1.34169,2.0177 -2.35839,3.62719 -3.08984,5.16992 -0.73146,1.54274 -1.17769,3.01879 -1.37696,4.77149 -0.19927,1.7527 -0.15135,3.78211 0.10352,6.42969 0.25486,2.64758 0.7167,5.91324 1.34765,10.14062 0.53941,3.61403 0.9696,8.88774 1.30664,16.1836 0.33704,7.29585 0.58093,16.61384 0.75,28.3164 0.11892,8.23101 0.20231,14.52878 0.21485,19.77734 0.0125,5.24857 -0.0455,9.44727 -0.21289,13.48438 -0.16742,4.03711 -0.44428,7.91116 -0.86524,12.50781 -0.42095,4.59665 -0.9863,9.91657 -1.73437,16.84375 -0.84977,7.86892 -1.62162,15.91255 -2.18164,22.53321 -0.56002,6.62066 -0.90821,11.81834 -0.90821,13.99414 0,4.35159 -0.47376,11.68929 -1.05273,16.30664 -0.28948,2.30867 -0.65347,8.85972 -1.00781,17.55468 -0.35434,8.69497 -0.69903,19.53386 -0.94727,30.41797 -0.50878,22.30822 -1.39531,48.44583 -2.27148,69.19532 -0.43809,10.37474 -0.87385,19.40376 -1.25782,25.93164 -0.38396,6.52787 -0.7167,10.55542 -0.94921,10.93164 -0.33815,0.54714 -1.05797,8.76291 -1.59961,18.25781 -0.78945,13.83875 -1.43887,31.41471 -1.92774,50.22461 -0.48887,18.8099 -0.81813,38.8533 -0.96679,57.6289 -0.14866,18.77561 -0.11596,36.28368 0.11523,50.01954 0.1156,6.86793 0.28006,12.79341 0.49805,17.46289 0.21799,4.66947 0.48911,8.0824 0.81445,9.92773 0.46559,2.64079 0.86892,7.61496 1.20508,14.81641 0.33615,7.20144 0.60512,16.63015 0.80273,28.18359 0.17774,10.39146 0.39493,19.21546 0.70117,27.09961 0.30625,7.88416 0.70237,14.82895 1.23829,21.45899 0.53591,6.63003 1.21138,12.94511 2.07812,19.57421 0.86674,6.62911 1.92392,13.57177 3.22266,21.45313 l 1.57812,9.58594 6.11328,4.89648 c 5.28315,4.23059 10.53145,8.25425 14.86719,11.42969 4.33574,3.17543 7.75891,5.50263 9.39258,6.33789 1.12749,0.57646 2.34359,1.08155 3.74414,1.5332 1.40054,0.45166 2.98593,0.85012 4.85352,1.21485 3.73516,0.72944 8.59799,1.32267 15.36523,1.93164 4.37833,0.394 8.14486,0.87281 11.48828,1.50586 3.34342,0.63304 6.26351,1.41971 8.94727,2.43359 2.68375,1.01388 5.13191,2.25453 7.53125,3.79102 2.39933,1.53648 4.75007,3.36942 7.24023,5.57031 1.21144,1.07071 2.25233,1.94247 3.41797,2.76758 1.16564,0.8251 2.45695,1.60276 4.16406,2.48632 3.41423,1.76712 8.49776,3.95599 17.60156,7.78125 5.775,2.42655 15.07997,6.47377 20.67774,8.99414 2.79888,1.26019 5.88672,2.50989 8.60547,3.50782 2.71875,0.99793 5.06841,1.74409 6.39453,1.99804 1.69484,0.32455 3.71591,0.57023 5.9707,0.73633 2.25479,0.16611 4.74257,0.2526 7.375,0.25977 5.26488,0.0143 11.10348,-0.28964 16.78516,-0.91406 5.33037,-0.58582 14.6414,-1.76482 20.6914,-2.6211 6.05,-0.85627 15.725,-1.92175 21.5,-2.36719 4.64059,-0.35794 13.22391,-1.40016 22.60547,-2.69336 9.38156,-1.29319 19.56136,-2.83736 27.39453,-4.19921 3.025,-0.52592 11.35,-2.48942 18.5,-4.36329 19.9211,-5.22091 31.9162,-8.32936 39.9336,-10.28906 8.0174,-1.9597 12.05709,-2.77066 16.0664,-3.39844 3.02968,-0.47439 6.40225,-1.14057 9.8711,-1.92968 3.46884,-0.78912 7.03406,-1.70193 10.44726,-2.66602 3.41321,-0.96409 6.67436,-1.97919 9.53711,-2.97851 2.86276,-0.99933 5.32703,-1.98213 7.14453,-2.87696 1.53169,-0.7541 3.26476,-1.75612 5.14454,-2.95898 1.87977,-1.20286 3.90689,-2.60585 6.02539,-4.16211 4.23699,-3.11253 8.84132,-6.837 13.37695,-10.79102 4.53563,-3.95402 9.00165,-8.13917 12.96094,-12.17187 3.95929,-4.0327 7.41195,-7.91316 9.91992,-11.26172 1.29645,-1.73104 3.62141,-5.57773 6.32422,-10.38086 2.7028,-4.80313 5.78344,-10.56268 8.58789,-16.11914 2.80675,-5.56103 5.07901,-10.25004 6.97461,-14.56055 1.8956,-4.31051 3.41462,-8.24289 4.71679,-12.29101 1.30218,-4.04812 2.38758,-8.21248 3.41407,-12.98633 1.02648,-4.77385 1.99397,-10.15683 3.0625,-16.64453 0.50312,-3.05482 0.88777,-5.56302 1.17578,-8.04102 0.288,-2.47799 0.47905,-4.92586 0.59179,-7.86133 0.2255,-5.87093 0.14065,-13.69103 -0.0957,-27.59765 -0.26295,-15.47351 -0.71588,-28.58582 -1.34765,-39.16992 -0.31589,-5.29206 -0.67558,-9.95168 -1.08008,-13.95899 -0.4045,-4.00731 -0.85303,-7.362 -1.34375,-10.04297 -0.3046,-1.66434 -0.6596,-7.73411 -0.98633,-16.17383 -0.32674,-8.43971 -0.62521,-19.24936 -0.81641,-30.39062 -0.19125,-11.14126 -0.46305,-21.42921 -0.74804,-29.0293 -0.28499,-7.60009 -0.58317,-12.51232 -0.82422,-12.90234 -0.24105,-0.39002 -0.54714,-12.05795 -0.84766,-30.54297 -0.30051,-18.48502 -0.59545,-43.78714 -0.81055,-71.44336 -0.36395,-46.80002 -0.66541,-74.88938 -1.32421,-100.61719 -0.32941,-12.8639 -0.74869,-25.13589 -1.3086,-38.86328 -0.55991,-13.72738 -1.2613,-28.90934 -2.15625,-47.58789 -0.42,-8.7667 -0.8459,-15.67746 -1.58398,-24.3164 -0.73808,-8.63895 -1.78833,-19.00606 -3.45703,-34.6836 -0.5562,-5.225 -1.01735,-15.46669 -1.02735,-22.75781 -0.006,-4.93087 -0.19068,-9.65837 -0.54297,-14.13281 -0.35228,-4.47444 -0.87341,-8.69563 -1.55468,-12.61719 -0.68128,-3.92156 -1.52215,-7.54223 -2.51563,-10.81445 -0.99348,-3.27223 -2.13883,-6.19622 -3.42773,-8.72266 -0.7572,-1.48424 -1.84091,-3.12812 -3.13672,-4.8125 -1.29581,-1.68438 -2.80286,-3.40947 -4.40625,-5.05664 -1.6034,-1.64717 -3.30441,-3.21529 -4.98438,-4.58789 -1.67996,-1.3726 -3.33972,-2.54948 -4.86523,-3.41016 -1.39842,-0.78896 -4.56499,-2.02709 -8.53906,-3.38672 -3.97408,-1.35962 -8.75567,-2.84075 -13.38672,-4.11523 -4.17562,-1.14914 -7.86188,-2.10398 -11.7793,-2.98633 -3.91742,-0.88235 -8.06551,-1.69157 -13.16211,-2.54883 -10.19321,-1.714514 -24.18264,-3.621192 -47.7168,-6.685544 l -19.5,-2.539063 z"
       style="color:#000000;clip-rule:nonzero;display:inline;overflow:visible;visibility:visible;opacity:1;isolation:auto;mix-blend-mode:normal;color-interpolation:sRGB;color-interpolation-filters:linearRGB;solid-color:#000000;solid-opacity:1;fill:url(#linearGradient4756);fill-opacity:1;fill-rule:nonzero;stroke:none;stroke-width:1;stroke-linecap:butt;stroke-linejoin:miter;stroke-miterlimit:4;stroke-dasharray:none;stroke-dashoffset:0;stroke-opacity:1;color-rendering:auto;image-rendering:auto;shape-rendering:auto;text-rendering:auto;enable-background:accumulate" />
    <path
       id="path4976"
       d="m 560.50391,73.685547 c -10.27339,-0.02259 -23.10342,0.09572 -40.58594,0.232422 -18.9323,0.14804 -33.91162,0.299784 -46.00586,0.509765 -12.09424,0.209982 -21.30348,0.478829 -28.69922,0.861328 -7.39573,0.3825 -12.97767,0.877375 -17.81445,1.542969 -4.83679,0.665595 -8.92832,1.501282 -13.34571,2.560547 -28.87764,6.92471 -64.37669,15.057524 -70.5,16.152344 -2.55167,0.456225 -6.00082,1.236941 -9.82812,2.193359 -3.8273,0.956419 -8.03237,2.088742 -12.09375,3.248049 -4.06138,1.1593 -7.98045,2.34527 -11.23438,3.41015 -3.25393,1.06489 -5.8431,2.00849 -7.24804,2.68164 -1.45669,0.69795 -2.98404,1.54267 -4.5586,2.51172 -1.57455,0.96906 -3.1961,2.06296 -4.84375,3.26172 -3.29528,2.39753 -6.69279,5.21329 -10.01171,8.28125 -3.31893,3.06797 -6.55868,6.38772 -9.54297,9.79492 -2.9843,3.40721 -5.71252,6.90115 -8.00391,10.31641 -2.63071,3.92101 -5.64969,7.9144 -6.70898,8.87305 -0.52965,0.47932 -1.01034,1.16449 -1.35938,1.88281 -0.34903,0.71832 -0.56641,1.46977 -0.56641,2.08008 0,1.22061 -0.675,4.1324 -1.5,6.4707 -0.42001,1.19045 -0.79445,3.10735 -1.06445,5.27149 -0.26999,2.16413 -0.43555,4.5755 -0.43555,6.75195 0,3.42427 0.0953,5.54155 0.54102,7.44726 0.22284,0.95286 0.53236,1.85196 0.96289,2.83594 0.43053,0.98398 0.9812,2.05285 1.68359,3.3418 l 3.18946,5.85156 0.39258,33 c 0.18294,15.33853 0.23464,24.00285 -0.0684,31.5625 -0.15151,3.77982 -0.39114,7.28278 -0.74805,11.20703 -0.35691,3.92425 -0.83095,8.26903 -1.44922,13.73047 -0.7995,7.06231 -1.52444,14.67768 -2.18164,22.99024 -0.6572,8.31255 -1.24707,17.32292 -1.77734,27.17187 -0.53028,9.84895 -1.0012,20.5375 -1.41993,32.20899 -0.41873,11.67148 -0.78486,24.32529 -1.10742,38.10546 -0.26377,11.26873 -0.62012,22.55159 -0.98047,31.65235 -0.36034,9.10076 -0.72467,16.01941 -1.00781,18.55859 -0.56628,5.07837 -1.0293,13.39542 -1.0293,18.48242 0,2.5435 -0.16717,6.2656 -0.43554,10.21485 -0.26837,3.94924 -0.63794,8.12563 -1.04492,11.57422 -0.57529,4.87477 -1.10252,11.67106 -1.57618,20.18164 -0.47365,8.51058 -0.89455,18.73607 -1.2539,30.46875 -0.35936,11.73267 -0.65824,24.97261 -0.89063,39.51367 -0.23239,14.54106 -0.39747,30.38262 -0.49023,47.31836 -0.12066,22.02941 -0.12304,37.91554 0.008,48.78906 0.0654,5.43676 0.16539,9.62008 0.29883,12.69141 0.13344,3.07132 0.30098,5.03127 0.50586,6.01953 0.30894,1.49105 0.60231,3.8192 0.89258,7.24219 0.29026,3.42298 0.5773,7.94065 0.875,13.81054 0.5954,11.7398 1.23189,28.88855 2.01367,53.50586 0.31008,9.76397 0.69998,18.29975 1.13476,25.06445 0.43479,6.76471 0.91446,11.75833 1.4043,14.43555 0.85538,4.675 1.55589,9.9625 1.55664,11.75 5e-4,1.4083 -0.0845,2.22122 -0.44531,2.68164 -0.18042,0.23021 -0.42914,0.37239 -0.77149,0.45703 -0.34234,0.0846 -0.77807,0.11133 -1.33007,0.11133 -0.91841,0 -1.8441,0.27949 -2.71485,0.76563 -0.87075,0.48613 -1.68687,1.17886 -2.38867,2.00781 -0.70179,0.82894 -1.28767,1.79383 -1.69922,2.82226 -0.41154,1.02844 -0.64844,2.12047 -0.64844,3.20508 0,0.6214 0.0131,1.17597 0.10547,1.72461 0.0924,0.54865 0.26401,1.09073 0.58399,1.6875 0.31998,0.59677 0.78788,1.2479 1.4707,2.01367 0.68282,0.76578 1.58083,1.64746 2.76172,2.70313 2.36177,2.11133 5.85409,4.92181 11.01953,8.91797 5.16544,3.99615 12.00373,9.17737 21.05469,16.02539 4.41579,3.34102 7.91416,5.91529 11.08984,7.93945 1.58784,1.01208 3.09498,1.88602 4.59571,2.65039 1.50072,0.76437 2.99442,1.41924 4.55664,1.99024 1.56221,0.571 3.19253,1.05826 4.96484,1.49023 1.77231,0.43197 3.68735,0.80898 5.81836,1.15625 4.26202,0.69455 9.39004,1.27328 15.97851,1.95508 3.07299,0.318 5.68978,0.67843 7.99415,1.13672 2.30436,0.45829 4.29566,1.01408 6.11914,1.72461 1.82347,0.71052 3.47905,1.57568 5.10937,2.65039 1.63032,1.0747 3.23603,2.35932 4.96094,3.91015 1.2927,1.16226 2.72836,2.28065 4.40039,3.40625 1.67203,1.12561 3.58004,2.25797 5.8164,3.44532 4.47273,2.37468 10.25952,4.97168 18.09961,8.18359 4.95,2.0279 13.44737,5.73426 18.88282,8.23633 5.43544,2.50207 12.41044,5.38985 15.5,6.41601 1.26319,0.41956 2.40351,0.74351 3.7539,0.98633 1.3504,0.24283 2.91168,0.40511 5.01758,0.50195 4.21179,0.1937 10.60208,0.12561 21.8457,-0.0801 10.26004,-0.18769 17.20415,-0.41665 23.17383,-0.85938 5.96969,-0.44272 10.96495,-1.09921 17.32617,-2.14453 4.2625,-0.70044 8.71037,-1.33895 12.44336,-1.80273 3.73299,-0.46379 6.7511,-0.75286 8.15235,-0.75586 2.80249,-0.006 12.70249,-1.14647 22,-2.53516 16.42111,-2.45268 23.11413,-3.36479 29.46875,-4.68359 6.35461,-1.31881 12.37081,-3.04431 27.43554,-7.12696 9.03273,-2.44793 17.22069,-4.54284 24.18165,-6.19336 6.96095,-1.65051 12.69489,-2.85663 16.81835,-3.52734 4.11089,-0.66865 8.50478,-1.56349 12.90821,-2.60156 4.40343,-1.03807 8.81682,-2.21963 12.96484,-3.46289 4.14802,-1.24327 8.03035,-2.54778 11.375,-3.83203 3.34465,-1.28425 6.1512,-2.54797 8.14453,-3.70899 2.3263,-1.35496 4.79131,-2.9489 7.3418,-4.73047 2.55048,-1.78157 5.18583,-3.75085 7.85351,-5.85742 5.33537,-4.21313 10.79871,-8.97547 15.96094,-13.8789 5.16223,-4.90344 10.02305,-9.9477 14.15625,-14.72852 2.0666,-2.39041 3.9527,-4.71454 5.60157,-6.92188 1.64886,-2.20733 3.0614,-4.29805 4.18554,-6.2207 2.5179,-4.30641 5.09084,-9.02842 7.58789,-13.8789 2.49705,-4.85049 4.91734,-9.82851 7.12891,-14.64649 2.21157,-4.81798 4.21548,-9.47665 5.87695,-13.68555 1.66147,-4.20889 2.98138,-7.96894 3.82813,-10.99218 1.85247,-6.61392 3.26805,-11.86071 4.34179,-16.77149 1.07375,-4.91078 1.80602,-9.48491 2.29102,-14.75781 0.485,-5.2729 0.72236,-11.24308 0.80859,-18.94336 0.0862,-7.70028 0.021,-17.1313 -0.10156,-29.32422 -0.1539,-15.31367 -0.38273,-27.29895 -0.7168,-36.77539 -0.33406,-9.47644 -0.77335,-16.44403 -1.3457,-21.72461 -0.75002,-6.92006 -1.35483,-12.92814 -1.84766,-18.7168 -0.49282,-5.78865 -0.8743,-11.35771 -1.17968,-17.39648 -0.61077,-12.07755 -0.91577,-26.03705 -1.19532,-47.4043 -0.15295,-11.69223 -0.39757,-23.05039 -0.66796,-31.93164 -0.2704,-8.88125 -0.56657,-15.28559 -0.82422,-17.06836 -0.25765,-1.78277 -0.50282,-12.0661 -0.69141,-27.19726 -0.18859,-15.13116 -0.32061,-35.11016 -0.34961,-56.28516 -0.0288,-21.175 -0.15502,-42.56289 -0.33594,-59.96289 -0.18091,-17.4 -0.41646,-30.81211 -0.66211,-36.03711 -0.4913,-10.45 -1.54349,-34.525 -2.33789,-53.5 -0.3972,-9.4875 -0.93295,-19.79961 -1.47461,-28.77148 -0.54165,-8.97188 -1.08922,-16.60352 -1.51367,-20.72852 -0.8488,-8.25 -1.99588,-19.5 -2.55078,-25 -0.5549,-5.5 -1.02114,-15.65448 -1.03516,-22.56445 -0.0121,-5.87887 -0.26119,-11.53242 -0.73437,-16.90039 -0.47318,-5.36798 -1.16954,-10.44994 -2.08008,-15.1836 -0.91053,-4.73365 -2.03525,-9.1198 -3.35937,-13.0957 -0.66206,-1.98795 -1.37377,-3.87307 -2.13477,-5.64844 -0.761,-1.77537 -1.57076,-3.44092 -2.42773,-4.98828 -1.23148,-2.22357 -2.79111,-4.51381 -4.57813,-6.76953 -1.78702,-2.25572 -3.80106,-4.47606 -5.93945,-6.56445 -2.13839,-2.08839 -4.40191,-4.04405 -6.6875,-5.76563 -2.2856,-1.72158 -4.59364,-3.209931 -6.82227,-4.365232 -2.87557,-1.490655 -6.55351,-2.996557 -10.88086,-4.478516 -4.32734,-1.481958 -9.30456,-2.940285 -14.77929,-4.335937 -5.47474,-1.395652 -11.44594,-2.729201 -17.76368,-3.960937 -6.31773,-1.231737 -12.98153,-2.361351 -19.83789,-3.351563 -10.35372,-1.495309 -18.60645,-2.699838 -25.64453,-3.667969 -7.03807,-0.968131 -12.8621,-1.700083 -18.35351,-2.246094 -5.49141,-0.54601 -10.6515,-0.907772 -16.36524,-1.136718 -5.71373,-0.228947 -11.9805,-0.324858 -19.68554,-0.341797 z m 20.54882,17.691406 19.5,2.539063 c 23.53416,3.064352 37.52359,4.97103 47.7168,6.685544 5.0966,0.85726 9.24469,1.66648 13.16211,2.54883 3.91742,0.88235 7.60368,1.83719 11.7793,2.98633 4.63105,1.27448 9.41264,2.75561 13.38672,4.11523 3.97407,1.35963 7.14064,2.59776 8.53906,3.38672 1.52551,0.86068 3.18527,2.03756 4.86523,3.41016 1.67997,1.3726 3.38098,2.94072 4.98438,4.58789 1.60339,1.64717 3.11044,3.37226 4.40625,5.05664 1.29581,1.68438 2.37952,3.32826 3.13672,4.8125 1.2889,2.52644 2.43425,5.45043 3.42773,8.72266 0.99348,3.27222 1.83435,6.89289 2.51563,10.81445 0.68127,3.92156 1.2024,8.14275 1.55468,12.61719 0.35229,4.47444 0.53647,9.20194 0.54297,14.13281 0.01,7.29112 0.47115,17.53281 1.02735,22.75781 1.6687,15.67754 2.71895,26.04465 3.45703,34.6836 0.73808,8.63894 1.16398,15.5497 1.58398,24.3164 0.89495,18.67855 1.59634,33.86051 2.15625,47.58789 0.55991,13.72739 0.97919,25.99938 1.3086,38.86328 0.6588,25.72781 0.96026,53.81717 1.32421,100.61719 0.2151,27.65622 0.51004,52.95834 0.81055,71.44336 0.30052,18.48502 0.60661,30.15295 0.84766,30.54297 0.24105,0.39002 0.53923,5.30225 0.82422,12.90234 0.28499,7.60009 0.55679,17.88804 0.74804,29.0293 0.1912,11.14126 0.48967,21.95091 0.81641,30.39062 0.32673,8.43972 0.68173,14.50949 0.98633,16.17383 0.49072,2.68097 0.93925,6.03566 1.34375,10.04297 0.4045,4.00731 0.76419,8.66693 1.08008,13.95899 0.63177,10.5841 1.0847,23.69641 1.34765,39.16992 0.23635,13.90662 0.3212,21.72672 0.0957,27.59765 -0.11274,2.93547 -0.30379,5.38334 -0.59179,7.86133 -0.28801,2.478 -0.67266,4.9862 -1.17578,8.04102 -1.06853,6.4877 -2.03602,11.87068 -3.0625,16.64453 -1.02649,4.77385 -2.11189,8.93821 -3.41407,12.98633 -1.30217,4.04812 -2.82119,7.9805 -4.71679,12.29101 -1.8956,4.31051 -4.16786,8.99952 -6.97461,14.56055 -2.80445,5.55646 -5.88509,11.31601 -8.58789,16.11914 -2.70281,4.80313 -5.02777,8.64982 -6.32422,10.38086 -2.50797,3.34856 -5.96063,7.22902 -9.91992,11.26172 -3.95929,4.0327 -8.42531,8.21785 -12.96094,12.17187 -4.53563,3.95402 -9.13996,7.67849 -13.37695,10.79102 -2.1185,1.55626 -4.14562,2.95925 -6.02539,4.16211 -1.87978,1.20286 -3.61285,2.20488 -5.14454,2.95898 -1.8175,0.89483 -4.28177,1.87763 -7.14453,2.87696 -2.86275,0.99932 -6.1239,2.01442 -9.53711,2.97851 -3.4132,0.96409 -6.97842,1.8769 -10.44726,2.66602 -3.46885,0.78911 -6.84142,1.45529 -9.8711,1.92968 -4.00931,0.62778 -8.049,1.43874 -16.0664,3.39844 -8.0174,1.9597 -20.0125,5.06815 -39.9336,10.28906 -7.15,1.87387 -15.475,3.83737 -18.5,4.36329 -7.83317,1.36185 -18.01297,2.90602 -27.39453,4.19921 -9.38156,1.2932 -17.96488,2.33542 -22.60547,2.69336 -5.775,0.44544 -15.45,1.51092 -21.5,2.36719 -6.05,0.85628 -15.36103,2.03528 -20.6914,2.6211 -5.68168,0.62442 -11.52028,0.92839 -16.78516,0.91406 -2.63243,-0.007 -5.12021,-0.0937 -7.375,-0.25977 -2.25479,-0.1661 -4.27586,-0.41178 -5.9707,-0.73633 -1.32612,-0.25395 -3.67578,-1.00011 -6.39453,-1.99804 -2.71875,-0.99793 -5.80659,-2.24763 -8.60547,-3.50782 -5.59777,-2.52037 -14.90274,-6.56759 -20.67774,-8.99414 -9.1038,-3.82526 -14.18733,-6.01413 -17.60156,-7.78125 -1.70711,-0.88356 -2.99842,-1.66122 -4.16406,-2.48632 -1.16564,-0.82511 -2.20653,-1.69687 -3.41797,-2.76758 -2.49016,-2.20089 -4.8409,-4.03383 -7.24023,-5.57031 -2.39934,-1.53649 -4.8475,-2.77714 -7.53125,-3.79102 -2.68376,-1.01388 -5.60385,-1.80055 -8.94727,-2.43359 -3.34342,-0.63305 -7.10995,-1.11186 -11.48828,-1.50586 -6.76724,-0.60897 -11.63007,-1.2022 -15.36523,-1.93164 -1.86759,-0.36473 -3.45298,-0.76319 -4.85352,-1.21485 -1.40055,-0.45165 -2.61665,-0.95674 -3.74414,-1.5332 -1.63367,-0.83526 -5.05684,-3.16246 -9.39258,-6.33789 -4.33574,-3.17544 -9.58404,-7.1991 -14.86719,-11.42969 l -6.11328,-4.89648 -1.57812,-9.58594 c -1.29874,-7.88136 -2.35592,-14.82402 -3.22266,-21.45313 -0.86674,-6.6291 -1.54221,-12.94418 -2.07812,-19.57421 -0.53592,-6.63004 -0.93204,-13.57483 -1.23829,-21.45899 -0.30624,-7.88415 -0.52343,-16.70815 -0.70117,-27.09961 -0.19761,-11.55344 -0.46658,-20.98215 -0.80273,-28.18359 -0.33616,-7.20145 -0.73949,-12.17562 -1.20508,-14.81641 -0.32534,-1.84533 -0.59646,-5.25826 -0.81445,-9.92773 -0.21799,-4.66948 -0.38245,-10.59496 -0.49805,-17.46289 -0.23119,-13.73586 -0.26389,-31.24393 -0.11523,-50.01954 0.14866,-18.7756 0.47792,-38.819 0.96679,-57.6289 0.48887,-18.8099 1.13829,-36.38586 1.92774,-50.22461 0.54164,-9.4949 1.26146,-17.71067 1.59961,-18.25781 0.23251,-0.37622 0.56525,-4.40377 0.94921,-10.93164 0.38397,-6.52788 0.81973,-15.5569 1.25782,-25.93164 0.87617,-20.74949 1.7627,-46.8871 2.27148,-69.19532 0.24824,-10.88411 0.59293,-21.723 0.94727,-30.41797 0.35434,-8.69496 0.71833,-15.24601 1.00781,-17.55468 0.57897,-4.61735 1.05273,-11.95505 1.05273,-16.30664 0,-2.1758 0.34819,-7.37348 0.90821,-13.99414 0.56002,-6.62066 1.33187,-14.66429 2.18164,-22.53321 0.74807,-6.92718 1.31342,-12.2471 1.73437,-16.84375 0.42096,-4.59665 0.69782,-8.4707 0.86524,-12.50781 0.16741,-4.03711 0.22543,-8.23581 0.21289,-13.48438 -0.0125,-5.24856 -0.0959,-11.54633 -0.21485,-19.77734 -0.16907,-11.70256 -0.41296,-21.02055 -0.75,-28.3164 -0.33704,-7.29586 -0.76723,-12.56957 -1.30664,-16.1836 -0.63095,-4.22738 -1.09279,-7.49304 -1.34765,-10.14062 -0.25487,-2.64758 -0.30279,-4.67699 -0.10352,-6.42969 0.19927,-1.7527 0.6455,-3.22875 1.37696,-4.77149 0.73145,-1.54273 1.74815,-3.15222 3.08984,-5.16992 2.23595,-3.36254 4.50925,-6.47465 6.83789,-9.35742 2.32864,-2.88277 4.7135,-5.53675 7.17383,-7.97852 2.46032,-2.44176 4.99593,-4.6714 7.62695,-6.71093 2.63102,-2.03953 5.35655,-3.88839 8.19727,-5.56446 0.90706,-0.53517 3.28626,-1.43654 6.46484,-2.50585 3.17858,-1.06932 7.1558,-2.3057 11.26172,-3.51368 4.10592,-1.20798 8.34022,-2.3867 12.0293,-3.33789 3.68907,-0.95118 6.83366,-1.67568 8.76171,-1.97461 4.04039,-0.62641 43.62937,-9.57987 71,-16.056638 4.73313,-1.120012 8.47711,-1.970879 12.53907,-2.625 4.06195,-0.65412 8.44095,-1.11172 14.44726,-1.445312 6.00632,-0.333592 13.63888,-0.542744 24.20508,-0.701172 10.5662,-0.158428 24.06698,-0.265904 41.80859,-0.394531 l 68.5,-0.496094 z"
       style="color:#000000;clip-rule:nonzero;display:inline;overflow:visible;visibility:visible;opacity:1;isolation:auto;mix-blend-mode:normal;color-interpolation:sRGB;color-interpolation-filters:linearRGB;solid-color:#000000;solid-opacity:1;fill:url(#linearGradient4750);fill-opacity:1;fill-rule:nonzero;stroke:none;stroke-width:1;stroke-linecap:butt;stroke-linejoin:miter;stroke-miterlimit:4;stroke-dasharray:none;stroke-dashoffset:0;stroke-opacity:1;color-rendering:auto;image-rendering:auto;shape-rendering:auto;text-rendering:auto;enable-background:accumulate" />
    <path
       id="path5963"
       d="m 557.05273,430.59375 c -4.49555,0 -10.91237,3.31198 -13.75195,7.09766 -1.38568,1.84737 -3.28904,6.05937 -4.23047,9.35937 -0.94142,3.3 -3.96346,12.075 -6.71484,19.5 -2.75139,7.425 -5.47979,16.04499 -6.0625,19.15625 -0.91855,4.90441 -1.40418,5.72872 -3.65039,6.19922 -5.69852,1.19364 -32.84062,6.93854 -36.58985,7.74414 -10.72019,2.30346 -34.04334,5.75053 -34.62304,5.11719 -0.36074,-0.39413 -2.97022,-6.3418 -5.79883,-13.2168 -7.15818,-17.3981 -8.03668,-18.94493 -12.40234,-21.83398 -5.20508,-3.44456 -13.75281,-4.07385 -18.6504,-1.37305 -5.52472,3.04664 -9.23842,8.37025 -9.78124,14.01953 -0.41479,4.31661 0.18879,6.35932 5.14257,17.39258 3.08713,6.8758 5.61328,12.7415 5.61328,13.03711 0,0.29561 -1.4625,0.75126 -3.25,1.01172 -1.7875,0.26046 -6.50997,1.20231 -10.49414,2.09375 -6.86024,1.53496 -20.97123,3.60629 -38.73437,5.68359 -10.52715,1.2311 -16.15461,4.13187 -19.20508,9.90039 -4.66442,8.82055 -1.69692,19.32282 6.73633,23.84766 3.96091,2.12521 5.37681,2.33622 12.94726,1.91601 4.675,-0.25949 15.25,-1.4194 23.5,-2.57617 13.79053,-1.93364 18.19214,-2.7427 33.25,-6.11133 2.88797,-0.64607 5.78334,-0.998 6.4336,-0.78125 1.32399,0.44133 2.99195,7.42462 5.32226,22.27344 1.67108,10.64813 2.79979,16.02417 3.89649,18.57422 0.5674,1.3193 -1.23642,1.93941 -11.11328,3.82031 -6.48438,1.23485 -13.19792,2.681 -14.91797,3.21289 -2.60955,0.80695 -3.93412,0.53252 -8,-1.65039 -4.14891,-2.22748 -5.8539,-2.56295 -11.48242,-2.26172 -5.4151,0.28981 -7.29025,0.87233 -10.36914,3.22071 -4.37016,3.33329 -7.62833,9.94861 -7.54493,15.32031 0.0321,2.0694 -0.20907,6.23867 -0.53711,9.26367 -0.49912,4.60252 -0.20817,6.22571 1.78516,9.94727 2.30622,4.30574 7.18315,7.87892 12.73242,9.33007 2.04709,0.53534 2.15744,0.97061 1.52539,6.0293 -0.83497,6.68289 1.6881,13.27988 6.41602,16.77539 2.28117,1.68653 3.1089,3.10466 3.125,5.35547 0.0121,1.68407 0.83753,4.8625 1.83398,7.0625 0.99646,2.2 2.1454,5.35 2.55469,7 1.13077,4.55859 5.38827,9.50409 9.97266,11.58594 3.50166,1.59017 6.58021,1.86398 20.61718,1.83008 9.075,-0.0219 19.7625,-0.36779 23.75,-0.76758 3.9875,-0.39982 7.25,-0.40833 7.25,-0.0195 0,0.3888 0.25688,1.37928 0.57227,2.20117 0.46061,1.20032 -0.76905,1.62611 -6.25,2.16211 -3.75289,0.36701 -16.27227,1.76984 -27.82227,3.11719 -44.10998,5.1456 -38.81592,4.90931 -44.69335,1.98046 -2.86009,-1.42523 -6.62335,-2.58984 -8.36329,-2.58984 -1.80256,0 -7.17021,2.04566 -12.47656,4.75586 -8.10111,4.13732 -9.61603,5.3277 -11.64062,9.15625 -4.77274,9.0254 -1.69254,19.47882 7.0664,23.98633 4.02458,2.07112 5.25761,3.46177 8.01367,9.02539 1.79177,3.61702 4.19296,9.05117 5.33594,12.07617 2.78398,7.36806 10.8435,35.11276 12.2168,42.0586 3.05872,15.4702 21.11311,20.1681 31.07226,8.08593 3.86628,-4.69047 4.52692,-8.75009 3.0254,-18.57617 -0.98494,-6.44553 -11.43519,-41.59379 -14.47852,-48.69531 -0.89702,-2.09319 -0.0716,-2.2864 20.42187,-4.78125 26.55969,-3.23334 34.3286,-4.08685 37.25,-4.08985 l 2.75,-0.002 0,10.75 c 0,14.33903 -3.93841,33.18865 -6.95898,33.3125 -16.64704,0.68259 -23.05661,1.68057 -26.83008,4.17774 -11.39449,7.54051 -10.25284,24.68826 2.03906,30.63867 5.00262,2.42173 9.75699,2.62471 24.96094,1.0664 21.58788,-2.21263 22.69925,-2.61408 54.14453,-19.48632 12.15537,-6.52207 15.52102,-10.19252 16.38672,-17.87305 1.42104,-12.60742 -12.46646,-23.07082 -24.14453,-18.19141 -2.11308,0.8829 -3.9004,1.60653 -3.9707,1.60742 -0.0703,8.9e-4 0.009,-6.29911 0.17578,-14 l 0.30273,-14.00195 22.58203,0 22.58204,0 -2.76172,2.16992 c -3.28594,2.58472 -6.45573,9.12599 -6.48633,13.38282 -0.0398,5.5302 4.96826,13.42804 15.54297,24.51367 12.79484,13.41303 16.96573,18.69011 22.87304,28.93164 4.26153,7.38824 4.60332,8.44259 3.63282,11.22656 -2.84778,8.16915 0.35934,17.18507 7.6289,21.44531 2.47927,1.45296 10.1989,4.60664 17.1543,7.00977 6.95539,2.40312 14.76407,5.26395 17.35352,6.35547 2.58946,1.09152 7.08946,2.62477 10,3.4082 11.92835,3.21074 20.80737,0.79965 25.30273,-6.87109 3.88783,-6.63409 4.1535,-11.79998 1.06055,-20.58594 -4.07669,-11.58039 -8.63274,-27.71296 -10.16407,-35.98633 -1.28273,-6.93024 -1.1857,-9.29862 1.27735,-31.16992 2.38813,-21.20603 2.53322,-24.40949 1.39453,-30.78125 -2.24811,-12.57964 -10.07618,-20.78885 -21.96484,-23.0332 -2.96257,-0.55927 -11.51257,-1.06485 -19,-1.12305 -7.48743,-0.0582 -17.66329,-0.39574 -22.61329,-0.75 -8.64286,-0.61855 -8.86705,-0.69324 -5.61132,-1.89063 6.16186,-2.26622 15.94056,-13.7277 23.7539,-27.8457 8.22051,-14.85372 10.36415,-21.14355 10.33985,-30.33789 -0.0405,-15.32277 -4.56601,-27.61616 -13.0625,-35.48242 -10.95416,-10.14161 -24.10322,-14.46398 -55.41993,-18.21875 -18.95209,-2.27229 -23.34047,-2.46173 -45,-1.9375 -13.2,0.31949 -26.15754,0.85041 -28.79492,1.17969 -4.69591,0.58628 -4.78406,0.54868 -4.18359,-1.84375 0.80053,-3.18958 -1.22379,-21.46145 -3.05078,-27.5293 -0.78456,-2.60571 -1.7103,-7.23861 -2.05664,-10.29688 l -0.63086,-5.56054 8.35937,-1.26758 c 9.14034,-1.38503 22.39182,-3.97639 36.30664,-7.10156 4.92214,-1.10547 9.28868,-2.00977 9.70313,-2.00977 0.41445,0 0.4902,2.21173 0.16992,4.91602 -1.2608,10.64549 6.80785,19.58398 17.67773,19.58398 10.73586,0 17.04596,-6.99948 19.09766,-21.18164 1.32485,-9.15794 2.32498,-11.31836 5.23828,-11.31836 1.30841,0 12.00561,-1.83184 23.77149,-4.07031 17.67015,-3.36176 24.87264,-4.23556 41.39257,-5.02344 11,-0.52462 21.86784,-1.43965 24.15235,-2.0332 7.22154,-1.87626 12.34765,-8.87996 12.34765,-16.87305 0,-5.17604 -1.50067,-8.85597 -5.1582,-12.64844 -4.42032,-4.58343 -9.89399,-5.78992 -22.13867,-4.88086 -5.61214,0.41666 -14.71392,0.91227 -20.22656,1.09961 -5.51263,0.18733 -13.83763,1.02754 -18.5,1.86914 -14.74915,2.66239 -24.36975,4.44685 -27.83985,5.16211 l -3.36133,0.69336 0.73633,-3.35351 c 0.40491,-1.84358 2.58156,-7.87151 4.83594,-13.39649 3.61343,-8.85571 4.1014,-11.00097 4.125,-18.11914 0.0244,-7.37879 -0.22198,-8.40101 -2.85742,-11.85937 -3.17787,-4.17013 -9.46807,-7.52344 -14.11524,-7.52344 z M 518.59961,619.8418 c 8.53696,0.26877 16.85449,0.82064 24.58984,1.66797 18.58071,2.03532 30.48921,4.8797 33.77539,8.0664 1.26853,1.23012 2.04656,3.64297 2.3086,7.16406 0.34949,4.69617 -0.0821,6.20569 -3.72461,13.06055 -4.13908,7.78931 -4.81855,8.3303 -8.4961,6.75 -1.1,-0.47269 -8.37847,-0.89109 -16.17382,-0.92969 l -14.17383,-0.0703 1.54101,-3.08789 c 2.34985,-4.71038 1.34266,-12.86448 -2.15429,-17.44922 -4.80034,-6.29357 -8.77526,-7.4162 -26.35547,-7.4414 -15.15321,-0.0217 -15.35688,-0.0508 -18.92383,-2.77149 -3.09859,-2.36341 -4.53974,-2.75 -10.25977,-2.75 -5.73453,0 -7.16031,0.38256 -10.29492,2.77344 l -3.63672,2.77539 -16.28515,-0.27539 -16.28321,-0.27344 11.5,-2.30078 c 19.84186,-3.96998 47.43601,-5.71451 73.04688,-4.9082 z m -93.85938,8.02539 c 0.79773,0.31922 0.55949,0.55551 -0.60546,0.60351 -1.05416,0.0434 -1.64479,-0.1931 -1.3125,-0.52539 0.33229,-0.33225 1.19608,-0.36699 1.91796,-0.0781 z m 74.8125,63.68359 29.69532,0 29.69726,0 3.80274,2.63477 c 2.09206,1.4498 3.80468,2.7998 3.80468,3 0,0.20015 -2.1375,0.25959 -4.75,0.13086 -2.6125,-0.12873 -17.6875,-0.36093 -33.5,-0.51563 l -28.75,-0.28125 0,-2.48437 0,-2.48438 z m 68.23829,42.44727 c 0.14374,-0.133 4.98671,0.16638 10.76171,0.66601 5.775,0.49962 16.48359,1.1878 23.79883,1.5293 l 13.30078,0.62109 -0.51953,2.61719 c -0.2862,1.43981 -1.05035,7.11914 -1.69726,12.61914 -0.64692,5.5 -1.44718,16.075 -1.7793,23.5 l -0.60352,13.5 -6.49609,-10.5 c -6.85031,-11.0748 -12.61053,-18.21515 -27.75976,-34.40625 -5.09737,-5.44792 -9.1496,-10.01347 -9.00586,-10.14648 z"
       style="fill:url(#linearGradient4706)" />
    <path
       id="path5961"
       d="m 535.05273,322.05078 c -56.37173,0 -68.41551,0.75107 -104.57617,6.52149 -13.98321,2.23141 -36.22383,5.62415 -49.42383,7.54101 -13.2,1.91686 -26.31964,4.14941 -29.15429,4.96094 -2.83465,0.81154 -6.70241,1.47656 -8.59375,1.47656 -5.44629,0 -11.79228,3.93464 -14.44922,8.95899 -4.62952,8.75455 -1.66226,19.33935 6.65625,23.73828 4.86402,2.57216 15.65808,3.17976 22.04687,1.24218 1.92137,-0.58271 14.96914,-2.81526 28.99414,-4.96093 14.025,-2.14567 36.975,-5.69203 51,-7.88282 32.86168,-5.1332 55.54741,-6.60568 101,-6.55468 34.11162,0.0383 38.75751,0.26539 71,3.49023 25.20167,2.52063 39.35721,3.45299 52.52539,3.45899 17.32142,0.008 18.21988,-0.0899 22.9336,-2.51563 11.73415,-6.0386 12.71908,-23.34725 1.71875,-30.1875 -3.41979,-2.12649 -5.12239,-2.3302 -24.17774,-2.88867 -11.275,-0.33044 -33.55,-1.90544 -49.5,-3.5 -27.65691,-2.76492 -31.26936,-2.89844 -78,-2.89844 z"
       style="fill:#000000" />
    <path
       id="path5959"
       d="m 568.4375,226.81641 c -6.30761,-0.0964 -16.84774,1.05462 -28.88477,3.23437 -4.675,0.84659 -17.05,1.95468 -27.5,2.46289 -37.20483,1.80933 -51.42758,3.88622 -82.375,12.02735 -12.12538,3.18974 -16.37539,3.91304 -20.10742,3.41796 -6.18462,-0.82041 -12.68006,1.9699 -16.62695,7.14454 -2.51935,3.30305 -2.89063,4.64825 -2.89063,10.44726 0,5.74981 0.38043,7.15487 2.80079,10.32813 3.20212,4.1982 7.0352,6.44251 13.02539,7.62695 7.259,1.43532 12.38283,1.11424 21.91015,-1.375 5.09437,-1.33102 15.43019,-4.03496 22.9668,-6.00781 15.81851,-4.14078 32.98833,-6.28251 60.79687,-7.58594 11.41281,-0.53493 25.72091,-1.92384 34.5,-3.34766 8.25,-1.33802 17.42725,-2.72851 20.39454,-3.08984 9.84028,-1.19828 15.88602,-5.75084 18.28906,-13.77149 2.46898,-8.24069 -3.14662,-18.48828 -11.50391,-20.99218 -1.06046,-0.31773 -2.69238,-0.4874 -4.79492,-0.51953 z"
       style="fill:#000000" />
  </g>
</svg>
