<?xml version="1.0" encoding="UTF-8" standalone="no"?>
<svg
   xmlns:osb="http://www.openswatchbook.org/uri/2009/osb"
   xmlns:dc="http://purl.org/dc/elements/1.1/"
   xmlns:cc="http://creativecommons.org/ns#"
   xmlns:rdf="http://www.w3.org/1999/02/22-rdf-syntax-ns#"
   xmlns:svg="http://www.w3.org/2000/svg"
   xmlns="http://www.w3.org/2000/svg"
   xmlns:xlink="http://www.w3.org/1999/xlink"
   version="1.1"
   id="svg2985"
   height="901.63983"
   width="558.24652">
  <defs
     id="defs5498">
    <linearGradient
       osb:paint="solid"
       id="linearGradient4756">
      <stop
         id="stop4758"
         offset="0"
         style="stop-color:#ffffff;stop-opacity:1;" />
    </linearGradient>
    <linearGradient
       osb:paint="solid"
       id="linearGradient4750">
      <stop
         id="stop4752"
         offset="0"
         style="stop-color:#000000;stop-opacity:1;" />
    </linearGradient>
    <linearGradient
       osb:paint="solid"
       id="linearGradient5694">
      <stop
         id="stop5696"
         offset="0"
         style="stop-color:#002b11;stop-opacity:1;" />
    </linearGradient>
    <linearGradient
       osb:paint="solid"
       id="linearGradient4712">
      <stop
         id="stop4714"
         offset="0"
         style="stop-color:#162d50;stop-opacity:1;" />
    </linearGradient>
    <linearGradient
       osb:paint="solid"
       id="linearGradient4706">
      <stop
         id="stop4708"
         offset="0"
         style="stop-color:#d40000;stop-opacity:1;" />
    </linearGradient>
    <linearGradient
       gradientUnits="userSpaceOnUse"
       y2="508.69208"
       x2="761.44257"
       y1="508.69208"
       x1="262.13925"
       id="linearGradient4716"
       xlink:href="#linearGradient4712" />
    <linearGradient
       gradientUnits="userSpaceOnUse"
       y2="500.0004"
       x2="771.30902"
       y1="500.0004"
       x1="228.69211"
       id="linearGradient4754"
       xlink:href="#linearGradient4750" />
    <linearGradient
       gradientUnits="userSpaceOnUse"
       y2="500.10483"
       x2="752.40271"
       y1="500.10483"
       x1="248.61133"
       id="linearGradient4760"
       xlink:href="#linearGradient4756" />
    <linearGradient
       y2="508.69208"
       x2="761.44257"
       y1="508.69208"
       x1="262.13925"
       gradientUnits="userSpaceOnUse"
       id="linearGradient501"
       xlink:href="#linearGradient4712" />
    <linearGradient
       y2="508.69208"
       x2="761.44257"
       y1="508.69208"
       x1="262.13925"
       gradientUnits="userSpaceOnUse"
       id="linearGradient503"
       xlink:href="#linearGradient4712" />
    <linearGradient
       y2="508.69208"
       x2="761.44257"
       y1="508.69208"
       x1="262.13925"
       gradientUnits="userSpaceOnUse"
       id="linearGradient505"
       xlink:href="#linearGradient4712" />
  </defs>
  <metadata
     id="metadata5594">
    <rdf:RDF>
      <cc:Work
         rdf:about="">
        <dc:format>image/svg+xml</dc:format>
        <dc:type
           rdf:resource="http://purl.org/dc/dcmitype/StillImage" />
        <dc:title />
      </cc:Work>
    </rdf:RDF>
  </metadata>
  <g
     transform="translate(-220.87655,-49.180117)"
     style="display:inline"
     id="layer24">
    <path
       id="path4970"
       d="m 645.62305,66.558594 c -16.48323,0.03855 -40.6111,0.574485 -61.86719,1.265625 -10.62805,0.34557 -20.53911,0.730851 -28.41602,1.111328 -7.8769,0.380477 -13.7206,0.756047 -16.21679,1.085937 -2.3375,0.308915 -7.72461,0.69312 -14.52149,1.064454 -6.79687,0.371333 -15.00351,0.729794 -22.97851,0.984374 -17.01754,0.543245 -27.61135,0.989566 -36.7168,1.748047 -4.55272,0.379241 -8.73338,0.836624 -13.1582,1.423829 -4.42483,0.587204 -9.09466,1.303234 -14.625,2.201171 -5.33281,0.865865 -10.61954,1.827736 -15.76172,2.863282 -5.14218,1.035545 -10.13999,2.145448 -14.89453,3.302734 -4.75455,1.157286 -9.26564,2.362664 -13.43555,3.59375 -4.16991,1.231086 -7.99846,2.487196 -11.38672,3.744141 -5.93751,2.20264 -13.99632,4.941377 -17.9082,6.085937 -1.95594,0.572285 -4.91496,1.630105 -8.10742,2.873047 -3.19246,1.24294 -6.61836,2.67101 -9.50586,3.98437 -5.775,2.62674 -11.175,5.0569 -12,5.4004 -0.825,0.34349 -8.55881,5.02106 -17.1875,10.39453 -4.14209,2.57945 -8.39181,5.39974 -12.65039,8.38476 -4.25858,2.98502 -8.52693,6.13508 -12.70508,9.37305 -4.17815,3.23797 -8.26521,6.56403 -12.16602,9.90234 -3.90081,3.33831 -7.61446,6.68858 -11.04101,9.97461 -1.95075,1.87076 -3.44939,3.32735 -4.63867,4.57813 -1.18929,1.25077 -2.0697,2.29524 -2.7793,3.34179 -0.70961,1.04656 -1.25001,2.09542 -1.76172,3.35352 -0.51171,1.2581 -0.99425,2.72593 -1.58984,4.61133 -1.38538,4.38552 -3.62973,13.43518 -4.98829,20.11133 -1.35856,6.67616 -3.38282,16.18867 -4.49804,21.13867 -1.01699,4.51395 -2.09226,11.24541 -3.09766,18.8164 -1.0054,7.571 -1.94173,15.98062 -2.67773,23.85157 -0.73601,7.87094 -1.27168,15.20339 -1.48047,20.61718 -0.1044,2.7069 -0.12653,4.93412 -0.0508,6.50977 0.0757,1.57565 0.24899,2.49984 0.53711,2.59961 0.62521,0.21648 2.14525,1.48152 3.37695,2.81055 0.38588,0.41637 0.73391,0.91878 1.04687,1.53125 0.31297,0.61246 0.59047,1.33468 0.83399,2.1875 0.48704,1.70563 0.83821,3.93656 1.06836,6.86914 0.23014,2.93258 0.33876,6.56649 0.33984,11.08007 10e-4,4.51359 -0.10452,9.90682 -0.30469,16.35547 -0.35461,11.4245 -1.00245,45.29649 -1.43945,75.27149 -0.2185,14.9875 -0.48921,28.78164 -0.75,38.93164 -0.26079,10.15 -0.51165,16.65586 -0.68945,17.06836 -0.35144,0.81534 -0.7745,2.94099 -1.22266,5.94336 -0.44815,3.00236 -0.92082,6.88127 -1.375,11.20703 -0.90835,8.65151 -1.73864,19.08635 -2.12695,27.84961 -0.45087,10.175 -1.38629,25.23245 -2.07813,33.46094 -0.49113,5.84121 -0.74178,10.16147 -0.7539,14.05468 -0.0121,3.89322 0.2143,7.3594 0.67383,11.49219 0.33677,3.02868 0.63722,9.57375 0.85742,17.96875 0.2202,8.395 0.36015,18.63995 0.37695,29.07031 0.0162,10.02483 0.13672,20.71285 0.31836,29.85743 0.18164,9.14457 0.42435,16.7457 0.68359,20.5957 0.51847,7.7 1.34589,20.975 1.83789,29.5 0.47545,8.23839 1.07522,16.47627 1.83399,25.09765 0.75876,8.62139 1.67651,17.62629 2.78711,27.40235 0.34332,3.02213 0.87203,6.27842 1.625,9.91406 0.75297,3.63564 1.73085,7.65083 2.97265,12.18945 1.24181,4.53863 2.74682,9.60095 4.55665,15.33203 1.80982,5.73109 3.92382,12.13073 6.38085,19.34376 1.10346,3.23938 2.77642,8.7861 4.58399,15.11328 1.80757,6.32717 3.74974,13.43482 5.38867,19.79492 2.07629,8.05733 3.80456,14.26267 5.28906,18.9414 1.48451,4.67874 2.72525,7.83087 3.82422,9.7793 1.20441,2.13538 2.61463,4.39463 4.14258,6.66406 1.52795,2.26944 3.17405,4.55003 4.84766,6.72266 1.6736,2.17263 3.37425,4.23903 5.01562,6.08398 1.64138,1.84496 3.22303,3.46749 4.6543,4.75391 1.61882,1.455 4.10367,3.19874 7.04492,5.01953 2.94125,1.82079 6.33935,3.71824 9.7832,5.48438 3.44385,1.76613 6.93393,3.40036 10.06055,4.6914 3.12662,1.29104 5.88933,2.23927 7.87891,2.63477 3.26311,0.64866 9.53164,2.20436 13.93164,3.45703 4.4,1.25267 11.825,3.2928 16.5,4.53516 4.675,1.24237 12.1,3.28337 16.5,4.53515 4.4,1.25177 12.05,3.01981 17,3.92774 4.95,0.90793 10.93685,2.35595 13.30273,3.21875 1.18295,0.4314 4.58789,1.25251 9.11914,2.22851 4.53125,0.976 10.18881,2.10689 15.88086,3.15625 l 20.69727,3.81641 37.5,0.0742 c 10.7197,0.0217 20.73762,-0.0688 28.5039,-0.23828 7.76629,-0.16945 13.28095,-0.41782 14.9961,-0.71094 3.3,-0.56397 10.75765,-1.43003 16.57226,-1.92578 2.90731,-0.24788 8.07344,-0.94085 14.05469,-1.85742 5.98125,-0.91658 12.77762,-2.05677 18.94531,-3.19922 12.33539,-2.28491 26.92774,-4.96392 32.42774,-5.95313 2.00697,-0.36097 4.06296,-0.83525 6.15039,-1.41211 2.08743,-0.57685 4.20682,-1.25591 6.33789,-2.02929 4.26213,-1.54676 8.57331,-3.4669 12.78906,-5.6836 4.21575,-2.2167 8.33614,-4.73113 12.21094,-7.46289 1.93739,-1.36588 3.81245,-2.78635 5.60937,-4.25195 1.79693,-1.4656 3.51514,-2.97552 5.13477,-4.52149 2.57933,-2.46202 4.26287,-4.27738 5.60547,-6.26367 0.6713,-0.99314 1.25817,-2.02747 1.82812,-3.20898 0.56995,-1.18151 1.12331,-2.50924 1.73047,-4.08399 1.36567,-3.54203 2.58312,-7.18968 3.67383,-11.04492 1.09071,-3.85523 2.05446,-7.91817 2.91016,-12.29101 0.85569,-4.37285 1.605,-9.05554 2.26562,-14.1504 0.66062,-5.09485 1.23279,-10.60176 1.73828,-16.62304 0.34629,-4.125 1.10567,-11.1 1.6875,-15.5 0.29091,-2.2 0.64624,-11.96172 0.98438,-25.91797 0.33813,-13.95625 0.65906,-32.10703 0.88086,-51.08203 0.48331,-41.34736 1.11676,-77.81562 1.80078,-105.40039 0.34201,-13.79239 0.69569,-25.36472 1.05078,-34.21485 0.35509,-8.85012 0.71126,-14.97798 1.05469,-17.88476 0.55235,-4.675 1.28616,-13.225 1.6289,-19 0.16803,-2.83125 0.48447,-6.1831 0.98438,-10.2832 0.49991,-4.10011 1.18389,-8.9489 2.08593,-14.77149 1.8041,-11.64518 4.48215,-27.18852 8.31641,-48.44531 2.67861,-14.85 5.16042,-29.025 5.51563,-31.5 0.35522,-2.475 1.73464,-8.55 3.0664,-13.5 1.33176,-4.95 3.12244,-13.275 3.97852,-18.5 0.85608,-5.225 2.64352,-13.325 3.97265,-18 1.32913,-4.675 2.9068,-11.31169 3.50586,-14.74805 0.59906,-3.43636 1.77712,-8.16136 2.61719,-10.5 0.84007,-2.33864 1.96743,-6.95195 2.50586,-10.25195 0.53842,-3.3 1.85203,-8.84224 2.91797,-12.31641 0.56187,-1.83125 1.52722,-6.3479 2.66016,-12.18164 1.13293,-5.83373 2.43441,-12.98407 3.66406,-20.08203 1.22965,-7.09796 2.38823,-14.14364 3.24023,-19.76758 0.85201,-5.62394 1.39649,-9.82662 1.39649,-11.23828 0,-1.13251 0.3369,-3.7285 0.87695,-7.08594 0.54005,-3.35743 1.28271,-7.47643 2.0918,-11.6582 1.61817,-8.36354 3.50396,-16.97505 4.57226,-20.23242 0.98966,-3.01757 1.8265,-6.06295 2.52344,-9.25586 0.69694,-3.19292 1.25442,-6.53414 1.6875,-10.14258 0.43308,-3.60844 0.74139,-7.48391 0.93945,-11.74805 0.19807,-4.26413 0.28545,-8.91616 0.27735,-14.07617 -0.0108,-6.89715 -0.1372,-12.8287 -0.4668,-18.3457 -0.3296,-5.51701 -0.86211,-10.61889 -1.68359,-15.85938 -0.82149,-5.24048 -1.93155,-10.6199 -3.41797,-16.6875 -1.48642,-6.06759 -3.34943,-12.82393 -5.67383,-20.82226 -2.47746,-8.525 -4.82578,-17.075 -5.2168,-19 -0.26128,-1.28629 -0.69045,-2.67883 -1.26172,-4.14453 -0.57126,-1.46571 -1.28375,-3.00402 -2.11328,-4.58008 -1.65904,-3.15212 -3.78432,-6.45558 -6.16601,-9.634767 -2.38169,-3.179182 -5.02045,-6.234887 -7.71094,-8.888672 -1.34525,-1.326892 -2.70398,-2.552575 -4.04883,-3.644531 -1.34485,-1.091956 -2.67602,-2.049929 -3.96875,-2.837891 -1.70068,-1.036627 -4.10067,-2.217527 -6.96289,-3.457031 -2.86222,-1.239504 -6.18581,-2.537208 -9.73242,-3.808594 -3.54661,-1.271385 -7.31645,-2.516164 -11.07031,-3.648437 -3.75386,-1.132273 -7.4926,-2.152445 -10.97657,-2.974609 -2.85074,-0.672737 -5.09725,-1.185666 -7.20507,-1.576172 -2.10783,-0.390507 -4.07719,-0.657666 -6.37305,-0.839844 -4.59172,-0.364356 -10.49026,-0.386878 -21.41992,-0.361328 z"
       style="color:#000000;clip-rule:nonzero;display:inline;overflow:visible;visibility:visible;opacity:1;isolation:auto;mix-blend-mode:normal;color-interpolation:sRGB;color-interpolation-filters:linearRGB;solid-color:#000000;solid-opacity:1;fill:url(#linearGradient4756);fill-opacity:1;fill-rule:nonzero;stroke:none;stroke-width:1;stroke-linecap:butt;stroke-linejoin:miter;stroke-miterlimit:4;stroke-dasharray:none;stroke-dashoffset:0;stroke-opacity:1;color-rendering:auto;image-rendering:auto;shape-rendering:auto;text-rendering:auto;enable-background:accumulate" />
    <path
       id="path4968"
       d="m 656.12305,49.277344 c -8.50765,-0.16546 -20.39157,-0.111832 -33.72852,0.09961 -13.33694,0.211441 -28.12686,0.581265 -42.44336,1.044922 -14.3165,0.463657 -28.16112,1.022093 -39.60742,1.613281 -11.4463,0.591189 -20.49434,1.214558 -25.2207,1.808594 -2.3375,0.29379 -7.21797,0.612256 -13.19922,0.888672 -5.98125,0.276415 -13.06328,0.51078 -19.80078,0.636719 -10.86597,0.203109 -17.62725,0.417665 -24.16602,0.972656 -6.53877,0.554991 -12.85503,1.450418 -22.83398,3.015625 -6.1875,0.970515 -12.65625,2.078865 -18.09375,3.082031 -5.4375,1.003166 -9.84375,1.90115 -11.90625,2.453125 -4.125,1.10395 -10.425,2.708686 -14,3.566406 -3.575,0.85772 -10.55,3.113469 -15.5,5.011719 -4.95,1.89825 -13.50031,4.827123 -19,6.507813 -3.25885,0.995897 -6.85594,2.277009 -10.61328,3.759765 -3.75735,1.482756 -7.67579,3.166647 -11.57813,4.972657 -3.90234,1.806009 -7.7886,3.733559 -11.48242,5.699218 -3.69383,1.96566 -7.19437,3.969936 -10.32617,5.931643 -5.5,3.4451 -12.63071,7.80553 -15.84571,9.68945 -1.6075,0.94196 -4.00279,2.58539 -6.5664,4.47461 -2.56361,1.88922 -5.29554,4.02422 -7.57813,5.94922 -4.56517,3.85 -11.14635,9.25 -14.625,12 -5.03684,3.9818 -9.98935,8.3614 -14.01367,12.31054 -2.01216,1.97458 -3.79165,3.84211 -5.23437,5.49805 -1.44273,1.65594 -2.54852,3.10014 -3.21094,4.23047 -0.94162,1.60675 -1.84737,3.44272 -2.73047,5.55078 -0.8831,2.10806 -1.74312,4.48789 -2.59375,7.17969 -0.85063,2.6918 -1.69289,5.69673 -2.53711,9.05469 -0.84422,3.35795 -1.69083,7.06924 -2.55469,11.17578 -1.73548,8.25 -4.00814,19.05 -5.04883,24 -1.04069,4.95 -2.3583,13.05 -2.92773,18 -0.56944,4.95 -1.49512,11.475 -2.05859,14.5 -0.28174,1.5125 -0.60728,7.5844 -0.9043,16.14844 -0.29703,8.56403 -0.56553,19.6202 -0.73438,31.10156 l -0.61523,41.75195 3.39063,3.24805 3.38867,3.25 -0.64844,53 c -0.2518,20.58541 -0.50166,34.38497 -0.84375,43.99414 -0.17105,4.80458 -0.36531,8.56192 -0.59375,11.5957 -0.22845,3.03378 -0.49172,5.34405 -0.80078,7.25586 -0.78056,4.8284 -1.35847,9.33645 -2.0586,17.15234 -0.70012,7.8159 -1.52247,18.93963 -2.79101,37.00196 -0.37398,5.32494 -0.64146,16.15991 -0.80664,29.68554 -0.16518,13.52564 -0.22761,29.74151 -0.19531,45.83204 0.0323,16.09053 0.16047,32.05458 0.3789,45.07422 0.21844,13.01963 0.52668,23.09526 0.91992,27.4082 0.55163,6.05 1.42817,19.775 1.94727,30.5 0.45464,9.3931 1.18383,20.45025 2.04492,31.38086 0.8611,10.93061 1.8541,21.73467 2.83984,30.61914 0.25937,2.3375 0.83137,5.53047 1.54297,8.79297 0.7116,3.2625 1.56279,6.59453 2.38282,9.20703 1.64006,5.225 4.16707,13.55 5.61523,18.5 1.44816,4.95 3.94185,12.6 5.54297,17 1.79299,4.9273 3.26045,9.40103 5.00391,15.53125 1.74345,6.13021 3.76289,13.91692 6.65625,25.46875 1.21544,4.85267 2.32008,8.94871 3.43164,12.5625 1.11155,3.61379 2.23091,6.74603 3.4707,9.66797 1.23979,2.92193 2.60104,5.63305 4.20117,8.41015 1.60013,2.77711 3.43827,5.61953 5.63086,8.79883 1.90069,2.75604 3.71277,5.21783 5.49609,7.44531 1.78333,2.22748 3.53743,4.22082 5.32422,6.04297 1.7868,1.82215 3.60648,3.47168 5.51758,5.01172 1.9111,1.54004 3.91409,2.97041 6.07031,4.35156 3.86597,2.47631 7.1466,4.48618 10.30078,6.2168 3.15419,1.73062 6.18193,3.18278 9.54493,4.53906 3.36299,1.35629 7.06033,2.61743 11.55273,3.97071 4.4924,1.35328 9.77986,2.79791 16.32227,4.51953 12.25313,3.22438 18.12845,4.82739 34,9.27734 4.95,1.38784 11.025,2.81757 13.5,3.17578 2.475,0.3582 7.875,1.58056 12,2.7168 4.125,1.13623 16.05,3.75151 26.5,5.8125 l 19,3.74805 48.5,0.0918 c 14.39086,0.0273 26.95098,-0.0495 36.23242,-0.20703 9.28143,-0.15756 15.28418,-0.39593 16.55664,-0.68945 2.35864,-0.54408 9.33364,-1.40795 15.5,-1.91992 4.75996,-0.39521 14.55219,-1.87202 26.56641,-3.94532 12.01421,-2.07329 26.25041,-4.74307 39.89453,-7.52343 1.93599,-0.39451 4.68663,-1.27454 7.85351,-2.46289 3.16688,-1.18836 6.74929,-2.68408 10.35352,-4.3086 3.60422,-1.62452 7.22854,-3.37902 10.47656,-5.08203 3.24802,-1.70301 6.12048,-3.35548 8.21875,-4.7793 2.08412,-1.4142 4.28517,-3.07291 6.46875,-4.8496 2.18358,-1.7767 4.35035,-3.6706 6.36328,-5.55665 2.01293,-1.88604 3.87317,-3.7636 5.44531,-5.50585 1.57215,-1.74226 2.85556,-3.34999 3.7168,-4.69532 1.27333,-1.98902 2.48423,-4.22904 3.63281,-6.71679 1.14858,-2.48776 2.23472,-5.22235 3.25782,-8.20508 1.0231,-2.98274 1.98397,-6.21355 2.88086,-9.6875 0.89688,-3.47396 1.73005,-7.19287 2.5,-11.1543 0.76994,-3.96142 1.47687,-8.16423 2.11914,-12.60937 0.64226,-4.44515 1.22052,-9.13154 1.73437,-14.05664 1.0277,-9.85021 1.797,-20.65677 2.30664,-32.4043 0.50107,-11.55 1.32319,-55.65 1.82617,-98 0.25149,-21.175 0.60058,-41.49375 0.96094,-57.17188 0.36037,-15.67812 0.73201,-26.71562 1.02734,-29.32812 0.59068,-5.225 1.28072,-18.05 1.53321,-28.5 0.16597,-6.86931 0.42785,-13.1004 0.87305,-19.39063 0.44519,-6.29022 1.07468,-12.64054 1.97656,-19.75 0.90187,-7.10945 2.07531,-14.97768 3.61133,-24.30468 1.53601,-9.32701 3.43363,-20.11183 5.78125,-33.05469 2.44414,-13.475 5.3037,-29.39311 6.35351,-35.37305 1.04981,-5.97994 2.60014,-13.25091 3.44531,-16.1582 0.84517,-2.90728 2.41323,-10.41218 3.48438,-16.67774 1.07115,-6.26556 2.46378,-12.71958 3.0957,-14.34179 0.63192,-1.62221 2.18344,-7.67422 3.44727,-13.44922 2.67939,-12.24341 5.64999,-24.67658 9.07812,-38 1.37055,-5.32662 3.8385,-18.26378 6.08594,-31.21289 2.24744,-12.94911 4.27437,-25.91018 4.76172,-31.28711 0.40775,-4.49866 1.70105,-12.52049 3.12891,-20.08985 1.42785,-7.56935 2.99024,-14.68623 3.9375,-17.37109 0.80418,-2.27948 2.59908,-9.97295 3.98828,-17.09766 0.5526,-2.83413 0.9858,-5.22431 1.32617,-7.5039 0.34037,-2.2796 0.5881,-4.44855 0.76562,-6.83789 0.35505,-4.77868 0.4336,-10.44119 0.4336,-19.64453 0,-7.77149 -0.13081,-14.55063 -0.45313,-20.7793 -0.32231,-6.22867 -0.83541,-11.90749 -1.60156,-17.47656 -0.76615,-5.56907 -1.78567,-11.02763 -3.11719,-16.82032 -1.33151,-5.79268 -2.97574,-11.91885 -4.99414,-18.81836 -2.1819,-7.45849 -5.05968,-17.7667 -6.39648,-22.9082 -0.76443,-2.94012 -1.63596,-5.71575 -2.63672,-8.36914 -1.00077,-2.65338 -2.13016,-5.184198 -3.41211,-7.636717 -1.28195,-2.452518 -2.71624,-4.82654 -4.32422,-7.164062 -1.60798,-2.337522 -3.39028,-4.638868 -5.36914,-6.947266 -1.61129,-1.879611 -3.26425,-3.652661 -4.98047,-5.332031 -1.71622,-1.679369 -3.4952,-3.265599 -5.35937,-4.767578 -1.86418,-1.501979 -3.81397,-2.920137 -5.86914,-4.267578 -2.05518,-1.347441 -4.21666,-2.624089 -6.50586,-3.839844 -2.28921,-1.215754 -4.70521,-2.371596 -7.27149,-3.478515 -2.56628,-1.10692 -5.28158,-2.16461 -8.16797,-3.185547 -5.77276,-2.041874 -12.22961,-3.934478 -19.54101,-5.769532 -2.34595,-0.588797 -4.32444,-1.050096 -6.28711,-1.417968 -1.96267,-0.367872 -3.90965,-0.643077 -6.19141,-0.855469 -4.56352,-0.424784 -10.46744,-0.603294 -20.52148,-0.798828 z m -10.5,17.28125 c 10.92966,-0.02555 16.8282,-0.003 21.41992,0.361328 2.29586,0.182178 4.26522,0.449337 6.37305,0.839844 2.10782,0.390506 4.35433,0.903435 7.20507,1.576172 3.48397,0.822164 7.22271,1.842336 10.97657,2.974609 3.75386,1.132273 7.5237,2.377052 11.07031,3.648437 3.54661,1.271386 6.8702,2.56909 9.73242,3.808594 2.86222,1.239504 5.26221,2.420404 6.96289,3.457031 1.29273,0.787962 2.6239,1.745935 3.96875,2.837891 1.34485,1.091956 2.70358,2.317639 4.04883,3.644531 2.69049,2.653785 5.32925,5.70949 7.71094,8.888672 2.38169,3.179187 4.50697,6.482647 6.16601,9.634767 0.82953,1.57606 1.54202,3.11437 2.11328,4.58008 0.57127,1.4657 1.00044,2.85824 1.26172,4.14453 0.39102,1.925 2.73934,10.475 5.2168,19 2.3244,7.99833 4.18741,14.75467 5.67383,20.82226 1.48642,6.0676 2.59648,11.44702 3.41797,16.6875 0.82148,5.24049 1.35399,10.34237 1.68359,15.85938 0.3296,5.517 0.45605,11.44855 0.4668,18.3457 0.008,5.16001 -0.0793,9.81204 -0.27735,14.07617 -0.19806,4.26414 -0.50637,8.13961 -0.93945,11.74805 -0.43308,3.60844 -0.99056,6.94966 -1.6875,10.14258 -0.69694,3.19291 -1.53378,6.23829 -2.52344,9.25586 -1.0683,3.25737 -2.95409,11.86888 -4.57226,20.23242 -0.80909,4.18177 -1.55175,8.30077 -2.0918,11.6582 -0.54005,3.35744 -0.87695,5.95343 -0.87695,7.08594 0,1.41166 -0.54448,5.61434 -1.39649,11.23828 -0.852,5.62394 -2.01058,12.66962 -3.24023,19.76758 -1.22965,7.09796 -2.53113,14.2483 -3.66406,20.08203 -1.13294,5.83374 -2.09829,10.35039 -2.66016,12.18164 -1.06594,3.47417 -2.37955,9.01641 -2.91797,12.31641 -0.53843,3.3 -1.66579,7.91331 -2.50586,10.25195 -0.84007,2.33864 -2.01813,7.06364 -2.61719,10.5 -0.59906,3.43636 -2.17673,10.07305 -3.50586,14.74805 -1.32913,4.675 -3.11657,12.775 -3.97265,18 -0.85608,5.225 -2.64676,13.55 -3.97852,18.5 -1.33176,4.95 -2.71118,11.025 -3.0664,13.5 -0.35521,2.475 -2.83702,16.65 -5.51563,31.5 -3.83426,21.25679 -6.51231,36.80013 -8.31641,48.44531 -0.90204,5.82259 -1.58602,10.67138 -2.08593,14.77149 -0.49991,4.1001 -0.81635,7.45195 -0.98438,10.2832 -0.34274,5.775 -1.07655,14.325 -1.6289,19 -0.34343,2.90678 -0.6996,9.03464 -1.05469,17.88476 -0.35509,8.85013 -0.70877,20.42246 -1.05078,34.21485 -0.68402,27.58477 -1.31747,64.05303 -1.80078,105.40039 -0.2218,18.975 -0.54273,37.12578 -0.88086,51.08203 -0.33814,13.95625 -0.69347,23.71797 -0.98438,25.91797 -0.58183,4.4 -1.34121,11.375 -1.6875,15.5 -0.50549,6.02128 -1.07766,11.52819 -1.73828,16.62304 -0.66062,5.09486 -1.40993,9.77755 -2.26562,14.1504 -0.8557,4.37284 -1.81945,8.43578 -2.91016,12.29101 -1.09071,3.85524 -2.30816,7.50289 -3.67383,11.04492 -0.60716,1.57475 -1.16052,2.90248 -1.73047,4.08399 -0.56995,1.18151 -1.15682,2.21584 -1.82812,3.20898 -1.3426,1.98629 -3.02614,3.80165 -5.60547,6.26367 -1.61963,1.54597 -3.33784,3.05589 -5.13477,4.52149 -1.79692,1.4656 -3.67198,2.88607 -5.60937,4.25195 -3.8748,2.73176 -7.99519,5.24619 -12.21094,7.46289 -4.21575,2.2167 -8.52693,4.13684 -12.78906,5.6836 -2.13107,0.77338 -4.25046,1.45244 -6.33789,2.02929 -2.08743,0.57686 -4.14342,1.05114 -6.15039,1.41211 -5.5,0.98921 -20.09235,3.66822 -32.42774,5.95313 -6.16769,1.14245 -12.96406,2.28264 -18.94531,3.19922 -5.98125,0.91657 -11.14738,1.60954 -14.05469,1.85742 -5.81461,0.49575 -13.27226,1.36181 -16.57226,1.92578 -1.71515,0.29312 -7.22981,0.54149 -14.9961,0.71094 -7.76628,0.16945 -17.7842,0.25998 -28.5039,0.23828 l -37.5,-0.0742 -20.69727,-3.81641 c -5.69205,-1.04936 -11.34961,-2.18025 -15.88086,-3.15625 -4.53125,-0.976 -7.93619,-1.79711 -9.11914,-2.22851 -2.36588,-0.8628 -8.35273,-2.31082 -13.30273,-3.21875 -4.95,-0.90793 -12.6,-2.67597 -17,-3.92774 -4.4,-1.25178 -11.825,-3.29278 -16.5,-4.53515 -4.675,-1.24236 -12.1,-3.28249 -16.5,-4.53516 -4.4,-1.25267 -10.66853,-2.80837 -13.93164,-3.45703 -1.98958,-0.3955 -4.75229,-1.34373 -7.87891,-2.63477 -3.12662,-1.29104 -6.6167,-2.92527 -10.06055,-4.6914 -3.44385,-1.76614 -6.84195,-3.66359 -9.7832,-5.48438 -2.94125,-1.82079 -5.4261,-3.56453 -7.04492,-5.01953 -1.43127,-1.28642 -3.01292,-2.90895 -4.6543,-4.75391 -1.64137,-1.84495 -3.34202,-3.91135 -5.01562,-6.08398 -1.67361,-2.17263 -3.31971,-4.45322 -4.84766,-6.72266 -1.52795,-2.26943 -2.93817,-4.52868 -4.14258,-6.66406 -1.09897,-1.94843 -2.33971,-5.10056 -3.82422,-9.7793 -1.4845,-4.67873 -3.21277,-10.88407 -5.28906,-18.9414 -1.63893,-6.3601 -3.5811,-13.46775 -5.38867,-19.79492 -1.80757,-6.32718 -3.48053,-11.8739 -4.58399,-15.11328 -2.45703,-7.21303 -4.57103,-13.61267 -6.38085,-19.34376 -1.80983,-5.73108 -3.31484,-10.7934 -4.55665,-15.33203 -1.2418,-4.53862 -2.21968,-8.55381 -2.97265,-12.18945 -0.75297,-3.63564 -1.28168,-6.89193 -1.625,-9.91406 -1.1106,-9.77606 -2.02835,-18.78096 -2.78711,-27.40235 -0.75877,-8.62138 -1.35854,-16.85926 -1.83399,-25.09765 -0.492,-8.525 -1.31942,-21.8 -1.83789,-29.5 -0.25924,-3.85 -0.50195,-11.45113 -0.68359,-20.5957 -0.18164,-9.14458 -0.30221,-19.8326 -0.31836,-29.85743 -0.0168,-10.43036 -0.15675,-20.67531 -0.37695,-29.07031 -0.2202,-8.395 -0.52065,-14.94007 -0.85742,-17.96875 -0.45953,-4.13279 -0.68596,-7.59897 -0.67383,-11.49219 0.0121,-3.89321 0.26277,-8.21347 0.7539,-14.05468 0.69184,-8.22849 1.62726,-23.28594 2.07813,-33.46094 0.38831,-8.76326 1.2186,-19.1981 2.12695,-27.84961 0.45418,-4.32576 0.92685,-8.20467 1.375,-11.20703 0.44816,-3.00237 0.87122,-5.12802 1.22266,-5.94336 0.1778,-0.4125 0.42866,-6.91836 0.68945,-17.06836 0.26079,-10.15 0.5315,-23.94414 0.75,-38.93164 0.437,-29.975 1.08484,-63.84699 1.43945,-75.27149 0.20017,-6.44865 0.30577,-11.84188 0.30469,-16.35547 -10e-4,-4.51358 -0.1097,-8.14749 -0.33984,-11.08007 -0.23015,-2.93258 -0.58132,-5.16351 -1.06836,-6.86914 -0.24352,-0.85282 -0.52102,-1.57504 -0.83399,-2.1875 -0.31296,-0.61247 -0.66099,-1.11488 -1.04687,-1.53125 -1.2317,-1.32903 -2.75174,-2.59407 -3.37695,-2.81055 -0.28812,-0.0998 -0.46136,-1.02396 -0.53711,-2.59961 -0.0757,-1.57565 -0.0536,-3.80287 0.0508,-6.50977 0.20879,-5.41379 0.74446,-12.74624 1.48047,-20.61718 0.736,-7.87095 1.67233,-16.28057 2.67773,-23.85157 1.0054,-7.57099 2.08067,-14.30245 3.09766,-18.8164 1.11522,-4.95 3.13948,-14.46251 4.49804,-21.13867 1.35856,-6.67615 3.60291,-15.72581 4.98829,-20.11133 0.59559,-1.8854 1.07813,-3.35323 1.58984,-4.61133 0.51171,-1.2581 1.05211,-2.30696 1.76172,-3.35352 0.7096,-1.04655 1.59001,-2.09102 2.7793,-3.34179 1.18928,-1.25078 2.68792,-2.70737 4.63867,-4.57813 3.42655,-3.28603 7.1402,-6.6363 11.04101,-9.97461 3.90081,-3.33831 7.98787,-6.66437 12.16602,-9.90234 4.17815,-3.23797 8.4465,-6.38803 12.70508,-9.37305 4.25858,-2.98502 8.5083,-5.80531 12.65039,-8.38476 8.62869,-5.37347 16.3625,-10.05104 17.1875,-10.39453 0.825,-0.3435 6.225,-2.77366 12,-5.4004 2.8875,-1.31336 6.3134,-2.74143 9.50586,-3.98437 3.19246,-1.242942 6.15148,-2.300762 8.10742,-2.873047 3.91188,-1.14456 11.97069,-3.883297 17.9082,-6.085937 3.38826,-1.256945 7.21681,-2.513055 11.38672,-3.744141 4.16991,-1.231086 8.681,-2.436464 13.43555,-3.59375 4.75454,-1.157286 9.75235,-2.267189 14.89453,-3.302734 5.14218,-1.035546 10.42891,-1.997417 15.76172,-2.863282 5.53034,-0.897937 10.20017,-1.613967 14.625,-2.201171 4.42482,-0.587205 8.60548,-1.044588 13.1582,-1.423829 9.10545,-0.758481 19.69926,-1.204802 36.7168,-1.748047 7.975,-0.25458 16.18164,-0.613041 22.97851,-0.984374 6.79688,-0.371334 12.18399,-0.755539 14.52149,-1.064454 2.49619,-0.32989 8.33989,-0.70546 16.21679,-1.085937 7.87691,-0.380477 17.78797,-0.765758 28.41602,-1.111328 21.25609,-0.69114 45.38396,-1.227075 61.86719,-1.265625 z"
       style="color:#000000;clip-rule:nonzero;display:inline;overflow:visible;visibility:visible;opacity:1;isolation:auto;mix-blend-mode:normal;color-interpolation:sRGB;color-interpolation-filters:linearRGB;solid-color:#000000;solid-opacity:1;fill:url(#linearGradient4750);fill-opacity:1;fill-rule:nonzero;stroke:none;stroke-width:1;stroke-linecap:butt;stroke-linejoin:miter;stroke-miterlimit:4;stroke-dasharray:none;stroke-dashoffset:0;stroke-opacity:1;color-rendering:auto;image-rendering:auto;shape-rendering:auto;text-rendering:auto;enable-background:accumulate" />
    <path
       id="path5951"
       d="m 368.12109,535.05664 c -0.71903,0.01 -1.33235,0.0414 -1.87304,0.0996 -2.1628,0.23275 -3.16497,0.88326 -5.12696,2.18164 -4.76951,3.15631 -6.35141,6.08205 -7.93945,14.67578 -1.3131,7.10581 -1.42153,6.60945 5.28906,24.10156 3.95147,10.30007 6.85189,28.38602 10.57813,65.95508 1.93477,19.50699 2.92829,22.16456 9.45508,25.26172 6.46461,3.06766 16.99126,1.20324 19.94921,-3.5332 1.31858,-2.11139 4.95223,-2.33758 14.16993,-0.88086 3.3,0.52151 12.06119,1.21714 19.46875,1.54492 7.40761,0.32777 13.64005,0.76699 13.84961,0.97656 0.20956,0.20956 0.45537,6.53791 0.54687,14.0625 0.15694,12.90763 0.052,13.72496 -1.86328,14.45313 -1.1165,0.4245 -8.09847,1.04627 -15.51562,1.38086 -16.49998,0.74432 -58.04054,5.17315 -85.98633,9.16797 l -4.5,0.64257 -1.79883,-5.11523 c -3.58913,-10.21047 -11.70812,-15.80941 -21.55469,-14.86328 -9.34597,0.89803 -14.74236,7.59522 -13.9375,17.30078 0.32112,3.8722 1.26631,6.36635 3.62109,9.56836 2.8611,3.89048 3.12132,4.81369 2.55665,9.07031 -0.88266,6.65383 0.2111,11.20402 3.55273,14.78125 2.26135,2.42078 3.31385,5.15639 4.9375,12.82227 2.46912,11.65767 6.64712,45.58021 8.33398,67.66406 0.99719,13.055 1.58171,16.45664 3.25196,18.9082 3.65023,5.35772 7.02955,7.13867 13.53711,7.13868 6.60671,0 9.88517,-1.77842 13.75,-7.45704 1.81876,-2.67232 2.24707,-4.66534 2.23047,-10.40625 -0.0403,-13.91778 -6.28657,-71.18386 -8.95508,-82.10351 -0.53763,-2.2 -0.98886,-4.29541 -1.00196,-4.6582 -0.0635,-1.75573 62.8289,-9.21101 87.47657,-10.36915 l 12,-0.56445 -0.0898,9.77344 -0.0918,9.77344 -3.40821,0.73437 c -7.42315,1.59651 -24.03275,3.79555 -35.71093,4.72852 -9.65885,0.77164 -13.04629,1.44343 -15.77344,3.1289 -4.68955,2.8983 -6.81542,7.25469 -6.85742,14.05274 -0.0643,10.4085 7.46651,17.63686 17.27343,16.58008 24.41947,-2.63143 38.14199,-4.59098 57.15821,-8.15821 9.46134,-1.77485 44.27398,-5.34598 62,-6.36133 6.325,-0.3623 12.05987,-1.02188 12.74414,-1.46484 0.76745,-0.49681 2.61509,0.24034 4.82226,1.92383 7.18333,5.47899 18.69761,4.02516 23.70313,-2.99219 1.75764,-2.46407 2.23047,-4.5045 2.23047,-9.62695 0,-6.33129 -0.1869,-6.79849 -7.19141,-18 l -7.19141,-11.5 12.19141,-0.29883 c 14.09546,-0.34544 28.42584,0.99391 40.04102,3.74023 4.48282,1.05993 14.45039,3.3249 22.15039,5.03321 21.42466,4.75324 20.13437,4.08151 20.90429,10.88672 0.67573,5.97264 -0.26697,16.62973 -2.93359,33.13867 -0.84397,5.225 -1.99001,16.92396 -2.54687,25.99609 -0.55688,9.07214 -1.3551,16.83557 -1.77344,17.25391 -1.17265,1.17265 -30.16709,-3.04295 -44.15039,-6.41992 -6.875,-1.66031 -14.81744,-3.04001 -17.65039,-3.06641 -9.52188,-0.0886 -15.63477,6.06316 -15.63477,15.73633 0,6.08711 2.34951,10.7571 6.78516,13.48242 5.15948,3.17005 27.96778,8.17631 54.5,11.96289 3.575,0.51021 12.87213,0.81764 20.66015,0.68359 13.46883,-0.23183 14.35757,-0.37436 18.19532,-2.91406 6.92802,-4.58475 8.89269,-9.28018 10.09765,-24.11914 0.57553,-7.08762 1.04688,-16.04438 1.04688,-19.90625 0,-3.86187 1.20265,-14.03471 2.67187,-22.60547 2.14624,-12.51989 2.68378,-18.92581 2.73438,-32.58398 0.0569,-15.3541 -0.1656,-17.66727 -2.29883,-23.88867 -2.47131,-7.20739 -6.90639,-13.08635 -12.45508,-16.51563 -3.91141,-2.41738 -12.99308,-4.9943 -36.15234,-10.25586 -31.99397,-7.26873 -29.12762,-6.95773 -70.5,-7.67383 -21.175,-0.36651 -39.12942,-1.07107 -39.89844,-1.5664 -0.76901,-0.49534 -9.53185,-1.17034 -19.47461,-1.5 l -18.07812,-0.59961 0.0605,-12.25 c 0.0331,-6.73799 0.25218,-12.44359 0.48828,-12.67969 0.2361,-0.2361 14.14845,0.0902 30.91602,0.72656 43.43675,1.6485 79.5653,1.5466 83.85351,-0.23633 5.20107,-2.16246 9.13282,-8.30814 9.13282,-14.27539 0,-2.70364 -0.46373,-5.78334 -1.03125,-6.84375 -2.00838,-3.75271 4.86211,-33.07894 9.47461,-40.4414 0.68914,-1.1 2.87095,-6.275 4.84765,-11.5 1.9767,-5.225 5.41841,-13.09085 7.65039,-17.48047 3.62807,-7.1353 4.0586,-8.74284 4.0586,-15.17188 0,-6.55867 -0.28584,-7.57242 -3.25,-11.51953 -2.42264,-3.22601 -5.41387,-5.40568 -11.75,-8.56054 -7.36624,-3.66776 -9.90052,-4.38297 -19,-5.36524 -11.78176,-1.27183 -88.29965,-2.07507 -167.5,-1.75781 -19.25,0.0771 -40.97543,-0.19966 -48.2793,-0.61523 -4.9567,-0.28204 -8.06557,-0.45632 -10.22266,-0.42774 z m 41.50586,33.50586 c 3.61583,-0.005 7.5867,4.5e-4 11.7461,0.0176 l 30.25,0.125 0.30859,4.125 c 0.16912,2.269 -0.0559,4.1269 -0.5,4.1289 -6.01008,0.0249 -46.1902,3.20037 -50.19531,3.9668 -7.18668,1.37526 -6.99463,1.41672 -7.63867,-1.7207 -0.31049,-1.5125 -0.99453,-4.37643 -1.51954,-6.36524 -0.52499,-1.98881 -0.95499,-3.78881 -0.95507,-4 -6e-5,-0.15842 7.65642,-0.26342 18.5039,-0.27734 z m 118.9961,0.16992 c 41.17114,-0.1 62.94674,0.63382 62.30078,2.09961 -0.16552,0.3756 -1.59743,4.15834 -3.1836,8.4043 -3.2993,8.83181 -3.01749,8.71598 -14.11718,5.70312 -6.30844,-1.71234 -63.35526,-7.38555 -82.5,-8.20507 l -6.5,-0.2793 -0.31055,-3.75 c -0.1707,-2.0625 0.0543,-3.7761 0.5,-3.8086 0.44571,-0.0325 20.16055,-0.10666 43.81055,-0.16406 z m -45.21094,39.96289 8.60547,0.54297 c 47.15772,2.97619 80.97526,7.3178 80.45117,10.33008 -0.0848,0.48765 -0.72574,4.48672 -1.42383,8.88672 -0.69809,4.4 -1.59238,8.37992 -1.98828,8.84375 -0.63561,0.74467 -21.58345,1.67242 -22.26953,0.98633 -0.14846,-0.14845 -14.21804,-0.71249 -31.26563,-1.25391 -17.04759,-0.54142 -31.81192,-1.29648 -32.81054,-1.67969 -1.91462,-0.73473 -1.91222,-1.5572 0.0879,-20.77734 l 0.61328,-5.87891 z m -33.02149,1.11914 -0.7246,10.22657 c -0.39878,5.62476 -0.94136,10.78932 -1.20508,11.47656 -0.58518,1.52496 -9.18265,1.43943 -24.83789,-0.2461 -6.05,-0.65137 -13.25,-1.22112 -16,-1.26562 -2.75,-0.0445 -5.5254,-0.41545 -6.16797,-0.82422 -0.64977,-0.41335 -1.31552,-3.84594 -1.5,-7.73437 l -0.33203,-6.99219 9.63476,-1.59961 c 5.29876,-0.88034 16.72045,-1.92608 25.38281,-2.32227 l 15.75,-0.71875 z m 41.91016,116.33399 c 4.29494,0.0216 8.79926,0.22767 11.24024,0.54297 5.418,0.69986 5.9998,1.0169 6.89257,3.76367 0.5363,1.65 1.78266,4.15523 2.76953,5.5664 l 1.79493,2.56641 -15.6875,1.68945 c -8.6278,0.9291 -16.7,1.6866 -17.9375,1.6836 -2.40297,-0.005 -2.3549,0.18788 -2.56836,-10.25586 l -0.10547,-5.25 9.46094,-0.26367 c 1.3011,-0.0363 2.70898,-0.0502 4.14062,-0.043 z"
       style="fill:url(#linearGradient4706)" />
    <path
       id="path5949"
       d="m 413.12305,404.72461 c -13.10573,0 -19.94992,12.62397 -13.55469,25 2.34424,4.53654 4.91397,19.98594 5.76758,34.67578 0.33776,5.81253 2.45688,4.92656 -22.71289,9.5 -8.8,1.59899 -23.65,4.72634 -33,6.94922 -9.35,2.22289 -22.54551,5.1656 -29.32422,6.53906 -6.7787,1.37345 -13.7537,3.38149 -15.5,4.46289 -4.73801,2.93404 -7.11431,7.63772 -7.12891,14.11133 -0.0195,8.64791 4.85438,15.21856 12.57617,16.95117 4.21769,0.94636 8.3042,0.28906 13.08789,-2.10351 2.04059,-1.02061 4.39922,-1.85547 5.24219,-1.85547 0.84297,0 11.32458,-2.28475 23.29102,-5.07813 11.96644,-2.79338 27.83086,-6.14315 35.25586,-7.44336 7.425,-1.3002 14.92355,-2.66352 16.66406,-3.02929 l 3.16601,-0.66407 0.6875,5.51368 c 1.29555,10.36917 6.8321,15.69026 16.32813,15.69726 6.38829,0.004 10.41471,-2.0855 13.47461,-6.99609 1.79552,-2.88149 2.17969,-5.00068 2.17969,-11.9961 l 0,-8.49804 17.5,-2.68555 c 9.625,-1.47723 18.23634,-2.71505 19.13476,-2.75195 1.30523,-0.0536 1.71305,1.19667 2.03321,6.22461 0.68654,10.78191 6.91984,16.36184 17.3125,15.5 9.43784,-0.78266 13.4849,-5.55427 15.52148,-18.30274 0.60899,-3.81216 1.31165,-7.13587 1.56055,-7.38476 0.24889,-0.24889 4.83669,-1.00169 10.19531,-1.67188 5.35862,-0.6702 13.56719,-1.70685 18.24219,-2.30469 18.49153,-2.36471 103.15762,-3.67938 119,-1.84765 16.71925,1.93311 26.23047,-3.96444 26.23047,-16.26563 0,-6.65719 -3.15355,-11.62339 -9.14063,-14.39258 -4.46589,-2.06556 -5.81942,-2.12304 -50.08984,-2.12304 -52.71471,0 -82.42218,0.93049 -96.42578,3.01953 -5.45937,0.81442 -10.41693,1.48047 -11.01758,1.48047 -0.76206,0 -0.97912,-5.24718 -0.71485,-17.36524 0.42478,-19.47771 -0.31841,-22.69833 -6.21484,-26.90429 -4.45756,-3.17962 -14.79635,-3.17962 -19.25391,0 -5.13233,3.66092 -6.37304,7.59646 -6.37304,20.21093 0,8.97961 -0.36875,11.86313 -1.9043,14.87305 -1.04761,2.0535 -2.22028,5.83376 -2.60547,8.40235 -0.5991,3.99509 -1.0831,4.75075 -3.3457,5.22851 -4.65535,0.98302 -29.44493,4.67288 -35.29883,5.25391 l -5.6543,0.5625 -0.48828,-5.88086 c -0.80732,-9.7386 -3.53106,-27.50706 -5.16015,-33.65625 -3.2799,-12.38038 -10.05877,-18.95508 -19.54297,-18.95508 z"
       style="fill:url(#linearGradient4706)" />
    <path
       id="path5947"
       d="m 621.61719,202.11914 c -5.36976,-0.15745 -13.17018,-0.0881 -25.89063,0.13281 -16.55653,0.2876 -37.75351,1.01329 -47.10351,1.61328 -9.35,0.59998 -25.1,1.55624 -35,2.125 -19.40014,1.11455 -62.99348,5.94296 -76,8.41797 -7.73972,1.47278 -48.78125,7.51169 -78.5,11.55078 -36.33181,4.93787 -38.56644,5.57516 -42.39258,12.07422 -2.63062,4.46837 -2.53744,12.68795 0.19336,17.07227 2.33788,3.75349 5.25814,5.84091 9.69922,6.92969 1.65,0.40448 4.125,0.56042 5.5,0.3457 1.375,-0.21471 9.925,-1.30166 19,-2.41406 9.075,-1.1124 22.125,-2.91067 29,-3.9961 6.875,-1.08544 19.475,-2.89754 28,-4.02734 15.36957,-2.0369 26.08356,-3.69425 41.5,-6.41797 15.06439,-2.66153 63.98961,-7.4585 87.5,-8.58008 12.925,-0.6166 28.9,-1.532 35.5,-2.0332 19.43828,-1.47613 47.16066,-1.19674 53.83984,0.54297 3.16739,0.825 7.97568,1.5 10.68555,1.5 3.16387,0 6.09869,0.71421 8.20117,1.99609 3.91856,2.38915 12.54534,2.69853 16.57422,0.59375 3.07432,-1.60611 7.41916,-6.04438 9.07812,-9.27344 1.95139,-3.79824 1.3719,-11.64655 -1.13281,-15.36328 -3.98379,-5.91154 -13.87377,-9.9175 -24.54883,-9.9414 -2.91643,-0.007 -8.49444,-0.7375 -12.39648,-1.625 -2.99796,-0.68187 -5.93689,-1.06521 -11.30664,-1.22266 z"
       style="fill:#000000" />
  </g>
</svg>
