<?xml version="1.0" encoding="UTF-8" standalone="no"?>
<svg
   xmlns:osb="http://www.openswatchbook.org/uri/2009/osb"
   xmlns:dc="http://purl.org/dc/elements/1.1/"
   xmlns:cc="http://creativecommons.org/ns#"
   xmlns:rdf="http://www.w3.org/1999/02/22-rdf-syntax-ns#"
   xmlns:svg="http://www.w3.org/2000/svg"
   xmlns="http://www.w3.org/2000/svg"
   xmlns:xlink="http://www.w3.org/1999/xlink"
   version="1.1"
   id="svg2985"
   height="900.33929"
   width="661.68066">
  <defs
     id="defs5498">
    <linearGradient
       osb:paint="solid"
       id="linearGradient4756">
      <stop
         id="stop4758"
         offset="0"
         style="stop-color:#ffffff;stop-opacity:1;" />
    </linearGradient>
    <linearGradient
       osb:paint="solid"
       id="linearGradient4750">
      <stop
         id="stop4752"
         offset="0"
         style="stop-color:#000000;stop-opacity:1;" />
    </linearGradient>
    <linearGradient
       osb:paint="solid"
       id="linearGradient5694">
      <stop
         id="stop5696"
         offset="0"
         style="stop-color:#002b11;stop-opacity:1;" />
    </linearGradient>
    <linearGradient
       osb:paint="solid"
       id="linearGradient4712">
      <stop
         id="stop4714"
         offset="0"
         style="stop-color:#162d50;stop-opacity:1;" />
    </linearGradient>
    <linearGradient
       osb:paint="solid"
       id="linearGradient4706">
      <stop
         id="stop4708"
         offset="0"
         style="stop-color:#d40000;stop-opacity:1;" />
    </linearGradient>
    <linearGradient
       gradientUnits="userSpaceOnUse"
       y2="508.69208"
       x2="761.44257"
       y1="508.69208"
       x1="262.13925"
       id="linearGradient4716"
       xlink:href="#linearGradient4712" />
    <linearGradient
       gradientUnits="userSpaceOnUse"
       y2="500.0004"
       x2="771.30902"
       y1="500.0004"
       x1="228.69211"
       id="linearGradient4754"
       xlink:href="#linearGradient4750" />
    <linearGradient
       gradientUnits="userSpaceOnUse"
       y2="500.10483"
       x2="752.40271"
       y1="500.10483"
       x1="248.61133"
       id="linearGradient4760"
       xlink:href="#linearGradient4756" />
    <linearGradient
       y2="508.69208"
       x2="761.44257"
       y1="508.69208"
       x1="262.13925"
       gradientUnits="userSpaceOnUse"
       id="linearGradient501"
       xlink:href="#linearGradient4712" />
    <linearGradient
       y2="508.69208"
       x2="761.44257"
       y1="508.69208"
       x1="262.13925"
       gradientUnits="userSpaceOnUse"
       id="linearGradient503"
       xlink:href="#linearGradient4712" />
    <linearGradient
       y2="508.69208"
       x2="761.44257"
       y1="508.69208"
       x1="262.13925"
       gradientUnits="userSpaceOnUse"
       id="linearGradient505"
       xlink:href="#linearGradient4712" />
  </defs>
  <metadata
     id="metadata5594">
    <rdf:RDF>
      <cc:Work
         rdf:about="">
        <dc:format>image/svg+xml</dc:format>
        <dc:type
           rdf:resource="http://purl.org/dc/dcmitype/StillImage" />
        <dc:title />
      </cc:Work>
    </rdf:RDF>
  </metadata>
  <g
     transform="translate(-169.16015,-49.830332)"
     style="display:inline"
     id="layer3">
    <path
       id="path5037"
       d="m 573.61719,66.611328 c -11.14965,-0.02737 -23.97044,0.0917 -37.23047,0.330078 -13.26003,0.238379 -26.95965,0.596495 -39.86914,1.042969 -12.90949,0.446474 -25.02892,0.98316 -35.12696,1.580078 -10.09803,0.596919 -18.17432,1.253647 -23,1.943359 -16.58965,2.37109 -28.70044,4.183205 -37.48437,5.625 -8.78393,1.441796 -14.241,2.513272 -17.52344,3.404297 -3.85347,1.046035 -13.07847,2.85473 -20.5,4.019532 -3.14217,0.493161 -6.3361,1.086719 -9.5664,1.771484 -3.23031,0.684765 -6.49654,1.4616 -9.78516,2.322266 -6.57723,1.72133 -13.24149,3.778666 -19.87305,6.109375 -6.63155,2.330708 -13.23041,4.933589 -19.67773,7.748044 -6.44732,2.81446 -12.74306,5.83914 -18.76758,9.01172 -6.02452,3.17258 -11.77747,6.49337 -17.14062,9.89844 -5.36315,3.40507 -10.33757,6.89432 -14.80079,10.40625 -2.23161,1.75596 -4.33497,3.51822 -6.29687,5.27734 -1.9619,1.75913 -3.781,3.51514 -5.44336,5.26172 -1.66236,1.74658 -3.16894,3.48284 -4.50195,5.20117 -1.33301,1.71833 -2.49297,3.41937 -3.4668,5.09375 -1.1629,1.99945 -2.21507,4.1476 -3.1582,6.45703 -0.94313,2.30943 -1.77815,4.78104 -2.50391,7.42774 -0.72576,2.6467 -1.34273,5.46727 -1.85351,8.47851 -0.51079,3.01125 -0.91468,6.21216 -1.2129,9.61524 -0.29821,3.40308 -0.49008,7.00984 -0.57812,10.83203 -0.088,3.82219 -0.0729,7.86032 0.0469,12.12891 0.11975,4.26858 0.34284,8.7675 0.66797,13.50976 0.32513,4.74227 0.75314,9.72748 1.28125,14.9707 0.83096,8.25 1.78924,20.625 2.13086,27.5 0.34162,6.875 1.07401,17.84209 1.62696,24.36915 0.48599,5.7367 0.76325,8.72399 1.28711,10.58789 0.26192,0.93194 0.58466,1.58308 1.02734,2.15625 0.44267,0.57316 1.00458,1.06879 1.74219,1.68945 l 3.05273,2.56836 -0.51758,12.06445 c -0.15839,3.69703 -0.48263,7.43974 -0.92187,10.83203 -0.43925,3.3923 -0.99351,6.43418 -1.61133,8.73242 -1.10888,4.125 -2.96235,11.00194 -4.11914,15.28126 -1.1568,4.2793 -4.29257,14.40431 -6.96875,22.5 -2.67617,8.09568 -5.85869,18.99376 -7.07227,24.21874 -1.21359,5.22501 -3.27458,13.77502 -4.58008,19 -1.30548,5.22502 -3.75555,16.25 -5.44531,24.5 -1.68976,8.25 -4.17704,18.375 -5.52734,22.5 -0.67059,2.04858 -1.31684,4.54887 -1.92578,7.40235 -0.60894,2.85347 -1.18119,6.06009 -1.69922,9.52344 -0.51804,3.46335 -0.98298,7.18234 -1.38086,11.06054 -0.39788,3.8782 -0.72809,7.91565 -0.97656,12.01367 -0.35015,5.77501 -1.70545,21.07502 -3.01367,34 -0.51696,5.10736 -0.92762,9.55453 -1.25977,14.0586 -0.33215,4.50407 -0.5856,9.06508 -0.78711,14.40039 -0.40303,10.67063 -0.59914,24.43825 -0.80469,47.04101 -0.16053,17.65255 -0.37926,31.21022 -0.66406,40.94336 -0.2848,9.73315 -0.63565,15.64176 -1.06055,17.99805 -0.4925,2.73112 -0.74361,5.18843 -0.75586,8.29688 -0.0122,3.10844 0.21441,6.86801 0.67578,12.20312 0.32244,3.72872 0.67872,11.28159 0.99415,20.44531 0.31542,9.16372 0.58998,19.93829 0.74609,30.11328 0.16981,11.06844 0.40316,20.51234 0.76172,28.99805 0.35856,8.48571 0.84309,16.01351 1.51367,23.2461 0.67058,7.23258 1.52693,14.17142 2.63281,21.48046 1.10588,7.30905 2.46055,14.98802 4.125,23.70313 0.5067,2.65305 1.17888,5.32717 1.99805,7.99414 0.81917,2.66697 1.78608,5.32713 2.88086,7.95117 1.09478,2.62405 2.31689,5.21206 3.65039,7.73633 1.3335,2.52427 2.77715,4.98391 4.3125,7.35156 1.53535,2.36766 3.16296,4.64269 4.86328,6.79688 1.70032,2.15419 3.47432,4.18838 5.30274,6.07226 1.82841,1.88388 3.71122,3.61906 5.63085,5.17578 1.91964,1.55672 3.87564,2.93471 5.84961,4.10743 1.9048,1.13161 5.59302,2.75342 10.28321,4.59765 4.69018,1.84423 10.38145,3.91174 16.29297,5.9336 5.91151,2.02186 12.04448,3.9976 17.61328,5.66211 5.5688,1.6645 10.5743,3.0169 14.23632,3.78906 7.53388,1.58856 18.06751,3.38157 28.13868,4.86914 10.07117,1.48757 19.67988,2.66971 25.36132,3.0332 7.42501,0.47503 14.17501,1.10662 15,1.4043 0.85855,0.30978 3.20234,0.75289 6.33985,1.24219 3.13751,0.4893 7.06818,1.02563 11.09961,1.52343 8.06286,0.9956 16.5291,1.83635 19.85742,1.83985 3.96108,0.004 10.12813,0.50798 13.70312,1.11914 3.57501,0.61115 11.67501,1.43709 18,1.83594 4.27392,0.2695 17.15127,0.47271 34.25196,0.60937 17.10069,0.13666 38.42472,0.20629 59.5957,0.20899 21.17099,0.003 42.18707,-0.061 58.67188,-0.19336 16.4848,-0.13239 28.43832,-0.33297 31.48046,-0.60157 5.77501,-0.50988 14.55,-1.1786 19.5,-1.48633 4.95002,-0.30771 14.4,-1.20061 21,-1.98437 6.60002,-0.78377 18.07502,-1.92357 25.5,-2.5332 4.68747,-0.38487 9.18056,-0.83712 13.46876,-1.35547 4.28819,-0.51836 8.3721,-1.1024 12.24023,-1.74805 3.86813,-0.64565 7.51999,-1.35434 10.94727,-2.12109 3.42727,-0.76675 6.63008,-1.59295 9.5957,-2.47461 2.96561,-0.88167 5.69457,-1.81821 8.17773,-2.8086 2.48316,-0.99038 4.71931,-2.03404 6.69922,-3.12695 1.97991,-1.09291 3.7043,-2.23458 5.16016,-3.42383 1.45586,-1.18925 2.64367,-2.42568 3.55469,-3.70507 1.14574,-1.60908 2.31109,-3.59701 3.47851,-5.92188 1.16743,-2.32487 2.33735,-4.98725 3.49414,-7.94531 1.15679,-2.95807 2.30021,-6.21205 3.41406,-9.72071 1.11386,-3.50865 2.19773,-7.2714 3.23633,-11.24804 0.76453,-2.92724 1.58873,-7.50998 2.41016,-13.15235 0.82143,-5.64236 1.63988,-12.34372 2.39258,-19.50586 0.7527,-7.16213 1.4397,-14.78688 1.99804,-22.27343 0.55834,-7.48656 0.98822,-14.83556 1.22657,-21.45118 0.1734,-4.8125 0.61415,-11.71874 1.18554,-18.96874 0.5714,-7.25 1.27345,-14.84376 1.9668,-21.03126 0.80902,-7.21983 1.4649,-13.43084 2.01367,-19.36523 0.54877,-5.93439 0.98987,-11.5916 1.36914,-17.70117 0.75855,-12.21915 1.26943,-26.24987 1.89453,-47.9336 0.5628,-19.52498 1.48493,-40.45 2.04883,-46.5 0.2819,-3.02499 0.59181,-11.96327 0.86328,-23.92578 0.27148,-11.9625 0.50452,-26.94922 0.63477,-42.07422 0.13695,-15.9119 0.36696,-30.29474 0.63867,-41.13281 0.27171,-10.83806 0.58513,-18.13133 0.89062,-19.86719 0.29036,-1.65 0.65889,-6.18671 1.01758,-12.16796 0.3587,-5.98125 0.70754,-13.40703 0.96094,-20.83204 0.62895,-18.42859 1.32086,-33.51487 2.07617,-45.28124 0.37766,-5.88319 0.76983,-10.93617 1.17969,-15.16211 0.40986,-4.22595 0.83682,-7.62498 1.2793,-10.19922 0.8171,-4.75384 1.48633,-10.44077 1.48632,-12.63867 10e-6,-2.19792 0.63075,-7.53417 1.40235,-11.85743 0.3858,-2.16163 0.86743,-6.15242 1.33398,-10.83984 0.46656,-4.68743 0.91804,-10.07149 1.24024,-15.02149 0.6444,-9.89999 1.79017,-22.94999 2.54687,-29 0.7566,-6.05 1.88777,-15.5 2.51367,-21 0.6259,-5.5 1.75291,-12.69999 2.50391,-16 0.6817,-2.99534 1.77399,-10.68371 2.94531,-20.34179 1.17133,-9.65809 2.42168,-21.2859 3.42188,-32.15821 0.5819,-6.32498 1.99733,-19.82499 3.14453,-30 0.91415,-8.1083 1.40497,-13.21176 1.55469,-17.98632 0.14971,-4.77456 -0.0417,-9.22022 -0.48828,-16.01368 -0.26319,-4.00303 -0.64034,-7.78579 -1.14063,-11.36718 -0.50029,-3.5814 -1.12282,-6.96074 -1.87891,-10.15625 -0.75608,-3.19551 -1.6452,-6.20735 -2.67578,-9.05274 -1.03057,-2.84539 -2.20358,-5.52561 -3.52734,-8.05664 -1.32376,-2.53102 -2.79795,-4.91359 -4.43359,-7.16601 -1.63565,-2.25242 -3.43222,-4.37324 -5.39844,-6.38282 -1.96622,-2.00957 -4.10248,-3.90844 -6.41797,-5.71093 -2.3155,-1.802493 -4.81068,-3.509465 -7.49414,-5.140628 -4.0406,-2.456139 -9.8906,-5.99557 -13,-7.865234 -1.79488,-1.079277 -4.37219,-2.419648 -7.32422,-3.84375 -2.95203,-1.424103 -6.27917,-2.93198 -9.57227,-4.34961 -3.29309,-1.41763 -6.55304,-2.744828 -9.37109,-3.804687 -2.81805,-1.05986 -5.1938,-1.852335 -6.7207,-2.203125 -1.31718,-0.30261 -3.877,-0.602563 -7.77735,-0.904297 -3.90035,-0.301735 -9.14174,-0.606219 -15.81836,-0.916016 -13.35322,-0.619594 -32.45155,-1.263281 -58.06836,-1.96875 -9.625,-0.265065 -19.61171,-0.636049 -27.94921,-1.019531 -8.3375,-0.383482 -15.02579,-0.779464 -18.05079,-1.095703 -3.00503,-0.314152 -7.48258,-0.545502 -13.0664,-0.703125 -5.58383,-0.157624 -12.27394,-0.241521 -19.70703,-0.259766 z"
       style="color:#000000;clip-rule:nonzero;display:inline;overflow:visible;visibility:visible;opacity:1;isolation:auto;mix-blend-mode:normal;color-interpolation:sRGB;color-interpolation-filters:linearRGB;solid-color:#000000;solid-opacity:1;fill:url(#linearGradient4756);fill-opacity:1;fill-rule:nonzero;stroke:none;stroke-width:1;stroke-linecap:butt;stroke-linejoin:miter;stroke-miterlimit:4;stroke-dasharray:none;stroke-dashoffset:0;stroke-opacity:1;color-rendering:auto;image-rendering:auto;shape-rendering:auto;text-rendering:auto;enable-background:accumulate" />
    <path
       id="path5035"
       d="m 586.84766,49.878906 c -22.76063,-0.12567 -52.14315,-0.0011 -77.51368,0.302735 -12.68526,0.151895 -24.36645,0.348861 -33.71679,0.582031 -9.35034,0.23317 -16.36941,0.501776 -19.72657,0.798828 -5.62082,0.497348 -12.82008,1.310872 -20.57812,2.289062 -7.75804,0.978191 -16.07549,2.120684 -23.93359,3.279297 -7.85811,1.158614 -15.25673,2.332478 -21.17774,3.371094 -5.92101,1.038616 -10.36378,1.942348 -12.31055,2.560547 -2.47498,0.785943 -11.69711,2.58776 -20.49218,4.005859 -4.30329,0.693853 -8.46993,1.465476 -12.5,2.314453 -4.03008,0.848978 -7.92265,1.776191 -11.67578,2.779297 -3.75314,1.003106 -7.36738,2.082044 -10.83985,3.238282 -3.47247,1.156237 -6.80411,2.388893 -9.99219,3.697265 -4.39999,1.805741 -11.14999,4.487004 -15,5.957032 -2.08387,0.795676 -4.78172,1.983197 -7.85156,3.4375 -3.06983,1.454302 -6.51166,3.176019 -10.08398,5.037109 -7.14464,3.722179 -14.81076,8.005463 -21.06446,11.843753 -2.81348,1.72681 -5.53782,3.50869 -8.1621,5.33593 -2.62429,1.82725 -5.14895,3.70002 -7.56446,5.60743 -2.41551,1.90741 -4.72104,3.8491 -6.9082,5.8164 -2.18716,1.96731 -4.25607,3.95987 -6.19531,5.9668 -1.93924,2.00693 -3.74818,4.0284 -5.41993,6.05469 -1.67174,2.02629 -3.20516,4.05665 -4.58984,6.08203 -1.38468,2.02538 -2.62118,4.04658 -3.69922,6.05078 -1.07803,2.0042 -1.99818,3.99233 -2.75,5.95508 -0.91725,2.39462 -1.7452,4.92234 -2.48242,7.58789 -0.73722,2.66555 -1.38385,5.46911 -1.94141,8.41211 -0.55756,2.94299 -1.02603,6.02695 -1.40429,9.2539 -0.37826,3.22696 -0.66592,6.59584 -0.86524,10.11329 -0.19931,3.51744 -0.30934,7.18359 -0.33008,10.99804 -0.0207,3.81445 0.0476,7.77851 0.20508,11.89649 0.31498,8.23595 0.98602,17.08504 2.01172,26.57421 0.8323,7.70001 1.99893,22.55001 2.5918,33 0.59288,10.45 1.73448,25.97501 2.53711,34.5 0.64581,6.85945 1.07503,12.50577 1.23047,17.48438 0.15543,4.97861 0.0371,9.28862 -0.41602,13.48047 -0.22656,2.09592 -0.53664,4.16321 -0.9375,6.26758 -0.40085,2.10437 -0.8925,4.24652 -1.48242,6.49609 -1.17984,4.49915 -2.75261,9.42566 -4.77734,15.32617 -1.43286,4.17566 -2.99311,9.20818 -4.60938,14.8125 -1.61626,5.60432 -3.28824,11.77978 -4.94141,18.24024 -1.65317,6.46046 -3.28846,13.2071 -4.83203,19.95117 -1.54357,6.74407 -2.99573,13.48624 -4.2832,19.9414 -1.37122,6.875 -3.8359,17 -5.47852,22.5 -0.77159,2.58352 -1.42049,4.98546 -1.98828,7.48243 -0.56778,2.49696 -1.05431,5.08857 -1.50195,8.05273 -0.89529,5.92833 -1.63411,13.34519 -2.55078,24.46484 -0.58943,7.15 -1.80231,19.3 -2.69531,27 -0.57928,4.99486 -1.03385,12.00398 -1.40235,22.13477 -0.36849,10.1308 -0.65091,23.38326 -0.88867,40.86523 -0.18326,13.47501 -0.49261,28.05519 -0.84375,40.69141 -0.35113,12.63622 -0.74405,23.32848 -1.09375,29.02539 -0.51316,8.36016 -0.76974,15.16842 -0.77148,23.29492 -0.002,8.1265 0.2513,17.57124 0.75976,31.20508 0.69295,18.58118 1.58522,46.15821 1.98438,61.2832 0.19958,7.5625 0.49649,15.16954 0.81445,21.33204 0.31796,6.1625 0.65699,10.88046 0.93945,12.66796 0.56492,3.57501 2.24307,14.375 3.72852,24 0.73259,4.7469 1.44297,8.87662 2.18555,12.57618 0.74257,3.69955 1.51665,6.96909 2.375,9.99414 0.85834,3.02505 1.80095,5.80593 2.88085,8.52929 1.07991,2.72337 2.29783,5.38908 3.70508,8.1836 2.19777,4.36432 4.55853,8.47025 7.0625,12.29492 2.50398,3.82467 5.15132,7.36724 7.91992,10.60352 2.76861,3.23627 5.65874,6.16649 8.6504,8.76562 2.99165,2.59913 6.08469,4.86802 9.25781,6.78125 1.69573,1.02244 4.25292,2.24925 7.54297,3.63477 3.29004,1.38551 7.31237,2.92947 11.93945,4.58593 4.62708,1.65647 9.85956,3.42642 15.56641,5.26172 5.70684,1.8353 11.88863,3.7362 18.41796,5.65821 3.10319,0.91346 7.78837,2.00223 13.21094,3.12304 5.42258,1.12081 11.58164,2.27372 17.63672,3.3125 6.05509,1.03878 12.00514,1.96348 17.00586,2.63086 5.00072,0.66738 9.05302,1.07739 11.3125,1.08399 1.74178,0.005 5.46289,0.34405 10.05469,0.88672 4.5918,0.54266 10.0543,1.28903 15.27929,2.10742 5.22501,0.81839 10.81798,1.56374 15.6211,2.10547 4.80312,0.54172 8.8164,0.87981 10.8789,0.88281 2.0625,0.003 5.0531,0.17427 8.20899,0.44726 3.15589,0.273 6.47708,0.64772 9.20312,1.0586 5.45208,0.82175 13.32708,1.5256 17.5,1.5664 4.17292,0.0408 9.61289,0.44098 12.08789,0.88868 1.23751,0.22384 12.09415,0.40263 28.5879,0.51171 16.49375,0.10909 38.62461,0.14846 62.4121,0.0898 21.61585,-0.0533 39.0144,-0.13249 53.40626,-0.27735 14.39185,-0.14485 25.77699,-0.35551 35.36914,-0.67187 9.59214,-0.31636 17.3907,-0.73887 24.60742,-1.30664 7.21672,-0.56777 13.85161,-1.28059 21.11718,-2.17969 4.40001,-0.54449 13.85001,-1.5046 21,-2.13476 6.67776,-0.58855 15.86386,-1.67981 24.29688,-2.83008 8.43302,-1.15028 16.11295,-2.35956 19.78125,-3.18164 2.5743,-0.57691 7.34584,-2.14121 12.10547,-3.88477 4.75963,-1.74355 9.50735,-3.66637 12.03125,-4.95703 2.50295,-1.27996 4.86732,-2.84912 7.09961,-4.7168 2.23229,-1.86768 4.33341,-4.03483 6.31054,-6.50976 1.97714,-2.47494 3.82893,-5.25766 5.56641,-8.35938 1.73748,-3.10172 3.35972,-6.52148 4.87305,-10.26953 2.0579,-5.09681 3.8528,-10.36847 5.42383,-16.0293 1.57102,-5.66082 2.91907,-11.71104 4.07812,-18.36523 1.15905,-6.65419 2.1292,-13.91137 2.95117,-21.98828 0.82198,-8.07692 1.49489,-16.97336 2.05469,-26.90235 0.8972,-15.91324 1.58518,-27.30925 2.1875,-35.96679 0.60232,-8.65754 1.11898,-14.57661 1.67383,-19.53321 0.6157,-5.5 1.79585,-16.07499 2.62305,-23.5 0.41355,-3.71249 0.90837,-10.57499 1.37109,-18.64062 0.46272,-8.06563 0.89334,-17.33437 1.18164,-25.85938 0.5767,-17.04999 1.41995,-39.77499 1.87305,-50.5 0.4532,-10.725 0.86311,-38.625 0.91211,-62 0.0243,-11.6875 0.15924,-23.66289 0.35742,-33.54101 0.19817,-9.87812 0.45958,-17.65898 0.73633,-20.95899 1.1867,-14.15295 1.99209,-24.77989 2.5957,-34.92968 0.6036,-10.14979 1.00542,-19.82242 1.38867,-32.07032 0.4483,-14.3276 1.05859,-26.8709 1.82813,-37.57617 0.38476,-5.35263 0.80982,-10.24518 1.27343,-14.67187 0.46361,-4.4267 0.96634,-8.38781 1.50782,-11.875 0.7792,-5.01812 1.4284,-11.09312 1.4414,-13.5 0.0131,-2.40687 0.46867,-6.17696 1.01367,-8.37696 0.545,-2.19999 1.63006,-13.225 2.41016,-24.5 0.87995,-12.7172 2.15959,-26.4093 3.52539,-38.32617 0.6829,-5.95843 1.38805,-11.47234 2.07422,-16.19922 0.68617,-4.72687 1.35419,-8.66694 1.96484,-11.47461 0.50835,-2.33749 1.15317,-6.31835 1.78125,-10.8496 0.62809,-4.53125 1.23945,-9.6129 1.6836,-14.1504 0.8883,-9.07499 2.52878,-24.82499 3.64648,-35 1.1177,-10.17499 2.43815,-22.32499 2.93555,-27 0.30857,-2.90049 0.53565,-7.04984 0.68359,-11.78515 0.14795,-4.73531 0.21718,-10.0573 0.20703,-15.30274 -0.0101,-5.24543 -0.0999,-10.41484 -0.26562,-14.8457 -0.16572,-4.43086 -0.40781,-8.12247 -0.72656,-10.41406 -0.31213,-2.24413 -0.84062,-4.86089 -1.52149,-7.65039 -0.68086,-2.78951 -1.51502,-5.75218 -2.43945,-8.68946 -0.92443,-2.93727 -1.93764,-5.84772 -2.98047,-8.53515 -1.04283,-2.68743 -2.11434,-5.15143 -3.15039,-7.19141 -0.96913,-1.9082 -2.1123,-3.87848 -3.36719,-5.83008 -1.25488,-1.95159 -2.62163,-3.88531 -4.03906,-5.720699 -1.41743,-1.835393 -2.88504,-3.571249 -4.3418,-5.130859 -1.45676,-1.559611 -2.90251,-2.942164 -4.27539,-4.066406 -3.1045,-2.542279 -7.11848,-5.380034 -11.6582,-8.300782 -4.53972,-2.920748 -9.60446,-5.925039 -14.8125,-8.800781 -5.20804,-2.875741 -10.5585,-5.622037 -15.66797,-8.029297 -5.10947,-2.407259 -9.97866,-4.474932 -14.22266,-5.990234 -2.35472,-0.840751 -5.04165,-1.546622 -8.46289,-2.152344 -3.42124,-0.605722 -7.57696,-1.111586 -12.87109,-1.548828 -5.29413,-0.437242 -11.72584,-0.807267 -19.69922,-1.142578 -7.97338,-0.335311 -17.48826,-0.635618 -28.94727,-0.935547 -20.34999,-0.532643 -46,-1.446165 -57,-2.03125 -6.13702,-0.326426 -18.36921,-0.521689 -33.54296,-0.605469 z m -13.23047,16.732422 c 7.43309,0.01824 14.1232,0.102142 19.70703,0.259766 5.58382,0.157623 10.06137,0.388973 13.0664,0.703125 3.025,0.316239 9.71329,0.712221 18.05079,1.095703 8.3375,0.383482 18.32421,0.754466 27.94921,1.019531 25.61681,0.705469 44.71514,1.349156 58.06836,1.96875 6.67662,0.309797 11.91801,0.614281 15.81836,0.916016 3.90035,0.301734 6.46017,0.601687 7.77735,0.904297 1.5269,0.35079 3.90265,1.143265 6.7207,2.203125 2.81805,1.059859 6.078,2.387057 9.37109,3.804687 3.2931,1.41763 6.62024,2.925507 9.57227,4.34961 2.95203,1.424102 5.52934,2.764473 7.32422,3.84375 3.1094,1.869664 8.9594,5.409095 13,7.865234 2.68346,1.631163 5.17864,3.338135 7.49414,5.140628 2.31549,1.80249 4.45175,3.70136 6.41797,5.71093 1.96622,2.00958 3.76279,4.1304 5.39844,6.38282 1.63564,2.25242 3.10983,4.63499 4.43359,7.16601 1.32376,2.53103 2.49677,5.21125 3.52734,8.05664 1.03058,2.84539 1.9197,5.85723 2.67578,9.05274 0.75609,3.19551 1.37862,6.57485 1.87891,10.15625 0.50029,3.58139 0.87744,7.36415 1.14063,11.36718 0.4466,6.79346 0.63799,11.23912 0.48828,16.01368 -0.14972,4.77456 -0.64054,9.87802 -1.55469,17.98632 -1.1472,10.17501 -2.56263,23.67502 -3.14453,30 -1.0002,10.87231 -2.25055,22.50012 -3.42188,32.15821 -1.17132,9.65808 -2.26361,17.34645 -2.94531,20.34179 -0.751,3.30001 -1.87801,10.5 -2.50391,16 -0.6259,5.5 -1.75707,14.95 -2.51367,21 -0.7567,6.05001 -1.90247,19.10001 -2.54687,29 -0.3222,4.95 -0.77368,10.33406 -1.24024,15.02149 -0.46655,4.68742 -0.94818,8.67821 -1.33398,10.83984 -0.7716,4.32326 -1.40234,9.65951 -1.40235,11.85743 10e-6,2.1979 -0.66922,7.88483 -1.48632,12.63867 -0.44248,2.57424 -0.86944,5.97327 -1.2793,10.19922 -0.40986,4.22594 -0.80203,9.27892 -1.17969,15.16211 -0.75531,11.76637 -1.44722,26.85265 -2.07617,45.28124 -0.2534,7.42501 -0.60224,14.85079 -0.96094,20.83204 -0.35869,5.98125 -0.72722,10.51796 -1.01758,12.16796 -0.30549,1.73586 -0.61891,9.02913 -0.89062,19.86719 -0.27171,10.83807 -0.50172,25.22091 -0.63867,41.13281 -0.13025,15.125 -0.36329,30.11172 -0.63477,42.07422 -0.27147,11.96251 -0.58138,20.90079 -0.86328,23.92578 -0.5639,6.05 -1.48603,26.97502 -2.04883,46.5 -0.6251,21.68373 -1.13598,35.71445 -1.89453,47.9336 -0.37927,6.10957 -0.82037,11.76678 -1.36914,17.70117 -0.54877,5.93439 -1.20465,12.1454 -2.01367,19.36523 -0.69335,6.1875 -1.3954,13.78126 -1.9668,21.03126 -0.57139,7.25 -1.01214,14.15624 -1.18554,18.96874 -0.23835,6.61562 -0.66823,13.96462 -1.22657,21.45118 -0.55834,7.48655 -1.24534,15.1113 -1.99804,22.27343 -0.7527,7.16214 -1.57115,13.8635 -2.39258,19.50586 -0.82143,5.64237 -1.64563,10.22511 -2.41016,13.15235 -1.0386,3.97664 -2.12247,7.73939 -3.23633,11.24804 -1.11385,3.50866 -2.25727,6.76264 -3.41406,9.72071 -1.15679,2.95806 -2.32671,5.62044 -3.49414,7.94531 -1.16742,2.32487 -2.33277,4.3128 -3.47851,5.92188 -0.91102,1.27939 -2.09883,2.51582 -3.55469,3.70507 -1.45586,1.18925 -3.18025,2.33092 -5.16016,3.42383 -1.97991,1.09291 -4.21606,2.13657 -6.69922,3.12695 -2.48316,0.99039 -5.21212,1.92693 -8.17773,2.8086 -2.96562,0.88166 -6.16843,1.70786 -9.5957,2.47461 -3.42728,0.76675 -7.07914,1.47544 -10.94727,2.12109 -3.86813,0.64565 -7.95204,1.22969 -12.24023,1.74805 -4.2882,0.51835 -8.78129,0.9706 -13.46876,1.35547 -7.42498,0.60963 -18.89998,1.74943 -25.5,2.5332 -6.6,0.78376 -16.04998,1.67666 -21,1.98437 -4.95,0.30773 -13.72499,0.97645 -19.5,1.48633 -3.04214,0.2686 -14.99566,0.46918 -31.48046,0.60157 -16.48481,0.13238 -37.50089,0.19605 -58.67188,0.19336 -21.17098,-0.003 -42.49501,-0.0723 -59.5957,-0.20899 -17.10069,-0.13666 -29.97804,-0.33987 -34.25196,-0.60937 -6.32499,-0.39885 -14.42499,-1.22479 -18,-1.83594 -3.57499,-0.61116 -9.74204,-1.11514 -13.70312,-1.11914 -3.32832,-0.004 -11.79456,-0.84425 -19.85742,-1.83985 -4.03143,-0.4978 -7.9621,-1.03413 -11.09961,-1.52343 -3.13751,-0.4893 -5.4813,-0.93241 -6.33985,-1.24219 -0.82499,-0.29768 -7.57499,-0.92927 -15,-1.4043 -5.68144,-0.36349 -15.29015,-1.54563 -25.36132,-3.0332 -10.07117,-1.48757 -20.6048,-3.28058 -28.13868,-4.86914 -3.66202,-0.77216 -8.66752,-2.12456 -14.23632,-3.78906 -5.5688,-1.66451 -11.70177,-3.64025 -17.61328,-5.66211 -5.91152,-2.02186 -11.60279,-4.08937 -16.29297,-5.9336 -4.69019,-1.84423 -8.37841,-3.46604 -10.28321,-4.59765 -1.97397,-1.17272 -3.92997,-2.55071 -5.84961,-4.10743 -1.91963,-1.55672 -3.80244,-3.2919 -5.63085,-5.17578 -1.82842,-1.88388 -3.60242,-3.91807 -5.30274,-6.07226 -1.70032,-2.15419 -3.32793,-4.42922 -4.86328,-6.79688 -1.53535,-2.36765 -2.979,-4.82729 -4.3125,-7.35156 -1.3335,-2.52427 -2.55561,-5.11228 -3.65039,-7.73633 -1.09478,-2.62404 -2.06169,-5.2842 -2.88086,-7.95117 -0.81917,-2.66697 -1.49135,-5.34109 -1.99805,-7.99414 -1.66445,-8.71511 -3.01912,-16.39408 -4.125,-23.70313 -1.10588,-7.30904 -1.96223,-14.24788 -2.63281,-21.48046 -0.67058,-7.23259 -1.15511,-14.76039 -1.51367,-23.2461 -0.35856,-8.48571 -0.59191,-17.92961 -0.76172,-28.99805 -0.15611,-10.17499 -0.43067,-20.94956 -0.74609,-30.11328 -0.31543,-9.16372 -0.67171,-16.71659 -0.99415,-20.44531 -0.46137,-5.33511 -0.68802,-9.09468 -0.67578,-12.20312 0.0122,-3.10845 0.26336,-5.56576 0.75586,-8.29688 0.4249,-2.35629 0.77575,-8.2649 1.06055,-17.99805 0.2848,-9.73314 0.50353,-23.29081 0.66406,-40.94336 0.20555,-22.60276 0.40166,-36.37038 0.80469,-47.04101 0.20151,-5.33531 0.45496,-9.89632 0.78711,-14.40039 0.33215,-4.50407 0.74281,-8.95124 1.25977,-14.0586 1.30822,-12.92498 2.66352,-28.22499 3.01367,-34 0.24847,-4.09802 0.57868,-8.13547 0.97656,-12.01367 0.39788,-3.8782 0.86282,-7.59719 1.38086,-11.06054 0.51803,-3.46335 1.09028,-6.66997 1.69922,-9.52344 0.60894,-2.85348 1.25519,-5.35377 1.92578,-7.40235 1.3503,-4.125 3.83758,-14.25 5.52734,-22.5 1.68976,-8.25 4.13983,-19.27498 5.44531,-24.5 1.3055,-5.22498 3.36649,-13.77499 4.58008,-19 1.21358,-5.22498 4.3961,-16.12306 7.07227,-24.21874 2.67618,-8.09569 5.81195,-18.2207 6.96875,-22.5 1.15679,-4.27932 3.01026,-11.15626 4.11914,-15.28126 0.61782,-2.29824 1.17208,-5.34012 1.61133,-8.73242 0.43924,-3.39229 0.76348,-7.135 0.92187,-10.83203 l 0.51758,-12.06445 -3.05273,-2.56836 c -0.73761,-0.62066 -1.29952,-1.11629 -1.74219,-1.68945 -0.44268,-0.57317 -0.76542,-1.22431 -1.02734,-2.15625 -0.52386,-1.8639 -0.80112,-4.85119 -1.28711,-10.58789 -0.55295,-6.52706 -1.28534,-17.49415 -1.62696,-24.36915 -0.34162,-6.875 -1.2999,-19.25 -2.13086,-27.5 -0.52811,-5.24322 -0.95612,-10.22843 -1.28125,-14.9707 -0.32513,-4.74226 -0.54822,-9.24118 -0.66797,-13.50976 -0.11974,-4.26859 -0.13491,-8.30672 -0.0469,-12.12891 0.088,-3.82219 0.27991,-7.42895 0.57812,-10.83203 0.29822,-3.40308 0.70211,-6.60399 1.2129,-9.61524 0.51078,-3.01124 1.12775,-5.83181 1.85351,-8.47851 0.72576,-2.6467 1.56078,-5.11831 2.50391,-7.42774 0.94313,-2.30943 1.9953,-4.45758 3.1582,-6.45703 0.97383,-1.67438 2.13379,-3.37542 3.4668,-5.09375 1.33301,-1.71833 2.83959,-3.45459 4.50195,-5.20117 1.66236,-1.74658 3.48146,-3.50259 5.44336,-5.26172 1.9619,-1.75912 4.06526,-3.52138 6.29687,-5.27734 4.46322,-3.51193 9.43764,-7.00118 14.80079,-10.40625 5.36315,-3.40507 11.1161,-6.72586 17.14062,-9.89844 6.02452,-3.17258 12.32026,-6.19726 18.76758,-9.01172 6.44732,-2.814455 13.04618,-5.417336 19.67773,-7.748044 6.63156,-2.330709 13.29582,-4.388045 19.87305,-6.109375 3.28862,-0.860666 6.55485,-1.637501 9.78516,-2.322266 3.2303,-0.684765 6.42423,-1.278323 9.5664,-1.771484 7.42153,-1.164802 16.64653,-2.973497 20.5,-4.019532 3.28244,-0.891025 8.73951,-1.962501 17.52344,-3.404297 8.78393,-1.441795 20.89472,-3.25391 37.48437,-5.625 4.82568,-0.689712 12.90197,-1.34644 23,-1.943359 10.09804,-0.596918 22.21747,-1.133604 35.12696,-1.580078 12.90949,-0.446474 26.60911,-0.80459 39.86914,-1.042969 13.26003,-0.238379 26.08082,-0.357444 37.23047,-0.330078 z"
       style="color:#000000;clip-rule:nonzero;display:inline;overflow:visible;visibility:visible;opacity:1;isolation:auto;mix-blend-mode:normal;color-interpolation:sRGB;color-interpolation-filters:linearRGB;solid-color:#000000;solid-opacity:1;fill:url(#linearGradient4750);fill-opacity:1;fill-rule:nonzero;stroke:none;stroke-width:1;stroke-linecap:butt;stroke-linejoin:miter;stroke-miterlimit:4;stroke-dasharray:none;stroke-dashoffset:0;stroke-opacity:1;color-rendering:auto;image-rendering:auto;shape-rendering:auto;text-rendering:auto;enable-background:accumulate" />
    <path
       id="path6056"
       d="m 527.71289,419.92773 c -4.24801,-0.26278 -8.56121,1.15301 -11.97461,4.56641 -4.39432,4.39432 -6.14021,9.96074 -4.87109,15.52539 1.20776,5.29563 -0.14979,11.84573 -4.53125,21.86133 -6.03178,13.78805 -4.19945,12.68223 -21.21875,12.80469 -8.09982,0.0583 -19.45157,0.42328 -25.22657,0.8125 -11.8156,0.79632 -10.66506,1.36887 -15.91796,-7.88867 -4.1552,-7.32299 -15.39914,-19.13018 -20.88282,-21.92774 -14.62152,-7.45935 -29.59235,0.873 -29.39453,16.36133 0.0697,5.45946 2.34859,12.94413 4.75,15.59765 1.38934,1.53521 0.68675,1.71413 -9.27539,2.34961 -16.14089,1.02963 -60.02127,5.47477 -66.1289,6.69922 -14.05554,2.81783 -19.77767,18.49773 -10.23438,28.04102 3.46175,3.46175 11.03062,6.61718 12.98047,5.41211 1.97293,-1.21934 57.93094,-6.72614 81.60351,-8.03125 6.05,-0.33355 12.44919,-0.83311 14.22071,-1.10938 2.88012,-0.44915 3.28505,-0.20755 3.83398,2.28711 1.62248,7.37341 6.70865,21.06246 9.11524,24.53516 2.81422,4.06093 8.76488,8.03692 13.77734,9.20508 4.15696,0.96879 1.41297,2.51967 -4.44727,2.51367 -5.91718,-0.006 -57.23678,6.30987 -61.60937,7.58203 -1.82338,0.53049 -2.1952,0.0937 -2.73828,-3.2168 -0.94398,-5.75443 -4.15227,-10.19919 -8.92383,-12.36523 -5.56174,-2.52473 -9.3385,-2.45258 -14.76758,0.28515 -5.51217,2.77963 -8.96094,8.88218 -8.96094,15.85352 0,4.07095 -0.30444,4.75722 -2.33789,5.26758 -1.28563,0.32268 -3.54417,1.53674 -5.01953,2.69726 -10.41729,8.19424 -6.41799,26.18616 6.4043,28.8086 3.78746,0.77462 3.44207,-0.0613 7.92969,19.12304 6.37846,27.2676 8.28716,34.63017 10.51953,40.57422 1.64557,4.38158 2.00753,6.56133 1.30078,7.82422 -3.58353,6.40342 -2.73706,13.32374 2.33594,19.10156 4.68356,5.33393 7.47359,5.69172 41.50586,5.32618 l 30.36132,-0.32618 0,10.58985 0,10.58984 -8.75,1.25977 c -4.8125,0.69296 -14.07756,2.36379 -20.58789,3.71484 -6.51033,1.35105 -17.31033,3.34599 -24,4.43164 -6.68967,1.08565 -15.53711,2.87537 -19.66211,3.97852 -4.125,1.10315 -13.20978,3.03424 -20.1875,4.29101 l -12.6875,2.28516 -0.55273,-2.20898 c -0.77554,-3.08999 -6.81245,-8.12793 -11.1875,-9.33594 -4.42188,-1.22094 -11.48072,0.0688 -16.24609,2.96679 -3.36884,2.04872 -7.07789,8.66073 -7.11719,12.6875 -0.0222,2.26999 -0.82848,3.20614 -6.80859,7.90626 -1.80725,1.42043 -3.99653,3.95681 -4.86524,5.63671 -2.184,4.22339 -2.02074,11.8722 0.33984,15.91407 1.64777,2.82135 6.42417,6.93084 9.27149,7.97656 0.47526,0.17454 1.37052,5.41244 1.98828,11.64062 0.61775,6.22817 1.79468,15.00317 2.61719,19.5 0.82251,4.49682 2.37578,16.72578 3.45117,27.17578 1.07539,10.45 2.41104,21.73699 2.96875,25.08204 0.55771,3.34506 1.01848,9.19506 1.02148,13 0.003,3.80495 0.4758,8.61778 1.05274,10.69531 1.35076,4.86407 6.27557,10.45256 10.29297,11.68164 4.30713,1.31771 11.62329,0.41526 14.64843,-1.80664 3.89962,-2.86418 6.83275,-7.86247 7.61329,-12.97461 0.45268,-2.96476 -0.0811,-11.26685 -1.45703,-22.67774 -1.19374,-9.9 -2.86127,-24.728 -3.70508,-32.95117 -0.84381,-8.22318 -1.95361,-16.82335 -2.4668,-19.11328 -1.1209,-5.00169 -3.96376,-28.65174 -3.97656,-33.08203 l -0.008,-3.14648 14.75,-2.70313 c 8.11251,-1.48691 20.25846,-4.02004 26.99219,-5.62891 6.73372,-1.60884 16.81422,-3.60809 22.40039,-4.44335 5.58617,-0.83526 13.80075,-2.35436 18.25586,-3.375 11.18995,-2.56357 22.61705,-4.37122 23.30078,-3.6875 0.31356,0.31356 0.0589,5.41991 -0.5664,11.34961 -0.62532,5.92969 -1.38923,13.7432 -1.69727,17.36328 l -0.55859,6.58203 -16.18946,5.64843 c -13.07668,4.56207 -18.19144,5.84438 -26.60742,6.67383 -11.03605,1.08768 -14.94907,2.6051 -18.29297,7.0918 -5.34797,7.17567 -3.52001,18.77571 3.70508,23.50977 11.35382,7.43931 44.55638,0.11773 84.00781,-18.52735 3.30001,-1.55961 9.375,-3.84968 13.5,-5.08789 4.12501,-1.2382 11.55001,-3.51736 16.5,-5.0664 10.66464,-3.33738 28.69669,-6.88752 35.30079,-6.94922 5.30908,-0.0496 11.44279,-1.96175 14.15039,-4.41211 1.7128,-1.55008 1.93688,-1.45319 3.80468,1.65429 1.0915,1.81613 3.94685,7.11551 6.34375,11.77735 7.2347,14.07051 12.03994,17.83157 21.42774,16.77343 8.4144,-0.94843 13.85584,-7.33804 13.83984,-16.25 -0.007,-4.03066 -1.01733,-6.98987 -5.20703,-15.26757 -7.2596,-14.34306 -12.56072,-22.25268 -22.20312,-33.12891 l -8.33204,-9.39844 25.4375,0.69922 c 28.77641,0.78965 40.55461,1.88155 49.9375,4.63281 3.57501,1.04827 8.525,2.48202 11,3.18555 l 4.5,1.2793 -0.12695,9.5 c -0.0694,5.22481 -1.3069,16.35618 -2.75,24.73633 -2.2075,12.81915 -2.61961,18.21368 -2.59961,34 0.022,17.29538 0.40937,21.84169 2.38867,28.01171 0.4997,1.55789 0.3165,2.25468 -0.5957,2.26368 -2.8311,0.0289 -40.1702,-12.13252 -50.4375,-16.42774 -16.1939,-6.77448 -25.21957,-6.97967 -31.48047,-0.71875 -6.7081,6.7081 -7.06245,15.4616 -0.91015,22.46875 2.4956,2.84226 5.97513,4.37815 24.70703,10.9043 11.9917,4.17793 28.77969,9.70652 37.30468,12.28516 8.525,2.57863 19.55,5.985 24.5,7.57031 17.58031,5.63038 26.04656,5.6817 32.56446,0.19726 6.9765,-5.87038 7.80542,-13.13451 2.98242,-26.13671 -6.4545,-17.40039 -8.04688,-25.61671 -8.04688,-41.50586 10e-6,-10.28992 0.57294,-17.56424 1.96094,-24.84961 4.2685,-22.40568 5.31012,-43.25801 2.60742,-52.23829 -3.5531,-11.80625 -14.28814,-20.23489 -31.52734,-24.75585 -17.8718,-4.68683 -25.79661,-5.88547 -47.04102,-7.11524 -23.98259,-1.38828 -85.03953,-1.57265 -106.25,-0.32031 l -14.75,0.87109 0.008,-5.87109 c 0.005,-3.22899 0.28269,-8.14641 0.61718,-10.92969 l 0.60743,-5.06055 15.13281,-1.29296 c 18.44449,-1.57493 46.84186,-3.10916 67.50976,-3.64844 17.0379,-0.44456 19.8814,-1.30675 23.625,-7.16602 1.946,-3.04581 2.15344,-3.11652 7.70704,-2.56445 4.8712,0.48424 6.51778,0.17085 11.23828,-2.13867 7.5856,-3.71128 11.55087,-8.96878 18.63867,-24.71875 3.3042,-7.34242 7.30738,-16.05157 8.89648,-19.35157 14.828,-30.79156 17.9691,-39.69192 17.9961,-51 0.006,-2.75 -0.4699,-6.73342 -1.0586,-8.85351 -1.2883,-4.63974 -7.90699,-12.08931 -13.09179,-14.73438 -8.8632,-4.52166 -13.57177,-4.8823 -63.82618,-4.88281 -44.63411,-4.5e-4 -73.93691,1.17939 -94.71874,3.81055 -3.93645,0.49839 -7.1722,0.39735 -8.81641,-0.27539 l -2.59766,-1.06446 2.83203,-2.71289 c 2.80402,-2.6857 2.87887,-2.69776 7.28516,-1.17968 5.31914,1.8326 10.08728,1.1898 15.01953,-2.02539 1.92731,-1.25636 9.26734,-8.80402 16.31055,-16.77344 l 12.80469,-14.49024 26.68945,-1.23828 c 14.6795,-0.68046 33.2164,-1.68785 41.1914,-2.24023 7.97501,-0.55237 31.375,-1.30497 52,-1.67188 35.02691,-0.62312 37.72304,-0.79986 40.89454,-2.66797 11.3364,-6.67732 11.3364,-22.32267 0,-29 -3.1919,-1.8801 -5.19303,-2 -33.39454,-2 -25.0806,0 -68.34013,1.77571 -97.86523,4.01563 -6.2805,0.47648 -6.80025,0.36931 -6.12305,-1.24805 5.2329,-12.49839 7.77374,-29.92107 5.55274,-38.07422 -2.26181,-8.30315 -9.16217,-13.40578 -16.24219,-13.84375 z m -63.53906,88.8418 4.5,0.30859 -3.80469,4.40821 -3.80469,4.4082 -1.24804,-4.16406 c -0.68575,-2.29005 -0.99737,-4.41279 -0.69336,-4.7168 0.304,-0.30395 2.57606,-0.41419 5.05078,-0.24414 z m 146.91992,66.58985 -0.71094,2.35937 c -0.3916,1.29789 -2.86278,6.85937 -5.49219,12.35937 -2.6295,5.5 -8.46043,18.10001 -12.95703,28 -6.4484,14.19716 -9.1955,19.09991 -13,23.20118 -4.8003,5.17473 -4.84189,5.19387 -8.68359,4.125 -4.8345,-1.34511 -44.4134,-0.30905 -66.27148,1.73437 -8.47584,0.79237 -17.83099,1.43945 -20.78907,1.43945 l -5.37695,0 0.28906,-8.75 0.28906,-8.75 6,-0.64062 c 3.3,-0.3528 18.72966,-0.6903 34.28907,-0.75 26.94603,-0.10337 28.48604,-0.007 32.43554,2.00781 13.3774,6.82462 27.92763,-3.63919 24.73633,-17.78906 -1.6671,-7.39177 -7.22584,-12.13495 -18.08594,-15.43359 -6.3618,-1.93234 -8.79499,-2.02935 -43.18164,-1.72071 l -36.43945,0.32617 -0.64453,-8.39843 c -0.35475,-4.61965 -0.37574,-8.66965 -0.0469,-9 1.62681,-1.63419 36.10807,-3.19648 82.28907,-3.72852 l 51.35156,-0.59179 z m -167.82617,7.21874 c 0.34191,0 0.62304,3.82501 0.62304,8.5 l 0,8.5 -19.25,-0.19531 c -10.5875,-0.10766 -23.95707,-0.44516 -29.70898,-0.75 -10.09972,-0.53526 -10.48181,-0.64033 -11.15039,-3.05469 -0.38076,-1.375 -0.73622,-3.01417 -0.79102,-3.64453 -0.1235,-1.41998 13.49705,-3.9987 28.40039,-5.37695 6.05,-0.5595 15.55637,-1.68414 21.12696,-2.49805 5.57058,-0.8139 10.40808,-1.48047 10.75,-1.48047 z m 0.62304,50 0,9.44141 c 0,5.56605 -0.43618,9.70983 -1.06054,10.0957 -0.58246,0.35998 -10.93246,0.90531 -23,1.21094 -21.08598,0.53405 -21.94083,0.4814 -21.95313,-1.3457 -0.007,-1.04565 -1.15071,-5.46266 -2.54101,-9.81641 -2.00261,-6.27121 -2.25876,-8.08766 -1.23633,-8.73633 0.70983,-0.45033 12.20352,-0.82598 25.54101,-0.83398 l 24.25,-0.0156 z m 61.7793,103.74219 0.74024,4.37696 c 0.52747,3.12207 1.80054,5.43726 4.4414,8.07812 l 3.70117,3.70117 -5.58203,0.625 c -3.0698,0.34362 -9.30601,1.52411 -13.85937,2.62305 -4.55336,1.09894 -12.37909,3.28427 -17.39063,4.85547 l -9.11132,2.85547 0.64062,-7.57813 c 0.35239,-4.16875 0.64062,-9.69963 0.64062,-12.29101 l 0,-4.71289 8.25,-0.61329 c 4.5375,-0.33775 12.58845,-0.90875 17.89063,-1.26757 l 9.63867,-0.65235 z"
       style="display:inline;fill:url(#linearGradient4706)" />
    <path
       id="path6054"
       d="m 431.27344,123.73633 c -4.15852,-0.0482 -8.29886,1.52152 -11.49805,4.7207 -5.61434,5.61433 -6.32624,9.68959 -4.44922,25.4668 1.54022,12.94631 2.44754,43.10519 1.33008,44.22265 -0.31448,0.31448 -7.47909,2.32137 -15.91992,4.46094 -8.44082,2.13956 -21.4207,5.43416 -28.84571,7.32031 -7.425,1.88615 -18.46238,4.14408 -24.52734,5.01758 -15.73684,2.26649 -25.0243,4.53305 -28.74219,7.01563 -10.02599,6.69475 -8.48048,23.55974 2.68946,29.33594 3.75058,1.93993 11.39867,1.9421 15.15625,0.006 1.60791,-0.82854 8.09883,-2.28418 14.42382,-3.23632 12.89817,-1.94165 25.83314,-4.76003 43.35352,-9.44336 6.51996,-1.74283 12.03169,-2.99175 12.24805,-2.77539 0.51756,0.51757 -3.47416,11.96412 -8.10157,23.23046 -2.03311,4.95001 -5.94322,15.30001 -8.6875,23 -4.75181,13.3329 -11.50728,26.85452 -19.98437,40 -5.6753,8.80074 -7.91081,11.11547 -12.01367,12.43165 -4.72551,1.51592 -10.34092,7.72313 -11.21875,12.40234 -0.8166,4.35285 0.66751,10.46318 3.3789,13.91016 6.69393,8.50995 22.85877,7.33194 33.55665,-2.44532 10.18778,-9.31107 27.96342,-38.46996 34.52929,-56.63867 4.66492,-12.9085 8.64914,-23.38411 14.89453,-39.16016 2.28619,-5.77499 5.70978,-16.09851 7.60742,-22.94335 1.89763,-6.84484 3.9808,-12.77328 4.62891,-13.17383 0.6481,-0.40055 2.78152,-1.01326 4.74219,-1.36133 1.96067,-0.34807 11.2164,-2.36148 20.5664,-4.47461 12.25151,-2.76888 21.32952,-4.15213 32.5,-4.94922 20.55958,-1.46705 59.70674,-1.44258 63.95704,0.0391 3.1282,1.09052 3.2299,1.29567 2.6289,5.25 -0.3439,2.26333 -1.88688,6.58828 -3.42968,9.61328 -38.52041,75.52766 -38.07446,74.29518 -38.88086,107.43946 -0.3464,14.23965 -0.13203,22.63023 0.67187,26.22265 1.4128,6.31304 9.10074,18.51705 15.71094,24.94141 6.8993,6.70534 25.6845,15.21941 36.84179,16.69922 1.65001,0.21884 10.89513,0.46643 20.54493,0.54883 19.4611,0.16619 25.40916,-0.89928 47.00976,-8.41797 13.5352,-4.71128 19.98889,-8.05166 29.71289,-15.37891 16.0989,-12.1309 25.25005,-25.79497 27.46875,-41.01758 1.7269,-11.84819 0.25641,-18.90628 -6.77539,-32.53711 -6.2913,-12.19546 -7.62521,-14.01513 -11.88281,-16.21679 -5.8959,-3.0489 -15.53572,-1.40257 -19.70313,3.36523 -5.7279,6.553 -5.59683,12.96405 0.50977,25.12305 3.2257,6.42273 4.61523,10.41548 4.61523,13.25977 0,12.70532 -16.56619,26.55921 -41,34.2871 -8.969,2.83673 -10.61735,3.02616 -29.50195,3.39844 l -20.0039,0.39453 -7.4961,-3.80468 c -5.2972,-2.68834 -8.45185,-5.07516 -10.74805,-8.13282 l -3.25,-4.32812 0.0176,-14.17188 c 0.0101,-8.19308 0.60165,-16.92831 1.40235,-20.70507 1.9311,-9.10902 8.04835,-25.05816 13.03125,-33.96876 2.3068,-4.125 4.81943,-9.07499 5.58203,-11 0.7626,-1.925 5.14734,-10.475 9.74414,-19 10.3027,-19.10666 12.27616,-24.74849 12.94336,-37 0.5982,-10.98527 -0.40573,-15.66967 -4.76563,-22.25195 -3.72,-5.61626 -9.59221,-9.64797 -20.35351,-13.97265 l -8.10157,-3.25586 -25.5,-0.01 c -36.46019,-0.0138 -57.92003,1.67037 -76.47851,6.00195 -8.22042,1.91866 -15.30104,3.48828 -15.73438,3.48828 -0.43335,0 -0.78711,-4.40369 -0.78711,-9.7871 0,-5.3834 -0.63745,-14.9459 -1.41601,-21.25 -0.77856,-6.30409 -1.18506,-12.65676 -0.90234,-14.11719 0.80272,-4.14654 -2.32853,-13.33829 -5.68946,-16.69922 -3.27422,-3.27422 -7.45086,-4.94008 -11.60937,-4.98828 z"
       style="display:inline;fill:#000000" />
  </g>
</svg>
