<?xml version="1.0" encoding="UTF-8" standalone="no"?>
<svg
   xmlns:osb="http://www.openswatchbook.org/uri/2009/osb"
   xmlns:dc="http://purl.org/dc/elements/1.1/"
   xmlns:cc="http://creativecommons.org/ns#"
   xmlns:rdf="http://www.w3.org/1999/02/22-rdf-syntax-ns#"
   xmlns:svg="http://www.w3.org/2000/svg"
   xmlns="http://www.w3.org/2000/svg"
   xmlns:xlink="http://www.w3.org/1999/xlink"
   version="1.1"
   id="svg2985"
   height="957.82855"
   width="600.93683">
  <defs
     id="defs5498">
    <linearGradient
       osb:paint="solid"
       id="linearGradient4756">
      <stop
         id="stop4758"
         offset="0"
         style="stop-color:#ffffff;stop-opacity:1;" />
    </linearGradient>
    <linearGradient
       osb:paint="solid"
       id="linearGradient4750">
      <stop
         id="stop4752"
         offset="0"
         style="stop-color:#000000;stop-opacity:1;" />
    </linearGradient>
    <linearGradient
       osb:paint="solid"
       id="linearGradient5694">
      <stop
         id="stop5696"
         offset="0"
         style="stop-color:#002b11;stop-opacity:1;" />
    </linearGradient>
    <linearGradient
       osb:paint="solid"
       id="linearGradient4712">
      <stop
         id="stop4714"
         offset="0"
         style="stop-color:#162d50;stop-opacity:1;" />
    </linearGradient>
    <linearGradient
       osb:paint="solid"
       id="linearGradient4706">
      <stop
         id="stop4708"
         offset="0"
         style="stop-color:#d40000;stop-opacity:1;" />
    </linearGradient>
    <linearGradient
       gradientUnits="userSpaceOnUse"
       y2="508.69208"
       x2="761.44257"
       y1="508.69208"
       x1="262.13925"
       id="linearGradient4716"
       xlink:href="#linearGradient4712" />
    <linearGradient
       gradientUnits="userSpaceOnUse"
       y2="500.0004"
       x2="771.30902"
       y1="500.0004"
       x1="228.69211"
       id="linearGradient4754"
       xlink:href="#linearGradient4750" />
    <linearGradient
       gradientUnits="userSpaceOnUse"
       y2="500.10483"
       x2="752.40271"
       y1="500.10483"
       x1="248.61133"
       id="linearGradient4760"
       xlink:href="#linearGradient4756" />
    <linearGradient
       y2="508.69208"
       x2="761.44257"
       y1="508.69208"
       x1="262.13925"
       gradientUnits="userSpaceOnUse"
       id="linearGradient501"
       xlink:href="#linearGradient4712" />
    <linearGradient
       y2="508.69208"
       x2="761.44257"
       y1="508.69208"
       x1="262.13925"
       gradientUnits="userSpaceOnUse"
       id="linearGradient503"
       xlink:href="#linearGradient4712" />
    <linearGradient
       y2="508.69208"
       x2="761.44257"
       y1="508.69208"
       x1="262.13925"
       gradientUnits="userSpaceOnUse"
       id="linearGradient505"
       xlink:href="#linearGradient4712" />
  </defs>
  <metadata
     id="metadata5594">
    <rdf:RDF>
      <cc:Work
         rdf:about="">
        <dc:format>image/svg+xml</dc:format>
        <dc:type
           rdf:resource="http://purl.org/dc/dcmitype/StillImage" />
        <dc:title />
      </cc:Work>
    </rdf:RDF>
  </metadata>
  <g
     transform="translate(-199.53199,-21.085801)"
     style="display:inline"
     id="layer31">
    <path
       id="path5029"
       d="m 567.27539,39.099609 c -16.94173,0 -27.18116,0.07051 -35.84766,0.421875 -4.33324,0.175685 -8.2737,0.421925 -12.46093,0.763672 -4.18724,0.341748 -8.62222,0.779887 -13.94532,1.339844 -6.98062,0.73432 -11.97784,1.243792 -16.17773,1.736328 -4.19989,0.492536 -7.60265,0.968742 -11.39648,1.638672 -7.58767,1.339859 -16.73769,3.453078 -36.94922,8.017578 -12.7845,2.887203 -23.75644,5.432491 -33.32813,7.748047 -9.57169,2.315556 -17.74267,4.401948 -24.92969,6.373047 -7.18701,1.971099 -13.38907,3.825856 -19.01953,5.679687 -5.63045,1.853832 -10.68977,3.70617 -15.59179,5.669922 -3.85399,1.543905 -6.8979,2.803418 -9.79297,4.220703 -2.89508,1.417286 -5.64214,2.99223 -8.90039,5.164063 -3.25826,2.171833 -7.02718,4.9405 -11.97071,8.748047 -4.94352,3.807546 -11.06082,8.654086 -19.01172,14.978516 -5.40391,4.29847 -10.65069,8.74807 -15.58398,13.18945 -4.93329,4.44139 -9.5539,8.87429 -13.70703,13.14063 -4.15313,4.26634 -7.8389,8.36534 -10.90234,12.13867 -1.53172,1.88666 -2.90617,3.69269 -4.10743,5.39648 -1.20126,1.70379 -2.22844,3.30594 -3.06054,4.78711 -1.41955,2.52683 -2.85657,5.60633 -4.25782,9.06836 -1.40124,3.46203 -2.76615,7.30566 -4.04296,11.36524 -1.27682,4.05957 -2.46548,8.33483 -3.51172,12.65429 -1.04625,4.31947 -1.95062,8.68408 -2.66016,12.92578 -0.77731,4.64687 -1.39765,9.86279 -1.85156,15.14454 -0.45391,5.28174 -0.74135,10.62875 -0.84961,15.53711 -0.10826,4.90835 -0.0389,9.37762 0.2207,12.90429 0.12982,1.76334 0.30723,3.29262 0.53321,4.52149 0.22597,1.22886 0.50126,2.1582 0.82617,2.72656 0.39301,0.6875 0.75401,1.86423 1.01953,3.20508 0.26552,1.34084 0.43556,2.8458 0.44531,4.19336 0.0195,2.69512 0.74692,8.41596 1.61719,12.71093 0.62218,3.06964 1.00017,6.24002 1.1875,10.88282 0.18733,4.6428 0.184,10.75802 0.0469,19.71679 -0.17314,11.31162 -0.26513,17.02469 -0.70117,20.96485 -0.21802,1.97008 -0.52235,3.49699 -0.96484,5.05859 -0.4425,1.5616 -1.02407,3.1582 -1.79688,5.26758 -5.57326,15.21224 -8.90341,24.54498 -10.9707,31.11719 -1.03365,3.2861 -1.75046,5.88189 -2.27539,8.17773 -0.52493,2.29584 -0.85774,4.29156 -1.11914,6.37695 -0.6086,4.8552 -1.98282,14.7774 -3.05469,22.05079 -0.55496,3.76585 -0.95447,7.23685 -1.19336,10.55078 -0.23889,3.31392 -0.31701,6.46985 -0.23242,9.60351 0.0846,3.13367 0.33259,6.24563 0.74805,9.47071 0.41545,3.22507 0.99822,6.56418 1.75195,10.15234 3.32034,15.80673 6.16826,29.8619 7.00781,34.59375 0.44846,2.52756 2.84016,11.07756 5.31641,19 2.47625,7.92243 5.66667,18.23125 7.08789,22.90625 0.71061,2.3375 1.74714,6.76914 2.84375,12.02539 1.09661,5.25625 2.25332,11.33711 3.20703,16.97461 1.10473,6.53019 2.29393,12.6074 3.49023,17.88867 1.19631,5.28127 2.39972,9.76659 3.53125,13.11133 1.9537,5.775 4.39644,14.55 5.42969,19.5 1.03326,4.95 2.63127,12.15 3.55078,16 1.80912,7.57482 3.21617,13.561 4.32422,18.59766 1.10805,5.03666 1.9166,9.12403 2.53125,12.89843 0.61465,3.7744 1.03437,7.23735 1.36328,11.02539 0.32892,3.78804 0.56752,7.90094 0.81836,12.97852 0.374,7.57049 1.14471,15.99461 2.07422,23.37695 0.46475,3.69117 0.97026,7.12194 1.48438,10.05469 0.51411,2.93275 1.03722,5.36829 1.54101,7.06836 0.40747,1.375 1.16737,5.32578 2.06446,10.58203 0.89708,5.25625 1.93133,11.81797 2.88476,18.41797 0.95343,6.6 2.03775,13.33125 3.01758,18.85937 0.97983,5.52813 1.85517,9.85313 2.38867,11.64063 1.06699,3.575 2.44603,9.875 3.06445,14 0.61841,4.125 1.72287,9.525 2.45508,12 0.73895,2.49777 1.99114,6.10818 3.59766,10.43945 1.60652,4.33127 3.56661,9.38243 5.72461,14.75977 4.31599,10.75467 9.41959,22.815 14.04492,33.02929 0.93491,2.0646 1.96869,4.09404 3.09766,6.08594 1.12896,1.9919 2.35293,3.94636 3.67187,5.86133 1.31895,1.91497 2.73147,3.79119 4.23633,5.625 1.50486,1.83381 3.10235,3.62463 4.78906,5.37305 1.68671,1.74842 3.46364,3.45448 5.32813,5.11328 1.86449,1.6588 3.81726,3.27098 5.85546,4.83594 2.03821,1.56495 4.1613,3.08195 6.36915,4.54882 2.20784,1.46688 4.49962,2.88348 6.87304,4.24805 3.3607,1.93219 6.93304,3.87481 9.98242,5.44727 3.04938,1.57245 5.5758,2.77474 6.8418,3.22851 2.53201,0.90755 7.9034,3.16537 11.9375,5.01758 2.97514,1.36601 6.21381,2.64671 10.02539,3.91992 3.81158,1.27322 8.19538,2.53916 13.46289,3.87696 5.26751,1.33779 11.4188,2.74689 18.76172,4.30664 7.34293,1.55974 15.87819,3.26992 25.91602,5.20898 5.775,1.11559 31.65,4.72002 57.5,8.00977 25.85,3.28976 51.91558,6.67591 57.92383,7.52343 6.00824,0.84751 13.43322,1.53975 16.5,1.53907 3.06676,-6.7e-4 10.75117,0.65896 17.07617,1.46679 6.325,0.80783 17.575,1.95778 25,2.55469 3.7125,0.29846 8.04375,0.78354 12.03125,1.32617 3.9875,0.54264 7.63125,1.14282 9.96875,1.66797 4.675,1.05031 13.675,2.59095 20,3.42383 6.325,0.83288 12.625,1.68949 14,1.90234 1.43621,0.22233 4.23528,0.36941 7.69922,0.44922 3.46393,0.0798 7.59307,0.0917 11.68945,0.0449 4.09637,-0.0468 8.16062,-0.1512 11.49414,-0.30859 3.33351,-0.15739 5.93596,-0.36707 7.11133,-0.61914 1.05982,-0.22729 2.10293,-0.53553 3.13281,-0.92774 1.02988,-0.3922 2.04596,-0.86815 3.05469,-1.43359 2.01746,-1.13087 4.00264,-2.61659 5.98828,-4.49023 1.98564,-1.87365 3.97191,-4.13546 5.99609,-6.81836 2.02419,-2.68291 4.08566,-5.78706 6.21875,-9.34571 1.39861,-2.3333 2.57826,-4.56016 3.58594,-6.84375 1.00768,-2.28358 1.84314,-4.62441 2.55078,-7.1875 0.70764,-2.56308 1.28863,-5.34775 1.78711,-8.51953 0.49848,-3.17178 0.9147,-6.73016 1.29492,-10.83984 0.76328,-8.25 2.11578,-21.975 3.00586,-30.5 0.77799,-7.45132 1.34807,-13.80528 1.97852,-22.94531 0.63044,-9.14003 1.32126,-21.06612 2.33984,-39.66016 0.51537,-9.40797 1.46603,-20.88297 2.11133,-25.5 0.32265,-2.30852 0.70951,-8.40154 1.07227,-16.35742 0.36275,-7.95588 0.7014,-17.77461 0.92968,-27.53711 1.20367,-51.4738 1.9525,-81.98884 2.51758,-100.40234 0.28254,-9.20676 0.51941,-15.38766 0.74414,-19.65039 0.22473,-4.26274 0.43707,-6.60786 0.67188,-8.14063 0.56389,-3.68094 1.04436,-11.10594 1.06836,-16.5 0.024,-5.39405 0.47468,-14.53164 1.00195,-20.30664 0.52726,-5.775 1.64614,-18.825 2.48437,-29 0.83824,-10.175 1.93476,-20.75 2.4375,-23.5 0.50274,-2.75 0.94171,-7.7 0.97461,-11 0.0165,-1.65 0.2544,-4.5192 0.625,-7.8125 0.37061,-3.2933 0.87386,-7.0107 1.41993,-10.35742 0.89593,-5.49109 1.61342,-10.67421 2.17578,-16.08399 0.56235,-5.40977 0.96943,-11.04546 1.24414,-17.44336 0.27471,-6.39789 0.41816,-13.55824 0.45117,-22.01367 0.033,-8.45543 -0.0443,-18.20668 -0.20703,-29.78906 -0.1681,-11.9625 -0.44221,-23.5125 -0.74805,-32.48438 -0.30584,-8.97187 -0.6434,-15.36562 -0.93945,-17.01562 -0.31694,-1.76645 -0.68691,-10.71915 -1.05078,-24.56641 -0.36387,-13.84725 -0.72165,-32.58905 -1.01172,-53.93359 -0.66935,-49.2527 -1.17683,-78.70427 -1.84961,-97.55469 -0.33639,-9.42521 -0.71345,-16.20044 -1.17383,-21.47461 -0.46038,-5.27417 -1.00348,-9.04789 -1.66992,-12.4707 -1.23033,-6.31893 -2.75885,-12.58774 -4.52344,-18.6543 -1.76459,-6.06656 -3.76503,-11.93028 -5.94336,-17.43945 -2.17833,-5.50917 -4.53431,-10.66378 -7.00586,-15.310548 -1.23577,-2.323383 -2.50063,-4.51972 -3.78711,-6.570312 -1.28648,-2.050592 -2.59389,-3.955639 -3.91601,-5.695312 -1.55565,-2.046939 -3.39338,-4.073873 -5.48242,-6.064454 -2.08905,-1.990581 -4.42906,-3.944652 -6.98829,-5.847656 -2.55922,-1.903004 -5.33851,-3.754854 -8.30468,-5.539062 -2.96617,-1.784209 -6.1198,-3.500572 -9.42969,-5.134766 -3.30989,-1.634194 -6.77486,-3.185711 -10.36524,-4.638672 -3.59037,-1.452961 -7.30564,-2.808319 -11.11328,-4.048828 -3.80763,-1.240509 -7.70825,-2.366443 -11.66992,-3.363281 -3.96166,-0.996839 -7.98464,-1.863989 -12.03711,-2.585938 -12.18099,-2.17005 -21.95622,-3.856482 -30.5,-5.164062 -8.54378,-1.30758 -15.85554,-2.236116 -23.11133,-2.894531 -7.25578,-0.658416 -14.45641,-1.045023 -22.77343,-1.267579 -8.31703,-0.222555 -17.75103,-0.28125 -29.47852,-0.28125 z"
       style="color:#000000;clip-rule:nonzero;display:inline;overflow:visible;visibility:visible;opacity:1;isolation:auto;mix-blend-mode:normal;color-interpolation:sRGB;color-interpolation-filters:linearRGB;solid-color:#000000;solid-opacity:1;fill:url(#linearGradient4756);fill-opacity:1;fill-rule:nonzero;stroke:none;stroke-width:1;stroke-linecap:butt;stroke-linejoin:miter;stroke-miterlimit:4;stroke-dasharray:none;stroke-dashoffset:0;stroke-opacity:1;color-rendering:auto;image-rendering:auto;shape-rendering:auto;text-rendering:auto;enable-background:accumulate" />
    <path
       id="path5027"
       d="m 568.49805,21.085938 c -16.9758,-0.0058 -27.35371,0.06596 -36.29883,0.419921 -8.94512,0.353958 -16.45746,0.990073 -27.70117,2.111329 -7.47623,0.745554 -13.12847,1.311874 -18.07032,1.894531 -4.94184,0.582657 -9.17256,1.181217 -13.81054,1.990234 -4.63799,0.809017 -9.68145,1.829272 -16.2461,3.253906 -6.56464,1.424635 -14.65122,3.254084 -25.37304,5.683594 -19.34161,4.38271 -37.32854,8.779899 -51.79883,12.617188 -7.23515,1.918644 -13.58989,3.696403 -18.79688,5.263671 -5.20699,1.567269 -9.26568,2.923549 -11.90429,3.996094 -4.125,1.67673 -10.67669,4.260098 -14.5586,5.742188 -2.48043,0.947017 -4.8715,2.018861 -7.41797,3.380859 -2.54646,1.361998 -5.24777,3.01333 -8.3496,5.123047 -3.10184,2.109717 -6.60346,4.677012 -10.75,7.867188 -4.14655,3.190175 -8.93854,7.004049 -14.61915,11.607421 -5.77,4.675829 -10.98604,8.963591 -15.71484,12.945311 -4.7288,3.98172 -8.97132,7.65691 -12.79492,11.10547 -3.8236,3.44856 -7.22684,6.6717 -10.28125,9.74805 -3.05442,3.07634 -5.75845,6.00601 -8.17969,8.87109 -2.42124,2.86508 -4.5603,5.66571 -6.48437,8.48047 -1.92408,2.81476 -3.63435,5.64493 -5.19727,8.57031 -1.56292,2.92539 -2.97863,5.94562 -4.31641,9.14258 -1.33777,3.19696 -2.59705,6.56973 -3.8457,10.19922 -1.61032,4.68079 -2.99431,9.35863 -4.22851,14.33984 -1.23421,4.98122 -2.31863,10.26582 -3.32813,16.16016 l -2.91016,17 -0.0117,50.81445 c -0.003,12.88177 0.004,22.69374 0.0723,30.19727 0.0683,7.50352 0.19783,12.69901 0.4375,16.34961 0.23967,3.6506 0.59028,5.75513 1.10156,7.07812 0.25565,0.6615 0.5522,1.12855 0.89453,1.49414 0.34234,0.3656 0.73032,0.63027 1.17188,0.89063 0.4236,0.24977 0.74228,0.43031 0.86719,0.87109 0.1249,0.44079 0.0564,1.14269 -0.29883,2.4336 -0.71052,2.5818 -2.56323,7.52208 -6.2832,17.45898 -1.68068,4.48948 -3.03986,8.21889 -4.15821,11.49414 -1.11835,3.27525 -1.99644,6.09561 -2.71679,8.76563 -0.72036,2.67001 -1.28283,5.18951 -1.76954,7.86328 -0.4867,2.67377 -0.89707,5.50255 -1.31445,8.78906 -0.66357,5.225 -1.83685,13.325 -2.60742,18 -0.47422,2.87703 -0.82425,6.65645 -1.05273,10.84961 -0.22849,4.19316 -0.33454,8.79941 -0.32032,13.32812 0.0142,4.52872 0.14844,8.98154 0.40235,12.86524 0.2539,3.8837 0.62663,7.19891 1.11718,9.45703 0.83639,3.85 2.38036,11.5 3.42969,17 1.94283,10.1832 3.26874,16.76201 4.63867,22.50586 1.36994,5.74385 2.7839,10.65274 4.90235,17.49414 4.15294,13.4117 6.75126,22.19175 8.69726,29.91601 0.97301,3.86214 1.78374,7.46047 2.54297,11.24219 0.75924,3.78173 1.46751,7.74618 2.23828,12.3418 0.95757,5.70936 2.11254,11.50299 3.33203,16.8125 1.2195,5.30951 2.50351,10.13491 3.72266,13.90625 2.17273,6.72114 4.41826,14.59614 4.99024,17.5 1.38199,7.01609 5.69174,25.78859 7.64062,33.28125 1.07116,4.11814 2.1291,9.61117 2.92383,14.82812 0.79473,5.21696 1.32625,10.15785 1.34179,13.17188 0.0142,2.75 0.47986,9.3875 1.03516,14.75 0.55531,5.3625 1.48781,14.3625 2.07227,20 0.29223,2.81875 0.7776,6.25001 1.32422,9.50781 0.54661,3.25781 1.15447,6.34216 1.6914,8.4668 0.53694,2.12463 1.35894,6.44883 2.25,11.70508 0.89107,5.25625 1.85119,11.44455 2.66602,17.29492 0.81483,5.85036 1.83379,12.29413 2.82031,17.96289 0.98652,5.66876 1.94061,10.5625 2.62305,13.3125 1.36486,5.5 3.20992,13.81559 4.09961,18.48047 0.42044,2.20449 1.08252,4.82228 2.00195,7.89648 0.91943,3.07421 2.09601,6.60427 3.54492,10.63282 2.89782,8.05708 6.88527,18.10802 12.08399,30.49023 3.12242,7.43694 5.72619,13.43467 8.10742,18.46484 2.38122,5.03018 4.54047,9.09312 6.77148,12.66211 1.11551,1.7845 2.24874,3.44452 3.4375,5.04102 1.18876,1.5965 2.43169,3.12955 3.76758,4.65625 2.67178,3.05339 5.71249,6.08499 9.41602,9.56836 4.41573,4.15323 7.74641,7.05474 11.3496,9.70117 3.6032,2.64643 7.47891,5.03779 12.98243,8.16992 3.7125,2.11284 7.70664,4.25165 11.15039,5.99414 3.44375,1.74249 6.33711,3.08865 7.84961,3.61914 3.025,1.06099 8.47126,3.29635 12.10351,4.96875 1.99141,0.91691 4.71609,1.96956 7.86133,3.06446 3.14525,1.09489 6.71093,2.23254 10.38477,3.32031 3.67383,1.08777 7.45603,2.12596 11.0332,3.02148 3.57717,0.89552 6.94943,1.64787 9.80469,2.16602 11.70755,2.12459 23.82222,4.49313 34.3125,6.70898 2.475,0.52279 10.10234,1.67261 20.39648,3.10352 10.29414,1.43091 23.25507,3.14291 36.39844,4.79101 26.28674,3.2962 52.57733,6.66563 58.42383,7.48633 5.8465,0.82071 13.10161,1.49219 16.12304,1.49219 3.02143,0 10.48085,0.65545 16.57618,1.45703 6.09533,0.80159 17.38203,1.93105 25.08203,2.50977 3.85,0.28936 7.96953,0.72126 11.5039,1.18359 3.53438,0.46233 6.4836,0.95507 7.9961,1.36719 2.91165,0.79335 8.78234,1.85908 15.49023,2.87695 6.70789,1.01787 14.25297,1.98789 20.50977,2.58594 2.95016,0.28198 6.72833,0.4921 10.84765,0.63086 4.11933,0.13875 8.57953,0.20676 12.89063,0.20312 4.3111,-0.004 8.47452,-0.0794 12,-0.22461 3.52548,-0.14521 6.41331,-0.36052 8.17578,-0.64648 2.44731,-0.39709 4.66861,-0.90855 6.74414,-1.58008 2.07553,-0.67153 4.0059,-1.50364 5.86719,-2.53711 1.86128,-1.03347 3.65441,-2.26905 5.45898,-3.75195 1.80458,-1.4829 3.62,-3.21261 5.52539,-5.23242 2.16986,-2.30017 4.22349,-4.6847 6.14649,-7.12891 1.923,-2.44421 3.71499,-4.94712 5.35937,-7.48633 1.64438,-2.5392 3.14256,-5.11406 4.47656,-7.69922 1.33401,-2.58516 2.50423,-5.1816 3.4961,-7.76367 0.80105,-2.08532 1.51854,-4.3647 2.16601,-6.93164 0.64748,-2.56694 1.22432,-5.42168 1.74805,-8.6543 0.52373,-3.23261 0.99401,-6.84346 1.42383,-10.92578 0.42982,-4.08232 0.8198,-8.63588 1.18555,-13.75195 0.35388,-4.95 1.30051,-14.175 2.10351,-20.5 0.40151,-3.1625 0.9299,-9.24414 1.45703,-16.49414 0.52713,-7.25 1.05301,-15.66836 1.45117,-23.50586 0.79633,-15.675 1.90152,-33.9 2.45508,-40.5 0.55356,-6.6 1.4544,-17.4 2.00196,-24 0.27378,-3.3 0.58304,-11.69922 0.86132,-22.57422 0.27829,-10.875 0.52561,-24.22578 0.67383,-37.42578 0.14823,-13.2 0.39028,-26.32539 0.66211,-36.83789 0.27184,-10.5125 0.57346,-18.41211 0.83789,-21.16211 0.52886,-5.5 1.42166,-22.15 1.98438,-37 0.56273,-14.85 1.6729,-34.425 2.46679,-43.5 0.79389,-9.075 1.89693,-21.675 2.45118,-28 0.55426,-6.325 1.47177,-14.2 2.03906,-17.5 0.56729,-3.3 1.02458,-8.25 1.01758,-11 -0.007,-2.75 0.87481,-11.3 1.96093,-19 1.08612,-7.7 2.44501,-18.97154 3.01953,-25.04688 0.33831,-3.57703 0.59244,-10.60906 0.76172,-19.33007 0.16929,-8.72102 0.2537,-19.13164 0.25391,-29.4668 2.1e-4,-10.33516 -0.085,-20.59421 -0.25391,-29.01367 -0.16893,-8.41946 -0.42163,-14.99874 -0.75976,-17.97266 -0.50895,-4.47614 -0.95039,-9.787 -1.33985,-16.48828 -0.38945,-6.70128 -0.72785,-14.79212 -1.03125,-24.82617 -0.60678,-20.0681 -1.07397,-47.91021 -1.5371,-87.95508 -0.46689,-40.36836 -0.70325,-60.65923 -1.14649,-72.71289 -0.22162,-6.02683 -0.49582,-9.99503 -0.875,-13.38281 -0.37917,-3.38779 -0.86406,-6.1958 -1.50977,-9.9043 -1.3513,-7.76096 -2.89656,-15.02057 -4.65039,-21.82227 -0.87691,-3.40084 -1.80567,-6.68838 -2.78906,-9.86523 -0.98339,-3.17685 -2.02146,-6.24362 -3.11523,-9.20703 -1.09377,-2.96341 -2.24313,-5.82348 -3.45117,-8.58399 -1.20805,-2.760506 -2.47456,-5.42207 -3.80079,-7.99023 -1.32622,-2.56816 -2.71186,-5.041376 -4.16015,-7.427734 -1.4483,-2.386359 -2.95893,-4.685286 -4.53321,-6.900391 -1.26979,-1.786686 -2.6038,-3.519395 -4.0039,-5.199219 -1.4001,-1.679823 -2.86562,-3.307019 -4.40234,-4.884765 -1.53673,-1.577747 -3.14455,-3.105481 -4.82422,-4.585938 -1.67967,-1.480456 -3.43279,-2.912829 -5.26172,-4.300781 -3.65787,-2.775905 -7.61928,-5.372033 -11.91211,-7.806641 -4.29284,-2.434607 -8.91619,-4.708243 -13.89453,-6.839843 -4.08454,-1.748898 -8.13075,-3.325831 -12.29102,-4.773438 -4.16027,-1.447607 -8.43529,-2.765204 -12.97656,-3.994141 -4.54128,-1.228936 -9.34862,-2.370003 -14.57617,-3.46289 -5.22756,-1.092887 -10.87464,-2.138277 -17.09375,-3.177735 -9.6976,-1.62085 -17.83259,-2.905445 -25.25586,-3.919922 -7.42327,-1.014476 -14.13574,-1.75795 -20.98438,-2.300781 -6.84864,-0.542831 -13.83489,-0.88393 -21.80859,-1.089843 -7.97371,-0.205914 -16.93395,-0.277525 -27.73242,-0.28125 z m -1.22266,18.013671 c 11.72749,0 21.16149,0.0587 29.47852,0.28125 8.31702,0.222556 15.51765,0.609163 22.77343,1.267579 7.25579,0.658415 14.56755,1.586951 23.11133,2.894531 8.54378,1.30758 18.31901,2.994012 30.5,5.164062 4.05247,0.721949 8.07545,1.589099 12.03711,2.585938 3.96167,0.996838 7.86229,2.122772 11.66992,3.363281 3.80764,1.240509 7.52291,2.595867 11.11328,4.048828 3.59038,1.452961 7.05535,3.004478 10.36524,4.638672 3.30989,1.634194 6.46352,3.350557 9.42969,5.134766 2.96617,1.784208 5.74546,3.636058 8.30468,5.539062 2.55923,1.903004 4.89924,3.857075 6.98829,5.847656 2.08904,1.990581 3.92677,4.017515 5.48242,6.064454 1.32212,1.739673 2.62953,3.64472 3.91601,5.695312 1.28648,2.050592 2.55134,4.246929 3.78711,6.570312 2.47155,4.646768 4.82753,9.801378 7.00586,15.310548 2.17833,5.50917 4.17877,11.37289 5.94336,17.43945 1.76459,6.06656 3.29311,12.33537 4.52344,18.6543 0.66644,3.42281 1.20954,7.19653 1.66992,12.4707 0.46038,5.27417 0.83744,12.0494 1.17383,21.47461 0.67278,18.85042 1.18026,48.30199 1.84961,97.55469 0.29007,21.34454 0.64785,40.08634 1.01172,53.93359 0.36387,13.84726 0.73384,22.79996 1.05078,24.56641 0.29605,1.65 0.63361,8.04375 0.93945,17.01562 0.30584,8.97188 0.57995,20.52188 0.74805,32.48438 0.16275,11.58238 0.24004,21.33363 0.20703,29.78906 -0.033,8.45543 -0.17646,15.61578 -0.45117,22.01367 -0.27471,6.3979 -0.68179,12.03359 -1.24414,17.44336 -0.56236,5.40978 -1.27985,10.5929 -2.17578,16.08399 -0.54607,3.34672 -1.04932,7.06412 -1.41993,10.35742 -0.3706,3.2933 -0.60855,6.1625 -0.625,7.8125 -0.0329,3.3 -0.47187,8.25 -0.97461,11 -0.50274,2.75 -1.59926,13.325 -2.4375,23.5 -0.83823,10.175 -1.95711,23.225 -2.48437,29 -0.52727,5.775 -0.97795,14.91259 -1.00195,20.30664 -0.024,5.39406 -0.50447,12.81906 -1.06836,16.5 -0.23481,1.53277 -0.44715,3.87789 -0.67188,8.14063 -0.22473,4.26273 -0.4616,10.44363 -0.74414,19.65039 -0.56508,18.4135 -1.31391,48.92854 -2.51758,100.40234 -0.22828,9.7625 -0.56693,19.58123 -0.92968,27.53711 -0.36276,7.95588 -0.74962,14.0489 -1.07227,16.35742 -0.6453,4.61703 -1.59596,16.09203 -2.11133,25.5 -1.01858,18.59404 -1.7094,30.52013 -2.33984,39.66016 -0.63045,9.14003 -1.20053,15.49399 -1.97852,22.94531 -0.89008,8.525 -2.24258,22.25 -3.00586,30.5 -0.38022,4.10968 -0.79644,7.66806 -1.29492,10.83984 -0.49848,3.17178 -1.07947,5.95645 -1.78711,8.51953 -0.70764,2.56309 -1.5431,4.90392 -2.55078,7.1875 -1.00768,2.28359 -2.18733,4.51045 -3.58594,6.84375 -2.13309,3.55865 -4.19456,6.6628 -6.21875,9.34571 -2.02418,2.6829 -4.01045,4.94471 -5.99609,6.81836 -1.98564,1.87364 -3.97082,3.35936 -5.98828,4.49023 -1.00873,0.56544 -2.02481,1.04139 -3.05469,1.43359 -1.02988,0.39221 -2.07299,0.70045 -3.13281,0.92774 -1.17537,0.25207 -3.77782,0.46175 -7.11133,0.61914 -3.33352,0.15739 -7.39777,0.26183 -11.49414,0.30859 -4.09638,0.0468 -8.22552,0.0349 -11.68945,-0.0449 -3.46394,-0.0798 -6.26301,-0.22689 -7.69922,-0.44922 -1.375,-0.21285 -7.675,-1.06946 -14,-1.90234 -6.325,-0.83288 -15.325,-2.37352 -20,-3.42383 -2.3375,-0.52515 -5.98125,-1.12533 -9.96875,-1.66797 -3.9875,-0.54263 -8.31875,-1.02771 -12.03125,-1.32617 -7.425,-0.59691 -18.675,-1.74686 -25,-2.55469 -6.325,-0.80783 -14.00941,-1.46746 -17.07617,-1.46679 -3.06678,6.8e-4 -10.49176,-0.69156 -16.5,-1.53907 -6.00825,-0.84752 -32.07383,-4.23367 -57.92383,-7.52343 -25.85,-3.28975 -51.725,-6.89418 -57.5,-8.00977 -10.03783,-1.93906 -18.57309,-3.64924 -25.91602,-5.20898 -7.34292,-1.55975 -13.49421,-2.96885 -18.76172,-4.30664 -5.26751,-1.3378 -9.65131,-2.60374 -13.46289,-3.87696 -3.81158,-1.27321 -7.05025,-2.55391 -10.02539,-3.91992 -4.0341,-1.85221 -9.40549,-4.11003 -11.9375,-5.01758 -1.266,-0.45377 -3.79242,-1.65606 -6.8418,-3.22851 -3.04938,-1.57246 -6.62172,-3.51508 -9.98242,-5.44727 -2.37342,-1.36457 -4.6652,-2.78117 -6.87304,-4.24805 -2.20785,-1.46687 -4.33094,-2.98387 -6.36915,-4.54882 -2.0382,-1.56496 -3.99097,-3.17714 -5.85546,-4.83594 -1.86449,-1.6588 -3.64142,-3.36486 -5.32813,-5.11328 -1.68671,-1.74842 -3.2842,-3.53924 -4.78906,-5.37305 -1.50486,-1.83381 -2.91738,-3.71003 -4.23633,-5.625 -1.31894,-1.91497 -2.54291,-3.86943 -3.67187,-5.86133 -1.12897,-1.9919 -2.16275,-4.02134 -3.09766,-6.08594 -4.62533,-10.21429 -9.72893,-22.27462 -14.04492,-33.02929 -2.158,-5.37734 -4.11809,-10.4285 -5.72461,-14.75977 -1.60652,-4.33127 -2.85871,-7.94168 -3.59766,-10.43945 -0.73221,-2.475 -1.83667,-7.875 -2.45508,-12 -0.61842,-4.125 -1.99746,-10.425 -3.06445,-14 -0.5335,-1.7875 -1.40884,-6.1125 -2.38867,-11.64063 -0.97983,-5.52812 -2.06415,-12.25937 -3.01758,-18.85937 -0.95343,-6.6 -1.98768,-13.16172 -2.88476,-18.41797 -0.89709,-5.25625 -1.65699,-9.20703 -2.06446,-10.58203 -0.50379,-1.70007 -1.0269,-4.13561 -1.54101,-7.06836 -0.51412,-2.93275 -1.01963,-6.36352 -1.48438,-10.05469 -0.92951,-7.38234 -1.70022,-15.80646 -2.07422,-23.37695 -0.25084,-5.07758 -0.48944,-9.19048 -0.81836,-12.97852 -0.32891,-3.78804 -0.74863,-7.25099 -1.36328,-11.02539 -0.61465,-3.7744 -1.4232,-7.86177 -2.53125,-12.89843 -1.10805,-5.03666 -2.5151,-11.02284 -4.32422,-18.59766 -0.91951,-3.85 -2.51752,-11.05 -3.55078,-16 -1.03325,-4.95 -3.47599,-13.725 -5.42969,-19.5 -1.13153,-3.34474 -2.33494,-7.83006 -3.53125,-13.11133 -1.1963,-5.28127 -2.3855,-11.35848 -3.49023,-17.88867 -0.95371,-5.6375 -2.11042,-11.71836 -3.20703,-16.97461 -1.09661,-5.25625 -2.13314,-9.68789 -2.84375,-12.02539 -1.42122,-4.675 -4.61164,-14.98382 -7.08789,-22.90625 -2.47625,-7.92244 -4.86795,-16.47244 -5.31641,-19 -0.83955,-4.73185 -3.68747,-18.78702 -7.00781,-34.59375 -0.75373,-3.58816 -1.3365,-6.92727 -1.75195,-10.15234 -0.41546,-3.22508 -0.66346,-6.33704 -0.74805,-9.47071 -0.0846,-3.13366 -0.006,-6.28959 0.23242,-9.60351 0.23889,-3.31393 0.6384,-6.78493 1.19336,-10.55078 1.07187,-7.27339 2.44609,-17.19559 3.05469,-22.05079 0.2614,-2.08539 0.59421,-4.08111 1.11914,-6.37695 0.52493,-2.29584 1.24174,-4.89163 2.27539,-8.17773 2.06729,-6.57221 5.39744,-15.90495 10.9707,-31.11719 0.77281,-2.10938 1.35438,-3.70598 1.79688,-5.26758 0.44249,-1.5616 0.74682,-3.08851 0.96484,-5.05859 0.43604,-3.94016 0.52803,-9.65323 0.70117,-20.96485 0.13713,-8.95877 0.14046,-15.07399 -0.0469,-19.71679 -0.18733,-4.6428 -0.56532,-7.81318 -1.1875,-10.88282 -0.87027,-4.29497 -1.59769,-10.01581 -1.61719,-12.71093 -0.01,-1.34756 -0.17979,-2.85252 -0.44531,-4.19336 -0.26552,-1.34085 -0.62652,-2.51758 -1.01953,-3.20508 -0.32491,-0.56836 -0.6002,-1.4977 -0.82617,-2.72656 -0.22598,-1.22887 -0.40339,-2.75815 -0.53321,-4.52149 -0.25964,-3.52667 -0.32896,-7.99594 -0.2207,-12.90429 0.10826,-4.90836 0.3957,-10.25537 0.84961,-15.53711 0.45391,-5.28175 1.07425,-10.49767 1.85156,-15.14454 0.70954,-4.2417 1.61391,-8.60631 2.66016,-12.92578 1.04624,-4.31946 2.2349,-8.59472 3.51172,-12.65429 1.27681,-4.05958 2.64172,-7.90321 4.04296,-11.36524 1.40125,-3.46203 2.83827,-6.54153 4.25782,-9.06836 0.8321,-1.48117 1.85928,-3.08332 3.06054,-4.78711 1.20126,-1.70379 2.57571,-3.50982 4.10743,-5.39648 3.06344,-3.77333 6.74921,-7.87233 10.90234,-12.13867 4.15313,-4.26634 8.77374,-8.69924 13.70703,-13.14063 4.93329,-4.44138 10.18007,-8.89098 15.58398,-13.18945 7.9509,-6.32443 14.0682,-11.17097 19.01172,-14.978516 4.94353,-3.807547 8.71245,-6.576214 11.97071,-8.748047 3.25825,-2.171833 6.00531,-3.746777 8.90039,-5.164063 2.89507,-1.417285 5.93898,-2.676798 9.79297,-4.220703 4.90202,-1.963752 9.96134,-3.81609 15.59179,-5.669922 5.63046,-1.853831 11.83252,-3.708588 19.01953,-5.679687 7.18702,-1.971099 15.358,-4.057491 24.92969,-6.373047 9.57169,-2.315556 20.54363,-4.860844 33.32813,-7.748047 20.21153,-4.5645 29.36155,-6.677719 36.94922,-8.017578 3.79383,-0.66993 7.19659,-1.146136 11.39648,-1.638672 4.19989,-0.492536 9.19711,-1.002008 16.17773,-1.736328 5.3231,-0.559957 9.75808,-0.998096 13.94532,-1.339844 4.18723,-0.341747 8.12769,-0.587987 12.46093,-0.763672 8.6665,-0.351369 18.90593,-0.421875 35.84766,-0.421875 z"
       style="color:#000000;clip-rule:nonzero;display:inline;overflow:visible;visibility:visible;opacity:1;isolation:auto;mix-blend-mode:normal;color-interpolation:sRGB;color-interpolation-filters:linearRGB;solid-color:#000000;solid-opacity:1;fill:url(#linearGradient4750);fill-opacity:1;fill-rule:nonzero;stroke:none;stroke-width:1;stroke-linecap:butt;stroke-linejoin:miter;stroke-miterlimit:4;stroke-dasharray:none;stroke-dashoffset:0;stroke-opacity:1;color-rendering:auto;image-rendering:auto;shape-rendering:auto;text-rendering:auto;enable-background:accumulate" />
    <path
       id="path6049"
       d="m 386.36523,496.86719 c -8.7142,0 -15.07889,5.86582 -16.34375,15.0625 -1.20015,8.72609 3.40325,37.24488 12.53907,77.66992 2.67325,11.82884 7.29906,21.78901 11.85547,25.52734 5.17099,4.24256 5.96943,5.0894 8.40039,8.91797 3.70139,5.82942 7.13099,7.12475 21.42187,8.08789 7.01753,0.47295 18.60977,1.55493 25.75977,2.4043 7.15,0.84936 17.85558,1.54773 23.79101,1.55273 l 10.79297,0.01 -0.69336,7.75 c -0.38053,4.2625 -0.96111,10 -1.29101,12.75 l -0.59961,5 -7,0.22461 c -9.59106,0.3085 -26.41066,2.02933 -42.17774,4.31445 -7.24732,1.05035 -19.91922,2.58567 -28.16015,3.41211 -12.88484,1.29214 -36.79507,5.58541 -39.125,7.02539 -0.41544,0.25675 -1.52782,-2.38386 -2.47071,-5.86719 -4.43732,-16.39278 -20.03769,-23.1599 -31.0664,-13.47656 -5.90094,5.18109 -6.89457,14.19605 -2.37696,21.54688 2.86557,4.66273 4.64322,12.3952 3.65235,15.88281 -1.36063,4.78905 0.0437,11.16192 3.26953,14.83594 3.12796,3.56255 8.20903,17.14458 9.41015,25.15429 0.40267,2.68518 2.29037,9.84663 4.19336,15.91407 1.90299,6.06745 4.33232,16.2276 5.39844,22.57617 2.85758,17.01643 4.30605,21.13841 8.88086,25.27148 9.24447,8.35183 23.68465,4.38705 27.24024,-7.48047 1.01568,-3.39004 0.9364,-5.15706 -0.47461,-10.69726 -0.92964,-3.65012 -2.36787,-10.68672 -3.19727,-15.63672 -0.82941,-4.95 -2.84082,-13.275 -4.46875,-18.5 -1.62792,-5.225 -3.90684,-13.92087 -5.06445,-19.32422 -1.1576,-5.40336 -2.73385,-11.61038 -3.50391,-13.79297 -1.0817,-3.06586 -1.12277,-4.06238 -0.17969,-4.38086 5.66417,-1.91282 21.12925,-4.78033 29.72071,-5.50976 5.775,-0.49031 18.59406,-2.04485 28.48633,-3.45508 16.50697,-2.35321 46.45714,-5.14473 46.85937,-4.36719 0.0934,0.18058 0.0195,13.43637 -0.16602,29.45508 l -0.33789,29.125 -4.17187,0.57031 c -2.29397,0.31377 -9.56992,0.86405 -16.16992,1.22266 -15.44221,0.83904 -18.61158,1.68153 -22.35352,5.94336 -3.96703,4.5182 -5.42278,9.77222 -4.08398,14.74414 1.38399,5.13974 6.29855,10.49647 10.76953,11.73828 4.7833,1.32853 19.38472,1.30409 30.43164,-0.0508 7.5723,-0.92871 9.36745,-0.84329 13.20703,0.62304 5.46045,2.08537 10.42058,1.37544 16.0293,-2.29296 4.22545,-2.76367 8.62855,-3.57265 36.5,-6.70899 22.20911,-2.49916 36.30362,-4.65911 39.75,-6.08984 1.78791,-0.74223 4.37333,-2.55799 5.74414,-4.03711 l 2.49219,-2.68945 1.43945,3.44335 c 3.03576,7.26562 3.00483,8.57821 -0.27735,12.31641 -8.80433,10.02758 -4.46473,23.01281 9.14649,27.37109 18.11036,5.79891 55.60102,14.17882 73.70508,16.47461 9.3234,1.18232 17.89383,-1.40044 23.19726,-6.98828 3.20852,-3.38058 4.91151,-7.26551 8.84375,-20.17383 8.15426,-26.76787 11.77011,-35.8981 25.04297,-63.24609 7.62875,-15.71862 14.60627,-31.45148 15.50586,-34.96289 2.93251,-11.44674 0.0811,-22.57397 -7.88867,-30.79102 -5.47892,-5.6489 -9.85776,-7.82774 -23.20117,-11.54687 l -11,-3.06641 -62,-0.36718 c -55.49929,-0.32785 -93.73245,0.47457 -116.85352,2.45117 l -6.85351,0.58594 0.72265,-10.86133 c 0.39741,-5.97406 0.83854,-10.99486 0.98047,-11.15625 0.14193,-0.16139 4.02559,0.16874 8.63086,0.73242 14.0503,1.71974 30.95383,1.58843 34.54297,-0.26758 13.49805,-6.98012 11.35278,-26.36603 -3.39258,-30.66211 -2.07753,-0.60529 -10.91778,-1.50661 -19.64453,-2.0039 -8.72674,-0.49729 -16.1136,-1.15266 -16.41602,-1.45508 -1.23493,-1.23492 0.6653,-1.36789 7.29883,-0.51367 3.84149,0.49468 9.90938,0.91208 13.48438,0.92968 3.575,0.0176 10.11712,0.75117 14.53906,1.62891 9.67365,1.9202 14.75553,0.95734 19.38477,-3.67188 6.99537,-6.99538 5.89636,-20.06849 -2.12696,-25.31836 -4.18233,-2.73661 -14.11083,-4.67754 -28.79687,-5.63085 -20.1828,-1.31013 -19.88385,-1.21895 -18.97852,-5.77149 0.40491,-2.03609 1.50525,-5.4696 2.44531,-7.63086 0.94006,-2.16125 1.53548,-5.42375 1.32227,-7.25 l -0.38672,-3.32031 12.76172,0 c 7.01985,0 17.39356,0.47259 23.05078,1.05078 14.44886,1.47645 50.20625,6.07549 50.66992,6.51758 0.21202,0.20215 -4.17727,9.54654 -9.7539,20.76367 -10.26726,20.6521 -15.88166,28.88678 -20.48829,30.04297 -3.72589,0.93514 -9.32847,7.80712 -10.10351,12.39453 -2.02826,12.00512 8.33645,21.83432 20.2168,19.17188 6.69027,-1.49932 12.05466,-4.61949 17.70703,-10.30079 5.53864,-5.56699 15.41413,-20.00081 17.54297,-25.64062 0.72663,-1.925 3.97094,-8.77228 7.20898,-15.21484 7.47379,-14.87023 11.74987,-27.34067 12.48047,-36.40235 0.50055,-6.20853 0.25322,-7.81799 -1.93945,-12.60742 -4.28565,-9.36109 -12.6986,-13.95695 -28.90625,-15.79297 -5.05603,-0.57276 -14.17828,-1.68579 -20.27149,-2.47265 -27.17559,-3.50937 -34.85095,-4.02371 -96.07812,-6.43555 -13.2,-0.51997 -27.825,-1.2205 -32.5,-1.5586 -4.675,-0.3381 -18.625,-1.02913 -31,-1.53515 -30.89527,-1.26333 -38.68087,-2.30751 -41.20899,-5.52149 -2.87876,-3.65975 -7.49189,-5.6914 -12.92383,-5.6914 z m 19.56641,42.46484 c 0.2063,-0.20629 6.15544,0.30925 13.2207,1.14453 7.06526,0.83527 23.42071,1.79392 36.34571,2.13086 22.58887,0.58885 39.53971,1.69791 40.49218,2.65039 0.24902,0.24902 0.003,2.08281 -0.54687,4.07422 -0.54986,1.99141 -1.32492,6.20404 -1.72266,9.36133 -0.76359,6.06145 -0.98141,6.28036 -5.72265,5.75976 -5.54512,-0.60886 -36.86787,-3.28381 -51.5,-4.39843 -13.14649,-1.00145 -25.36946,-2.9925 -26.73047,-4.35352 -0.73834,-0.73833 -4.29388,-15.91119 -3.83594,-16.36914 z m 14.48438,52.49219 3.79101,0.67578 c 2.08518,0.3719 10.99102,1.09642 19.79102,1.60938 8.8,0.51294 22.075,1.61567 29.5,2.45117 7.425,0.8355 13.86956,1.52429 14.32031,1.52929 0.4508,0.005 0.67575,1.02227 0.5,2.25977 -0.30718,2.16289 -0.72683,2.25386 -10.82031,2.34766 -5.775,0.0537 -12.3,-0.0719 -14.5,-0.27735 -9.34896,-0.87328 -39.87978,-4.37801 -39.98243,-4.58984 -0.0616,-0.12714 -0.67143,-1.531 -1.35546,-3.11914 l -1.24414,-2.88672 z m 185.32031,97.33789 c 45.12517,-0.34836 91.39949,0.0704 97.55664,1.57422 3.68804,0.90075 7.10406,1.99801 7.5918,2.4375 1.01986,0.91896 -1.61799,6.84655 -16.4375,36.92578 -9.94718,20.18983 -15.20592,33.51764 -21.40039,54.25 -1.4379,4.8125 -2.7123,8.69822 -2.83204,8.63672 -0.11973,-0.0615 -2.46679,-0.52034 -5.21679,-1.01953 -2.75,-0.49919 -9.725,-1.97971 -15.5,-3.29102 -5.775,-1.31132 -13.94039,-3.15908 -18.14453,-4.10547 l -7.64258,-1.7207 0.51367,-5.66797 c 1.29199,-14.24825 -13.3578,-40.81994 -30.52344,-55.36328 -2.03659,-1.72547 -6.21241,-5.47627 -9.27929,-8.33398 -8.92994,-8.3209 -16.69652,-9.03663 -24.42383,-2.25196 -8.05727,7.07437 -6.14968,21.99564 3.70898,29.01563 l 3.20117,2.27929 -7.95508,1.23438 c -4.3755,0.67892 -11.55507,1.5259 -15.95507,1.88086 -4.4,0.35496 -12.38526,1.27757 -17.74414,2.05078 -5.35888,0.77321 -10.42138,1.40625 -11.25,1.40625 -1.2947,0 -1.50111,-2.91827 -1.47461,-20.75 0.0285,-19.17685 1.12204,-34.73749 2.54297,-36.16016 1.56147,-1.56339 45.53889,-2.67898 90.66406,-3.02734 z"
       style="fill:url(#linearGradient4706)" />
    <path
       id="path6047"
       d="m 433.46094,364.71484 c -3.91265,-0.12925 -7.87563,1.36845 -11.45117,4.50782 -6.02075,5.28628 -6.74185,11.63785 -3.10547,27.37695 1.27072,5.5 2.16204,10.17317 1.98047,10.38672 -0.53738,0.63202 -28.05972,3.86121 -38.88672,4.5625 -5.5,0.35624 -15.4,1.577 -22,2.71289 -7.46682,1.28507 -19.36642,2.32263 -31.5,2.74609 -11.85403,0.41369 -20.34038,1.14444 -21.64258,1.86328 -3.36883,1.85966 -7.21092,6.97099 -8.31055,11.05469 -2.08564,7.74549 3.4178,17.13639 11.29492,19.27344 5.737,1.55645 40.65965,0.55288 51.65821,-1.48438 4.675,-0.86595 15.925,-2.25506 25,-3.08593 14.96557,-1.37018 26.04904,-2.59925 36.17773,-4.01563 l 3.67774,-0.51562 0.65429,5.75 c 3.00708,26.41078 13.50008,41.11493 27.63672,38.72656 11.23461,-1.89808 16.86104,-15.8228 10.36133,-25.64453 -2.28402,-3.45139 -5.28476,-14.63622 -5.47266,-20.40039 -0.0367,-1.12698 30.3322,-2.86058 71.42578,-4.07618 l 21.9629,-0.65039 -1.89454,2.89844 c -3.4042,5.20748 -12.36531,17.08642 -16.44726,21.80274 -4.29758,4.96546 -5.68725,9.48104 -4.73047,15.37695 0.80857,4.98263 3.41844,8.28637 8.66797,10.96875 10.77966,5.50813 18.60944,0.79584 33.66406,-20.25781 6.46015,-9.03441 10.11682,-15.70072 14.66797,-26.74219 l 1.54687,-3.75 32.80079,0.10742 c 18.04057,0.0597 42.70078,0.53403 54.80078,1.05274 12.1,0.51872 24.51498,1.0315 27.58789,1.14062 4.70631,0.1671 6.23786,-0.25357 9.71484,-2.66406 4.65725,-3.22875 8.19727,-9.54951 8.19727,-14.63672 0,-5.04403 -3.60074,-11.58907 -7.82032,-14.21289 -4.00901,-2.49288 -10.51331,-2.8435 -81.4375,-4.37891 l -26.75781,-0.57812 1.85547,-2.66602 c 7.06912,-10.15797 4.75512,-24.0953 -4.80078,-28.91406 -2.45404,-1.2375 -5.84714,-2.25 -7.53906,-2.25 -1.69192,0 -5.08503,1.0125 -7.53907,2.25 -3.86487,1.94894 -5.06305,3.40048 -8.96093,10.85742 -2.475,4.73487 -6.05675,11.31107 -7.95899,14.61328 l -3.45898,6.00391 -9.54102,0.63281 c -5.24776,0.34757 -16.06601,0.64481 -24.04101,0.66211 -14.08569,0.0305 -45.09771,1.2071 -67.53907,2.56055 l -11.0371,0.66406 -1.64649,-7.37305 c -0.9057,-4.05509 -2.40642,-10.96735 -3.33398,-15.36132 -1.41913,-6.72254 -2.26555,-8.56829 -5.33789,-11.64063 -3.36878,-3.36877 -7.22994,-5.12465 -11.14258,-5.25391 z"
       style="fill:url(#linearGradient4706)" />
    <path
       id="path6045"
       d="m 486.74805,99.421875 c -8.0888,-0.63646 -14.7887,4.380415 -18.24414,13.919925 -3.50356,9.67235 -8.047,18.14257 -17.03711,31.75781 -11.94017,18.08302 -15.01758,21.89284 -39.42383,48.83008 -35.36174,39.02882 -41.70337,46.60707 -65.43555,78.16992 -13.8586,18.43139 -17.33984,24.83916 -17.33984,31.91797 0,7.43922 4.54292,14.15856 10.84961,16.04687 9.10284,2.7255 17.71848,-1.73493 21.74219,-11.2539 2.38498,-5.6422 34.10958,-46.88836 48.76171,-63.39844 3.50781,-3.95261 15.5441,-17.22761 26.74805,-29.5 11.20395,-12.27238 22.93976,-25.6875 26.08008,-29.8125 10.77141,-14.14889 23.88574,-34.50868 29.95117,-46.5 7.2888,-14.4099 9.53819,-22.15114 8.04688,-27.68945 -1.45435,-5.40104 -6.30261,-10.56129 -11.15235,-11.86719 -1.20687,-0.324979 -2.39133,-0.530172 -3.54687,-0.621095 z m 95.52734,22.259765 c -8.81536,-0.32975 -17.03178,6.40107 -16.98633,16.20703 0.0404,8.70714 12.0857,38.83856 32.66406,81.71094 14.43945,30.08271 16.38336,34.46112 23.53321,53 2.12117,5.5 5.03926,12.65402 6.48633,15.89844 1.44706,3.24443 4.11408,11.57097 5.92578,18.5039 4.48954,17.18041 7.27981,21.91214 14.21875,24.11328 4.0083,1.27149 11.40462,0.3243 14.31836,-1.83398 3.63714,-2.69411 6.09391,-6.38659 7.04101,-10.58594 2.16777,-9.61159 -15.61602,-60.105 -35.95703,-102.0957 C 613.82098,175.93516 611.38737,170.42491 602,145.29297 c -5.82681,-15.59958 -7.28311,-18.3497 -10.99414,-20.78125 -2.78772,-1.82659 -5.79201,-2.72016 -8.73047,-2.83008 z"
       style="fill:#000000" />
  </g>
</svg>
