<?xml version="1.0" encoding="UTF-8" standalone="no"?>
<svg
   xmlns:osb="http://www.openswatchbook.org/uri/2009/osb"
   xmlns:dc="http://purl.org/dc/elements/1.1/"
   xmlns:cc="http://creativecommons.org/ns#"
   xmlns:rdf="http://www.w3.org/1999/02/22-rdf-syntax-ns#"
   xmlns:svg="http://www.w3.org/2000/svg"
   xmlns="http://www.w3.org/2000/svg"
   xmlns:xlink="http://www.w3.org/1999/xlink"
   version="1.1"
   id="svg2985"
   height="948.8905"
   width="557.98102">
  <defs
     id="defs5498">
    <linearGradient
       osb:paint="solid"
       id="linearGradient4756">
      <stop
         id="stop4758"
         offset="0"
         style="stop-color:#ffffff;stop-opacity:1;" />
    </linearGradient>
    <linearGradient
       osb:paint="solid"
       id="linearGradient4750">
      <stop
         id="stop4752"
         offset="0"
         style="stop-color:#000000;stop-opacity:1;" />
    </linearGradient>
    <linearGradient
       osb:paint="solid"
       id="linearGradient5694">
      <stop
         id="stop5696"
         offset="0"
         style="stop-color:#002b11;stop-opacity:1;" />
    </linearGradient>
    <linearGradient
       osb:paint="solid"
       id="linearGradient4712">
      <stop
         id="stop4714"
         offset="0"
         style="stop-color:#162d50;stop-opacity:1;" />
    </linearGradient>
    <linearGradient
       osb:paint="solid"
       id="linearGradient4706">
      <stop
         id="stop4708"
         offset="0"
         style="stop-color:#d40000;stop-opacity:1;" />
    </linearGradient>
    <linearGradient
       gradientUnits="userSpaceOnUse"
       y2="508.69208"
       x2="761.44257"
       y1="508.69208"
       x1="262.13925"
       id="linearGradient4716"
       xlink:href="#linearGradient4712" />
    <linearGradient
       gradientUnits="userSpaceOnUse"
       y2="500.0004"
       x2="771.30902"
       y1="500.0004"
       x1="228.69211"
       id="linearGradient4754"
       xlink:href="#linearGradient4750" />
    <linearGradient
       gradientUnits="userSpaceOnUse"
       y2="500.10483"
       x2="752.40271"
       y1="500.10483"
       x1="248.61133"
       id="linearGradient4760"
       xlink:href="#linearGradient4756" />
    <linearGradient
       y2="508.69208"
       x2="761.44257"
       y1="508.69208"
       x1="262.13925"
       gradientUnits="userSpaceOnUse"
       id="linearGradient501"
       xlink:href="#linearGradient4712" />
    <linearGradient
       y2="508.69208"
       x2="761.44257"
       y1="508.69208"
       x1="262.13925"
       gradientUnits="userSpaceOnUse"
       id="linearGradient503"
       xlink:href="#linearGradient4712" />
    <linearGradient
       y2="508.69208"
       x2="761.44257"
       y1="508.69208"
       x1="262.13925"
       gradientUnits="userSpaceOnUse"
       id="linearGradient505"
       xlink:href="#linearGradient4712" />
  </defs>
  <metadata
     id="metadata5594">
    <rdf:RDF>
      <cc:Work
         rdf:about="">
        <dc:format>image/svg+xml</dc:format>
        <dc:type
           rdf:resource="http://purl.org/dc/dcmitype/StillImage" />
        <dc:title />
      </cc:Work>
    </rdf:RDF>
  </metadata>
  <g
     transform="translate(-221.00928,-25.554477)"
     style="display:inline"
     id="layer26">
    <path
       id="path4986"
       d="m 589.44727,42.929688 c -6.8602,-0.118282 -13.64336,-0.09552 -20.43946,0.07031 -6.7961,0.165828 -13.60524,0.474615 -20.51953,0.931641 -6.91428,0.457025 -13.93368,1.061094 -21.14844,1.816406 -7.21475,0.755312 -14.62475,1.661971 -22.32226,2.722656 -4.125,0.56841 -18.3,1.416193 -31.5,1.882813 -6.52824,0.230772 -12.05466,0.47496 -16.83008,0.759765 -4.77542,0.284806 -8.80053,0.610266 -12.32812,1.00586 -3.5276,0.395594 -6.55704,0.86069 -9.3418,1.423828 -2.78477,0.563138 -5.32417,1.224281 -7.8711,2.011719 -3.64549,1.127079 -10.4539,2.850394 -15.1289,3.828124 -4.675,0.977732 -13.675,3.21331 -20,4.96875 -6.325,1.75544 -13.75,3.779244 -16.5,4.496094 -6.39622,1.667315 -11.9972,3.251407 -17.12891,4.886719 -5.13171,1.635312 -9.79452,3.322446 -14.3164,5.197266 -4.52189,1.874819 -8.90203,3.936427 -13.46875,6.322265 -4.56673,2.385838 -9.31969,5.095305 -14.58594,8.263672 -6.875,4.13624 -17.9,10.348964 -24.5,13.806644 -5.85804,3.06897 -11.18039,6.1643 -15.96875,9.28516 -2.39418,1.56042 -4.65618,3.12755 -6.78321,4.70117 -2.12702,1.57361 -4.12042,3.15329 -5.98046,4.74023 -1.86005,1.58694 -3.58645,3.18084 -5.17969,4.78125 -1.59324,1.60041 -3.05229,3.20629 -4.37891,4.82031 -1.32661,1.61403 -2.51991,3.23551 -3.58008,4.86328 -1.06016,1.62778 -1.98736,3.26263 -2.78125,4.9043 -1.59089,3.28981 -2.82892,5.97256 -3.79882,8.46094 -0.9699,2.48837 -1.67206,4.78225 -2.19141,7.29297 -0.51935,2.51071 -0.85647,5.23887 -1.0957,8.5957 -0.23924,3.35683 -0.38021,7.34243 -0.50977,12.36914 -0.1504,5.83516 -0.23726,10.39258 -0.2168,13.97852 0.0205,3.58594 0.14916,6.20047 0.42774,8.14648 0.27858,1.94602 0.70808,3.22524 1.33203,4.14063 0.31198,0.45769 0.67126,0.82439 1.08594,1.13867 0.41468,0.31428 0.88382,0.57523 1.41211,0.82226 0.98302,0.45967 1.81342,1.05629 2.52929,1.89063 0.71588,0.83434 1.317,1.90585 1.83985,3.31445 0.52285,1.40861 0.96714,3.15543 1.37109,5.33789 0.40395,2.18247 0.76779,4.80112 1.12695,7.95703 0.21131,1.85667 0.35319,5.13001 0.43555,9.47266 0.0824,4.34265 0.10474,9.75428 0.0762,15.88477 -0.0571,12.26098 -0.31816,27.39959 -0.71093,42.62304 -0.39278,15.22345 -0.91763,30.53207 -1.50196,43.13282 -0.58432,12.60074 -1.22758,22.49385 -1.85937,26.88671 -0.43506,3.025 -0.83107,6.85666 -1.11914,10.5918 -0.28808,3.73514 -0.46821,7.37376 -0.47071,10.01563 -0.005,5.28375 -0.51271,15.63061 -1.1289,22.99218 -0.3215,3.84095 -0.47153,8.59416 -0.47656,13.72266 -0.005,5.1285 0.13539,10.63192 0.39453,15.9707 0.25914,5.33879 0.63639,10.51453 1.10742,14.98633 0.47103,4.47181 1.03537,8.24002 1.66601,10.76758 0.35523,1.42371 0.6657,3.56238 0.92969,6.45703 0.26399,2.89465 0.48165,6.54601 0.6543,10.99609 0.34528,8.90016 0.50707,20.99424 0.48633,36.62305 -0.0207,15.62882 -0.22369,34.79083 -0.61133,57.82422 -0.38764,23.03339 -0.95944,49.93885 -1.71485,81.05273 -0.14333,5.9038 -0.14936,11.87625 -0.0371,17.07422 0.11225,5.19798 0.34279,9.62148 0.67382,12.42578 0.61678,5.225 1.57523,19.85 2.13086,32.5 1.10715,25.20647 2.11658,46.40155 3.08985,64.36719 0.97326,17.96564 1.91121,32.70226 2.87304,44.99219 0.96183,12.28993 1.94865,22.13318 3.02149,30.3125 0.53642,4.08966 1.09256,7.76367 1.67968,11.11914 0.58713,3.35547 1.20429,6.39207 1.85743,9.20898 0.59515,2.56683 1.54436,5.42188 2.76367,8.41016 1.21931,2.98828 2.70832,6.10994 4.38281,9.20703 1.6745,3.0971 3.53538,6.17118 5.49609,9.06446 1.96072,2.89327 4.02165,5.60559 6.09961,7.98242 2.63607,3.0152 4.91454,5.48154 7.12696,7.5957 2.21242,2.11416 4.35929,3.87618 6.73047,5.48438 2.37117,1.60819 4.96775,3.06128 8.08007,4.55859 3.11233,1.49731 6.7399,3.03881 11.17579,4.82031 2.09158,0.84 6.34145,1.93554 11.85742,3.13086 5.51597,1.19532 12.29808,2.4898 19.45117,3.73047 7.15309,1.24067 14.67868,2.42631 21.68164,3.40234 7.00296,0.97604 13.48326,1.74311 18.54883,2.14453 5.775,0.4576 18.825,1.59384 29,2.52344 15.32426,1.40005 25.38118,2.20136 35.39062,2.62305 10.00945,0.42169 19.97142,0.46376 35.10938,0.34765 9.07861,-0.0696 17.68377,-0.27369 25.1543,-0.58398 7.47052,-0.31028 13.80639,-0.72681 18.3457,-1.22266 7.975,-0.8712 28.45,-2.30404 45.5,-3.18554 12.54,-0.6483 22.39945,-1.17998 30.36133,-1.66992 7.96187,-0.48995 14.02687,-0.93856 18.97851,-1.42383 4.95164,-0.48528 8.78952,-1.00634 12.29883,-1.64063 3.50931,-0.63428 6.68935,-1.38138 10.32422,-2.31836 6.16904,-1.59017 12.43677,-3.36778 18.58984,-5.25586 6.15307,-1.88807 12.19175,-3.88586 17.90235,-5.91992 5.7106,-2.03406 11.09391,-4.10469 15.93554,-6.13281 4.84164,-2.02812 9.14133,-4.01449 12.6875,-5.88477 1.13526,-0.59873 2.65453,-1.6604 4.45313,-3.07812 1.7986,-1.41773 3.87712,-3.19111 6.1289,-5.21289 4.50357,-4.04357 9.70243,-9.07978 14.75782,-14.25 5.05539,-5.17022 9.96659,-10.47531 13.89257,-15.05274 1.963,-2.28871 3.67952,-4.39476 5.04493,-6.21289 1.3654,-1.81812 2.37983,-3.34787 2.9375,-4.48047 0.61032,-1.23955 1.08636,-2.28275 1.46289,-3.33398 0.37652,-1.05123 0.65326,-2.1107 0.86328,-3.38086 0.42004,-2.54032 0.57465,-5.92555 0.73242,-11.78516 0.0896,-3.32644 0.098,-6.49651 0.008,-9.73828 -0.0902,-3.24177 -0.279,-6.55513 -0.58789,-10.16797 -0.61777,-7.22567 -1.71185,-15.64933 -3.4375,-27.09375 -1.07811,-7.15 -3.04057,-21.1 -4.36133,-31 -1.32075,-9.9 -3.07929,-22.05 -3.9082,-27 -0.82892,-4.95 -2.20781,-15.075 -3.06445,-22.5 -1.77484,-15.38363 -2.44242,-20.28769 -6.25586,-46 l -2.74414,-18.5 0.0117,-76.5 c 0.005,-33.70119 0.0581,-53.18246 0.30273,-65.56054 0.12233,-6.18905 0.29209,-10.60224 0.52735,-14.12891 0.23525,-3.52667 0.5365,-6.16732 0.91992,-8.81055 1.25788,-8.67168 2.12875,-14.94382 2.91015,-21.22461 0.78141,-6.28078 1.47336,-12.5702 2.37696,-21.27539 0.88489,-8.525 2.01408,-18.425 2.50976,-22 1.26627,-9.13267 2.27571,-17.74963 3.08008,-26.40039 0.80437,-8.65076 1.40366,-17.33532 1.84766,-26.59961 0.52931,-11.04433 1.01231,-18.90865 1.75,-26.83007 0.73768,-7.92143 1.73005,-15.89995 3.27929,-27.16993 1.08121,-7.86525 1.93343,-14.31881 2.60352,-19.99218 0.67009,-5.67338 1.15725,-10.56639 1.50976,-15.3086 0.35252,-4.7422 0.57074,-9.33449 0.69922,-14.40625 0.12849,-5.07175 0.16802,-10.62314 0.16602,-17.28515 -0.002,-7.28919 -0.11374,-14.87152 -0.29297,-21.2168 -0.17923,-6.34528 -0.42596,-11.45352 -0.69531,-13.79102 -0.53871,-4.675 -1.44515,-18.4 -2.01563,-30.5 -0.35263,-7.47943 -0.84638,-14.45981 -1.50195,-21.14257 -0.65557,-6.68276 -1.47295,-13.0679 -2.4707,-19.35743 -1.61413,-10.175 -3.22052,-20.975 -3.57032,-24 -0.4039,-3.49279 -1.19892,-7.58984 -2.26757,-11.93554 -1.06866,-4.34571 -2.41094,-8.93921 -3.90625,-13.42383 -1.49532,-4.484626 -3.14424,-8.861942 -4.82813,-12.771487 -1.68389,-3.909545 -3.40274,-7.352186 -5.03711,-9.972656 -0.92581,-1.484405 -2.08151,-2.936609 -3.46289,-4.355469 -1.38138,-1.41886 -2.98839,-2.805167 -4.82031,-4.15625 -1.83192,-1.351083 -3.88859,-2.666192 -6.16602,-3.947266 -2.27743,-1.281074 -4.77622,-2.527495 -7.49414,-3.736328 -2.71791,-1.208833 -5.65522,-2.381265 -8.80859,-3.515625 -3.15337,-1.13436 -6.52167,-2.231407 -10.10547,-3.289062 -3.5838,-1.057655 -7.38143,-2.07597 -11.39063,-3.054688 -4.0092,-0.978718 -8.23058,-1.916904 -12.66015,-2.814453 -12.3351,-2.499415 -19.93609,-3.949061 -27.15235,-4.955078 -3.60812,-0.503009 -7.11994,-0.894688 -11.08007,-1.251953 -3.96014,-0.357265 -8.36763,-0.679711 -13.76758,-1.042969 -9.63919,-0.648432 -18.92339,-1.055183 -28.07031,-1.21289 z"
       style="color:#000000;clip-rule:nonzero;display:inline;overflow:visible;visibility:visible;opacity:1;isolation:auto;mix-blend-mode:normal;color-interpolation:sRGB;color-interpolation-filters:linearRGB;solid-color:#000000;solid-opacity:1;fill:url(#linearGradient4756);fill-opacity:1;fill-rule:nonzero;stroke:none;stroke-width:1;stroke-linecap:butt;stroke-linejoin:miter;stroke-miterlimit:4;stroke-dasharray:none;stroke-dashoffset:0;stroke-opacity:1;color-rendering:auto;image-rendering:auto;shape-rendering:auto;text-rendering:auto;enable-background:accumulate" />
    <path
       id="path4984"
       d="m 560.93555,25.587891 c -8.48411,0.07455 -15.44955,0.278168 -19.41797,0.634765 -9.94167,0.893345 -18.05301,1.677821 -25.06055,2.433594 -7.00754,0.755773 -12.9113,1.482843 -18.43945,2.257812 -2.8875,0.404786 -7.12111,0.772322 -11.61719,1.03711 -4.49608,0.264788 -9.25464,0.426828 -13.18945,0.423828 -4.82465,-0.0034 -9.9082,0.151678 -14.96094,0.433594 -5.05274,0.281915 -10.07428,0.690603 -14.77344,1.195312 -4.69915,0.50471 -9.07597,1.104512 -12.83984,1.769532 -3.76388,0.665019 -6.9152,1.395358 -9.16211,2.158203 -2.51405,0.85354 -9.60768,2.643152 -15.76367,3.976562 -6.15598,1.33341 -15.24336,3.579164 -20.19336,4.990235 -4.95,1.41107 -12.15,3.405713 -16,4.433593 -7.63792,2.039185 -14.13482,3.898812 -19.96875,5.785157 -5.83393,1.886344 -11.00521,3.80025 -15.99219,5.945312 -4.98698,2.145062 -9.78966,4.520601 -14.88672,7.335938 -5.09706,2.815336 -10.48817,6.069626 -16.65234,9.966796 -4.125,2.60795 -12.51567,7.255695 -18.64649,10.328125 -6.44166,3.22821 -10.69343,5.476023 -14.65625,7.916016 -3.96281,2.439995 -7.63668,5.072165 -12.92578,9.066405 -2.41178,1.82134 -4.69164,3.69059 -6.84179,5.61328 -2.15015,1.92269 -4.17081,3.89922 -6.06446,5.93164 -1.89365,2.03243 -3.66044,4.12095 -5.30273,6.27149 -1.64229,2.15054 -3.16058,4.36358 -4.55664,6.64062 -1.39606,2.27704 -2.66926,4.61933 -3.82422,7.03125 -1.15496,2.41193 -2.19038,4.89207 -3.10938,7.44727 -0.919,2.55519 -1.72198,5.18378 -2.41015,7.89062 -0.68818,2.70685 -1.26213,5.49249 -1.72461,8.35938 -0.52736,3.26909 -0.82919,7.93488 -0.91797,13.66601 -0.0888,5.73114 0.0361,12.52722 0.35742,20.05469 0.32136,7.52747 0.83989,15.78723 1.54297,24.44531 0.70308,8.65809 1.59012,17.7149 2.64648,26.83789 0.1764,1.52342 0.47149,2.94093 0.85938,4.21094 0.38789,1.27002 0.86864,2.39257 1.41797,3.32422 0.54932,0.93165 1.16743,1.67333 1.82812,2.18164 0.6607,0.50831 1.36394,0.7832 2.08594,0.7832 0.29885,0 0.53089,0.30461 0.70117,1.18946 0.17028,0.88484 0.27931,2.34954 0.33399,4.66992 0.10934,4.64075 -8e-5,12.70362 -0.27539,26.39062 -0.36106,17.94981 -0.81284,31.98303 -1.44727,43.85547 -0.31721,5.93622 -0.67888,11.3322 -1.09961,16.40821 -0.42073,5.076 -0.89958,9.83111 -1.44726,14.48632 -0.43497,3.69712 -0.86608,10.54896 -1.23438,19.17579 -0.3683,8.62682 -0.67379,19.02863 -0.85742,29.82421 -0.26125,15.35827 -0.35318,24.89918 -0.21094,31.70508 0.0711,3.40295 0.20031,6.12225 0.39649,8.54297 0.19617,2.42072 0.45952,4.54289 0.79687,6.75195 1.00381,6.57328 1.79728,12.06559 2.41602,16.97071 0.61873,4.90512 1.06239,9.22298 1.36718,13.44531 0.3048,4.22233 0.47122,8.35011 0.53321,12.875 0.062,4.52489 0.0198,9.44695 -0.0899,15.25977 -0.2382,12.62198 -0.96069,49.49921 -1.60547,81.94921 -0.60209,30.3018 -0.82426,55.24962 -0.66796,74.71094 0.0781,9.73066 0.25024,18.09024 0.51757,25.06055 0.26733,6.9703 0.6297,12.55205 1.08594,16.72851 0.57078,5.225 1.49544,20.975 2.05469,35 0.75107,18.8358 1.42891,33.68369 2.06445,45.08594 0.63555,11.40226 1.22881,19.35888 1.8086,24.41406 0.56772,4.95 1.2834,15.18735 1.59179,22.74805 0.16133,3.95518 0.50828,8.3126 0.99414,12.7832 0.48587,4.47061 1.10992,9.05393 1.82617,13.46094 0.71626,4.40701 1.52447,8.63795 2.37696,12.40235 0.85248,3.76439 1.74996,7.06271 2.64453,9.60546 1.07945,3.06827 2.29051,6.07229 3.625,9 1.33449,2.92772 2.79298,5.77879 4.36328,8.54297 1.5703,2.76419 3.25219,5.44184 5.03906,8.01953 1.78688,2.5777 3.67789,5.05561 5.66211,7.42383 1.98423,2.36823 4.06227,4.62594 6.22461,6.76172 2.16234,2.13579 4.40924,4.14892 6.73047,6.0293 2.32123,1.88037 4.71685,3.62847 7.17774,5.23047 2.46088,1.60199 4.98704,3.05873 7.56835,4.35937 2.44033,1.22963 4.97008,2.38597 7.55274,3.45703 2.58266,1.07107 5.21918,2.05658 7.87305,2.94532 2.65386,0.88873 5.32457,1.68065 7.97851,2.36328 2.65394,0.68262 5.29016,1.25623 7.87305,1.70898 13.49458,2.36535 26.9515,4.53149 37.7207,6.10938 10.76921,1.57789 18.8507,2.56753 21.59766,2.58203 3.40059,0.018 9.33164,0.45159 13.18164,0.96289 3.85,0.5113 17.79047,1.64971 30.97851,2.52929 13.18804,0.8796 24.17684,1.79591 24.41797,2.03711 0.28072,0.28073 3.89906,0.43811 9.35547,0.49415 5.45641,0.056 12.75175,0.01 20.38477,-0.11133 7.63301,-0.12108 15.60352,-0.31776 22.41406,-0.56836 6.81054,-0.25061 12.46024,-0.55417 15.44922,-0.88672 7.15,-0.7955 19.75,-1.90008 28,-2.45508 8.25,-0.555 22.425,-1.50608 31.5,-2.11328 9.075,-0.6072 24.6,-1.48547 34.5,-1.95117 9.9,-0.4656 20.7,-1.2812 24,-1.8125 4.44819,-0.71618 10.50489,-2.14049 17.34961,-4.00391 6.84471,-1.86342 14.47772,-4.16575 22.07422,-6.64062 7.59649,-2.47487 15.15779,-5.12135 21.86132,-7.67188 6.70354,-2.55053 12.54901,-5.0053 16.71485,-7.0957 2.60659,-1.30795 4.81855,-2.50171 6.96289,-3.85156 2.14434,-1.34986 4.2216,-2.85677 6.55469,-4.78711 2.33308,-1.93034 4.92286,-4.28459 8.0957,-7.33399 3.17284,-3.04939 6.9282,-6.79297 11.5918,-11.5 4.6981,-4.74185 8.62096,-8.8111 11.90625,-12.38086 3.28528,-3.56975 5.93236,-6.64093 8.07812,-9.38867 2.14576,-2.74774 3.79077,-5.17147 5.07031,-7.44726 1.27955,-2.2758 2.19424,-4.40272 2.88086,-6.55665 0.52235,-1.6386 0.94968,-3.70214 1.28516,-6.125 0.33548,-2.42285 0.5796,-5.2045 0.73437,-8.28125 0.15478,-3.07674 0.22097,-6.44854 0.20118,-10.04882 -0.0198,-3.60028 -0.12626,-7.43038 -0.31446,-11.42383 -0.37639,-7.98692 -1.08258,-16.62879 -2.0957,-25.40625 -1.01312,-8.77747 -2.33296,-17.6897 -3.93359,-26.21485 -0.77448,-4.125 -2.135,-13.575 -3.02344,-21 -0.88844,-7.425 -2.25933,-16.875 -3.04688,-21 -0.78754,-4.125 -2.32601,-15.375 -3.41796,-25 -1.97174,-17.37959 -4.68913,-37.87126 -7.69336,-58 -0.30146,-2.0198 -0.5574,-4.43467 -0.77735,-7.54687 -0.21995,-3.1122 -0.40419,-6.92168 -0.5625,-11.72852 -0.31661,-9.61367 -0.52953,-23.21891 -0.71875,-43.22461 -0.12735,-13.46405 -0.16059,-25.52392 -0.0937,-36.32421 0.0668,-10.8003 0.23338,-20.34188 0.50391,-28.77149 0.27053,-8.42961 0.6452,-15.74564 1.1289,-22.09765 0.48371,-6.35202 1.07684,-11.73915 1.78321,-16.30665 0.80806,-5.225 1.93793,-14 2.50976,-19.5 0.57183,-5.5 2.5865,-22.8896 4.47657,-38.64453 0.94503,-7.87747 1.92148,-17.16015 2.73242,-25.76953 0.81094,-8.60937 1.45636,-16.54544 1.74218,-21.73047 0.64025,-11.61465 1.46978,-22.939 2.46876,-33.74218 0.99897,-10.80319 2.1674,-21.0852 3.48242,-30.61329 1.03722,-7.51532 1.86723,-13.85254 2.52734,-19.54882 0.66011,-5.69628 1.15047,-10.75223 1.51172,-15.70313 0.36125,-4.95089 0.59179,-9.797 0.73242,-15.07617 0.14063,-5.27917 0.1912,-10.99078 0.18945,-17.67188 -0.002,-7.2875 -0.10849,-14.925 -0.27734,-21.35937 -0.16885,-6.43438 -0.40007,-11.66563 -0.6543,-14.14063 -0.50845,-4.95 -1.41874,-18.9 -2.02343,-31 -0.49523,-9.90966 -1.01345,-17.55245 -1.76368,-25.02148 -0.75022,-7.46903 -1.73244,-14.76428 -3.1582,-23.97852 -0.51062,-3.3 -1.65278,-10.95 -2.53906,-17 -1.18249,-8.07194 -2.21752,-13.91863 -3.51563,-19.21679 -0.64905,-2.64908 -1.36346,-5.16202 -2.19531,-7.746096 -0.83185,-2.584072 -1.78119,-5.239714 -2.89844,-8.177735 -2.47013,-6.49574 -4.77574,-11.890238 -6.97265,-16.292968 -1.09846,-2.201366 -2.17002,-4.153622 -3.22071,-5.873047 -1.05068,-1.719426 -2.08105,-3.205676 -3.09765,-4.470703 -0.8568,-1.066173 -1.83519,-2.128429 -2.92969,-3.185547 -1.09449,-1.057118 -2.30501,-2.109014 -3.62891,-3.152344 -2.64779,-2.086661 -5.74611,-4.141422 -9.26171,-6.144531 -3.51561,-2.00311 -7.44859,-3.954247 -11.76563,-5.835938 -4.31704,-1.881691 -9.01821,-3.69361 -14.07031,-5.416015 -3.55526,-1.21209 -8.15972,-2.517173 -13.39844,-3.830078 -5.23872,-1.312906 -11.11121,-2.634316 -17.20508,-3.878907 -6.09387,-1.24459 -12.40858,-2.412778 -18.52929,-3.419922 -6.12072,-1.007143 -12.04793,-1.85256 -17.36719,-2.453125 -3.24893,-0.366815 -8.13137,-0.701225 -14.02539,-0.992187 -5.89403,-0.290962 -12.799,-0.539152 -20.09375,-0.734375 -14.58951,-0.390446 -30.73673,-0.568852 -43.46289,-0.457031 z m 28.51172,17.341797 c 9.14692,0.157707 18.43112,0.564458 28.07031,1.21289 5.39995,0.363258 9.80744,0.685704 13.76758,1.042969 3.96013,0.357265 7.47195,0.748944 11.08007,1.251953 7.21626,1.006017 14.81725,2.455663 27.15235,4.955078 4.42957,0.897549 8.65095,1.835735 12.66015,2.814453 4.0092,0.978718 7.80683,1.997033 11.39063,3.054688 3.5838,1.057655 6.9521,2.154702 10.10547,3.289062 3.15337,1.13436 6.09068,2.306792 8.80859,3.515625 2.71792,1.208833 5.21671,2.455254 7.49414,3.736328 2.27743,1.281074 4.3341,2.596183 6.16602,3.947266 1.83192,1.351083 3.43893,2.73739 4.82031,4.15625 1.38138,1.41886 2.53708,2.871064 3.46289,4.355469 1.63437,2.62047 3.35322,6.063111 5.03711,9.972656 1.68389,3.909545 3.33281,8.286861 4.82813,12.771485 1.49531,4.48462 2.83759,9.07812 3.90625,13.42383 1.06865,4.3457 1.86367,8.44275 2.26757,11.93554 0.3498,3.025 1.95619,13.825 3.57032,24 0.99775,6.28953 1.81513,12.67467 2.4707,19.35743 0.65557,6.68276 1.14932,13.66314 1.50195,21.14257 0.57048,12.1 1.47692,25.825 2.01563,30.5 0.26935,2.3375 0.51608,7.44574 0.69531,13.79102 0.17923,6.34528 0.29097,13.92761 0.29297,21.2168 0.002,6.66201 -0.0375,12.2134 -0.16602,17.28515 -0.12848,5.07176 -0.3467,9.66405 -0.69922,14.40625 -0.35251,4.74221 -0.83967,9.63522 -1.50976,15.3086 -0.67009,5.67337 -1.52231,12.12693 -2.60352,19.99218 -1.54924,11.26998 -2.54161,19.2485 -3.27929,27.16993 -0.73769,7.92142 -1.22069,15.78574 -1.75,26.83007 -0.444,9.26429 -1.04329,17.94885 -1.84766,26.59961 -0.80437,8.65076 -1.81381,17.26772 -3.08008,26.40039 -0.49568,3.575 -1.62487,13.475 -2.50976,22 -0.9036,8.70519 -1.59555,14.99461 -2.37696,21.27539 -0.7814,6.28079 -1.65227,12.55293 -2.91015,21.22461 -0.38342,2.64323 -0.68467,5.28388 -0.91992,8.81055 -0.23526,3.52667 -0.40502,7.93986 -0.52735,14.12891 -0.24467,12.37808 -0.29823,31.85935 -0.30273,65.56054 l -0.0117,76.5 2.74414,18.5 c 3.81344,25.71231 4.48102,30.61637 6.25586,46 0.85664,7.425 2.23553,17.55 3.06445,22.5 0.82891,4.95 2.58745,17.1 3.9082,27 1.32076,9.9 3.28322,23.85 4.36133,31 1.72565,11.44442 2.81973,19.86808 3.4375,27.09375 0.30889,3.61284 0.49767,6.9262 0.58789,10.16797 0.0902,3.24177 0.0818,6.41184 -0.008,9.73828 -0.15777,5.85961 -0.31238,9.24484 -0.73242,11.78516 -0.21002,1.27016 -0.48676,2.32963 -0.86328,3.38086 -0.37653,1.05123 -0.85257,2.09443 -1.46289,3.33398 -0.55767,1.1326 -1.5721,2.66235 -2.9375,4.48047 -1.36541,1.81813 -3.08193,3.92418 -5.04493,6.21289 -3.92598,4.57743 -8.83718,9.88252 -13.89257,15.05274 -5.05539,5.17022 -10.25425,10.20643 -14.75782,14.25 -2.25178,2.02178 -4.3303,3.79516 -6.1289,5.21289 -1.7986,1.41772 -3.31787,2.47939 -4.45313,3.07812 -3.54617,1.87028 -7.84586,3.85665 -12.6875,5.88477 -4.84163,2.02812 -10.22494,4.09875 -15.93554,6.13281 -5.7106,2.03406 -11.74928,4.03185 -17.90235,5.91992 -6.15307,1.88808 -12.4208,3.66569 -18.58984,5.25586 -3.63487,0.93698 -6.81491,1.68408 -10.32422,2.31836 -3.50931,0.63429 -7.34719,1.15535 -12.29883,1.64063 -4.95164,0.48527 -11.01664,0.93388 -18.97851,1.42383 -7.96188,0.48994 -17.82133,1.02162 -30.36133,1.66992 -17.05,0.8815 -37.525,2.31434 -45.5,3.18554 -4.53931,0.49585 -10.87518,0.91238 -18.3457,1.22266 -7.47053,0.31029 -16.07569,0.51434 -25.1543,0.58398 -15.13796,0.11611 -25.09993,0.074 -35.10938,-0.34765 -10.00944,-0.42169 -20.06636,-1.223 -35.39062,-2.62305 -10.175,-0.9296 -23.225,-2.06584 -29,-2.52344 -5.06557,-0.40142 -11.54587,-1.16849 -18.54883,-2.14453 -7.00296,-0.97603 -14.52855,-2.16167 -21.68164,-3.40234 -7.15309,-1.24067 -13.9352,-2.53515 -19.45117,-3.73047 -5.51597,-1.19532 -9.76584,-2.29086 -11.85742,-3.13086 -4.43589,-1.7815 -8.06346,-3.323 -11.17579,-4.82031 -3.11232,-1.49731 -5.7089,-2.9504 -8.08007,-4.55859 -2.37118,-1.6082 -4.51805,-3.37022 -6.73047,-5.48438 -2.21242,-2.11416 -4.49089,-4.5805 -7.12696,-7.5957 -2.07796,-2.37683 -4.13889,-5.08915 -6.09961,-7.98242 -1.96071,-2.89328 -3.82159,-5.96736 -5.49609,-9.06446 -1.67449,-3.09709 -3.1635,-6.21875 -4.38281,-9.20703 -1.21931,-2.98828 -2.16852,-5.84333 -2.76367,-8.41016 -0.65314,-2.81691 -1.2703,-5.85351 -1.85743,-9.20898 -0.58712,-3.35547 -1.14326,-7.02948 -1.67968,-11.11914 -1.07284,-8.17932 -2.05966,-18.02257 -3.02149,-30.3125 -0.96183,-12.28993 -1.89978,-27.02655 -2.87304,-44.99219 -0.97327,-17.96564 -1.9827,-39.16072 -3.08985,-64.36719 -0.55563,-12.65 -1.51408,-27.275 -2.13086,-32.5 -0.33103,-2.8043 -0.56157,-7.2278 -0.67382,-12.42578 -0.11226,-5.19797 -0.10623,-11.17042 0.0371,-17.07422 0.75541,-31.11388 1.32721,-58.01934 1.71485,-81.05273 0.38764,-23.03339 0.59058,-42.1954 0.61133,-57.82422 0.0207,-15.62881 -0.14105,-27.72289 -0.48633,-36.62305 -0.17265,-4.45008 -0.39031,-8.10144 -0.6543,-10.99609 -0.26399,-2.89465 -0.57446,-5.03332 -0.92969,-6.45703 -0.63064,-2.52756 -1.19498,-6.29577 -1.66601,-10.76758 -0.47103,-4.4718 -0.84828,-9.64754 -1.10742,-14.98633 -0.25914,-5.33878 -0.39957,-10.8422 -0.39453,-15.9707 0.005,-5.1285 0.15506,-9.88171 0.47656,-13.72266 0.61619,-7.36157 1.1239,-17.70843 1.1289,-22.99218 0.002,-2.64187 0.18263,-6.28049 0.47071,-10.01563 0.28807,-3.73514 0.68408,-7.5668 1.11914,-10.5918 0.63179,-4.39286 1.27505,-14.28597 1.85937,-26.88671 0.58433,-12.60075 1.10918,-27.90937 1.50196,-43.13282 0.39277,-15.22345 0.6538,-30.36206 0.71093,-42.62304 0.0286,-6.13049 0.006,-11.54212 -0.0762,-15.88477 -0.0824,-4.34265 -0.22424,-7.61599 -0.43555,-9.47266 -0.35916,-3.15591 -0.723,-5.77456 -1.12695,-7.95703 -0.40395,-2.18246 -0.84824,-3.92928 -1.37109,-5.33789 -0.52285,-1.4086 -1.12397,-2.48011 -1.83985,-3.31445 -0.71587,-0.83434 -1.54627,-1.43096 -2.52929,-1.89063 -0.52829,-0.24703 -0.99743,-0.50798 -1.41211,-0.82226 -0.41468,-0.31428 -0.77396,-0.68098 -1.08594,-1.13867 -0.62395,-0.91539 -1.05345,-2.19461 -1.33203,-4.14063 -0.27858,-1.94601 -0.40727,-4.56054 -0.42774,-8.14648 -0.0205,-3.58594 0.0664,-8.14336 0.2168,-13.97852 0.12956,-5.02671 0.27053,-9.01231 0.50977,-12.36914 0.23923,-3.35683 0.57635,-6.08499 1.0957,-8.5957 0.51935,-2.51072 1.22151,-4.8046 2.19141,-7.29297 0.9699,-2.48838 2.20793,-5.17113 3.79882,-8.46094 0.79389,-1.64167 1.72109,-3.27652 2.78125,-4.9043 1.06017,-1.62777 2.25347,-3.24925 3.58008,-4.86328 1.32662,-1.61402 2.78567,-3.2199 4.37891,-4.82031 1.59324,-1.60041 3.31964,-3.19431 5.17969,-4.78125 1.86004,-1.58694 3.85344,-3.16662 5.98046,-4.74023 2.12703,-1.57362 4.38903,-3.14075 6.78321,-4.70117 4.78836,-3.12086 10.11071,-6.21619 15.96875,-9.28516 6.6,-3.45768 17.625,-9.670402 24.5,-13.806642 5.26625,-3.168367 10.01921,-5.877834 14.58594,-8.263672 4.56672,-2.385838 8.94686,-4.447446 13.46875,-6.322265 4.52188,-1.87482 9.18469,-3.561954 14.3164,-5.197266 5.13171,-1.635312 10.73269,-3.219404 17.12891,-4.886719 2.75,-0.71685 10.175,-2.740654 16.5,-4.496094 6.325,-1.75544 15.325,-3.991018 20,-4.96875 4.675,-0.97773 11.48341,-2.701045 15.1289,-3.828124 2.54693,-0.787438 5.08633,-1.448581 7.8711,-2.011719 2.78476,-0.563138 5.8142,-1.028234 9.3418,-1.423828 3.52759,-0.395594 7.5527,-0.721054 12.32812,-1.00586 4.77542,-0.284805 10.30184,-0.528993 16.83008,-0.759765 13.2,-0.46662 27.375,-1.314403 31.5,-1.882813 7.69751,-1.060685 15.10751,-1.967344 22.32226,-2.722656 7.21476,-0.755312 14.23416,-1.359381 21.14844,-1.816406 6.91429,-0.457026 13.72343,-0.765813 20.51953,-0.931641 6.7961,-0.165828 13.57926,-0.188594 20.43946,-0.07031 z"
       style="color:#000000;clip-rule:nonzero;display:inline;overflow:visible;visibility:visible;opacity:1;isolation:auto;mix-blend-mode:normal;color-interpolation:sRGB;color-interpolation-filters:linearRGB;solid-color:#000000;solid-opacity:1;fill:url(#linearGradient4750);fill-opacity:1;fill-rule:nonzero;stroke:none;stroke-width:1;stroke-linecap:butt;stroke-linejoin:miter;stroke-miterlimit:4;stroke-dasharray:none;stroke-dashoffset:0;stroke-opacity:1;color-rendering:auto;image-rendering:auto;shape-rendering:auto;text-rendering:auto;enable-background:accumulate" />
    <path
       id="path5974"
       d="m 540.40234,571.36523 c -22.69469,0 -33.33147,0.56012 -66.45117,3.49805 -21.68746,1.92382 -43.25859,4.17457 -47.93359,5 -11.77393,2.07884 -17.22117,1.97802 -18.66992,-0.3418 -2.6527,-4.24768 -12.66043,-6.50121 -18.68946,-4.20898 -2.68822,1.02206 -12.53951,10.44315 -15.25781,14.5918 -1.03349,1.57731 -1.66797,4.58508 -1.66797,7.90429 0,6.45316 2.67032,11.3729 7.6211,14.03907 3.32197,1.789 3.44008,2.08599 6.60546,16.55078 3.6039,16.4687 4.97895,25.78177 5.02735,34.07031 0.0241,4.125 0.62451,6.47394 2.28125,8.9082 4.06185,5.96809 6.91566,7.36212 15.5039,7.58203 4.26064,0.10909 11.1211,0.68134 15.2461,1.27149 4.125,0.59015 14.1375,1.08847 22.25,1.10547 14.59009,0.0305 14.75166,0.0537 14.85156,2.27929 0.12023,2.6782 0.10708,20.9861 -0.0156,21.85743 -0.047,0.33359 -4.13735,0.91129 -9.08985,1.28515 -4.95249,0.37387 -13.61499,1.51316 -19.25,2.53125 -5.635,1.01808 -13.39609,2.16797 -17.24609,2.55469 -7.46684,0.75002 -20.2627,3.2703 -32.4961,6.40039 -6.80477,1.7411 -7.767,1.77819 -10.42382,0.4043 -5.61383,-2.90303 -13.0729,-1.7916 -19.78516,2.94726 -1.34255,0.94784 -2.51343,0.90781 -5.5,-0.18554 -8.65564,-3.16876 -17.41337,-0.80472 -21.50586,5.80468 -2.70529,4.36906 -2.80433,12.62132 -0.20508,17.02149 2.4765,4.19239 8.74779,8.2482 14.91602,9.64453 l 5,1.13086 0.59765,16.42773 c 0.32844,9.03486 1.76401,27.00078 3.18946,39.92578 1.42546,12.925 2.89011,30.9753 3.2539,40.11133 0.57441,14.42576 0.94607,17.11891 2.82618,20.47071 3.15136,5.618 7.82173,8.41406 14.03125,8.41406 8.27713,-0.006 13.77482,-4.46836 15.66992,-12.72266 1.09545,-4.7713 -0.44959,-30.01934 -3.83985,-62.77344 -1.42321,-13.75 -2.76632,-30.93446 -2.98437,-38.18945 l -0.39649,-13.1914 3.82618,-0.95313 c 2.10451,-0.52447 4.72617,-1.17386 5.82617,-1.44336 1.1,-0.26951 5.375,-1.40225 9.5,-2.51562 8.34453,-2.25227 24.85915,-5.20704 29.10351,-5.20704 1.51265,0 7.17129,-0.86222 12.57422,-1.91796 5.40293,-1.05574 12.66008,-2.06824 16.12696,-2.25 l 6.30273,-0.33204 0.19727,25.88672 c 0.19033,25.06094 0.13161,25.90969 -1.80469,26.63672 -1.1,0.41302 -7.625,2.14446 -14.5,3.84766 -32.02126,7.93288 -36.84546,9.95345 -40.875,17.12305 -6.4807,11.53084 0.6543,25.00585 13.24023,25.00585 3.0673,0 6.06569,-0.71279 8.01758,-1.9082 3.26346,-1.99866 23.12257,-7.93443 35.11719,-10.49609 37.47993,-8.00448 63.72869,-11.59571 84.77539,-11.59571 13.33022,0 15.74609,-0.67918 20.37109,-5.72851 l 3.36133,-3.66992 4.09375,3.94922 c 5.51929,5.32591 12.12372,13.96647 14.86719,19.44921 1.23845,2.475 3.44059,5.80695 4.89258,7.4043 2.22226,2.44473 2.32221,2.78185 0.63867,2.125 -1.1,-0.42918 -5.375,-0.97699 -9.5,-1.2168 -8.60634,-0.50033 -12.50318,1.18803 -16.00391,6.92969 -3.958,6.49163 -2.21604,16.818 3.58594,21.25977 2.86814,2.1958 13.05389,4.99892 30.82422,8.48242 15.17505,2.9747 35.61432,9.4471 45.09375,14.2793 2.2,1.1215 5.125,2.40491 6.5,2.85351 1.375,0.4485 5.08227,0.69071 8.23633,0.53711 4.65726,-0.2268 6.44205,-0.85076 9.5,-3.32226 6.67865,-5.398 7.67437,-8.16361 7.47461,-20.75391 -0.0967,-6.09272 -0.90532,-14.90313 -1.79688,-19.57813 -1.14405,-5.99893 -1.86713,-18.35717 -2.45508,-42 -0.70912,-28.51488 -1.15075,-34.91369 -2.96679,-43 -1.17343,-5.225 -2.48195,-14.45 -2.90821,-20.5 -1.11443,-15.81726 -3.7193,-20.18123 -16.30078,-27.30859 -14.16881,-8.02657 -24.66836,-9.03044 -94.2832,-9.02344 -29.7,0.003 -56.475,-0.0347 -59.5,-0.082 l -5.5,-0.0859 0.1543,-9.5 c 0.0843,-5.225 0.19679,-10.44907 0.25,-11.60937 0.0956,-2.08472 0.3113,-2.10412 18.3457,-1.61133 14.33012,0.39157 19.86091,0.94964 25.75,2.59375 11.322,3.16084 15.87725,2.8682 21.43359,-1.37305 2.91819,-2.22751 5.68961,-3.5 7.625,-3.5 6.77851,0 11.0573,-4.16351 17.47071,-17 2.06094,-4.125 7.6809,-13.35 12.48828,-20.5 11.0816,-16.48163 14.15752,-24.41471 14.34765,-37.01562 0.11866,-7.86477 -0.19123,-9.65418 -2.42187,-14 -3.05192,-5.94586 -10.31346,-11.44052 -18.14649,-13.72852 -18.11852,-5.29236 -22.17649,-5.75586 -50.41211,-5.75586 z m 16.00391,32.14649 c 4.88263,0.1352 7.40839,0.49201 9.67578,1.12695 2.99058,0.83746 7.10554,1.80969 9.14649,2.16211 3.50273,0.60481 3.65649,0.78633 2.73242,3.2168 -0.53842,1.41617 -3.16584,5.78549 -5.83789,9.71094 -7.90682,11.61576 -14.73538,22.74721 -17.72266,28.88671 -1.53877,3.1625 -3.04191,5.69877 -3.33984,5.63477 -1.92919,-0.41456 -11.61319,-3.2732 -11.92969,-3.52148 -0.21298,-0.16709 0.98645,-1.58523 2.66406,-3.15235 5.18259,-4.84127 6.28196,-13.20496 2.66797,-20.2832 -3.45086,-6.75872 -18.40796,-12.2236 -34.44531,-12.58399 -5.775,-0.12978 -10.8375,-0.25956 -11.25,-0.28906 -0.4125,-0.0295 -0.75,-2.02883 -0.75,-4.4414 0,-4.15012 0.17514,-4.42006 3.25,-5.0293 1.7875,-0.35417 15.88003,-0.91103 31.31445,-1.23828 11.7021,-0.24812 18.94159,-0.33443 23.82422,-0.19922 z m -90.38867,4.64258 0,3.10547 c 0,2.13597 -0.48138,3.10546 -1.54492,3.10546 -0.85064,0 -9.73814,0.88586 -19.75,1.96875 -10.01187,1.08289 -20.34258,2.2241 -22.95508,2.53516 -3.7463,0.44604 -4.75,0.25898 -4.75,-0.88672 0,-0.79896 -0.24807,-2.10252 -0.55274,-2.89648 -0.43707,-1.13898 0.8816,-1.5697 6.25,-2.03906 3.74217,-0.32718 10.85274,-1.23964 15.80274,-2.0293 4.95,-0.78965 13.1625,-1.75782 18.25,-2.15039 l 9.25,-0.71289 z m 41.99219,38.89062 c 2.90252,0.11546 5.43172,0.41932 7.50781,0.91211 4.81644,1.14325 4.56864,1.19231 -6.75,1.29883 -7.24039,0.0681 -11.75,-0.27443 -11.75,-0.89063 0,-0.55 0.5625,-1.04195 1.25,-1.09375 3.56382,-0.26844 6.83966,-0.34202 9.74219,-0.22656 z m -47.53321,0.44336 c 2.22202,0.008 3.54102,0.30108 3.54102,0.87695 0,0.60066 -3.49426,0.94739 -8.75,0.86719 -8.03183,-0.12265 -8.33962,-0.19725 -3.75,-0.91211 3.61192,-0.56258 6.73696,-0.84021 8.95898,-0.83203 z m 69.72852,3.19531 c 0.79773,0.31922 0.56143,0.55552 -0.60352,0.60352 -1.05416,0.0434 -1.64479,-0.1931 -1.3125,-0.52539 0.33229,-0.33225 1.19414,-0.367 1.91602,-0.0781 z m 24.76953,86.33203 c 30.73772,0.16563 62.71889,0.64941 68.08008,1.30079 12.59898,1.53076 13.95787,2.48446 13.98437,9.82226 0.0114,3.14982 1.18438,11.12656 2.60547,17.72656 2.35372,10.93142 2.6537,14.98312 3.36914,45.5 0.43196,18.425 1.11198,34.5125 1.51172,35.75 0.9183,2.8429 -0.0229,2.81117 -8.66797,-0.29492 -3.6633,-1.31619 -11.55615,-3.39399 -17.54101,-4.61719 l -10.88282,-2.22265 4.04297,-2.13281 c 5.92883,-3.12623 8.54633,-7.54369 8.51953,-14.37891 -0.0132,-3.37508 -0.79632,-7.31087 -1.9707,-9.89844 -11.07376,-24.39952 -59.4658,-65.20508 -77.32812,-65.20508 -9.37743,0 -15.91016,6.56898 -15.91016,16 0,7.40082 3.33709,12.41442 10.26172,15.41797 l 3.46875,1.50391 -5.61914,0.0391 c -4.44523,0.0309 -24.20768,1.78283 -37.34375,3.31055 -1.90629,0.2217 -1.96103,-0.45584 -1.81446,-23.01367 0.0831,-12.78378 0.36196,-23.58378 0.61915,-24 0.38336,-0.62042 29.87751,-0.77305 60.61523,-0.60743 z"
       style="fill:url(#linearGradient4706)" />
    <path
       id="path5972"
       d="m 420.51758,454.36523 c -10.5814,0 -16.50248,4.99862 -17.29883,14.60157 -0.45417,5.47659 1.00222,9.09059 10.90625,27.04687 l 2.83984,5.14844 -2.22265,0.55078 c -1.2229,0.30226 -9.87461,1.02912 -19.22461,1.61719 -15.01876,0.94462 -24.17406,1.6724 -62.0293,4.92578 -10.17978,0.87487 -13.14808,2.30127 -17.61719,8.4707 -7.13247,9.84609 -0.50898,24.30686 11.33985,24.75782 1.81896,0.0692 12.08164,-0.81059 22.80664,-1.95508 10.725,-1.14449 30.3,-2.77328 43.5,-3.61914 13.2,-0.84585 26.28711,-1.80622 29.08203,-2.13477 l 5.08203,-0.59766 2.16797,5.94532 c 4.37003,11.98524 10.85432,18.30273 19.52148,19.02148 10.07924,0.83585 16.63437,-4.57241 17.44922,-14.39844 0.33447,-4.03328 -0.0527,-6.25043 -1.61719,-9.25195 l -2.05859,-3.94726 6.1875,-0.6543 c 3.40264,-0.36013 15.41055,-1.72732 26.68555,-3.03906 11.275,-1.31175 24.6625,-2.69808 29.75,-3.08008 8.75958,-0.65772 9.25,-0.59038 9.25,1.26758 0,3.04291 -2.96814,12.32123 -5.61133,17.54101 -3.42754,6.76868 -3.25156,13.29135 0.49609,18.46485 2.6882,3.71093 5.78907,5.64141 10.61524,6.60742 10.8516,2.17209 20.33036,-8.17612 24.49023,-26.73828 0.53233,-2.3754 2.16954,-7.5619 3.63867,-11.5254 l 2.66993,-7.20507 42.60156,0.65429 c 23.43032,0.36044 45.56467,0.69574 49.1875,0.74414 7.69672,0.10291 11.90223,-1.8616 15.125,-7.0664 2.7176,-4.38896 2.8055,-12.61733 0.18164,-17.07422 -4.72471,-8.02537 -11.73597,-9.03595 -62.89453,-9.06055 l -36,-0.0176 0,-10.90625 c 0,-10.70149 -0.0568,-10.97965 -3.0957,-14.75 -9.48197,-11.76404 -25.70789,-13.73445 -32.67383,-3.96875 -3.2602,4.57053 -3.17968,14.79311 0.15234,19.46485 2.15991,3.02836 2.27165,3.70316 1.20899,7.25 -0.64446,2.15097 -1.71544,3.90639 -2.38086,3.90039 -12.47468,-0.11737 -35.57304,1.38354 -51.71094,3.36133 -11.275,1.38181 -24.88913,2.83062 -30.25391,3.21875 l -9.7539,0.70507 -1.16211,-3.38671 c -0.63956,-1.86302 -3.51864,-8.11368 -6.39649,-13.88868 -2.87784,-5.775 -5.4749,-12.19009 -5.77148,-14.25781 -1.16282,-8.10702 -7.40449,-12.74219 -17.16211,-12.74219 z"
       style="fill:url(#linearGradient4706)" />
    <path
       id="path5970"
       d="m 655.80273,292.43555 c -11.63401,-0.0137 -26.71082,0.0704 -46.42187,0.19726 -105.79951,0.68067 -107.12191,0.7316 -154.86328,6.14453 -22.55,2.55673 -43.475,5.06996 -46.5,5.58399 -3.025,0.51404 -11.35,1.42568 -18.5,2.02734 -7.15,0.60165 -17.725,1.95856 -23.5,3.01367 -11.1217,2.03197 -24.52208,2.58072 -34.58594,1.41797 -7.26429,-0.8393 -12.18866,1.02029 -15.68359,5.91992 -3.23248,4.53163 -3.17922,14.79363 0.0996,19.39063 2.47708,3.47293 6.76017,6.13501 11.66992,7.25195 3.46947,0.78929 30.94998,0.39289 36.94922,-0.5332 2.22817,-0.34396 7.20078,-1.23462 11.05078,-1.97852 3.85,-0.74391 10.6,-1.64162 15,-1.99414 4.4,-0.35252 14.75,-1.49909 23,-2.54883 8.25,-1.04974 27.6,-3.27192 43,-4.93945 15.4,-1.66754 31.825,-3.52612 36.5,-4.1289 4.675,-0.60278 21.325,-1.38123 37,-1.73047 30.50529,-0.67967 148.12977,-0.82713 159.10547,-0.19922 5.53366,0.31657 7.20138,0.0112 10.27539,-1.88867 4.73086,-2.92383 6.99609,-7.32179 6.99609,-13.57618 0,-6.10233 -2.2535,-10.64733 -6.60156,-13.31445 -5.16351,-3.16731 -9.08818,-4.07419 -43.99024,-4.11523 z"
       style="fill:#000000" />
    <path
       id="path5968"
       d="m 551.68945,113.74219 c -25.54229,-0.0345 -51.55975,0.57168 -61.17187,1.84179 -7.15,0.94478 -19.43505,2.2109 -27.30078,2.81446 -17.04654,1.30802 -28.65612,3.24268 -56.69922,9.44336 -35.1264,7.76689 -47.31832,11.48599 -73.85352,22.53125 -7.91866,3.29613 -15.15187,5.99218 -16.07226,5.99218 -3.05448,0 -7.48326,2.97433 -10.04492,6.74415 -3.70997,5.45971 -3.53732,12.56491 0.43945,18.05468 2.98478,4.12037 5.24587,5.77501 9.97461,7.30469 4.23453,1.3698 10.34037,0.17547 18.66797,-3.65234 4.3391,-1.99448 11.36175,-4.91922 15.60547,-6.5 4.24371,-1.58079 9.41872,-3.73117 11.5,-4.77735 12.18358,-6.12426 75.43594,-20.17839 101.7832,-22.61523 19.65177,-1.81757 33.86805,-3.23141 44.5,-4.42578 4.125,-0.46339 24.6,-0.72221 45.5,-0.57422 32.04376,0.22689 40.19441,0.58937 52,2.3125 22.46811,3.27941 31.5193,3.68903 35.87304,1.62305 5.09896,-2.41963 7.90256,-6.75142 8.42188,-13.01368 0.55194,-6.65569 -1.78174,-11.78064 -6.90625,-15.17187 -3.06932,-2.03118 -5.68173,-2.67371 -13.59375,-3.3418 -5.38683,-0.45487 -14.51992,-1.62011 -20.29492,-2.58789 -7.71873,-1.29351 -32.78584,-1.96747 -58.32813,-2.00195 z m 2.92383,69.02343 c -28.56708,0.2493 -69.11591,3.28838 -90.0957,7.29688 -9.28415,1.77387 -28.11549,2.097 -41.74414,0.71484 -6.21016,-0.62981 -7.05834,-0.47637 -10.72071,1.94727 -4.953,3.27774 -7.26562,7.61745 -7.26562,13.64062 0,9.38957 5.62346,15.29602 16.10351,16.91602 8.46181,1.30802 43.01819,0.48739 51.13672,-1.21484 24.20533,-5.07516 79.00343,-8.31406 105.16016,-6.21485 9.04299,0.72575 9.90907,0.6288 13.35352,-1.5 5.26287,-3.25262 7.4707,-7.38504 7.4707,-13.98633 0,-10.83003 -5.29361,-15.29074 -19.99414,-16.85156 -5.69136,-0.60428 -13.88194,-0.83114 -23.4043,-0.74805 z"
       style="fill:#000000" />
  </g>
</svg>
