<?xml version="1.0" encoding="UTF-8" standalone="no"?>
<svg
   xmlns:osb="http://www.openswatchbook.org/uri/2009/osb"
   xmlns:dc="http://purl.org/dc/elements/1.1/"
   xmlns:cc="http://creativecommons.org/ns#"
   xmlns:rdf="http://www.w3.org/1999/02/22-rdf-syntax-ns#"
   xmlns:svg="http://www.w3.org/2000/svg"
   xmlns="http://www.w3.org/2000/svg"
   xmlns:xlink="http://www.w3.org/1999/xlink"
   version="1.1"
   id="svg2985"
   height="900.30157"
   width="598.31519">
  <defs
     id="defs5498">
    <linearGradient
       osb:paint="solid"
       id="linearGradient4756">
      <stop
         id="stop4758"
         offset="0"
         style="stop-color:#ffffff;stop-opacity:1;" />
    </linearGradient>
    <linearGradient
       osb:paint="solid"
       id="linearGradient4750">
      <stop
         id="stop4752"
         offset="0"
         style="stop-color:#000000;stop-opacity:1;" />
    </linearGradient>
    <linearGradient
       osb:paint="solid"
       id="linearGradient5694">
      <stop
         id="stop5696"
         offset="0"
         style="stop-color:#002b11;stop-opacity:1;" />
    </linearGradient>
    <linearGradient
       osb:paint="solid"
       id="linearGradient4712">
      <stop
         id="stop4714"
         offset="0"
         style="stop-color:#162d50;stop-opacity:1;" />
    </linearGradient>
    <linearGradient
       osb:paint="solid"
       id="linearGradient4706">
      <stop
         id="stop4708"
         offset="0"
         style="stop-color:#d40000;stop-opacity:1;" />
    </linearGradient>
    <linearGradient
       gradientUnits="userSpaceOnUse"
       y2="508.69208"
       x2="761.44257"
       y1="508.69208"
       x1="262.13925"
       id="linearGradient4716"
       xlink:href="#linearGradient4712" />
    <linearGradient
       gradientUnits="userSpaceOnUse"
       y2="500.0004"
       x2="771.30902"
       y1="500.0004"
       x1="228.69211"
       id="linearGradient4754"
       xlink:href="#linearGradient4750" />
    <linearGradient
       gradientUnits="userSpaceOnUse"
       y2="500.10483"
       x2="752.40271"
       y1="500.10483"
       x1="248.61133"
       id="linearGradient4760"
       xlink:href="#linearGradient4756" />
    <linearGradient
       y2="508.69208"
       x2="761.44257"
       y1="508.69208"
       x1="262.13925"
       gradientUnits="userSpaceOnUse"
       id="linearGradient501"
       xlink:href="#linearGradient4712" />
    <linearGradient
       y2="508.69208"
       x2="761.44257"
       y1="508.69208"
       x1="262.13925"
       gradientUnits="userSpaceOnUse"
       id="linearGradient503"
       xlink:href="#linearGradient4712" />
    <linearGradient
       y2="508.69208"
       x2="761.44257"
       y1="508.69208"
       x1="262.13925"
       gradientUnits="userSpaceOnUse"
       id="linearGradient505"
       xlink:href="#linearGradient4712" />
  </defs>
  <metadata
     id="metadata5594">
    <rdf:RDF>
      <cc:Work
         rdf:about="">
        <dc:format>image/svg+xml</dc:format>
        <dc:type
           rdf:resource="http://purl.org/dc/dcmitype/StillImage" />
        <dc:title />
      </cc:Work>
    </rdf:RDF>
  </metadata>
  <g
     transform="translate(-200.84312,-49.849172)"
     style="display:inline"
     id="layer27">
    <path
       id="path4994"
       d="m 608.39844,67.373047 c -17.96065,-0.0054 -35.84409,0.259362 -51.75,0.796875 -7.95296,0.268756 -15.41203,0.606963 -22.13867,1.011719 -6.72665,0.404755 -12.72086,0.877027 -17.7461,1.417968 -4.95,0.532841 -14.175,1.246356 -20.5,1.585938 -6.20132,0.332942 -12.79987,0.979382 -19.5664,1.908203 -6.76654,0.928821 -13.70105,2.140025 -20.57227,3.601562 -4.75066,1.010487 -11.50066,2.116925 -15,2.457032 -3.49934,0.340107 -10.41133,1.251846 -15.36133,2.027344 -4.95,0.775496 -17.1069,2.337492 -27.01562,3.470703 -8.04937,0.920566 -15.2884,1.958565 -22.06446,3.21289 -6.77605,1.254326 -13.08874,2.724239 -19.28906,4.513672 -6.20032,1.789433 -12.28722,3.897938 -18.60937,6.423828 -6.32215,2.525889 -12.87993,5.469899 -20.02149,8.933599 -5.45542,2.6459 -10.78439,5.40493 -15.85156,8.1914 -5.06717,2.78647 -9.87316,5.60106 -14.2793,8.35742 -4.40613,2.75636 -8.41244,5.45419 -11.88476,8.00977 -3.47233,2.55558 -6.41005,4.96822 -8.67578,7.15234 -1.70532,1.64389 -3.27855,3.50086 -4.70704,5.54297 -1.42848,2.04212 -2.7115,4.26947 -3.83789,6.65625 -1.12638,2.38678 -2.09551,4.93149 -2.89453,7.60938 -0.79901,2.67788 -1.42863,5.48886 -1.875,8.40429 -0.79998,5.225 -2.13594,11.975 -2.96679,15 -0.55471,2.01963 -1.05669,4.27583 -1.50782,6.875 -0.45112,2.59917 -0.8507,5.5419 -1.20508,8.93164 -0.70875,6.77948 -1.23095,15.35071 -1.59374,26.5586 -0.3628,11.20788 -0.56716,25.05249 -0.63868,42.37695 -0.0715,17.32446 -0.0108,38.1286 0.1543,63.25781 0.0515,7.8375 -0.0146,15.69336 -0.16211,22.03711 -0.14756,6.34375 -0.37665,11.17539 -0.65234,12.96289 -2.03636,13.20314 -3.12807,19.67167 -4.4961,26.64844 -0.7846,4.00137 -1.52352,8.51593 -2.20312,13.42188 -0.6796,4.90594 -1.29917,10.20274 -1.84961,15.76953 -0.55044,5.56679 -1.0306,11.40283 -1.42774,17.38672 -0.39713,5.98389 -0.71196,12.11618 -0.93164,18.27343 -0.32853,9.20819 -0.70679,16.49424 -1.18164,22.4336 -0.47484,5.93935 -1.04627,10.53202 -1.75976,14.35156 -0.60989,3.26493 -1.16823,7.03118 -1.66211,11.15039 -0.49388,4.11921 -0.92405,8.59049 -1.2793,13.26563 -0.35525,4.67513 -0.63412,9.55361 -0.82812,14.48632 -0.194,4.93272 -0.30238,9.92056 -0.3125,14.8125 -0.008,3.9875 -0.12302,8.34414 -0.30079,12.15039 -0.17776,3.80625 -0.41852,7.06211 -0.67968,8.84961 -0.52232,3.575 -1.20142,13.7 -1.50977,22.5 -0.34103,9.73276 -0.90748,18.76493 -1.62305,26.28516 -0.35778,3.76012 -0.75337,7.14195 -1.17578,10.04492 -0.4224,2.90298 -0.87215,5.32676 -1.33984,7.16992 -0.73601,2.90057 -1.39136,6.39813 -1.94922,10.29688 -0.55786,3.89874 -1.01754,8.19826 -1.36719,12.70703 -0.34964,4.50877 -0.58787,9.22639 -0.69921,13.95703 -0.11135,4.73064 -0.0965,9.4747 0.0605,14.03906 0.4149,12.05968 0.78783,21.83353 1.17578,29.98633 0.38796,8.15281 0.79173,14.68512 1.26563,20.25781 0.4739,5.57269 1.01868,10.18653 1.6914,14.50586 0.67273,4.31933 1.4726,8.3436 2.45704,12.73633 0.50666,2.26084 1.61476,10.71856 2.46289,18.79492 0.73638,7.01214 1.40342,12.88718 2.07226,18.01172 0.66885,5.12455 1.33956,9.4979 2.08399,13.50586 0.74443,4.00796 1.56225,7.65206 2.52539,11.31445 0.96313,3.6624 2.07152,7.3438 3.39648,11.43164 0.96413,2.97461 1.99618,5.80897 3.06641,8.44922 1.07023,2.64026 2.17898,5.08614 3.29883,7.28125 1.11984,2.19512 2.25029,4.14011 3.36328,5.7793 1.11298,1.63919 2.20816,2.97284 3.25781,3.94531 1.48412,1.375 7.71189,8.09537 13.83789,14.9336 2.63923,2.94607 5.19593,5.63028 7.76758,8.09375 2.57165,2.46347 5.15922,4.70652 7.85937,6.77148 2.70016,2.06496 5.51237,3.95063 8.53711,5.70117 3.02474,1.75055 6.26124,3.3665 9.80664,4.88672 3.5454,1.52022 7.39997,2.94633 11.66211,4.32031 4.26214,1.37399 8.93246,2.69597 14.10742,4.00782 5.17497,1.31184 10.85481,2.61346 17.13868,3.94726 6.28386,1.3338 13.17092,2.69882 20.75976,4.13867 11.825,2.24359 25.325,4.52205 30,5.0625 4.675,0.54045 15.25,2.19496 23.5,3.67579 8.25,1.48084 18.825,3.03931 23.5,3.46484 2.3375,0.21277 14.02578,0.38518 30.97266,0.49219 16.94687,0.107 39.15234,0.14861 62.52734,0.0976 42.17618,-0.0919 63.47731,-0.14425 77.58399,-0.50781 7.05333,-0.18178 12.30865,-0.44033 17.47461,-0.82226 5.16595,-0.38194 10.24283,-0.88638 16.9414,-1.55665 14.86611,-1.48753 27.69414,-2.89809 38.76172,-4.27929 11.06759,-1.38121 20.37519,-2.73263 28.20313,-4.10547 7.82793,-1.37284 14.1751,-2.76607 19.32226,-4.22852 2.57358,-0.73122 4.84729,-1.47996 6.85547,-2.25195 2.00818,-0.77199 3.75104,-1.56758 5.26367,-2.39258 1.60051,-0.87292 3.19453,-1.90715 4.71485,-3.03906 1.52031,-1.13192 2.96672,-2.36102 4.27343,-3.62305 1.30672,-1.26202 2.47389,-2.55705 3.4336,-3.82031 0.9597,-1.26326 1.71212,-2.49525 2.1914,-3.63086 1.37936,-3.26827 2.96547,-8.34308 4.48438,-14.16797 1.5189,-5.82488 2.9706,-12.39984 4.07812,-18.66797 0.52723,-2.98391 0.92426,-5.28494 1.22071,-9.78515 0.29644,-4.50021 0.49278,-11.19887 0.62109,-22.98047 0.25663,-23.56321 0.23917,-67.45504 0.19922,-154.73438 -0.025,-54.75194 0.0542,-100.64806 0.2207,-134.5332 0.16654,-33.88514 0.42039,-55.75929 0.74805,-62.4668 0.57765,-11.825 1.35544,-40.175 1.72851,-63 0.18654,-11.4125 0.43861,-21.91542 0.69532,-29.64258 0.2567,-7.72715 0.51803,-12.67852 0.7207,-12.99023 0.20268,-0.31171 0.55541,-3.29299 0.95898,-7.84375 0.40358,-4.55076 0.85799,-10.67102 1.26758,-17.26367 0.81918,-13.18531 1.74189,-24.63255 2.05078,-25.4375 0.22893,-0.59658 0.49488,-3.30141 0.78125,-7.69727 0.28638,-4.39585 0.59363,-10.48298 0.90235,-17.84179 0.61744,-14.71763 1.24403,-34.52461 1.74023,-56.07618 0.25512,-11.08063 0.62411,-22.47148 1.01172,-31.89648 0.38761,-9.425 0.79385,-16.88415 1.12695,-20.10352 0.53592,-5.17956 0.78552,-11.63305 0.79493,-18.60937 0.009,-6.97632 -0.22187,-14.47642 -0.65039,-21.74609 -0.42853,-7.26968 -1.05417,-14.3095 -1.83204,-20.36915 -0.38893,-3.02982 -0.81573,-5.81433 -1.27539,-8.25976 -0.45966,-2.44543 -0.95139,-4.5515 -1.4707,-6.22461 -0.61289,-1.97459 -1.39101,-4.09724 -2.27148,-6.24219 -0.88047,-2.14495 -1.86276,-4.31186 -2.88477,-6.37304 -1.02201,-2.06119 -2.08357,-4.016951 -3.12109,-5.740239 -1.03752,-1.723287 -2.05153,-3.214438 -2.97852,-4.345703 -1.23497,-1.507124 -2.68875,-3.015095 -4.28125,-4.464844 -1.5925,-1.449748 -3.3237,-2.840804 -5.11133,-4.117187 -1.78763,-1.276383 -3.63277,-2.436801 -5.45312,-3.423828 -1.82036,-0.987027 -3.61596,-1.801132 -5.30664,-2.382813 -1.75953,-0.605364 -4.46384,-1.310645 -7.75586,-2.050781 -3.29202,-0.740136 -7.17264,-1.514295 -11.28321,-2.259766 -8.22113,-1.490941 -17.36451,-2.863949 -24.57617,-3.599609 -5.33318,-0.544038 -11.5969,-1.020719 -18.55469,-1.429688 -6.95778,-0.408968 -14.60962,-0.749717 -22.71679,-1.023437 -16.21434,-0.547439 -34.25225,-0.824708 -52.21289,-0.830078 z"
       style="color:#000000;clip-rule:nonzero;display:inline;overflow:visible;visibility:visible;opacity:1;isolation:auto;mix-blend-mode:normal;color-interpolation:sRGB;color-interpolation-filters:linearRGB;solid-color:#000000;solid-opacity:1;fill:url(#linearGradient4756);fill-opacity:1;fill-rule:nonzero;stroke:none;stroke-width:1;stroke-linecap:butt;stroke-linejoin:miter;stroke-miterlimit:4;stroke-dasharray:none;stroke-dashoffset:0;stroke-opacity:1;color-rendering:auto;image-rendering:auto;shape-rendering:auto;text-rendering:auto;enable-background:accumulate" />
    <path
       id="path4992"
       d="m 592.96289,49.855469 c -15.25149,0.04162 -28.18333,0.295143 -41.17383,0.822265 -12.9905,0.527123 -26.03966,1.327845 -41.52539,2.466797 -16.08916,1.183334 -25.97839,1.977333 -33.68164,2.820313 -7.70325,0.842979 -13.22052,1.734939 -20.56836,3.117187 -8.06981,1.518065 -15.45682,2.745287 -25.78906,4.1875 -10.33224,1.442213 -23.6097,3.099417 -43.46094,5.478516 -5.73141,0.686889 -11.58286,1.670089 -17.99609,3.044922 -6.41324,1.374833 -13.38826,3.141299 -21.36524,5.392578 -3.87151,1.092627 -6.91521,1.969586 -9.68554,2.861328 -2.77033,0.891742 -5.26643,1.798755 -8.04102,2.947266 -5.54918,2.297021 -12.21319,5.564745 -24.41211,11.634765 -4.58291,2.280399 -9.0148,4.605471 -13.27734,6.964844 -4.26255,2.35937 -8.35575,4.75396 -12.26172,7.16992 -3.90597,2.41597 -7.62548,4.85452 -11.13867,7.30469 -3.5132,2.45017 -6.82009,4.91105 -9.9043,7.37305 -1.35041,1.07797 -2.66609,2.26285 -3.9375,3.53906 -1.27141,1.27621 -2.49813,2.64369 -3.67383,4.08789 -1.17569,1.4442 -2.30001,2.96493 -3.36328,4.54687 -1.06327,1.58195 -2.06587,3.22461 -3,4.91407 -0.93413,1.68945 -1.79961,3.42664 -2.58789,5.19336 -0.78828,1.76671 -1.49928,3.56322 -2.125,5.37695 -0.62572,1.81373 -1.16683,3.6441 -1.61328,5.47461 -0.44645,1.83051 -0.79836,3.66147 -1.04883,5.47851 -0.5985,4.34182 -1.72941,10.41682 -2.51172,13.5 -0.71058,2.80047 -1.29491,5.32691 -1.78906,7.89454 -0.49415,2.56763 -0.89731,5.17643 -1.25,8.14062 -0.70538,5.92838 -1.20361,13.27931 -1.79297,24.57031 -0.29635,5.67769 -0.54128,13.30963 -0.72851,22.2168 -0.18724,8.90717 -0.31739,19.08948 -0.38672,29.86914 -0.13866,21.55932 -0.0321,45.5067 0.35351,66.41406 l 0.39649,21.5 -4.63282,28 c -1.29047,7.79662 -2.33021,14.34372 -3.17968,20.20703 -0.84948,5.86332 -1.50937,11.04333 -2.03516,16.10352 -0.52579,5.06019 -0.91885,10.00143 -1.23828,15.38867 -0.31943,5.38724 -0.56454,11.21998 -0.79492,18.06446 -0.17369,5.16003 -0.49149,10.9457 -0.86524,16.11132 -0.37374,5.16563 -0.80342,9.7112 -1.19726,12.38868 -1.77695,12.08022 -2.90195,20.75022 -3.70508,29.66601 -0.80313,8.91579 -1.2844,18.07739 -1.77149,31.14453 -0.57253,15.35945 -1.42777,31.97578 -1.90234,36.92578 -0.47457,4.95 -0.90327,13.58004 -0.95117,19.17774 -0.0253,2.95209 -0.12169,5.79054 -0.29883,8.60742 -0.17714,2.81688 -0.43567,5.61278 -0.78711,8.47656 -0.70287,5.72757 -1.77604,11.73047 -3.31055,18.73828 -0.51912,2.37114 -0.9143,4.32164 -1.21484,6.5586 -0.30054,2.23695 -0.5055,4.76123 -0.64258,8.27734 -0.27415,7.03222 -0.27746,18.03521 -0.22851,38.66406 0.0264,11.14026 0.0999,20.32355 0.25586,28.12891 0.15595,7.80536 0.3945,14.23232 0.7539,19.85742 0.35941,5.6251 0.83978,10.44936 1.47657,15.04883 0.63678,4.59947 1.42986,8.97465 2.41796,13.70312 0.83193,3.98111 2.62453,16.80611 3.98243,28.5 0.71778,6.18138 1.39531,11.50556 2.09375,16.27149 0.69843,4.76593 1.4187,8.9727 2.21875,12.91992 0.80005,3.94722 1.68048,7.63607 2.70312,11.36133 1.02264,3.72526 2.18654,7.48784 3.55274,11.58789 1.27179,3.81675 2.62297,7.35187 4.07031,10.63281 1.44734,3.28094 2.99137,6.3082 4.64844,9.11133 1.65706,2.80313 3.42715,5.3823 5.32812,7.76563 1.90097,2.38332 3.93228,4.57028 6.11133,6.59179 1.84698,1.71346 4.0558,3.97613 6.12695,6.24219 2.07115,2.26606 4.00463,4.53551 5.30078,6.25976 1.29615,1.72426 3.17643,3.87189 5.16211,5.94141 1.98568,2.06952 4.07675,4.06094 5.79297,5.47656 1.65595,1.36591 4.26817,3.13069 7.38477,5.05079 3.11659,1.92009 6.73814,3.99534 10.41406,5.98242 3.67592,1.98708 7.40632,3.88627 10.74023,5.45312 3.33391,1.56685 6.27075,2.80152 8.36133,3.46094 3.93013,1.23965 10.5594,2.96361 18.40625,4.85156 7.84685,1.88795 16.91166,3.93921 25.70899,5.83594 8.79732,1.89673 17.32782,3.63832 24.10937,4.9043 6.78155,1.26597 11.81375,2.05703 13.61328,2.05273 1.73891,-0.004 13.06211,1.56996 25.16211,3.49805 12.1,1.92809 25.6,3.8941 30,4.36914 2.65578,0.28672 14.56171,0.46847 31.19727,0.56054 16.63555,0.0921 38.00113,0.0938 59.57226,0.0215 21.57113,-0.0723 43.34804,-0.21749 60.81055,-0.42383 17.46251,-0.20634 30.61023,-0.47309 34.91992,-0.7832 18.07186,-1.30038 34.30051,-2.72344 48.71289,-4.27344 7.20619,-0.775 13.95857,-1.58086 20.25977,-2.41992 6.30119,-0.83906 12.15191,-1.71102 17.55469,-2.61524 5.40277,-0.90421 10.35819,-1.84203 14.86914,-2.8125 4.51094,-0.97046 8.57743,-1.97389 12.20312,-3.01171 3.62569,-1.03783 6.80962,-2.10857 9.55664,-3.21485 2.74702,-1.10628 5.05671,-2.24799 6.93164,-3.42383 1.53997,-0.96576 3.24704,-2.19983 4.98242,-3.57421 1.73539,-1.37439 3.49976,-2.88827 5.15625,-4.41797 1.6565,-1.52971 3.2045,-3.07414 4.50782,-4.50586 1.30332,-1.43173 2.36127,-2.75158 3.03711,-3.83203 0.9191,-1.46935 1.93944,-3.72741 3.0039,-6.57618 1.06447,-2.84876 2.17232,-6.28861 3.26953,-10.12304 1.09722,-3.83444 2.18383,-8.06192 3.20118,-12.48828 1.01734,-4.42637 1.96616,-9.05123 2.79101,-13.67579 1.38361,-7.75721 2.13784,-12.39575 2.48047,-16.58789 0.17131,-2.09607 0.23952,-4.07971 0.23242,-6.28711 -0.007,-2.20739 -0.0897,-4.63788 -0.2207,-7.625 -0.28949,-6.60289 -0.53828,-30.33674 -0.73047,-62.36132 -0.19219,-32.02458 -0.32689,-72.34044 -0.39258,-112.10743 -0.0657,-39.76698 -0.0627,-78.98435 0.0273,-108.81445 0.09,-29.8301 0.26611,-50.27239 0.54101,-52.48633 0.29025,-2.3375 0.61314,-9.6375 0.89844,-19.51562 0.28529,-9.87813 0.53299,-22.33438 0.67578,-34.98438 0.15457,-13.69301 0.42709,-26.76033 0.76758,-37.55859 0.34048,-10.79826 0.74893,-19.32746 1.17187,-23.94141 0.78145,-8.525 1.87638,-21.35 2.4336,-28.5 0.55722,-7.15 1.72366,-20.875 2.58984,-30.5 0.43309,-4.8125 0.94294,-14.02461 1.41406,-24.99023 0.47112,-10.96563 0.90351,-23.68477 1.18555,-35.50977 0.56409,-23.65 1.39345,-49.525 1.84375,-57.5 0.35253,-6.24359 0.60449,-13.57516 0.75781,-21.26172 0.15332,-7.68655 0.2085,-15.72768 0.16992,-23.39257 -0.0386,-7.6649 -0.17138,-14.95226 -0.39453,-21.13086 -0.22314,-6.17861 -0.5371,-11.24887 -0.9375,-14.47657 -0.60213,-4.8539 -1.45468,-9.56033 -2.53515,-14.0625 -1.08048,-4.50216 -2.38946,-8.80057 -3.9043,-12.83398 -1.51484,-4.033411 -3.23541,-7.802354 -5.14062,-11.25 -0.95261,-1.723823 -1.95024,-3.368386 -2.99219,-4.923828 -1.04196,-1.555442 -2.1281,-3.022097 -3.25391,-4.394531 -1.42642,-1.738915 -3.20597,-3.570313 -5.19531,-5.388672 -1.98934,-1.81836 -4.18847,-3.623691 -6.45703,-5.310547 -2.26856,-1.686856 -4.60507,-3.255205 -6.86914,-4.59961 -2.26408,-1.344404 -4.45575,-2.464855 -6.43164,-3.255859 -1.87309,-0.749848 -4.53876,-1.565513 -7.71875,-2.392578 -3.18,-0.827065 -6.87526,-1.666217 -10.8086,-2.458984 -3.93333,-0.792768 -8.10322,-1.540545 -12.23633,-2.1875 -4.1331,-0.646956 -8.2285,-1.192403 -12.00781,-1.582032 -6.67749,-0.688416 -12.31339,-1.233171 -17.76562,-1.669921 -5.45223,-0.436751 -10.72132,-0.765322 -16.66211,-1.025391 -11.88158,-0.520138 -26.45354,-0.762072 -50.57227,-1.025391 -12.93388,-0.141206 -24.13312,-0.207434 -34.30078,-0.179687 z m 15.43555,17.517578 c 17.96064,0.0054 35.99855,0.282639 52.21289,0.830078 8.10717,0.27372 15.75901,0.614469 22.71679,1.023437 6.95779,0.408969 13.22151,0.88565 18.55469,1.429688 7.21166,0.73566 16.35504,2.108668 24.57617,3.599609 4.11057,0.745471 7.99119,1.51963 11.28321,2.259766 3.29202,0.740136 5.99633,1.445417 7.75586,2.050781 1.69068,0.581681 3.48628,1.395786 5.30664,2.382813 1.82035,0.987027 3.66549,2.147445 5.45312,3.423828 1.78763,1.276383 3.51883,2.667439 5.11133,4.117187 1.5925,1.449749 3.04628,2.95772 4.28125,4.464844 0.92699,1.131265 1.941,2.622416 2.97852,4.345703 1.03752,1.723288 2.09908,3.679049 3.12109,5.740239 1.02201,2.06118 2.0043,4.22809 2.88477,6.37304 0.88047,2.14495 1.65859,4.2676 2.27148,6.24219 0.51931,1.67311 1.01104,3.77918 1.4707,6.22461 0.45966,2.44543 0.88646,5.22994 1.27539,8.25976 0.77787,6.05965 1.40351,13.09947 1.83204,20.36915 0.42852,7.26967 0.65979,14.76977 0.65039,21.74609 -0.009,6.97632 -0.25901,13.42981 -0.79493,18.60937 -0.3331,3.21937 -0.73934,10.67852 -1.12695,20.10352 -0.38761,9.425 -0.7566,20.81585 -1.01172,31.89648 -0.4962,21.55157 -1.12279,41.35855 -1.74023,56.07618 -0.30872,7.35881 -0.61597,13.44594 -0.90235,17.84179 -0.28637,4.39586 -0.55232,7.10069 -0.78125,7.69727 -0.30889,0.80495 -1.2316,12.25219 -2.05078,25.4375 -0.40959,6.59265 -0.864,12.71291 -1.26758,17.26367 -0.40357,4.55076 -0.7563,7.53204 -0.95898,7.84375 -0.20267,0.31171 -0.464,5.26308 -0.7207,12.99023 -0.25671,7.72716 -0.50878,18.23008 -0.69532,29.64258 -0.37307,22.825 -1.15086,51.175 -1.72851,63 -0.32766,6.70751 -0.58151,28.58166 -0.74805,62.4668 -0.16653,33.88514 -0.24575,79.78126 -0.2207,134.5332 0.0399,87.27934 0.0574,131.17117 -0.19922,154.73438 -0.12831,11.7816 -0.32465,18.48026 -0.62109,22.98047 -0.29645,4.50021 -0.69348,6.80124 -1.22071,9.78515 -1.10752,6.26813 -2.55922,12.84309 -4.07812,18.66797 -1.51891,5.82489 -3.10502,10.8997 -4.48438,14.16797 -0.47928,1.13561 -1.2317,2.3676 -2.1914,3.63086 -0.95971,1.26326 -2.12688,2.55829 -3.4336,3.82031 -1.30671,1.26203 -2.75312,2.49113 -4.27343,3.62305 -1.52032,1.13191 -3.11434,2.16614 -4.71485,3.03906 -1.51263,0.825 -3.25549,1.62059 -5.26367,2.39258 -2.00818,0.77199 -4.28189,1.52073 -6.85547,2.25195 -5.14716,1.46245 -11.49433,2.85568 -19.32226,4.22852 -7.82794,1.37284 -17.13554,2.72426 -28.20313,4.10547 -11.06758,1.3812 -23.89561,2.79176 -38.76172,4.27929 -6.69857,0.67027 -11.77545,1.17471 -16.9414,1.55665 -5.16596,0.38193 -10.42128,0.64048 -17.47461,0.82226 -14.10668,0.36356 -35.40781,0.41587 -77.58399,0.50781 -23.375,0.051 -45.58047,0.009 -62.52734,-0.0976 -16.94688,-0.10701 -28.63516,-0.27942 -30.97266,-0.49219 -4.675,-0.42553 -15.25,-1.984 -23.5,-3.46484 -8.25,-1.48083 -18.825,-3.13534 -23.5,-3.67579 -4.675,-0.54045 -18.175,-2.81891 -30,-5.0625 -7.58884,-1.43985 -14.4759,-2.80487 -20.75976,-4.13867 -6.28387,-1.3338 -11.96371,-2.63542 -17.13868,-3.94726 -5.17496,-1.31185 -9.84528,-2.63383 -14.10742,-4.00782 -4.26214,-1.37398 -8.11671,-2.80009 -11.66211,-4.32031 -3.5454,-1.52022 -6.7819,-3.13617 -9.80664,-4.88672 -3.02474,-1.75054 -5.83695,-3.63621 -8.53711,-5.70117 -2.70015,-2.06496 -5.28772,-4.30801 -7.85937,-6.77148 -2.57165,-2.46347 -5.12835,-5.14768 -7.76758,-8.09375 -6.126,-6.83823 -12.35377,-13.5586 -13.83789,-14.9336 -1.04965,-0.97247 -2.14483,-2.30612 -3.25781,-3.94531 -1.11299,-1.63919 -2.24344,-3.58418 -3.36328,-5.7793 -1.11985,-2.19511 -2.2286,-4.64099 -3.29883,-7.28125 -1.07023,-2.64025 -2.10228,-5.47461 -3.06641,-8.44922 -1.32496,-4.08784 -2.43335,-7.76924 -3.39648,-11.43164 -0.96314,-3.66239 -1.78096,-7.30649 -2.52539,-11.31445 -0.74443,-4.00796 -1.41514,-8.38131 -2.08399,-13.50586 -0.66884,-5.12454 -1.33588,-10.99958 -2.07226,-18.01172 -0.84813,-8.07636 -1.95623,-16.53408 -2.46289,-18.79492 -0.98444,-4.39273 -1.78431,-8.417 -2.45704,-12.73633 -0.67272,-4.31933 -1.2175,-8.93317 -1.6914,-14.50586 -0.4739,-5.57269 -0.87767,-12.105 -1.26563,-20.25781 -0.38795,-8.1528 -0.76088,-17.92665 -1.17578,-29.98633 -0.15703,-4.56436 -0.17189,-9.30842 -0.0605,-14.03906 0.11134,-4.73064 0.34957,-9.44826 0.69921,-13.95703 0.34965,-4.50877 0.80933,-8.80829 1.36719,-12.70703 0.55786,-3.89875 1.21321,-7.39631 1.94922,-10.29688 0.46769,-1.84316 0.91744,-4.26694 1.33984,-7.16992 0.42241,-2.90297 0.818,-6.2848 1.17578,-10.04492 0.71557,-7.52023 1.28202,-16.5524 1.62305,-26.28516 0.30835,-8.8 0.98745,-18.925 1.50977,-22.5 0.26116,-1.7875 0.50192,-5.04336 0.67968,-8.84961 0.17777,-3.80625 0.29254,-8.16289 0.30079,-12.15039 0.0101,-4.89194 0.1185,-9.87978 0.3125,-14.8125 0.194,-4.93271 0.47287,-9.81119 0.82812,-14.48632 0.35525,-4.67514 0.78542,-9.14642 1.2793,-13.26563 0.49388,-4.11921 1.05222,-7.88546 1.66211,-11.15039 0.71349,-3.81954 1.28492,-8.41221 1.75976,-14.35156 0.47485,-5.93936 0.85311,-13.22541 1.18164,-22.4336 0.21968,-6.15725 0.53451,-12.28954 0.93164,-18.27343 0.39714,-5.98389 0.8773,-11.81993 1.42774,-17.38672 0.55044,-5.56679 1.17001,-10.86359 1.84961,-15.76953 0.6796,-4.90595 1.41852,-9.42051 2.20312,-13.42188 1.36803,-6.97677 2.45974,-13.4453 4.4961,-26.64844 0.27569,-1.7875 0.50478,-6.61914 0.65234,-12.96289 0.14756,-6.34375 0.2136,-14.19961 0.16211,-22.03711 -0.16507,-25.12921 -0.22581,-45.93335 -0.1543,-63.25781 0.0715,-17.32446 0.27588,-31.16907 0.63868,-42.37695 0.36279,-11.20789 0.88499,-19.77912 1.59374,-26.5586 0.35438,-3.38974 0.75396,-6.33247 1.20508,-8.93164 0.45113,-2.59917 0.95311,-4.85537 1.50782,-6.875 0.83085,-3.025 2.16681,-9.775 2.96679,-15 0.44637,-2.91543 1.07599,-5.72641 1.875,-8.40429 0.79902,-2.67789 1.76815,-5.2226 2.89453,-7.60938 1.12639,-2.38678 2.40941,-4.61413 3.83789,-6.65625 1.42849,-2.04211 3.00172,-3.89908 4.70704,-5.54297 2.26573,-2.18412 5.20345,-4.59676 8.67578,-7.15234 3.47232,-2.55558 7.47863,-5.25341 11.88476,-8.00977 4.40614,-2.75636 9.21213,-5.57095 14.2793,-8.35742 5.06717,-2.78647 10.39614,-5.5455 15.85156,-8.1914 7.14156,-3.4637 13.69934,-6.40771 20.02149,-8.933599 6.32215,-2.52589 12.40905,-4.634395 18.60937,-6.423828 6.20032,-1.789433 12.51301,-3.259346 19.28906,-4.513672 6.77606,-1.254325 14.01509,-2.292324 22.06446,-3.21289 9.90872,-1.133211 22.06562,-2.695207 27.01562,-3.470703 4.95,-0.775498 11.86199,-1.687237 15.36133,-2.027344 3.49934,-0.340107 10.24934,-1.446545 15,-2.457032 6.87122,-1.461537 13.80573,-2.672741 20.57227,-3.601562 6.76653,-0.928821 13.36508,-1.575261 19.5664,-1.908203 6.325,-0.339582 15.55,-1.053097 20.5,-1.585938 5.02524,-0.540941 11.01945,-1.013213 17.7461,-1.417968 6.72664,-0.404756 14.18571,-0.742963 22.13867,-1.011719 15.90591,-0.537513 33.78935,-0.802245 51.75,-0.796875 z"
       style="color:#000000;clip-rule:nonzero;display:inline;overflow:visible;visibility:visible;opacity:1;isolation:auto;mix-blend-mode:normal;color-interpolation:sRGB;color-interpolation-filters:linearRGB;solid-color:#000000;solid-opacity:1;fill:url(#linearGradient4750);fill-opacity:1;fill-rule:nonzero;stroke:none;stroke-width:1;stroke-linecap:butt;stroke-linejoin:miter;stroke-miterlimit:4;stroke-dasharray:none;stroke-dashoffset:0;stroke-opacity:1;color-rendering:auto;image-rendering:auto;shape-rendering:auto;text-rendering:auto;enable-background:accumulate" />
    <path
       id="path5983"
       d="m 576.30859,405.48828 c -2.87751,-0.0141 -5.74617,0.48129 -7.69726,1.49024 -6.50163,3.36212 -15.42405,15.77102 -25.55664,35.54492 -3.27909,6.3992 -6.27878,11.96662 -6.66602,12.37304 -0.38723,0.40642 -6.53548,0.97726 -13.66406,1.26758 -23.12854,0.94193 -28.60511,1.50901 -52.96094,5.47852 -13.2,2.15133 -25.25313,4.04657 -26.7832,4.21289 -2.52143,0.2741 -2.99316,-0.21232 -5.03906,-5.19727 -1.24151,-3.025 -5.38838,-11.35 -9.2168,-18.5 -3.82843,-7.15 -7.3626,-14.125 -7.85352,-15.5 -2.73037,-7.64737 -8.79966,-11.48029 -17.08789,-10.79297 -9.78829,0.81172 -15.08211,7.34465 -14.33398,17.6875 0.34309,4.74314 1.695,8.00402 8.61133,20.78907 8.14872,15.06317 9.37641,18.3164 6.92187,18.3164 -2.73043,0 -25.77222,3.05596 -34.27148,4.54492 -4.9208,0.86208 -16.26428,2.64819 -25.20703,3.97071 -20.0351,2.96294 -28.93971,5.49363 -32.42188,9.21484 -8.42218,9.00034 -7.63691,21.32827 1.85742,29.1543 2.05417,1.69322 5.55501,3.46993 7.7793,3.94922 7.33027,1.57951 12.09936,0.006 17.54492,-5.79102 3.17106,-3.37592 4.14121,-3.79099 10.32617,-4.41992 3.75461,-0.3818 10.50461,-1.35009 15,-2.15234 7.95093,-1.41892 26.08363,-4.08586 45.94922,-6.75586 9.32095,-1.25276 9.85701,-1.22216 11.5,0.63281 0.94783,1.07011 3.47998,3.22935 5.625,4.79883 3.1925,2.33591 4.91596,2.85261 9.5,2.84961 8.60685,-0.006 14.42155,-4.44788 16.01367,-12.23242 l 0.65235,-3.18555 21.9668,-3.73633 c 12.08183,-2.05423 26.80429,-4.04671 32.71679,-4.42969 9.88914,-0.64058 10.75,-0.55408 10.75,1.07813 0,2.83119 3.58354,7.84614 7.07617,9.90234 4.57486,2.69332 12.68087,2.53771 17.32422,-0.33203 1.97955,-1.22343 3.60433,-2.52494 3.61133,-2.89258 0.007,-0.36764 1.69435,-2.46797 3.75,-4.66797 l 3.73828,-4 25,0.0762 c 22.37183,0.0677 26.78716,0.36627 42,2.85351 26.29131,4.29854 28.5875,4.50221 51.28125,4.53711 16.94598,0.026 22.03165,-0.28111 24.96289,-1.50586 7.1031,-2.96786 10.48633,-7.95436 10.48633,-15.46094 0,-5.8914 -2.25017,-10.26113 -6.91602,-13.43164 -3.65742,-2.48529 -3.69144,-2.48862 -21.27734,-1.8789 -19.04656,0.66036 -27.25453,-0.0302 -52.53711,-4.42188 -12.14831,-2.11021 -18.80225,-2.65539 -35,-2.86523 -15.98048,-0.20702 -19.93519,-0.52402 -19.67383,-1.58008 0.6167,-2.49192 6.03686,-11.32611 12.10352,-19.72656 5.53893,-7.66971 6.07031,-8.85091 6.07031,-13.51758 0,-6.03054 -3.22739,-11.61055 -8.20312,-14.1836 -1.98837,-1.02823 -4.87444,-1.55037 -7.75196,-1.56445 z M 396.26367,519.42773 c -9.84274,0 -16,6.47819 -16,16.83594 0,3.37817 0.675,8.05623 1.5,10.39453 0.825,2.3383 1.50939,5.43165 1.52149,6.875 0.0121,1.44335 0.94274,4.65 2.06836,7.125 1.12562,2.475 2.47966,6.75 3.00976,9.5 1.35935,7.05199 4.62493,30.66664 5.39258,39 0.95144,10.32859 2.31634,14.50775 5.9082,18.09961 4.01574,4.01574 6.47314,4.60575 30.59961,7.33594 27.50593,3.11262 25,2.21245 25,8.97656 l 0,5.67774 -21.75,1.74414 c -11.9625,0.95838 -27.825,2.4533 -35.25,3.32226 -10.3306,1.209 -17.25633,1.40015 -29.5,0.81641 -21.20238,-1.01087 -24.79833,-0.88809 -28.40039,0.97461 -7.87443,4.07203 -10.63284,15.36128 -5.57226,22.80859 3.14426,4.6272 6.71259,6.52034 13.88476,7.36328 5.38804,0.63326 5.61755,0.78225 6.53711,4.26758 2.0995,7.95763 4.56428,26.75439 5.52149,42.11328 0.58442,9.37762 2.59964,60.8823 2.85742,73.03516 0.20753,9.7843 0.56965,12.06208 2.38867,15 3.02649,4.88811 7.51653,7.25 13.7832,7.25 6.2756,0 10.74799,-2.35776 13.81836,-7.28516 1.97397,-3.16786 2.17256,-4.78111 2.09766,-17 -0.0758,-12.37978 -1.82499,-58.62838 -2.98828,-79 -0.48707,-8.52973 -2.76096,-27.67196 -4.00977,-33.75 -0.52039,-2.53275 -0.33353,-3.25 0.84961,-3.25 0.83501,0 7.75376,-0.65535 15.375,-1.45703 7.62125,-0.80168 19.55721,-1.91934 26.52344,-2.48242 6.96622,-0.56307 15.10901,-1.31109 18.0957,-1.66211 l 5.42969,-0.63867 0.56054,18.11328 c 0.30769,9.96233 0.32101,20.74585 0.0293,23.96289 l -0.53125,5.84961 -5.125,1.26758 c -11.71367,2.89645 -29.4115,8.30121 -33.36914,10.1914 -5.66705,2.70661 -8.51308,6.91457 -9.04883,13.375 -0.79722,9.6135 4.61367,16.37159 13.81641,17.25586 3.55274,0.34137 7.15093,-0.32664 14.12109,-2.62304 11.92747,-3.92964 29.30634,-8.3923 43.35547,-11.13282 6.05,-1.18015 15.84477,-3.24155 21.76758,-4.58203 7.48987,-1.69516 13.78867,-2.4375 20.68555,-2.4375 11.37085,0 14.11072,-0.78572 18.27734,-5.24609 l 2.99609,-3.20703 2.18555,2.74023 c 3.86501,4.84719 14.69996,25.95178 17.77344,34.61914 3.32751,9.38377 9.46155,19.77676 13.85156,23.47071 6.09358,5.12742 16.46598,4.22986 21.83984,-1.89063 1.68345,-1.91733 3.23553,-3.48633 3.44922,-3.48633 0.2137,0 0.9533,4.1625 1.64258,9.25 0.68929,5.0875 2.03154,11.31194 2.98242,13.83203 l 1.72852,4.58204 -3.58984,-1.72071 c -11.72077,-5.61642 -19.48428,-6.00675 -25.1211,-1.26367 -4.20866,3.54135 -5.96875,7.38687 -5.96875,13.03906 0,7.51539 3.29622,11.50119 13.44141,16.25391 9.76821,4.57611 20.6756,8.04088 28.48242,9.04687 12.21923,1.57458 19.36812,1.13882 24.62891,-1.50195 6.88289,-3.45503 9.9236,-8.20374 9.875,-15.41992 -0.0308,-4.57393 -0.96763,-7.60929 -5.12305,-16.59766 -2.79698,-6.05 -5.79971,-13.025 -6.67383,-15.5 -3.08391,-8.73187 -5.8344,-30.07874 -6.69922,-52 -0.4665,-11.825 -1.27948,-27.125 -1.80664,-34 -0.52715,-6.875 -1.46745,-19.475 -2.08984,-28 -1.21155,-16.59471 -2.49866,-21.64623 -6.80664,-26.70117 -3.63678,-4.26736 -16.0522,-11.12681 -22.27344,-12.30664 -2.74941,-0.52142 -7.57588,-1.60355 -10.72656,-2.4043 -3.15068,-0.80075 -9.55352,-1.73398 -14.22852,-2.07226 -4.675,-0.33827 -11.29814,-1.04762 -14.71679,-1.57813 -8.16454,-1.26699 -19.76157,-1.89797 -48.10938,-2.61718 l -23.32422,-0.5918 0.69531,-5.11524 c 0.77815,-5.71628 1.42673,-6.45467 5.27735,-6.01757 6.7426,0.76539 48.62992,2.81179 56.80273,2.77539 11.48745,-0.0512 14.38744,-1.5503 19.875,-10.27149 2.2,-3.49638 9.90744,-15.25475 17.12891,-26.1289 17.87893,-26.92224 20.6686,-33.18955 19.66797,-44.19727 -0.63764,-7.01454 -2.66654,-11.04801 -7.85743,-15.61719 -4.93911,-4.34759 -17.20596,-9.4946 -26.5996,-11.16015 -3.48716,-0.61829 -8.92394,-1.78211 -12.08204,-2.58594 -10.48976,-2.66996 -29.0411,-4.39434 -47.35351,-4.40234 -17.11341,-0.008 -18.19864,-0.123 -19.99805,-2.11133 -3.00923,-3.32516 -7.37076,-5.12696 -12.40625,-5.12696 -5.6277,0 -9.45827,1.85919 -13.66601,6.63672 -2.73093,3.10075 -3.768,3.59375 -7.56641,3.59375 -4.73089,0 -12.65267,1.23631 -22.26758,3.47461 -3.3,0.76822 -10.02424,1.53804 -14.94336,1.71094 l -8.94531,0.31445 -0.65625,-3.13476 c -1.575,-7.52313 -7.99979,-12.59571 -15.95508,-12.59571 z M 513.375,558.74219 c 16.09973,0.0516 29.49404,1.9924 55.67773,7.69922 l 3.28711,0.71679 -4.78711,7.0918 c -2.6338,3.901 -5.74686,8.37693 -6.91796,9.94531 l -2.13086,2.85157 -0.71289,-4.22852 c -0.79796,-4.72305 -4.30194,-9.47513 -8.64063,-11.71875 -1.6569,-0.85682 -8.06669,-1.8913 -15.13086,-2.44141 -6.74091,-0.52494 -15.63086,-1.39959 -19.75586,-1.94531 -4.125,-0.54572 -10.5671,-1.00644 -14.31445,-1.02344 l -6.8125,-0.0312 0.3125,-3.25 0.31445,-3.25 12.5,-0.32812 c 2.45553,-0.0643 4.81137,-0.0953 7.11133,-0.0879 z m -55.81055,3.99414 c 1.79382,0.0424 2.69922,0.51613 2.69922,1.42187 0,1.1627 -1.31873,1.5 -5.86133,1.5 -3.22323,0 -8.06073,0.22997 -10.75,0.51172 -4.22965,0.44313 -3.87643,0.24733 2.61133,-1.45703 4.63951,-1.21882 8.13839,-1.8761 10.47852,-1.96875 0.29251,-0.0116 0.566,-0.0139 0.82226,-0.008 z m -27.17968,4.0332 c 1.0875,-0.002 2.21265,0.0528 3.11132,0.16406 1.79735,0.22256 0.56758,0.40807 -2.73242,0.41407 -3.30001,0.006 -4.77023,-0.17612 -3.26758,-0.4043 0.75133,-0.11409 1.80118,-0.17209 2.88868,-0.17383 z m 26.8789,30.61719 0,3.63476 c 0,3.46387 -0.15382,3.63014 -3.25,3.49805 -6.35664,-0.27118 -27.75,-3.2915 -27.75,-3.91797 0,-0.3504 4.8375,-0.91922 10.75,-1.26367 5.9125,-0.34445 12.8875,-0.92472 15.5,-1.28906 l 4.75,-0.66211 z m 33,0.27148 4.8125,0 c 2.64747,0 9.73497,0.63909 15.75,1.41992 6.01503,0.78087 16.44084,1.73777 23.16797,2.12696 10.29965,0.59588 12.61286,0.45749 14.64648,-0.875 2.27238,-1.48891 2.22987,-1.28991 -0.73046,3.35156 -3.6135,5.66558 -0.86917,5.27423 -27.14649,3.86914 -8.25,-0.44114 -18.375,-0.98229 -22.5,-1.20117 -4.125,-0.21889 -7.6125,-0.68905 -7.75,-1.04492 -0.1375,-0.35587 -0.25,-2.22149 -0.25,-4.14649 l 0,-3.5 z m -3.32617,83.69532 20.91211,0.6875 c 28.72228,0.94432 36.85681,1.4144 44.41406,2.57031 3.575,0.5468 9.875,1.26326 14,1.59179 6.82922,0.54396 22.32649,3.49289 26.22852,4.99024 1.73096,0.66423 2.07123,2.95592 3.70117,24.96484 0.52952,7.15 1.48092,19.975 2.11328,28.5 0.63236,8.525 0.99326,19.775 0.80274,25 l -0.34571,9.5 -2.64844,-4.5 c -1.45614,-2.475 -3.40828,-7.2 -4.33984,-10.5 -0.93155,-3.3 -3.16848,-8.475 -4.9707,-11.5 -1.80223,-3.025 -5.24351,-9.325 -7.64649,-14 -5.88309,-11.44554 -20.00385,-30.16801 -30.66797,-40.66211 -11.90902,-11.71915 -14.93433,-13.62304 -21.64257,-13.62304 -9.82022,0 -15.8711,6.0348 -15.8711,15.83203 0,6.13781 2.4171,10.73024 8.08008,15.35742 l 3.70703,3.0293 -9,0.0566 c -4.95,0.0315 -12.6,0.8498 -17,1.81836 l -8,1.76172 -0.0703,-5.03516 c -0.0381,-2.76915 -0.44822,-11.96616 -0.91211,-20.4375 l -0.84375,-15.40234 z"
       style="fill:url(#linearGradient4706)" />
    <path
       id="path5979"
       d="m 472.26367,150.26758 c -39.54551,0.0591 -45.91489,0.46248 -86,5.4414 -9.99922,1.24199 -21.83511,1.9295 -33.34961,1.9375 -19.87875,0.0131 -22.88322,0.72563 -26.91992,6.38477 -2.07179,2.90452 -2.21556,4.0863 -2.02539,16.62695 0.18864,12.44027 0.6006,15.12826 5.25391,34.23633 4.72322,19.39514 7.82798,33.33657 13.08789,58.76367 3.40281,16.44958 8.83466,37.14301 10.79687,41.13086 1.28795,2.61752 1.53657,4.29282 0.88867,6 -1.44426,3.80553 -0.3344,12.21515 2.05469,15.57032 1.18198,1.65993 3.62469,3.74511 5.42969,4.63476 4.11056,2.02601 10.12293,2.06744 25.32031,0.17188 6.57909,-0.82061 15.33789,-1.49098 19.46289,-1.49024 4.125,7.4e-4 20.775,-0.92053 37,-2.04687 103.3695,-7.17587 154.10567,-7.29091 182.63477,-0.41407 12.27341,2.95846 25.72561,3.31484 30.98242,0.82032 1.88146,-0.8928 4.3839,-2.97645 5.56055,-4.62891 2.54853,-3.57907 3.4846,-11.19696 1.95117,-15.88086 -0.84833,-2.59126 -0.78019,-4.42862 0.29492,-7.97851 0.76823,-2.53664 1.90787,-8.16164 2.5332,-12.5 2.6757,-18.56305 8.65576,-38.09388 19.56055,-63.88868 6.28794,-14.87382 7.48242,-18.89421 7.48242,-25.1914 0,-5.96004 -1.95353,-11.54719 -5.29883,-15.16016 -5.45622,-5.89281 -28.39786,-20.25304 -36.20117,-22.66016 -9.49625,-2.92934 -51.97371,-9.5177 -77.22461,-11.97656 -3.42278,-0.33331 -9.27278,-1.25124 -13,-2.04101 -3.72722,-0.78976 -16.90039,-2.44516 -29.27539,-3.67774 -19.1778,-1.91017 -28.18466,-2.23259 -61,-2.18359 z m -11.19336,31.92187 18.2793,0.25196 c 10.05443,0.13814 18.36344,0.35632 18.46484,0.48437 0.31947,0.40341 -1.58037,13.79373 -3.59375,25.32617 -1.06518,6.10125 -2.85127,19.82625 -3.9707,30.5 -1.11944,10.67374 -2.70032,21.7259 -3.51172,24.56055 -0.81139,2.83465 -1.47461,7.53221 -1.47461,10.43945 0,2.90725 -0.50685,7.78761 -1.12695,10.84571 -1.28539,6.33909 -0.0407,12.89486 3.03516,15.9707 1.73873,1.73873 1.42471,1.82735 -8.70704,2.44726 -16.5512,1.01269 -17.20117,0.95796 -17.20117,-1.41015 0,-1.12852 -0.8902,-6.64102 -1.97851,-12.25 -6.31711,-32.5576 -8.11287,-92.06264 -2.96485,-98.26563 0.55857,-0.67303 1.85616,-2.95183 2.88281,-5.0625 l 1.86719,-3.83789 z m -37.25586,1.93555 -1.31054,7.51758 c -2.2342,12.81301 -1.90852,50.18934 0.64062,73.51562 1.2021,11 2.89039,24.275 3.75195,29.5 0.86155,5.225 1.634,9.9388 1.7168,10.47657 0.0828,0.53776 -3.89961,1.28361 -8.84961,1.65625 -4.95,0.37264 -14.56026,0.8584 -21.35547,1.08007 -10.54962,0.34416 -12.42379,0.17634 -12.82812,-1.15429 -0.26043,-0.85708 -1.34042,-3.5836 -2.40039,-6.0586 -2.09989,-4.90319 -5.92996,-19.24396 -8.45313,-31.64843 -2.5438,-12.50587 -12.21799,-55.94736 -14.77539,-66.35157 -1.28433,-5.225 -2.13656,-10.2875 -1.89453,-11.25 0.37991,-1.51085 1.75536,-1.75637 10.07227,-1.79687 5.29835,-0.0258 19.9963,-1.27003 32.66015,-2.76563 l 23.02539,-2.7207 z m 114.89649,1.57227 c 3.47314,0.0275 8.22271,0.65763 14.39453,1.89257 5.31139,1.06278 17.9832,2.86197 28.1582,3.99805 27.00529,3.01525 59.20779,8.6279 64.28125,11.20313 2.32005,1.17764 6.55321,3.80594 9.40625,5.84179 l 5.1875,3.70313 -2.54492,5.41015 c -4.48961,9.54881 -16.43147,43.13328 -18.45898,51.91211 -1.70901,7.39975 -2.60455,12.43729 -5.54883,31.25 -0.62692,4.0057 -1.1017,4.18934 -7.14258,2.75977 -9.53097,-2.25549 -36.11822,-3.50761 -73.7793,-3.47461 l -40.09765,0.0352 1.88476,-4.26172 c 1.11271,-2.51546 2.25669,-8.4866 2.79102,-14.56836 0.49799,-5.66803 1.35673,-11.49287 1.9082,-12.94336 0.55148,-1.4505 1.93845,-11.78534 3.08203,-22.9668 1.14358,-11.18146 2.9615,-24.60508 4.04102,-29.83008 1.07953,-5.225 1.98125,-11.3 2.00195,-13.5 0.0529,-5.63031 1.81659,-12.6539 3.70117,-14.73632 1.06567,-1.17756 3.26124,-1.75216 6.73438,-1.72461 z"
       style="fill:#000000" />
  </g>
</svg>
