<?xml version="1.0" encoding="UTF-8" standalone="no"?>
<svg
   xmlns:osb="http://www.openswatchbook.org/uri/2009/osb"
   xmlns:dc="http://purl.org/dc/elements/1.1/"
   xmlns:cc="http://creativecommons.org/ns#"
   xmlns:rdf="http://www.w3.org/1999/02/22-rdf-syntax-ns#"
   xmlns:svg="http://www.w3.org/2000/svg"
   xmlns="http://www.w3.org/2000/svg"
   xmlns:xlink="http://www.w3.org/1999/xlink"
   version="1.1"
   id="svg2985"
   height="937.922"
   width="569.60767">
  <defs
     id="defs5498">
    <linearGradient
       osb:paint="solid"
       id="linearGradient4756">
      <stop
         id="stop4758"
         offset="0"
         style="stop-color:#ffffff;stop-opacity:1;" />
    </linearGradient>
    <linearGradient
       osb:paint="solid"
       id="linearGradient4750">
      <stop
         id="stop4752"
         offset="0"
         style="stop-color:#000000;stop-opacity:1;" />
    </linearGradient>
    <linearGradient
       osb:paint="solid"
       id="linearGradient5694">
      <stop
         id="stop5696"
         offset="0"
         style="stop-color:#002b11;stop-opacity:1;" />
    </linearGradient>
    <linearGradient
       osb:paint="solid"
       id="linearGradient4712">
      <stop
         id="stop4714"
         offset="0"
         style="stop-color:#162d50;stop-opacity:1;" />
    </linearGradient>
    <linearGradient
       osb:paint="solid"
       id="linearGradient4706">
      <stop
         id="stop4708"
         offset="0"
         style="stop-color:#d40000;stop-opacity:1;" />
    </linearGradient>
    <linearGradient
       gradientUnits="userSpaceOnUse"
       y2="508.69208"
       x2="761.44257"
       y1="508.69208"
       x1="262.13925"
       id="linearGradient4716"
       xlink:href="#linearGradient4712" />
    <linearGradient
       gradientUnits="userSpaceOnUse"
       y2="500.0004"
       x2="771.30902"
       y1="500.0004"
       x1="228.69211"
       id="linearGradient4754"
       xlink:href="#linearGradient4750" />
    <linearGradient
       gradientUnits="userSpaceOnUse"
       y2="500.10483"
       x2="752.40271"
       y1="500.10483"
       x1="248.61133"
       id="linearGradient4760"
       xlink:href="#linearGradient4756" />
    <linearGradient
       y2="508.69208"
       x2="761.44257"
       y1="508.69208"
       x1="262.13925"
       gradientUnits="userSpaceOnUse"
       id="linearGradient501"
       xlink:href="#linearGradient4712" />
    <linearGradient
       y2="508.69208"
       x2="761.44257"
       y1="508.69208"
       x1="262.13925"
       gradientUnits="userSpaceOnUse"
       id="linearGradient503"
       xlink:href="#linearGradient4712" />
    <linearGradient
       y2="508.69208"
       x2="761.44257"
       y1="508.69208"
       x1="262.13925"
       gradientUnits="userSpaceOnUse"
       id="linearGradient505"
       xlink:href="#linearGradient4712" />
  </defs>
  <metadata
     id="metadata5594">
    <rdf:RDF>
      <cc:Work
         rdf:about="">
        <dc:format>image/svg+xml</dc:format>
        <dc:type
           rdf:resource="http://purl.org/dc/dcmitype/StillImage" />
        <dc:title />
      </cc:Work>
    </rdf:RDF>
  </metadata>
  <g
     transform="translate(-215.19532,-31.03906)"
     style="display:inline"
     id="layer29">
    <path
       id="path5013"
       d="m 598.75195,48.333984 c -2.43706,-0.009 -5.15811,0.07652 -8.70117,0.199219 -8.01241,0.277466 -37.51836,0.934312 -65.56836,1.458985 -14.97632,0.280129 -28.242,0.633523 -38.13086,0.998046 -9.88885,0.364523 -16.40087,0.740176 -17.86914,1.066407 -2.75,0.611016 -9.275,1.565191 -14.5,2.121093 -5.225,0.555902 -12.60268,1.692683 -16.39453,2.525391 -1.89592,0.416353 -5.62012,0.958175 -10.0918,1.494141 -4.47168,0.535965 -9.69084,1.066076 -14.58007,1.46289 -6.56945,0.533182 -11.52601,1.058038 -15.5625,1.679688 -4.0365,0.62165 -7.15291,1.340094 -10.04493,2.263672 -4.30469,1.374723 -8.56767,2.504718 -9.47461,2.511718 -0.59578,0.0046 -3.43467,0.828146 -7.5332,2.134766 -4.09853,1.30662 -9.45675,3.0961 -15.08984,5.029297 -11.26618,3.866394 -23.63323,8.310737 -29.22852,10.630859 -5.44332,2.257112 -10.06636,4.290062 -14.18945,6.298828 -4.12309,2.008767 -7.74615,3.993781 -11.18945,6.15625 -3.44331,2.16247 -6.70735,4.502486 -10.11133,7.220706 -3.40399,2.71822 -6.94801,5.81421 -10.95313,9.49023 -3.49052,3.2037 -6.35137,5.91397 -8.77734,8.375 -2.42597,2.46103 -4.41627,4.67223 -6.16602,6.88086 -1.74974,2.20863 -3.25886,4.41482 -4.7207,6.86133 -1.46184,2.44651 -2.87719,5.13393 -4.43945,8.30859 -1.85842,3.77649 -3.38632,7.14853 -4.64063,10.35352 -1.25431,3.20498 -2.23425,6.24387 -3.00195,9.35351 -0.7677,3.10965 -1.32212,6.28884 -1.7207,9.7793 -0.39859,3.49046 -0.6421,7.29123 -0.78907,11.63867 -0.12154,3.59548 -0.17782,6.61001 -0.13672,9.3125 0.0411,2.7025 0.17885,5.09261 0.44336,7.44141 0.26452,2.3488 0.65641,4.65504 1.20508,7.18945 0.54867,2.53441 1.25486,5.29733 2.14844,8.55664 0.56546,2.0625 1.14381,4.83711 1.62109,7.64649 0.47729,2.80937 0.85353,5.65351 1.01172,7.85351 0.31639,4.4 0.85089,8.675 1.1875,9.5 0.33661,0.825 0.63632,7.35 0.66602,14.5 0.0148,3.575 0.22517,8.17578 0.55078,12.70703 0.32561,4.53125 0.76646,8.99297 1.24609,12.29297 1.30584,8.98453 2.37838,17.97533 3.22266,27.14258 0.84428,9.16725 1.46078,18.51118 1.85742,28.20117 0.39664,9.69 0.57223,19.72656 0.53516,30.2793 -0.0371,10.55274 -0.28729,21.62145 -0.74414,33.37695 -0.27718,7.13204 -0.62551,13.8152 -1.04883,20.08008 -0.42332,6.26489 -0.92202,12.11122 -1.49805,17.57031 -0.57603,5.4591 -1.22954,10.53144 -1.96484,15.2461 -0.7353,4.71466 -1.55199,9.07192 -2.45313,13.10351 -0.55321,2.475 -1.23424,6.58125 -1.88672,11.20313 -0.65248,4.62187 -1.27641,9.75937 -1.71289,14.29687 -1.49378,15.52891 -2.24236,22.44261 -4.6582,43 -0.54939,4.675 -2.27558,14.35 -3.83398,21.5 -1.66443,7.63641 -2.94976,13.8675 -3.94532,19.85938 -0.99556,5.99188 -1.70135,11.74534 -2.20312,18.42187 -0.50177,6.67654 -0.80131,14.27642 -0.98438,23.9668 -0.18306,9.69038 -0.24963,21.47049 -0.28906,36.50391 l -0.13672,52.24804 2.75,16.33985 c 1.5125,8.98634 2.74002,17.98634 2.72852,20 -0.0105,1.84685 0.46852,6.87797 1.2832,13.78125 0.81469,6.90327 1.96499,15.67872 3.29492,25.01562 0.79408,5.57494 1.45791,11.64994 1.47461,13.5 0.0167,1.85007 1.36984,9.43828 3.00781,16.86328 1.63798,7.425 4.06713,18.675 5.39844,25 0.874,4.15233 1.87622,8.02533 3.08789,11.79883 1.21168,3.7735 2.63261,7.44721 4.34766,11.20508 1.71505,3.75787 3.72329,7.59964 6.10742,11.70508 2.38413,4.10543 5.14436,8.47481 8.36328,13.29101 3.52318,5.27144 6.07566,8.91779 8.61133,12.1543 2.53567,3.23651 5.05453,6.06316 8.50781,9.69531 2.21083,2.32534 4.36816,4.44385 6.55078,6.38477 2.18263,1.94092 4.38961,3.70483 6.70118,5.32031 2.31156,1.61548 4.72853,3.08261 7.32617,4.43164 2.59764,1.34903 5.37711,2.57915 8.41797,3.7207 3.04085,1.14156 6.34317,2.19445 9.98437,3.1875 3.6412,0.99306 7.62085,1.92655 12.01953,2.83008 4.39868,0.90354 9.216,1.7774 14.5293,2.65039 5.3133,0.873 11.12276,1.74505 17.50781,2.64649 11.73207,1.65632 21.37394,3.10649 30.44922,4.60156 9.07528,1.49507 17.58397,3.03502 27.05078,4.87109 4.91577,0.9534 8.89741,1.67577 12.83399,2.1875 3.93657,0.51174 7.82759,0.81338 12.56054,0.92579 4.73296,0.1124 10.30838,0.0356 17.61328,-0.20899 7.3049,-0.24459 16.33978,-0.65754 27.99219,-1.2168 8.56943,-0.41128 15.78835,-0.8014 22.17969,-1.22265 6.39134,-0.42125 11.95455,-0.87361 17.21484,-1.41211 5.2603,-0.53851 10.21822,-1.16274 15.39453,-1.92578 5.17632,-0.76304 10.57156,-1.66491 16.71094,-2.75977 5.45322,-0.97249 10.13698,-1.85784 14.44141,-2.75781 4.30443,-0.89998 8.22876,-1.81521 12.16601,-2.84766 3.93726,-1.03245 7.88659,-2.18087 12.23828,-3.55078 4.3517,-1.36991 9.10654,-2.96068 14.6543,-4.87305 5.67727,-1.957 10.9814,-3.89805 15.95508,-5.85351 4.97368,-1.95546 9.61727,-3.92478 13.97656,-5.93945 4.35929,-2.01468 8.4335,-4.07433 12.26758,-6.20899 3.83408,-2.13466 7.42811,-4.34474 10.82617,-6.66015 3.39807,-2.31542 6.59915,-4.73604 9.65039,-7.29297 3.05124,-2.55694 5.95249,-5.25016 8.7461,-8.10938 2.7936,-2.85922 5.48031,-5.88515 8.10547,-9.10742 2.62515,-3.22227 5.18847,-6.64103 7.73437,-10.28711 1.61738,-2.31631 3.0689,-4.54289 4.37305,-6.78516 1.30415,-2.24226 2.46081,-4.49922 3.49023,-6.88086 1.02943,-2.38163 1.93141,-4.88668 2.72461,-7.62109 0.7932,-2.73441 1.47678,-5.69939 2.07227,-9 0.59548,-3.30061 1.10279,-6.93736 1.53906,-11.01758 0.43627,-4.08021 0.80163,-8.60449 1.11719,-13.67773 0.63112,-10.14648 1.06015,-22.49158 1.43945,-37.89063 0.27095,-11 0.63357,-21.92729 1,-30.67187 0.36643,-8.74458 0.73668,-15.30646 1.02148,-17.57422 0.2848,-2.26777 0.59672,-8.29531 0.8711,-16.17969 0.27438,-7.88437 0.51123,-17.62558 0.64258,-27.32031 0.2627,-19.38948 0.92896,-41.10391 1.48046,-48.25391 0.82775,-10.73117 2.28927,-25.81877 3.87696,-40.55468 1.58769,-14.73592 3.30156,-29.12016 4.63476,-38.44532 0.865,-6.05 1.98674,-17.75 2.49414,-26 0.58445,-9.50314 1.48273,-20.84001 2.38868,-30.69531 0.90594,-9.85529 1.81955,-18.22901 2.4375,-21.80469 0.5129,-2.96795 1.14819,-9.08166 1.86523,-17.83398 0.71704,-8.75232 1.51582,-20.14324 2.35352,-33.66602 0.9372,-15.1294 1.8829,-28.80195 2.79687,-40.48047 0.91397,-11.67851 1.79622,-21.363 2.60352,-28.51953 0.8685,-7.7 2.00318,-18.275 2.52148,-23.5 0.29338,-2.95771 0.5136,-9.89922 0.66016,-19.40625 0.14656,-9.50702 0.21885,-21.5802 0.21875,-34.80273 -2e-4,-26.44507 -0.29296,-57.48673 -0.87891,-81.79102 -0.29937,-12.38713 -0.68419,-22.92234 -1.21289,-32.05273 -0.5287,-9.13039 -1.20079,-16.85591 -2.07422,-23.62305 -0.43671,-3.38357 -0.92422,-6.528 -1.46875,-9.48828 -0.54453,-2.96028 -1.14572,-5.73608 -1.8125,-8.38477 -0.66677,-2.64868 -1.39968,-5.17037 -2.20312,-7.61914 -0.80345,-2.44877 -1.67828,-4.825 -2.63282,-7.18554 -0.98902,-2.44586 -1.98345,-4.65745 -3.0332,-6.70703 -1.04974,-2.04959 -2.15533,-3.9379 -3.36328,-5.736332 -1.20795,-1.798431 -2.51877,-3.506812 -3.98242,-5.199219 -1.46366,-1.692407 -3.07964,-3.368099 -4.89649,-5.099609 -1.6435,-1.566302 -3.02681,-2.836868 -4.41406,-3.980469 -1.38725,-1.143601 -2.77836,-2.161152 -4.4375,-3.21875 -3.31827,-2.115196 -7.70853,-4.39417 -15.2832,-8.185547 -3.11883,-1.560703 -5.56034,-2.763474 -7.75391,-3.75 -2.19356,-0.986525 -4.13955,-1.757228 -6.26758,-2.449218 -2.12802,-0.69199 -4.43717,-1.305326 -7.35937,-1.982422 -2.9222,-0.677096 -6.4571,-1.417531 -11.0332,-2.359375 -10.602,-2.182082 -22.20235,-4.231158 -25.77735,-4.552735 -3.575,-0.321578 -16.81905,-2.596489 -29.43164,-5.054687 -8.36584,-1.630507 -13.73729,-2.664917 -17.93164,-3.294922 -4.19435,-0.630005 -7.21159,-0.855606 -10.86719,-0.869141 z"
       style="color:#000000;clip-rule:nonzero;display:inline;overflow:visible;visibility:visible;opacity:1;isolation:auto;mix-blend-mode:normal;color-interpolation:sRGB;color-interpolation-filters:linearRGB;solid-color:#000000;solid-opacity:1;fill:url(#linearGradient4756);fill-opacity:1;fill-rule:nonzero;stroke:none;stroke-width:1;stroke-linecap:butt;stroke-linejoin:miter;stroke-miterlimit:4;stroke-dasharray:none;stroke-dashoffset:0;stroke-opacity:1;color-rendering:auto;image-rendering:auto;shape-rendering:auto;text-rendering:auto;enable-background:accumulate" />
    <path
       id="path5011"
       d="m 613.42969,31.039062 -68.97461,1.021485 c -18.96761,0.280784 -37.05538,0.639681 -50.91602,0.992187 -13.86064,0.352506 -23.49414,0.698621 -25.55664,0.953125 -15.67151,1.933799 -24.8701,3.238137 -36,5.101563 -6.89669,1.15468 -14.15883,2.158787 -20.54492,2.875 -6.38609,0.716212 -11.89614,1.144531 -15.29102,1.144531 -1.3621,0 -3.32856,0.225697 -5.39843,0.587891 -2.06987,0.362193 -4.24315,0.860883 -6.02149,1.410156 -3.55668,1.098545 -10.69171,3.080319 -15.85547,4.404297 -4.17746,1.071094 -12.40991,3.72442 -22.02148,7.039062 -9.61157,3.314642 -20.60226,7.2906 -30.29883,11.003907 -3.00583,1.151085 -6.15714,2.511966 -9.3418,4.019531 -3.18465,1.507565 -6.40343,3.16239 -9.54296,4.902344 -3.13954,1.739953 -6.19986,3.563857 -9.07032,5.412109 -2.87046,1.848252 -5.55029,3.720275 -7.92773,5.552734 -2.97481,2.292894 -6.26953,5.044263 -9.61133,7.990235 -3.3418,2.945971 -6.72977,6.087141 -9.89648,9.160161 -3.16672,3.07301 -6.11098,6.07791 -8.56055,8.75195 -2.44957,2.67403 -4.40535,5.01661 -5.5957,6.76562 -2.28504,3.35747 -4.4654,7.09686 -6.48829,11.08399 -2.02288,3.98712 -3.88809,8.22272 -5.54687,12.57226 -1.65878,4.34955 -3.11,8.81309 -4.30273,13.25782 -1.19274,4.44472 -2.12721,8.86991 -2.75196,13.14257 -0.41966,2.8701 -0.66959,6.56332 -0.75976,10.83008 -0.0902,4.26676 -0.0209,9.107 0.19726,14.26953 0.21819,5.16254 0.58638,10.64765 1.0918,16.20508 0.50542,5.55743 1.14841,11.18724 1.91992,16.63867 1.74282,12.31466 2.63453,18.64197 3.2168,23.35157 0.58226,4.70959 0.85508,7.80148 1.35742,13.64843 0.49615,5.775 1.41409,12.75 2.03906,15.5 0.62496,2.75 1.78927,11.975 2.58789,20.5 2.19906,23.47418 3.35541,36.14044 3.88086,44.79297 0.26273,4.32627 0.36839,7.65036 0.36719,10.81836 -0.001,3.16801 -0.10933,6.18083 -0.27148,9.88867 -0.3608,8.25 -1.05649,24.9 -1.54493,37 -0.24406,6.04611 -0.55175,11.72048 -0.92382,17.03321 -0.37208,5.31272 -0.80798,10.26357 -1.31055,14.86523 -0.50257,4.60166 -1.07147,8.85272 -1.70703,12.76563 -0.63556,3.9129 -1.33834,7.4879 -2.10938,10.73437 -0.53434,2.24989 -1.17316,5.83528 -1.83203,10.07422 -0.65887,4.23894 -1.33781,9.13116 -1.94922,13.99219 -0.6114,4.86102 -1.15688,9.69246 -1.54883,13.80859 -0.39194,4.11613 -0.63036,7.51722 -0.63085,9.52149 -5e-4,2.15933 -0.16029,4.48979 -0.73047,8.95312 -0.57019,4.46333 -1.55078,11.05952 -3.19141,21.75195 -0.54854,3.575 -2.62269,14.375 -4.60938,24 -0.82402,3.9922 -1.46733,7.22657 -1.98437,10.21094 -0.51704,2.98437 -0.90875,5.71836 -1.22656,8.70899 -0.63563,5.98123 -0.97961,12.98942 -1.46485,25.08007 -0.86432,21.53635 -1.38722,42.86049 -1.53711,60.38867 -0.0749,8.7641 -0.0566,16.58021 0.0586,22.99805 0.11518,6.41785 0.32764,11.43782 0.64062,14.61328 0.62343,6.325 1.9982,18.7 3.05469,27.5 1.05648,8.8 2.63435,22.3 3.50586,30 1.63682,14.4618 3.09851,26.29993 4.43945,35.91602 1.34095,9.61609 2.56117,17.01014 3.71875,22.58398 1.31358,6.325 3.48496,16.7384 4.82422,23.14063 0.84401,4.03475 1.72028,7.68278 2.70117,11.12304 0.98089,3.44027 2.06676,6.67263 3.32618,9.87891 1.25941,3.20628 2.69346,6.38595 4.37304,9.71875 1.67958,3.3328 3.60432,6.81886 5.84571,10.63867 3.08064,5.25009 6.36664,10.37343 9.76562,15.25977 3.39898,4.88633 6.91034,9.5352 10.44531,13.83594 3.53498,4.30073 7.09341,8.25281 10.58203,11.74609 3.48863,3.49328 6.90806,6.52821 10.16797,8.99219 2.08444,1.57549 4.40255,3.11706 6.85352,4.57812 2.45097,1.46107 5.03569,2.84114 7.65234,4.0918 2.61665,1.25066 5.26423,2.37211 7.84571,3.31641 2.58147,0.94429 5.09596,1.71193 7.4414,2.2539 3.85,0.88963 11.5,2.68918 17,3.99805 5.5,1.30887 12.7,2.6603 16,3.0039 3.3,0.34363 10.91709,1.4807 16.92578,2.5254 6.00869,1.0447 12.75869,1.92352 15,1.95312 1.12066,0.0148 4.95106,0.57584 10.22071,1.4668 5.26964,0.89096 11.97851,2.11184 18.85351,3.44922 l 25,4.86328 22,-0.004 c 12.1,-0.003 28.975,-0.38051 37.5,-0.83789 27.27189,-1.46318 40.92129,-2.19588 50.84375,-3.12891 4.96123,-0.46651 8.99214,-0.98313 13.32617,-1.66601 4.33404,-0.68288 8.97207,-1.53222 15.15235,-2.66406 5.41979,-0.99257 10.80078,-2.09123 16.12109,-3.28907 5.32031,-1.19783 10.57897,-2.49433 15.75391,-3.88086 5.17493,-1.38652 10.26634,-2.86322 15.25,-4.42187 4.98366,-1.55865 9.86093,-3.19987 14.60742,-4.91406 4.74649,-1.7142 9.36274,-3.5023 13.82617,-5.35547 4.46343,-1.85317 8.77373,-3.77052 12.9082,-5.7461 4.13447,-1.97557 8.09195,-4.00843 11.85157,-6.08984 3.75961,-2.08141 7.32129,-4.21214 10.66015,-6.38281 2.51684,-1.63625 5.06559,-3.47282 7.61328,-5.47461 2.5477,-2.0018 5.09352,-4.16913 7.60938,-6.46289 2.51586,-2.29376 5.00054,-4.71441 7.42187,-7.22656 2.42134,-2.51216 4.78082,-5.11647 7.04493,-7.77344 2.2641,-2.65698 4.43237,-5.36749 6.47656,-8.0957 2.04419,-2.72822 3.96303,-5.47334 5.72461,-8.19922 1.76158,-2.72589 3.36693,-5.43205 4.7832,-8.08204 1.41628,-2.64998 2.64407,-5.24364 3.65235,-7.74414 1.55369,-3.8531 2.79689,-7.46016 3.81835,-11.64062 0.51074,-2.09023 0.96592,-4.32316 1.37696,-6.80274 0.41104,-2.47957 0.77774,-5.20537 1.11133,-8.27929 0.66718,-6.14785 1.20252,-13.69003 1.69336,-23.44531 0.49083,-9.75529 0.93726,-21.72381 1.42968,-36.72657 0.6138,-18.7 1.55365,-41.2 2.08985,-50 0.5361,-8.8 1.35701,-33.1 1.82421,-54 0.36896,-16.50392 1.09585,-32.97278 1.93165,-45.64062 0.41789,-6.33392 0.8633,-11.71639 1.30468,-15.67969 0.44139,-3.9633 0.87853,-6.5066 1.28125,-7.1582 0.2725,-0.44094 1.1724,-8.38952 2,-17.66211 0.8277,-9.27259 1.74562,-17.89713 2.04102,-19.16602 0.60095,-2.58164 1.46399,-9.11213 2.17773,-15.75586 0.71375,-6.64373 1.27821,-13.4007 1.28321,-16.4375 0.004,-3.47303 0.52298,-10.76759 1.34179,-19.54687 0.81882,-8.77928 1.93697,-19.04329 3.13477,-28.45313 0.8051,-6.325 1.71488,-15.775 2.02148,-21 0.3066,-5.225 0.98908,-15.35 1.51758,-22.5 0.5285,-7.15 1.66479,-23.35 2.52539,-36 0.8605,-12.65 2.21381,-28.85 3.00781,-36 1.128,-10.15776 1.9771,-17.86527 2.60938,-24.57031 0.63228,-6.70504 1.0484,-12.40767 1.30664,-18.55859 0.25824,-6.15093 0.35936,-12.74872 0.36523,-21.24414 0.006,-8.49543 -0.0842,-18.88843 -0.20898,-32.62696 -0.2965,-32.63967 -0.81237,-62.5259 -1.43555,-85.49609 -0.31159,-11.4851 -0.65095,-21.24054 -1.00195,-28.74805 -0.351,-7.50751 -0.71395,-12.76607 -1.07617,-15.25586 -0.90633,-6.22952 -1.71267,-11.36043 -2.5293,-15.79101 -0.81663,-4.43059 -1.64311,-8.16024 -2.58984,-11.58789 -0.94673,-3.42766 -2.01392,-6.5527 -3.31055,-9.77344 -1.29663,-3.22074 -2.82313,-6.537808 -4.68945,-10.347657 -1.06344,-2.17085 -2.16099,-4.222832 -3.31446,-6.173828 -1.15346,-1.950996 -2.36249,-3.800644 -3.64843,-5.570313 -1.28595,-1.769668 -2.64849,-3.459071 -4.10938,-5.085937 -1.46088,-1.626866 -3.02093,-3.192254 -4.69922,-4.714844 -1.67828,-1.52259 -3.47592,-3.002145 -5.41406,-4.458984 -1.93814,-1.45684 -4.0154,-2.890698 -6.25586,-4.320313 -4.48091,-2.859229 -9.60977,-5.702108 -15.55469,-8.683593 -6.72737,-3.373908 -10.99636,-5.403911 -14.75976,-6.826172 -1.8817,-0.711131 -3.63743,-1.269892 -5.50977,-1.769531 -1.87233,-0.49964 -3.86218,-0.93968 -6.21289,-1.41211 -3.85,-0.773746 -11.3807,-2.314726 -16.73633,-3.423828 -5.35563,-1.109103 -13.90563,-2.496905 -19,-3.083984 -5.09437,-0.587079 -18.27622,-2.867007 -29.29101,-5.066407 l -20.02539,-3.998047 z m -14.67774,17.294922 c 3.6556,0.01353 6.67284,0.239136 10.86719,0.869141 4.19435,0.630005 9.5658,1.664415 17.93164,3.294922 12.61259,2.458198 25.85664,4.733109 29.43164,5.054687 3.575,0.321577 15.17535,2.370653 25.77735,4.552735 4.5761,0.941844 8.111,1.682279 11.0332,2.359375 2.9222,0.677096 5.23135,1.290432 7.35937,1.982422 2.12803,0.69199 4.07402,1.462693 6.26758,2.449218 2.19357,0.986526 4.63508,2.189297 7.75391,3.75 7.57467,3.791377 11.96493,6.070351 15.2832,8.185547 1.65914,1.057598 3.05025,2.075149 4.4375,3.21875 1.38725,1.143601 2.77056,2.414167 4.41406,3.980469 1.81685,1.73151 3.43283,3.407202 4.89649,5.099609 1.46365,1.692407 2.77447,3.400788 3.98242,5.199219 1.20795,1.798432 2.31354,3.686742 3.36328,5.736332 1.04975,2.04958 2.04418,4.26117 3.0332,6.70703 0.95454,2.36054 1.82937,4.73677 2.63282,7.18554 0.80344,2.44877 1.53635,4.97046 2.20312,7.61914 0.66678,2.64869 1.26797,5.42449 1.8125,8.38477 0.54453,2.96028 1.03204,6.10471 1.46875,9.48828 0.87343,6.76714 1.54552,14.49266 2.07422,23.62305 0.5287,9.13039 0.91352,19.6656 1.21289,32.05273 0.58595,24.30429 0.87871,55.34595 0.87891,81.79102 10e-5,13.22253 -0.0722,25.29571 -0.21875,34.80273 -0.14656,9.50703 -0.36678,16.44854 -0.66016,19.40625 -0.5183,5.225 -1.65298,15.8 -2.52148,23.5 -0.8073,7.15653 -1.68955,16.84102 -2.60352,28.51953 -0.91397,11.67852 -1.85967,25.35107 -2.79687,40.48047 -0.8377,13.52278 -1.63648,24.9137 -2.35352,33.66602 -0.71704,8.75232 -1.35233,14.86603 -1.86523,17.83398 -0.61795,3.57568 -1.53156,11.9494 -2.4375,21.80469 -0.90595,9.8553 -1.80423,21.19217 -2.38868,30.69531 -0.5074,8.25 -1.62914,19.95 -2.49414,26 -1.3332,9.32516 -3.04707,23.7094 -4.63476,38.44532 -1.58769,14.73591 -3.04921,29.82351 -3.87696,40.55468 -0.5515,7.15 -1.21776,28.86443 -1.48046,48.25391 -0.13135,9.69473 -0.3682,19.43594 -0.64258,27.32031 -0.27438,7.88438 -0.5863,13.91192 -0.8711,16.17969 -0.2848,2.26776 -0.65505,8.82964 -1.02148,17.57422 -0.36643,8.74458 -0.72905,19.67187 -1,30.67187 -0.3793,15.39905 -0.80833,27.74415 -1.43945,37.89063 -0.31556,5.07324 -0.68092,9.59752 -1.11719,13.67773 -0.43627,4.08022 -0.94358,7.71697 -1.53906,11.01758 -0.59549,3.30061 -1.27907,6.26559 -2.07227,9 -0.7932,2.73441 -1.69518,5.23946 -2.72461,7.62109 -1.02942,2.38164 -2.18608,4.6386 -3.49023,6.88086 -1.30415,2.24227 -2.75567,4.46885 -4.37305,6.78516 -2.5459,3.64608 -5.10922,7.06484 -7.73437,10.28711 -2.62516,3.22227 -5.31187,6.2482 -8.10547,9.10742 -2.79361,2.85922 -5.69486,5.55244 -8.7461,8.10938 -3.05124,2.55693 -6.25232,4.97755 -9.65039,7.29297 -3.39806,2.31541 -6.99209,4.52549 -10.82617,6.66015 -3.83408,2.13466 -7.90829,4.19431 -12.26758,6.20899 -4.35929,2.01467 -9.00288,3.98399 -13.97656,5.93945 -4.97368,1.95546 -10.27781,3.89651 -15.95508,5.85351 -5.54776,1.91237 -10.3026,3.50314 -14.6543,4.87305 -4.35169,1.36991 -8.30102,2.51833 -12.23828,3.55078 -3.93725,1.03245 -7.86158,1.94768 -12.16601,2.84766 -4.30443,0.89997 -8.98819,1.78532 -14.44141,2.75781 -6.13938,1.09486 -11.53462,1.99673 -16.71094,2.75977 -5.17631,0.76304 -10.13423,1.38727 -15.39453,1.92578 -5.26029,0.5385 -10.8235,0.99086 -17.21484,1.41211 -6.39134,0.42125 -13.61026,0.81137 -22.17969,1.22265 -11.65241,0.55926 -20.68729,0.97221 -27.99219,1.2168 -7.3049,0.24459 -12.88032,0.32139 -17.61328,0.20899 -4.73295,-0.11241 -8.62397,-0.41405 -12.56054,-0.92579 -3.93658,-0.51173 -7.91822,-1.2341 -12.83399,-2.1875 -9.46681,-1.83607 -17.9755,-3.37602 -27.05078,-4.87109 -9.07528,-1.49507 -18.71715,-2.94524 -30.44922,-4.60156 -6.38505,-0.90144 -12.19451,-1.77349 -17.50781,-2.64649 -5.3133,-0.87299 -10.13062,-1.74685 -14.5293,-2.65039 -4.39868,-0.90353 -8.37833,-1.83702 -12.01953,-2.83008 -3.6412,-0.99305 -6.94352,-2.04594 -9.98437,-3.1875 -3.04086,-1.14155 -5.82033,-2.37167 -8.41797,-3.7207 -2.59764,-1.34903 -5.01461,-2.81616 -7.32617,-4.43164 -2.31157,-1.61548 -4.51855,-3.37939 -6.70118,-5.32031 -2.18262,-1.94092 -4.33995,-4.05943 -6.55078,-6.38477 -3.45328,-3.63215 -5.97214,-6.4588 -8.50781,-9.69531 -2.53567,-3.23651 -5.08815,-6.88286 -8.61133,-12.1543 -3.21892,-4.8162 -5.97915,-9.18558 -8.36328,-13.29101 -2.38413,-4.10544 -4.39237,-7.94721 -6.10742,-11.70508 -1.71505,-3.75787 -3.13598,-7.43158 -4.34766,-11.20508 -1.21167,-3.7735 -2.21389,-7.6465 -3.08789,-11.79883 -1.33131,-6.325 -3.76046,-17.575 -5.39844,-25 -1.63797,-7.425 -2.99111,-15.01321 -3.00781,-16.86328 -0.0167,-1.85006 -0.68053,-7.92506 -1.47461,-13.5 -1.32993,-9.3369 -2.48023,-18.11235 -3.29492,-25.01562 -0.81468,-6.90328 -1.29375,-11.9344 -1.2832,-13.78125 0.0115,-2.01366 -1.21602,-11.01366 -2.72852,-20 l -2.75,-16.33985 0.13672,-52.24804 c 0.0394,-15.03342 0.106,-26.81353 0.28906,-36.50391 0.18307,-9.69038 0.48261,-17.29026 0.98438,-23.9668 0.50177,-6.67653 1.20756,-12.42999 2.20312,-18.42187 0.99556,-5.99188 2.28089,-12.22297 3.94532,-19.85938 1.5584,-7.15 3.28459,-16.825 3.83398,-21.5 2.41584,-20.55739 3.16442,-27.47109 4.6582,-43 0.43648,-4.5375 1.06041,-9.675 1.71289,-14.29687 0.65248,-4.62188 1.33351,-8.72813 1.88672,-11.20313 0.90114,-4.03159 1.71783,-8.38885 2.45313,-13.10351 0.7353,-4.71466 1.38881,-9.787 1.96484,-15.2461 0.57603,-5.45909 1.07473,-11.30542 1.49805,-17.57031 0.42332,-6.26488 0.77165,-12.94804 1.04883,-20.08008 0.45685,-11.7555 0.70707,-22.82421 0.74414,-33.37695 0.0371,-10.55274 -0.13852,-20.5893 -0.53516,-30.2793 -0.39664,-9.68999 -1.01314,-19.03392 -1.85742,-28.20117 -0.84428,-9.16725 -1.91682,-18.15805 -3.22266,-27.14258 -0.47963,-3.3 -0.92048,-7.76172 -1.24609,-12.29297 -0.32561,-4.53125 -0.53598,-9.13203 -0.55078,-12.70703 -0.0297,-7.15 -0.32941,-13.675 -0.66602,-14.5 -0.33661,-0.825 -0.87111,-5.1 -1.1875,-9.5 -0.15819,-2.2 -0.53443,-5.04414 -1.01172,-7.85351 -0.47728,-2.80938 -1.05563,-5.58399 -1.62109,-7.64649 -0.89358,-3.25931 -1.59977,-6.02223 -2.14844,-8.55664 -0.54867,-2.53441 -0.94056,-4.84065 -1.20508,-7.18945 -0.26451,-2.3488 -0.40225,-4.73891 -0.44336,-7.44141 -0.0411,-2.70249 0.0152,-5.71702 0.13672,-9.3125 0.14697,-4.34744 0.39048,-8.14821 0.78907,-11.63867 0.39858,-3.49046 0.953,-6.66965 1.7207,-9.7793 0.7677,-3.10964 1.74764,-6.14853 3.00195,-9.35351 1.25431,-3.20499 2.78221,-6.57703 4.64063,-10.35352 1.56226,-3.17466 2.97761,-5.86208 4.43945,-8.30859 1.46184,-2.44651 2.97096,-4.6527 4.7207,-6.86133 1.74975,-2.20863 3.74005,-4.41983 6.16602,-6.88086 2.42597,-2.46103 5.28682,-5.1713 8.77734,-8.375 4.00512,-3.67602 7.54914,-6.77201 10.95313,-9.49023 3.40398,-2.71822 6.66802,-5.058236 10.11133,-7.220706 3.4433,-2.162469 7.06636,-4.147483 11.18945,-6.15625 4.12309,-2.008766 8.74613,-4.041716 14.18945,-6.298828 5.59529,-2.320122 17.96234,-6.764465 29.22852,-10.630859 5.63309,-1.933197 10.99131,-3.722677 15.08984,-5.029297 4.09853,-1.30662 6.93742,-2.130153 7.5332,-2.134766 0.90694,-0.007 5.16992,-1.136995 9.47461,-2.511718 2.89202,-0.923578 6.00843,-1.642022 10.04493,-2.263672 4.03649,-0.62165 8.99305,-1.146506 15.5625,-1.679688 4.88923,-0.396814 10.10839,-0.926925 14.58007,-1.46289 4.47168,-0.535966 8.19588,-1.077788 10.0918,-1.494141 3.79185,-0.832708 11.16953,-1.969489 16.39453,-2.525391 5.225,-0.555902 11.75,-1.510077 14.5,-2.121093 1.46827,-0.326231 7.98029,-0.701884 17.86914,-1.066407 9.88886,-0.364523 23.15454,-0.717917 38.13086,-0.998046 28.05,-0.524673 57.55595,-1.181519 65.56836,-1.458985 3.54306,-0.122694 6.26411,-0.20824 8.70117,-0.199219 z"
       style="color:#000000;clip-rule:nonzero;display:inline;overflow:visible;visibility:visible;opacity:1;isolation:auto;mix-blend-mode:normal;color-interpolation:sRGB;color-interpolation-filters:linearRGB;solid-color:#000000;solid-opacity:1;fill:url(#linearGradient4750);fill-opacity:1;fill-rule:nonzero;stroke:none;stroke-width:1;stroke-linecap:butt;stroke-linejoin:miter;stroke-miterlimit:4;stroke-dasharray:none;stroke-dashoffset:0;stroke-opacity:1;color-rendering:auto;image-rendering:auto;shape-rendering:auto;text-rendering:auto;enable-background:accumulate" />
    <path
       id="path6027"
       d="m 365.00586,578.89648 c -5.93471,0 -10.2823,2.24797 -13.49414,6.97461 -3.53976,5.20923 -3.34002,13.39661 0.99414,40.75586 1.91684,12.1 4.16388,26.725 4.99414,32.5 1.46217,10.17024 5.17895,31.73569 8.08203,46.89453 2.47594,12.9285 7.44603,18.09766 17.40039,18.09766 3.73647,0 6.55106,-0.63991 8.77539,-1.99609 3.04569,-1.85696 5.04977,-1.9961 28.72461,-1.9961 l 25.45117,0 -0.48828,2.75 c -0.26858,1.5125 -1.16069,8.08584 -1.98242,14.60743 -0.82172,6.52156 -1.71649,12.21575 -1.98633,12.65234 -0.63699,1.03068 -18.5895,2.13491 -40.01367,2.46094 -9.33914,0.14213 -26.88047,0.61214 -38.98047,1.04492 l -22,0.78711 -0.17187,-4.61524 c -0.34075,-9.12959 -6.4995,-14.97265 -15.78125,-14.97265 -6.70978,0 -10.73309,2.34438 -14.73828,8.58593 -2.96247,4.61661 -3.06329,5.12746 -2.56641,13.0918 0.2928,4.69322 0.0848,9.05788 -0.47852,10.06445 -1.39076,2.48514 -1.2412,10.76687 0.2461,13.64454 0.68219,1.31992 2.01594,3.29843 2.96484,4.39843 1.08156,1.25379 2.17256,5.35795 2.92188,11 0.65741,4.95 2.04982,13.275 3.0957,18.5 1.75552,8.77026 2.54611,12.98348 6.65625,35.5 0.80317,4.4 1.88801,11.99004 2.41016,16.86524 1.70121,15.88367 6.50469,21.92187 17.4414,21.92187 8.40226,0 13.79797,-4.23579 15.60547,-12.25 0.98831,-4.38206 -1.8745,-27.64038 -5.60351,-45.53711 -3.12199,-14.98337 -6.48116,-33.2559 -7.09571,-38.59179 l -0.64453,-5.58985 22.36914,-0.6582 c 12.30298,-0.36191 32.35854,-0.84542 44.56641,-1.07422 12.20788,-0.22879 23.18962,-0.73167 24.40429,-1.11719 2.16484,-0.68709 2.19495,-0.57459 1.5293,5.66602 -0.6746,6.32462 -3.62492,35.21018 -3.6289,35.53516 -10e-4,0.0934 -3.03946,0.86554 -6.75196,1.71484 -3.7125,0.8493 -9.9,2.63715 -13.75,3.97266 -3.85,1.3355 -10.375,2.96771 -14.5,3.62695 -12.50258,1.9981 -18.23047,7.34358 -18.23047,17.01562 0,5.91204 2.25329,10.26444 6.97461,13.47266 5.78569,3.93148 15.14385,3.36884 32.25586,-1.93945 14.6545,-4.54595 27.0317,-7.53311 31.23633,-7.53711 2.38233,-0.002 5.60233,-0.81817 7.29687,-1.85157 4.87289,-2.97159 27.14615,-8.96095 37.4668,-10.07421 5.225,-0.5636 11.92415,-1.4845 14.88672,-2.04688 2.96257,-0.56239 7.41029,-1.02344 9.88281,-1.02344 5.02632,0 10.02805,-2.57773 13.04883,-6.72461 l 1.90625,-2.61523 3.13477,8.41992 c 7.27411,19.53254 11.95277,24.91992 21.64258,24.91992 5.73967,0 10.22925,-2.35903 13.89062,-7.30078 3.11698,-4.207 2.79242,-12.65235 -0.74805,-19.51172 -1.5083,-2.92221 -4.05243,-8.71699 -5.65429,-12.87695 -5.88844,-15.29204 -12.61575,-24.5416 -27.2461,-37.46094 l -7.75586,-6.84961 3.9668,0 c 8.7542,0 35.46484,4.13485 44.74609,6.92578 14.74811,4.43487 23.5046,6.92486 26.4336,7.51954 2.35895,0.47894 2.71249,1.13528 3.39453,6.29492 0.52848,3.99795 2.28407,63.63083 1.9707,66.93554 -0.009,0.0962 -2.71234,-0.45926 -6.00781,-1.23437 -12.21456,-2.87294 -18.56717,-1.31515 -23.88281,5.85937 -2.8972,3.91029 -2.91489,13.47559 -0.0312,17.33789 3.84239,5.14648 7.07167,6.55068 25.05664,10.9004 21.75023,5.26035 29.12154,5.67195 34.62304,1.93359 7.49968,-5.09616 8.30029,-11.11655 4.24219,-31.87305 -2.1787,-11.14368 -2.5,-15.47071 -2.5,-33.67187 0,-22.11685 -1.50834,-48.9519 -3.09961,-55.13477 -1.39698,-5.42796 -6.76853,-11.97211 -11.9082,-14.50976 -2.47095,-1.22 -8.31719,-3.16924 -12.99219,-4.33008 -4.675,-1.16084 -12.55,-3.4086 -17.5,-4.9961 -25.39305,-8.14372 -41.39845,-9.94812 -88.31054,-9.95312 l -36.3125,-0.004 0.63671,-4.75 c 0.34925,-2.6125 1.05109,-7.19508 1.56055,-10.18359 0.50945,-2.98851 0.92578,-6.98961 0.92578,-8.89258 l 0,-3.46094 7.25,0.70508 c 3.9875,0.38742 15.8,1.08152 26.25,1.54297 11.31048,0.49945 24.03083,1.72356 31.42969,3.02539 14.82028,2.60762 19.65968,2.19122 24.56445,-2.11523 1.87548,-1.64669 3.68991,-3.87375 4.03125,-4.94922 0.34134,-1.07547 2.26825,-2.64442 4.28321,-3.48633 8.02917,-3.3548 10.47132,-7.54079 12.25,-21.00781 0.64855,-4.91036 2.08797,-10.7181 3.19921,-12.90821 1.12173,-2.21077 2.14273,-6.46222 2.29688,-9.55664 0.15271,-3.0655 1.17797,-9.37318 2.27734,-14.01757 2.958,-12.4964 4.49975,-24.49588 3.85157,-29.96875 -1.01661,-8.58368 -6.56056,-16.38776 -13.62696,-19.1836 -3.31767,-1.31265 -28.07989,-3.71715 -37.35547,-3.62695 -3.96012,0.0385 -9.90117,-0.40827 -13.20117,-0.99219 -3.3,-0.58392 -10.275,-1.35652 -15.5,-1.7168 -5.225,-0.36029 -12.875,-1.29287 -17,-2.07421 -27.30389,-5.17181 -39.72426,-6.51836 -64,-6.93946 -26.79357,-0.46476 -37.05706,-1.10209 -48.5,-3.01172 -8.37658,-1.3979 -9.24244,-1.77043 -12.5,-5.375 -4.49413,-4.97287 -7.20523,-6.28711 -12.97656,-6.28711 z m 21.29883,44.4375 c 1.64418,0.019 5.23024,0.32233 9.2539,0.80274 7.9009,0.94336 31.74019,1.75287 57.78321,1.96094 3.71438,0.0297 3.83107,0.13194 3.13086,2.77929 -0.40005,1.5125 -1.0123,6.25919 -1.35938,10.54688 l -0.63086,7.79492 -24,0.39063 c -13.2,0.21422 -27.375,0.85325 -31.5,1.42187 -4.125,0.56862 -7.95672,1.04941 -8.51562,1.06641 -1.00636,0.0306 -5.95322,-25.8339 -5.10352,-26.6836 0.0607,-0.0607 0.39335,-0.0864 0.94141,-0.0801 z m 101.15039,7.79102 3.01367,0.48828 c 1.65747,0.26862 5.71367,0.92626 9.01367,1.46094 3.3,0.53467 10.275,1.25657 15.5,1.60351 5.225,0.34694 11.50488,1.06197 13.95508,1.58985 2.45019,0.52788 9.87519,1.16089 16.5,1.40625 6.6248,0.24537 13.95742,0.70097 16.29492,1.01172 4.63763,0.61653 4.92691,1.25905 3.3418,7.4414 -0.49355,1.925 -1.17481,4.7375 -1.51367,6.25 -0.45487,2.03034 -1.22104,2.75 -2.92969,2.75 -1.27285,0 -2.52116,-0.2067 -2.77344,-0.45898 -0.25227,-0.25228 -5.83912,-0.70211 -12.41601,-1 -11.58824,-0.52487 -56.67381,-4.46312 -57.23829,-5 -0.15366,-0.14617 -0.38487,-4.15327 -0.51367,-8.9043 l -0.23437,-8.63867 z m -47.77149,48.82227 c 1.65721,-0.003 3.19683,0.002 4.56446,0.0195 3.647,0.0461 6.0768,0.16859 6.29492,0.38672 0.31283,0.31283 0.26426,2.19067 -0.10742,4.17187 l -0.67578,3.60156 -26.72071,0 c -14.69713,0 -27.02201,-0.29934 -27.38867,-0.66601 -1.44594,-1.44594 -0.66214,-5.33248 1.08203,-5.36328 0.9625,-0.017 4.9,-0.44094 8.75,-0.94141 5.19361,-0.67513 22.6007,-1.18468 34.20117,-1.20898 z m 46.98243,1.90039 c 3.278,0.0484 10.5664,0.55422 18.8164,1.33593 11,1.04228 25.175,2.12644 31.5,2.40821 19.43983,0.86602 20.02729,1.0978 18.36914,7.28515 -0.534,1.99261 -3.22695,3.0582 -4.5039,1.78125 -1.12773,-1.12773 -21.66887,-3.53048 -30.10743,-3.52148 -5.09112,0.005 -15.68373,-0.53963 -23.53906,-1.21289 l -14.2832,-1.22461 0.63867,-3.03516 c 0.35078,-1.66972 0.9267,-3.33684 1.28125,-3.70508 0.0886,-0.092 0.73546,-0.12744 1.82813,-0.11132 z m 3.95507,98.27929 c 16.85446,0 18.36306,0.14082 16.92579,1.57813 -6.5773,6.57728 -4.62482,20.72259 3.39648,24.60742 2.90532,1.40708 2.82108,1.44588 -5.75586,2.71484 -4.78769,0.70833 -13.43008,1.89216 -19.20508,2.63086 -5.775,0.73869 -12.30696,1.98959 -14.51562,2.7793 l -4.01563,1.43555 1.61328,-15.62305 c 0.88736,-8.59265 1.93814,-16.63555 2.33399,-17.87305 0.71217,-2.2263 0.91319,-2.25 19.22265,-2.25 z"
       style="fill:url(#linearGradient4706)" />
    <path
       id="path6025"
       d="m 408.50391,451.33398 c -9.43779,0.78266 -15.13858,7.43357 -14.25586,16.63477 0.2458,2.56217 2.51514,12.74283 5.04297,22.62305 2.52784,9.88021 4.39923,18.16131 4.1582,18.40234 -0.24104,0.24104 -22.15575,0.48622 -48.70117,0.54492 -43.97039,0.0972 -48.55161,0.26136 -51.48633,1.85742 -8.08788,4.39861 -10.85749,15.47194 -5.75,22.98829 5.03089,7.40362 3.62128,7.21037 53.9707,7.40429 24.75,0.0953 48.83081,0.21036 53.51172,0.25586 l 8.50977,0.082 3.38086,10.97657 c 1.85959,6.03712 4.41627,12.49815 5.67968,14.35742 6.51605,9.58923 22.91074,8.57782 27.79493,-1.71485 2.26258,-4.76802 2.0273,-10.50129 -0.75977,-18.47851 l -2.38477,-6.82227 29.63477,-0.75 c 43.80192,-1.10649 49.27863,-1.14198 49.78516,-0.32226 0.25356,0.41034 -1.41071,5.12991 -3.69922,10.48633 -3.51625,8.23 -4.09615,10.53028 -3.73828,14.8457 0.49472,5.96574 3.26356,10.39878 8.0039,12.8164 4.58276,2.33725 13.40424,1.72411 17.53711,-1.21875 3.68189,-2.62174 7.83432,-10.8843 13.66211,-27.17578 l 4.11523,-11.5 36.98243,-0.5 c 36.74193,-0.49673 37.00627,-0.51452 40.25,-2.82812 4.30902,-3.07343 6.46484,-7.46745 6.46484,-13.17188 0,-5.91204 -2.25134,-10.26248 -6.97266,-13.4707 l -3.72265,-2.5293 -32.61914,0 -32.61914,0 2.72656,-9.25 c 1.49974,-5.0875 3.45546,-10.6 4.3457,-12.25 3.48741,-6.46364 1.22987,-16.51211 -4.65039,-20.69922 -4.18584,-2.98059 -12.28894,-3.57286 -17.17578,-1.2539 -7.16903,3.40193 -10.59155,10.67035 -17.16211,36.45312 -0.91107,3.575 -1.98929,6.87269 -2.39648,7.32813 -0.40719,0.45544 -9.00677,0.96773 -19.11133,1.13672 -10.10456,0.16898 -31.95936,0.65462 -48.56445,1.08008 l -30.18946,0.77343 -0.64258,-2.9082 c -0.35289,-1.59989 -1.09786,-4.26016 -1.65625,-5.91016 -0.5584,-1.65 -2.97426,-10.81772 -5.36718,-20.37304 -2.7566,-11.00751 -5.25257,-18.73653 -6.8125,-21.09375 -3.34142,-5.04922 -8.49354,-7.37562 -15.11914,-6.82618 z"
       style="fill:url(#linearGradient4706)" />
    <path
       id="path6023"
       d="m 421.98242,239.89648 c -10.3455,0 -15.41806,5.93962 -16.42187,19.23047 -1.53011,20.25943 -6.67213,41.97772 -13.24219,55.91993 -4.49682,9.54262 -2.01555,19.44636 5.88281,23.4746 4.52276,2.30665 13.40422,1.72324 17.43164,-1.14453 3.15607,-2.24732 5.00165,-5.46667 10.75,-18.75 5.35208,-12.36765 10.14256,-36.26489 11.26953,-56.2207 0.61913,-10.96327 0.57252,-11.31467 -2.01367,-15.22266 -3.29212,-4.97473 -7.62546,-7.28711 -13.65625,-7.28711 z"
       style="fill:#000000" />
    <path
       id="path6021"
       d="m 537.41602,232.20117 c -5.62391,-0.47307 -11.43805,1.72144 -14.70313,6.29883 -1.76414,2.47318 -2.23047,4.50211 -2.23047,9.70508 0,5.70579 0.38092,7.07909 2.87696,10.35156 4.7094,6.17434 30.12348,25.6276 59.58007,45.60742 9.05129,6.13931 18.72629,13.07988 21.5,15.42383 2.7737,2.34394 9.26958,7.02403 14.43555,10.40039 8.41242,5.49817 9.92726,6.13867 14.51758,6.13867 3.83463,0 6.06342,-0.63541 8.84765,-2.52734 4.86388,-3.3051 6.74219,-7.1451 6.74219,-13.77539 0,-7.31052 -2.49616,-10.76017 -13.16601,-18.19727 -4.73444,-3.3 -11.24604,-8.07103 -14.47071,-10.60351 -3.22467,-2.53247 -11.71328,-8.5184 -18.86328,-13.30274 -20.07194,-13.43094 -40.94351,-29.05509 -55.74023,-41.72461 -2.64687,-2.26634 -5.95183,-3.51107 -9.32617,-3.79492 z"
       style="fill:#000000" />
    <path
       id="path6019"
       d="m 469.06836,82.142578 c -3.285,-0.137764 -6.60299,0.652605 -9.3418,2.513672 -8.0338,5.459108 -8.66817,11.46305 -3.77539,35.8125 1.75065,8.71227 2.95647,16.06697 2.67774,16.3457 -0.27874,0.27874 -5.82551,0.93188 -12.32618,1.45117 -6.50066,0.5193 -23.74531,2.98091 -38.32031,5.46876 -32.68482,5.57906 -47.47168,7.37356 -60.84765,7.38476 -11.7655,0.01 -15.82883,1.34367 -19.42188,6.38086 -1.75764,2.46407 -2.23047,4.5045 -2.23047,9.62695 0,7.49463 2.22686,11.63104 7.71875,14.33789 2.52696,1.24549 6.3864,1.62006 16.78125,1.63086 15.94066,0.0166 30.35572,-1.5654 58.11719,-6.37695 21.97582,-3.80879 39.38206,-6.13636 52.88281,-7.07227 4.675,-0.32408 14.125,-1.04688 21,-1.60742 14.5911,-1.18967 75.2882,-1.50059 92,-0.4707 15.01615,0.92539 21.38167,2.19992 25.72656,5.14844 3.5382,2.40104 6.082,2.9349 11.75782,2.46679 10.97277,-0.90498 16.76821,-13.29577 11.57226,-24.74023 -5.69889,-12.55223 -24.56699,-15.74572 -93.30664,-15.79102 l -38.75,-0.0254 0,-3.30273 c 6e-5,-1.81643 -0.64549,-6.31643 -1.43554,-10 -0.79005,-3.68358 -2.41191,-11.64594 -3.60352,-17.69531 -1.19161,-6.04937 -2.79991,-12.223352 -3.57422,-13.720707 -2.44457,-4.727282 -7.82578,-7.536017 -13.30078,-7.765625 z"
       style="fill:#000000" />
  </g>
</svg>
