<?xml version="1.0" encoding="UTF-8" standalone="no"?>
<svg
   xmlns:osb="http://www.openswatchbook.org/uri/2009/osb"
   xmlns:dc="http://purl.org/dc/elements/1.1/"
   xmlns:cc="http://creativecommons.org/ns#"
   xmlns:rdf="http://www.w3.org/1999/02/22-rdf-syntax-ns#"
   xmlns:svg="http://www.w3.org/2000/svg"
   xmlns="http://www.w3.org/2000/svg"
   xmlns:xlink="http://www.w3.org/1999/xlink"
   version="1.1"
   id="svg2985"
   height="897.82495"
   width="576.46783">
  <defs
     id="defs5498">
    <linearGradient
       osb:paint="solid"
       id="linearGradient4756">
      <stop
         id="stop4758"
         offset="0"
         style="stop-color:#ffffff;stop-opacity:1;" />
    </linearGradient>
    <linearGradient
       osb:paint="solid"
       id="linearGradient4750">
      <stop
         id="stop4752"
         offset="0"
         style="stop-color:#000000;stop-opacity:1;" />
    </linearGradient>
    <linearGradient
       osb:paint="solid"
       id="linearGradient5694">
      <stop
         id="stop5696"
         offset="0"
         style="stop-color:#002b11;stop-opacity:1;" />
    </linearGradient>
    <linearGradient
       osb:paint="solid"
       id="linearGradient4712">
      <stop
         id="stop4714"
         offset="0"
         style="stop-color:#162d50;stop-opacity:1;" />
    </linearGradient>
    <linearGradient
       osb:paint="solid"
       id="linearGradient4706">
      <stop
         id="stop4708"
         offset="0"
         style="stop-color:#d40000;stop-opacity:1;" />
    </linearGradient>
    <linearGradient
       gradientUnits="userSpaceOnUse"
       y2="508.69208"
       x2="761.44257"
       y1="508.69208"
       x1="262.13925"
       id="linearGradient4716"
       xlink:href="#linearGradient4712" />
    <linearGradient
       gradientUnits="userSpaceOnUse"
       y2="500.0004"
       x2="771.30902"
       y1="500.0004"
       x1="228.69211"
       id="linearGradient4754"
       xlink:href="#linearGradient4750" />
    <linearGradient
       gradientUnits="userSpaceOnUse"
       y2="500.10483"
       x2="752.40271"
       y1="500.10483"
       x1="248.61133"
       id="linearGradient4760"
       xlink:href="#linearGradient4756" />
    <linearGradient
       y2="508.69208"
       x2="761.44257"
       y1="508.69208"
       x1="262.13925"
       gradientUnits="userSpaceOnUse"
       id="linearGradient501"
       xlink:href="#linearGradient4712" />
    <linearGradient
       y2="508.69208"
       x2="761.44257"
       y1="508.69208"
       x1="262.13925"
       gradientUnits="userSpaceOnUse"
       id="linearGradient503"
       xlink:href="#linearGradient4712" />
    <linearGradient
       y2="508.69208"
       x2="761.44257"
       y1="508.69208"
       x1="262.13925"
       gradientUnits="userSpaceOnUse"
       id="linearGradient505"
       xlink:href="#linearGradient4712" />
  </defs>
  <metadata
     id="metadata5594">
    <rdf:RDF>
      <cc:Work
         rdf:about="">
        <dc:format>image/svg+xml</dc:format>
        <dc:type
           rdf:resource="http://purl.org/dc/dcmitype/StillImage" />
        <dc:title />
      </cc:Work>
    </rdf:RDF>
  </metadata>
  <g
     transform="translate(-211.76632,-51.087447)"
     style="display:inline"
     id="layer23">
    <path
       id="path4962"
       d="m 588.875,69.380859 c -19.54315,-0.106555 -37.48783,-0.08908 -51.82422,0.03516 -14.33639,0.124233 -25.06449,0.355221 -30.17578,0.675781 -9.35,0.58642 -28.22729,1.485044 -41.94922,1.996094 -6.8145,0.253797 -12.43662,0.501561 -17.25,0.785156 -4.81338,0.283594 -8.81709,0.603257 -12.39453,1.001953 -3.57744,0.398696 -6.72925,0.875506 -9.83594,1.474609 -3.10669,0.599104 -6.16919,1.320263 -9.57031,2.205079 -4.95,1.287769 -10.8,2.647284 -13,3.021484 -2.16709,0.368607 -6.84835,1.741721 -12.86914,3.697266 -6.02079,1.955544 -13.38145,4.493847 -20.90625,7.193359 -7.5248,2.699512 -15.21347,5.559646 -21.89258,8.160156 -6.6791,2.600504 -12.34831,4.941074 -15.83203,6.599604 -2.38482,1.13537 -4.74048,2.37185 -7.05078,3.69532 -2.3103,1.32346 -4.57477,2.73314 -6.77539,4.21289 -2.20062,1.47974 -4.33876,3.03054 -6.39453,4.63476 -2.05578,1.60422 -4.03049,3.2621 -5.90625,4.95899 -1.87576,1.69688 -3.65192,3.43171 -5.3125,5.18945 -1.66058,1.75774 -3.20501,3.53938 -4.61524,5.32617 -1.41023,1.78679 -2.68583,3.57925 -3.81054,5.36328 -1.12472,1.78403 -2.09831,3.55914 -2.90235,5.3086 -0.67263,1.46355 -1.66636,4.33359 -2.72656,7.77734 -1.0602,3.44375 -2.18687,7.46121 -3.12305,11.22266 -0.7495,3.01144 -1.34494,5.52955 -1.83008,7.90039 -0.48513,2.37083 -0.86052,4.59355 -1.16992,7.01953 -0.61879,4.85195 -0.97419,10.51079 -1.42187,19.75781 -0.49942,10.31553 -0.86743,17.05603 -1.48047,25.22266 -0.61304,8.16662 -1.4711,17.75937 -2.94922,33.77734 -0.81206,8.8 -1.74736,20.275 -2.07813,25.5 l -0.60156,9.5 3.08399,1.70898 c 0.84779,0.46989 1.74126,1.21172 2.49804,2.02735 0.75679,0.81562 1.3769,1.70504 1.67774,2.47265 0.43509,1.11019 0.67655,2.9488 0.74805,5.23829 0.0715,2.28948 -0.026,5.02889 -0.27149,7.94336 -0.24545,2.91446 -0.63854,6.00314 -1.1543,8.98828 -0.51575,2.98513 -1.15511,5.86764 -1.89453,8.36914 -0.71101,2.40542 -1.464,5.68984 -2.10547,9.04297 -0.64146,3.35312 -1.1714,6.77495 -1.43359,9.45703 -0.52437,5.36416 -1.59509,12.90195 -2.37891,16.75195 -0.78382,3.85 -1.72724,11.45814 -2.0957,16.90625 -0.22908,3.38736 -0.67576,6.82025 -1.36719,10.43945 -0.69142,3.61921 -1.62759,7.42474 -2.83593,11.56055 -1.24731,4.26922 -2.19718,8.1388 -2.91407,11.95508 -0.71689,3.81628 -1.20079,7.57925 -1.51758,11.63867 -0.63047,8.07913 -2.54612,24.66006 -4.58007,40.5957 -2.03395,15.93564 -4.18621,31.22599 -5.28907,36.72461 -1.01272,5.04917 -3.52191,15.92969 -5.57617,24.17969 l -3.73633,15 -0.79101,55 c -0.21766,15.125 -0.52385,29.60703 -0.8418,40.75391 -0.31795,11.14687 -0.64766,18.95859 -0.91211,20.74609 -0.52888,3.575 -1.68992,13.7 -2.58203,22.5 -0.87937,8.67433 -1.66217,15.71574 -2.40234,21.56836 -0.74017,5.85261 -1.43773,10.51643 -2.15039,14.43164 -0.45241,2.4854 -0.75209,5.42803 -0.90625,8.64258 -0.15416,3.21454 -0.16369,6.70026 -0.0332,10.27148 0.13049,3.57123 0.40121,7.22776 0.80274,10.78321 0.40153,3.55544 0.93477,7.01053 1.59375,10.17773 1.33741,6.42787 2.31991,12.35627 3.16211,19.625 0.8422,7.26873 1.54411,15.8778 2.31836,27.66992 0.22786,3.47053 0.65377,7.74647 1.2207,12.44922 0.56693,4.70275 1.27423,9.83275 2.06445,15.00977 0.79023,5.17702 1.66474,10.40159 2.5625,15.29492 0.89777,4.89332 1.81944,9.45497 2.70899,13.30664 0.4331,1.87533 1.06896,3.98859 1.82812,6.15625 0.75917,2.16766 1.64199,4.38944 2.56446,6.48047 0.92246,2.09102 1.88557,4.05183 2.80859,5.69726 0.92302,1.64543 1.80559,2.97577 2.56641,3.80664 0.54683,0.59719 1.34641,1.24063 2.36328,1.91602 1.01687,0.67539 2.25186,1.38184 3.66406,2.10742 2.8244,1.45117 6.36476,2.97511 10.32226,4.45899 3.95751,1.48387 8.33125,2.92822 12.82422,4.2207 4.49297,1.29247 9.10436,2.43357 13.53516,3.31055 7.82465,1.54872 17.66513,3.2384 27.94141,4.82617 10.27627,1.58776 20.98835,3.0736 30.55859,4.21289 9.35,1.11307 19.925,2.45937 23.5,2.99023 3.575,0.53086 13.925,1.70073 23,2.59961 6.83363,0.67688 14.60996,1.58696 22.58203,2.61719 7.97208,1.03023 16.14056,2.18074 23.75977,3.33789 7.61921,1.15715 14.68786,2.32129 20.46289,3.37891 5.77503,1.05761 10.25578,2.00859 12.69531,2.74023 4.95,1.48456 11.7,3.25798 15,3.93945 1.91272,0.39499 4.35746,0.65068 7.22461,0.77149 2.86715,0.12081 6.15613,0.10744 9.75977,-0.0371 3.60363,-0.14455 7.52236,-0.42117 11.64453,-0.82227 4.12216,-0.40109 8.44835,-0.92735 12.87109,-1.57617 6.15492,-0.90292 13.09989,-1.64516 24.7832,-2.52734 11.68332,-0.88219 28.10499,-1.90432 53.2168,-3.36328 4.8125,-0.2796 10.03125,-0.70683 14.5625,-1.16993 4.53125,-0.46309 8.375,-0.96207 10.4375,-1.38476 4.125,-0.84539 13.34438,-2.64985 20.48828,-4.00977 4.5168,-0.85982 8.16653,-1.59357 11.44531,-2.36914 3.27879,-0.77557 6.18643,-1.59271 9.22266,-2.62109 3.03623,-1.02838 6.2011,-2.26846 9.99023,-3.88672 3.78914,-1.61826 8.20274,-3.61494 13.74024,-6.16016 1.17987,-0.54231 2.36657,-1.194 3.54883,-1.94336 1.18226,-0.74935 2.35971,-1.597 3.52343,-2.52929 2.32744,-1.86459 4.59689,-4.06982 6.72461,-6.52149 2.12772,-2.45166 4.11441,-5.14827 5.875,-7.99414 1.76059,-2.84587 3.29544,-5.84148 4.52149,-8.88867 1.86692,-4.63994 3.5049,-9.47793 4.96875,-14.81445 1.46384,-5.33652 2.75294,-11.17065 3.91992,-17.8086 1.16698,-6.63794 2.21312,-14.07882 3.18945,-22.62304 0.97634,-8.54422 1.88349,-18.19271 2.77539,-29.24805 1.1315,-14.025 2.62045,-30.45 3.31055,-36.5 0.23178,-2.03197 0.42724,-5.48126 0.58984,-10.74805 0.16261,-5.26678 0.29232,-12.3517 0.39454,-21.65234 0.20443,-18.60128 0.2969,-46.06868 0.3125,-85.59961 0.0155,-39.30041 0.10846,-66.71404 0.31054,-85.2207 0.10105,-9.25333 0.22883,-16.28073 0.38867,-21.45313 0.15985,-5.1724 0.35138,-8.4897 0.57813,-10.32617 0.6791,-5.5 1.66711,-17.875 2.19531,-27.5 1.258,-22.92681 2.03872,-36.39281 2.80469,-46.51172 0.76597,-10.1189 1.5172,-16.89071 2.7168,-26.42969 1.414,-11.24297 3.20441,-24.65995 3.97851,-29.8164 0.2713,-1.80736 0.50413,-4.52918 0.70703,-8.63477 0.20291,-4.10558 0.37521,-9.59414 0.5293,-16.93359 0.30819,-14.67891 0.53903,-36.76199 0.76953,-69.99024 0.149,-21.48027 0.26632,-37.72298 0.41797,-50.60742 0.15165,-12.88443 0.33711,-22.41093 0.62695,-30.45898 0.28985,-8.04806 0.68251,-14.61676 1.2461,-21.58789 0.56358,-6.97114 1.29861,-14.34438 2.27148,-23.99805 0.46318,-4.59596 0.65933,-9.84407 0.62891,-15.25586 -0.0304,-5.41179 -0.28659,-10.98659 -0.72852,-16.23828 -0.44193,-5.25169 -1.07044,-10.17925 -1.8418,-14.29492 -0.38567,-2.05784 -0.80712,-3.91307 -1.25976,-5.50391 -0.45264,-1.59084 -0.93596,-2.91806 -1.44531,-3.91992 -1.09538,-2.15454 -2.69622,-4.7253 -4.55274,-7.40625 -1.85652,-2.680947 -3.96875,-5.471352 -6.08984,-8.07031 -2.12109,-2.598959 -4.24959,-5.005494 -6.13867,-6.914063 -1.88909,-1.908568 -3.53872,-3.319907 -4.69922,-3.929687 -1.55883,-0.819078 -4.2515,-1.696637 -7.61328,-2.552735 -3.36178,-0.856097 -7.39339,-1.691386 -11.62891,-2.423828 -4.23552,-0.732442 -8.67541,-1.362434 -12.85547,-1.810546 -4.18005,-0.448113 -8.09954,-0.71369 -11.29492,-0.716797 -3.335,-0.003 -10.5625,-0.709983 -16.0625,-1.570313 -7.93293,-1.240887 -13.65332,-2.158461 -18.83203,-2.84375 -5.17872,-0.685289 -9.81614,-1.138553 -15.58594,-1.447266 -5.7698,-0.308712 -12.67077,-0.472827 -22.37695,-0.583984 -9.70619,-0.111157 -22.21721,-0.169096 -39.20508,-0.261719 z"
       style="color:#000000;clip-rule:nonzero;display:inline;overflow:visible;visibility:visible;opacity:1;isolation:auto;mix-blend-mode:normal;color-interpolation:sRGB;color-interpolation-filters:linearRGB;solid-color:#000000;solid-opacity:1;fill:url(#linearGradient4756);fill-opacity:1;fill-rule:nonzero;stroke:none;stroke-width:1;stroke-linecap:butt;stroke-linejoin:miter;stroke-miterlimit:4;stroke-dasharray:none;stroke-dashoffset:0;stroke-opacity:1;color-rendering:auto;image-rendering:auto;shape-rendering:auto;text-rendering:auto;enable-background:accumulate" />
    <path
       id="path4960"
       d="m 581.875,51.089844 c -18.71368,0.0043 -36.35541,0.112867 -49.71289,0.285156 -13.35748,0.172289 -22.43072,0.408341 -24.00391,0.666016 -1.57203,0.257495 -5.67656,0.557872 -11.02343,0.833984 -5.34688,0.276112 -11.9361,0.527958 -18.47657,0.689453 -8.20588,0.20262 -15.89132,0.499919 -22.98242,0.886719 -7.0911,0.386799 -13.58828,0.863014 -19.41797,1.419922 -5.82969,0.556907 -10.99242,1.19526 -15.41406,1.908203 -4.42164,0.712943 -8.10179,1.500561 -10.96875,2.355469 -3.3,0.98403 -8.025,2.091557 -10.5,2.460937 -1.54672,0.23084 -4.61132,1.043591 -8.67969,2.265625 -4.06836,1.222034 -9.14036,2.853772 -14.69922,4.720703 -11.1177,3.733863 -24.18537,8.410805 -35.07812,12.646485 -6.98039,2.714345 -13.13505,5.333235 -18.65039,7.974609 -2.75767,1.320687 -5.35498,2.64728 -7.81641,3.994141 -2.46143,1.346861 -4.78618,2.714542 -6.99805,4.117187 -2.21186,1.402646 -4.31132,2.840087 -6.32031,4.328127 -2.00898,1.48804 -3.92847,3.02586 -5.78125,4.6289 -1.85278,1.60305 -3.63956,3.27187 -5.38281,5.01954 -1.74325,1.74766 -3.44264,3.5742 -5.12305,5.49609 -1.91998,2.19589 -3.69683,4.41301 -5.33984,6.68359 -1.64301,2.27058 -3.15316,4.59555 -4.54102,7.00782 -1.38785,2.41226 -2.65213,4.9103 -3.80664,7.53125 -1.1545,2.62094 -2.19765,5.36314 -3.14062,8.25976 -0.94298,2.89662 -1.78581,5.94821 -2.53906,9.1875 -0.75326,3.23929 -1.41662,6.66745 -2.00196,10.31641 -0.58534,3.64896 -1.09396,7.5189 -1.5332,11.64453 -0.43924,4.12563 -0.81004,8.50649 -1.125,13.17578 -1.44868,21.47682 -3.54163,48.42615 -7.53516,97 -1.76178,21.42881 -2.63753,31.79034 -2.70703,37.32813 -0.0348,2.76889 0.1314,4.33182 0.49024,5.46874 0.35884,1.13693 0.9098,1.84857 1.64257,2.91407 0.61464,0.89371 1.0786,1.59129 1.41602,2.25976 0.33742,0.66848 0.54877,1.30865 0.6543,2.08594 0.21104,1.55459 0.003,3.66007 -0.44141,7.6543 -0.50749,4.55958 -1.38725,10.21649 -1.95508,12.57226 -0.56783,2.35577 -1.47864,9.74008 -2.02343,16.40821 -0.35893,4.39314 -0.85084,8.23983 -1.57422,12.0625 -0.72339,3.82266 -1.67824,7.6213 -2.96289,11.91796 -1.39448,4.66404 -2.32947,8.33467 -3.00586,12.14063 -0.6764,3.80596 -1.09421,7.74723 -1.45508,12.95313 -0.50461,7.2794 -1.37922,16.60937 -1.94141,20.73437 -0.56219,4.125 -2.15588,16.35898 -3.54297,27.1875 -1.36483,10.65478 -2.54425,18.58393 -3.99414,26.17383 -1.44988,7.58989 -3.17022,14.84052 -5.61719,24.13867 l -3.1582,12 -0.73437,53 c -0.34636,25.00585 -0.5732,38.64358 -1.08008,49.27344 -0.25344,5.31492 -0.5766,9.87828 -1.01953,14.73437 -0.44294,4.85609 -1.00627,10.00482 -1.73828,16.49219 -1.70665,15.125 -3.90232,32.675 -4.88086,39 -0.67653,4.37288 -1.16846,9.27166 -1.48047,14.36914 -0.31201,5.09748 -0.44503,10.39344 -0.39844,15.55859 0.0466,5.16516 0.27261,10.19947 0.67188,14.7754 0.39926,4.57592 0.97272,8.69366 1.71875,12.02343 0.6961,3.10694 1.28773,6.0164 1.80468,8.97071 0.51696,2.9543 0.95951,5.95394 1.35547,9.23828 0.79192,6.56868 1.39975,14.27962 2.05664,25.06445 0.21731,3.56771 0.6098,7.85474 1.13281,12.53516 0.52302,4.68041 1.17642,9.75424 1.91211,14.89648 1.47139,10.28449 3.27522,20.84175 5.03907,29.06836 0.81501,3.80124 1.84247,7.55481 3.02148,11.12891 1.17901,3.5741 2.50917,6.96903 3.93164,10.05468 1.42248,3.08566 2.93701,5.86135 4.48242,8.19727 1.54542,2.33592 3.1221,4.23176 4.66993,5.55664 0.98335,0.84171 2.21227,1.72112 3.64453,2.62109 1.43226,0.89998 3.06769,1.82019 4.86523,2.7461 3.59509,1.85181 7.83805,3.72288 12.39258,5.48437 4.55452,1.7615 9.42061,3.41369 14.26562,4.82617 4.84502,1.41249 9.66821,2.58585 14.13477,3.39063 9.89652,1.78314 20.74148,3.61276 29.93945,5.07617 9.19797,1.46341 16.74894,2.56059 20.06055,2.87891 3.85,0.37007 14.89108,1.74939 24.53711,3.0664 9.64603,1.31701 22.69603,2.86692 29,3.44336 7.10526,0.64972 10.61412,0.96827 16.15039,1.66016 5.53627,0.69189 13.09994,1.75713 28.3125,3.89648 6.875,0.96684 13.96875,2.08521 19.85938,3.10938 5.89062,1.02416 10.57812,1.95411 12.64062,2.54101 4.125,1.17379 10.425,2.96443 14,3.98047 1.21051,0.34404 2.77731,0.63375 4.63672,0.86914 1.85941,0.2354 4.01049,0.41717 6.39453,0.54688 4.76809,0.25942 10.46292,0.30968 16.58398,0.16406 6.12107,-0.14562 12.6685,-0.48857 19.14844,-1.01562 6.47994,-0.52706 12.8916,-1.23818 18.73633,-2.12305 5.26572,-0.79722 10.6093,-1.443 15.52734,-1.89258 4.91805,-0.44957 9.41056,-0.70294 12.97266,-0.71289 3.1625,-0.009 7.50078,-0.18241 11.94141,-0.45508 4.44062,-0.27266 8.98359,-0.64444 12.55859,-1.04883 7.15,-0.80877 17.275,-1.49223 22.5,-1.51953 2.32962,-0.0122 4.22814,-0.0427 6.12891,-0.15234 1.90076,-0.10962 3.80381,-0.29804 6.14257,-0.62695 4.67753,-0.65783 11.09787,-1.87639 22.72852,-4.14258 9.4669,-1.84459 16.17068,-3.32451 21.89648,-4.94531 2.86291,-0.81041 5.48058,-1.6555 8.07813,-2.59961 2.59755,-0.94412 5.17432,-1.98714 7.95312,-3.19141 4.27588,-1.85306 7.75988,-3.40024 10.68165,-4.77148 2.92176,-1.37125 5.28094,-2.56679 7.30468,-3.71485 2.02375,-1.14806 3.71312,-2.24814 5.29492,-3.43164 1.58181,-1.18349 3.0564,-2.45018 4.65235,-3.92773 2.70382,-2.50327 5.18732,-5.08975 7.47461,-7.83985 2.28729,-2.75009 4.3792,-5.66291 6.29883,-8.82422 1.91963,-3.16131 3.66673,-6.56972 5.26757,-10.30664 1.60085,-3.73691 3.05384,-7.80238 4.38477,-12.27929 1.33093,-4.47692 2.5405,-9.3648 3.65039,-14.7461 1.10989,-5.38129 2.12086,-11.25696 3.05859,-17.70703 0.93773,-6.45007 1.8008,-13.47497 2.61524,-21.1582 0.81444,-7.68324 1.58029,-16.02468 2.32031,-25.10547 1.35145,-16.58357 2.35582,-28.73564 3.0918,-38.77148 0.73598,-10.03585 1.20365,-17.95593 1.48437,-26.07618 0.28073,-8.12024 0.3737,-16.44056 0.35938,-27.27734 -0.0143,-10.83678 -0.13601,-24.18955 -0.28516,-42.375 -0.309,-37.675 -0.83683,-74.35 -1.17383,-81.5 -0.14485,-3.0734 -0.22954,-5.84967 -0.22461,-8.95898 0.005,-3.10932 0.0995,-6.5509 0.31641,-10.95899 0.43374,-8.81618 1.35346,-21.49357 3.00781,-43.08203 0.7586,-9.9 1.63838,-24.3 1.95508,-32 0.43015,-10.45679 1.0198,-19.79727 1.9375,-29.85352 0.9177,-10.05624 2.16344,-20.82825 3.90234,-34.14648 0.9167,-7.02116 1.63552,-13.18395 2.21485,-20.05859 0.57932,-6.87465 1.02001,-14.46188 1.375,-24.32813 0.35498,-9.86625 0.62546,-22.01183 0.86914,-38.00781 0.24367,-15.99598 0.45968,-35.84165 0.70508,-61.10547 0.24,-24.70444 0.49242,-41.84695 0.83008,-53.99219 0.16882,-6.07262 0.3602,-10.89659 0.58007,-14.79101 0.21988,-3.89443 0.46914,-6.85951 0.75782,-9.2168 0.4209,-3.4375 0.86249,-9.65625 1.23632,-16.90625 0.37384,-7.25 0.67993,-15.53125 0.82618,-23.09375 0.1464,-7.57114 0.20258,-13.80788 0.13085,-19.08398 -0.0717,-5.27611 -0.27224,-9.59156 -0.63476,-13.32032 -0.36253,-3.72875 -0.88729,-6.87169 -1.61328,-9.80078 -0.72599,-2.92909 -1.65233,-5.64437 -2.81446,-8.52148 -0.61084,-1.51235 -1.64777,-3.493286 -2.9746,-5.74219 -1.32684,-2.248904 -2.94313,-4.766069 -4.71094,-7.349609 -1.76781,-2.58354 -3.68731,-5.233745 -5.6211,-7.75 -1.93378,-2.516256 -3.88228,-4.898263 -5.70703,-6.945313 -0.9485,-1.064061 -2.04632,-2.090583 -3.27929,-3.076172 -1.23297,-0.985588 -2.60039,-1.931076 -4.08985,-2.828125 -1.48945,-0.897049 -3.1004,-1.746479 -4.81836,-2.544922 -1.71795,-0.798442 -3.54442,-1.544606 -5.46289,-2.234375 -3.83692,-1.379537 -8.04653,-2.531575 -12.51758,-3.416015 -4.47104,-0.88444 -9.20271,-1.50174 -14.08398,-1.810547 -6.8226,-0.431625 -13.87885,-1.027511 -20.57617,-1.726563 -6.69733,-0.699052 -13.03573,-1.50127 -18.42383,-2.34375 -7.3217,-1.144827 -12.74127,-1.999945 -17.85938,-2.638671 -5.1181,-0.638727 -9.93497,-1.061305 -16.05078,-1.339844 -6.1158,-0.278539 -13.5309,-0.4123 -23.8457,-0.476563 -10.31479,-0.06426 -23.52907,-0.05879 -41.24414,-0.05469 z m 7,18.291015 c 16.98787,0.09262 29.49889,0.150562 39.20508,0.261719 9.70618,0.111157 16.60715,0.275272 22.37695,0.583984 5.7698,0.308713 10.40722,0.761977 15.58594,1.447266 5.17871,0.685289 10.8991,1.602863 18.83203,2.84375 5.5,0.86033 12.7275,1.567313 16.0625,1.570313 3.19538,0.0031 7.11487,0.268684 11.29492,0.716797 4.18006,0.448112 8.61995,1.078104 12.85547,1.810546 4.23552,0.732442 8.26713,1.567731 11.62891,2.423828 3.36178,0.856098 6.05445,1.733657 7.61328,2.552735 1.1605,0.60978 2.81013,2.021119 4.69922,3.929687 1.88908,1.908569 4.01758,4.315104 6.13867,6.914063 2.12109,2.598958 4.23332,5.389363 6.08984,8.070313 1.85652,2.68095 3.45736,5.25171 4.55274,7.40625 0.50935,1.00186 0.99267,2.32908 1.44531,3.91992 0.45264,1.59084 0.87409,3.44607 1.25976,5.50391 0.77136,4.11567 1.39987,9.04323 1.8418,14.29492 0.44193,5.25169 0.6981,10.82649 0.72852,16.23828 0.0304,5.41179 -0.16573,10.6599 -0.62891,15.25586 -0.97287,9.65367 -1.7079,17.02691 -2.27148,23.99805 -0.56359,6.97113 -0.95625,13.53983 -1.2461,21.58789 -0.28984,8.04805 -0.4753,17.57455 -0.62695,30.45898 -0.15165,12.88444 -0.26897,29.12715 -0.41797,50.60742 -0.2305,33.22825 -0.46134,55.31133 -0.76953,69.99024 -0.15409,7.33945 -0.32639,12.82801 -0.5293,16.93359 -0.2029,4.10559 -0.43573,6.82741 -0.70703,8.63477 -0.7741,5.15645 -2.56451,18.57343 -3.97851,29.8164 -1.1996,9.53898 -1.95083,16.31079 -2.7168,26.42969 -0.76597,10.11891 -1.54669,23.58491 -2.80469,46.51172 -0.5282,9.625 -1.51621,22 -2.19531,27.5 -0.22675,1.83647 -0.41828,5.15377 -0.57813,10.32617 -0.15984,5.1724 -0.28762,12.1998 -0.38867,21.45313 -0.20208,18.50666 -0.29504,45.92029 -0.31054,85.2207 -0.0156,39.53093 -0.10807,66.99833 -0.3125,85.59961 -0.10222,9.30064 -0.23193,16.38556 -0.39454,21.65234 -0.1626,5.26679 -0.35806,8.71608 -0.58984,10.74805 -0.6901,6.05 -2.17905,22.475 -3.31055,36.5 -0.8919,11.05534 -1.79905,20.70383 -2.77539,29.24805 -0.97633,8.54422 -2.02247,15.9851 -3.18945,22.62304 -1.16698,6.63795 -2.45608,12.47208 -3.91992,17.8086 -1.46385,5.33652 -3.10183,10.17451 -4.96875,14.81445 -1.22605,3.04719 -2.7609,6.0428 -4.52149,8.88867 -1.76059,2.84587 -3.74728,5.54248 -5.875,7.99414 -2.12772,2.45167 -4.39717,4.6569 -6.72461,6.52149 -1.16372,0.93229 -2.34117,1.77994 -3.52343,2.52929 -1.18226,0.74936 -2.36896,1.40105 -3.54883,1.94336 -5.5375,2.54522 -9.9511,4.5419 -13.74024,6.16016 -3.78913,1.61826 -6.954,2.85834 -9.99023,3.88672 -3.03623,1.02838 -5.94387,1.84552 -9.22266,2.62109 -3.27878,0.77557 -6.92851,1.50932 -11.44531,2.36914 -7.1439,1.35992 -16.36328,3.16438 -20.48828,4.00977 -2.0625,0.42269 -5.90625,0.92167 -10.4375,1.38476 -4.53125,0.4631 -9.75,0.89033 -14.5625,1.16993 -25.11181,1.45896 -41.53348,2.48109 -53.2168,3.36328 -11.68331,0.88218 -18.62828,1.62442 -24.7832,2.52734 -4.42274,0.64882 -8.74893,1.17508 -12.87109,1.57617 -4.12217,0.4011 -8.0409,0.67772 -11.64453,0.82227 -3.60364,0.14455 -6.89262,0.15792 -9.75977,0.0371 -2.86715,-0.12081 -5.31189,-0.3765 -7.22461,-0.77149 -3.3,-0.68147 -10.05,-2.45489 -15,-3.93945 -2.43953,-0.73164 -6.92028,-1.68262 -12.69531,-2.74023 -5.77503,-1.05762 -12.84368,-2.22176 -20.46289,-3.37891 -7.61921,-1.15715 -15.78769,-2.30766 -23.75977,-3.33789 -7.97207,-1.03023 -15.7484,-1.94031 -22.58203,-2.61719 -9.075,-0.89888 -19.425,-2.06875 -23,-2.59961 -3.575,-0.53086 -14.15,-1.87716 -23.5,-2.99023 -9.57024,-1.13929 -20.28232,-2.62513 -30.55859,-4.21289 -10.27628,-1.58777 -20.11676,-3.27745 -27.94141,-4.82617 -4.4308,-0.87698 -9.04219,-2.01808 -13.53516,-3.31055 -4.49297,-1.29248 -8.86671,-2.73683 -12.82422,-4.2207 -3.9575,-1.48388 -7.49786,-3.00782 -10.32226,-4.45899 -1.4122,-0.72558 -2.64719,-1.43203 -3.66406,-2.10742 -1.01687,-0.67539 -1.81645,-1.31883 -2.36328,-1.91602 -0.76082,-0.83087 -1.64339,-2.16121 -2.56641,-3.80664 -0.92302,-1.64543 -1.88613,-3.60624 -2.80859,-5.69726 -0.92247,-2.09103 -1.80529,-4.31281 -2.56446,-6.48047 -0.75916,-2.16766 -1.39502,-4.28092 -1.82812,-6.15625 -0.88955,-3.85167 -1.81122,-8.41332 -2.70899,-13.30664 -0.89776,-4.89333 -1.77227,-10.1179 -2.5625,-15.29492 -0.79022,-5.17702 -1.49752,-10.30702 -2.06445,-15.00977 -0.56693,-4.70275 -0.99284,-8.97869 -1.2207,-12.44922 -0.77425,-11.79212 -1.47616,-20.40119 -2.31836,-27.66992 -0.8422,-7.26873 -1.8247,-13.19713 -3.16211,-19.625 -0.65898,-3.1672 -1.19222,-6.62229 -1.59375,-10.17773 -0.40153,-3.55545 -0.67225,-7.21198 -0.80274,-10.78321 -0.13048,-3.57122 -0.12095,-7.05694 0.0332,-10.27148 0.15416,-3.21455 0.45384,-6.15718 0.90625,-8.64258 0.71266,-3.91521 1.41022,-8.57903 2.15039,-14.43164 0.74017,-5.85262 1.52297,-12.89403 2.40234,-21.56836 0.89211,-8.8 2.05315,-18.925 2.58203,-22.5 0.26445,-1.7875 0.59416,-9.59922 0.91211,-20.74609 0.31795,-11.14688 0.62414,-25.62891 0.8418,-40.75391 l 0.79101,-55 3.73633,-15 c 2.05426,-8.25 4.56345,-19.13052 5.57617,-24.17969 1.10286,-5.49862 3.25512,-20.78897 5.28907,-36.72461 2.03395,-15.93564 3.9496,-32.51657 4.58007,-40.5957 0.31679,-4.05942 0.80069,-7.82239 1.51758,-11.63867 0.71689,-3.81628 1.66676,-7.68586 2.91407,-11.95508 1.20834,-4.13581 2.14451,-7.94134 2.83593,-11.56055 0.69143,-3.6192 1.13811,-7.05209 1.36719,-10.43945 0.36846,-5.44811 1.31188,-13.05625 2.0957,-16.90625 0.78382,-3.85 1.85454,-11.38779 2.37891,-16.75195 0.26219,-2.68208 0.79213,-6.10391 1.43359,-9.45703 0.64147,-3.35313 1.39446,-6.63755 2.10547,-9.04297 0.73942,-2.5015 1.37878,-5.38401 1.89453,-8.36914 0.51576,-2.98514 0.90885,-6.07382 1.1543,-8.98828 0.24546,-2.91447 0.34298,-5.65388 0.27149,-7.94336 -0.0715,-2.28949 -0.31296,-4.1281 -0.74805,-5.23829 -0.30084,-0.76761 -0.92095,-1.65703 -1.67774,-2.47265 -0.75678,-0.81563 -1.65025,-1.55746 -2.49804,-2.02735 l -3.08399,-1.70898 0.60156,-9.5 c 0.33077,-5.225 1.26607,-16.7 2.07813,-25.5 1.47812,-16.01797 2.33618,-25.61072 2.94922,-33.77734 0.61304,-8.16663 0.98105,-14.90713 1.48047,-25.22266 0.44768,-9.24702 0.80308,-14.90586 1.42187,-19.75781 0.3094,-2.42598 0.68479,-4.6487 1.16992,-7.01953 0.48514,-2.37084 1.08058,-4.88895 1.83008,-7.90039 0.93618,-3.76145 2.06285,-7.77891 3.12305,-11.22266 1.0602,-3.44375 2.05393,-6.31379 2.72656,-7.77734 0.80404,-1.74946 1.77763,-3.52457 2.90235,-5.3086 1.12471,-1.78403 2.40031,-3.57649 3.81054,-5.36328 1.41023,-1.78679 2.95466,-3.56843 4.61524,-5.32617 1.66058,-1.75774 3.43674,-3.49257 5.3125,-5.18945 1.87576,-1.69689 3.85047,-3.35477 5.90625,-4.95899 2.05577,-1.60422 4.19391,-3.15502 6.39453,-4.63476 2.20062,-1.47975 4.46509,-2.88943 6.77539,-4.21289 2.3103,-1.32347 4.66596,-2.55995 7.05078,-3.69532 3.48372,-1.65853 9.15293,-3.9991 15.83203,-6.599607 6.67911,-2.60051 14.36778,-5.460644 21.89258,-8.160156 7.5248,-2.699512 14.88546,-5.237815 20.90625,-7.193359 6.02079,-1.955545 10.70205,-3.328659 12.86914,-3.697266 2.2,-0.3742 8.05,-1.733715 13,-3.021484 3.40112,-0.884816 6.46362,-1.605975 9.57031,-2.205079 3.10669,-0.599103 6.2585,-1.075913 9.83594,-1.474609 3.57744,-0.398696 7.58115,-0.718359 12.39453,-1.001953 4.81338,-0.283595 10.4355,-0.531359 17.25,-0.785156 13.72193,-0.51105 32.59922,-1.409674 41.94922,-1.996094 5.11129,-0.32056 15.83939,-0.551548 30.17578,-0.675781 14.33639,-0.124234 32.28107,-0.141712 51.82422,-0.03516 z"
       style="color:#000000;clip-rule:nonzero;display:inline;overflow:visible;visibility:visible;opacity:1;isolation:auto;mix-blend-mode:normal;color-interpolation:sRGB;color-interpolation-filters:linearRGB;solid-color:#000000;solid-opacity:1;fill:url(#linearGradient4750);fill-opacity:1;fill-rule:nonzero;stroke:none;stroke-width:1;stroke-linecap:butt;stroke-linejoin:miter;stroke-miterlimit:4;stroke-dasharray:none;stroke-dashoffset:0;stroke-opacity:1;color-rendering:auto;image-rendering:auto;shape-rendering:auto;text-rendering:auto;enable-background:accumulate" />
    <path
       id="path4954"
       d="m 412.375,312.86328 c -5.94795,0 -10.37395,2.30931 -13.42773,7.00781 l -2.41993,3.72266 -0.45507,46.5 c -0.25007,25.575 -0.77443,47.46674 -1.16602,48.64844 -0.62883,1.89763 -1.89769,2.28387 -10.87109,3.30859 -10.52769,1.20221 -43.61432,7.5786 -56.72461,10.93164 -16.81403,4.30031 -31.92136,11.6036 -36.54688,17.66797 -5.76307,7.55577 -3.966,19.0489 3.78125,24.17578 6.71187,4.44171 18.42716,2.89858 24.87305,-3.27539 1.399,-1.33999 5.73651,-3.5224 9.63867,-4.84961 9.63613,-3.27746 45.03617,-10.72734 57.56836,-12.11523 l 5.75,-0.63672 -0.0195,2.82226 c -0.0101,1.55208 -0.70335,7.54727 -1.54102,13.32227 -3.07289,21.18487 -5.66408,71.86568 -6.15234,120.31836 -0.44131,43.79517 -0.33719,47.70057 1.61328,60.5 4.18942,27.4919 4.1902,27.49054 1.78711,29.18164 -5.93491,4.17652 -25.81462,22.13475 -38.74414,35 -43.89183,43.67366 -55.46797,62.69311 -46.06055,75.67969 2.6882,3.71094 5.79102,5.64336 10.61719,6.60937 4.56944,0.91463 11.57965,-1.45374 14.62109,-4.9375 0.88946,-1.01881 3.01426,-4.81395 4.72071,-8.43554 2.39548,-5.08391 6.8342,-10.66803 19.47656,-24.5 9.00596,-9.85341 21.73051,-23.09835 28.27734,-29.4336 13.05668,-12.63472 29.10619,-25.98242 31.24219,-25.98242 2.98554,0 8.47021,-3.50576 10.50586,-6.71484 1.32697,-2.09147 8.30371,-7.67084 18.15625,-14.52344 8.8,-6.12055 19.48073,-13.70244 23.73633,-16.84766 4.25559,-3.14522 13.66836,-9.25018 20.91601,-13.5664 15.74207,-9.37494 18.84766,-12.81012 18.84766,-20.84961 0,-3.74854 -0.62868,-6.12561 -2.25,-8.50782 -3.82707,-5.62313 -7.16158,-7.45707 -13.55273,-7.45507 -5.38823,10e-4 -6.5152,0.48842 -20.69727,8.94531 -8.25,4.91955 -18.6,11.67408 -23,15.00976 -4.4,3.33567 -11.54413,8.46285 -15.875,11.39454 -8.35314,5.65448 -9.57843,5.652 -9.61133,-0.0273 -0.008,-1.45367 -0.73151,-6.10827 -1.60742,-10.34375 -1.355,-6.55205 -1.52445,-13.84097 -1.13477,-48.85742 0.4836,-43.45709 2.40851,-81.02791 5.72071,-111.65625 4.25011,-39.30147 6.02067,-73.44197 6.01367,-116.01758 l -0.006,-40.51758 -2.5293,-3.72265 c -3.20822,-4.72132 -7.55866,-6.97266 -13.4707,-6.97266 z"
       style="fill:#000000" />
    <path
       id="path4952"
       d="m 539.15039,239.07031 c -5.46975,0.30849 -10.82967,3.30206 -13.42578,8.30274 -2.20814,4.25244 -2.21246,14.18311 -0.008,18.42968 3.50285,6.74718 3.86773,16.95265 4.09375,114.79102 0.14606,63.22377 0.65154,102.99909 1.48242,116.5 0.88645,14.40374 1.30989,59.01049 1.42383,150 l 0.16211,129.5 2.1914,4.09766 c 2.25878,4.22606 5.71336,7.0819 10.21875,8.44726 6.59043,1.99723 10.2121,0.8106 37.58594,-12.3125 23.67274,-11.34878 33.19937,-15.50397 48,-20.9375 6.05,-2.22104 11.47143,-4.41423 12.04883,-4.87305 2.3182,-1.84196 19.93034,-7.94872 32.68164,-11.33203 11.3164,-3.00257 15.19965,-3.58984 23.74805,-3.58984 11.6278,0 15.70601,-1.34716 19.29101,-6.37305 3.1796,-4.45756 3.1796,-14.79634 0,-19.2539 -3.823,-5.35959 -7.4125,-6.37305 -22.56641,-6.37305 -12.5036,0 -14.65715,0.29873 -29.34765,4.05859 -8.7201,2.23176 -19.68047,5.63486 -24.35547,7.5625 -4.675,1.92765 -13.9,5.54576 -20.5,8.04102 -6.6,2.49526 -14.7,5.78856 -18,7.31836 -3.3,1.52981 -10.05,4.51136 -15,6.625 -4.95,2.11364 -11.475,5.12686 -14.5,6.69726 -3.025,1.5704 -6.4,3.21566 -7.5,3.65625 -1.99336,0.79839 -1.99957,0.41895 -1.91797,-114.1289 l 0.082,-114.93164 5.52539,-5.69922 c 6.05904,-6.24993 13.68822,-15.62833 27.01953,-33.21094 4.79038,-6.31802 12.3111,-16.21328 16.7129,-21.98828 4.40179,-5.775 10.15819,-13.54797 12.79101,-17.27344 2.63281,-3.72546 10.08729,-14.30046 16.56641,-23.5 6.4791,-9.19953 12.83028,-17.62656 14.11328,-18.72656 8.5793,-7.35514 7.94371,-21.02311 -1.24219,-26.71094 -4.5262,-2.80255 -12.29442,-2.77554 -17.85742,0.0625 -5.41152,2.76074 -9.69838,8.22894 -31.46485,40.14844 -3.93807,5.775 -9.73029,13.65 -12.87109,17.5 -3.1408,3.85 -8.54599,11.05 -12.01172,16 -3.46573,4.95 -8.35825,11.52205 -10.87304,14.60352 -2.5148,3.08147 -5.56064,6.90647 -6.76758,8.5 l -2.19336,2.89648 -0.12891,-2.5 c -0.071,-1.375 -0.2441,-45.25 -0.38476,-97.5 -0.18491,-68.68621 -0.59066,-96.89863 -1.46289,-101.85352 -3.23438,-18.37365 -5.54503,-23.81465 -11.96875,-28.17968 -2.78686,-1.89372 -6.10878,-2.67533 -9.39063,-2.49024 z"
       style="fill:#000000" />
  </g>
</svg>
