<?xml version="1.0" encoding="UTF-8" standalone="no"?>
<svg
   xmlns:osb="http://www.openswatchbook.org/uri/2009/osb"
   xmlns:dc="http://purl.org/dc/elements/1.1/"
   xmlns:cc="http://creativecommons.org/ns#"
   xmlns:rdf="http://www.w3.org/1999/02/22-rdf-syntax-ns#"
   xmlns:svg="http://www.w3.org/2000/svg"
   xmlns="http://www.w3.org/2000/svg"
   xmlns:xlink="http://www.w3.org/1999/xlink"
   version="1.1"
   id="svg2985"
   height="922.23254"
   width="593.59216">
  <defs
     id="defs5498">
    <linearGradient
       osb:paint="solid"
       id="linearGradient4756">
      <stop
         id="stop4758"
         offset="0"
         style="stop-color:#ffffff;stop-opacity:1;" />
    </linearGradient>
    <linearGradient
       osb:paint="solid"
       id="linearGradient4750">
      <stop
         id="stop4752"
         offset="0"
         style="stop-color:#000000;stop-opacity:1;" />
    </linearGradient>
    <linearGradient
       osb:paint="solid"
       id="linearGradient5694">
      <stop
         id="stop5696"
         offset="0"
         style="stop-color:#002b11;stop-opacity:1;" />
    </linearGradient>
    <linearGradient
       osb:paint="solid"
       id="linearGradient4712">
      <stop
         id="stop4714"
         offset="0"
         style="stop-color:#162d50;stop-opacity:1;" />
    </linearGradient>
    <linearGradient
       osb:paint="solid"
       id="linearGradient4706">
      <stop
         id="stop4708"
         offset="0"
         style="stop-color:#d40000;stop-opacity:1;" />
    </linearGradient>
    <linearGradient
       gradientUnits="userSpaceOnUse"
       y2="508.69208"
       x2="761.44257"
       y1="508.69208"
       x1="262.13925"
       id="linearGradient4716"
       xlink:href="#linearGradient4712" />
    <linearGradient
       gradientUnits="userSpaceOnUse"
       y2="500.0004"
       x2="771.30902"
       y1="500.0004"
       x1="228.69211"
       id="linearGradient4754"
       xlink:href="#linearGradient4750" />
    <linearGradient
       gradientUnits="userSpaceOnUse"
       y2="500.10483"
       x2="752.40271"
       y1="500.10483"
       x1="248.61133"
       id="linearGradient4760"
       xlink:href="#linearGradient4756" />
    <linearGradient
       y2="508.69208"
       x2="761.44257"
       y1="508.69208"
       x1="262.13925"
       gradientUnits="userSpaceOnUse"
       id="linearGradient501"
       xlink:href="#linearGradient4712" />
    <linearGradient
       y2="508.69208"
       x2="761.44257"
       y1="508.69208"
       x1="262.13925"
       gradientUnits="userSpaceOnUse"
       id="linearGradient503"
       xlink:href="#linearGradient4712" />
    <linearGradient
       y2="508.69208"
       x2="761.44257"
       y1="508.69208"
       x1="262.13925"
       gradientUnits="userSpaceOnUse"
       id="linearGradient505"
       xlink:href="#linearGradient4712" />
  </defs>
  <metadata
     id="metadata5594">
    <rdf:RDF>
      <cc:Work
         rdf:about="">
        <dc:format>image/svg+xml</dc:format>
        <dc:type
           rdf:resource="http://purl.org/dc/dcmitype/StillImage" />
        <dc:title />
      </cc:Work>
    </rdf:RDF>
  </metadata>
  <g
     transform="translate(-203.20371,-38.88463)"
     style="display:inline"
     id="layer8">
    <path
       id="path4734"
       d="m 589.23828,58.207031 c -22.00439,-0.0042 -44.34939,0.133813 -62.80664,0.416016 -9.22863,0.141101 -17.48629,0.318151 -24.24219,0.53125 -6.7559,0.213099 -12.01044,0.462687 -15.23633,0.748047 -8.94539,0.791303 -16.95774,1.564731 -24.15234,2.335937 -7.1946,0.771206 -13.57052,1.540866 -19.24805,2.324219 -5.67752,0.783354 -10.65662,1.580457 -15.05078,2.408203 -4.39416,0.827746 -8.20431,1.68546 -11.54883,2.589844 -14.76582,3.992807 -24.0123,6.518682 -30.41796,8.339844 -6.40567,1.821161 -9.97052,2.937607 -13.37696,4.111328 -3.74679,1.290996 -7.72326,2.842265 -11.80664,4.59375 -4.08338,1.751485 -8.27293,3.70398 -12.45117,5.794922 -4.17824,2.090942 -8.34362,4.321491 -12.375,6.630859 -4.03138,2.30937 -7.92948,4.69675 -11.57227,7.10352 -5.12033,3.38296 -9.50667,6.48827 -13.46289,9.6289 -1.9781,1.57032 -3.84969,3.14968 -5.65039,4.77735 -1.8007,1.62766 -3.53142,3.30276 -5.23046,5.0664 -3.39809,3.52729 -6.66733,7.40629 -10.11329,11.94922 -3.44595,4.54294 -7.06814,9.74992 -11.16797,15.9375 -3.49138,5.26932 -7.02966,10.80284 -9.91796,15.47461 -2.88831,4.67177 -5.12665,8.48179 -6.01758,10.30078 -1.00227,2.04629 -2.33467,5.39613 -3.83594,9.54102 -1.50126,4.14489 -3.17079,9.08444 -4.8457,14.3125 -1.67491,5.22805 -3.35571,10.74521 -4.87891,16.04101 -1.5232,5.2958 -2.8894,10.37063 -3.93555,14.71875 -0.75372,3.13274 -1.32804,5.58102 -1.77734,7.95899 -0.4493,2.37797 -0.77281,4.68568 -1.02734,7.53515 -0.50907,5.69896 -0.73904,13.56715 -1.12696,28.50977 -0.22134,8.52606 -0.5417,17.34492 -0.88086,24.68555 -0.33916,7.34062 -0.69712,13.20301 -0.99023,15.81445 -0.58621,5.22288 -1.74706,16.24609 -2.57813,24.49609 -0.83106,8.25 -2.17687,21.525 -2.99218,29.5 -0.81531,7.975 -1.74599,18.1 -2.06836,22.5 -0.32238,4.4 -1.22351,12.5 -2.00196,18 -1.44231,10.19033 -2.38431,17.2685 -3.06445,23.38477 -0.68013,6.11627 -1.0984,11.27064 -1.49414,17.61523 -0.44597,7.15 -1.30116,17.95 -1.90039,24 -0.3379,3.41161 -0.53689,16.08133 -0.62109,33.38672 -0.0842,17.30539 -0.0529,39.2465 0.0664,61.20117 0.11927,21.95467 0.32712,43.92376 0.59961,61.28321 0.2725,17.35944 0.60888,30.10918 0.98438,33.6289 1.47062,13.78484 2.82792,24.65842 3.93164,31.5 1.63855,10.15676 3.88271,24.7706 4.53125,29.5 0.33939,2.475 2.64894,12.6 5.13086,22.5 2.48192,9.9 5.58568,23.85 6.89843,31 1.54498,8.41476 3.93871,20.08281 6.31055,30.99805 2.37184,10.91524 4.72179,21.07765 6.17969,26.48047 0.7829,2.90136 1.96021,6.21347 3.4668,9.81055 1.50658,3.59707 3.34266,7.47985 5.44336,11.52343 2.10069,4.04358 4.466,8.24741 7.03125,12.48828 2.56525,4.24088 5.33022,8.51808 8.23046,12.70703 4.20628,6.07534 7.69681,10.91989 10.82813,14.83985 1.56566,1.95998 3.04167,3.68842 4.47266,5.22461 1.43098,1.53618 2.81548,2.87926 4.20117,4.06836 1.38568,1.18909 2.7714,2.22387 4.20117,3.14258 1.42976,0.91871 2.90358,1.72224 4.4668,2.44726 1.56322,0.72503 3.2159,1.37243 5.00195,1.98047 1.78605,0.60804 3.70643,1.17638 5.80469,1.74414 3.73756,1.01134 10.82949,2.42831 17.86914,3.67773 7.03964,1.24943 14.027,2.33131 17.55468,2.67579 1.45583,0.38808 3.10207,0.75237 4.65821,1.1289 -0.11391,0.1529 -0.0386,0.28503 0.18945,0.37305 0.22809,0.088 0.60899,0.13193 1.10938,0.11133 0.22008,-0.009 0.23945,-0.0544 0.39257,-0.0762 1.22513,0.28547 2.29975,0.59235 3.58399,0.86718 3.88209,0.8308 8.03371,1.6083 12.45312,2.29883 4.41942,0.69053 9.34826,1.06913 14.58985,1.20508 5.24158,0.13595 10.79578,0.029 16.46679,-0.25586 2.79648,-0.14046 5.63525,-0.43189 8.46485,-0.65039 9.82655,-0.44165 20.15724,-1.05906 27.46679,-1.8457 3.98751,-0.42913 9.48255,-0.8409 15.125,-1.16016 5.64246,-0.31926 11.43232,-0.54601 16.00586,-0.60156 9.14709,-0.11111 16.29961,-0.42813 15.89454,-0.70313 -0.0606,-0.0411 -0.24682,-0.32327 -0.32032,-0.38867 3.68078,1.52318 7.47262,3.11431 12.67383,4.95313 3.41814,1.20843 7.10505,2.4333 10.97852,3.60937 3.87346,1.17607 7.93441,2.30259 12.10351,3.3125 4.1691,1.00991 8.44495,1.90333 12.75,2.61328 4.30505,0.70996 8.63861,1.23746 12.91992,1.51367 4.28131,0.27622 8.42419,0.45649 12.4336,0.55469 4.00941,0.0981 7.88666,0.11274 11.63281,0.0566 7.49229,-0.11221 14.46601,-0.50875 20.95703,-1.0957 6.49102,-0.58696 12.49784,-1.36453 18.05664,-2.23633 5.5588,-0.8718 10.6696,-1.83794 15.36524,-2.80469 4.69563,-0.96674 7.4926,-1.34639 9.44336,-1.54492 1.95075,-0.19853 3.05517,-0.21534 4.36718,-0.45703 1.31202,-0.24169 2.83193,-0.70846 5.61133,-1.80469 1.31549,-0.51884 4.24263,-1.79841 6.23438,-2.64258 l 6.0664,-0.82031 c 1.70506,-0.2306 4.49355,-0.84735 7.61133,-1.65625 3.11778,-0.8089 6.56485,-1.80996 9.58984,-2.80664 5.36941,-1.76911 10.10476,-3.56283 14.32227,-5.45703 2.10876,-0.9471 4.08858,-1.91862 5.95313,-2.92578 1.86454,-1.00716 3.61417,-2.0503 5.26367,-3.13672 1.6495,-1.08642 3.19847,-2.21746 4.66211,-3.40234 1.46363,-1.18488 2.8415,-2.42208 4.14843,-3.72461 1.30694,-1.30254 2.54325,-2.66999 3.72266,-4.10938 1.17941,-1.43938 2.30175,-2.95144 3.38281,-4.54687 2.19843,-3.24444 3.89335,-5.85484 5.27735,-8.58789 0.692,-1.36653 1.30616,-2.76513 1.86718,-4.28711 0.56103,-1.52198 1.06841,-3.16885 1.54688,-5.03516 0.95693,-3.73261 1.79762,-8.34086 2.71484,-14.58398 0.91722,-6.24312 1.91091,-14.1202 3.17578,-24.38477 2.0906,-16.96502 3.35969,-27.90682 4.28321,-38.0957 0.92351,-10.18889 1.50144,-19.62485 2.21289,-33.57813 0.5888,-11.55 1.5182,-25.43764 2.0664,-30.86328 0.5482,-5.42565 1.41062,-20.50065 1.91602,-33.5 0.35597,-9.15714 0.88111,-19.04341 1.53125,-29.12305 0.65014,-10.07963 1.42481,-20.35247 2.27734,-30.28515 0.85253,-9.93269 1.78297,-19.52394 2.7461,-28.24024 0.96313,-8.71629 1.95945,-16.55781 2.9414,-22.98828 0.7139,-4.675 1.47375,-10.61211 2.12305,-16.41211 0.6493,-5.8 1.18803,-11.46289 1.45899,-15.58789 0.5419,-8.25 1.39297,-21.3 1.89257,-29 0.4997,-7.7 1.61522,-19.4 2.47852,-26 0.8632,-6.6 2.03227,-17.85 2.59765,-25 0.5653,-7.15 1.6734,-18.4 2.4629,-25 1.44715,-12.09879 2.32429,-19.99622 3.03515,-28.54492 0.71087,-8.5487 1.25546,-17.74867 2.03711,-32.45508 0.5204,-9.79082 0.97045,-22.90844 1.32813,-37.35156 0.35767,-14.44312 0.62329,-30.21163 0.77734,-45.30078 0.15405,-15.08915 0.19593,-29.49962 0.10547,-41.22852 -0.0905,-11.72889 -0.31358,-20.77631 -0.68945,-25.13867 -0.45953,-5.33354 -0.8783,-9.6162 -1.50391,-13.80859 -0.62561,-4.19239 -1.45832,-8.29415 -2.74805,-13.26367 -1.28972,-4.96952 -3.03641,-10.80773 -5.48828,-18.47266 -2.45187,-7.66493 -5.60865,-17.15693 -9.7207,-29.43555 -6.24075,-18.63491 -9.52563,-28.38138 -12.85547,-37.0332 -1.66492,-4.32591 -3.3422,-8.37777 -5.4043,-13.13086 -2.06209,-4.75309 -4.50955,-10.20703 -7.71875,-17.33594 -2.50077,-5.555236 -4.39046,-9.746219 -5.93945,-13.033201 -1.54899,-3.286981 -2.75799,-5.670928 -3.89648,-7.613281 -1.1385,-1.942353 -2.20729,-3.441538 -3.47657,-4.96289 -1.26928,-1.521353 -2.73833,-3.063911 -4.67969,-5.087891 -2.25542,-2.351402 -4.16836,-4.216271 -6.04687,-5.732422 -1.87851,-1.516151 -3.72192,-2.683011 -5.83789,-3.642578 -2.11597,-0.959567 -4.50485,-1.710928 -7.47266,-2.392578 -2.9678,-0.681651 -6.5152,-1.294162 -10.94922,-1.976563 -1.8605,-0.286333 -5.92021,-0.538277 -11.65234,-0.753906 -5.73213,-0.215629 -13.1373,-0.394374 -21.68359,-0.539062 -17.09258,-0.289377 -38.75537,-0.437207 -60.75977,-0.441407 z"
       style="color:#000000;clip-rule:nonzero;display:inline;overflow:visible;visibility:visible;opacity:1;isolation:auto;mix-blend-mode:normal;color-interpolation:sRGB;color-interpolation-filters:linearRGB;solid-color:#000000;solid-opacity:1;fill:#ffffff;fill-opacity:1;fill-rule:nonzero;stroke:none;stroke-width:1;stroke-linecap:butt;stroke-linejoin:miter;stroke-miterlimit:4;stroke-dasharray:none;stroke-dashoffset:0;stroke-opacity:1;color-rendering:auto;image-rendering:auto;shape-rendering:auto;text-rendering:auto;enable-background:accumulate" />
    <path
       id="path4732"
       d="m 588.95312,38.882812 c -31.30708,0 -54.45553,0.09091 -71.01562,0.292969 -16.56009,0.202059 -26.53184,0.515265 -31.48438,0.957031 -7.69999,0.686842 -19.39998,1.740208 -26,2.341797 -6.6,0.601589 -16.05,1.928874 -21,2.949219 -4.94999,1.020346 -11.69999,2.154122 -15,2.519531 -1.73865,0.192521 -4.5577,0.748846 -8.1582,1.587891 -3.6005,0.839045 -7.98215,1.961046 -12.84375,3.283203 -9.7232,2.644315 -21.36814,6.091209 -32.53125,9.6875 -4.43634,1.429205 -8.90627,3.041697 -13.36523,4.8125 -4.45896,1.770804 -8.90728,3.700552 -13.30274,5.759766 -4.39545,2.059214 -8.73661,4.248532 -12.98242,6.542969 -4.24581,2.294436 -8.39621,4.693451 -12.40625,7.169921 -4.01004,2.476471 -7.88022,5.031403 -11.56836,7.636719 -3.68813,2.605316 -7.19451,5.260432 -10.47461,7.941402 -3.2801,2.68098 -6.33321,5.3864 -9.11914,8.08985 -2.78593,2.70344 -5.30413,5.4054 -7.50976,8.07812 -1.75413,2.1256 -4.30678,5.56899 -7.23633,9.69922 -2.92955,4.13023 -6.23653,8.94694 -9.4961,13.81836 -3.25956,4.87142 -6.47261,9.7973 -9.21679,14.14649 -2.74418,4.34918 -5.01895,8.12203 -6.40235,10.68554 -1.4091,2.61117 -3.14519,6.61107 -5.03515,11.47657 -1.88996,4.86549 -3.9338,10.59591 -5.95703,16.67187 -2.02323,6.07596 -4.02703,12.49768 -5.83594,18.74023 -1.80891,6.24255 -3.42292,12.30662 -4.66992,17.67188 -0.58068,2.49838 -1.04244,4.6593 -1.41992,6.83789 -0.37749,2.17859 -0.6715,4.37396 -0.91211,6.93945 -0.48124,5.13098 -0.75426,11.74334 -1.08594,22.66211 -0.40497,13.33128 -0.9661,25.91984 -1.63672,37.00586 -0.67062,11.08602 -1.45075,20.66949 -2.29492,27.99414 -1.07835,9.35644 -2.8515,26.65789 -5.53516,54 -1.49664,15.24845 -2.8123,26.42704 -6.00586,51 -0.78627,6.05 -1.66694,16.86988 -1.95703,24.04297 -0.29008,7.17309 -1.00547,16.62309 -1.58984,21 -0.26667,1.9973 -0.46414,4.00388 -0.58008,7.77149 -0.11594,3.7676 -0.15053,9.29596 -0.0937,18.33398 0.11356,18.07603 0.59476,50.19326 1.53125,110.35156 0.21195,13.61509 0.408,24.45319 0.64062,33.36524 0.23262,8.91205 0.50181,15.89803 0.85743,21.80664 0.35561,5.9086 0.79797,10.74095 1.3789,15.3457 0.58093,4.60475 1.30042,8.98193 2.20899,13.98242 0.49967,2.75 1.67983,10.4 2.62304,17 0.47161,3.3 1.56169,9.05625 2.93946,15.67188 1.37777,6.61562 3.04323,14.09062 4.66211,20.82812 3.23775,13.475 5.88576,25.625 5.88476,27 -0.001,1.375 1.085,7 2.41211,12.5 1.32712,5.5 3.58914,15.85 5.02734,23 0.89261,4.43754 1.78344,8.56467 2.70704,12.45703 0.92359,3.89237 1.8799,7.54904 2.90234,11.04688 1.02244,3.49784 2.11164,6.83782 3.30078,10.0918 1.18914,3.25397 2.47864,6.42322 3.90234,9.58398 1.42371,3.16076 2.98091,6.31306 4.70704,9.53125 1.72612,3.21819 3.6204,6.50145 5.71679,9.92773 4.19279,6.85258 9.19437,14.27247 15.27539,22.86133 3.3025,4.66446 6.32158,8.5965 9.26368,11.96289 1.47104,1.6832 2.92249,3.22582 4.38085,4.64649 1.45837,1.42066 2.92458,2.72046 4.42188,3.91992 1.4973,1.19945 3.02544,2.29879 4.61328,3.31836 1.58784,1.01957 3.23485,1.95883 4.96484,2.83984 3.45999,1.76202 7.25549,3.28842 11.59375,4.74414 1.77151,0.59444 5.03865,1.4039 9.34961,2.3418 4.31097,0.9379 9.66491,2.00327 15.60938,3.11523 11.88893,2.22393 26.13975,4.62754 39.12695,6.53125 3.83649,0.56237 8.69227,0.97265 14.21875,1.23243 5.52649,0.25977 11.72347,0.36878 18.2461,0.33007 6.52263,-0.0387 13.37039,-0.2255 20.19531,-0.55859 6.82491,-0.33309 13.6272,-0.81218 20.06054,-1.43555 5.73176,-0.55538 11.16271,-0.99399 16.13477,-1.3125 4.97206,-0.3185 9.48576,-0.51627 13.38281,-0.59179 3.89706,-0.0755 7.17685,-0.029 9.6836,0.14453 2.50674,0.17356 4.23988,0.47359 5.04101,0.90234 0.58078,0.31083 1.96154,0.68832 3.7168,1.04688 1.75526,0.35855 3.88503,0.69817 5.9668,0.93164 2.08177,0.23346 5.8082,0.9652 10.13476,1.95508 4.32656,0.98987 9.25326,2.23789 13.73633,3.50585 8.96613,2.53595 18.41685,4.96656 21.00195,5.40235 2.52894,0.42633 5.67211,0.66817 9.25,0.73828 3.5779,0.0701 7.59018,-0.0308 11.86133,-0.29492 4.27115,-0.26416 8.7995,-0.69113 13.4082,-1.26758 4.60871,-0.57645 9.29811,-1.30314 13.88868,-2.16992 7.03751,-1.32881 12.5178,-2.2495 18.72265,-3.06055 6.20485,-0.81104 13.13426,-1.51244 23.07031,-2.40234 7.00016,-0.62696 12.83355,-1.19914 17.875,-1.78321 5.04146,-0.58406 9.29171,-1.18098 13.12305,-1.85351 3.83134,-0.67253 7.24346,-1.42212 10.61328,-2.31445 3.36983,-0.89234 6.69662,-1.92644 10.35352,-3.16993 5.12287,-1.74197 9.5498,-3.37464 13.4668,-5.0039 3.91699,-1.62927 7.32395,-3.25608 10.41015,-4.98242 3.0862,-1.72635 5.84997,-3.55272 8.48047,-5.58594 2.6305,-2.03323 5.12784,-4.27236 7.67773,-6.82227 2.16538,-2.16537 4.235,-4.45478 6.18555,-6.83398 1.95055,-2.3792 3.78208,-4.84844 5.47071,-7.3711 1.68862,-2.52265 3.23367,-5.09956 4.61328,-7.69531 1.3796,-2.59575 2.59371,-5.21011 3.61718,-7.80859 0.51628,-1.31078 1.11257,-3.41746 1.73633,-6.0293 0.62376,-2.61184 1.2742,-5.72888 1.89649,-9.05859 1.24456,-6.65943 2.37799,-14.17137 2.96289,-20.20313 0.3466,-3.575 1.2753,-11.45 2.0625,-17.5 0.7873,-6.05 2.14753,-16.625 3.02343,-23.5 0.43795,-3.4375 0.93022,-8.8125 1.36914,-14.70312 0.43893,-5.89063 0.82449,-12.29688 1.05274,-17.79688 0.4566,-11 1.52741,-30.125 2.37891,-42.5 0.8515,-12.375 2.00831,-31.5 2.57031,-42.5 0.44147,-8.6417 1.03756,-18.0121 1.73828,-27.56836 0.70072,-9.55626 1.50644,-19.29917 2.36719,-28.6875 0.86074,-9.38832 1.77572,-18.42069 2.69726,-26.55859 0.92155,-8.1379 1.8493,-15.38056 2.73242,-21.18555 0.77005,-5.06152 1.55857,-11.89001 2.25977,-19.35156 0.7012,-7.46155 1.31507,-15.55615 1.73438,-23.14844 0.38729,-7.0125 1.02825,-15.62549 1.74804,-23.85351 0.71979,-8.22803 1.51841,-16.0711 2.22266,-21.54297 1.4084,-10.94375 2.56054,-22.5577 2.56054,-25.8086 0,-3.2509 0.42202,-8.92315 0.9375,-12.60351 1.5066,-10.75517 2.7825,-22.09061 3.83985,-34.30664 1.05735,-12.21604 1.89621,-25.31342 2.53125,-39.59375 0.63503,-14.28033 1.06502,-29.74335 1.30469,-46.69141 0.23966,-16.94806 0.28893,-35.38039 0.16015,-55.59961 -0.10912,-17.13423 -0.12205,-29.55903 -0.40429,-39.52343 -0.14113,-4.98221 -0.34998,-9.34965 -0.67188,-13.38282 -0.3219,-4.03317 -0.75722,-7.73249 -1.35156,-11.3789 -0.59435,-3.64642 -1.34624,-7.23861 -2.30469,-11.06055 -0.95845,-3.82194 -2.12288,-7.87384 -3.53711,-12.43359 -2.82846,-9.11951 -6.65978,-20.27626 -11.86133,-35.72071 -5.82855,-17.30623 -9.64928,-28.39581 -12.87109,-37.05859 -3.22181,-8.66278 -5.84469,-14.89876 -9.27734,-22.49414 -2.5968,-5.74586 -6.96248,-15.397267 -9.70118,-21.447268 -1.3694,-3.024999 -3.09773,-6.453199 -4.77929,-9.539062 -1.68156,-3.085863 -3.31635,-5.829391 -4.49805,-7.486328 -1.1958,-1.676708 -2.85388,-3.67942 -4.73633,-5.775391 -1.88245,-2.095971 -3.99003,-4.285801 -6.08008,-6.332031 -2.09004,-2.04623 -4.16384,-3.949076 -5.98242,-5.476562 -1.81857,-1.527487 -3.38117,-2.679013 -4.44922,-3.21875 -1.27737,-0.645537 -2.89623,-1.314768 -4.77148,-1.984376 -1.87526,-0.669607 -4.00596,-1.340497 -6.3086,-1.986328 -4.60526,-1.291662 -9.89573,-2.487016 -15.1875,-3.396484 -2.3954,-0.411687 -4.73325,-0.730182 -8.15429,-0.976562 -3.42104,-0.246381 -7.92563,-0.420305 -14.6543,-0.542969 C 651.68724,38.92264 629.333,38.882812 588.95317,38.882812 Z m 0.28516,19.324219 c 22.0044,0.0042 43.66719,0.15203 60.75977,0.441407 8.54629,0.144688 15.95146,0.323433 21.68359,0.539062 5.73213,0.215629 9.79184,0.467573 11.65234,0.753906 4.43402,0.682401 7.98142,1.294912 10.94922,1.976563 2.96781,0.68165 5.35669,1.433011 7.47266,2.392578 2.11597,0.959567 3.95938,2.126427 5.83789,3.642578 1.87851,1.516151 3.79145,3.38102 6.04687,5.732422 1.94136,2.02398 3.41041,3.566538 4.67969,5.087891 1.26928,1.521352 2.33807,3.020537 3.47657,4.96289 1.13849,1.942353 2.34749,4.3263 3.89648,7.613281 1.54899,3.286982 3.43868,7.477965 5.93945,13.033201 3.2092,7.12891 5.65666,12.58285 7.71875,17.33594 2.0621,4.75309 3.73938,8.80495 5.4043,13.13086 3.32984,8.65182 6.61472,18.39829 12.85547,37.0332 4.11205,12.27862 7.26883,21.77062 9.7207,29.43555 2.45187,7.66493 4.19856,13.50314 5.48828,18.47266 1.28973,4.96952 2.12244,9.07128 2.74805,13.26367 0.62561,4.19239 1.04438,8.47505 1.50391,13.80859 0.37587,4.36236 0.59899,13.40978 0.68945,25.13867 0.0905,11.7289 0.0486,26.13937 -0.10547,41.22852 -0.15405,15.08915 -0.41967,30.85766 -0.77734,45.30078 -0.35768,14.44312 -0.80773,27.56074 -1.32813,37.35156 -0.78165,14.70641 -1.32624,23.90638 -2.03711,32.45508 -0.71086,8.5487 -1.588,16.44613 -3.03515,28.54492 -0.7895,6.6 -1.8976,17.85 -2.4629,25 -0.56538,7.15 -1.73445,18.4 -2.59765,25 -0.8633,6.6 -1.97882,18.3 -2.47852,26 -0.4996,7.7 -1.35067,20.75 -1.89257,29 -0.27096,4.125 -0.80969,9.78789 -1.45899,15.58789 -0.6493,5.8 -1.40915,11.73711 -2.12305,16.41211 -0.98195,6.43047 -1.97827,14.27199 -2.9414,22.98828 -0.96313,8.7163 -1.89357,18.30755 -2.7461,28.24024 -0.85253,9.93268 -1.6272,20.20552 -2.27734,30.28515 -0.65014,10.07964 -1.17528,19.96591 -1.53125,29.12305 -0.5054,12.99935 -1.36782,28.07435 -1.91602,33.5 -0.5482,5.42564 -1.4776,19.31328 -2.0664,30.86328 -0.71145,13.95328 -1.28938,23.38924 -2.21289,33.57813 -0.92352,10.18888 -2.19261,21.13068 -4.28321,38.0957 -1.26487,10.26457 -2.25856,18.14165 -3.17578,24.38477 -0.91722,6.24312 -1.75791,10.85137 -2.71484,14.58398 -0.47847,1.86631 -0.98585,3.51318 -1.54688,5.03516 -0.56102,1.52198 -1.17518,2.92058 -1.86718,4.28711 -1.384,2.73305 -3.07892,5.34345 -5.27735,8.58789 -1.08106,1.59543 -2.2034,3.10749 -3.38281,4.54687 -1.17941,1.43939 -2.41572,2.80684 -3.72266,4.10938 -1.30693,1.30253 -2.6848,2.53973 -4.14843,3.72461 -1.46364,1.18488 -3.01261,2.31592 -4.66211,3.40234 -1.6495,1.08642 -3.39913,2.12956 -5.26367,3.13672 -1.86455,1.00716 -3.84437,1.97868 -5.95313,2.92578 -4.21751,1.8942 -8.95286,3.68792 -14.32227,5.45703 -3.02499,0.99668 -6.47206,1.99774 -9.58984,2.80664 -3.11778,0.8089 -5.90627,1.42565 -7.61133,1.65625 l -6.0664,0.82031 c -1.99175,0.84417 -4.91889,2.12374 -6.23438,2.64258 -2.7794,1.09623 -4.29931,1.563 -5.61133,1.80469 -1.31201,0.24169 -2.41643,0.2585 -4.36718,0.45703 -1.95076,0.19853 -4.74773,0.57818 -9.44336,1.54492 -4.69564,0.96675 -9.80644,1.93289 -15.36524,2.80469 -5.5588,0.8718 -11.56562,1.64937 -18.05664,2.23633 -6.49102,0.58695 -13.46474,0.98349 -20.95703,1.0957 -3.74615,0.0561 -7.6234,0.0415 -11.63281,-0.0566 -4.00941,-0.0982 -8.15229,-0.27847 -12.4336,-0.55469 -4.28131,-0.27621 -8.61487,-0.80371 -12.91992,-1.51367 -4.30505,-0.70995 -8.5809,-1.60337 -12.75,-2.61328 -4.1691,-1.00991 -8.23005,-2.13643 -12.10351,-3.3125 -3.87347,-1.17607 -7.56038,-2.40094 -10.97852,-3.60937 -5.20121,-1.83882 -8.99305,-3.42995 -12.67383,-4.95313 0.0735,0.0654 0.25974,0.34755 0.32032,0.38867 0.40507,0.275 -6.74745,0.59202 -15.89454,0.70313 -4.57354,0.0555 -10.3634,0.2823 -16.00586,0.60156 -5.64245,0.31926 -11.13749,0.73103 -15.125,1.16016 -7.30955,0.78664 -17.64024,1.40405 -27.46679,1.8457 -2.8296,0.2185 -5.66837,0.50993 -8.46485,0.65039 -5.67101,0.28485 -11.22521,0.39181 -16.46679,0.25586 -5.24159,-0.13595 -10.17043,-0.51455 -14.58985,-1.20508 -4.41941,-0.69053 -8.57103,-1.46803 -12.45312,-2.29883 -1.28424,-0.27483 -2.35886,-0.58171 -3.58399,-0.86718 -0.15312,0.0218 -0.17249,0.0671 -0.39257,0.0762 -0.50039,0.0206 -0.88129,-0.0233 -1.10938,-0.11133 -0.22809,-0.088 -0.30336,-0.22015 -0.18945,-0.37305 -1.55614,-0.37653 -3.20238,-0.74082 -4.65821,-1.1289 -3.52768,-0.34448 -10.51504,-1.42636 -17.55468,-2.67579 -7.03965,-1.24942 -14.13158,-2.66639 -17.86914,-3.67773 -2.09826,-0.56776 -4.01864,-1.1361 -5.80469,-1.74414 -1.78605,-0.60804 -3.43873,-1.25544 -5.00195,-1.98047 -1.56322,-0.72502 -3.03704,-1.52855 -4.4668,-2.44726 -1.42977,-0.91871 -2.81549,-1.95349 -4.20117,-3.14258 -1.38569,-1.1891 -2.77019,-2.53218 -4.20117,-4.06836 -1.43099,-1.53619 -2.907,-3.26463 -4.47266,-5.22461 -3.13132,-3.91996 -6.62185,-8.76451 -10.82813,-14.83985 -2.90024,-4.18895 -5.66521,-8.46615 -8.23046,-12.70703 -2.56525,-4.24087 -4.93056,-8.4447 -7.03125,-12.48828 -2.1007,-4.04358 -3.93678,-7.92636 -5.44336,-11.52343 -1.50659,-3.59708 -2.6839,-6.90919 -3.4668,-9.81055 -1.4579,-5.40282 -3.80785,-15.56523 -6.17969,-26.48047 -2.37184,-10.91524 -4.76557,-22.58329 -6.31055,-30.99805 -1.31275,-7.15 -4.41651,-21.1 -6.89843,-31 -2.48192,-9.9 -4.79147,-20.025 -5.13086,-22.5 -0.64854,-4.7294 -2.8927,-19.34324 -4.53125,-29.5 -1.10372,-6.84158 -2.46102,-17.71516 -3.93164,-31.5 -0.3755,-3.51972 -0.71188,-16.26946 -0.98438,-33.6289 -0.27249,-17.35945 -0.48034,-39.32854 -0.59961,-61.28321 -0.11926,-21.95467 -0.15061,-43.89578 -0.0664,-61.20117 0.0842,-17.30539 0.28319,-29.97511 0.62109,-33.38672 0.59923,-6.05 1.45442,-16.85 1.90039,-24 0.39574,-6.34459 0.81401,-11.49896 1.49414,-17.61523 0.68014,-6.11627 1.62214,-13.19444 3.06445,-23.38477 0.77845,-5.5 1.67958,-13.6 2.00196,-18 0.32237,-4.4 1.25305,-14.525 2.06836,-22.5 0.81531,-7.975 2.16112,-21.25 2.99218,-29.5 0.83107,-8.25 1.99192,-19.27321 2.57813,-24.49609 0.29311,-2.61144 0.65107,-8.47383 0.99023,-15.81445 0.33916,-7.34063 0.65952,-16.15949 0.88086,-24.68555 0.38792,-14.94262 0.61789,-22.81081 1.12696,-28.50977 0.25453,-2.84947 0.57804,-5.15718 1.02734,-7.53515 0.4493,-2.37797 1.02362,-4.82625 1.77734,-7.95899 1.04615,-4.34812 2.41235,-9.42295 3.93555,-14.71875 1.5232,-5.2958 3.204,-10.81296 4.87891,-16.04101 1.67491,-5.22806 3.34444,-10.16761 4.8457,-14.3125 1.50127,-4.14489 2.83367,-7.49473 3.83594,-9.54102 0.89093,-1.81899 3.12927,-5.62901 6.01758,-10.30078 2.8883,-4.67177 6.42658,-10.20529 9.91796,-15.47461 4.09983,-6.18758 7.72202,-11.39456 11.16797,-15.9375 3.44596,-4.54293 6.7152,-8.42193 10.11329,-11.94922 1.69904,-1.76364 3.42976,-3.43874 5.23046,-5.0664 1.8007,-1.62767 3.67229,-3.20703 5.65039,-4.77735 3.95622,-3.14063 8.34256,-6.24594 13.46289,-9.6289 3.64279,-2.40677 7.54089,-4.79415 11.57227,-7.10352 4.03138,-2.309368 8.19676,-4.539917 12.375,-6.630859 4.17824,-2.090942 8.36779,-4.043437 12.45117,-5.794922 4.08338,-1.751485 8.05985,-3.302754 11.80664,-4.59375 3.40644,-1.173721 6.97129,-2.290167 13.37696,-4.111328 6.40566,-1.821162 15.65214,-4.347037 30.41796,-8.339844 3.34452,-0.904384 7.15467,-1.762098 11.54883,-2.589844 4.39416,-0.827746 9.37326,-1.624849 15.05078,-2.408203 5.67753,-0.783353 12.05345,-1.553013 19.24805,-2.324219 7.1946,-0.771206 15.20695,-1.544634 24.15234,-2.335937 3.22589,-0.28536 8.48043,-0.534948 15.23633,-0.748047 6.7559,-0.213099 15.01356,-0.390149 24.24219,-0.53125 18.45725,-0.282203 40.80225,-0.420232 62.80664,-0.416016 z"
       style="color:#000000;clip-rule:nonzero;display:inline;overflow:visible;visibility:visible;opacity:1;isolation:auto;mix-blend-mode:normal;color-interpolation:sRGB;color-interpolation-filters:linearRGB;solid-color:#000000;solid-opacity:1;fill:#000000;fill-opacity:1;fill-rule:nonzero;stroke:none;stroke-width:1;stroke-linecap:butt;stroke-linejoin:miter;stroke-miterlimit:4;stroke-dasharray:none;stroke-dashoffset:0;stroke-opacity:1;color-rendering:auto;image-rendering:auto;shape-rendering:auto;text-rendering:auto;enable-background:accumulate" />
    <path
       id="path5376"
       d="m 557.94531,613.07227 c -6.37494,0.0556 -11.04004,1.30376 -16.45312,4.01953 -12.38045,6.21131 -18.14819,14.42797 -22.66602,32.29101 -1.85606,7.33864 -2.06294,10.13956 -1.51172,20.5 1.49552,28.10912 7.90313,40.93339 28.75196,57.54297 11.50452,9.16527 19.56768,13.5753 28.29687,15.47461 3.34899,0.72868 6.39958,1.3606 6.7793,1.4043 1.71827,0.19786 15.92175,-5.45538 21.64062,-8.61328 3.48226,-1.92287 9.49468,-6.47923 13.35938,-10.125 20.34474,-19.1922 31.82239,-41.34427 31.80469,-61.38086 -0.0104,-11.78728 -3.39985,-18.10299 -14.53907,-27.0918 -7.95205,-6.41693 -12.87497,-9.10987 -25.95508,-14.19531 -12.45131,-4.84099 -20.85435,-6.83951 -37.73046,-8.97266 -3.36841,-0.42577 -6.29981,-0.69826 -8.9336,-0.80469 -0.98767,-0.0399 -1.93304,-0.0568 -2.84375,-0.0488 z m -0.67383,16.31054 c 4.43732,0 12.57615,4.20134 18.5586,9.58008 2.704,2.43113 5.52534,4.40401 6.26953,4.38281 0.74419,-0.0212 2.25455,-1.48369 3.35742,-3.25 2.97482,-4.76439 7.89277,-6.94632 13.99609,-6.21093 14.30863,1.72404 21.87812,12.4774 17,24.15234 -1.8278,4.37456 -1.90543,6.34666 -0.25,6.34766 1.86109,10e-4 13.54536,5.69408 16.59571,8.08593 6.02939,4.72777 6.68738,10.09728 1.90429,15.54492 -4.40629,5.01856 -10.39928,7.46354 -19.8789,8.11329 l -7.8711,0.54101 0,4.88086 c 0,6.14484 -3.13588,15.19684 -6.85742,19.79492 -1.5709,1.94089 -4.83364,4.52712 -7.25,5.74805 -6.52926,3.29911 -13.42836,3.79788 -18.68359,1.34961 -3.50045,-1.63077 -4.72718,-2.97221 -6.65234,-7.2793 -1.2981,-2.90419 -2.66256,-7.86875 -3.03125,-11.03125 l -0.66993,-5.75 -8.96093,0 c -10.29581,0 -14.29058,-1.30358 -18.19141,-5.93945 -4.11238,-4.88728 -3.71333,-9.28472 1.29687,-14.29492 2.20002,-2.2 3.98234,-4.28499 3.96094,-4.63282 -0.0214,-0.34778 -2.01852,-2.08832 -4.4375,-3.86718 -5.48945,-4.03684 -9.31579,-8.97744 -10.13867,-13.0918 -0.54824,-2.74124 -0.11658,-3.67637 3.25391,-7.04687 3.10997,-3.10996 5.08069,-4.12059 9.87304,-5.06446 8.75292,-1.72392 8.63261,-1.65015 7.8125,-4.78906 -0.39832,-1.52458 -0.68858,-4.54875 -0.64648,-6.71875 0.0981,-5.05053 4.64184,-9.55469 9.64062,-9.55469 z"
       style="fill:url(#linearGradient4706)" />
    <path
       id="path5293"
       d="m 578.35742,588.42773 c -14.75402,-0.12484 -30.05826,3.45085 -44.32812,10.6543 -6.95812,3.51248 -13.54765,7.70743 -16.85742,10.73242 -9.88241,9.03197 -20.45779,25.11234 -23.0625,35.06836 -4.32795,16.54263 -4.84003,48.54139 -1.12891,70.60352 1.79923,10.69619 6.68458,26.47234 10.58984,34.19726 2.84224,5.62217 9.41995,13.51339 14.47852,17.3711 l 4.90625,3.74219 -7.59375,2.68164 c -8.51475,3.00542 -18.88692,9.6856 -27.79297,17.90429 -5.4537,5.03278 -15.62111,19.13828 -17.54883,24.34571 -0.71397,1.92869 -0.87527,1.78772 -1.54101,-1.34571 -3.21668,-15.14011 -17.47386,-33.35609 -35.33985,-45.15039 -12.07494,-7.97132 -18.40637,-10.18168 -33.82031,-11.81054 -24.66828,-2.60686 -48.25573,2.59466 -66.10547,14.57812 -11.72964,7.87472 -12.82013,8.84677 -20.44141,18.21289 -11.80034,14.50195 -14.17794,19.96698 -17.32812,39.82813 -1.74544,11.00459 -1.73978,11.33072 0.39062,23.83203 2.26372,13.28362 4.08014,18.45693 10.53516,30.00976 5.52245,9.88377 9.59451,14.63175 19.91406,23.22071 8.54618,7.11299 28.38986,18.27929 32.48438,18.27929 0.83529,0 1.27585,0.24368 0.97851,0.54102 -0.11715,0.11715 -1.8725,-0.10592 -3.16797,-0.23242 1.45583,0.38808 3.10207,0.75237 4.65821,1.1289 0.0121,-0.0163 -0.0305,-0.0242 -0.0137,-0.041 0.33229,-0.33225 1.19613,-0.367 1.91796,-0.0781 0.64702,0.25891 0.44449,0.4336 -0.21289,0.52735 1.22513,0.28547 2.29975,0.59235 3.58399,0.86718 3.88209,0.8308 8.03371,1.6083 12.45312,2.29883 4.41942,0.69053 9.34826,1.06913 14.58985,1.20508 5.24158,0.13595 10.79578,0.029 16.46679,-0.25586 2.79648,-0.14046 5.63525,-0.43189 8.46485,-0.65039 -14.36994,0.64585 -27.53317,0.84512 -27.53321,0.0664 1e-5,-0.5174 4.64027,-1.76375 10.3125,-2.77149 11.16585,-1.98373 15.88289,-3.75279 28.1875,-10.5664 15.68021,-8.68284 26.77752,-23.13714 29.60938,-38.56836 1.07019,-5.83161 4.67029,-14.47071 6.03125,-14.47071 0.37564,0 0.97791,1.9125 1.33789,4.25 1.40238,9.10608 5.98397,22.71589 11.03906,32.79492 4.57728,9.12633 12.89139,22.5235 15.1875,24.56641 3.68078,1.52318 7.47262,3.11431 12.67383,4.95313 3.41814,1.20843 7.10505,2.4333 10.97852,3.60937 3.87346,1.17607 7.93441,2.30259 12.10351,3.3125 4.1691,1.00991 8.44495,1.90333 12.75,2.61328 4.30505,0.70996 8.63861,1.23746 12.91992,1.51367 4.28131,0.27622 8.42419,0.45651 12.4336,0.55469 4.00941,0.0982 7.88666,0.11275 11.63281,0.0566 7.49229,-0.11221 14.46601,-0.50875 20.95703,-1.0957 6.49102,-0.58696 12.49784,-1.36453 18.05664,-2.23633 5.5588,-0.8718 10.6696,-1.83794 15.36524,-2.80469 4.69563,-0.96674 7.4926,-1.34639 9.44336,-1.54492 1.95075,-0.19853 3.05517,-0.21534 4.36718,-0.45703 1.31202,-0.24169 2.83193,-0.70846 5.61133,-1.80469 1.31549,-0.51884 4.24263,-1.79841 6.23438,-2.64258 l -0.13282,0.0176 5.82032,-6.57812 c 12.30468,-13.90287 16.50457,-24.11576 16.48047,-40.07813 -0.0231,-15.26677 -5.55023,-29.66351 -19.19141,-49.98242 -16.40499,-24.43566 -40.38459,-45.11386 -64.41406,-55.54883 l -4.70508,-2.04297 4.89258,-4.21289 c 3.75766,-3.23678 7.16482,-4.94165 14.70312,-7.34961 12.29729,-3.92812 15.84234,-5.70448 25.81445,-12.9414 9.67742,-7.02305 13.59,-11.00548 20.9043,-21.27539 8.68152,-12.18962 10.6248,-17.38545 13.10156,-35.0293 1.14154,-8.13214 1.25196,-12.27661 0.47071,-17.78516 -1.16023,-8.18066 -5.30886,-22.52362 -8.1211,-28.08203 -1.88557,-3.72686 -3.64372,-5.2457 -2.43945,-2.10742 0.50965,1.32813 0.35662,1.41434 -0.79687,0.45703 -1.20345,-0.99877 -1.18745,-0.37092 0.0996,4.01953 1.88427,6.42787 1.27932,23.45001 -1.1504,32.38086 -4.1452,15.23641 -14.81077,32.29432 -29.74023,47.56446 -10.83082,11.07798 -18.81463,16.64581 -30.84375,21.50585 -3.56613,1.4408 -7.16628,3.22498 -7.99805,3.96485 -1.80061,1.60166 -13.35026,3.6259 -15.78125,2.76562 -0.93808,-0.33197 -2.38003,-1.15348 -3.20508,-1.82421 -0.825,-0.67075 -3.97499,-2.01222 -7,-2.98243 -13.25905,-4.25259 -35.22505,-20.69348 -45.08203,-33.74218 -11.70413,-15.49396 -15.7059,-27.74388 -16.57812,-50.75196 -0.41483,-10.94278 -0.17499,-16.24779 0.97656,-21.6289 1.94765,-9.10125 6.86759,-20.9244 11.73047,-28.18946 6.48087,-9.68229 19.21101,-17.74566 32.8125,-20.78515 6.37104,-1.42372 8.78716,-1.48457 17.98828,-0.44922 18.71657,2.10608 28.35734,4.15407 41.15234,8.74023 19.92048,7.14017 29.44386,12.95842 42.2793,25.83203 3.72889,3.73997 6.46493,5.97947 6.08008,4.97657 -0.50807,-1.32402 -0.35162,-1.60885 0.57031,-1.03907 5.17141,3.19611 -12.61554,-19.23182 -20.92187,-26.38086 -9.19363,-7.91272 -13.9489,-10.96325 -24.91992,-15.98828 -10.06611,-4.61054 -21.20825,-6.94587 -32.6836,-7.04297 z m -29.93554,17.67774 c 1.72805,-0.0542 3.56787,-0.0142 5.5332,0.0957 -1.96533,-0.10986 -3.80515,-0.14987 -5.5332,-0.0957 z m -26.72461,3.27734 c 0.275,0 -0.0594,0.675 -0.74415,1.5 -0.68466,0.825 -1.47109,1.5 -1.74609,1.5 -0.275,0 0.0614,-0.675 0.74609,-1.5 0.68471,-0.825 1.46915,-1.5 1.74415,-1.5 z M 395.31641,769.0293 c 0.93497,-0.004 1.86478,0.004 2.78906,0.0234 25.87969,0.55294 47.34148,10.43198 53.84961,25.56055 5.80967,13.50494 3.43295,51.35418 -4.6543,74.10742 -5.49284,15.45396 -18.71856,31.4333 -30.66601,37.05078 -4.43891,2.08709 -17.7993,5.61133 -21.26954,5.61133 -0.22662,0 -0.41207,0.60596 -0.41211,1.34571 0,0.73976 -0.78748,2.03246 -1.75,2.87304 -6.20049,5.41507 -17.14327,1.55062 -41.25,-14.5664 -23.0301,-15.39724 -38.17189,-40.13263 -40.60742,-66.33789 -1.7297,-18.61099 9.26585,-37.60149 29.58399,-51.08789 10.92477,-7.25145 28.93003,-12.83221 45.8457,-14.21094 2.88503,-0.23515 5.7361,-0.3565 8.54102,-0.36914 z m 164.37109,16.44922 c 8.55463,-0.0553 11.98596,0.55606 23.0293,2.80078 19.98794,4.06284 35.20873,10.16288 44.1582,17.69336 3.97549,3.34515 18.45892,23.54704 24.31055,33.91015 8.37107,14.82497 13.64564,36.56542 11.72851,48.33985 -3.36554,20.67003 -22.53004,32.62209 -56.46094,35.21289 -15.12698,1.15502 -16.5,1.47763 -16.5,3.86133 0,0.97769 -0.82426,2.5214 -1.83007,3.43164 -1.00581,0.91025 -3.14331,1.57722 -4.75,1.48242 -1.60669,-0.0948 -11.91993,-0.48011 -22.91993,-0.85742 -24.51292,-0.84082 -31.43078,-2.66344 -45.25,-11.91602 -11.62803,-7.78549 -18.05236,-14.12857 -24.61328,-24.29883 -10.94893,-16.97223 -13.48446,-24.10539 -14.33593,-40.33594 -0.68918,-13.13708 0.32427,-18.44253 5.78125,-30.23437 7.00924,-15.14606 17.47082,-26.05143 31.27539,-32.60352 10.15428,-4.81955 14.79294,-5.63205 35.64257,-6.24414 4.46169,-0.13098 7.88284,-0.22375 10.73438,-0.24218 z"
       style="fill:url(#linearGradient4712)" />
    <path
       id="path5370"
       d="M 552.57422,658.13867 546.7168,658.75 c -5.93952,0.6208 -9.76368,2.01246 -9.76368,3.55078 0,1.48416 6.36637,7.19137 10.25977,9.19727 2.06805,1.06547 6.34305,2.56296 9.5,3.32812 7.03206,1.7044 8.17208,1.80509 6.24023,0.55664 -1.24733,-0.80609 -1.16312,-0.98147 0.5,-1.04687 1.94638,-0.0766 1.94339,-0.10198 -0.0781,-0.91992 -1.14244,-0.46225 -4.03856,-4.08822 -6.4375,-8.0586 l -4.36328,-7.21875 z"
       style="fill:url(#linearGradient4706)" />
    <path
       id="path5368"
       d="m 558.80664,638.38281 c -3.71244,0 -1.11501,10.29811 3.1543,12.50586 4.03692,2.08757 5.30484,4.71481 3.83203,7.94727 -1.01503,2.22774 -0.86021,2.89566 1.16992,5.05664 2.73521,2.9115 2.98869,2.95984 5.54883,1.02344 1.06762,-0.8075 2.92777,-1.4825 4.13281,-1.5 1.20504,-0.0175 2.43545,-0.43115 2.73633,-0.91797 0.87048,-1.40847 -1.4755,-7.24011 -4.79688,-11.92383 -2.75846,-3.88991 -13.50168,-12.19141 -15.77734,-12.19141 z"
       style="fill:url(#linearGradient4706)" />
    <path
       id="path5353"
       d="m 611.88086,853.25781 c -7.23183,-0.0737 -15.14253,0.13403 -19.40039,0.66602 l -5.51758,0.68945 0.58984,5.13477 c 0.51356,4.46859 0.18412,5.90374 -2.53906,11.05273 l -3.13086,5.91797 2.61328,5.16211 c 2.55003,5.04004 5.78735,7.78989 11.29883,9.5957 3.34144,1.09482 19.6042,0.274 22.21094,-1.12109 4.86942,-2.60604 0.0122,-7.92531 -14.08984,-15.43359 -7.83861,-4.1735 -9.51474,-5.48374 -9.76368,-7.625 -0.50481,-4.34211 1.85271,-5.38755 8.81446,-3.91016 8.07317,1.71324 17.7047,0.84361 22.8789,-2.06445 4.84843,-2.72497 5.38351,-5.49757 1.35742,-7.04493 -1.53778,-0.59102 -8.09043,-0.94586 -15.32226,-1.01953 z"
       style="fill:url(#linearGradient4706)" />
    <path
       id="path5351"
       d="m 642.24219,852.88281 -1.31836,4.30274 c -1.63693,5.34013 -5.78065,9.47902 -12.95117,12.93945 -3.03633,1.4653 -5.84099,3.13469 -6.23243,3.70898 -0.39143,0.5743 0.89754,2.69002 2.86329,4.70313 2.73682,2.80275 3.6944,4.73389 4.08984,8.24219 0.48274,4.28289 0.26457,4.8356 -3.36133,8.45898 -2.89808,2.89605 -5.21838,4.1617 -9.17773,5.00977 -7.38112,1.58099 -18.93438,1.34203 -23.70118,-0.49024 -6.52871,-2.50953 -8.5,-2.77812 -8.5,-1.16015 0,0.79591 -1.1234,3.66147 -2.49609,6.36718 -1.3727,2.70571 -2.498,5.51176 -2.5,6.23633 -0.002,0.77785 0.71281,1.11349 1.74609,0.82031 1.72908,-0.4906 15.94284,-1.98607 29.98243,-3.15429 13.18489,-1.09711 28.01901,-6.33828 32.96875,-11.64844 6.86058,-7.36011 6.88183,-24.45591 0.0488,-40.83594 l -1.46093,-3.5 z"
       style="fill:url(#linearGradient4706)" />
    <path
       id="path5349"
       d="m 329.26953,844.38281 c -1.23178,0 -1.43082,0.69358 -0.92578,3.25 0.65241,3.30242 6.52463,16.39908 9.19141,20.5 1.99782,3.07222 4.41796,2.90893 4.41796,-0.29883 10e-6,-3.11895 2.08095,-7.30939 4.89649,-9.85742 3.88992,-3.52033 2.73882,-5.06055 -6.43555,-8.60742 -4.69626,-1.8156 -8.77239,-3.68144 -9.05859,-4.14453 -0.28621,-0.46309 -1.22465,-0.8418 -2.08594,-0.8418 z m 35.18359,12.60157 c -2.49215,-0.75841 -11.04847,5.31242 -12.75,9.04687 -0.99754,2.18937 -0.89256,2.77408 0.70118,3.93945 3.05071,2.23073 9.75318,-0.16236 16.78125,-5.99218 4.59762,-3.81375 4.72176,-5.22741 0.51757,-5.88086 -1.78749,-0.27782 -4.14999,-0.77854 -5.25,-1.11328 z"
       style="fill:url(#linearGradient4706)" />
    <path
       id="path5347"
       d="m 349.85352,834.0918 c -1.14674,-0.20916 -2.84445,0.0274 -6.1504,0.51562 -4.30705,0.63609 -6.75,1.46082 -6.75,2.2793 0,1.37757 0.37874,1.57953 9.5,5.08203 3.3,1.26718 6.45,2.18285 7,2.0332 1.92104,-0.52271 1.4697,-5.13166 -0.75976,-7.75586 -1.09708,-1.29132 -1.6931,-1.94514 -2.83984,-2.15429 z m 42.07226,1.39843 c -1.81652,-0.0952 -2.97266,0.1357 -2.97266,0.8125 10e-6,0.50543 0.65233,2.19293 1.44922,3.75 0.79688,1.55707 1.6829,3.61758 1.96875,4.58008 0.28585,0.9625 1.18802,1.75 2.00586,1.75 0.81783,0 3.14374,1.125 5.16993,2.5 2.8708,1.94819 4.95233,2.5 9.42382,2.5 8.85103,0 10.49112,-4.2215 3.66407,-9.42773 -3.8756,-2.95549 -15.25944,-6.17928 -20.70899,-6.46485 z m -22.00976,1.78516 c -1.52589,-0.0408 -3.00948,0.18859 -4.38086,0.71484 -2.46515,0.94596 -1.96316,6.10521 0.87109,8.93946 2.10054,2.10055 3.38936,2.45312 8.92969,2.45312 6.55954,0 9.61718,1.43061 9.61718,4.5 0,1.97906 -2.84189,4.5 -5.07226,4.5 -2.28183,0 -2.4403,1.25398 -0.54102,4.28516 0.76327,1.21815 1.66927,3.81914 2.01172,5.7793 0.66935,3.83123 5.03283,8.74244 10.10156,11.36914 3.31155,1.71609 8.2305,2.02424 10.4004,0.65039 1.039,-0.65783 1.24647,-2.18777 0.80468,-5.91797 -0.79851,-6.7422 -3.95714,-12.79391 -9.29492,-17.80664 -2.50953,-2.35672 -4.41016,-5.05023 -4.41016,-6.25 0,-1.15964 -0.63723,-2.10938 -1.41601,-2.10938 -0.77878,0 -2.88704,-1.85809 -4.68555,-4.1289 -3.40466,-4.29873 -8.3579,-6.85606 -12.93554,-6.97852 z"
       style="fill:url(#linearGradient4706)" />
    <path
       id="path5345"
       d="m 583.71875,824.60547 c -1.58735,0.0738 -3.65529,0.30365 -6.34961,0.63476 -5.36491,0.65931 -11.70386,2.06154 -14.08594,3.11524 -4.24454,1.87757 -4.33347,2.01741 -4.48047,6.97265 -0.0825,2.78093 -0.195,5.61719 -0.25,6.30469 -0.066,0.82511 2.154,1.47331 6.53125,1.90625 3.64723,0.36074 7.92223,1.3667 9.5,2.23438 3.01628,1.65878 6.99086,1.33488 9.11914,-0.74219 1.73966,-1.6978 5.25288,-12.01577 5.23438,-15.37305 -0.0226,-4.08879 -0.45669,-5.27421 -5.21875,-5.05273 z"
       style="fill:url(#linearGradient4706)" />
    <path
       id="path5343"
       d="m 524.82422,802.67383 c -1.75853,0.006 -5.2442,1.34724 -9.73828,4.01953 -11.48889,6.83157 -22.06708,22.41802 -24.38086,35.92578 -1.86688,10.89877 0.13088,23.95836 5.2168,34.10547 8.11287,16.18636 17.67167,26.45704 31.46093,33.80664 3.28059,1.74853 7.7885,3.75104 10.01758,4.44922 4.97733,1.55894 11.55273,1.76874 11.55273,0.36914 10e-6,-0.56834 -1.63194,-2.66516 -3.62695,-4.66016 -7.33535,-7.33536 -9.37484,-16.99275 -5.45703,-25.84961 2.72622,-6.16308 2.63222,-7.30098 -0.66602,-8.00781 -1.5125,-0.32413 -8.375,-2.163 -15.25,-4.08594 -14.70278,-4.11238 -25.62704,-9.56085 -28.28124,-14.10547 -1.67358,-2.86555 -1.70159,-3.38985 -0.31446,-6.07226 3.12148,-6.03627 14.99181,-7.77396 31.5918,-4.625 4.51999,0.85741 8.49708,1.28026 8.83789,0.93945 0.34081,-0.34081 -0.63537,-2.73142 -2.16992,-5.31054 -1.53455,-2.57912 -4.67357,-8.51446 -6.97657,-13.18946 -3.6435,-7.39617 -4.1875,-9.36246 -4.1875,-15.14453 0,-4.92526 0.45291,-7.14485 1.75,-8.57812 2.41164,-2.66486 2.37963,-3.99262 0.6211,-3.98633 z m 9.85742,7.91797 c -0.91611,0.0938 -1.69463,0.34855 -2.2207,0.78515 -3.08404,2.55953 -0.8118,10.61901 6.86133,24.33985 2.05072,3.66703 4.32167,6.66601 5.04687,6.66601 1.28536,0 3.14583,-6.23238 4.27344,-14.31445 0.64009,-4.58784 -1.74914,-11.4523 -5.07227,-14.57422 -2.15104,-2.0208 -6.14033,-3.18372 -8.88867,-2.90234 z m 26.67578,41.85351 c -1.75479,0.0744 -3.41218,0.37127 -4.83984,0.91407 -3.18996,1.21281 -3.36407,4.66855 -0.54688,10.87695 3.24208,7.14475 7.66001,11.98355 12.00782,13.15429 2.13938,0.57608 4.15955,1.48449 4.49023,2.01954 0.92691,1.49976 3.47818,1.15167 4.13672,-0.56446 0.32444,-0.84548 -0.24144,-2.45504 -1.25781,-3.57812 -1.80145,-1.99058 -1.79174,-2.14054 0.3789,-5.91211 2.70357,-4.69757 2.89505,-10.05703 0.43946,-12.2793 -3.4073,-3.08356 -9.54423,-4.85414 -14.8086,-4.63086 z m -51,3.04883 c -1.11403,0.12582 -1.4043,0.48424 -1.4043,1.13672 0,1.98477 5.568,4.24793 20.5,8.33008 17.1924,4.70011 19.11056,4.49252 16.56836,-1.78125 -0.51194,-1.26338 -1.19599,-3.53438 -1.51953,-5.04688 -0.69941,-3.26958 -2.14711,-3.47633 -5.07617,-0.72461 -2.07058,1.9452 -2.40958,1.96708 -8.56445,0.51758 -3.5247,-0.83008 -9.8957,-1.80697 -14.15821,-2.16992 -3.29387,-0.28048 -5.23167,-0.38754 -6.3457,-0.26172 z m 43.96875,24.0293 c -0.96058,0.0933 -1.8857,0.95449 -3.00586,2.60937 -6.05997,8.9528 -5.79063,16.80002 0.78711,22.94141 1.29004,1.20447 3.47098,2.65864 4.8457,3.23242 5.09533,2.12671 12.27524,-0.35966 15.57422,-5.39453 1.78185,-2.71946 4.17526,-16.11186 3.07618,-17.21094 -0.3857,-0.3857 -2.25539,-0.13977 -4.1543,0.54688 -2.98555,1.07959 -4.0302,0.99082 -7.72461,-0.66211 -2.34977,-1.05131 -5.12999,-2.87679 -6.17773,-4.05664 -1.26394,-1.4233 -2.26013,-2.09917 -3.22071,-2.00586 z"
       style="fill:url(#linearGradient4706)" />
    <path
       id="path5341"
       d="m 554.36914,799.39258 c -10.08716,-0.007 -12.08398,0.23973 -12.08398,1.49414 0,0.82646 1.83814,2.58255 4.08398,3.90234 4.4286,2.60252 7.42157,6.18995 9.55274,11.44922 1.51933,3.74939 0.8455,3.7156 14.53124,0.71484 8.42548,-1.84738 17.44558,-2.00767 21.03321,-0.37304 5.70737,2.60045 8.07494,12.99332 4.96679,21.80273 -0.82499,2.3383 -1.49994,4.53361 -1.5,4.87696 -5e-5,0.34335 6.86244,0.62685 15.25,0.63085 13.85857,0.006 15.72642,0.2213 20.46876,2.35938 2.87018,1.29402 5.71473,2.95156 6.32226,3.68359 0.60753,0.73198 1.75074,1.08256 2.54102,0.7793 1.80881,-0.69411 -1.96735,-7.61547 -11.6836,-21.41016 -6.97386,-9.90118 -11.66111,-14.70999 -17.04883,-17.49609 -13.15376,-6.80208 -38.61223,-12.40206 -56.43359,-12.41406 z"
       style="fill:url(#linearGradient4706)" />
    <path
       id="path5339"
       d="m 398.25586,783.50586 c -10.3828,-0.2788 -21.18179,0.82668 -29.80274,3.38867 -4.95,1.47105 -11.35831,3.78926 -14.24023,5.15039 -15.31549,7.23347 -27.20028,21.77648 -28.46875,34.83789 -0.3396,3.49685 0.1461,3.53215 8.20898,0.58008 3.02501,-1.10754 7.60246,-2.02887 10.17188,-2.04687 l 4.67188,-0.0332 -0.16602,-10.75 c -0.13114,-8.57794 0.19103,-11.39907 1.58984,-13.96875 3.5337,-6.49151 10.09932,-7.17389 17.16407,-1.78125 2.52188,1.925 4.80839,3.5 5.08007,3.5 0.27167,0 2.11213,-1.78941 4.08985,-3.97851 1.97772,-2.1891 5.10267,-4.39747 6.94531,-4.90625 6.75671,-1.86562 17.16489,2.3631 19.46094,7.90625 1.76765,4.26749 0.74722,12.06895 -2.36133,18.06054 -1.45634,2.80703 -2.64649,5.63664 -2.64649,6.28907 10e-6,0.65242 3.09866,1.9851 6.88672,2.96093 12.07734,3.11119 19.75801,9.60393 20.83204,17.61133 0.90231,6.72729 -4.58524,12.6463 -13.46876,14.52735 -1.78749,0.37849 -3.24528,0.99057 -3.23828,1.35937 0.007,0.36879 0.9071,3.52327 2,7.00977 1.09291,3.48651 1.98828,7.44551 1.98828,8.79882 0,4.02016 -2.53427,7.73194 -6.99023,10.23633 -6.41901,3.60769 -14.12799,2.75527 -21.59961,-2.39062 -3.10992,-2.14189 -6.78502,-5.60265 -8.16601,-7.68946 -1.38098,-2.0868 -3.08821,-3.79492 -3.79493,-3.79492 -0.70673,0 -3.67692,1.20193 -6.59961,2.66992 -2.9227,1.46799 -7.46955,2.87582 -10.10351,3.12891 -2.63396,0.25309 -5.01677,0.82924 -5.29492,1.2793 -0.70191,1.13572 8.02083,7.52878 20.92773,15.33984 12.25651,7.41747 15.18546,8.014 18.34375,3.74219 1.75281,-2.37081 3.4425,-3.10885 10.22266,-4.46875 10.89642,-2.1855 14.51333,-4.039 21.30468,-10.91797 6.1073,-6.18609 11.51867,-15.68649 14.14454,-24.83203 4.71959,-16.43766 7.11356,-47.06415 4.49218,-57.47461 -1.31557,-5.22456 -7.57789,-11.54765 -14.2832,-14.42188 -6.95246,-2.98017 -16.91799,-4.64307 -27.30078,-4.92187 z m -10.19922,18.87695 c -5.93519,0 -10.10352,8.53396 -10.10352,20.68164 0,3.88323 0.41782,6.31836 1.08594,6.31836 2.35294,0 13.76839,-12.8128 14.83399,-16.65039 2.16851,-7.80958 0.74073,-10.34961 -5.81641,-10.34961 z m -28.41992,3 c -1.86759,0 -1.9413,0.55192 -1.45117,10.89258 0.28396,5.99099 0.82478,11.39099 1.20117,12 0.84372,1.36517 2.6519,1.40576 6,0.13281 2.35743,-0.89629 2.5664,-1.45838 2.5664,-6.93554 10e-6,-3.27781 -0.47977,-7.22514 -1.0664,-8.77344 -1.46488,-3.86624 -4.88341,-7.31641 -7.25,-7.31641 z"
       style="fill:url(#linearGradient4706)" />
    <path
       id="path5337"
       d="m 387.14062,690.70117 c 0.79773,0.31922 0.55949,0.55552 -0.60546,0.60352 -1.05416,0.0434 -1.64479,-0.1931 -1.3125,-0.52539 0.33229,-0.33225 1.19609,-0.367 1.91796,-0.0781 z"
       style="fill:url(#linearGradient4706)" />
    <path
       id="path5335"
       d="m 364.91016,659.58594 c -0.64271,-0.10772 -1.36108,0.11516 -2.46289,0.61718 -1.4242,0.64891 -3.6919,1.17969 -5.04102,1.17969 -3.60383,0 -3.02591,1.64884 2.29687,6.54883 6.30539,5.80455 7.83643,5.75022 8.54688,-0.29883 0.44699,-3.80585 0.18449,-5.13344 -1.32617,-6.67969 -0.80226,-0.82114 -1.37097,-1.25946 -2.01367,-1.36718 z m 20.70117,2.21875 c -0.93318,-0.0535 -1.8978,0.0999 -2.87305,0.4707 -5.15083,1.95834 -7.18348,7.94496 -4.61328,13.58594 1.39131,3.0536 4.40877,3.9877 10.27539,3.18359 3.4956,-0.47912 4.64387,-0.21732 6.09375,1.38477 1.54763,1.71012 1.60925,2.30282 0.4668,4.4375 -2.68063,5.0088 -11.49009,5.59508 -19.20508,1.27734 l -3.69922,-2.07031 -4.50195,4.9043 c -5.47597,5.96514 -9.15809,12.51079 -8.29883,14.75 0.7657,1.99539 7.1671,2.26249 11.40039,0.4746 1.53838,-0.64971 5.39487,-3.68381 8.57031,-6.74218 5.68011,-5.47069 5.81765,-5.53624 8.5,-4.04297 1.49956,0.83481 3.78992,3.59658 5.08985,6.13867 1.29994,2.5421 3.32494,5.09778 4.5,5.67969 2.70024,1.3372 9.2277,0.46945 13.13671,-1.74805 2.28642,-1.29704 3.06947,-2.5253 3.29493,-5.16016 0.4193,-4.90017 -3.53008,-12.03256 -7.33985,-13.25585 -6.08633,-1.95427 -7.94531,-5.38471 -4.80078,-8.85938 1.96767,-2.17425 4.91431,-2.29164 8.3457,-0.33008 3.01744,1.72492 12.00289,1.79884 17.5,0.14258 3.77961,-1.13878 4,-1.42082 4,-5.11719 10e-6,-3.31587 -0.47064,-4.1871 -3.08984,-5.71679 -3.80522,-2.22237 -13.29497,-3.3018 -20.79101,-2.36524 l -5.61915,0.70117 0,3.89258 c 0,2.86941 -0.5258,4.17393 -2,4.96289 -2.83216,1.51573 -5.28677,-0.0891 -7.4414,-4.86719 -1.59446,-3.53588 -4.10086,-5.55047 -6.90039,-5.71093 z"
       style="fill:url(#linearGradient4706)" />
    <path
       id="path5333"
       d="m 598.6582,643.38281 c -4.8844,0 -5.49948,0.25161 -6.61914,2.70899 -0.67891,1.49007 -1.6657,6.57655 -2.19336,11.30273 l -0.95898,8.59375 3.90039,4.09961 c 4.7665,5.01063 5.8581,8.59053 3.64844,11.96289 -2.24048,3.41941 -5.53384,2.73282 -7.69922,-1.60547 -2.43422,-4.87692 -4.96117,-7.10113 -8.34766,-7.34765 -2.91229,-0.212 -2.93362,-0.17337 -2.67383,4.73046 0.31886,6.0188 2.42479,9.55469 5.68946,9.55469 2.63588,0 5.54882,2.36218 5.54882,4.5 0,2.5117 -3.09196,4.5 -6.99609,4.5 -4.31031,0 -9.5329,-3.62786 -11.08008,-7.69726 -0.88813,-2.33595 -1.05709,-2.36504 -10.16406,-1.70313 -10.94698,0.79565 -16.10533,2.24383 -16.56836,4.64844 -0.49902,2.59143 3.66864,3.75195 13.46875,3.75195 6.9876,0 9.05009,0.36941 11.40039,2.04297 3.01748,2.14863 4.9236,7.07306 4.9336,12.74024 0.003,1.80516 0.65814,4.84266 1.45507,6.75 1.37409,3.28864 1.70185,3.46679 6.35157,3.46679 10.41554,0 15.50628,-6.86328 15.90234,-21.4375 0.16589,-6.10442 0.69286,-9.38621 1.66016,-10.35351 0.98718,-0.98719 4.40273,-1.49891 11.27539,-1.6875 11.18413,-0.3069 17.36132,-2.26814 17.36132,-5.51368 0,-2.2241 -3.22856,-4.08164 -15.5,-8.91796 -7.83781,-3.08899 -11.5,-5.87496 -11.5,-8.75 0,-0.79211 1.58716,-2.89444 3.52735,-4.67188 4.87161,-4.46298 5.69865,-9.53182 2.13672,-13.09375 -2.12743,-2.12742 -3.50739,-2.57422 -7.95899,-2.57422 z"
       style="fill:url(#linearGradient4706)" />
    <path
       id="path5329"
       d="m 371.33008,629.38281 c -2.7475,0 -1.21465,21.08228 1.79687,24.71094 1.31614,1.58585 2.04267,1.60362 5.2793,0.12891 2.1639,-0.98594 2.54687,-1.81788 2.54687,-5.53125 0,-2.91214 -0.48886,-4.55787 -1.46289,-4.93164 -0.80407,-0.30854 -1.75438,-1.53206 -2.11328,-2.71875 -1.72849,-5.71519 -4.81093,-11.65821 -6.04687,-11.65821 z m 29.34375,3 c -5.90856,0 -8.84067,4.48708 -10.13867,15.51758 -0.55042,4.67745 -0.40339,5.13396 2.16406,6.76172 2.85336,1.80903 3.49473,1.78525 11.64453,-0.44141 3.92973,-1.07367 5.25634,-2.02267 6.75,-4.82226 2.07775,-3.8944 2.41256,-9.11424 0.7793,-12.16602 -1.33969,-2.50322 -6.75839,-4.84961 -11.19922,-4.84961 z"
       style="fill:url(#linearGradient4706)" />
    <path
       id="path5327"
       d="m 457.95312,612.38281 c 0.0516,-0.0516 0.45698,0.25111 1.25,0.87305 0.96251,0.75485 1.75,1.54235 1.75,1.75 0,0.82304 -0.82253,0.2927 -2.1289,-1.37305 -0.62194,-0.79303 -0.92271,-1.19838 -0.8711,-1.25 z"
       style="fill:url(#linearGradient4706)" />
    <path
       id="path5325"
       d="m 388.05664,601.69922 c -9.98928,0.33871 -20.67631,2.4344 -32.28516,6.26758 -10.10054,3.33514 -15.16301,7.0517 -17.14257,12.59179 -2.18109,6.10408 -5.04035,39.40309 -4.1875,48.76758 1.18848,13.04981 3.48133,23.32982 6.67773,29.9375 3.43368,7.09822 14.89102,19.9126 20.09961,22.48047 4.36397,2.15146 28.12833,2.22302 40.18164,0.12109 16.90152,-2.94738 22.5199,-5.93298 36.13867,-19.20117 9.3633,-9.12227 15.49554,-18.75255 19.10352,-30.00195 2.21462,-6.90501 2.44637,-9.07011 2.07422,-19.2793 -0.67864,-18.61754 -4.59727,-24.55062 -25.52344,-38.64843 -13.78231,-9.28505 -28.48792,-13.59968 -45.13672,-13.03516 z m -17.00586,18.32617 c 4.40168,0.11542 7.55917,2.56674 12.05664,9.35938 l 1.6543,2.49804 4.05664,-3.91406 c 3.45232,-3.33214 4.84428,-3.97958 9.35352,-4.35352 7.21743,-0.59852 13.14242,1.19778 17.78124,5.38868 5.03294,4.54695 6.4276,8.87129 5.62891,17.46484 l -0.63086,6.77344 5.54297,1.60937 c 7.12638,2.07169 13.05249,7.30712 14.54492,12.84961 2.41918,8.98413 -2.81216,15.51409 -14.33594,17.89453 -3.16249,0.65327 -5.74623,1.66082 -5.74023,2.23828 0.006,0.57745 0.69756,3.29883 1.53516,6.04883 1.3682,4.49206 1.36421,5.41484 -0.0273,9.07422 -2.32415,6.11181 -9.49985,10.82558 -18.25,11.98633 -6.54112,0.86771 -11.35492,-0.75601 -15.1875,-5.12109 -1.66069,-1.89142 -3.49415,-3.43946 -4.07422,-3.43946 -0.58006,0 -3.28742,1.53801 -6.01757,3.41602 -2.73015,1.87802 -7.24173,3.90302 -10.02539,4.5 -2.78367,0.59699 -5.82629,1.06642 -6.76172,1.04492 -2.52212,-0.058 -7.50827,-2.42178 -9.06446,-4.29687 -0.74961,-0.90322 -1.65567,-1.46028 -2.01172,-1.24024 -0.35604,0.22005 -0.77824,-2.0072 -0.93945,-4.94726 -0.33787,-6.16179 1.82012,-11.26345 7.35742,-17.39258 1.90118,-2.10438 3.45703,-4.47743 3.45703,-5.27344 0,-0.79601 -4.07349,-5.18183 -9.05273,-9.74805 -8.46754,-7.76517 -9.03356,-8.53238 -8.75,-11.83398 0.42615,-4.96185 4.12441,-7.47962 11.80469,-8.03516 3.31618,-0.23988 6.24796,-0.78958 6.51562,-1.22265 0.26765,-0.43308 -9.7e-4,-4.29792 -0.59765,-8.5879 -1.40662,-10.11319 -0.54791,-15.64963 3.05468,-19.68164 2.39701,-2.68271 3.49657,-3.15369 7.12305,-3.05859 z m -20.09766,91.35742 c 0.0516,-0.0516 0.45698,0.25111 1.25,0.87305 0.96251,0.75485 1.75,1.54235 1.75,1.75 0,0.82304 -0.82253,0.2927 -2.1289,-1.37305 -0.62194,-0.79303 -0.92271,-1.19838 -0.8711,-1.25 z"
       style="fill:url(#linearGradient4706)" />
    <path
       id="path5323"
       d="m 392.00195,577.61133 c -7.80999,-0.28431 -15.86385,0.47693 -24.40429,2.2539 -13.23864,2.75451 -18.72911,4.98748 -29.57422,12.02539 -10.06729,6.53315 -13.87237,10.14502 -21.40821,20.32032 -8.07787,10.90718 -9.65431,14.07406 -13.77929,27.67187 -3.11544,10.26987 -3.34003,11.96244 -3.36133,25.5 -0.0265,16.86545 2.36583,29.17531 7.89844,40.6543 3.45497,7.1683 15.31879,21.59647 22.3164,27.13867 6.62136,5.24421 23.89246,12.99262 34.76367,15.59766 12.63388,3.02744 24.12777,5.46626 28,5.9414 5.54379,0.68024 6.96923,0.60529 15,-0.80664 15.24757,-2.68075 34.1685,-14.06489 51.30079,-30.86523 8.79354,-8.62317 12.64223,-14.3111 17.59765,-26.00391 6.88412,-16.24375 7.99752,-29.59584 4.08008,-48.89648 -1.56596,-7.71523 -9.75918,-24.74662 -15.51953,-32.25977 -7.09225,-9.25032 -23.07564,-22.12459 -34.74219,-27.98437 -12.80859,-6.43339 -25.15132,-9.81327 -38.16797,-10.28711 z m -2.04883,10.44336 c 15.16473,-0.0466 17.21216,0.16829 25.29688,2.64843 11.00979,3.37745 18.01324,6.91583 28.20312,14.25 23.71023,17.06546 29.46332,26.94165 29.63672,50.86719 0.0762,10.51323 -0.24991,13.06739 -2.53711,19.8711 -5.32256,15.83293 -11.82655,25.84959 -24.97461,38.46289 -14.35212,13.76839 -22.63098,18.09516 -41.32421,21.59375 -9.80261,1.83463 -36.55515,2.86614 -41.58399,1.60351 -5.45951,-1.37077 -8.81711,-3.30525 -15.74219,-9.06836 -7.17785,-5.97347 -16.58063,-18.23023 -19.89453,-25.93359 -2.98503,-6.9389 -5.87302,-20.96704 -6.70312,-32.56055 -0.78733,-10.99616 2.07208,-45.57282 4.375,-52.90625 2.40188,-7.64857 11.46787,-16.18825 21.67383,-20.41797 15.76666,-6.53427 25.18688,-8.35375 43.57421,-8.41015 z"
       style="fill:url(#linearGradient4712)" />
    <path
       id="path5321"
       d="m 673.54102,480.61523 c -1.13036,0.14053 -2.30173,0.58085 -3.41602,1.36133 -1.90461,1.33408 -2.22483,2.34676 -1.97266,6.24219 l 0.30078,4.64844 5,0.70508 c 2.77538,0.39068 5.44191,1.39527 5.99415,2.25781 1.19984,1.87403 3.09714,2.01071 4.18164,0.30273 1.25353,-1.97418 0.98294,-2.99947 -1.42579,-5.4082 -1.23749,-1.2375 -2.25,-3.24761 -2.25,-4.4668 0,-3.79775 -3.02105,-6.06415 -6.4121,-5.64258 z m 18.21679,2.06836 c -1.54571,-0.0848 -1.73057,0.56144 -2.12109,2.92579 -0.29753,1.80083 -0.83485,4.42723 -1.19336,5.83593 -0.5214,2.04872 -0.18446,2.78492 1.67969,3.68164 3.2313,1.55437 12.07671,1.52762 14.22461,-0.043 1.1801,-0.86287 1.6644,-2.2854 1.4414,-4.23632 -0.3798,-3.32264 -5.59141,-6.74949 -11.97461,-7.87305 -0.8756,-0.15413 -1.5414,-0.26276 -2.05664,-0.29102 z"
       style="fill:url(#linearGradient4712)" />
    <path
       id="path5319"
       d="m 648.80273,434.94141 c -1.01377,-0.12706 -3.15277,0.56723 -6.03125,2.13086 -5.38136,2.92323 -9.70265,8.39712 -11.91015,15.08593 -0.77793,2.35715 -0.97523,9.4379 -0.61524,22.09766 0.44503,15.65011 0.94069,20.19594 3.09766,28.43945 1.4121,5.39673 2.83389,10.24284 3.1582,10.76758 0.95235,1.54094 2.21947,0.15604 3.51953,-3.84375 1.35928,-4.18202 6.16652,-10.75461 8.95704,-12.24805 2.5067,-1.34155 4.8729,-0.2413 5.58593,2.59961 0.4266,1.69971 -0.28213,3.55879 -2.50976,6.58789 -4.37523,5.94939 -4.13355,7.20103 1.27148,6.5918 4.65039,-0.52417 15.62695,-6.97208 15.62695,-9.17969 10e-6,-0.66965 -1.52393,-1.94271 -3.38476,-2.83008 -2.23371,-1.06517 -4.01761,-3.00653 -5.25,-5.71289 -1.7061,-3.74664 -2.12821,-4.05257 -4.91016,-3.56445 -5.83461,1.02376 -15.50701,-7.13019 -18.48047,-15.57812 -2.40123,-6.82215 1.20335,-12.90235 7.65039,-12.90235 4.05289,0 3.99935,0.54939 1.01954,-10.45117 -1.58427,-5.84864 -0.59129,-11.91254 2.49023,-15.19336 1.61713,-1.72171 1.72862,-2.66982 0.71484,-2.79687 z m 6.57227,11.4414 c -1.40424,0 -1.57145,0.66911 -1.02539,4.08399 0.35907,2.24546 1.80265,6.34969 3.20703,9.12109 1.89463,3.73888 2.84315,4.74865 3.67969,3.91211 2.13411,-2.13411 -2.99641,-17.11719 -5.86133,-17.11719 z m -6.74219,28.11524 c -1.1508,-0.16463 -1.67969,0.23898 -1.67969,1.19531 0,1.96886 2.09994,4.27819 6,6.59961 4.76183,2.83438 6.20358,2.68897 5.81641,-0.58594 -0.23645,-2.00002 -1.43123,-3.26373 -4.72461,-5 -2.48951,-1.31246 -4.26131,-2.04436 -5.41211,-2.20898 z m 32.76953,24.79687 c -0.74901,-0.0193 -1.38384,0.47592 -1.81054,1.58789 -0.31658,0.825 -1.23903,1.5 -2.04883,1.5 -0.8098,0 -1.75359,0.45694 -2.09766,1.01367 -0.79755,1.29046 4.86038,13.3389 7.50586,15.98438 2.51285,2.51284 3.23617,2.50396 5.56055,-0.0644 1.80604,-1.99566 1.81162,-2.2936 0.12695,-8.7168 -1.72009,-6.55822 -4.98929,-11.24672 -7.23633,-11.30469 z"
       style="fill:url(#linearGradient4712)" />
    <path
       id="path5317"
       d="m 675.42383,429.66211 c -12.64858,-0.95999 -26.96291,2.84341 -19.55274,5.19531 3.74479,1.18855 7.19494,4.80705 10.13282,10.62696 1.63762,3.24412 3.56174,5.89843 4.27539,5.89843 0.71365,0 2.29316,-1.34469 3.50976,-2.99023 3.58081,-4.84329 9.55874,-7.35157 15.95508,-6.69141 12.2443,1.26373 18.93889,11.24307 14.80469,22.06836 -0.9178,2.40318 -2.55251,5.1689 -3.63281,6.14649 -3.1132,2.8174 -2.38756,4.78973 2.49804,6.79882 4.9851,2.04997 11.14633,8.25713 12.14453,12.23438 1.024,4.07997 -1.26997,10.08239 -4.88867,12.79297 -3.139,2.35124 -4.19575,2.78115 -10.06054,4.09179 -2.82911,0.63224 -2.83972,0.66265 -2.16602,6.4668 0.558,4.80777 0.31559,6.54188 -1.37891,9.86328 -4.5703,8.95852 -12.16748,10.87348 -18.92383,4.76953 -2.10003,-1.89726 -4.67883,-5.04726 -5.73046,-7 -1.05162,-1.95275 -2.21356,-3.55078 -2.58204,-3.55078 -0.36849,0 -3.52948,1.43092 -7.02343,3.17969 -7.74963,3.87882 -15.39329,4.447 -18.76953,1.39453 -1.41671,-1.28085 -2.46381,-1.59284 -3.12696,-0.92969 -1.87111,1.87111 11.68931,18.35547 15.09961,18.35547 0.90098,0 2.9938,-0.6765 4.65235,-1.5039 3.37021,-1.68128 5.59777,-1.14902 16.29296,3.89257 6.2074,2.92609 13.17578,3.40005 18.32618,1.24805 1.7943,-0.74972 5.20196,-3.56222 7.57226,-6.25 7.748,-8.78588 12.55726,-20.40456 17.75196,-42.88672 5.8378,-25.26534 4.57326,-39.00169 -4.39454,-47.74219 -7.3306,-7.14475 -26.41672,-14.388 -40.78515,-15.47851 z m 13.04687,20.93359 c -1.49475,-0.0637 -3.04498,0.17714 -4.51758,0.78711 -3.37841,1.39939 -7.54553,8.95337 -8.56054,15.51758 -0.59838,3.86975 -0.4989,4.05789 2.71875,5.10938 5.97485,1.95252 8.55393,1.65439 9.23828,-1.07227 0.33776,-1.34576 1.90029,-3.20793 3.47266,-4.13672 3.1913,-1.88515 6.13085,-6.24742 6.13085,-9.09961 0,-3.97738 -3.99814,-6.91438 -8.48242,-7.10547 z"
       style="fill:url(#linearGradient4712)" />
    <path
       id="path5315"
       d="m 675.20508,400.92578 c -2.8725,-0.12876 -5.31045,0.0654 -8.64844,0.51953 -8.74946,1.19033 -24.97852,7.28615 -33.12305,12.44141 -5.25123,3.32388 -17.57777,15.98551 -22.60742,23.22266 -8.89087,12.79305 -16.89947,37.0087 -16.85547,50.96484 0.0242,7.68024 2.50233,24.75043 4.34766,29.95117 0.80842,2.27837 3.86997,8.56672 6.80273,13.97266 7.12307,13.12992 21.43859,27.9295 33.33203,34.45898 13.30308,7.30338 24.33255,11.62718 34.5,13.52344 l 0,-0.002 c 8.4997,1.58528 10.09733,1.58583 19.01758,-0.006 19.3803,-3.45812 37.12337,-18.7525 42.94727,-37.01758 1.0649,-3.33967 3.05563,-8.77227 4.42383,-12.07227 1.3682,-3.3 3.70054,-10.5 5.18164,-16 2.4446,-9.07818 2.69944,-11.70537 2.77344,-28.5 0.1253,-28.29847 -3.35205,-41.45176 -14.96485,-56.61328 -9.7902,-12.78191 -18.90774,-20.19179 -29.40234,-23.89453 -2.4512,-0.86484 -9.86104,-2.45754 -16.4668,-3.53906 -5.0778,-0.83136 -8.38532,-1.2814 -11.25781,-1.41016 z m -3.75196,15.0332 c 12.26892,0.0656 15.10767,0.41268 22.9668,2.8086 13.7397,4.18864 25.18067,10.15803 31.20117,16.28125 12.6471,12.86279 15.83327,29.78352 10.23047,54.33398 -1.0669,4.675 -2.66623,11.65 -3.55273,15.5 -2.182,9.47528 -8.46889,25.23685 -12.64649,31.70313 -6.1061,9.45125 -11.71395,14.93004 -18.37695,17.95117 -6.0025,2.72165 -15.23549,4.36726 -18.32227,3.26562 -11.48362,-4.0984 -13.90035,-4.52322 -16.91015,-2.96679 -6.76454,3.49807 -12.85995,1.00278 -23.92774,-9.79492 -7.47418,-7.29178 -13.15493,-14.76448 -17.05468,-22.4336 -6.57543,-12.93106 -11.69536,-49.19757 -9.31836,-66.00586 2.69481,-19.05554 13.18991,-30.92459 33.51758,-37.90429 7.51856,-2.58157 9.34469,-2.80699 22.19335,-2.73829 z"
       style="fill:url(#linearGradient4712)" />
    <path
       id="path5313"
       d="m 537.77148,357.38281 c -1.31716,0 -1.81837,0.75815 -1.81836,2.75 3e-5,3.24449 5.48997,8.14803 10.39063,9.2793 2.82356,0.65179 5.99964,0.45497 9.35937,-0.58008 2.39761,-0.73864 1.27067,-4.27264 -2,-6.27148 -3.45069,-2.10887 -12.89247,-5.17774 -15.93164,-5.17774 z"
       style="fill:url(#linearGradient4712)" />
    <path
       id="path5311"
       d="m 489.95508,333.48633 c -0.3665,-0.002 -0.73161,0.22575 -1.18946,0.68359 -0.91567,0.91567 -0.73103,1.7049 0.80469,3.45117 1.0947,1.24478 4.32753,4.88692 7.18555,8.09375 7.94412,8.91366 7.06838,13.23441 -4.3125,21.27149 -2.60266,1.83797 -2.80535,2.3113 -1.61133,3.75 0.75157,0.90558 2.09704,1.65315 2.99219,1.66015 2.99374,0.0236 16.1289,-3.36737 16.1289,-4.16406 0,-0.4325 -1.00804,-2.71392 -2.24023,-5.06836 -1.62969,-3.11395 -2.25924,-6.07906 -2.30664,-10.88086 -0.0594,-6.0133 -0.40068,-7.0596 -3.84375,-11.75 -2.94067,-4.006 -4.38192,-5.15039 -6.49414,-5.15039 -1.49316,0 -3.25602,-0.53922 -3.91602,-1.19922 -0.46294,-0.46292 -0.83077,-0.69523 -1.19726,-0.69726 z m 27.82422,16.89648 c -3.11612,0 -3.82618,0.35953 -3.82618,1.93555 10e-6,2.66183 1.81717,7.2048 3.72461,9.3125 0.9086,1.00399 3.01262,1.75195 4.92969,1.75195 3.26061,0 3.3457,-0.10566 3.3457,-4.18554 10e-6,-5.63582 -2.9473,-8.81446 -8.17382,-8.81446 z m -14.22266,3.27149 c 0.33225,0.33229 0.36895,1.19413 0.0801,1.91601 -0.31922,0.79773 -0.55747,0.56144 -0.60547,-0.60351 -0.0434,-1.05416 0.1931,-1.64479 0.52539,-1.3125 z m 25.72852,14.77148 c -0.62059,-0.19979 -1.52984,0.51812 -2.83204,1.95703 -1.28093,1.41543 -3.08123,2 -6.15624,2 -4.88675,0 -5.03777,0.35787 -3.22461,7.5586 0.7362,2.92371 2.28571,5.47005 4.5332,7.44336 3.89611,3.42083 4.26874,3.50721 6.85351,1.61718 1.60724,-1.17525 1.90652,-2.81191 2.01172,-11 0.0817,-6.35913 -0.15123,-9.24318 -1.18554,-9.57617 z"
       style="fill:url(#linearGradient4712)" />
    <path
       id="path5309"
       d="m 506.29492,324.38281 c -1.6288,0 -1.69899,1.6782 -0.24414,5.85157 0.6038,1.73207 1.7288,3.14843 2.5,3.14843 1.6977,0 1.70951,-0.24186 0.24414,-5.13281 -0.63706,-2.12631 -1.76206,-3.86719 -2.5,-3.86719 z m 27.55078,2 c -5.11524,0 -8.75164,4.07737 -10.33008,11.58399 -0.58383,2.77657 -0.24526,3.36433 3.39454,5.88672 2.22366,1.541 4.04296,3.19081 4.04296,3.66601 0,0.4752 1.125,0.86328 2.5,0.86328 1.96577,0 2.5,-0.50721 2.5,-2.37695 0,-1.30783 0.675,-3.99424 1.5,-5.96875 2.86279,-6.8516 1.0658,-13.6543 -3.60742,-13.6543 z"
       style="fill:url(#linearGradient4712)" />
    <path
       id="path5307"
       d="m 451.75977,305.85742 c 0.30789,0.30789 -1.8e-4,1.11463 -0.6836,1.79297 -0.98762,0.98026 -1.10127,0.86465 -0.55859,-0.56055 0.37553,-0.98622 0.9343,-1.54031 1.24219,-1.23242 z"
       style="fill:url(#linearGradient4712)" />
    <path
       id="path5305"
       d="m 507.9043,297.38281 c -25.27185,0 -40.39054,6.7807 -44.01953,19.74219 -2.18057,7.78824 1.44798,30.49211 8.84765,55.36133 6.05644,20.35485 15.26992,29.66079 35.2168,35.56836 8.69563,2.57535 11.50165,2.73552 21.3125,1.21484 12.011,-1.86171 26.00724,-10.48768 34.70508,-21.38672 7.57937,-9.49751 12.941,-24.25478 12.9707,-35.69922 0.0454,-17.52565 -6.15539,-27.54465 -24.81055,-40.08398 -18.25354,-12.26939 -25.60415,-14.7168 -44.22265,-14.7168 z m -4.48047,9.92774 c 3.83563,0.53756 7.81211,4.34209 10.97656,10.96289 1.60619,3.36055 3.33483,6.10937 3.8418,6.10937 0.50698,0 2.24465,-1.1123 3.86133,-2.47265 8.43851,-7.10054 20.6433,-5.05089 24.4707,4.10937 1.95081,4.66894 1.67313,12.11928 -0.64258,17.22266 -2.31577,5.10349 -2.43532,6.14062 -0.70117,6.14062 2.58171,0 15.30206,6.83848 17.9082,9.62696 9.48868,10.15255 1.82108,19.98065 -15.43555,19.78515 l -7.75,-0.0879 0,2.97266 c 10e-6,5.12275 -2.15626,10.46199 -5.55468,13.75586 -2.3509,2.27858 -4.50726,3.3124 -7.64453,3.66601 -3.82134,0.43072 -4.92823,0.0663 -8.82813,-2.9082 -2.93207,-2.23637 -5.60373,-5.61133 -7.80078,-9.85547 -1.83773,-3.55001 -3.86466,-6.43987 -4.50586,-6.42187 -0.64119,0.0179 -3.30133,0.40684 -5.91016,0.86328 -6.51696,1.14021 -11.16805,0.0592 -15.27734,-3.54883 -2.93273,-2.57497 -3.47583,-3.70545 -3.45703,-7.20117 0.0246,-4.59416 1.51352,-6.88137 7.22851,-11.10938 2.0625,-1.52586 3.75,-3.44777 3.75,-4.27148 0,-0.82371 -2.51892,-4.21758 -5.59765,-7.54297 -6.54449,-7.06883 -12.01,-15.07559 -12.95508,-18.97852 -0.94752,-3.91297 1.66812,-7.48724 6.08789,-8.3164 2.76209,-0.51817 4.67244,-0.0844 8.59961,1.95312 2.77687,1.44069 5.39582,2.61914 5.81836,2.61914 0.42254,0 0.71705,-2.6609 0.65625,-5.91406 -0.0929,-4.97085 0.27705,-6.32741 2.31445,-8.5 1.99486,-2.12721 4.2455,-2.98074 6.54688,-2.6582 z"
       style="fill:url(#linearGradient4712)" />
    <path
       id="path5303"
       d="m 461.76172,293.38281 c 0.275,0 -0.3131,0.9 -1.3086,2 -0.99549,1.1 -2.03554,2 -2.31054,2 -0.275,0 0.31505,-0.9 1.31054,-2 0.9955,-1.1 2.0336,-2 2.3086,-2 z"
       style="fill:url(#linearGradient4712)" />
    <path
       id="path5301"
       d="m 352.20898,204.38281 c -2.45668,0 -5.25586,3.03877 -5.25586,5.70508 0,2.60456 2.33592,7.76267 4.7754,10.54492 3.37664,3.8511 6.2246,0.85521 6.2246,-6.54883 10e-6,-4.80606 -2.89841,-9.70117 -5.74414,-9.70117 z m 17.56055,10.2461 c -1.64027,0.25947 -2.49478,1.50731 -2.9707,3.81054 -0.40423,1.95625 -1.89116,5.85955 -3.30469,8.67383 -1.99499,3.97193 -3.23618,5.26441 -5.54492,5.77149 -1.63583,0.35929 -3.19389,1.0081 -3.46289,1.44335 -0.85922,1.39025 2.11144,11.00513 4.07422,13.1875 1.04119,1.15768 2.79257,2.47166 3.89257,2.92188 1.10001,0.45022 3.23751,0.84791 4.75,0.88281 2.52442,0.0582 2.74919,-0.24513 2.73829,-3.6875 -0.007,-2.0625 -0.67635,-6.225 -1.48829,-9.25 -2.12062,-7.90066 -1.92583,-10.6733 0.87696,-12.50976 2.18209,-1.42976 2.79676,-1.39113 7.53515,0.47656 6.68121,2.63349 11.08789,2.70464 11.08789,0.17969 10e-6,-2.86251 -4.44967,-7.00351 -10.5,-9.77344 -3.61677,-1.65581 -6.04332,-2.38643 -7.68359,-2.12695 z"
       style="fill:url(#linearGradient4712)" />
    <path
       id="path5299"
       d="m 373.2832,187.60352 c -2.97339,-0.43433 -6.61631,1.83424 -10.58008,6.66796 -2.25647,2.75172 -2.20659,3.57603 0.4375,7.15235 1.20344,1.62773 2.72451,2.95898 3.37891,2.95898 1.98321,0 8.13114,-2.84012 9.83399,-4.54297 2.27318,-2.27317 2.07538,-8.71408 -0.33399,-10.89453 -0.82955,-0.75073 -1.74519,-1.19702 -2.73633,-1.34179 z"
       style="fill:url(#linearGradient4712)" />
    <path
       id="path5297"
       d="m 358.65234,157.99414 c -7.29032,0.13791 -15.4368,0.9085 -21.50976,2.25781 -17.67513,3.92712 -23.7729,9.38038 -28.29102,25.29688 -2.02298,7.12661 -2.36871,10.58205 -2.38281,23.83398 -0.009,8.525 0.33093,16.7375 0.75391,18.25 0.76535,2.73677 3.73046,3.90729 3.73046,1.47266 0,-1.86545 4.80071,-6.80724 10.25,-10.55274 2.6125,-1.79568 4.75,-3.70349 4.75,-4.24023 10e-6,-0.53674 -2.48848,-4.22879 -5.52929,-8.20312 -6.15936,-8.0503 -9.31894,-16.27245 -7.53516,-19.60547 3.20727,-5.99283 10.56549,-7.74357 17.32422,-4.1211 2.05237,1.1 4.15181,2 4.66406,2 0.52717,0 0.69336,-2.30562 0.38282,-5.31445 -0.94572,-9.16312 4.63027,-15.67019 12.21093,-14.24805 4.02224,0.75457 10.71129,7.69558 12.42774,12.89649 1.37479,4.16564 1.50704,4.21058 6.40039,2.16601 9.46164,-3.95333 17.68244,0.46856 20.52929,11.04102 1.28466,4.7708 0.16517,9.86813 -3.07421,13.98633 l -2.16993,2.75781 2.08399,1.60742 c 1.14634,0.88454 3.70629,2.86534 5.6875,4.40234 1.98122,1.537 4.50094,4.55736 5.59961,6.71094 5.01207,9.82447 0.22953,16.99414 -11.33399,16.99414 -5.60334,0 -5.8579,0.10802 -5.32421,2.25 1.67607,6.72715 1.76793,10.54736 0.33593,13.97461 -3.05935,7.32207 -10.69476,8.96001 -20.16601,4.32617 -5.91994,-2.89636 -9.66918,-7.5977 -11.60157,-14.55078 -0.68785,-2.475 -1.59526,-4.89723 -2.01757,-5.38476 -0.43999,-0.50794 -4.59319,-0.14357 -9.72657,0.85351 -8.53135,1.65708 -16.00217,1.67321 -20.91797,0.0449 -1.8288,-0.60576 -2.25,-0.37393 -2.25,1.24219 0,2.97011 9.06984,16.29326 13.91602,20.44141 6.64422,5.6872 20.2299,13.61431 26.17383,15.27148 3.61507,1.00787 8.72736,1.41048 15.41015,1.21485 8.41453,-0.24633 10.87203,-0.71489 15.5,-2.95508 6.644,-3.21604 13.40749,-8.70006 19.42188,-15.7461 7.67585,-8.99248 8.09433,-10.43342 7.96289,-27.48242 -0.14298,-18.54483 -2.02227,-26.36167 -9.92187,-41.28711 -8.55333,-16.1606 -17.20002,-26.39842 -25.39063,-30.06054 -2.64882,-1.18432 -9.08272,-1.67893 -16.37305,-1.54102 z m -12.79882,16.38867 c -1.97212,0 -2.07518,0.34843 -1.41602,4.75 1.01114,6.7519 3.40955,13.53713 5.30859,15.01367 3.51609,2.73383 4.15125,0.57648 2.73047,-9.29492 -0.78758,-5.47198 -3.94892,-10.46875 -6.62304,-10.46875 z m -22.62305,15 c -0.70262,0 -1.27735,0.58309 -1.27735,1.29492 0,1.38868 4.61731,8.95257 9.5,15.5625 3.45887,4.68242 4.87254,4.77711 5.31055,0.35547 0.23616,-2.38399 -0.65596,-4.44241 -3.72851,-8.60156 -4.15013,-5.61782 -7.55831,-8.61133 -9.80469,-8.61133 z m 14.2832,25.19336 c -0.84842,-0.0874 -1.76385,1.00868 -2.8457,3.27735 -1.00082,2.09876 -3.83775,4.91911 -7.18359,7.14062 -3.04194,2.01974 -5.53126,4.28412 -5.53126,5.03125 10e-6,1.75658 1.51449,1.71403 12.71485,-0.36133 7.28549,-1.34996 9.28515,-2.07846 9.28515,-3.3789 0,-0.91147 -0.60156,-2.15616 -1.33593,-2.76563 -0.73437,-0.60947 -1.93149,-2.91321 -2.66016,-5.12109 -0.81317,-2.46394 -1.59494,-3.73484 -2.44336,-3.82227 z"
       style="fill:url(#linearGradient4712)" />
    <path
       id="path5295"
       d="m 350.16797,130.71875 c -5.28023,0.14797 -10.68005,1.14628 -18.2832,3.05273 -17.08578,4.28417 -25.98151,10.22849 -37.02539,24.73633 -7.4224,9.75047 -10.44415,15.70654 -14.13086,27.85547 -6.12167,20.17295 -5.4247,46.67781 1.75195,66.55664 4.87509,13.50368 7.36022,17.48166 17.38281,27.84375 9.67762,10.00543 15.23835,13.92751 26.08984,18.39649 4.12501,1.6988 10.25809,4.23933 13.62891,5.64648 3.37081,1.40716 8.54581,2.98541 11.5,3.50781 6.70586,1.18585 18.08543,0.48183 25.06055,-1.55078 6.26533,-1.82578 22.67317,-10.38811 28.17969,-14.70508 6.3914,-5.01068 18.21837,-19.25987 22.79882,-27.4707 5.65814,-10.14267 6.47149,-12.00193 10.17579,-23.20508 2.94645,-8.91122 3.13999,-10.39867 3.12109,-24 -0.0111,-7.975 -0.56605,-16.86695 -1.23438,-19.76172 -1.69385,-7.33664 -11.32186,-26.85363 -15.84179,-32.11328 -14.16481,-16.48299 -34.12838,-28.23591 -55.60938,-32.74023 -7.12366,-1.49375 -12.28423,-2.1968 -17.56445,-2.04883 z m 9.78515,13.24219 c 11.81086,-0.0321 14.21958,0.25155 19.25196,2.26562 11.10677,4.44518 20.75427,14.38135 30.80078,31.72071 9.80423,16.9212 13.56087,29.11292 14.83984,48.17187 0.95536,14.23648 -0.0719,22.06394 -3.92578,29.94141 -6.28356,12.84367 -25.07733,29.1362 -38.26172,33.16797 -7.81407,2.38954 -14.89771,3.01028 -25.70508,2.25195 -7.73107,-0.54248 -9.31416,-1.03972 -17.5,-5.48242 -21.67001,-11.76097 -32.24609,-22.16181 -40.52734,-39.85938 -4.95543,-10.59006 -7.00467,-20.65684 -7.07617,-34.77539 -0.0677,-13.36201 0.97177,-21.09975 4.27539,-31.82031 5.298,-17.19249 11.94679,-24.44071 27.64453,-30.13672 10.83806,-3.93264 20.61033,-5.40291 36.18359,-5.44531 z m 154.9668,127.0039 c -3.2166,0.12969 -6.56168,0.57602 -11.63867,1.4043 -16.95871,2.76673 -22.44545,4.90463 -32.82813,12.78516 -8.04303,6.10472 -13.53179,11.37066 -12.90624,12.38281 0.28149,0.45546 1.82078,-0.13997 3.41992,-1.32227 1.59914,-1.18229 2.70438,-2.47673 2.45703,-2.87695 -0.24734,-0.40022 0.33262,-1.34198 1.28906,-2.0918 1.57367,-1.2337 1.60915,-1.19691 0.36719,0.38672 -1.76775,2.25405 -1.02699,2.2094 3.06445,-0.18554 11.08534,-6.48886 32.76612,-9.86696 51.1875,-7.97657 14.57584,1.49577 24.43361,5.80321 43.10938,18.83789 20.25393,14.13614 28.71725,28.92804 28.59765,49.98047 -0.10753,18.92589 -7.76358,35.89786 -23.09375,51.18946 -13.1987,13.1655 -26.85315,19.56986 -43.85547,20.56836 -12.02763,0.70634 -18.69632,-0.86394 -32.93359,-7.75782 -18.81887,-9.11237 -27.4183,-21.27942 -34.57227,-48.90625 -5.60382,-21.64052 -6.94816,-29.65326 -7.04296,-42 -0.0758,-9.86888 0.2258,-12.17827 2.12109,-16.2832 1.2147,-2.63087 1.8142,-4.54094 1.33398,-4.24414 -0.48022,0.29679 -1.03868,0.0402 -1.24218,-0.57031 -0.77168,-2.31503 -5.78076,9.05221 -8.85547,20.09765 -5.03275,18.07941 -4.96519,35.13103 0.20703,52.36524 4.15239,13.83606 12.57865,28.41111 21.8125,37.73047 5.2963,5.34535 8.71394,7.67347 18.03515,12.28515 6.59614,3.26344 14.27175,6.24754 18,6.99805 9.07799,1.82739 39.72642,1.87511 47.70118,0.0742 13.82357,-3.1217 24.10262,-10.38203 34.79492,-24.57617 8.08979,-10.7393 9.91954,-14.33224 14.62695,-28.70313 2.95889,-9.03296 3.17467,-10.66771 3.26367,-24.67383 0.0869,-13.67108 -0.1572,-15.88192 -2.76172,-24.96679 -3.8346,-13.37555 -6.5104,-18.71586 -14.19335,-28.31836 -9.04445,-11.30416 -14.98562,-16.16041 -26.95313,-22.03711 -12.76997,-6.27075 -18.05347,-7.79043 -31.63867,-9.09766 -4.56708,-0.43947 -7.65645,-0.62773 -10.87305,-0.49805 z"
       style="fill:url(#linearGradient4712)" />
  </g>
</svg>
