<?xml version="1.0" encoding="UTF-8" standalone="no"?>
<svg
   xmlns:osb="http://www.openswatchbook.org/uri/2009/osb"
   xmlns:dc="http://purl.org/dc/elements/1.1/"
   xmlns:cc="http://creativecommons.org/ns#"
   xmlns:rdf="http://www.w3.org/1999/02/22-rdf-syntax-ns#"
   xmlns:svg="http://www.w3.org/2000/svg"
   xmlns="http://www.w3.org/2000/svg"
   xmlns:xlink="http://www.w3.org/1999/xlink"
   version="1.1"
   id="svg2985"
   height="975.34967"
   width="555.81726">
  <defs
     id="defs5498">
    <linearGradient
       osb:paint="solid"
       id="linearGradient4756">
      <stop
         id="stop4758"
         offset="0"
         style="stop-color:#ffffff;stop-opacity:1;" />
    </linearGradient>
    <linearGradient
       osb:paint="solid"
       id="linearGradient4750">
      <stop
         id="stop4752"
         offset="0"
         style="stop-color:#000000;stop-opacity:1;" />
    </linearGradient>
    <linearGradient
       osb:paint="solid"
       id="linearGradient5694">
      <stop
         id="stop5696"
         offset="0"
         style="stop-color:#002b11;stop-opacity:1;" />
    </linearGradient>
    <linearGradient
       osb:paint="solid"
       id="linearGradient4712">
      <stop
         id="stop4714"
         offset="0"
         style="stop-color:#162d50;stop-opacity:1;" />
    </linearGradient>
    <linearGradient
       osb:paint="solid"
       id="linearGradient4706">
      <stop
         id="stop4708"
         offset="0"
         style="stop-color:#d40000;stop-opacity:1;" />
    </linearGradient>
    <linearGradient
       gradientUnits="userSpaceOnUse"
       y2="508.69208"
       x2="761.44257"
       y1="508.69208"
       x1="262.13925"
       id="linearGradient4716"
       xlink:href="#linearGradient4712" />
    <linearGradient
       gradientUnits="userSpaceOnUse"
       y2="500.0004"
       x2="771.30902"
       y1="500.0004"
       x1="228.69211"
       id="linearGradient4754"
       xlink:href="#linearGradient4750" />
    <linearGradient
       gradientUnits="userSpaceOnUse"
       y2="500.10483"
       x2="752.40271"
       y1="500.10483"
       x1="248.61133"
       id="linearGradient4760"
       xlink:href="#linearGradient4756" />
    <linearGradient
       y2="508.69208"
       x2="761.44257"
       y1="508.69208"
       x1="262.13925"
       gradientUnits="userSpaceOnUse"
       id="linearGradient501"
       xlink:href="#linearGradient4712" />
    <linearGradient
       y2="508.69208"
       x2="761.44257"
       y1="508.69208"
       x1="262.13925"
       gradientUnits="userSpaceOnUse"
       id="linearGradient503"
       xlink:href="#linearGradient4712" />
    <linearGradient
       y2="508.69208"
       x2="761.44257"
       y1="508.69208"
       x1="262.13925"
       gradientUnits="userSpaceOnUse"
       id="linearGradient505"
       xlink:href="#linearGradient4712" />
  </defs>
  <metadata
     id="metadata5594">
    <rdf:RDF>
      <cc:Work
         rdf:about="">
        <dc:format>image/svg+xml</dc:format>
        <dc:type
           rdf:resource="http://purl.org/dc/dcmitype/StillImage" />
        <dc:title />
      </cc:Work>
    </rdf:RDF>
  </metadata>
  <g
     transform="translate(-222.0912,-12.325201)"
     style="display:inline"
     id="layer9">
    <path
       id="path4741"
       d="m 585.9082,30.78125 c -8.94204,0.106867 -18.32219,0.328992 -27.71875,0.658203 -9.39656,0.329212 -18.80895,0.764038 -27.8164,1.298828 -9.00746,0.53479 -17.61004,1.168977 -25.38477,1.892578 -13.50329,1.256765 -23.58912,2.371069 -33.38086,3.796875 -9.79174,1.425806 -19.28938,3.163114 -31.61914,5.667969 -7.05336,1.432928 -12.66288,2.589173 -17.92383,3.744141 -5.26094,1.154967 -10.17352,2.308669 -15.83593,3.740234 -11.32483,2.86313 -25.64626,6.833999 -51.74024,14.13086 -5.23414,1.463662 -10.55112,3.231218 -15.6914,5.175781 -5.14029,1.944563 -10.10448,4.065654 -14.62891,6.240234 -4.52443,2.17458 -8.60951,4.400975 -11.99609,6.554688 -1.6933,1.076856 -3.21249,2.135557 -4.52344,3.160156 -1.31096,1.024599 -2.41398,2.01605 -3.27735,2.957031 -0.99715,1.0868 -2.12544,2.548674 -3.35351,4.333984 -1.22808,1.785311 -2.55556,3.894753 -3.95508,6.277348 -2.79903,4.76518 -5.88184,10.62299 -9.00977,17.16992 -1.70105,3.56041 -3.23691,6.93814 -4.63281,10.20312 -1.39589,3.26498 -2.65159,6.41648 -3.79492,9.5293 -1.14333,3.11282 -2.17384,6.18513 -3.11719,9.28906 -0.94334,3.10393 -1.79975,6.24021 -2.5957,9.47852 -1.28426,5.225 -4.78463,16.7 -7.77734,25.5 -1.80386,5.30419 -3.34519,10.39955 -4.61329,15.24609 -1.26809,4.84654 -2.26294,9.44425 -2.9746,13.75391 -1.18071,7.15 -3.23991,17.95 -4.57618,24 -0.82154,3.71956 -1.48801,6.90179 -2.05664,10.0039 -0.56863,3.10212 -1.03924,6.12401 -1.4707,9.51954 -0.86293,6.79105 -1.56745,15.07992 -2.57617,28.50976 -0.74513,9.92044 -1.13436,16.21408 -1.20508,21.69336 -0.0707,5.47928 0.17707,10.14421 0.70703,16.80664 0.56209,7.06622 1.04312,15.21834 1.43945,24.23828 0.39634,9.01994 0.70826,18.90751 0.92969,29.44532 0.22143,10.5378 0.35325,21.72589 0.39063,33.3457 0.0374,11.61981 -0.02,23.67153 -0.17579,35.9375 -0.16943,13.3375 -0.43159,26.24922 -0.71874,36.30859 -0.28716,10.05938 -0.5993,17.26641 -0.86524,19.19141 -0.45785,3.31419 -0.89471,10.03479 -1.49219,24.5664 -0.59747,14.53161 -1.35556,36.87423 -2.45507,71.4336 -0.52496,16.5 -1.36586,33.375 -1.86915,37.5 -0.50329,4.125 -1.4027,17.4 -1.99804,29.5 -0.59534,12.1 -1.26286,22.78871 -1.48242,23.75195 -0.21956,0.96323 -0.01,10.41323 0.46679,21 0.37265,8.28622 0.90712,15.96102 1.94141,26.44531 1.03429,10.48429 2.56839,23.77807 4.93945,43.30274 0.50094,4.125 1.20047,16.05 1.55274,26.5 0.43457,12.8917 0.94773,23.6262 1.65625,32.85742 0.35426,4.61561 0.75862,8.85513 1.22461,12.80078 0.46599,3.94566 0.99501,7.59796 1.60156,11.03711 0.60655,3.43915 1.29046,6.66564 2.0664,9.76172 0.77595,3.09608 1.64303,6.06205 2.61719,8.97851 0.97416,2.91647 2.05465,5.78331 3.25586,8.6836 1.20121,2.90029 2.52338,5.83329 3.98047,8.88086 1.07004,2.23802 2.1547,4.30426 3.28906,6.22461 1.13436,1.92034 2.31781,3.69545 3.58985,5.35156 1.27203,1.65611 2.63217,3.19335 4.11523,4.63867 1.48306,1.44532 3.08998,2.79796 4.85742,4.08594 1.76745,1.28798 3.69514,2.51123 5.82032,3.69531 2.12517,1.18408 4.44763,2.32926 7.0039,3.46289 2.55627,1.13363 5.34554,2.25595 8.40625,3.39258 3.06071,1.13663 6.39275,2.2874 10.03125,3.48047 7.78386,2.55234 15.04265,4.84352 21.78906,6.875 6.74642,2.03148 12.98135,3.80318 18.71485,5.32031 5.73349,1.51713 10.96585,2.77975 15.71093,3.78906 4.74509,1.00932 9.00202,1.76541 12.78321,2.27344 9.75261,1.31033 18.71736,2.67462 27.19922,4.14453 8.48186,1.46992 16.48084,3.04547 24.30273,4.78125 7.15,1.58668 18.85,3.82701 26,4.97852 7.15,1.1515 18.85,3.18961 26,4.52734 7.24173,1.35489 12.06835,2.18832 15.35352,2.61133 1.64258,0.21151 2.8993,0.31901 3.88086,0.33984 0.98155,0.0208 1.68728,-0.0459 2.22656,-0.1875 0.80365,-0.21108 17.67865,-0.60295 37.5,-0.87109 9.91067,-0.13406 19.93236,-0.36385 28.0957,-0.62695 8.16335,-0.2631 14.46836,-0.55951 16.94336,-0.82422 4.95,-0.52941 15.3,-1.42625 23,-1.99414 4.21657,-0.31098 8.01155,-0.65508 11.54688,-1.0586 3.53532,-0.40351 6.81061,-0.86603 9.98632,-1.41796 3.17571,-0.55194 6.25289,-1.19298 9.39063,-1.94922 3.13774,-0.75624 6.3364,-1.62811 9.75781,-2.64453 4.27775,-1.27083 7.83308,-2.4149 11.30664,-3.78516 3.47356,-1.37027 6.86556,-2.96632 10.81836,-5.14258 3.95281,-2.17626 8.46615,-4.93228 14.18164,-8.62109 5.71549,-3.68882 12.63292,-8.31083 21.39453,-14.21875 3.26339,-2.20049 5.96434,-4.18014 8.21094,-6.07813 2.2466,-1.89798 4.03913,-3.71346 5.48242,-5.58593 1.4433,-1.87248 2.53716,-3.80184 3.39063,-5.92579 0.85346,-2.12394 1.46625,-4.44329 1.94336,-7.0957 0.7374,-4.09948 1.5203,-10.44629 2.2539,-17.66992 0.73361,-7.22364 1.41863,-15.32348 1.95508,-22.92969 0.53645,-7.6062 0.92436,-14.7196 1.07031,-19.9668 0.073,-2.62359 0.0863,-4.78098 0.0254,-6.30078 -0.0609,-1.51979 -0.1951,-2.40131 -0.41406,-2.47461 -0.65343,-0.21875 -2.28366,-1.4946 -3.62304,-2.83398 -0.55918,-0.55918 -0.98798,-1.02418 -1.3086,-1.50391 -0.32061,-0.47972 -0.53212,-0.97466 -0.6582,-1.58984 -0.25217,-1.23037 -0.16023,-2.94609 0.10156,-6.00781 0.31353,-3.66686 1.30481,-10.94297 2.20313,-16.16797 0.5398,-3.13973 1.01913,-8.14121 1.43359,-14.91992 0.41446,-6.77872 0.76403,-15.33466 1.04297,-25.58008 0.46419,-17.05 1.29044,-35.5 1.83594,-41 0.7428,-7.48943 1.52416,-18.87476 2.25,-32.38281 0.72583,-13.50806 1.39615,-29.13885 1.91406,-45.11719 0.33673,-10.38874 0.70382,-18.25976 1.16797,-24.53516 0.46415,-6.27539 1.02535,-10.95515 1.7539,-14.96484 1.09928,-6.05 2.48191,-16.175 3.07227,-22.5 0.63464,-6.79929 1.47165,-14.41322 2.42383,-22.14258 0.95218,-7.72936 2.01952,-15.57416 3.11718,-22.83789 0.87104,-5.76403 2.44476,-19.71403 3.49805,-31 1.0533,-11.28597 2.80042,-25.91953 3.88086,-32.51953 0.92219,-5.63324 1.65824,-10.79907 2.22461,-15.83985 0.56637,-5.04077 0.96217,-9.95661 1.20508,-15.08593 0.24291,-5.12933 0.33334,-10.47221 0.28516,-16.3711 -0.0482,-5.89888 -0.2341,-12.35366 -0.54102,-19.70312 -0.62015,-14.85 -1.5852,-44.775 -2.14648,-66.5 -0.85623,-33.14092 -1.5247,-54.50418 -2.25977,-69.21289 -0.36754,-7.35436 -0.75045,-13.04514 -1.18359,-17.71289 -0.43315,-4.66776 -0.91584,-8.31209 -1.47852,-11.57422 -0.56921,-3.3 -1.19418,-8.10078 -1.74219,-13.17578 -0.54801,-5.075 -1.01907,-10.42422 -1.28125,-14.82422 -0.52435,-8.8 -1.64248,-22.975 -2.48437,-31.5 -0.84189,-8.525 -2.01197,-21.8 -2.60157,-29.5 -0.34486,-4.50396 -0.70978,-8.39545 -1.1289,-11.83789 -0.41912,-3.44244 -0.89269,-6.43621 -1.45313,-9.14063 -0.56044,-2.70442 -1.20775,-5.12026 -1.97656,-7.41015 -0.76881,-2.2899 -1.65889,-4.45348 -2.70312,-6.65235 -1.09193,-2.29928 -3.20834,-6.18463 -5.87891,-10.87109 -2.67057,-4.68646 -5.89582,-10.173378 -9.20117,-15.675782 -3.30535,-5.502405 -6.69123,-11.020462 -9.6875,-15.767579 -2.99627,-4.747117 -5.60238,-8.723936 -7.34571,-11.144531 -2.97083,-4.125 -6.56123,-9.154354 -7.97851,-11.177734 -0.50866,-0.72619 -1.09066,-1.400279 -1.83594,-2.080078 -0.74528,-0.6798 -1.65411,-1.366071 -2.8125,-2.113282 -2.31677,-1.494422 -5.63595,-3.236708 -10.66406,-5.683593 -3.73548,-1.817843 -7.40866,-3.422818 -11.0957,-4.837891 -3.68705,-1.415073 -7.38743,-2.640293 -11.17969,-3.695312 -3.79226,-1.05502 -7.67544,-1.940054 -11.72656,-2.677735 -4.05113,-0.73768 -8.27073,-1.327958 -12.73438,-1.791015 -3.06694,-0.318164 -6.76582,-0.57668 -10.97266,-0.777344 -4.20683,-0.200665 -8.92163,-0.343478 -14.01757,-0.431641 -7.64392,-0.132245 -16.1478,-0.14007 -25.08985,-0.0332 z"
       style="color:#000000;clip-rule:nonzero;display:inline;overflow:visible;visibility:visible;opacity:1;isolation:auto;mix-blend-mode:normal;color-interpolation:sRGB;color-interpolation-filters:linearRGB;solid-color:#000000;solid-opacity:1;fill:#ffffff;fill-opacity:1;fill-rule:nonzero;stroke:none;stroke-width:1;stroke-linecap:butt;stroke-linejoin:miter;stroke-miterlimit:4;stroke-dasharray:none;stroke-dashoffset:0;stroke-opacity:1;color-rendering:auto;image-rendering:auto;shape-rendering:auto;text-rendering:auto;enable-background:accumulate" />
    <path
       id="path4739"
       d="m 599.70703,12.351562 c -9.44089,-0.09791 -19.88982,0.07523 -32.15625,0.539063 -12.26643,0.463837 -26.35037,1.218368 -43.0625,2.283203 -12.62134,0.804185 -25.0192,1.890161 -37.16601,3.253906 -12.14682,1.363746 -24.04212,3.005775 -35.65821,4.919922 -11.61608,1.914147 -22.95327,4.101253 -33.98242,6.556641 -5.51457,1.227694 -10.95129,2.521525 -16.30859,3.882812 -5.3573,1.361287 -10.63513,2.789468 -15.82813,4.283203 -7.45698,2.14496 -19.83299,5.538246 -27.5039,7.541016 -7.15594,1.868318 -13.78201,3.819655 -19.93164,5.876953 -6.14964,2.057299 -11.82275,4.221313 -17.07618,6.515625 -5.25343,2.294313 -10.08542,4.717515 -14.55273,7.296875 -4.46731,2.57936 -8.57004,5.314123 -12.36133,8.226563 -1.40219,1.077155 -2.92608,2.623794 -4.5332,4.5625 -1.60712,1.938705 -3.29675,4.269643 -5.03321,6.916015 -1.73646,2.646373 -3.52033,5.608439 -5.31054,8.808594 -1.79022,3.200155 -3.58709,6.638227 -5.35547,10.238277 -1.76838,3.60006 -3.50678,7.36097 -5.17774,11.20704 -1.67095,3.84607 -3.27548,7.77664 -4.77343,11.71484 -1.49795,3.9382 -2.88932,7.88527 -4.13867,11.76172 -1.24936,3.87645 -2.35608,7.68294 -3.28126,11.34375 -1.18146,4.675 -4.61527,15.79889 -7.6289,24.71875 -1.96694,5.8218 -3.54106,11.05918 -4.88477,16.34765 -1.34371,5.28847 -2.457,10.62803 -3.5,16.65235 -1.59802,9.23014 -3.78828,20.60625 -4.86718,25.28125 -0.607,2.63021 -1.14111,5.24774 -1.63086,8.0957 -0.48976,2.84797 -0.93557,5.92723 -1.36719,9.47852 -0.86324,7.10257 -1.66891,16.0965 -2.6543,28.92578 -0.86708,11.28907 -1.33052,19.74608 -1.40625,26.65234 -0.0379,3.45313 0.0211,6.51954 0.17578,9.35742 0.15472,2.83789 0.40427,5.44729 0.74805,7.99024 0.32386,2.39553 0.70147,7.76518 1.08398,14.83594 0.38252,7.07075 0.76973,15.84262 1.11524,25.04101 0.69102,18.39678 1.21259,38.50122 1.18164,50.12305 -0.0338,12.68985 -0.56626,34.40284 -1.23438,54.28711 -0.66811,19.88426 -1.47187,37.9398 -2.04492,43.31445 -0.25216,2.36511 -0.5572,9.11602 -0.8457,18.08789 -0.2885,8.97188 -0.56046,20.16472 -0.74609,31.41211 -0.2692,16.31026 -0.56602,27.82492 -1.04883,37.80469 -0.48282,9.97977 -1.15163,18.42466 -2.16406,28.59375 -1.08686,10.91638 -1.7271,18.63895 -2.10938,27.64648 -0.38228,9.00753 -0.5066,19.30001 -0.56445,35.35352 -0.0639,17.73431 -0.0604,27.40766 0.28711,35.24804 0.17375,3.9202 0.4344,7.38154 0.81445,11.16407 0.38005,3.78252 0.87985,7.88582 1.53516,13.08789 1.52426,12.1 3.41564,27.175 4.20507,33.5 0.39472,3.1625 0.76019,7.55664 1.0293,12.08789 0.26912,4.53125 0.44188,9.19961 0.45508,12.91211 0.02,5.6442 0.12841,11.06022 0.32812,16.26758 0.19972,5.20736 0.49063,10.20652 0.87696,15.01367 0.38633,4.80714 0.86737,9.42363 1.44726,13.86719 0.57989,4.44355 1.25867,8.71348 2.03906,12.83007 0.7804,4.1166 1.66255,8.07999 2.6504,11.90625 0.98784,3.82627 2.08097,7.51533 3.2832,11.08789 1.20223,3.57257 2.51393,7.02733 3.9375,10.38282 1.42356,3.35549 2.95949,6.61206 4.61133,9.78711 1.67382,3.21729 3.60281,6.27207 5.77929,9.1582 2.17649,2.88613 4.60071,5.60321 7.26563,8.14453 2.66492,2.54132 5.56985,4.90697 8.70898,7.08984 3.13913,2.18288 6.51223,4.18336 10.11133,5.99415 2.55159,1.28376 8.40219,3.45322 15.92188,6.00976 7.51968,2.55654 16.70899,5.50079 25.93554,8.33008 9.22656,2.82928 18.4899,5.54448 26.16211,7.64648 7.67221,2.102 13.75273,3.59016 16.60938,3.96485 12.45847,1.63408 22.85698,3.13717 31.92578,4.62695 9.0688,1.48978 16.8079,2.96625 23.94531,4.55078 6.05,1.34313 21.35,4.2637 34,6.49024 12.65,2.22654 26.15,4.64595 30,5.37695 1.33068,0.25265 3.6178,0.45849 6.66406,0.61914 3.04627,0.16065 6.85132,0.27543 11.22071,0.34961 8.73877,0.14835 19.73172,0.12924 31.4082,-0.0352 11.67648,-0.16439 24.03725,-0.4733 35.51172,-0.90625 11.47446,-0.43294 22.06258,-0.98919 30.19531,-1.64648 14.03441,-1.13428 24.16855,-2.12527 32.16406,-3.21485 3.99776,-0.54479 7.46005,-1.11464 10.60938,-1.73828 3.14933,-0.62363 5.9848,-1.30195 8.72656,-2.06445 5.12101,-1.42417 9.44647,-2.72057 13.38867,-4.08594 3.94221,-1.36536 7.50128,-2.79954 11.08985,-4.49609 3.58856,-1.69655 7.20554,-3.65649 11.26562,-6.07422 4.06008,-2.41773 8.56317,-5.29337 13.91992,-8.82227 5.13209,-3.38089 9.64527,-6.37063 13.6211,-9.08789 3.97583,-2.71726 7.41456,-5.16207 10.39844,-7.45117 2.98387,-2.2891 5.51175,-4.42313 7.66796,-6.51953 2.15622,-2.0964 3.94074,-4.15575 5.4336,-6.29492 1.49285,-2.13918 2.69565,-4.35798 3.68945,-6.77539 0.9938,-2.41742 1.77846,-5.03372 2.4375,-7.96485 0.65904,-2.93112 1.1911,-6.17712 1.67969,-9.85742 0.48858,-3.6803 0.93359,-7.79404 1.41601,-12.45898 0.65408,-6.32474 1.21436,-13.87081 1.66016,-21.76367 0.4458,-7.89287 0.77715,-16.1324 0.9707,-23.8418 0.19355,-7.7094 0.24918,-14.88973 0.14649,-20.66406 -0.10269,-5.77433 -0.36373,-10.1428 -0.80664,-12.23047 -0.70012,-3.3 -1.23972,-7.125 -1.19922,-8.5 0.0405,-1.375 0.47191,-17.371 0.96094,-35.54688 0.48904,-18.17589 1.18198,-33.5199 1.53906,-34.09765 0.3498,-0.566 1.16625,-12.79368 2.07617,-29.74805 0.90992,-16.95437 1.9133,-38.63542 2.63867,-58.10742 0.30114,-8.08381 0.68453,-14.94028 1.1582,-20.66016 0.47368,-5.71988 1.03762,-10.30318 1.69922,-13.83984 1.08033,-5.775 2.48459,-16.35 3.11914,-23.5 0.65937,-7.42959 1.19483,-12.82312 1.91797,-18.72461 0.72314,-5.90149 1.63394,-12.31093 3.04493,-21.77539 1.10693,-7.425 2.48416,-18.9 3.06054,-25.5 0.86139,-9.86356 1.622,-17.44995 2.45313,-24.15235 0.83113,-6.70239 1.73277,-12.52077 2.8789,-18.84765 0.50925,-2.81111 0.9002,-5.14688 1.19727,-7.73828 0.29707,-2.59141 0.5011,-5.43853 0.63867,-9.27344 0.27515,-7.66982 0.28313,-19.28979 0.23633,-40.71289 -0.0274,-12.57443 -0.17934,-26.39922 -0.40234,-38.54297 -0.22301,-12.14375 -0.51714,-22.60646 -0.82813,-28.45703 -0.62198,-11.70113 -1.57574,-38.82539 -2.11914,-60.27539 -0.40084,-15.8229 -0.74352,-26.09097 -1.18945,-33.51953 -0.22297,-3.71428 -0.4702,-6.71995 -0.76563,-9.35352 -0.29543,-2.63357 -0.63818,-4.89552 -1.04687,-7.12695 -0.55404,-3.025 -1.16896,-7.46328 -1.71485,-12.17578 -0.54589,-4.7125 -1.02274,-9.69922 -1.29687,-13.82422 -0.71642,-10.78023 -1.44131,-20.38291 -2.44727,-31.96289 -1.00595,-11.57998 -2.29296,-25.13725 -4.13672,-43.82813 -0.40967,-4.15307 -0.87016,-7.76089 -1.45117,-11.04297 -0.58101,-3.28207 -1.28256,-6.23801 -2.17187,-9.08789 -0.88932,-2.84988 -1.96619,-5.59468 -3.30079,-8.45117 -1.33459,-2.85649 -2.9269,-5.82505 -4.84374,-9.12695 -2.39469,-4.125005 -7.61347,-13.125002 -11.59766,-20.000002 -1.99209,-3.4375 -4.61436,-7.6875 -7.23438,-11.765625 -2.62001,-4.078125 -5.23776,-7.984375 -7.2207,-10.734375 -3.96588,-5.5 -8.21558,-11.642984 -9.44336,-13.652344 -0.93265,-1.52634 -1.99833,-2.948431 -3.26953,-4.320312 -1.2712,-1.371882 -2.74702,-2.693402 -4.49805,-4.017578 -1.75103,-1.324177 -3.77825,-2.651932 -6.15039,-4.035156 -2.37213,-1.383225 -5.09009,-2.822069 -8.22461,-4.371094 -5.83359,-2.88286 -10.97148,-5.210784 -16.01367,-7.113282 -2.52109,-0.951248 -5.01779,-1.795726 -7.56641,-2.550781 -2.54861,-0.755054 -5.14862,-1.42026 -7.875,-2.011719 -2.72637,-0.591458 -5.57842,-1.109853 -8.63281,-1.570312 -3.05439,-0.460459 -6.3111,-0.862551 -9.84375,-1.224609 -7.06529,-0.724118 -15.23737,-1.284447 -25.11718,-1.810547 -5.63811,-0.300228 -11.48342,-0.485504 -17.77735,-0.550782 z M 585.9082,30.78125 c 8.94205,-0.106867 17.44593,-0.09904 25.08985,0.0332 5.09594,0.08816 9.81074,0.230976 14.01757,0.431641 4.20684,0.200664 7.90572,0.45918 10.97266,0.777344 4.46365,0.463057 8.68325,1.053335 12.73438,1.791015 4.05112,0.737681 7.9343,1.622715 11.72656,2.677735 3.79226,1.055019 7.49264,2.280239 11.17969,3.695312 3.68704,1.415073 7.36022,3.020048 11.0957,4.837891 5.02811,2.446885 8.34729,4.189171 10.66406,5.683593 1.15839,0.747211 2.06722,1.433482 2.8125,2.113282 0.74528,0.679799 1.32728,1.353888 1.83594,2.080078 1.41728,2.02338 5.00768,7.052734 7.97851,11.177734 1.74333,2.420595 4.34944,6.397414 7.34571,11.144531 2.99627,4.747117 6.38215,10.265174 9.6875,15.767579 3.30535,5.502404 6.5306,10.989325 9.20117,15.675785 2.67057,4.68646 4.78698,8.57181 5.87891,10.87109 1.04423,2.19887 1.93431,4.36245 2.70312,6.65235 0.76881,2.28989 1.41612,4.70573 1.97656,7.41015 0.56044,2.70442 1.03401,5.69819 1.45313,9.14063 0.41912,3.44244 0.78404,7.33393 1.1289,11.83789 0.5896,7.7 1.75968,20.975 2.60157,29.5 0.84189,8.525 1.96002,22.7 2.48437,31.5 0.26218,4.4 0.73324,9.74922 1.28125,14.82422 0.54801,5.075 1.17298,9.87578 1.74219,13.17578 0.56268,3.26213 1.04537,6.90646 1.47852,11.57422 0.43314,4.66775 0.81605,10.35853 1.18359,17.71289 0.73507,14.70871 1.40354,36.07197 2.25977,69.21289 0.56128,21.725 1.52633,51.65 2.14648,66.5 0.30692,7.34946 0.49283,13.80424 0.54102,19.70312 0.0482,5.89889 -0.0422,11.24177 -0.28516,16.3711 -0.24291,5.12932 -0.63871,10.04516 -1.20508,15.08593 -0.56637,5.04078 -1.30242,10.20661 -2.22461,15.83985 -1.08044,6.6 -2.82756,21.23356 -3.88086,32.51953 -1.05329,11.28597 -2.62701,25.23597 -3.49805,31 -1.09766,7.26373 -2.165,15.10853 -3.11718,22.83789 -0.95218,7.72936 -1.78919,15.34329 -2.42383,22.14258 -0.59036,6.325 -1.97299,16.45 -3.07227,22.5 -0.72855,4.00969 -1.28975,8.68945 -1.7539,14.96484 -0.46415,6.2754 -0.83124,14.14642 -1.16797,24.53516 -0.51791,15.97834 -1.18823,31.60913 -1.91406,45.11719 -0.72584,13.50805 -1.5072,24.89338 -2.25,32.38281 -0.5455,5.5 -1.37175,23.95 -1.83594,41 -0.27894,10.24542 -0.62851,18.80136 -1.04297,25.58008 -0.41446,6.77871 -0.89379,11.78019 -1.43359,14.91992 -0.89832,5.225 -1.8896,12.50111 -2.20313,16.16797 -0.26179,3.06172 -0.35373,4.77744 -0.10156,6.00781 0.12608,0.61518 0.33759,1.11012 0.6582,1.58984 0.32062,0.47973 0.74942,0.94473 1.3086,1.50391 1.33938,1.33938 2.96961,2.61523 3.62304,2.83398 0.21896,0.0733 0.35316,0.95482 0.41406,2.47461 0.0609,1.5198 0.0476,3.67719 -0.0254,6.30078 -0.14595,5.2472 -0.53386,12.3606 -1.07031,19.9668 -0.53645,7.60621 -1.22147,15.70605 -1.95508,22.92969 -0.7336,7.22363 -1.5165,13.57044 -2.2539,17.66992 -0.47711,2.65241 -1.0899,4.97176 -1.94336,7.0957 -0.85347,2.12395 -1.94733,4.05331 -3.39063,5.92579 -1.44329,1.87247 -3.23582,3.68795 -5.48242,5.58593 -2.2466,1.89799 -4.94755,3.87764 -8.21094,6.07813 -8.76161,5.90792 -15.67904,10.52993 -21.39453,14.21875 -5.71549,3.68881 -10.22883,6.44483 -14.18164,8.62109 -3.9528,2.17626 -7.3448,3.77231 -10.81836,5.14258 -3.47356,1.37026 -7.02889,2.51433 -11.30664,3.78516 -3.42141,1.01642 -6.62007,1.88829 -9.75781,2.64453 -3.13774,0.75624 -6.21492,1.39728 -9.39063,1.94922 -3.17571,0.55193 -6.451,1.01445 -9.98632,1.41796 -3.53533,0.40352 -7.33031,0.74762 -11.54688,1.0586 -7.7,0.56789 -18.05,1.46473 -23,1.99414 -2.475,0.26471 -8.78001,0.56112 -16.94336,0.82422 -8.16334,0.2631 -18.18503,0.49289 -28.0957,0.62695 -19.82135,0.26814 -36.69635,0.66001 -37.5,0.87109 -0.53928,0.14164 -1.24501,0.20834 -2.22656,0.1875 -0.98156,-0.0208 -2.23828,-0.12833 -3.88086,-0.33984 -3.28517,-0.42301 -8.11179,-1.25644 -15.35352,-2.61133 -7.15,-1.33773 -18.85,-3.37584 -26,-4.52734 -7.15,-1.15151 -18.85,-3.39184 -26,-4.97852 -7.82189,-1.73578 -15.82087,-3.31133 -24.30273,-4.78125 -8.48186,-1.46991 -17.44661,-2.8342 -27.19922,-4.14453 -3.78119,-0.50803 -8.03812,-1.26412 -12.78321,-2.27344 -4.74508,-1.00931 -9.97744,-2.27193 -15.71093,-3.78906 -5.7335,-1.51713 -11.96843,-3.28883 -18.71485,-5.32031 -6.74641,-2.03148 -14.0052,-4.32266 -21.78906,-6.875 -3.6385,-1.19307 -6.97054,-2.34384 -10.03125,-3.48047 -3.06071,-1.13663 -5.84998,-2.25895 -8.40625,-3.39258 -2.55627,-1.13363 -4.87873,-2.27881 -7.0039,-3.46289 -2.12518,-1.18408 -4.05287,-2.40733 -5.82032,-3.69531 -1.76744,-1.28798 -3.37436,-2.64062 -4.85742,-4.08594 -1.48306,-1.44532 -2.8432,-2.98256 -4.11523,-4.63867 -1.27204,-1.65611 -2.45549,-3.43122 -3.58985,-5.35156 -1.13436,-1.92035 -2.21902,-3.98659 -3.28906,-6.22461 -1.45709,-3.04757 -2.77926,-5.98057 -3.98047,-8.88086 -1.20121,-2.90029 -2.2817,-5.76713 -3.25586,-8.6836 -0.97416,-2.91646 -1.84124,-5.88243 -2.61719,-8.97851 -0.77594,-3.09608 -1.45985,-6.32257 -2.0664,-9.76172 -0.60655,-3.43915 -1.13557,-7.09145 -1.60156,-11.03711 -0.46599,-3.94565 -0.87035,-8.18517 -1.22461,-12.80078 -0.70852,-9.23122 -1.22168,-19.96572 -1.65625,-32.85742 -0.35227,-10.45 -1.0518,-22.375 -1.55274,-26.5 -2.37106,-19.52467 -3.90516,-32.81845 -4.93945,-43.30274 -1.03429,-10.48429 -1.56876,-18.15909 -1.94141,-26.44531 -0.47645,-10.58677 -0.68635,-20.03677 -0.46679,-21 0.21956,-0.96324 0.88708,-11.65195 1.48242,-23.75195 0.59534,-12.1 1.49475,-25.375 1.99804,-29.5 0.50329,-4.125 1.34419,-21 1.86915,-37.5 1.09951,-34.55937 1.8576,-56.90199 2.45507,-71.4336 0.59748,-14.53161 1.03434,-21.25221 1.49219,-24.5664 0.26594,-1.925 0.57808,-9.13203 0.86524,-19.19141 0.28715,-10.05937 0.54931,-22.97109 0.71874,-36.30859 0.15583,-12.26597 0.21317,-24.31769 0.17579,-35.9375 -0.0374,-11.61981 -0.1692,-22.8079 -0.39063,-33.3457 -0.22143,-10.53781 -0.53335,-20.42538 -0.92969,-29.44532 -0.39633,-9.01994 -0.87736,-17.17206 -1.43945,-24.23828 -0.52996,-6.66243 -0.77775,-11.32736 -0.70703,-16.80664 0.0707,-5.47928 0.45995,-11.77292 1.20508,-21.69336 1.00872,-13.42984 1.71324,-21.71871 2.57617,-28.50976 0.43146,-3.39553 0.90207,-6.41742 1.4707,-9.51954 0.56863,-3.10211 1.2351,-6.28434 2.05664,-10.0039 1.33627,-6.05 3.39547,-16.85 4.57618,-24 0.71166,-4.30966 1.70651,-8.90737 2.9746,-13.75391 1.2681,-4.84654 2.80943,-9.9419 4.61329,-15.24609 2.99271,-8.8 6.49308,-20.275 7.77734,-25.5 0.79595,-3.23831 1.65236,-6.37459 2.5957,-9.47852 0.94335,-3.10393 1.97386,-6.17624 3.11719,-9.28906 1.14333,-3.11282 2.39903,-6.26432 3.79492,-9.5293 1.3959,-3.26498 2.93176,-6.64271 4.63281,-10.20312 3.12793,-6.54693 6.21074,-12.40474 9.00977,-17.16992 1.39952,-2.382598 2.727,-4.49204 3.95508,-6.277351 1.22807,-1.78531 2.35636,-3.247184 3.35351,-4.333984 0.86337,-0.940981 1.96639,-1.932432 3.27735,-2.957031 1.31095,-1.024599 2.83014,-2.0833 4.52344,-3.160156 3.38658,-2.153713 7.47166,-4.380108 11.99609,-6.554688 4.52443,-2.17458 9.48862,-4.295671 14.62891,-6.240234 5.14028,-1.944563 10.45726,-3.712119 15.6914,-5.175781 26.09398,-7.296861 40.41541,-11.26773 51.74024,-14.13086 5.66241,-1.431565 10.57499,-2.585267 15.83593,-3.740234 5.26095,-1.154968 10.87047,-2.311213 17.92383,-3.744141 12.32976,-2.504855 21.8274,-4.242163 31.61914,-5.667969 9.79174,-1.425806 19.87757,-2.54011 33.38086,-3.796875 7.77473,-0.723601 16.37731,-1.357788 25.38477,-1.892578 9.00745,-0.53479 18.41984,-0.969616 27.8164,-1.298828 9.39656,-0.329211 18.77671,-0.551336 27.71875,-0.658203 z"
       style="color:#000000;clip-rule:nonzero;display:inline;overflow:visible;visibility:visible;opacity:1;isolation:auto;mix-blend-mode:normal;color-interpolation:sRGB;color-interpolation-filters:linearRGB;solid-color:#000000;solid-opacity:1;fill:#000000;fill-opacity:1;fill-rule:nonzero;stroke:none;stroke-width:1;stroke-linecap:butt;stroke-linejoin:miter;stroke-miterlimit:4;stroke-dasharray:none;stroke-dashoffset:0;stroke-opacity:1;color-rendering:auto;image-rendering:auto;shape-rendering:auto;text-rendering:auto;enable-background:accumulate" />
    <path
       id="path5470"
       d="m 425.28516,80.238281 c -1.98444,-0.0054 -3.90566,0.01597 -5.76758,0.06445 -26.0669,0.67873 -40.62038,6.803171 -56.99805,22.777349 -19.92919,19.4382 -29.07948,33.70407 -35.59961,55.5 -6.8886,23.02769 -2.79428,58.88851 9.30469,81.5 7.45053,13.92414 23.95122,33.68788 34.88086,41.77734 6.01219,4.44986 7.5731,6.22266 5.47461,6.22266 -1.08976,0 -11.44945,8.34156 -15.04102,12.11133 -7.7556,8.14043 -10.42553,11.40463 -14.56445,17.80273 -8.41673,13.01094 -16.2578,32.29996 -19.07422,46.92383 -1.68752,8.76218 -1.82244,26.73873 -0.32617,43.49023 0.87484,9.7943 1.97536,14.90675 5.63281,26.17188 7.20602,22.19484 12.65489,32.33984 24.56445,45.74023 3.31502,3.73 5.84413,6.9391 5.6211,7.13086 -0.22303,0.19176 -4.5317,2.46522 -9.57617,5.05078 -11.83811,6.06767 -19.99281,13.60581 -28.74414,26.57422 -7.47695,11.07993 -10.05242,16.65989 -14.01954,30.36719 -2.29959,7.94562 -2.56445,10.59895 -2.56445,25.66211 0,23.54993 3.10045,37.52184 12.91406,58.17773 3.86548,8.13617 14.62691,23.31954 20.41016,28.79688 2.8161,2.66715 3.47766,4.99202 1.42578,5.01562 -2.53674,0.0292 -21.46899,9.88818 -28.26367,14.71875 -7.8858,5.60628 -19.77525,17.36592 -25.0293,24.75586 -4.79553,6.74502 -9.96479,17.92768 -11.58398,25.0625 -0.88059,3.88029 -1.35333,12.72535 -1.36133,25.44727 -0.013,20.78334 0.78666,26.12064 7.20117,48 9.10696,31.06309 29.79263,56.14801 54.01758,65.50781 4.82216,1.86313 7.44092,3.45831 7.86328,4.78906 1.09929,3.46356 8.62815,10.78158 13.86524,13.47657 6.46432,3.32652 18.36726,4.0245 38.04101,2.23242 22.93577,-2.08921 36.6942,-7.111 50.75,-18.52344 3.7125,-3.01432 6.75,-5.09632 6.75,-4.62695 0,1.87729 21.02598,22.29025 28.9707,28.125 13.08417,9.60926 28.97734,16.83011 41.78516,18.98633 8.04293,1.35401 31.19876,1.08856 40.68945,-0.4668 10.62963,-1.742 20.22821,-4.79098 24.76563,-7.86524 1.80845,-1.22528 8.01406,-4.62558 13.78906,-7.55664 12.77791,-6.48534 22.00137,-12.48883 28.03906,-18.24804 2.49681,-2.38165 6.86703,-6.40803 9.71289,-8.94922 6.79648,-6.06887 26.15271,-31.87781 29.16016,-38.88086 4.07944,-9.49924 5.53875,-21.50417 4.38086,-36.05664 -0.92728,-11.65409 -1.30302,-13.22704 -4.77344,-20.04492 -7.02249,-13.79615 -19.36486,-26.2888 -32.50781,-32.90235 -5.37796,-2.7062 -12.47809,-5.61201 -20.92578,-8.56445 -0.82745,-0.28919 3.00956,-3.20951 9.25586,-7.04297 5.86878,-3.60176 13.15522,-8.81885 16.1914,-11.59375 16.57565,-15.1492 31.56333,-43.83817 37.05079,-70.91992 1.37426,-6.78228 1.57758,-11.77198 1.10937,-27.33594 -0.97773,-32.50101 -4.03455,-44.46285 -17.63867,-69.03906 -9.7887,-17.68354 -20.92861,-28.87878 -36.58203,-36.76172 -8.41957,-4.24003 -16.41243,-6.71867 -21.9043,-6.79297 -3.76536,-0.051 -3.5468,-0.19253 2.93164,-1.90234 22.57915,-5.95913 43.39078,-17.76662 60.21094,-34.16211 16.40753,-15.99326 23.68375,-28.21588 26.39648,-44.33985 2.34957,-13.96539 -0.71849,-35.89105 -6.67382,-47.69531 -3.3489,-6.63797 -13.93579,-22.20678 -20.97461,-30.8457 -11.84597,-14.53886 -38.66697,-38.29585 -50.27344,-44.53125 l -5.31445,-2.85547 5.6582,-3.05664 c 13.6107,-7.3522 38.99138,-29.40131 50.57226,-43.93555 8.37889,-10.51567 18.51214,-28.91481 21.27149,-38.62109 2.51345,-8.84125 3.81719,-25.60049 2.63867,-33.91016 -1.99612,-14.07446 -5.04089,-25.5038 -8.94531,-33.57031 -3.73035,-7.70691 -17.64896,-26.33737 -23.20703,-31.06445 -9.41237,-8.00512 -25.70746,-14.87291 -46.30664,-19.517585 -11.97258,-2.69956 -14.58616,-2.9375 -32.41016,-2.9375 -38.08039,0 -58.46017,5.725667 -74.18359,20.837895 l -7.13086,6.85156 -2.56055,-4.09375 c -7.39083,-11.8196 -19.42047,-23.090611 -30.79688,-28.855471 -11.67117,-5.91423 -16.77029,-6.989761 -35.52539,-7.488281 -2.11632,-0.05625 -4.16399,-0.08837 -6.14843,-0.09375 z m 10.96093,20.048829 c 1.67019,0.0126 3.06428,0.0578 4.09375,0.14258 14.9627,1.23211 33.36056,7.19805 41.77735,13.54687 8.0358,6.06143 14.09837,18.54881 15.94922,32.85352 0.43265,3.34379 1.15981,5.25 2.00195,5.25 0.72722,0 2.90695,-2.83593 4.8457,-6.30274 4.2197,-7.54554 16.56138,-19.81459 25.08399,-24.9375 13.27702,-7.98078 30.08244,-11.34014 52.49023,-10.49414 10.99159,0.41498 13.88774,0.92375 24,4.22071 14.45809,4.71386 22.06399,8.13685 30.13672,13.5625 17.65679,11.86705 24.87453,20.09046 30.83008,35.12695 4.0711,10.27866 7.41508,32.36649 6.48437,42.82422 -1.33708,15.02379 -5.72834,29.0595 -12.0957,38.65234 -8.16515,12.30132 -24.63995,27.46764 -36.12695,33.25781 -6.36675,3.20925 -27.65482,10.88719 -36.39649,13.12696 -11.02405,2.82454 -12.95713,2.55624 -15.3789,-2.12696 -1.39971,-2.70673 -1.91145,-2.91015 -7.32032,-2.91015 -7.50831,0 -19.77057,-3.14904 -28.6582,-7.35938 -8.18218,-3.87615 -17.64507,-12.21654 -24.06055,-21.20703 -5.9063,-8.27693 -13.98887,-25.3949 -16.30859,-34.54101 -1.26479,-4.98674 -2.40015,-7.49676 -3.49023,-7.71485 -0.88884,-0.17783 -1.61524,0.22204 -1.61524,0.88867 0,0.66662 -2.46247,6.29193 -5.4707,12.50196 -5.89833,12.17617 -17.00793,26.7289 -24.19727,31.69336 -5.36983,3.70804 -12.00993,6.45285 -17.58203,7.26953 -3.81741,0.5595 -4.75,1.08225 -4.75,2.66015 0,1.07986 -1.34506,3.30795 -2.98828,4.95118 l -2.98828,2.98632 L 417.25,277.875 c -15.26685,-0.2958 -17.93537,-0.60401 -23.08008,-2.66211 -11.78369,-4.71399 -33.78954,-23.92465 -40.54687,-35.39648 -5.18743,-8.80665 -10.72356,-23.20251 -13.16407,-34.23633 -2.74458,-12.40852 -3.84972,-39.31372 -2.00586,-48.80664 5.44935,-28.05535 25.74301,-48.55465 53.03516,-53.57422 6.74794,-1.24109 26.22037,-2.56004 39.00977,-2.85547 2.13156,-0.0492 4.07786,-0.0692 5.74804,-0.0566 z m 55.10157,168.69922 1.77148,3.79687 c 5.71511,12.25998 17.84352,29.49504 25.22852,35.85157 l 2.38672,2.05468 -2.8086,1.83985 c -2.76692,1.81295 -7.59278,5.89178 -12.18555,10.30078 -1.28908,1.2375 -2.66132,2.24061 -3.04882,2.22851 -0.3875,-0.0121 -4.11625,-3.5044 -8.28711,-7.76171 -4.17087,-4.25731 -11.9485,-11.03716 -17.28321,-15.06446 l -9.69921,-7.32226 4.05664,-2.9375 c 5.88964,-4.26643 11.78985,-10.56755 16.09765,-17.18946 l 3.77149,-5.79687 z m -78.5918,35.19336 c 1.89414,0.006 3.8749,0.0395 5.95898,0.10156 l 14.27344,0.42578 14,5.30469 c 7.7,2.91758 16.53734,6.58228 19.63867,8.14453 7.81671,3.93755 20.32386,14.23072 25.69141,21.14258 2.46935,3.17982 4.98084,5.76549 5.58008,5.74609 0.59925,-0.0194 3.11484,-3.04142 5.58984,-6.7168 2.475,-3.67534 7.63237,-9.30709 11.46289,-12.51562 12.83431,-10.7503 23.66674,-14.2858 47.03711,-15.35352 18.37659,-0.83957 33.60417,2.26295 52,10.59766 7.15,3.23949 16.82003,7.52578 21.49024,9.52344 9.60582,4.10884 12.10219,5.8232 23.92578,16.4414 7.44378,6.68491 8.91236,8.59918 12.69336,16.5586 5.35114,11.26474 6.52487,16.42017 6.60937,29 0.18042,26.8726 -14.85323,54.81383 -39.50976,73.42969 -8.82986,6.66661 -22.57929,11.93665 -31.40039,12.03515 -3.77702,0.0422 -4.81604,1.37546 -4.44336,5.70117 0.30147,3.49911 -2.59637,7.33399 -5.54102,7.33399 -0.92115,0 -4.99558,1.14585 -9.05469,2.54687 -5.04865,1.74256 -11.2338,2.8617 -19.57617,3.54102 -25.64978,2.08861 -32.80621,2.10331 -37.82422,0.0723 -7.95023,-3.21787 -15.75607,-8.16076 -21.94922,-13.89453 -6.65284,-6.15936 -15.73474,-19.14131 -18.72461,-26.76562 -1.12965,-2.88066 -2.59217,-5 -3.44921,-5 -0.81821,0 -3.17198,2.025 -5.23047,4.5 -7.72161,9.284 -22.60192,20.39223 -32.05664,23.92969 -7.64869,2.86174 -18.67319,3.81137 -21.67188,1.86718 -3.40929,-2.2104 -10.1538,-2.95863 -15.00195,-1.66406 -3.77615,1.00833 -5.35694,0.82416 -13.28516,-1.55273 -14.31341,-4.29116 -26.59207,-10.81631 -33.89453,-18.01172 -8.19587,-8.07572 -19.83597,-24.98152 -22.99805,-33.40039 -6.93059,-18.45236 -8.33712,-32.2702 -5.53906,-54.41602 2.68445,-21.24665 4.19803,-27.57116 8.95313,-37.40625 6.20849,-12.8412 15.77112,-20.35934 33.52734,-26.36133 8.94718,-3.02433 16.85264,-4.48255 27.2793,-4.8125 1.73777,-0.055 3.54531,-0.0778 5.43945,-0.0723 z m 75.28516,172.07226 6.33398,8.49024 c 9.41935,12.62648 24.99217,24.01069 36.94922,27.01172 2.07627,0.52111 1.42252,1.06097 -4.7793,3.93359 -3.95275,1.83088 -10.95176,6.26864 -15.55273,9.86133 -4.60096,3.59269 -8.50982,6.5176 -8.68555,6.5 -0.17573,-0.0176 -3.01836,-4.5875 -6.31836,-10.1543 -6.68589,-11.27848 -14.1201,-19.49357 -22.76953,-25.16406 -3.17264,-2.07994 -5.50674,-4.20415 -5.1875,-4.7207 0.31925,-0.51654 3.32103,-2.80066 6.67187,-5.07618 3.35087,-2.27552 7.7226,-5.61027 9.71485,-7.41015 l 3.62305,-3.27149 z m -79.79688,15.91211 c 11.67253,0.0648 22.14445,1.95786 30.90039,5.63672 9.53646,4.00679 24.0848,14.15488 31.00586,21.62695 9.68678,10.45798 18.79942,26.41258 22.36133,39.15235 1.80255,6.44711 3.9384,8.06334 5.66797,4.28906 0.57691,-1.25894 3.97362,-5.88906 7.54687,-10.28906 20.20457,-24.87936 39.30465,-34.35536 69.47656,-34.46875 10.21935,-0.0384 28.34075,2.43131 36.57227,4.98437 14.22205,4.41107 33.4127,20.4724 41.28906,34.55664 4.81951,8.61808 12.92286,30.16091 14.90039,39.61524 0.84132,4.02222 1.81627,13.6125 2.16797,21.3125 0.81643,17.87488 -0.84189,27.04132 -7.3164,40.44336 -3.75602,7.77485 -5.92243,10.77799 -12.26368,17 -8.56349,8.40247 -19.83763,15.61744 -32.31445,20.67773 -9.52002,3.86109 -11.96609,4.08118 -16.76562,1.51563 -2.05163,-1.09668 -6.77501,-2.14017 -11.48438,-2.53711 -15.087,-1.27166 -31.00501,-3.82512 -38.5,-6.17774 -9.13251,-2.86663 -19.55514,-9.55701 -31.26367,-20.07031 -16.5032,-14.81852 -21.32451,-23.56988 -28.71289,-52.10156 -0.6053,-2.3375 -1.6462,-4.24142 -2.3125,-4.23242 -0.6663,0.009 -3.46094,3.23347 -6.21094,7.16601 -12.53515,17.92549 -29.50012,30.04928 -52,37.16211 -4.95,1.56482 -11.21997,3.81482 -13.93164,5 -4.14314,1.81081 -6.77749,2.14702 -16.5,2.10742 -24.25346,-0.0987 -38.36981,-8.6599 -52.79883,-32.02148 -9.40495,-15.22727 -11.44308,-21.13404 -14.82031,-42.93164 -1.32285,-8.53807 -1.58077,-14.69289 -1.14648,-27.5 0.63448,-18.71029 1.68444,-23.54067 7.81836,-36 5.21616,-10.59515 14.16154,-19.82356 24.3789,-25.15235 8.46464,-4.41468 12.03643,-5.46513 25,-7.35351 4.87199,-0.70969 9.60825,-1.15148 14.18164,-1.32617 1.71502,-0.0655 3.40672,-0.0932 5.07422,-0.084 z m 83.65234,160.21094 5.16797,8.74609 c 9.11897,15.43187 16.94335,24.49873 28.99414,33.59571 l 7.07227,5.33789 -0.44336,8.44336 c -0.24585,4.68399 0.0336,9.81149 0.62695,11.51367 0.80594,2.31192 0.77363,3.07284 -0.1289,3.08594 -5.29802,0.0766 -21.24409,2.30585 -25.69727,3.59179 -3.025,0.87352 -10.1125,3.76221 -15.75,6.41993 l -10.25,4.83203 0,-2.75782 c 0,-3.87863 -5.58246,-20.27226 -9.74023,-28.60351 -4.70997,-9.43774 -11.26349,-18.49294 -16.82422,-23.2461 l -4.58985,-3.92187 4.82618,-1.79492 c 10.94558,-4.06895 20.74556,-10.35747 30.9707,-19.875 l 5.76562,-5.36719 z m -115.84765,38.82227 c 2.4515,0.0232 5.14037,0.0729 8.11133,0.14257 17.52033,0.41098 22.0192,0.83715 28.32812,2.68164 29.61846,8.65933 39.81759,15.6261 51.41406,35.1211 10.43084,17.53546 14.64095,32.94207 14.94336,54.68359 0.16896,12.14669 1.24437,13.00073 6.54102,5.19336 9.30181,-13.71104 30.40157,-26.99474 49.60156,-31.22851 11.15962,-2.4608 31.48496,-4.02517 44.75586,-3.44336 14.06555,0.61664 18.54977,1.92006 39.24414,11.40429 16.54868,7.58426 20.51188,10.13678 25.4707,16.41016 11.65056,14.73907 11.43276,42.78566 -0.5332,68.74219 -4.44168,9.63489 -9.39326,16.23774 -15.58008,20.77929 -5.56525,4.08527 -19.96187,10.34548 -38.35742,16.67579 -10.66757,3.67092 -13.11036,4.14533 -22,4.2832 -5.5,0.0853 -14.725,0.65449 -20.5,1.26367 -11.59473,1.22309 -14.87636,1.25093 -23.02344,0.19922 -18.57037,-2.39724 -31.71402,-13.38779 -42.48828,-35.52539 -5.53298,-11.36848 -6.9275,-16.51421 -8.06054,-29.75 -0.76088,-8.88842 -2.0712,-9.82975 -4.71875,-3.39063 -6.40582,15.57966 -24.40521,36.31156 -37.20899,42.85547 -10.15342,5.18933 -25.14005,9.65871 -36.24805,10.81055 -14.3947,1.49266 -19.25774,-0.85605 -17.80468,-8.60156 0.69763,-3.71867 1.49745,-3.25465 -9.30274,-5.38868 -5.35578,-1.05825 -16.82968,-6.29214 -22.58789,-10.30273 -6.10486,-4.25203 -20.40423,-16.7673 -25.06445,-21.9375 -10.44238,-11.58513 -18.97132,-25.5791 -21.84766,-35.8457 -2.26473,-8.08353 -4.00836,-27.02455 -3.34179,-36.30274 0.78493,-10.92583 3.56817,-19.3779 9.9121,-30.08789 9.29144,-15.68604 20.35009,-25.51602 38.26954,-34.01953 8.04406,-3.81724 13.2574,-5.19244 25.38867,-5.40625 2.02187,-0.0356 4.236,-0.0389 6.6875,-0.0156 z"
       style="fill:url(#linearGradient4712)" />
    <path
       id="path5556"
       d="m 547.68164,833.08008 c -0.55368,0.0201 -0.79155,0.34971 -1.00976,1 -0.27684,0.825 -3.27488,4.425 -6.66211,8 -7.49938,7.91509 -10.52149,11.8319 -10.52149,13.63476 0,0.75083 0.46165,1.36524 1.02734,1.36524 2.23013,0 12.87557,-6.07134 18.08204,-10.3125 3.02481,-2.46399 6.87221,-5.31438 8.54882,-6.33399 4.17564,-2.53936 4.23815,-3.73739 0.23633,-4.49414 -1.8676,-0.35317 -4.92732,-1.25317 -6.80078,-2 -1.47671,-0.58867 -2.3467,-0.8795 -2.90039,-0.85937 z"
       style="fill:url(#linearGradient4712)" />
    <path
       id="path5554"
       d="m 529.98828,816.10352 c -20.13376,0 -19.37453,5.26688 1,6.9375 4.95,0.40588 10.0125,0.80577 11.25,0.88867 1.91793,0.12843 2.25,-0.34683 2.25,-3.21875 0,-3.11639 -0.28134,-3.41495 -3.75,-3.98828 -2.0625,-0.34091 -6.9,-0.61914 -10.75,-0.61914 z"
       style="fill:url(#linearGradient4712)" />
    <path
       id="path5552"
       d="m 370.52148,799.26562 c -1.01899,0.22391 -3.15535,0.97532 -7.2246,2.43165 -8.06241,2.88542 -9.8086,3.95465 -9.8086,6.00585 0,1.78878 0.61948,1.74534 7.17969,-0.51171 7.29106,-2.50849 12.62084,-5.3312 11.0625,-5.85743 -0.69093,-0.23331 -1.00034,-0.83487 -0.68945,-1.33789 0.40205,-0.65053 0.49946,-0.95437 -0.51954,-0.73047 z"
       style="fill:url(#linearGradient4712)" />
    <path
       id="path5550"
       d="m 584.07227,788.14453 c -1.08208,-0.0389 -2.56128,0.0632 -4.50977,0.22656 -7.32585,0.61417 -13.07422,2.86282 -13.07422,5.11329 0,0.74353 -0.675,1.91101 -1.5,2.5957 -0.85153,0.70671 -1.5,2.88683 -1.5,5.04297 0,3.41371 0.30554,3.86594 3.02344,4.46289 3.93845,0.86503 8.38889,4.66413 9.98828,8.52539 1.65912,4.00548 -0.21822,7.86044 -4.2168,8.66015 -2.47094,0.49419 -2.79492,0.99977 -2.79492,4.34961 0,2.90232 -0.69323,4.44331 -2.95508,6.57813 -2.21968,2.09502 -2.68573,3.10947 -1.87695,4.08398 0.59195,0.71326 1.60295,1.29688 2.24609,1.29688 0.64314,0 3.17495,2.06263 5.62696,4.58203 2.45202,2.5194 6.03398,5.42379 7.95898,6.45508 3.44826,1.84736 10.32664,2.54173 13.41797,1.35547 3.96768,-1.52254 -0.62315,-8.59504 -8.16016,-12.57422 -3.89365,-2.05566 -5.18279,-6.08302 -3.12109,-9.74805 1.37097,-2.43715 1.88087,-2.57142 9.9043,-2.60742 6.76618,-0.0304 9.30927,-0.48575 12.70898,-2.27149 10.1045,-5.30752 0.66958,-12.1914 -16.70898,-12.1914 -5.05216,0 -8.29667,-0.49068 -9.6875,-1.46485 -1.15013,-0.80559 -2.34431,-1.21038 -2.6543,-0.90039 -0.54588,0.54588 -0.47158,-0.0401 0.75391,-5.86523 0.35303,-1.6781 1.7248,-3.32811 3.55664,-4.27539 1.70111,-0.87968 3.6287,-3.08608 4.48633,-5.13867 2.00118,-4.78953 2.3341,-6.17428 -0.91211,-6.29102 z"
       style="fill:url(#linearGradient4712)" />
    <path
       id="path5548"
       d="m 359.5332,773.2793 c -7.04868,-0.42217 -6.6002,1.60528 1.20508,5.46289 7.01733,3.46818 8.85649,2.78277 5.74805,-2.14258 -1.65021,-2.61477 -2.58204,-3.05851 -6.95313,-3.32031 z m 33.54492,3.74023 c -1.56609,-0.24228 -3.42535,0.25728 -5.36132,1.61328 -5.11556,3.58308 -5.20766,8.56188 -0.19141,10.31055 1.76817,0.61639 3.39902,2.15761 4.05664,3.83398 0.60477,1.54163 1.69658,4.15274 2.42578,5.80274 0.72919,1.65 1.60951,7.5 1.95703,13 0.6871,10.87449 1.88433,16.74991 4.12696,20.25 1.14533,1.78752 2.36893,2.25 5.95117,2.25 2.47999,0 6.06922,-0.65229 7.97656,-1.44922 3.39617,-1.41903 3.46697,-1.56887 3.44727,-7.25 -0.0111,-3.19057 -0.4404,-8.72578 -0.95508,-12.30078 -0.83731,-5.81603 -1.35623,-6.86829 -4.93164,-10 -2.45336,-2.1489 -4.32714,-4.8511 -4.85352,-7 -0.60911,-2.48665 -1.48493,-3.59123 -3.02734,-3.81641 -2.96044,-0.4322 -6.21094,-4.81886 -6.21094,-8.38281 0,-3.99329 -1.8,-6.45753 -4.41016,-6.86133 z"
       style="fill:url(#linearGradient4712)" />
    <path
       id="path5546"
       d="m 411.14258,770.08008 c -2.53115,0 -2.80423,0.2782 -2.20508,2.25 0.37603,1.2375 1.20304,5.2875 1.83789,9 1.13288,6.62489 1.21106,6.75 4.23828,6.75 1.71973,0 4.58528,1.1061 6.47461,2.5 2.87958,2.12449 4.47586,2.5 10.62891,2.5 8.12797,0 12.37109,-1.19809 12.37109,-3.4961 0,-2.28064 -7.71768,-10.2538 -12.82031,-13.24414 -4.89166,-2.8667 -16.01739,-6.25976 -20.52539,-6.25976 z"
       style="fill:url(#linearGradient4712)" />
    <path
       id="path5544"
       d="m 580.53906,768.18555 c -3.48698,-0.0772 -7.62928,0.0116 -12.99218,0.16211 -21.03008,0.59032 -31.46454,2.29307 -42.28321,6.89648 -19.17087,8.15731 -32.33051,21.34251 -36.22461,36.29688 -3.46996,13.32559 -1.54458,27.87662 5.60742,42.37695 7.40931,15.02204 16.04216,23.20601 27.57618,26.14648 5.42457,1.38294 29.62148,0.35871 36.76562,-1.55664 8.55898,-2.29468 13.15354,-2.79629 13.94141,-1.52148 1.19476,1.93316 5.0256,1.1938 18.17969,-3.51172 27.50924,-9.84072 33.7269,-14.02927 39.89257,-26.87109 7.46361,-15.5452 10.2421,-34.35873 6.94336,-47.02344 -2.76347,-10.60969 -6.37099,-13.56272 -28.45703,-23.29102 C 595.56294,770.15533 591,768.41724 580.53906,768.18555 Z m 5.06055,6.14843 c 11.92383,0.58821 16.52534,7.65718 13.52734,20.90625 l -0.82812,3.66016 5.5,1.14063 c 7.17644,1.48983 14.08244,6.15031 17.33203,11.69531 5.15343,8.79366 1.3776,18.88487 -9.08203,24.26758 -5.12684,2.63837 -5.03542,2.23209 -2.53125,11.13671 1.57568,5.60297 0.73731,9.32519 -2.92383,12.98633 -3.52515,3.52516 -9.66303,5.2785 -18.60547,5.3125 -8.22452,0.0313 -14.14129,-2.23254 -20.24414,-7.74609 -2.19933,-1.98697 -4.61861,-3.60852 -5.37695,-3.60352 -0.75834,0.005 -3.38776,1.606 -5.8418,3.55664 -6.9333,5.51104 -14.95103,10.06088 -21.75586,12.34571 -7.2005,2.41768 -8.67047,2.49522 -12.86719,0.66797 -9.68432,-4.21656 -9.91978,-16.32513 -0.54492,-27.9668 1.7218,-2.13813 3.13086,-4.46108 3.13086,-5.16211 0,-0.70453 -1.76315,-1.57339 -3.9414,-1.94141 -5.36662,-0.90668 -16.83347,-6.61898 -20.85352,-10.38867 -1.81193,-1.69909 -3.95572,-4.67178 -4.76367,-6.60547 -1.27865,-3.06031 -1.28468,-3.95903 -0.041,-6.93554 0.78582,-1.88073 2.38539,-3.92994 3.55274,-4.55469 2.92208,-1.56385 14.7942,-3.68087 25.29687,-4.51172 9.64937,-0.76334 9.84484,-0.95765 7.25,-7.16797 -2.88256,-6.89893 -1.64367,-12.18519 3.47852,-14.83398 4.2229,-2.18375 8.98865,-1.86324 14.60156,0.98437 2.70571,1.3727 5.30972,2.498 5.78711,2.5 0.4774,0.002 2.38397,-1.32673 4.23633,-2.95312 4.0501,-3.55604 10.9224,-5.73575 20.95117,-6.64453 2.00148,-0.18137 3.85324,-0.22856 5.55664,-0.14454 z"
       style="fill:url(#linearGradient4712)" />
    <path
       id="path5542"
       d="m 372.92773,736.58008 c -1.68468,0 -1.98013,0.83489 -2.24023,6.32422 -0.31638,6.67693 1.55018,14.80656 4.91211,21.39648 1.06065,2.07906 2.13175,3.7793 2.38086,3.7793 1.44236,0 9.50781,-4.55926 9.50781,-5.375 0,-0.53785 -1.35464,-2.13573 -3.00976,-3.55078 -2.27856,-1.94806 -3.2529,-3.90981 -4.00977,-8.07422 -1.34556,-7.40338 -5.03626,-14.5 -7.54102,-14.5 z m 37.75586,5.5 c -4.47244,0 -15.19531,9.13375 -15.19531,12.94336 0,0.92071 -0.66124,2.54761 -1.46875,3.61523 -2.23751,2.95825 -1.83206,4.44003 1.21875,4.45703 1.5125,0.008 3.425,0.45122 4.25,0.98438 0.825,0.53316 2.5125,0.97637 3.75,0.98437 1.7291,0.0118 2.25,-0.55445 2.25,-2.44922 0,-1.35606 1.575,-5.33188 3.5,-8.83398 3.91706,-7.12621 4.57963,-11.70117 1.69531,-11.70117 z"
       style="fill:url(#linearGradient4712)" />
    <path
       id="path5540"
       d="m 376.87891,704.07422 c -4.43101,0.10801 -8.89479,0.44389 -13.39063,1.00586 -9.96755,1.24592 -25.72714,9.00155 -34.16601,16.81445 -7.0352,6.51335 -15.13889,19.23027 -17.86719,28.04102 -3.8568,12.4551 -1.88639,39.33645 3.76562,51.36523 7.76402,16.52363 29.25899,38.19505 46.53125,46.91406 3.17761,1.60405 9.47981,3.60954 14.00586,4.45704 17.5023,3.2773 19.04129,4.05271 21.11719,10.6582 0.31349,0.99752 1.53161,1.74814 2.83203,1.74414 3.97885,-0.0108 24.32533,-7.49249 29.62695,-10.89453 18.73459,-12.02195 36.15803,-44.88222 36.10743,-68.09961 -0.0208,-9.53574 -2.30268,-26.19414 -4.36524,-31.875 -3.08185,-8.48831 -11.93462,-24.11219 -16.67578,-29.43164 -5.91197,-6.63309 -14.75735,-11.44764 -28.57031,-15.54688 -12.66292,-3.75794 -25.65815,-5.47636 -38.95117,-5.15234 z m -6.12696,15.36133 c 5.67501,0.36926 12.87104,5.78794 17.32422,13.38672 1.3728,2.34251 2.81382,4.25023 3.20313,4.24023 0.38932,-0.01 2.66513,-1.34415 5.05664,-2.96484 5.17776,-3.50886 14.15507,-7.01868 17.93945,-7.01368 9.62501,0.0133 14.86614,12.10873 10.64063,24.55469 -1.67789,4.9421 -1.36774,7.44141 0.92382,7.44141 3.23068,0 17.55598,8.23474 22.10938,12.70898 12.33757,12.12307 13.84385,21.80742 4.59961,29.58594 -3.72718,3.13621 -8.0582,4.60603 -16.23438,5.50781 -4.66654,0.51469 -6.32068,1.0909 -6.30078,2.19727 0.0148,0.825 0.40956,5.93517 0.87695,11.35547 0.57419,6.6587 0.49361,11.04739 -0.25,13.52929 -1.42077,4.74212 -6.49829,9.62105 -12.05078,11.58008 -5.49808,1.93984 -16.66516,2.78757 -20.50781,1.55664 -7.53965,-2.4152 -13.01223,-11.83487 -14.89453,-25.63867 -0.62863,-4.61003 -1.54856,-8.38281 -2.04492,-8.38281 -0.49635,0 -4.40212,1.7506 -8.67774,3.89062 -8.55221,4.28051 -19.61686,6.77591 -25.31445,5.70703 -7.83373,-1.46961 -12.93078,-9.2266 -10.63477,-16.18359 1.51417,-4.58801 6.08699,-9.78735 11.06641,-12.58594 2.14852,-1.20754 3.90625,-2.72963 3.90625,-3.38086 0,-0.65123 -2.98557,-2.92755 -6.63281,-5.06054 -10.50529,-6.14372 -14.05746,-13.69827 -9.29102,-19.75782 2.97619,-3.78361 5.34285,-4.78567 14.39258,-6.09765 7.66714,-1.11155 8.01515,-1.27463 7.70899,-3.59766 -0.91067,-6.90995 -0.49554,-21.81349 0.70312,-25.26953 1.76928,-5.10129 6.5255,-10.37482 10.05664,-11.15039 0.73624,-0.16171 1.51546,-0.21096 2.32617,-0.1582 z"
       style="fill:url(#linearGradient4712)" />
    <path
       id="path5536"
       d="m 570.87891,619.42773 c -0.61366,0.29635 -1.02685,0.95171 -1.56055,2.12305 -0.79033,1.73457 -4.08196,4.35215 -9.16016,7.28125 -4.3598,2.51473 -9.49389,6.13843 -11.41015,8.05469 -3.09481,3.09481 -3.42551,3.92325 -2.95703,7.41601 0.29007,2.16267 1.30315,4.79144 2.25195,5.83985 2.05608,2.27194 4.93244,1.81513 11.13672,-1.76563 6.92757,-3.99822 20.81629,-19.90751 22.73828,-26.04687 0.62084,-1.98314 0.35512,-2.25 -2.23828,-2.25 -1.61832,0 -4.33431,-0.27702 -6.03516,-0.61719 -1.33781,-0.26756 -2.15197,-0.3315 -2.76562,-0.0352 z"
       style="fill:url(#linearGradient4712)" />
    <path
       id="path5534"
       d="m 597.9375,617.08008 c -0.37125,0 -0.49941,3.13074 -0.2832,6.95703 0.3248,5.74821 0.91672,7.70168 3.40234,11.23828 3.44694,4.90439 10.69309,10.70757 17.87695,14.31836 2.72049,1.36739 5.32198,2.48633 5.78125,2.48633 5.24519,0 -4.58549,-21.7684 -13.36914,-29.60352 -1.96107,-1.7493 -11.0226,-5.39648 -13.4082,-5.39648 z"
       style="fill:url(#linearGradient4712)" />
    <path
       id="path5532"
       d="m 539.33203,601.14062 c -3.61801,-0.10079 -7.00525,0.064 -8.26367,0.54688 -3.10471,1.19139 -1.4914,3.28209 4.16992,5.4082 3.1625,1.18767 7.55,2.5213 9.75,2.96289 2.2,0.44158 6.8125,0.85181 10.25,0.91211 5.94489,0.10422 6.25,-0.006 6.25,-2.26758 0,-2.85802 -1.48839,-4.18752 -5.5,-4.91406 -1.65,-0.29882 -4.8,-1.01941 -7,-1.60156 -2.18775,-0.57891 -6.03824,-0.94608 -9.65625,-1.04688 z m 54.08985,6.93946 c -1.6468,0 -2.24506,2.92169 -0.92383,4.51367 1.42994,1.72298 2.61831,1.89648 3.47656,0.50781 0.74751,-1.2095 -1.19,-5.02148 -2.55273,-5.02148 z"
       style="fill:url(#linearGradient4712)" />
    <path
       id="path5530"
       d="m 582.32812,595.25586 c -1.61668,0.0928 -3.29313,0.52352 -4.89062,1.34961 -2.97403,1.53793 -3.7492,4.23055 -2.30273,8 0.52429,1.36626 1.3356,1.54329 4.25,0.92383 1.98111,-0.42109 5.51601,-0.716 7.85351,-0.6543 4.04247,0.10674 4.25,-0.0274 4.25,-2.76758 0,-4.35449 -4.3101,-7.13005 -9.16016,-6.85156 z m 23.66407,2.06055 c -0.45965,0.30402 -0.50391,1.01729 -0.50391,2.38476 0,2.38515 0.73259,3.25412 4.25,5.04102 5.43904,2.76311 15.06861,3.21993 14.57227,0.6914 -0.38877,-1.98056 -10.42798,-7.25232 -15.32422,-8.04687 -1.66014,-0.26941 -2.5345,-0.37434 -2.99414,-0.0703 z"
       style="fill:url(#linearGradient4712)" />
    <path
       id="path5528"
       d="m 556.98242,566.10938 c -0.30591,0.12204 -0.49414,0.39599 -0.49414,0.8457 0,1.58053 3.00163,9.42375 4.125,10.77734 3.21857,3.87813 3.57355,-4.40901 0.39649,-9.25781 -1.13361,-1.7301 -3.1096,-2.73136 -4.02735,-2.36523 z"
       style="fill:url(#linearGradient4712)" />
    <path
       id="path5526"
       d="m 598.07031,560.21289 c -0.70832,-0.0378 -1.72741,0.19288 -3.3457,0.67773 -8.71314,2.61052 -13.93005,8.10452 -14.42383,15.18946 l -0.3125,4.5 5.5,1.1543 c 10.39588,2.18043 10.328,2.2092 12.80274,-5.47461 2.31234,-7.17959 2.77386,-12.71868 1.25976,-15.11133 -0.3741,-0.59117 -0.77215,-0.89775 -1.48047,-0.93555 z"
       style="fill:url(#linearGradient4712)" />
    <path
       id="path5524"
       d="m 569.23633,532.15234 c -4.33119,0.12018 -8.24016,0.44753 -11.31445,1.00586 -9.84754,1.78844 -23.527,8.88777 -31.08008,16.12891 -7.48047,7.17155 -17.16142,19.6056 -21.14844,27.16406 -2.57087,4.87379 -2.70225,5.80401 -2.62305,18.62891 0.0733,11.87244 0.4699,14.94026 3.28321,25.44336 1.75944,6.56862 4.64024,14.89362 6.40234,18.5 6.37442,13.0461 29.18461,33.24641 42.23242,37.40039 5.76738,1.83614 20.09742,4.08959 36.2168,5.69531 6.16961,0.61458 12.46961,1.49319 14,1.95313 4.90912,1.47539 6.57115,1.09452 15.9414,-3.65039 16.92615,-8.57112 27.84815,-20.04194 32.79493,-34.44141 2.91108,-8.47381 3.31693,-32.50679 0.75781,-44.90039 -2.34065,-11.33557 -10.68763,-32.87186 -15.5918,-40.23047 -6.55066,-9.82913 -21.9322,-22.24831 -30.74023,-24.82031 -9.35664,-2.73221 -26.1373,-4.23749 -39.13086,-3.87696 z m 31.57226,14.63477 c 2.37339,0.16944 4.44582,0.73578 5.98633,1.75 5.56026,3.66069 8.36303,13.44295 6.60156,23.04297 -2.44025,13.29937 -2.77914,11.85999 3.23829,13.75781 7.72433,2.43614 21.36843,11.13532 24.35156,15.52539 2.76105,4.06325 3.04819,6.34978 1.39648,11.08789 -1.12745,3.23419 -7.8912,8.12891 -11.23242,8.12891 -2.44038,0 -2.04072,2.33615 1.30469,7.61133 3.45679,5.45079 5.71661,11.79873 6.99609,19.66015 1.19919,7.36808 -0.12029,11.98415 -4.3457,15.20703 -4.94994,3.7755 -10.83089,4.12259 -18.10156,1.06836 -8.36786,-3.51513 -18.82868,-10.90172 -24.34571,-17.19336 -2.5693,-2.93003 -4.9853,-5.33284 -5.36914,-5.33984 -0.38385,-0.007 -4.65885,3.96569 -9.5,8.82813 -6.20306,6.23031 -10.69384,9.77362 -15.21094,12 -15.03999,7.41288 -26.60731,1.83536 -30.11523,-14.52149 -1.41329,-6.58996 -0.11117,-11.67902 4.55273,-17.78906 1.90978,-2.50194 3.47266,-4.95795 3.47266,-5.45899 0,-0.50104 -2.3625,-1.68511 -5.25,-2.63086 -17.46905,-5.72169 -26.57401,-15.11225 -22.41016,-23.11718 3.9446,-7.58339 11.87234,-10.8297 26.41016,-10.8125 6.99294,0.008 10.25,-0.34789 10.25,-1.12305 0,-0.62491 -1.07563,-3.10494 -2.38867,-5.51172 -4.76896,-8.74135 -5.52662,-18.02386 -1.92188,-23.52539 4.20301,-6.4146 18.1926,-7.02169 23.18165,-1.00586 2.09506,2.52625 4.91088,1.99617 9.28515,-1.74805 6.22334,-5.32694 16.04391,-8.39894 23.16406,-7.89062 z"
       style="fill:url(#linearGradient4712)" />
    <path
       id="path5522"
       d="m 410.16797,505.67383 c -4.66505,-0.0888 -9.67531,0.21816 -15.20703,0.8789 -15.07838,1.80105 -20.7251,3.51274 -28.32813,8.58985 -12.70631,8.48495 -18.88986,20.04075 -21.14843,39.52344 -2.09058,18.03347 1.98541,48.50595 8.17187,61.09375 3.87928,7.8933 5.41992,7.43023 5.41992,-1.63086 0,-5.80178 0.50804,-7.88385 3.20508,-13.11329 1.76323,-3.41884 3.20703,-6.54906 3.20703,-6.95507 0,-0.40602 -1.4625,-1.31295 -3.25,-2.01758 -7.27061,-2.86606 -12.75,-8.86013 -12.75,-13.94727 0,-5.71805 6.5236,-9.67307 17.67969,-10.71484 3.51074,-0.32784 6.59704,-0.94001 6.85742,-1.36133 0.26039,-0.42131 -0.24477,-3.84351 -1.12305,-7.60351 -2.00717,-8.59293 -1.50154,-17.40147 1.20704,-21.0293 4.55524,-6.10126 14.52882,-8.34564 22.03906,-4.95899 l 4.0625,1.83204 5.38867,-4.10743 c 5.39832,-4.11424 15.61794,-8.07226 20.84375,-8.07226 7.34431,0 14.78175,4.76264 18.08008,11.57617 3.0494,6.29914 3.01722,16.10412 -0.0762,23.29492 -1.22804,2.85464 -2.05813,5.3337 -1.84571,5.50977 0.21243,0.17607 3.31172,1.851 6.88672,3.7207 3.575,1.86969 8.8625,5.67395 11.75,8.45508 4.95107,4.76868 5.25,5.33948 5.25,10.02734 0,2.86376 -0.65512,5.90542 -1.54492,7.17578 -2.43677,3.47897 -9.7519,8.04962 -15.93359,9.95313 -5.25552,1.61832 -5.62569,1.92709 -5.07227,4.26562 1.69332,7.1553 1.75888,14.71544 0.1543,17.81836 -4.67167,9.034 -17.95326,7.89912 -31.33399,-2.67773 -2.86585,-2.26533 -5.49965,-4.11914 -5.85156,-4.11914 -0.35192,0 -4.1943,3.3444 -8.53906,7.43164 -4.34476,4.08723 -10.38589,8.64844 -13.42383,10.13476 -4.72347,2.31098 -6.30634,2.60979 -10.92969,2.06641 -3.02525,-0.35556 -5.6597,-0.22528 -5.98242,0.29688 -0.31719,0.51324 1.9092,2.9588 4.94727,5.43359 4.9204,4.00813 9.11253,5.85571 18.00976,7.9375 12.60219,2.94867 45.05221,-6.68636 62.25,-18.48242 10.16812,-6.97436 21.76695,-21.48252 25.11133,-31.41016 2.6311,-7.8103 3.57046,-20.88588 2.25586,-31.4082 -0.90392,-7.23516 -1.9513,-10.28565 -7.04102,-20.5 -7.25365,-14.55706 -13.85527,-22.28762 -25.96875,-30.41211 -12.54351,-8.41291 -23.4326,-12.22785 -37.42773,-12.49414 z m 17.92383,30.66211 c -2.55756,-0.53561 -5.97961,0.17192 -10.19922,2.13672 -5.9289,2.7607 -9.366,7.50167 -10.06641,13.88672 -0.80652,7.35232 -1.33657,8.76334 -3.69922,9.83984 -3.20801,1.46166 -2.87981,3.66932 0.66211,4.44726 1.63288,0.35864 4.93354,2.61713 7.33399,5.01758 3.50237,3.50237 4.36523,5.06085 4.36523,7.89063 0,3.36971 -2.72515,7.52539 -4.93359,7.52539 -0.51294,0 -1.22222,0.91214 -1.57617,2.02734 -0.4719,1.48682 0.21135,2.82703 2.56054,5.02149 2.74212,2.56148 3.12347,3.4865 2.64649,6.42578 -0.68304,4.20909 1.63195,7.5109 8.17773,11.66211 4.67627,2.96561 8.125,3.70023 8.125,1.73047 0,-4.55908 -2.74521,-9.40489 -7.09961,-12.53321 -5.6352,-4.04849 -6.90105,-7.51173 -4.11523,-11.25976 2.39761,-3.22575 7.96673,-3.9372 11.69531,-1.49414 4.56621,2.99189 19.51953,-0.0722 19.51953,-4 0,-3.28357 -21.90741,-13.58008 -28.89453,-13.58008 -4.06063,0 -8.10547,-3.49344 -8.10547,-7 0,-4.14064 4.05054,-7 9.91797,-7 4.01189,0 4.87228,-0.37714 6.27344,-2.75 2.05894,-3.48681 3.20842,-9.51662 2.41601,-12.67383 -0.75458,-3.00651 -2.44634,-4.7847 -5.0039,-5.32031 z m -40.41602,7.9414 c -2.57802,0.48875 -2.68058,7.82386 -0.22266,15.91602 2.20125,7.24713 2.68424,7.60198 7.88477,5.78906 3.64939,-1.27218 3.88028,-2.17245 1.23242,-4.82031 -1.18858,-1.18858 -2.19036,-4.08955 -2.63281,-7.63086 -0.75948,-6.07868 -3.28899,-9.81748 -6.26172,-9.25391 z m -5.89258,35.32227 c -0.68976,0.0113 -1.5634,0.13431 -2.6914,0.32422 -4.64913,0.78273 -4.58449,1.92132 0.27343,4.8125 5.31303,3.16203 6.41523,2.98304 5.59571,-0.90625 -0.69148,-3.28167 -1.10846,-4.26429 -3.17774,-4.23047 z m 5.36328,10.48047 c -0.73794,0 -1.87924,1.79124 -2.53515,3.98047 -0.76752,2.56176 -2.58518,5.10082 -5.10156,7.12304 -6.29656,5.06005 -8.63325,12.52939 -6.04688,19.33203 1.41426,3.71979 4.9462,3.28626 10.68555,-1.3125 13.25812,-10.62328 20.63632,-23.12304 13.65039,-23.12304 -2.62646,0 -9.29109,-3.76047 -9.30469,-5.25 -0.004,-0.4125 -0.60972,-0.75 -1.34766,-0.75 z"
       style="fill:url(#linearGradient4712)" />
    <path
       id="path5518"
       d="m 559.70703,440.58008 -5.85937,5.57031 c -10.66071,10.13314 -22.84858,15.17011 -36.60938,15.12891 -4.2625,-0.0127 -7.75,0.3191 -7.75,0.73828 0,1.43583 5.65365,8.56247 9.40234,11.84961 5.63842,4.94418 10.62508,8.00889 16.65821,10.24219 3.95032,1.46188 6.80765,1.8621 10.43945,1.46093 2.75,-0.30377 8.0375,-0.82828 11.75,-1.16601 6.99655,-0.63648 7.79032,-1.36313 5.2168,-4.76563 -2.1047,-2.78266 -1.81123,-5.88773 0.7832,-8.3125 2.23169,-2.08576 16.24787,-5.23519 23.33203,-5.24219 5.54569,-0.006 3.4449,-2.62817 -4.84961,-6.05273 -6.02501,-2.48755 -9.2903,-4.62736 -13.58203,-8.90039 -3.10784,-3.09431 -6.38902,-6.73369 -7.29101,-8.08789 l -1.64063,-2.46289 z"
       style="fill:url(#linearGradient4712)" />
    <path
       id="path5516"
       d="m 579.54102,420.50977 c -1.24329,-0.10137 -2.57332,-0.0504 -3.95118,0.16992 -3.67847,0.58821 -4.10156,0.94863 -4.10156,3.48047 0,5.56764 2.22476,13.03378 4.79297,16.08593 1.4382,1.7092 5.77304,4.62096 9.63281,6.47071 8.16235,3.9117 13.11298,4.38825 14.07617,1.35351 0.35096,-1.10568 0.32508,-4.52294 -0.0586,-7.59375 -0.67835,-5.42927 -0.85008,-5.68046 -6.20117,-9.10351 -3.23805,-2.07136 -5.92929,-4.65016 -6.53906,-6.26563 -0.98701,-2.61487 -3.92054,-4.29356 -7.65039,-4.59765 z"
       style="fill:url(#linearGradient4712)" />
    <path
       id="path5514"
       d="m 576.68945,401.49805 c -3.64328,-0.14451 -8.20117,0.75897 -8.20117,1.99609 0,0.65255 0.5625,1.76438 1.25,2.4707 0.83698,0.85991 2.69947,1.09041 5.63867,0.69922 2.41427,-0.32132 5.00177,-0.58398 5.75,-0.58398 2.41239,0 1.44638,-3.01608 -1.30078,-4.06055 -0.80807,-0.30723 -1.92229,-0.47331 -3.13672,-0.52148 z"
       style="fill:url(#linearGradient4712)" />
    <path
       id="path5512"
       d="m 400.77344,397.08008 c -1.34595,0 -10.40817,7.43743 -15.07422,12.37109 -4.17497,4.41442 -5.21094,6.18377 -5.21094,8.90235 0,1.86626 0.29935,3.69388 0.66602,4.06054 2.29931,2.29932 9.21815,-1.31649 17.53906,-9.16601 3.73707,-3.52537 6.79492,-7.00353 6.79492,-7.73047 0,-1.46408 -3.89658,-8.4375 -4.71484,-8.4375 z m 25.16015,3.30273 c -0.33612,0.22398 -0.44531,0.72034 -0.44531,1.56641 0,1.15625 -0.42789,4.0218 -0.94922,6.36719 -5.21103,23.44372 -2.38214,33.66706 10.49219,37.92382 2.72596,0.90131 5.40703,1.52525 5.95703,1.38672 1.73355,-0.43666 0.75294,-14.97127 -1.59961,-23.71093 -1.23407,-4.58453 -3.29164,-10.71011 -4.57226,-13.61329 -1.28061,-2.90319 -2.32813,-6.16569 -2.32813,-7.25 0,-1.08432 -0.5625,-1.97832 -1.25,-1.98632 -0.6875,-0.008 -2.2625,-0.2836 -3.5,-0.61524 -0.90552,-0.24266 -1.46857,-0.29233 -1.80469,-0.0684 z"
       style="fill:url(#linearGradient4712)" />
    <path
       id="path5510"
       d="m 421.20312,391.4668 c -0.66654,-0.16864 -1.39164,-0.18211 -2.125,0.002 -3.54238,0.88908 -3.26815,4.70563 0.41016,5.71484 3.21726,0.88271 4.43136,0.57697 4.77734,-1.20507 0.40943,-2.10871 -1.06285,-4.00582 -3.0625,-4.51172 z"
       style="fill:url(#linearGradient4712)" />
    <path
       id="path5508"
       d="m 436.22461,384.01562 0.63086,3.15626 c 0.34736,1.73682 0.63281,4.67695 0.63281,6.5332 0,2.5866 0.42155,3.375 1.80469,3.375 0.99259,0 4.6805,2.025 8.19531,4.5 7.51566,5.29225 12.78722,6.06951 15.44336,2.27734 2.33019,-3.32681 1.95956,-8.1025 -0.84375,-10.89062 -2.72045,-2.7057 -14.90858,-7.44154 -21.48242,-8.34766 l -4.38086,-0.60352 z"
       style="fill:url(#linearGradient4712)" />
    <path
       id="path5506"
       d="m 380.73828,375.13477 c -5.81686,-0.0744 -5.60532,2.20274 0.5,5.38085 4.94158,2.57233 7.17181,2.95983 11.04688,1.92188 6.0258,-1.61403 -2.7915,-7.19069 -11.54688,-7.30273 z"
       style="fill:url(#linearGradient4712)" />
    <path
       id="path5504"
       d="m 599.20703,366.28516 c -4.88522,-0.40536 -10.3147,2.3922 -15.47265,8.25195 -3.51662,3.99508 -5.2461,7.96462 -5.2461,12.03711 0,0.68428 1.63594,1.51125 3.63672,1.83594 9.12622,1.48098 15.29704,9.95866 13.92188,19.1289 -0.65251,4.35119 -0.57848,4.54102 1.79687,4.54102 4.19946,0 5.64569,1.0714 8.16992,6.05273 1.57816,3.11434 3.23339,4.97343 4.70508,5.28711 7.48461,1.5953 14.76953,-2.07207 14.76953,-7.43554 0,-5.13835 -9.94587,-11.71084 -20.25781,-13.38672 -7.48949,-1.21718 -8.7701,-8.541 -2.23242,-12.77149 3.70601,-2.39815 7.49023,-9.09125 7.49023,-13.25 0,-1.45534 -1.37882,-4.02832 -3.25195,-6.07226 -2.36365,-2.57919 -5.09817,-3.97554 -8.0293,-4.21875 z"
       style="fill:url(#linearGradient4712)" />
    <path
       id="path5502"
       d="m 404.98828,366.08008 c -1.56157,0 -1.98462,1.18335 -0.83398,2.33398 1.15063,1.15064 2.33398,0.72759 2.33398,-0.83398 0,-0.825 -0.675,-1.5 -1.5,-1.5 z"
       style="fill:url(#linearGradient4712)" />
    <path
       id="path5500"
       d="m 441.75586,353.08008 c -11.26509,0 -19.15795,7.75797 -22.84766,22.45898 -0.6,2.39057 -0.40966,2.54274 3.22071,2.55664 2.12213,0.008 4.98437,0.63939 6.35937,1.40235 4.43913,2.46321 6,1.98187 6,-1.84571 0,-2.51163 0.70393,-3.9812 2.63477,-5.5 1.44917,-1.13992 3.2448,-2.07226 3.99218,-2.07226 2.24146,0 7.37305,-7.96754 7.37305,-11.44922 0,-4.24492 -1.58332,-5.55078 -6.73242,-5.55078 z"
       style="fill:url(#linearGradient4712)" />
    <path
       id="path5498"
       d="m 572.53125,324.30273 c -15.03916,-0.88526 -30.81642,1.11776 -39.46875,5.48243 -10.82386,5.46009 -20.49133,16.20887 -26.48633,29.44922 -2.84141,6.27543 -2.87955,6.60262 -3.32617,29.3457 -0.42797,21.79375 -0.59726,23.4543 -3.24219,31.64844 l -2.79101,8.64648 1.89258,8.3418 c 2.22356,9.79736 3.86475,10.88152 6.93945,4.58593 1.6058,-3.28795 4.43584,-5.90567 12.78515,-11.83007 17.98789,-12.76365 18.88878,-14.36168 10.90235,-19.36719 -7.50836,-4.70589 -14.34233,-11.59603 -16.88672,-17.02539 -2.77929,-5.93058 -2.92153,-8.51877 -0.72461,-13.14844 2.53266,-5.33718 7.66428,-7.41282 20.25391,-8.19336 l 10.60937,-0.6582 0.56641,-7 c 0.31228,-3.85 1.30937,-8.40888 2.21484,-10.13086 6.32597,-12.03054 20.86452,-10.99339 27.74609,1.97851 1.35772,2.55931 2.83722,4.65235 3.28907,4.65235 0.45185,0 2.83242,-1.38205 5.28906,-3.07227 12.20349,-8.39622 24.3357,-7.51468 34.64258,2.51758 7.42835,7.23043 9.19871,14.5046 5.84961,24.02149 -1.15461,3.28094 -2.09766,6.49999 -2.09766,7.15429 0,0.6543 1.9375,2.32449 4.30664,3.71289 5.72478,3.35495 12.13131,10.43739 13.67578,15.11719 3.86812,11.72051 -5.63355,24.74851 -19.26367,26.41211 l -5.21875,0.63672 -0.53516,8.21875 c -0.46402,7.12946 -0.9509,8.80655 -3.66992,12.66406 -1.72377,2.44553 -2.87095,4.70913 -2.54882,5.03125 2.15632,2.15632 15.75563,-2.46216 22.9082,-7.78125 7.69456,-5.72216 19.1863,-17.75386 23.5293,-24.63281 1.90981,-3.025 4.61245,-8.425 6.00585,-12 7.25039,-18.60211 7.6211,-32.607 1.25586,-47.42383 -3.40714,-7.93104 -4.37866,-9.20905 -12.49023,-16.40039 -8.32529,-7.38082 -9.93979,-8.31255 -30.12695,-17.39844 -16.46098,-7.40879 -23.60065,-10.07551 -31.28321,-11.6875 -4.55817,-0.95641 -9.4889,-1.5721 -14.50195,-1.86719 z m -13.69141,36.83789 c -0.52033,0.012 -1.00648,0.31547 -1.43164,0.93946 -1.57838,2.31653 -0.33484,12.22404 1.72266,13.72851 0.95693,0.69973 2.77699,1.27149 4.04687,1.27149 2.77163,0 2.8505,-1.38899 0.4961,-8.89258 -1.40824,-4.48813 -3.27299,-7.08284 -4.83399,-7.04688 z m -31.79101,25.09571 c -1.40737,0.21458 -1.56055,0.70005 -1.56055,1.625 0,2.20955 5.9866,7.82353 14.46484,13.5625 3.12255,2.11366 6.54283,5.26366 7.60157,7 5.44833,8.93523 -0.81672,18.98674 -19.84571,31.83984 -4.10441,2.77232 -6.99378,5.37792 -6.625,5.97461 0.97237,1.57334 7.78606,0.18827 13.61914,-2.76758 6.83205,-3.46205 13.66072,-10.05465 19.82813,-19.14453 4.4463,-6.55321 4.97703,-7.84294 3.97656,-9.65429 -0.6351,-1.14986 -2.02353,-3.6668 -3.08593,-5.5918 -1.16206,-2.10558 -1.93266,-5.43435 -1.9336,-8.35547 -10e-4,-3.54932 -0.60533,-5.59749 -2.25,-7.61523 -1.2375,-1.51822 -2.74825,-3.60836 -3.35742,-4.64454 -0.95223,-1.61971 -2.60029,-1.93142 -11.75,-2.22461 -5.01295,-0.16063 -7.67466,-0.21848 -9.08203,-0.004 z"
       style="fill:url(#linearGradient4712)" />
    <path
       id="path5496"
       d="m 415.42188,317.39062 c -9.57256,0.26218 -22.49875,1.6677 -27.89844,3.27149 -15.19285,4.51253 -24.33025,11.11619 -28.96875,20.93359 -3.68966,7.80919 -4.57489,11.57544 -7.10742,30.27735 -2.35674,17.40378 -2.41123,21.3579 -0.45118,32.59765 2.26779,13.00446 5.06865,20.10305 12.17969,30.87891 10.76412,16.31164 17.66906,22.08197 33.22656,27.75977 7.14679,2.60824 9.46021,2.9707 18.92188,2.9707 7.93043,0 11.29466,0.38866 12.72266,1.46875 2.74171,2.07372 11.47097,1.8912 17.40429,-0.36328 11.37637,-4.32268 27.64166,-19.21174 33.9961,-31.1211 l 3.45898,-6.48437 0.041,-21 c 0.0381,-19.78821 0.20397,-21.63135 2.88867,-31.94531 3.1554,-12.12229 3.07537,-14.7618 -0.69532,-22.99805 -2.87045,-6.2699 -12.82544,-16.42221 -20.90624,-21.31836 -8.23857,-4.99173 -33.15733,-14.0237 -40.75977,-14.77344 -2.04257,-0.20144 -4.86188,-0.24169 -8.05273,-0.1543 z m -17.17969,18.04297 c 4.5853,0.0137 9.00434,3.72712 12.20312,10.55664 1.31139,2.79987 3.03616,5.08985 3.83203,5.08985 0.79588,0 3.0607,-1.41655 5.03321,-3.14844 9.21872,-8.09414 23.63033,-11.08427 32.11914,-6.66406 10.38702,5.40864 13.67932,15.40641 8.67383,26.33984 -1.43884,3.14285 -2.61524,6.04899 -2.61524,6.45703 0,0.40803 2.95211,2.19428 6.56055,3.97071 13.03657,6.41788 17.69253,18.82965 11.55469,30.79882 -3.61114,7.04195 -10.37228,11.2461 -18.08399,11.2461 -4.70229,0 -4.65934,-0.1918 -2.54687,11.5 2.77656,15.36731 1.28897,23.62264 -4.95313,27.48047 l 0,0.002 c -8.81333,5.44694 -27.9195,-0.64902 -35.71289,-11.39453 -3.26921,-4.50757 -5.81836,-12.267 -5.81836,-17.70899 0,-2.06772 -0.44113,-4.0319 -0.98047,-4.36523 -0.53934,-0.33332 -3.36139,1.1891 -6.26953,3.38477 -6.86177,5.18069 -13.29461,8.05267 -18.09961,8.08007 -12.82046,0.0731 -20.40222,-14.17226 -14.42773,-27.10937 1.36363,-2.95278 4.11646,-6.94414 6.11718,-8.86914 2.00074,-1.925 3.63739,-4.175 3.63672,-5 -6.7e-4,-0.825 -2.61618,-2.93421 -5.8125,-4.68946 -7.73097,-4.24542 -11.66406,-9.8275 -11.66406,-16.55078 0,-4.3763 0.39762,-5.2772 3.6543,-8.26172 4.20558,-3.85413 9.12897,-5.48418 16.5957,-5.49218 l 5.25,-0.006 0,-7.76563 c 0,-9.23305 1.95523,-13.78332 7.15234,-16.64062 1.52649,-0.83924 3.07313,-1.24479 4.60157,-1.24024 z"
       style="fill:url(#linearGradient4712)" />
    <path
       id="path5492"
       d="m 559.89453,211.08008 c -0.80863,0 -4.97273,3.4875 -9.25195,7.75 -8.35519,8.32254 -10.1543,11.96372 -10.1543,20.53515 0,6.31942 0.66101,7.54472 5.84766,10.83399 5.44359,3.45223 8.33749,3.58297 13.65234,0.61523 6.60194,-3.68644 10.5384,-14.26593 10.4668,-28.12109 l -0.0312,-6.11328 -4.5293,-2.75 c -2.49161,-1.5125 -5.19138,-2.75 -6,-2.75 z"
       style="fill:url(#linearGradient4712)" />
    <path
       id="path5490"
       d="m 600.18945,206.19336 c -0.91907,-0.11449 -2.37812,0.37804 -4.54101,1.45703 -1.73056,0.86327 -4.03343,1.28733 -5.11719,0.94336 -1.57747,-0.50067 -2.27759,0.10838 -3.50781,3.05273 -0.84519,2.02282 -1.53516,4.4787 -1.53516,5.45704 0,2.51791 8.75232,13.85561 12.42578,16.0957 6.09999,3.71978 17.57422,1.45249 17.57422,-3.47266 0,-2.8958 -4.63635,-9.93862 -9.93945,-15.09961 -2.42297,-2.35803 -4.06055,-4.87975 -4.06055,-6.25 0,-1.34842 -0.37975,-2.0691 -1.29883,-2.18359 z"
       style="fill:url(#linearGradient4712)" />
    <path
       id="path5488"
       d="m 604.21484,185.08008 c -2.13479,-1.3e-4 -2.22086,0.34202 -2.08007,8.25 l 0.14648,8.25 3.35352,-0.27539 c 1.84422,-0.15228 7.62851,0.83648 12.85351,2.19922 5.225,1.36274 10.31579,2.50034 11.31445,2.52734 5.11132,0.13841 7.57219,-4.97775 3.93555,-8.18359 -4.21029,-3.71155 -25.15065,-12.76729 -29.52344,-12.76758 z"
       style="fill:url(#linearGradient4712)" />
    <path
       id="path5486"
       d="m 353.41406,184.16992 c -2.37007,-0.77652 -2.42807,3.76988 -0.40429,14.41016 0.83687,4.4 1.76631,8.7875 2.0664,9.75 0.79821,2.56012 2.65479,2.14979 5.97461,-1.32031 1.6154,-1.68852 4.4,-3.97375 6.1875,-5.08008 1.7875,-1.10633 3.25,-2.63293 3.25,-3.39258 0,-0.75965 -2.5875,-3.14936 -5.75,-5.30859 -3.1625,-2.15922 -6.84241,-5.10084 -8.17578,-6.53711 -1.31226,-1.41353 -2.35841,-2.26265 -3.14844,-2.52149 z"
       style="fill:url(#linearGradient4712)" />
    <path
       id="path5484"
       d="m 369.86328,175.08008 c -5.57391,0 -3.95114,2.66138 5.46094,8.94922 4.58312,3.06181 8.95429,6.68798 9.71289,8.05859 3.75751,6.78893 -0.0688,14.20799 -11.29883,21.90234 -1.7875,1.22472 -3.25,2.87067 -3.25,3.65821 0,1.88148 8.62288,1.93665 15.70508,0.0996 5.63635,-1.46205 15.29497,-8.17087 15.29492,-10.62305 -2e-5,-0.84948 -1.62311,-2.83819 -3.60547,-4.41992 -4.61822,-3.68489 -8.37196,-11.66821 -8.38476,-17.83008 l -0.01,-4.70703 -8.05273,-2.54297 c -4.42839,-1.39893 -9.63533,-2.54492 -11.57227,-2.54492 z m 69.70508,5 c -1.48671,0 -1.3842,9.29744 0.11914,10.80078 1.26235,1.26235 7.52711,1.62468 10.21875,0.5918 3.08955,-1.18557 1.61803,-4.1735 -3.83789,-7.79493 -2.9807,-1.97848 -5.9057,-3.59765 -6.5,-3.59765 z m -26.17774,1.41015 c -1.86322,0.0133 -3.73182,0.2857 -5.40234,0.87305 -5.15849,1.81371 -5.91634,5.39226 -1.97656,9.33203 2.46209,2.4621 3.08208,2.60719 8.64844,2.02539 6.24465,-0.65269 9.72222,-3.09086 9.79492,-6.86718 0.06,-3.11252 -5.47478,-5.40322 -11.06446,-5.36329 z m 16.97266,25.06641 c -1.32023,-0.0409 -3.11586,0.65893 -6.125,1.70703 -4.47225,1.5577 -4.79912,3.61041 -1.63867,10.33399 2.38413,5.07202 6.5025,8.93199 12.38867,11.61523 2.2,1.00288 4.61988,1.8336 5.37891,1.8457 2.48912,0.0396 0.65668,-7.97184 -3.95703,-17.30273 -2.96919,-6.00497 -3.84649,-8.13111 -6.04688,-8.19922 z"
       style="fill:url(#linearGradient4712)" />
    <path
       id="path5482"
       d="m 610.78516,151.27734 c -0.73325,-0.27722 -1.98077,-0.15694 -4.36133,0.125 -10.16662,1.20408 -23.82207,10.19089 -25.42774,16.73438 -0.57509,2.34366 -0.22801,2.68531 4.18164,4.10742 2.64539,0.85314 5.15268,1.61496 5.57227,1.69336 0.41958,0.0784 2.48379,-1.47735 4.58594,-3.45703 2.10214,-1.97968 5.99598,-4.79218 8.65429,-6.25 6.23612,-3.41989 8.98611,-7.06206 8.07422,-10.69531 -0.32776,-1.3059 -0.54605,-1.98059 -1.27929,-2.25782 z"
       style="fill:url(#linearGradient4712)" />
    <path
       id="path5480"
       d="m 436.30469,144.27344 c -4.94044,-0.41096 -13.07808,3.20213 -16.82422,7.46875 -2.6567,3.02582 -2.99219,4.1263 -2.99219,9.80664 0,6.21283 0.0799,6.41191 2.75,6.8164 6.60766,1.00097 7.25,0.83796 7.25,-1.83398 0,-4.24545 2.52351,-7.79038 8.45703,-11.87695 5.03753,-3.46948 5.61291,-4.22073 5.34375,-6.98047 -0.27075,-2.77619 -0.67781,-3.12535 -3.98437,-3.40039 z"
       style="fill:url(#linearGradient4712)" />
    <path
       id="path5478"
       d="m 544.95508,129.08008 c -3.32981,0 -11.81863,5.36524 -18.61328,11.76562 -5.95548,5.60991 -7.95917,8.38978 -12.00196,16.64649 -2.66913,5.45124 -4.85156,11.22829 -4.85156,12.83789 0,2.90777 0.0273,2.92041 4.25,2.08789 4.83105,-0.95245 16.82887,-0.66246 24.25,0.58594 7.27661,1.22409 7.5,1.21426 7.5,-0.35743 0,-0.78905 -0.69007,-4.71455 -1.5332,-8.72265 -0.84313,-4.00809 -1.5446,-11.4924 -1.5586,-16.63281 -0.0209,-7.66862 0.3442,-9.97329 2.03321,-12.83594 2.45789,-4.16582 2.57616,-5.375 0.52539,-5.375 z m 12.01172,13.87695 c -1.35446,-0.10846 -1.55788,2.35714 -1.07032,7.87305 0.75963,8.59378 1.86821,13.63768 4.39844,20.01758 2.26757,5.71758 4.41732,5.21911 5.51367,-1.2793 1.82279,-10.80425 0.24653,-18.19758 -5.06054,-23.73828 -1.74045,-1.81707 -2.96858,-2.80797 -3.78125,-2.87305 z"
       style="fill:url(#linearGradient4712)" />
    <path
       id="path5476"
       d="m 579.7168,124.33008 c -16.49824,-0.50158 -22.22852,0.0644 -22.22852,2.19726 0,0.74627 1.33972,1.8252 2.97852,2.39649 3.9647,1.3821 12.57197,9.53679 15.69922,14.87305 1.38096,2.35643 2.65933,4.2832 2.83984,4.2832 0.1805,0 3.62456,-1.76743 7.6543,-3.92774 12.82838,-6.8772 25.19725,-8.85971 31.38867,-5.0332 9.07241,5.60706 9.94537,22.77002 1.54492,30.36719 -3.51704,3.18073 -2.63904,5.00764 3.64453,7.58984 22.83914,9.3856 30.51127,19.64402 24.26367,32.43945 -2.57165,5.26688 -7.60358,8.60552 -14.23047,9.44336 -4.52278,0.57181 -5.24068,0.95276 -4.98242,2.64454 1.43881,9.42518 1.35799,11.24416 -0.68164,15.24218 -3.97433,7.79033 -11.82685,11.75995 -23.11914,11.68555 -7.89475,-0.052 -10.01988,-0.79643 -16.26953,-5.69531 -3.67485,-2.88059 -6.73042,-3.1243 -6.73242,-0.53711 -0.002,3.05383 -6.00524,13.5788 -9.49024,16.63867 -4.32183,3.79462 -10.85552,6.85524 -16.59765,7.77344 -4.31183,0.68949 -5.1677,2.70643 -1.66016,3.9082 1.2375,0.424 11.475,1.06322 22.75,1.42188 11.275,0.35866 21.45062,0.73922 22.61328,0.8457 2.72357,0.24946 18.89308,-5.75615 25.09766,-9.32227 7.03759,-4.04489 24.15,-21.78654 27.9668,-28.99414 7.30405,-13.79292 9.60722,-29.93269 6.89648,-48.33008 -3.03835,-20.62078 -8.63033,-31.07073 -22.13086,-41.35742 -10.16928,-7.74846 -17.44649,-11.53931 -31.7168,-16.51953 -9.58989,-3.3468 -11.17893,-3.59787 -25.49804,-4.0332 z"
       style="fill:url(#linearGradient4712)" />
    <path
       id="path5474"
       d="m 382.14258,120.08008 c -2.52498,0 -13.16402,7.63458 -17.51953,12.57226 -2.39085,2.7104 -5.65388,7.51317 -7.25196,10.67188 -2.71468,5.36572 -5.88281,15.37949 -5.88281,18.5918 0,1.10711 0.70699,1.22582 3.25,0.54882 1.7875,-0.47587 7.41226,-0.87 12.5,-0.875 10.44877,-0.0111 10.13067,0.33108 7.64063,-8.23437 -3.04496,-10.47427 -0.68747,-21.99394 5.74218,-28.0625 3.05294,-2.88149 3.73325,-5.21289 1.52149,-5.21289 z m 14.24804,11.07226 c -1.49198,0.0247 -3.30957,1.1338 -5.5039,3.32813 -2.93456,2.93456 -3.39953,4.06393 -3.39453,8.25 0.007,6.15774 1.50762,11.70256 4.625,17.09961 1.95219,3.37979 3.01895,4.25 5.21289,4.25 2.64609,0 2.81422,-0.30417 4.08203,-7.43946 1.42352,-8.01161 0.84833,-16.73354 -1.4707,-22.31054 -0.89119,-2.14321 -2.0588,-3.20246 -3.55079,-3.17774 z"
       style="fill:url(#linearGradient4712)" />
    <path
       id="path5472"
       d="m 421.92188,114.25977 c -10.29694,0.22242 -19.22627,1.03591 -19.04493,2.27148 0.0934,0.63646 1.98932,2.79973 4.21289,4.80859 2.7658,2.49873 4.63858,5.40462 5.92774,9.19727 1.03643,3.04911 2.48155,5.54297 3.21094,5.54297 0.72939,0 3.66493,-1.1843 6.52343,-2.63281 7.19378,-3.64536 15.98042,-4.30311 21.28907,-1.59375 10.22635,5.21919 13.72649,17.40031 7.47851,26.02539 -1.63274,2.25394 -3.88274,4.5876 -5,5.18554 -1.11726,0.59793 -2.03125,1.63769 -2.03125,2.3125 0,0.67481 3.64282,3.63691 8.0957,6.58203 13.40668,8.86713 17.01516,17.53716 10.88477,26.14649 -2.39443,3.36268 -8.89868,6.91572 -12.73047,6.95312 -2.93405,0.0286 -2.8429,1.41039 0.64258,9.66797 6.04086,14.31166 6.20666,23.09739 0.53516,28.41992 -2.21864,2.08213 -3.5608,2.43172 -9.26172,2.41602 -11.77216,-0.0323 -25.71113,-8.49173 -31.27539,-18.98047 -1.3134,-2.47579 -2.9059,-4.50195 -3.53907,-4.50195 -0.63318,0 -3.4806,1.56813 -6.32812,3.48437 -6.88494,4.63322 -13.51237,6.52964 -25.27344,7.22852 -5.3625,0.31866 -9.75,0.89813 -9.75,1.28906 0,2.19292 8.26567,10.87671 17.17969,18.04688 10.53699,8.47564 14.18843,10.52649 21.22656,11.92187 2.25131,0.44635 8.65054,0.85962 14.2207,0.91992 10.81652,0.11702 11.56989,-0.18495 12.7461,-5.11132 0.81164,-3.39941 2.70868,-4.42588 10.49414,-5.67969 8.06097,-1.29819 12.76158,-4.0487 18.96289,-11.09375 10.73831,-12.19934 17.46173,-25.69923 22.26172,-44.70508 2.4552,-9.72152 2.9082,-13.49526 2.9082,-24.24414 0,-19.10753 -2.86036,-35.54653 -7.61523,-43.7793 -3.73147,-6.46081 -13.64637,-11.41005 -29.70117,-14.82617 -5.28841,-1.12526 -16.95307,-1.49391 -27.25,-1.27148 z m 156.25585,70.73632 c -1.85815,0.10102 -3.8108,0.61311 -5.71093,1.59571 -8.53364,4.41292 -5.53437,15.13457 4.62695,16.54297 8.23595,1.14153 8.18888,1.15209 8.89063,-2.04297 0.36102,-1.6437 1.07238,-3.24483 1.58007,-3.5586 0.50768,-0.31377 0.92383,-2.1391 0.92383,-4.05664 0,-5.39774 -4.73609,-8.78351 -10.31055,-8.48047 z m -53.93945,0.084 c -3.39346,-2.5e-4 -3.68648,2.42668 -0.5,4.14062 1.2375,0.66562 6.3,2.68312 11.25,4.48438 5.21841,1.89895 10.99584,3.29717 13.75,3.32617 l 4.75,0.0488 0,-3.44141 c 0,-1.89254 -0.39311,-3.68189 -0.87305,-3.97851 -1.19986,-0.74155 -24.97921,-4.57984 -28.37695,-4.58008 z m -13.95703,12 c -2.0073,0 -2.06658,0.35859 -1.5332,9.29883 0.77709,13.02507 6.22438,28.4091 14.46875,40.86718 3.42455,5.17485 4.62624,3.98471 3.79687,-3.75976 -1.12228,-10.47975 1.83724,-20.93148 8.00195,-28.25781 1.44321,-1.71516 2.47826,-3.83777 2.29883,-4.7168 -0.19386,-0.94978 -2.96348,-2.51951 -6.82617,-3.86914 -7.47867,-2.61305 -16.56709,-7.05247 -17.48828,-8.54297 -0.34638,-0.56046 -1.5704,-1.01953 -2.71875,-1.01953 z"
       style="fill:url(#linearGradient4712)" />
  </g>
</svg>
