<?xml version="1.0" encoding="UTF-8" standalone="no"?>
<svg
   xmlns:osb="http://www.openswatchbook.org/uri/2009/osb"
   xmlns:dc="http://purl.org/dc/elements/1.1/"
   xmlns:cc="http://creativecommons.org/ns#"
   xmlns:rdf="http://www.w3.org/1999/02/22-rdf-syntax-ns#"
   xmlns:svg="http://www.w3.org/2000/svg"
   xmlns="http://www.w3.org/2000/svg"
   xmlns:xlink="http://www.w3.org/1999/xlink"
   version="1.1"
   id="svg2985"
   height="875.43036"
   width="630.27002">
  <defs
     id="defs5498">
    <linearGradient
       osb:paint="solid"
       id="linearGradient4756">
      <stop
         id="stop4758"
         offset="0"
         style="stop-color:#ffffff;stop-opacity:1;" />
    </linearGradient>
    <linearGradient
       osb:paint="solid"
       id="linearGradient4750">
      <stop
         id="stop4752"
         offset="0"
         style="stop-color:#000000;stop-opacity:1;" />
    </linearGradient>
    <linearGradient
       osb:paint="solid"
       id="linearGradient5694">
      <stop
         id="stop5696"
         offset="0"
         style="stop-color:#002b11;stop-opacity:1;" />
    </linearGradient>
    <linearGradient
       osb:paint="solid"
       id="linearGradient4712">
      <stop
         id="stop4714"
         offset="0"
         style="stop-color:#162d50;stop-opacity:1;" />
    </linearGradient>
    <linearGradient
       osb:paint="solid"
       id="linearGradient4706">
      <stop
         id="stop4708"
         offset="0"
         style="stop-color:#d40000;stop-opacity:1;" />
    </linearGradient>
    <linearGradient
       gradientUnits="userSpaceOnUse"
       y2="508.69208"
       x2="761.44257"
       y1="508.69208"
       x1="262.13925"
       id="linearGradient4716"
       xlink:href="#linearGradient4712" />
    <linearGradient
       gradientUnits="userSpaceOnUse"
       y2="500.0004"
       x2="771.30902"
       y1="500.0004"
       x1="228.69211"
       id="linearGradient4754"
       xlink:href="#linearGradient4750" />
    <linearGradient
       gradientUnits="userSpaceOnUse"
       y2="500.10483"
       x2="752.40271"
       y1="500.10483"
       x1="248.61133"
       id="linearGradient4760"
       xlink:href="#linearGradient4756" />
    <linearGradient
       y2="508.69208"
       x2="761.44257"
       y1="508.69208"
       x1="262.13925"
       gradientUnits="userSpaceOnUse"
       id="linearGradient501"
       xlink:href="#linearGradient4712" />
    <linearGradient
       y2="508.69208"
       x2="761.44257"
       y1="508.69208"
       x1="262.13925"
       gradientUnits="userSpaceOnUse"
       id="linearGradient503"
       xlink:href="#linearGradient4712" />
    <linearGradient
       y2="508.69208"
       x2="761.44257"
       y1="508.69208"
       x1="262.13925"
       gradientUnits="userSpaceOnUse"
       id="linearGradient505"
       xlink:href="#linearGradient4712" />
  </defs>
  <metadata
     id="metadata5594">
    <rdf:RDF>
      <cc:Work
         rdf:about="">
        <dc:format>image/svg+xml</dc:format>
        <dc:type
           rdf:resource="http://purl.org/dc/dcmitype/StillImage" />
        <dc:title />
      </cc:Work>
    </rdf:RDF>
  </metadata>
  <g
     transform="translate(-184.86484,-62.285179)"
     style="display:inline"
     id="layer6">
    <path
       id="path4716"
       d="m 627.70117,80.15625 c -13.04658,-0.0168 -30.14802,0.0809 -52.97265,0.208984 -36.95451,0.207375 -57.98779,0.372552 -70.39063,0.667969 -6.20142,0.147709 -10.24516,0.32742 -13.04297,0.5625 -2.79781,0.23508 -4.34934,0.5246 -5.5664,0.890625 -3.025,0.90976 -8.875,2.100021 -13,2.644531 -2.0625,0.27226 -5.56914,0.96638 -9.55664,1.865235 -3.98751,0.898855 -8.45586,2.002445 -12.44336,3.09375 -3.9875,1.09131 -8.71037,2.259012 -13.10743,3.259765 -4.39706,1.000754 -8.46831,1.834559 -11.15234,2.261719 -5.36806,0.85432 -10.92245,1.995526 -12.3418,2.535156 -1.41936,0.53964 -13.22765,2.331196 -26.24023,3.982426 -11.01949,1.39832 -19.64738,2.54365 -26.66797,3.64843 -7.02059,1.10479 -12.43381,2.16965 -17.02539,3.40235 -2.29579,0.61635 -4.38624,1.2746 -6.36914,2.00195 -1.9829,0.72735 -3.85837,1.52303 -5.72461,2.41406 -3.73248,1.78207 -7.42782,3.94437 -11.87109,6.69727 -7.15,4.42988 -14.19194,8.78912 -15.64844,9.68555 -0.81464,0.50137 -3.44124,2.95891 -6.97656,6.4375 -3.53533,3.47858 -7.97905,7.97764 -12.42579,12.5664 -4.44673,4.58876 -8.89642,9.26575 -12.44531,13.09766 -3.54889,3.83191 -6.19729,6.81932 -7.03906,8.02734 -1.34137,1.925 -6.7197,8.48301 -11.95313,14.57227 -3.66238,4.26129 -6.45208,7.80278 -9.01367,11.57031 -2.56159,3.76753 -4.89507,7.7611 -7.64453,12.92969 -1.9839,3.72944 -3.82661,7.35817 -5.5332,10.91015 -1.70659,3.55199 -3.27756,7.02679 -4.72071,10.44922 -1.44314,3.42243 -2.75761,6.79203 -3.95117,10.13282 -1.19355,3.34078 -2.26483,6.65388 -3.22265,9.96093 -0.95783,3.30706 -1.80115,6.60846 -2.53711,9.92969 -0.73597,3.32123 -1.36462,6.6616 -1.89258,10.04492 -0.52796,3.38332 -0.95525,6.80942 -1.28906,10.30274 -0.33382,3.49331 -0.57498,7.05386 -0.72852,10.70507 -0.18492,4.39762 -0.51109,9.40761 -0.88672,13.9375 -0.37562,4.5299 -0.80071,8.57969 -1.18554,11.05469 -0.38484,2.475 -0.73575,5.56797 -0.99024,8.5586 -0.25449,2.99062 -0.41256,5.8789 -0.41406,7.9414 -0.001,2.0625 -0.28442,5.842 -0.73828,10.26953 -0.45387,4.42754 -1.07868,9.5031 -1.76563,14.15821 -0.68695,4.65511 -1.3109,9.59422 -1.76367,13.80078 -0.45277,4.20656 -0.73437,7.68058 -0.73437,9.4082 0,1.72763 -0.1792,4.43269 -0.46875,7.40039 -0.28955,2.9677 -0.68945,6.19803 -1.12891,8.97266 -0.61047,3.85434 -0.97676,7.39145 -1.13672,11.60742 -0.15996,4.21597 -0.11358,9.11081 0.10156,15.68164 0.59575,18.19578 1.20939,33.32333 1.8125,44.86328 0.60311,11.53995 1.19569,19.49229 1.75196,23.33789 1.62131,11.20842 3.9365,25.42013 6.07031,37.63281 2.1338,12.21268 4.08623,22.42632 4.98437,25.63868 0.55909,1.99967 1.34668,6.09375 2.16407,11.07812 0.81738,4.98438 1.66457,10.85905 2.3457,16.42188 1.36225,11.12565 2.73285,21.57851 3.04687,23.22851 0.31402,1.65 0.97735,19.875 1.47266,40.5 0.29261,12.18452 0.56637,21.84428 0.9043,29.76758 0.33792,7.9233 0.74094,14.11027 1.28906,19.3457 0.54812,5.23544 1.24087,9.5197 2.16406,13.64063 0.9232,4.12093 2.07592,8.07842 3.53906,12.6582 1.59704,4.99883 3.23341,11.29933 3.63477,14.00195 0.40135,2.70262 2.01106,8.68372 3.57813,13.29102 0.78353,2.30366 1.60833,5.09655 2.30468,7.74023 0.69636,2.64369 1.26428,5.13817 1.53711,6.84571 0.54567,3.41507 1.70741,8.61774 2.58203,11.5625 0.87462,2.94477 2.20409,8.56977 2.95508,12.5 0.3755,1.96512 1.12713,4.87653 2.03516,7.98437 0.90803,3.10784 1.97245,6.41211 2.97461,9.16211 2.00432,5.5 4.08719,11.575 4.6289,13.5 0.5313,1.888 2.0434,5.60306 4.04493,10.05078 2.00152,4.44772 4.49246,9.62811 6.98046,14.44922 1.703,3.3 8.61353,14.34233 15.35547,24.53906 5.24053,7.92595 8.61816,12.84074 11.60938,16.59766 1.49561,1.87846 2.89387,3.46651 4.38086,4.99805 1.48698,1.53154 3.06265,3.00611 4.91015,4.65429 2.37681,2.12039 4.66304,4.04768 6.43164,5.44532 1.76861,1.39764 3.01959,2.26562 3.32618,2.26562 0.61318,0 3.86108,1.39254 7.21679,3.09375 1.16408,0.59014 2.50548,1.15595 4.16602,1.73633 1.66054,0.58038 3.64111,1.17595 6.08398,1.82227 4.88576,1.29263 11.62117,2.79222 21.35157,4.80273 l 25.5,5.26953 23.94726,0.13672 c 6.58573,0.038 13.53516,-0.0439 19.42578,-0.20703 5.89063,-0.16316 10.72245,-0.40766 13.07422,-0.69336 6.47856,-0.78704 12.84405,-1.68548 18.85742,-2.64648 6.01337,-0.96101 11.67419,-1.98391 16.7461,-3.02149 5.07191,-1.03758 9.5548,-2.09065 13.20898,-3.10742 3.65418,-1.01677 6.48006,-1.99792 8.24024,-2.89649 0.6875,-0.35097 1.86151,-0.67161 3.19921,-0.90429 1.33771,-0.23269 2.83911,-0.37741 4.18165,-0.37891 1.08054,-10e-4 1.95071,0.0247 2.69531,0.11328 0.74459,0.0886 1.36437,0.2394 1.94336,0.49219 0.57898,0.25279 1.11746,0.6062 1.70117,1.09766 0.58371,0.49145 1.21192,1.12124 1.9707,1.92578 l 3.42774,3.63476 11.6914,-2.3164 c 3.21472,-0.63736 7.31804,-1.30445 11.33985,-1.86524 4.02181,-0.56078 7.96211,-1.01527 10.84961,-1.22851 10.09519,-0.74555 17.48233,-1.36032 22.49023,-1.87891 5.0079,-0.51859 7.63658,-0.94098 8.21875,-1.30078 0.64545,-0.39892 6.03754,-1.38659 11.98242,-2.19531 6.31635,-0.85925 12.55545,-1.82843 18.00977,-2.78321 5.45432,-0.95477 10.12386,-1.89515 13.29883,-2.69726 9.08671,-2.29562 13.60165,-3.29837 18,-3.99805 2.475,-0.39372 5.76614,-1.23158 7.31445,-1.86133 1.5483,-0.62976 4.14544,-1.14453 5.77148,-1.14453 0.81302,0 2.5343,-0.37944 4.65235,-0.99219 2.11805,-0.61274 4.63287,-1.4588 7.0332,-2.38867 4.80066,-1.85973 9.85352,-3.72471 11.22852,-4.14453 1.36357,-0.41633 3.49024,-1.36902 6.02148,-2.65039 2.53124,-1.28137 5.46703,-2.89143 8.45117,-4.62305 2.98415,-1.73161 6.01597,-3.58451 8.73828,-5.35156 2.72231,-1.76705 5.13513,-3.44825 6.88086,-4.83594 1.97619,-1.57087 5.15442,-3.50825 7.06055,-4.30468 0.90931,-0.37994 2.5777,-1.68141 4.65625,-3.54493 2.07854,-1.86351 4.56749,-4.2882 7.12109,-6.91992 2.55361,-2.63171 5.17138,-5.46978 7.50586,-8.15429 2.33449,-2.68452 4.38545,-5.21636 5.80664,-7.23829 1.79188,-2.5493 5.95782,-7.87547 9.25782,-11.83593 1.65,-1.98023 3.49609,-4.41574 5.14257,-6.7461 1.64648,-2.33035 3.09334,-4.55555 3.94141,-6.11133 1.69613,-3.11153 5.02375,-9.0332 7.39648,-13.1582 1.91273,-3.3253 3.68417,-6.55139 5.36329,-9.78515 1.67911,-3.23377 3.26643,-6.47515 4.81054,-9.83204 3.08824,-6.71378 6.00457,-13.88853 9.14453,-22.38281 3.33259,-9.0154 5.48591,-15.20975 6.94141,-20.25586 0.72775,-2.52305 1.28106,-4.75979 1.7207,-6.91797 0.43965,-2.15817 0.7648,-4.23762 1.03711,-6.44921 0.60119,-4.88262 1.85968,-13.15196 2.79688,-18.37696 0.37175,-2.07257 0.66511,-4.2034 0.89453,-7.09375 0.22942,-2.89035 0.39573,-6.54019 0.51562,-11.64844 0.23979,-10.21649 0.29252,-26.26894 0.29102,-53.75781 -10e-4,-21.56271 -0.0975,-38.10181 -0.29688,-50.10547 -0.19935,-12.00365 -0.50156,-19.47187 -0.91601,-22.89453 -0.666,-5.5 -1.71764,-19 -2.33594,-30 -0.85381,-15.18975 -1.5277,-26.03996 -2.125,-33.91797 -0.5973,-7.878 -1.11802,-12.78379 -1.66601,-16.08203 -0.54829,-3.3 -1.27726,-12.975 -1.6211,-21.5 -0.13489,-3.34436 -0.54967,-8.494 -1.12109,-14.4043 -0.57143,-5.91029 -1.29867,-12.58216 -2.0586,-18.97265 -0.75992,-6.39049 -1.55352,-12.49825 -2.2539,-17.2832 -0.70038,-4.78495 -1.30838,-8.24618 -1.70117,-9.33985 -0.2963,-0.825 -0.93351,-6.9 -1.41602,-13.5 -0.24125,-3.3 -1.08611,-10.57422 -2.25391,-19.63672 -1.16779,-9.0625 -2.6585,-19.91328 -4.18945,-30.36328 -3.06189,-20.9 -6.23584,-42.725 -7.05273,-48.5 -0.8169,-5.775 -2.1279,-14.1 -2.91211,-18.5 -0.3921,-2.2 -0.82199,-5.6625 -1.19727,-9.46875 -0.37527,-3.80625 -0.69593,-7.95625 -0.87304,-11.53125 -0.17712,-3.575 -0.66775,-8.85987 -1.31446,-14.49414 -0.64671,-5.63427 -1.44951,-11.61793 -2.2539,-16.5918 -1.24797,-7.71662 -2.16386,-12.70238 -3.30079,-17.10351 -0.56846,-2.20057 -1.19061,-4.25439 -1.93945,-6.43164 -0.74884,-2.17726 -1.62342,-4.47699 -2.6914,-7.16797 -1.37678,-3.46903 -2.62789,-6.83731 -3.53516,-9.4707 -0.90727,-2.6334 -1.4707,-4.53191 -1.4707,-5.0586 0,-1.05338 -0.88444,-4.11298 -1.96485,-6.79883 -1.08041,-2.68584 -4.19564,-13.88281 -6.92383,-24.88281 -2.74374,-11.06267 -4.31809,-17.22489 -5.54882,-21.05664 -0.61537,-1.91587 -1.14514,-3.24908 -1.69141,-4.32031 -0.54627,-1.07123 -1.1097,-1.88137 -1.79297,-2.75 -0.66381,-0.8439 -1.67325,-1.81715 -2.88867,-2.82617 -1.21542,-1.00903 -2.63733,-2.05378 -4.12305,-3.04102 -1.48571,-0.98723 -3.03506,-1.916771 -4.50976,-2.695311 -1.47471,-0.778541 -2.87426,-1.406125 -4.05664,-1.789063 -2.2,-0.71251 -6.475,-2.528996 -9.5,-4.035156 -3.025,-1.50617 -7.075,-3.069269 -9,-3.474609 -1.925,-0.40535 -7.325,-2.211319 -12,-4.011719 -2.80928,-1.081885 -5.08123,-1.95996 -7.52149,-2.669922 -2.44026,-0.709962 -5.04943,-1.252381 -8.5293,-1.660156 -3.47986,-0.407775 -7.83167,-0.682101 -13.75976,-0.857422 -5.92809,-0.175322 -13.43186,-0.25107 -23.2168,-0.263672 z"
       style="color:#000000;clip-rule:nonzero;display:inline;overflow:visible;visibility:visible;opacity:1;isolation:auto;mix-blend-mode:normal;color-interpolation:sRGB;color-interpolation-filters:linearRGB;solid-color:#000000;solid-opacity:1;fill:#f9f9f9;fill-opacity:1;fill-rule:nonzero;stroke:none;stroke-width:1;stroke-linecap:butt;stroke-linejoin:miter;stroke-miterlimit:4;stroke-dasharray:none;stroke-dashoffset:0;stroke-opacity:1;color-rendering:auto;image-rendering:auto;shape-rendering:auto;text-rendering:auto;enable-background:accumulate" />
    <path
       id="path4714"
       d="m 632.92578,62.291016 c -12.60679,-0.0326 -29.05897,0.06049 -50.98242,0.185546 -43.31385,0.24708 -66.85906,0.424923 -80.58008,0.824219 -6.86051,0.199648 -11.26559,0.454548 -14.45703,0.800781 -3.19144,0.346234 -5.16927,0.784437 -7.17773,1.34961 -3.025,0.85123 -8.2,1.837846 -11.5,2.191406 -1.65,0.17678 -4.95,0.835099 -8.9375,1.751953 -3.9875,0.916855 -8.6625,2.092246 -13.0625,3.306641 -4.4,1.214395 -9.24454,2.426479 -13.50391,3.40039 -4.25938,0.973912 -7.93359,1.709652 -9.99609,1.972657 -4.125,0.52602 -9.75,1.628672 -12.5,2.451172 -2.75,0.82251 -9.275,1.992572 -14.5,2.601562 -14.09043,1.642275 -26.00735,3.231877 -35.61329,4.746094 -4.80297,0.757108 -9.02851,1.4961 -12.6582,2.212891 -3.62968,0.71679 -6.66431,1.411093 -9.08594,2.082031 -3.02263,0.837455 -5.53553,1.576667 -7.75976,2.316406 -2.22424,0.739739 -4.15984,1.480594 -6.0293,2.322266 -1.86945,0.841672 -3.67256,1.784479 -5.63086,2.927734 -1.95829,1.143255 -4.07174,2.486375 -6.5625,4.130855 -3.76181,2.48369 -9.06654,5.73296 -11.78711,7.22071 -1.71675,0.93881 -3.66216,2.19903 -5.67773,3.64453 -2.01557,1.44549 -4.10169,3.07587 -6.09571,4.75781 -1.99401,1.68195 -3.89673,3.41434 -5.54882,5.0625 -1.6521,1.64816 -3.05317,3.21249 -4.04297,4.55664 -0.91127,1.2375 -2.97015,3.55308 -5.55469,6.28711 -2.58454,2.73403 -5.69475,5.8865 -8.70508,8.79688 -3.01032,2.91037 -6.20166,6.22226 -8.91797,9.21289 -2.71631,2.99062 -4.95759,5.65998 -6.06836,7.28711 -2.22154,3.25425 -5.2595,7.04101 -6.75,8.41601 -1.48457,1.36954 -3.21807,3.27384 -5.08593,5.55078 -1.86787,2.27695 -3.87035,4.92743 -5.89063,7.78516 -2.02028,2.85773 -4.05816,5.92328 -6,9.03516 -1.94184,3.11187 -3.78739,6.26919 -5.41992,9.30859 -1.63062,3.03583 -3.48656,6.81138 -5.39063,10.90234 -1.90406,4.09097 -3.85653,8.49742 -5.67578,12.79688 -1.81924,4.29945 -3.50664,8.49104 -4.88281,12.15234 -1.37616,3.6613 -2.4408,6.79225 -3.01562,8.96875 -0.96243,3.64412 -1.75351,6.91045 -2.4336,10.24219 -0.68009,3.33174 -1.24881,6.72897 -1.76367,10.63672 -0.51486,3.90774 -0.97661,8.32513 -1.44336,13.69726 -0.46675,5.37214 -0.93886,11.69893 -1.47461,19.42383 -0.49588,7.15 -1.37933,15.7 -1.96289,19 -0.58357,3.3 -1.06978,9.6 -1.08008,14 -0.005,2.2 -0.23271,5.60664 -0.59375,9.32227 -0.36104,3.71562 -0.85557,7.74023 -1.39843,11.17773 -0.54287,3.4375 -1.03919,7.29453 -1.4004,10.73828 -0.3612,3.44375 -0.58729,6.47422 -0.59179,8.26172 -0.005,1.7875 -0.18805,4.48086 -0.48047,7.38086 -0.29242,2.9 -0.69373,6.00664 -1.13281,8.61914 -0.33989,2.02229 -0.60449,3.99853 -0.80078,6.35742 -0.1963,2.3589 -0.32502,5.1011 -0.39454,8.6543 -0.13903,7.1064 -0.0406,17.45846 0.22657,34.48828 0.27241,17.36404 0.51304,27.99088 0.95898,36.33789 0.22297,4.17351 0.49583,7.77583 0.85156,11.36719 0.35574,3.59136 0.79372,7.17096 1.3418,11.29492 1.57307,11.83634 3.78755,26.01957 5.92578,38.40235 1.06912,6.19138 2.11881,11.9327 3.06055,16.70507 0.94174,4.77238 1.77491,8.5763 2.41015,10.89258 0.52795,1.925 1.2981,6.15 2.11329,11.40625 0.81519,5.25625 1.67542,11.54375 2.38476,17.59375 1.41868,12.1 2.81786,23.125 3.10938,24.5 0.29152,1.375 0.92183,20.5 1.40039,42.5 0.23437,10.77406 0.45081,19.24805 0.72851,26.17188 0.27771,6.92382 0.61592,12.2982 1.09375,16.87304 0.47783,4.57485 1.09495,8.34905 1.92969,12.07618 0.83475,3.72712 1.88788,7.40646 3.23633,11.7871 1.60305,5.20777 3.20019,11.18269 3.54883,13.2793 0.34863,2.09661 2.14689,9.2125 3.99609,15.8125 2.24182,8.00128 4.10841,15.07638 5.63281,21.36133 1.5244,6.28495 2.70662,11.77976 3.58008,16.62305 0.79188,4.3909 2.10898,9.5659 2.92774,11.5 0.81877,1.9341 3.29622,8.91562 5.50585,15.51562 1.54371,4.61089 3.24662,9.20211 5.05665,13.66602 1.81002,4.46391 3.72639,8.80057 5.69921,12.90234 1.97283,4.10177 4.00111,7.96771 6.03321,11.49219 2.0321,3.52447 4.06879,6.70743 6.05664,9.43945 2.6012,3.575 7.81504,11.45 11.58594,17.5 1.88544,3.025 4.2241,6.39414 6.47265,9.38477 2.24855,2.99062 4.407,5.60273 5.9336,7.11523 3.64358,3.60992 8.36089,7.85951 12.32421,11.20703 1.98167,1.67376 3.77373,3.12265 5.15039,4.15235 1.37667,1.0297 2.33732,1.64062 2.65235,1.64062 0.54811,0 4.31399,1.61833 8.36914,3.5957 1.52012,0.74125 3.03446,1.39498 4.79687,2.0293 1.76241,0.63432 3.77195,1.24949 6.28321,1.91016 5.02251,1.32133 12.0502,2.82835 23.10742,5.05469 14.74843,2.96956 27.71641,5.83696 28.81641,6.37109 0.55,0.26704 2.1746,0.46385 4.3496,0.56641 2.17501,0.10255 4.9004,0.11084 7.6504,0 5.5,-0.22169 28.675,-0.84033 51.5,-1.375 11.08344,-0.25963 19.98634,-0.51619 27.70312,-0.8711 7.71678,-0.3549 14.24785,-0.8086 20.58789,-1.46484 6.34005,-0.65625 12.48816,-1.51409 19.44141,-2.67774 6.95324,-1.16364 14.7112,-2.63265 24.26758,-4.50976 3.88483,-0.76309 8.47628,-1.44316 13.30078,-1.98828 4.82449,-0.54513 9.88202,-0.95532 14.69922,-1.17578 4.2625,-0.19508 8.41914,-0.48408 11.68164,-0.79102 3.2625,-0.30694 5.63086,-0.63183 6.31836,-0.90234 1.22055,-0.48027 2.34848,-0.80862 5.35742,-1.31641 3.00894,-0.50779 7.89889,-1.195 16.64258,-2.39648 3.77274,-0.51842 8.46956,-1.36741 14.375,-2.60547 5.90544,-1.23806 13.0195,-2.86518 21.625,-4.94141 3.025,-0.72984 9.1,-2.05796 13.5,-2.95117 4.18911,-0.8504 8.7511,-2.03268 13.38867,-3.43359 4.63756,-1.40092 9.35153,-3.02051 13.84375,-4.74415 4.49222,-1.72363 8.76255,-3.55252 12.51562,-5.37109 3.75308,-1.81857 6.98808,-3.62678 9.40821,-5.3125 5.43721,-3.78722 15.47063,-10.09495 20.20117,-12.69922 2.01942,-1.11173 4.21411,-2.64437 6.56054,-4.57226 2.34644,-1.9279 4.84391,-4.25121 7.4668,-6.94336 2.6229,-2.69216 5.3719,-5.7537 8.2207,-9.15821 2.84881,-3.40451 5.79811,-7.15183 8.82227,-11.21679 1.88564,-2.53462 6.38564,-8.03458 10,-12.22071 1.80718,-2.09306 3.82983,-4.71445 5.63281,-7.25195 1.80299,-2.5375 3.3863,-4.99111 4.31446,-6.74805 5.43157,-10.28164 9.55968,-17.89237 13.90234,-25.63281 2.23512,-3.98392 4.60792,-8.93392 5.27344,-11 0.66551,-2.06607 1.57025,-4.21539 2.01172,-4.77734 0.44147,-0.56194 2.43171,-5.51194 4.42187,-11 2.4219,-6.67864 4.41199,-12.31078 6.03516,-17.13086 1.62316,-4.82008 2.87999,-8.82818 3.83593,-12.26172 0.95595,-3.43354 1.61102,-6.29155 2.03125,-8.81055 0.42024,-2.519 0.60505,-4.69892 0.6211,-6.77539 0.0213,-2.75 0.48182,-6.8 1.02344,-9 0.68081,-2.76543 1.23297,-5.76275 1.67773,-9.47851 0.44476,-3.71577 0.78292,-8.14958 1.03516,-13.79102 0.25223,-5.64144 0.41825,-12.49075 0.52148,-21.0332 0.10323,-8.54246 0.14288,-18.77847 0.14063,-31.19727 -0.002,-12.33626 -0.0328,-22.42992 -0.13868,-31.65039 -0.10591,-9.22046 -0.28638,-17.56829 -0.58984,-26.41015 -0.60692,-17.68374 -1.70367,-37.34693 -3.66406,-69.93946 -0.54585,-9.075 -1.67225,-22.35 -2.50196,-29.5 -0.82971,-7.15 -1.72328,-16.6 -1.98632,-21 -0.79182,-13.24499 -1.60727,-23.64186 -2.69727,-33.43359 -1.08999,-9.79174 -2.45452,-18.97835 -4.3418,-29.80078 -0.40898,-2.3453 -0.78072,-5.1657 -1.05078,-7.82032 -0.27006,-2.65461 -0.43845,-5.14344 -0.43945,-6.82617 -0.002,-3.36546 -0.70224,-10.39414 -1.55469,-15.61914 -1.67243,-10.25095 -5.60317,-37.00156 -9.2168,-62.25195 -3.61362,-25.25039 -6.91013,-49.00055 -7.3125,-53.24805 -0.46889,-4.95 -1.29726,-14.175 -1.84179,-20.5 -0.43668,-5.07224 -1.00299,-10.03791 -1.6836,-14.83008 -0.6806,-4.79216 -1.47559,-9.41089 -2.37304,-13.79101 -0.89745,-4.38013 -1.89717,-8.52129 -2.98438,-12.35742 -1.08721,-3.83614 -2.26183,-7.36716 -3.51172,-10.52735 -2.48536,-6.28393 -4.51757,-11.92696 -4.51757,-12.54101 0,-0.61404 -1.10539,-4.34277 -2.45704,-8.28516 -1.35165,-3.94238 -4.48643,-15.26797 -6.96484,-25.16797 -2.47841,-9.9 -5.42266,-20.65852 -6.54297,-23.9082 -0.61424,-1.78171 -1.48775,-3.67274 -2.52929,-5.54883 -1.04155,-1.87609 -2.25152,-3.736323 -3.53711,-5.460937 -1.28559,-1.724614 -2.64778,-3.313344 -3.99415,-4.640625 -1.34636,-1.327281 -2.67651,-2.394032 -3.90039,-3.078125 -1.96643,-1.09914 -5.82421,-3.30608 -8.57421,-4.90625 -2.75,-1.60017 -5.675,-2.926512 -6.5,-2.945312 -0.825,-0.01877 -5.325,-1.823569 -10,-4.011719 -2.3375,-1.094075 -4.66174,-2.089699 -6.52344,-2.8125 -1.86171,-0.722802 -3.26088,-1.172781 -3.74805,-1.175781 -0.97434,-0.0059 -5.89909,-1.624613 -10.94336,-3.595703 -3.13755,-1.226024 -5.69217,-2.222768 -8.34961,-3.029297 -2.65744,-0.806529 -5.41842,-1.422237 -8.96875,-1.888672 -3.55032,-0.466435 -7.88887,-0.78254 -13.70508,-0.988281 -5.81621,-0.205742 -13.10936,-0.301725 -22.56445,-0.326172 z m -5.22461,17.865234 c 9.78494,0.0126 17.28871,0.08835 23.2168,0.263672 5.92809,0.175321 10.2799,0.449647 13.75976,0.857422 3.47987,0.407775 6.08904,0.950194 8.5293,1.660156 2.44026,0.709962 4.71221,1.588037 7.52149,2.669922 4.675,1.8004 10.075,3.606369 12,4.011719 1.925,0.40534 5.975,1.968439 9,3.474609 3.025,1.50616 7.3,3.322646 9.5,4.035156 1.18238,0.382938 2.58193,1.010522 4.05664,1.789063 1.4747,0.77854 3.02405,1.708081 4.50976,2.695311 1.48572,0.98724 2.90763,2.03199 4.12305,3.04102 1.21542,1.00902 2.22486,1.98227 2.88867,2.82617 0.68327,0.86863 1.2467,1.67877 1.79297,2.75 0.54627,1.07123 1.07604,2.40444 1.69141,4.32031 1.23073,3.83175 2.80508,9.99397 5.54882,21.05664 2.72819,11 5.84342,22.19697 6.92383,24.88281 1.08041,2.68585 1.96485,5.74545 1.96485,6.79883 0,0.52669 0.56343,2.4252 1.4707,5.0586 0.90727,2.63339 2.15838,6.00167 3.53516,9.4707 1.06798,2.69098 1.94256,4.99071 2.6914,7.16797 0.74884,2.17725 1.37099,4.23107 1.93945,6.43164 1.13693,4.40113 2.05282,9.38689 3.30079,17.10351 0.80439,4.97387 1.60719,10.95753 2.2539,16.5918 0.64671,5.63427 1.13734,10.91914 1.31446,14.49414 0.17711,3.575 0.49777,7.725 0.87304,11.53125 0.37528,3.80625 0.80517,7.26875 1.19727,9.46875 0.78421,4.4 2.09521,12.725 2.91211,18.5 0.81689,5.775 3.99084,27.6 7.05273,48.5 1.53095,10.45 3.02166,21.30078 4.18945,30.36328 1.1678,9.0625 2.01266,16.33672 2.25391,19.63672 0.48251,6.6 1.11972,12.675 1.41602,13.5 0.39279,1.09367 1.00079,4.5549 1.70117,9.33985 0.70038,4.78495 1.49398,10.89271 2.2539,17.2832 0.75993,6.39049 1.48717,13.06236 2.0586,18.97265 0.57142,5.9103 0.9862,11.05994 1.12109,14.4043 0.34384,8.525 1.07281,18.2 1.6211,21.5 0.54799,3.29824 1.06871,8.20403 1.66601,16.08203 0.5973,7.87801 1.27119,18.72822 2.125,33.91797 0.6183,11 1.66994,24.5 2.33594,30 0.41445,3.42266 0.71666,10.89088 0.91601,22.89453 0.19936,12.00366 0.29588,28.54276 0.29688,50.10547 10e-4,27.48887 -0.0512,43.54132 -0.29102,53.75781 -0.11989,5.10825 -0.2862,8.75809 -0.51562,11.64844 -0.22942,2.89035 -0.52278,5.02118 -0.89453,7.09375 -0.9372,5.225 -2.19569,13.49434 -2.79688,18.37696 -0.27231,2.21159 -0.59746,4.29104 -1.03711,6.44921 -0.43964,2.15818 -0.99295,4.39492 -1.7207,6.91797 -1.4555,5.04611 -3.60882,11.24046 -6.94141,20.25586 -3.13996,8.49428 -6.05629,15.66903 -9.14453,22.38281 -1.54411,3.35689 -3.13143,6.59827 -4.81054,9.83204 -1.67912,3.23376 -3.45056,6.45985 -5.36329,9.78515 -2.37273,4.125 -5.70035,10.04667 -7.39648,13.1582 -0.84807,1.55578 -2.29493,3.78098 -3.94141,6.11133 -1.64648,2.33036 -3.49257,4.76587 -5.14257,6.7461 -3.3,3.96046 -7.46594,9.28663 -9.25782,11.83593 -1.42119,2.02193 -3.47215,4.55377 -5.80664,7.23829 -2.33448,2.68451 -4.95225,5.52258 -7.50586,8.15429 -2.5536,2.63172 -5.04255,5.05641 -7.12109,6.91992 -2.07855,1.86352 -3.74694,3.16499 -4.65625,3.54493 -1.90613,0.79643 -5.08436,2.73381 -7.06055,4.30468 -1.74573,1.38769 -4.15855,3.06889 -6.88086,4.83594 -2.72231,1.76705 -5.75413,3.61995 -8.73828,5.35156 -2.98414,1.73162 -5.91993,3.34168 -8.45117,4.62305 -2.53124,1.28137 -4.65791,2.23406 -6.02148,2.65039 -1.375,0.41982 -6.42786,2.2848 -11.22852,4.14453 -2.40033,0.92987 -4.91515,1.77593 -7.0332,2.38867 -2.11805,0.61275 -3.83933,0.99219 -4.65235,0.99219 -1.62604,0 -4.22318,0.51477 -5.77148,1.14453 -1.54831,0.62975 -4.83945,1.46761 -7.31445,1.86133 -4.39835,0.69968 -8.91329,1.70243 -18,3.99805 -3.17497,0.80211 -7.84451,1.74249 -13.29883,2.69726 -5.45432,0.95478 -11.69342,1.92396 -18.00977,2.78321 -5.94488,0.80872 -11.33697,1.79639 -11.98242,2.19531 -0.58217,0.3598 -3.21085,0.78219 -8.21875,1.30078 -5.0079,0.51859 -12.39504,1.13336 -22.49023,1.87891 -2.8875,0.21324 -6.8278,0.66773 -10.84961,1.22851 -4.02181,0.56079 -8.12513,1.22788 -11.33985,1.86524 l -11.6914,2.3164 -3.42774,-3.63476 c -0.75878,-0.80454 -1.38699,-1.43433 -1.9707,-1.92578 -0.58371,-0.49146 -1.12219,-0.84487 -1.70117,-1.09766 -0.57899,-0.25279 -1.19877,-0.40363 -1.94336,-0.49219 -0.7446,-0.0886 -1.61477,-0.11453 -2.69531,-0.11328 -1.34254,10e-4 -2.84394,0.14622 -4.18165,0.37891 -1.3377,0.23268 -2.51171,0.55332 -3.19921,0.90429 -1.76018,0.89857 -4.58606,1.87972 -8.24024,2.89649 -3.65418,1.01677 -8.13707,2.06984 -13.20898,3.10742 -5.07191,1.03758 -10.73273,2.06048 -16.7461,3.02149 -6.01337,0.961 -12.37886,1.85944 -18.85742,2.64648 -2.35177,0.2857 -7.18359,0.5302 -13.07422,0.69336 -5.89062,0.16316 -12.84005,0.24498 -19.42578,0.20703 l -23.94726,-0.13672 -25.5,-5.26953 c -9.7304,-2.01051 -16.46581,-3.5101 -21.35157,-4.80273 -2.44287,-0.64632 -4.42344,-1.24189 -6.08398,-1.82227 -1.66054,-0.58038 -3.00194,-1.14619 -4.16602,-1.73633 -3.35571,-1.70121 -6.60361,-3.09375 -7.21679,-3.09375 -0.30659,0 -1.55757,-0.86798 -3.32618,-2.26562 -1.7686,-1.39764 -4.05483,-3.32493 -6.43164,-5.44532 -1.8475,-1.64818 -3.42317,-3.12275 -4.91015,-4.65429 -1.48699,-1.53154 -2.88525,-3.11959 -4.38086,-4.99805 -2.99122,-3.75692 -6.36885,-8.67171 -11.60938,-16.59766 -6.74194,-10.19673 -13.65247,-21.23906 -15.35547,-24.53906 -2.488,-4.82111 -4.97894,-10.0015 -6.98046,-14.44922 -2.00153,-4.44772 -3.51363,-8.16278 -4.04493,-10.05078 -0.54171,-1.925 -2.62458,-8 -4.6289,-13.5 -1.00216,-2.75 -2.06658,-6.05427 -2.97461,-9.16211 -0.90803,-3.10784 -1.65966,-6.01925 -2.03516,-7.98437 -0.75099,-3.93023 -2.08046,-9.55523 -2.95508,-12.5 -0.87462,-2.94476 -2.03636,-8.14743 -2.58203,-11.5625 -0.27283,-1.70754 -0.84075,-4.20202 -1.53711,-6.84571 -0.69635,-2.64368 -1.52115,-5.43657 -2.30468,-7.74023 -1.56707,-4.6073 -3.17678,-10.5884 -3.57813,-13.29102 -0.40136,-2.70262 -2.03773,-9.00312 -3.63477,-14.00195 -1.46314,-4.57978 -2.61586,-8.53727 -3.53906,-12.6582 -0.92319,-4.12093 -1.61594,-8.40519 -2.16406,-13.64063 -0.54812,-5.23543 -0.95114,-11.4224 -1.28906,-19.3457 -0.33793,-7.9233 -0.61169,-17.58306 -0.9043,-29.76758 -0.49531,-20.625 -1.15864,-38.85 -1.47266,-40.5 -0.31402,-1.65 -1.68462,-12.10286 -3.04687,-23.22851 -0.68113,-5.56283 -1.52832,-11.4375 -2.3457,-16.42188 -0.81739,-4.98437 -1.60498,-9.07845 -2.16407,-11.07812 -0.89814,-3.21236 -2.85057,-13.426 -4.98437,-25.63868 -2.13381,-12.21268 -4.449,-26.42439 -6.07031,-37.63281 -0.55627,-3.8456 -1.14885,-11.79794 -1.75196,-23.33789 -0.60311,-11.53995 -1.21675,-26.6675 -1.8125,-44.86328 -0.21514,-6.57083 -0.26152,-11.46567 -0.10156,-15.68164 0.15996,-4.21597 0.52625,-7.75308 1.13672,-11.60742 0.43946,-2.77463 0.83936,-6.00496 1.12891,-8.97266 0.28955,-2.9677 0.46875,-5.67276 0.46875,-7.40039 0,-1.72762 0.2816,-5.20164 0.73437,-9.4082 0.45277,-4.20656 1.07672,-9.14567 1.76367,-13.80078 0.68695,-4.65511 1.31176,-9.73067 1.76563,-14.15821 0.45386,-4.42753 0.73678,-8.20703 0.73828,-10.26953 0.001,-2.0625 0.15957,-4.95078 0.41406,-7.9414 0.25449,-2.99063 0.6054,-6.0836 0.99024,-8.5586 0.38483,-2.475 0.80992,-6.52479 1.18554,-11.05469 0.37563,-4.52989 0.7018,-9.53988 0.88672,-13.9375 0.15354,-3.65121 0.3947,-7.21176 0.72852,-10.70507 0.33381,-3.49332 0.7611,-6.91942 1.28906,-10.30274 0.52796,-3.38332 1.15661,-6.72369 1.89258,-10.04492 0.73596,-3.32123 1.57928,-6.62263 2.53711,-9.92969 0.95782,-3.30705 2.0291,-6.62015 3.22265,-9.96093 1.19356,-3.34079 2.50803,-6.71039 3.95117,-10.13282 1.44315,-3.42243 3.01412,-6.89723 4.72071,-10.44922 1.70659,-3.55198 3.5493,-7.18071 5.5332,-10.91015 2.74946,-5.16859 5.08294,-9.16216 7.64453,-12.92969 2.56159,-3.76753 5.35129,-7.30902 9.01367,-11.57031 5.23343,-6.08926 10.61176,-12.64727 11.95313,-14.57227 0.84177,-1.20802 3.49017,-4.19543 7.03906,-8.02734 3.54889,-3.83191 7.99858,-8.5089 12.44531,-13.09766 4.44674,-4.58876 8.89046,-9.08782 12.42579,-12.5664 3.53532,-3.47859 6.16192,-5.93613 6.97656,-6.4375 1.4565,-0.89643 8.49844,-5.25567 15.64844,-9.68555 4.44327,-2.7529 8.13861,-4.9152 11.87109,-6.69727 1.86624,-0.89103 3.74171,-1.68671 5.72461,-2.41406 1.9829,-0.72735 4.07335,-1.3856 6.36914,-2.00195 4.59158,-1.2327 10.0048,-2.29756 17.02539,-3.40235 7.02059,-1.10478 15.64848,-2.25011 26.66797,-3.64843 13.01258,-1.65123 24.82087,-3.442786 26.24023,-3.982426 1.41935,-0.53963 6.97374,-1.680836 12.3418,-2.535156 2.68403,-0.42716 6.75528,-1.260965 11.15234,-2.261719 4.39706,-1.000753 9.11993,-2.168455 13.10743,-3.259765 3.9875,-1.091305 8.45585,-2.194895 12.44336,-3.09375 3.9875,-0.898855 7.49414,-1.592975 9.55664,-1.865235 4.125,-0.54451 9.975,-1.734771 13,-2.644531 1.21706,-0.366025 2.76859,-0.655545 5.5664,-0.890625 2.79781,-0.23508 6.84155,-0.414791 13.04297,-0.5625 12.40284,-0.295417 33.43612,-0.460594 70.39063,-0.667969 22.82463,-0.128085 39.92607,-0.225788 52.97265,-0.208984 z"
       style="color:#000000;clip-rule:nonzero;display:inline;overflow:visible;visibility:visible;opacity:1;isolation:auto;mix-blend-mode:normal;color-interpolation:sRGB;color-interpolation-filters:linearRGB;solid-color:#000000;solid-opacity:1;fill:#000000;fill-opacity:1;fill-rule:nonzero;stroke:none;stroke-width:1;stroke-linecap:butt;stroke-linejoin:miter;stroke-miterlimit:4;stroke-dasharray:none;stroke-dashoffset:0;stroke-opacity:1;color-rendering:auto;image-rendering:auto;shape-rendering:auto;text-rendering:auto;enable-background:accumulate" />
    <path
       id="path5001"
       d="m 586.97266,809.89062 c -8.94043,-0.058 -16.48451,0.12318 -16.76368,0.40235 -0.79449,0.79449 4.35909,6.79103 12.0625,14.03906 3.87349,3.64451 8.52868,8.79774 10.34571,11.45117 4.24682,6.2017 7.07277,8.25455 15.08593,10.96094 8.04331,2.71656 6.75639,2.6165 12.59376,0.98047 2.71232,-0.76018 9.65664,-1.88697 15.43164,-2.50586 21.56908,-2.31153 31.60331,-4.76812 43.5,-10.64648 6.05,-2.98941 13.39775,-6.79816 16.32812,-8.46485 11.43553,-6.50412 17.40441,-13.36022 9.92188,-11.39648 -4.24861,1.11505 -24.19391,1.139 -29,0.0351 -3.38105,-0.77655 -3.75,-0.66318 -3.75,1.16016 0,4.25341 -4.40928,13.37554 -8.40235,17.38281 -6.03897,6.06045 -8.63487,6.81836 -23.34375,6.81836 -12.51164,0 -12.97397,-0.078 -19.7832,-3.3789 -10.72802,-5.20061 -15.76927,-11.72248 -17.33984,-22.42774 l -0.63086,-4.30469 -16.25586,-0.10547 z"
       style="fill:url(#linearGradient4712)" />
    <path
       id="path4999"
       d="m 610.03516,786.25195 c -1.31624,-0.10731 -3.57175,0.009 -7.33204,0.30274 -4.96389,0.38832 -10.47416,1.12128 -12.24414,1.6289 -1.76998,0.50762 -4.57097,0.92669 -6.2246,0.92969 -5.43681,0.0101 -10.50586,1.91894 -10.50586,3.95703 0,1.02832 0.5625,2.09759 1.25,2.375 2.49705,1.00758 24.53922,0.63176 27.8496,-0.47461 3.94969,-1.32004 8.9004,-5.59114 8.9004,-7.67968 0,-0.60075 -0.37712,-0.93175 -1.69336,-1.03907 z m 36.58203,0.22461 c -0.81381,-0.23373 -1.52925,0.1683 -2.91407,0.98633 -1.54566,0.91305 -4.89545,1.94542 -7.44531,2.29492 -4.10187,0.56222 -4.70229,0.9665 -5.21093,3.50977 -0.59354,2.96765 -5.20352,7.22806 -11.06836,10.22851 -3.65305,1.86889 -4.17645,4.79013 -2.09766,11.72852 1.26717,4.22944 3.01415,6.15746 8.02734,8.85351 2.58992,1.39284 5.86376,1.81066 14.89649,1.90626 10.81141,0.11445 11.71096,-0.0255 13.625,-2.12696 3.43518,-3.77151 4.29883,-6.35214 4.29883,-12.83984 0,-5.09539 -0.45246,-6.81358 -2.5,-9.49805 -1.375,-1.80272 -2.5,-4.5005 -2.5,-5.99414 0,-1.80491 -1.21,-3.89039 -3.60743,-6.21875 -1.7775,-1.72628 -2.69009,-2.59634 -3.5039,-2.83008 z"
       style="fill:url(#linearGradient4712)" />
    <path
       id="path4997"
       d="m 291.46484,781.2207 c -1.22749,-0.0631 -1.73632,0.55035 -1.73632,1.83008 0,4.07739 8.50258,26.71793 12.30468,32.76367 1.25104,1.98927 3.09009,0.51862 4.96485,-3.9707 0.973,-2.32997 4.26805,-7.31383 7.32226,-11.07617 3.05421,-3.76235 5.3473,-7.36235 5.09766,-8 -0.24965,-0.63766 -4.21969,-2.46779 -8.82227,-4.06641 -4.60257,-1.59862 -10.48976,-3.96112 -13.08398,-5.25 -2.87325,-1.42751 -4.81938,-2.16733 -6.04688,-2.23047 z"
       style="fill:url(#linearGradient4712)" />
    <path
       id="path4995"
       d="m 464.24023,776.16602 c -0.88601,0.0571 -2.05998,1.06031 -3.20117,2.99218 -2.31153,3.91311 -12.31024,9.51671 -23.26953,13.04102 -4.66452,1.50003 -8.64033,3.20421 -8.83398,3.78516 -0.19364,0.58092 0.63658,3.97892 1.84375,7.55273 1.6321,4.83182 2.08095,8.05678 1.7539,12.57812 -0.62829,8.68605 -2.99364,10.83137 -13.40625,12.15039 -20.20978,2.56012 -29.27123,-0.67939 -40.65039,-14.5332 l -2.36133,-2.87695 -6.80273,4.65625 c -10.46781,7.16654 -34.85897,18.58037 -39.76953,18.60937 -3.7257,0.022 -6.81445,1.12516 -6.81445,2.4336 0,1.67121 8.49017,7.66321 13.98046,9.86719 2.48603,0.99797 8.00178,2.88477 12.25782,4.19335 4.25604,1.30859 8.53104,2.84203 9.5,3.40625 3.85168,2.24281 4.66388,1.43769 4.2832,-4.24218 -0.10528,-1.57068 0.62579,-3.72998 1.64258,-4.85352 3.65477,-4.03847 6.73164,-4.81822 19.03515,-4.82422 11.76379,-0.006 13.99511,-0.33914 26.30079,-3.94726 6.98786,-2.04889 13.32142,-3.68589 19.14843,-4.94922 5.44108,-1.17966 14.53028,-6.66331 21.85157,-13.18164 5.20301,-4.63236 6.96392,-6.99331 8.82421,-11.83203 2.46238,-6.40478 6.14011,-22.71955 6.16211,-27.33399 0.009,-1.85886 -0.58859,-2.74853 -1.47461,-2.6914 z"
       style="fill:url(#linearGradient4712)" />
    <path
       id="path4993"
       d="m 668.51758,770.12109 c -1.1826,-0.01 -2.0455,1.2996 -2.78906,4.23633 -0.59185,2.3375 -1.78405,5.89934 -2.6504,7.91406 -1.62294,3.7742 -1.23239,5.83594 1.10547,5.83594 1.4855,0 7.54493,6.489 7.54493,8.08008 0,0.55617 2.3625,2.13369 5.25,3.50391 4.65866,2.211 6.33823,2.45807 14.91796,2.20312 5.31783,-0.15803 9.99311,-0.61109 10.38868,-1.00781 1.6865,-1.69146 -1.97015,-9.84239 -6.89258,-15.36524 -4.15849,-4.66572 -7.00117,-6.64894 -15.14258,-10.56445 -5.51245,-2.65114 -10.79112,-4.82794 -11.73242,-4.83594 z"
       style="fill:url(#linearGradient4712)" />
    <path
       id="path4991"
       d="m 327.21484,765.28516 c -14.95376,-0.33868 -25.48632,1.434 -25.48632,4.28711 0,0.77757 5.25139,3.28596 12.75,6.09179 11.27609,4.21929 13.96381,4.84018 23.25,5.36719 11.34517,0.64386 14.64351,1.81128 15.57226,5.51172 1.20002,4.78126 -4.08661,9.56445 -10.57226,9.56445 -4.27225,0 -7.70853,2.01216 -13.10157,7.67188 -6.25896,6.56847 -9.6045,11.27209 -10.46289,14.71093 l -0.71875,2.88282 5.85352,-0.73047 c 12.53601,-1.56627 35.29272,-12.93838 45.88867,-22.93164 2.80977,-2.64996 3.60917,-4.12523 3.36328,-6.20313 -0.27687,-2.33971 -1.351,-3.16199 -7.58984,-5.8125 -7.58069,-3.22057 -11.21357,-6.88864 -11.22656,-11.33789 -0.005,-1.82598 -0.56431,-2.25 -2.97071,-2.25 -1.92009,0 -4.26933,-1.1455 -6.66406,-3.25 l -3.69922,-3.25 -14.18555,-0.32226 z"
       style="fill:url(#linearGradient4712)" />
    <path
       id="path4989"
       d="m 384.19336,762.31055 c -6.39087,-0.47036 -8.92618,0.90769 -9.02148,4.90625 -0.0444,1.86441 -0.42551,4.15007 -0.84571,5.07812 -0.59299,1.30966 0.15234,2.15427 3.32617,3.77344 2.24903,1.14737 4.64337,2.97542 5.32227,4.0625 3.24451,5.19529 5.97354,0.0517 5.54297,-10.44531 l -0.28906,-7.07813 -4.03516,-0.29687 z"
       style="fill:url(#linearGradient4712)" />
    <path
       id="path4987"
       d="m 559.80078,762.10742 c -0.69629,0 -1.07226,3.68845 -1.07226,10.5 0,12.10436 0.14209,12.24008 7.8457,7.5 2.68159,-1.65 5.612,-3 6.51367,-3 0.90167,0 1.63586,-0.5625 1.63086,-1.25 -0.0114,-1.46492 -13.34009,-13.75 -14.91797,-13.75 z"
       style="fill:url(#linearGradient4712)" />
    <path
       id="path4985"
       d="m 581.97852,751.11914 c -11.57132,-0.0124 -12.35916,0.62187 -7,5.63867 5.30688,4.96786 9.97094,8.09132 14.75,9.87696 2.475,0.92475 6.75,2.53062 9.5,3.56835 6.84817,2.58421 10.92425,2.18643 11.24414,-1.0957 0.18316,-1.87925 -0.56174,-2.9966 -3,-4.5 -1.94422,-1.19878 -4.24566,-4.0637 -5.74414,-7.15234 -2.93878,-6.05736 -3.75386,-6.31874 -19.75,-6.33594 z m 68.25,12.74219 c -1.1,0.13977 -4.25,0.5221 -7,0.84961 -5.26415,0.62692 -15.09893,3.81824 -17.23829,5.59375 -2.40033,1.9921 -1.41094,4.59825 2.19727,5.78906 2.82194,0.93133 4.48153,0.81864 9.01172,-0.60937 5.47296,-1.72521 5.59232,-1.71929 8.29101,0.38085 1.50596,1.17195 3.28292,2.157 3.94922,2.1875 1.53573,0.0704 3.50306,-7.08447 3.09766,-11.26757 -0.24369,-2.51443 -0.72611,-3.12491 -2.30859,-2.92383 z"
       style="fill:url(#linearGradient4712)" />
    <path
       id="path4983"
       d="m 593.25391,713.15625 c -1.11788,-0.33041 -2.99659,0.56838 -6.04297,2.57813 -5.14072,3.39141 -21.48242,19.44321 -21.48242,21.10156 0,0.97186 3.56322,1.27148 15.14648,1.27148 l 15.14648,0 -0.64648,-7.65039 c -0.35571,-4.20798 -0.64648,-9.83298 -0.64648,-12.5 0,-2.91016 -0.35674,-4.47037 -1.47461,-4.80078 z"
       style="fill:url(#linearGradient4712)" />
    <path
       id="path4981"
       d="m 610.19336,712.10742 c -2.26983,0 -2.46484,0.37133 -2.46484,4.68946 0,2.5794 0.44713,7.1919 0.99414,10.25 0.54702,3.0581 1.24615,7.26362 1.55273,9.3457 0.50321,3.41749 1.06136,4.01239 5.75391,6.11523 2.85891,1.28114 6.28967,3.51557 7.62304,4.96485 3.65083,3.96818 5.07618,3.41777 5.07618,-1.96094 0,-13.77363 -10.89259,-33.4043 -18.53516,-33.4043 z m 67.38476,21.14844 c -1.87925,-0.11681 -4.46678,-0.11584 -7.64257,0.0117 l -9.95313,0.40039 -5.55469,4.28711 c -5.7981,4.4732 -8.69921,8.0129 -8.69921,10.61719 0,1.20164 1.24927,1.53701 5.75,1.54101 3.95726,0.004 6.68534,0.60327 8.75,1.92578 4.18023,2.67762 6.58738,2.51184 11.11718,-0.76953 4.66594,-3.37998 11.41947,-15.52389 9.62891,-17.31445 -0.34655,-0.34667 -1.51723,-0.58241 -3.39649,-0.69922 z"
       style="fill:url(#linearGradient4712)" />
    <path
       id="path4979"
       d="m 647.00977,705.10742 c -20.48088,0 -21.85373,0.3627 -17.23243,4.54492 1.9264,1.74337 7.86077,13.24827 9.39063,18.20508 0.93626,3.03352 2.55881,2.83397 7.17187,-0.88086 7.70946,-6.20831 10.24132,-6.82345 28.1836,-6.84765 15.85924,-0.0214 16.35925,0.0428 18.68359,2.36718 5.4767,5.4767 3.48071,17.05426 -5.22851,30.32227 -2.3375,3.56105 -4.23465,6.99643 -4.21485,7.63281 0.0197,0.63638 3.19987,2.69748 7.06641,4.58203 5.24987,2.55877 8.75197,5.2714 13.83008,10.70899 8.48443,9.08505 10.28779,12.81813 10.80664,22.36523 0.22418,4.125 0.58543,8.0625 0.80273,8.75 0.2173,0.6875 0.63838,1.25 0.93555,1.25 1.21028,0 13.30157,-25.97381 14.97461,-32.16797 2.26109,-8.37131 1.77027,-27.07958 -0.95703,-36.51757 -1.54583,-5.34946 -2.54386,-6.82997 -7.39063,-10.9629 -3.08222,-2.62828 -5.95496,-5.34379 -6.38476,-6.0332 -0.42981,-0.6894 -3.12981,-2.80142 -6,-4.69336 -5.20731,-3.43251 -19.74228,-7.84383 -29.71875,-9.01953 -2.475,-0.29168 -6.96139,-1.2226 -9.96875,-2.06836 -4.05875,-1.14144 -10.43726,-1.53711 -24.75,-1.53711 z"
       style="fill:url(#linearGradient4712)" />
    <path
       id="path4977"
       d="m 372.12109,694.14258 c -32.09865,0.0383 -35.17995,0.39099 -47.86718,5.48242 -8.96118,3.59615 -16.22156,7.87209 -20.09961,11.83789 -3.54797,3.62825 -8.79143,12.76886 -9.83399,17.14453 -0.39313,1.65 -1.73451,4.575 -2.98242,6.5 -3.45208,5.3251 -4.60937,9.62991 -4.60937,17.14844 0,7.20503 0.52252,7.8651 4.2871,5.39844 4.26504,-2.79456 20.84885,-6.54192 28.9629,-6.54492 5.71713,-0.002 7.75,-0.3452 7.75,-1.31055 0,-0.71972 -1.35,-5.00819 -3,-9.5293 -3.76237,-10.30915 -3.99362,-17.76986 -0.75,-24.19726 2.74282,-5.43504 5.52611,-6.93002 12.93359,-6.94922 7.49538,-0.0194 9.16092,0.71986 16.64258,7.40234 l 6.32617,5.65039 2.18555,-3.24023 c 1.20154,-1.78297 4.86838,-4.83667 8.15039,-6.78516 5.46651,-3.24542 6.73547,-3.57132 15.11132,-3.88477 10.92655,-0.40889 13.86986,0.75648 18.34961,7.26758 4.34456,6.31461 5.15689,8.94624 5.89454,19.07422 l 0.65625,9 6,0.57813 c 12.64851,1.22042 29.54559,7.72627 40.65234,15.65039 2.55859,1.82543 4.87783,3.90843 5.1543,4.6289 0.27647,0.72047 1.25,1.3086 2.16406,1.3086 1.23401,0 1.51385,-0.59001 1.08594,-2.29492 -0.31696,-1.26285 -1.24316,-5.78299 -2.0586,-10.04493 -1.96503,-10.2703 -3.25683,-14.03254 -6.46289,-18.82617 -1.4714,-2.2 -3.22704,-5.3826 -3.90234,-7.07226 -0.6753,-1.68966 -3.34533,-4.67459 -5.93164,-6.63282 -2.5863,-1.95823 -7.9813,-6.54108 -11.99024,-10.18359 -8.09331,-7.35357 -15.17929,-11.33111 -25.81836,-14.49609 -6.55906,-1.95123 -9.41563,-2.11298 -37,-2.08008 z m 12.58203,27.12695 c -2.91076,0.33243 -6.02014,1.39782 -8.21289,3.07031 -5.09251,3.88424 -7.85206,14.06585 -6.13671,22.64258 0.67998,3.3999 1.14983,3.56152 6.375,2.20313 1.925,-0.50044 6.54224,-1.20841 10.25976,-1.57422 3.85111,-0.37894 7.40057,-1.30682 8.25,-2.15625 3.10232,-3.10232 0.64117,-19.0899 -3.51758,-22.85352 -1.39529,-1.26271 -4.10681,-1.66446 -7.01758,-1.33203 z m -48.26367,1.92188 c -0.60491,0.20965 -1.06403,0.67341 -1.34375,1.40234 -1.19798,3.12189 3.56119,15.36547 7.91016,20.34766 2.32191,2.66 5.25786,6.06411 6.52344,7.5664 l 0,0.002 c 2.51809,2.9889 4.9013,2.9833 4.35351,-0.01 -0.19048,-1.0408 -0.65481,-4.81758 -1.03125,-8.39258 -0.81812,-7.76972 -1.91669,-10.01443 -7.95117,-16.25 -3.52082,-3.63815 -6.64619,-5.29497 -8.46094,-4.66601 z m 74.14453,33.93164 c -8.12101,0.0232 -8.41383,0.42001 -8.00781,10.89453 0.47911,12.36023 -1.28314,17.34534 -8.9375,25.26562 -3.25034,3.36325 -5.91015,6.88058 -5.91015,7.81836 0,1.81194 4.56716,8.60094 7.30078,10.85156 0.89926,0.74039 3.56304,1.94827 5.91797,2.6836 5.39981,1.68609 7.78932,1.7487 13.33789,0.35156 5.37426,-1.35326 5.48358,-2.13487 1.76367,-12.61328 -2.18144,-6.14477 -3.30047,-7.91374 -6.02539,-9.52148 -7.14397,-4.21504 -7.19799,-9.05966 -0.16406,-14.66016 2.82184,-2.24679 5.77514,-4.08594 6.56445,-4.08594 2.52825,0 5.37356,2.04988 6.32812,4.56055 1.18918,3.12744 3.59574,3.12997 12.76953,0.01 8.06185,-2.74202 12.12959,-5.30981 12.17579,-7.68554 0.0724,-3.71957 -27.1644,-13.89754 -37.11329,-13.86914 z"
       style="fill:url(#linearGradient4712)" />
    <path
       id="path4975"
       d="m 371.56836,667.33984 c -31.30812,-0.78577 -47.08459,2.25551 -67.31055,12.98047 -7.68137,4.0731 -12.12391,7.34697 -19.35547,14.25781 -17.40357,16.63176 -22.80635,26.72745 -26.2539,49.07422 -3.84875,24.94729 -1.8922,43.71319 7.13476,68.45508 4.26568,11.69177 7.76637,17.88069 16.54102,29.24414 17.92874,23.21827 48.85656,39.50512 82.9043,43.65625 13.96473,1.7026 27.70991,0.66756 37.74804,-2.84179 4.81147,-1.6821 9.6212,-3.0586 10.68946,-3.0586 4.50492,0 17.25268,-5.67264 26.5625,-11.82031 16.94255,-11.18787 35.52628,-32.25054 44.1914,-50.08594 2.76496,-5.69113 4.16709,-10.66907 6.05469,-21.5 2.28417,-13.10645 2.37762,-14.93473 1.33203,-26.09375 -1.52719,-16.29866 -3.30497,-23.19221 -9.11523,-35.36133 -6.87517,-14.39948 -12.55734,-21.91666 -23.28711,-30.80664 -19.23818,-15.9395 -34.66712,-24.37978 -59.17578,-32.37109 -9.48853,-3.09384 -10.95386,-3.28413 -28.66016,-3.72852 z m -2.07227,13.95704 c 31.13875,-0.26858 38.12848,-0.0694 42.5,1.20507 8.78528,2.56134 23.22483,10.17204 28.97852,15.27344 2.99806,2.65816 8.90877,7.72923 13.13477,11.26953 7.70384,6.45386 10.16403,9.94438 17.66796,25.0625 1.50147,3.025 3.73224,10.45 4.95508,16.5 1.94561,9.6259 2.15368,12.99869 1.66602,27 -0.57167,16.41327 -1.45123,21.17335 -6.18164,33.5 -3.32935,8.67573 -5.10412,11.17457 -12.08203,17.00977 -11.11949,9.29853 -20.44637,14.88124 -26.90625,16.10351 -6.41015,1.21286 -12.43813,2.84029 -21,5.67188 -6.72211,2.22314 -10.39551,2.7307 -22.99024,3.17969 -12.75678,0.45478 -15.03353,0.7769 -15.29687,2.15625 -0.1811,0.94861 0.52997,1.84054 1.71484,2.15039 5.17941,1.35444 4.83696,9.72636 -0.48047,11.74804 -6.69319,2.54474 -16.48827,0.30752 -43.34961,-9.90429 -2.97111,-1.12952 -7.15771,-3.30463 -9.30273,-4.83399 -2.14502,-1.52937 -4.98746,-3.45625 -6.31836,-4.28125 -1.3309,-0.825 -4.72118,-4.2 -7.5332,-7.5 -2.81203,-3.3 -8.13188,-8.925 -11.82227,-12.5 -7.20885,-6.98345 -9.19711,-10.51052 -16.33984,-29 -5.38697,-13.94458 -6.23181,-19.20644 -6.55665,-40.84375 l -0.30468,-20.3457 3.41015,-7.1543 c 12.09061,-25.36437 12.70222,-26.44153 17.87696,-31.48242 5.7358,-5.58743 14.26665,-10.43149 28.2207,-16.02539 l 9.07227,-3.63672 37.26757,-0.32226 z"
       style="fill:url(#linearGradient4712)" />
    <path
       id="path4973"
       d="m 640.7168,663.44922 c -7.31194,-0.22339 -14.39136,0.0839 -20.99805,0.96094 -13.48654,1.79038 -31.22348,8.25025 -41.99023,15.29101 -10.16917,6.64998 -24.64605,21.46781 -32.14649,32.90625 -7.38693,11.26532 -15.12837,29.42479 -16.83984,39.5 -0.60729,3.575 -1.5832,9.39994 -2.16797,12.94336 -1.4932,9.04818 -0.58389,31.96305 1.60937,40.55664 4.82506,18.90548 6.96086,23.38916 18.69727,39.25196 7.84941,10.60918 15.25075,16.63362 27.34766,22.26367 17.04202,7.93156 21.63851,9.12536 38.5,10 10.5484,0.54717 17.7362,1.45275 22.5,2.83593 8.60663,2.49895 22.29594,2.75545 31.48437,0.58985 3.56666,-0.84061 9.86666,-3.15478 14,-5.14258 6.60108,-3.17458 9.74567,-5.81506 25.85352,-21.70703 26.87331,-26.51316 38.75947,-44.05887 46.80468,-69.0918 3.83364,-11.9285 3.85714,-12.09236 3.72657,-27.5 -0.23084,-27.24139 -4.8089,-40.00325 -20.1211,-56.09375 -10.52042,-11.05517 -17.66035,-16.24863 -30.6582,-22.30273 -19.63735,-9.14663 -43.66574,-14.59154 -65.60156,-15.26172 z m -3.34375,27.6582 c 27.3993,8e-4 36.46398,0.81031 44.85351,4 1.44736,0.55029 3.93519,1 5.52735,1 1.59216,0 7.52406,1.16779 13.18359,2.5957 10.58068,2.66955 20.03297,7.7571 25.75977,13.86524 1.35755,1.44794 4.80302,4.43397 7.6582,6.63672 8.57141,6.61279 12.18014,17.45002 13.06445,39.24023 0.4084,10.06328 0.14924,13.06185 -1.7207,20 -2.34228,8.69066 -15.33085,36.36245 -19.17188,40.84375 -3.37544,3.93811 -17.24717,14.60427 -24.23242,18.63282 -16.93279,9.76551 -27.64102,14.30859 -40.39062,17.13476 -6.97147,1.54534 -16.64618,3.0939 -21.49805,3.44141 -4.85187,0.34751 -10.04565,1.26476 -11.54297,2.03906 -1.49733,0.77429 -5.85389,1.64329 -9.67969,1.92969 -5.89291,0.44114 -8.20628,0.0891 -15.13476,-2.30469 -10.29465,-3.55687 -15.86974,-7.28002 -20.32031,-13.56445 -1.925,-2.71819 -7.39023,-8.77643 -12.14454,-13.46485 -13.82446,-13.63286 -18.53449,-21.19086 -24.76757,-39.74414 -1.85872,-5.53263 -2.08859,-8.56558 -2.08789,-27.5 l 0.002,-21.28125 2.99805,-6.33984 c 2.30196,-4.86592 5.83867,-9.23613 15.20507,-18.78906 6.71258,-6.84624 13.88681,-13.44365 15.94336,-14.66016 23.35703,-13.81641 22.91279,-13.71194 58.4961,-13.71094 z"
       style="fill:url(#linearGradient4712)" />
    <path
       id="path4971"
       d="m 465.42578,544.31836 c -1.49935,0.007 -3.09977,0.28497 -5.39648,0.83594 -5.47906,1.31441 -9.30078,4.04508 -9.30078,6.64258 0,1.98622 13.40896,1.61892 18.99023,-0.51954 6.16421,-2.36187 6.34016,-4.53813 0.49805,-6.17382 -1.89317,-0.53008 -3.29167,-0.79264 -4.79102,-0.78516 z"
       style="fill:url(#linearGradient4706)" />
    <path
       id="path4969"
       d="m 486.47852,536.29688 c -1.31075,-0.25244 -1.75,0.3282 -1.75,2.31054 0,1.98234 0.43925,2.56298 1.75,2.31055 0.9625,-0.18536 1.75,-1.22561 1.75,-2.31055 0,-1.08494 -0.7875,-2.12519 -1.75,-2.31054 z"
       style="fill:url(#linearGradient4706)" />
    <path
       id="path4967"
       d="m 513.68164,536.10742 c -2.20722,0 -7.92507,4.94844 -9.82226,8.5 -2.38306,4.4611 -2.80098,11.20213 -0.85938,13.85742 0.69937,0.95645 5.31187,3.24288 10.25,5.08204 4.93812,1.83914 9.76602,3.39362 10.72852,3.45312 2.57226,0.15906 2.2195,-3.14862 -1.32227,-12.39258 -1.68584,-4.4 -3.43687,-9.18035 -3.89063,-10.62304 -1.03133,-3.2791 -3.99927,-7.87696 -5.08398,-7.87696 z"
       style="fill:url(#linearGradient4706)" />
    <path
       id="path4965"
       d="m 468.25391,520.10742 c -14.10848,0 -14.69605,1.76333 -2.52539,7.58008 3.11998,1.49114 6.26336,2.11968 10.25,2.05078 l 5.75,-0.0996 0,-4.1582 c 0,-2.86989 -0.49051,-4.34677 -1.58204,-4.76563 -0.86998,-0.33385 -6.2214,-0.60742 -11.89257,-0.60742 z"
       style="fill:url(#linearGradient4706)" />
    <path
       id="path4963"
       d="m 514.72852,515.33789 0,5.88477 0,5.88476 4.58789,0 c 4.2036,0 5.06227,0.45968 10.25,5.48047 5.41886,5.24447 5.89193,5.4807 11.02539,5.5 3.69103,0.0139 6.57581,-0.66108 9.25,-2.16406 7.1663,-4.02769 5.18034,-6.87549 -9.77735,-14.01367 -9.81402,-4.6835 -12.98873,-5.72832 -18.58593,-6.11133 l -6.75,-0.46094 z"
       style="fill:url(#linearGradient4706)" />
    <path
       id="path4961"
       d="m 472.57227,486.10742 c -2.41023,0 -2.84375,0.40373 -2.84375,2.64649 0,4.01328 4.01609,14.62078 6.30273,16.64648 3.43992,3.04737 5.24481,1.82025 4.87695,-3.31445 -0.77167,-10.77142 -3.4894,-15.97852 -8.33593,-15.97852 z m 49.09375,3 c -9.05328,0 -19.018,3.38722 -23.38868,7.94922 -2.23153,2.32922 -2.43978,3.18328 -1.89453,7.78711 l 0.61328,5.17187 5.61524,0.35743 c 3.08888,0.19625 6.40469,0.44092 7.36719,0.54492 1.36738,0.14774 1.75,-0.57036 1.75,-3.28711 0,-3.88136 1.7493,-5.4369 8.5,-7.55664 4.99782,-1.56932 12.5,-6.61582 12.5,-8.4082 0,-2.01533 -2.35049,-2.5586 -11.0625,-2.5586 z"
       style="fill:url(#linearGradient4706)" />
    <path
       id="path4959"
       d="m 528.22852,459.98438 -21.5,0.45898 c -11.825,0.2527 -24.59584,0.94556 -28.37891,1.53906 -11.2652,1.76733 -30.83497,12.77041 -35.28125,19.83789 -0.96426,1.53273 -3.07274,4.33712 -4.68555,6.23047 -4.02502,4.72518 -10.48577,18.50216 -11.77539,25.10742 -0.58526,2.99759 -1.29131,11.91746 -1.56836,19.82422 -0.40863,11.66198 -0.18117,15.53204 1.20899,20.5 4.36657,15.60467 17.52587,35.00793 27.48047,40.52149 3.025,1.67546 5.94401,2.91198 6.48828,2.74609 0.54427,-0.16589 0.85025,-1.92256 0.67968,-3.90234 -0.22372,-2.59677 0.26802,-4.17623 1.76172,-5.66993 2.59848,-2.59844 6.1688,-2.61681 13.57032,-0.0703 5.08016,1.74783 8.41726,2 26.46875,2 20.0801,0 20.89135,-0.0804 29.09375,-2.85547 13.96896,-4.72606 19.15034,-7.86623 24.98828,-15.14453 2.86752,-3.575 6.67057,-9.51565 8.45117,-13.20117 1.78059,-3.68552 4.92465,-9.24161 6.98633,-12.34766 6.28055,-9.46206 8.05529,-18.00849 7.76172,-37.36914 -0.24223,-15.97415 -0.3327,-16.60942 -3.38477,-23.5 -3.59948,-8.12645 -9.53833,-14.41389 -15.46289,-16.37109 -2.14639,-0.70907 -10.42734,-2.87506 -18.40234,-4.8125 l -14.5,-3.52148 z m -60.01954,12.28515 c 9.35045,-0.47218 13.15435,0.81793 18.78907,6.37305 4.49086,4.42742 6.44791,5.27538 8.27929,3.58984 0.5225,-0.4809 4.64821,-2.2809 9.16797,-4 7.15801,-2.72258 9.47202,-3.125 17.93555,-3.125 11.10032,0 15.31874,1.4817 21.59766,7.58399 5.12619,4.98198 5.1964,9.79564 0.25,17.14062 -1.925,2.85846 -3.5,5.64632 -3.5,6.19727 0,0.55095 4.29198,3.10509 9.5371,5.67382 12.66024,6.2002 18.4629,13.16743 18.4629,22.16993 0,5.20189 -2.29448,7.97365 -10.9043,13.17578 -5.66594,3.42341 -8.24499,4.34039 -13.7832,4.89648 -6.09367,0.61188 -6.77261,0.89262 -6.42579,2.67188 0.78464,4.0254 1.24953,18.81382 0.66407,21.14648 -0.33212,1.32328 -2.05539,3.29022 -3.82813,4.3711 -3.99244,2.43432 -8.72068,2.45844 -15.22265,0.0762 -2.75,-1.00757 -7.49738,-2.73907 -10.54883,-3.84571 -12.13061,-4.39928 -16.48981,-7.67478 -19.30469,-14.50781 -0.84966,-2.0625 -2.02494,-3.75 -2.61133,-3.75 -0.5864,0 -3.42161,1.31336 -6.30078,2.91797 -8.54807,4.76398 -14.72264,6.08203 -28.48242,6.08203 -16.27342,0 -19.1608,-1.50472 -19.2207,-10.01758 -0.0349,-4.9547 1.88192,-8.45487 9.73437,-17.77343 l 4.45898,-5.29102 -5.61132,-5.88477 c -5.09973,-5.34654 -5.61328,-6.29213 -5.61328,-10.34765 0,-7.43927 1.86768,-8.79274 13.82421,-10.00391 11.33232,-1.14795 11.42983,-1.23962 8.78711,-8.41211 -2.44602,-6.63863 -3.89549,-14.94076 -3.22851,-18.49609 1.10545,-5.89258 4.58826,-8.18162 13.09765,-8.61133 z"
       style="fill:url(#linearGradient4706)" />
    <path
       id="path4957"
       d="m 500.26172,429.25977 c -3.80141,0.22322 -6.65757,0.77494 -11.16602,1.80859 -27.73832,6.35955 -42.88214,12.88785 -62.04297,26.74609 -11.57598,8.37244 -13.30695,10.1685 -22.43945,23.29883 -8.2481,11.85877 -8.72702,12.82146 -13.7207,27.56836 -4.619,13.64045 -5.9756,24.33483 -4.30469,33.92578 3.59187,20.61715 6.29221,28.56778 13.21484,38.91797 9.55883,14.29163 34.26862,32.57321 52.23047,38.64258 4.50776,1.52318 12.29609,5.04124 17.3086,7.81641 11.03144,6.10751 17.87945,8.88325 24.72851,10.02734 7.73797,1.29259 14.03682,1.20694 25.75781,-0.35352 12.29743,-1.6372 20.67333,-4.72148 29.9004,-11.00976 6.28712,-4.28469 18.5478,-16.8279 24.47851,-25.04102 1.58863,-2.2 5.916,-8.05 9.61524,-13 9.65508,-12.9196 16.28027,-25.03959 21.55273,-39.42773 4.55092,-12.4191 4.61289,-12.75729 5.10938,-27.66992 0.81235,-24.40019 -1.8574,-34.08315 -14.33008,-51.97266 -9.59347,-13.75988 -10.8291,-15.01452 -23.4961,-23.88867 -18.89496,-13.23728 -25.62684,-15.20264 -55.5625,-16.22266 -8.28591,-0.28233 -13.03257,-0.38924 -16.83398,-0.16601 z m 6.9668,18.34765 31,0 11.5,3.1836 c 12.78688,3.54023 21.30186,6.56107 23.82812,8.45312 5.89512,4.41516 10.79361,10.32419 14.39453,17.36328 4.64646,9.08293 5.9578,17.06394 6.16211,37.5 0.14914,14.91739 -2.82171,26.02938 -10.26953,38.4043 -2.81304,4.674 -5.11523,8.84895 -5.11523,9.27734 0,1.55888 -7.45164,12.98448 -12.72852,19.51563 -6.36402,7.87669 -13.52284,12.24449 -28.77148,17.55859 -8.69283,3.02942 -11.60128,3.55161 -22.25,3.98633 l -12.25,0.5 0,2.87891 c 0,1.5836 -0.9,3.7789 -2,4.8789 -1.86216,1.86213 -3.29223,1.99536 -20.75,1.94336 -20.24804,-0.0603 -20.5724,-0.12527 -32.24805,-6.46094 -6.61474,-3.58942 -18.88994,-16.06397 -22.61524,-22.98242 -6.46534,-12.00715 -11.40042,-22.66588 -12.48242,-26.96289 -0.79774,-3.16808 -1.00258,-11.34758 -0.64648,-25.83594 0.43426,-17.66785 0.85107,-22.1179 2.49414,-26.70507 3.08124,-8.60227 7.71763,-17.18511 13.03515,-24.12696 2.68375,-3.50354 5.40279,-7.35026 6.04297,-8.54883 1.5996,-2.99481 14.98915,-12.24154 24.66993,-17.03711 13.39303,-6.63447 14.47177,-6.7832 49,-6.7832 z"
       style="fill:url(#linearGradient4712)" />
    <path
       id="path4955"
       d="m 395.55469,299.47852 c -1.67683,-0.0921 -3.40954,0.49572 -5.08789,1.86914 -2.75346,2.25319 -2.75785,2.27844 -1.60352,8.73242 0.85422,4.77604 1.88469,7.20109 3.9336,9.25 2.37016,2.37018 3.59291,2.77734 8.33984,2.77734 l 5.56055,0 -0.625,-6.25 c -0.96938,-9.70276 -5.4871,-16.10267 -10.51758,-16.3789 z"
       style="fill:url(#linearGradient4712)" />
    <path
       id="path4953"
       d="m 334.91602,297.42383 c 0.79773,0.31922 0.55948,0.55747 -0.60547,0.60547 -1.05416,0.0434 -1.64479,-0.1931 -1.3125,-0.52539 0.33229,-0.33225 1.19609,-0.36895 1.91797,-0.0801 z"
       style="fill:url(#linearGradient4712)" />
    <path
       id="path4951"
       d="m 346.45508,297.37695 c 2.07476,0.21648 0.62344,0.39835 -3.22656,0.40235 -3.85,0.004 -5.54868,-0.17362 -3.77344,-0.39453 1.77523,-0.22084 4.92523,-0.22429 7,-0.008 z"
       style="fill:url(#linearGradient4712)" />
    <path
       id="path4949"
       d="m 612.13867,287.10938 c -0.59922,-5.9e-4 -1.60676,1.13153 -2.23828,2.51757 -1.45213,3.18708 -5.24442,4.6517 -10.05273,3.88282 -3.45827,-0.553 -4.17451,-0.20363 -9.38086,4.55468 -6.10282,5.57763 -7.58135,8.32397 -5.69922,10.5918 1.57958,1.90331 12.85374,1.92617 18.96094,0.0391 6.18235,-1.91034 13.79907,-6.35175 15.5957,-9.09375 1.39617,-2.13082 1.24824,-2.60344 -2.30274,-7.38476 -2.08646,-2.80938 -4.2836,-5.10684 -4.88281,-5.10742 z m 30.08985,13.99218 -5,0.25391 -5,0.25195 -0.29297,8.94141 c -0.31392,9.62241 0.74005,13.70758 4.15234,16.09765 2.4468,1.7138 8.90821,1.92265 11.78906,0.38086 1.76623,-0.94526 1.93719,-1.72271 1.38086,-6.25 -0.34945,-2.84375 -2.07339,-8.43293 -3.83203,-12.42187 l -3.19726,-7.25391 z"
       style="fill:url(#linearGradient4712)" />
    <path
       id="path4947"
       d="m 633.63477,277.33203 c -0.82136,0.0393 -1.82972,0.21744 -3.03321,0.5293 -3.91976,1.01571 -4.83616,3.52522 -2.30664,6.32031 3.20937,3.54632 6.58939,2.13662 7.95899,-3.32031 0.63171,-2.51697 -0.15509,-3.64731 -2.61914,-3.5293 z m 16.75195,0.95508 c -0.63248,0.25166 -0.6582,0.90482 -0.6582,2.19141 0,1.98339 0.5024,2.6289 2.04882,2.6289 2.99009,0 8.08138,2.84172 10.95118,6.11328 1.375,1.56749 3.85,3.53164 5.5,4.36328 4.5619,2.29932 19.79227,2.02815 25.25,-0.44921 2.3375,-1.06103 4.25,-2.57598 4.25,-3.36524 0,-1.6886 -20.3743,-7.66411 -26.125,-7.66211 -1.99335,5.5e-4 -5.50101,-0.66136 -7.79493,-1.4707 -2.29392,-0.80934 -6.39977,-1.7674 -9.125,-2.12891 -2.42503,-0.32169 -3.66439,-0.47236 -4.29687,-0.2207 z"
       style="fill:url(#linearGradient4712)" />
    <path
       id="path4945"
       d="m 604.47852,239.12305 c -2.38034,-0.0486 0.85888,14.56086 4.04296,18.23437 3.11367,3.59228 6.14796,1.37653 6.19336,-4.52344 0.0239,-3.09926 -7.86236,-13.66243 -10.23632,-13.71093 z m 45.77539,9.98437 c -7.47517,0 -10.42912,0.42166 -13.31641,1.90235 -5.51272,2.82709 -8.42254,6.35755 -8.03516,9.74414 0.30521,2.6683 0.68431,2.89262 5.82618,3.4414 3.025,0.32286 6.00679,0.6604 6.62695,0.75 0.62015,0.0897 1.69299,-0.51843 2.38281,-1.34961 0.68982,-0.83119 4.23107,-2.42744 7.8711,-3.54687 6.32528,-1.94525 12.11914,-5.70054 12.11914,-7.85742 0,-2.12196 -4.20115,-3.08399 -13.47461,-3.08399 z"
       style="fill:url(#linearGradient4712)" />
    <path
       id="path4943"
       d="m 401.58203,208.24414 c -1.05365,-10e-4 -2.25887,0.0795 -3.7832,0.20703 -11.40819,0.95449 -22.41232,2.38191 -27.07031,3.50977 -2.475,0.59928 -7.84529,1.82684 -11.9336,2.72851 -8.28539,1.82732 -20.39859,6.67097 -26.71875,10.6836 -2.28375,1.44994 -5.65875,4.51877 -7.5,6.82031 -1.84125,2.30155 -5.27839,6.32788 -7.63867,8.94726 -5.68751,6.31186 -9.55604,13.9502 -14.38281,28.4043 -4.33539,12.98259 -4.24971,11.48913 -1.92578,34.0625 1.10428,10.72639 1.30928,11.35436 8.27734,25.27149 8.92604,17.82777 13.36404,22.43474 24.32227,25.25195 4.25711,1.09449 9.5,1.13759 9.5,0.0781 0,-0.49386 -1.11992,-2.85636 -2.48829,-5.25 -2.17128,-3.79812 -2.4895,-5.57056 -2.5,-13.93164 -0.0104,-8.24865 0.33554,-10.26443 2.48438,-14.5 3.69068,-7.27466 3.59293,-7.41992 -5.01758,-7.41992 -6.12249,0 -8.68512,-0.52771 -13.77148,-2.83398 -3.43694,-1.55838 -7.47754,-4.29236 -8.97852,-6.07617 -2.30727,-2.74203 -2.72851,-4.16905 -2.72851,-9.23243 0,-11.40709 2.45692,-12.85742 21.7832,-12.85742 11.67378,0 13.88281,-0.2387 13.88281,-1.5 0,-0.825 -0.33427,-1.5 -0.74219,-1.5 -0.40791,0 -3.20359,-2.00567 -6.21289,-4.45703 -8.62885,-7.02901 -13.67102,-17.60123 -13.69922,-28.7207 -0.01,-3.86975 0.44316,-5.0353 2.62305,-6.75 2.28254,-1.79544 4.02665,-2.07227 13.04883,-2.07227 11.17401,0 13.96267,0.82554 18.24023,5.4043 3.14143,3.36262 5.54463,3.2924 6.99414,-0.20703 1.67166,-4.03575 9.42438,-11.19969 13.81836,-12.76758 5.69727,-2.03294 14.16578,-1.78663 17.95118,0.52148 3.80696,2.32127 11.03916,13.07661 11.9082,17.70899 0.63873,3.4047 0.15738,9.23207 -1.07227,12.98633 -0.62314,1.90251 -0.23397,2.22579 3.41211,2.84179 5.6378,0.9525 13.07791,6.17495 15.76953,11.06836 1.22744,2.2315 2.5304,6.60585 2.89649,9.72071 0.85872,7.30641 -0.67599,9.73348 -8.10938,12.81445 -4.75901,1.9725 -5.52434,2.63823 -5.01172,4.36719 3.29039,11.09777 3.96166,27.29597 1.25391,30.28515 -2.49119,2.75011 -8.31628,4.25586 -16.45898,4.25586 -5.78216,0 -8.0139,-0.51628 -12.88477,-2.98633 -3.24001,-1.64304 -6.16537,-2.993 -6.5,-3 -0.33463,-0.007 -2.24531,2.34883 -4.24609,5.23633 -2.00078,2.8875 -5.86099,7.95 -8.57813,11.25 -7.02185,8.52811 -6.8895,8.7786 4.1836,7.99414 5.0875,-0.36043 10.6,-1.0319 12.25,-1.49218 1.65,-0.46028 6.375,-1.12637 10.5,-1.48047 13.52853,-1.16132 19.5407,-3.96134 27.83984,-12.96485 5.27845,-5.72644 12.77127,-20.97294 14.2793,-29.05664 1.31106,-7.02788 0.61498,-39.59883 -0.99414,-46.5 -0.57708,-2.475 -2.01058,-8.66446 -3.18555,-13.7539 -2.73136,-11.83102 -7.11169,-22.33943 -12.08789,-29.00196 -3.00814,-4.02754 -5.59561,-6.09747 -11.06836,-8.85351 -4.97046,-2.50308 -6.76873,-3.25091 -9.92969,-3.25391 z m -76.10937,27.86328 c 0.275,0 -0.0595,0.675 -0.74414,1.5 -0.68469,0.825 -1.4711,1.5 -1.7461,1.5 -0.275,0 0.0614,-0.675 0.7461,-1.5 0.68469,-0.825 1.46914,-1.5 1.74414,-1.5 z m 62.97265,5.2832 c -0.42939,-0.0259 -0.89656,0.0478 -1.45312,0.1875 -4.38056,1.09945 -7.99203,4.76331 -10.6875,10.84571 -2.41999,5.46078 -3.44064,13.48711 -1.91016,15.01758 0.36666,0.36667 2.61666,0.66601 5,0.66601 3.98516,0 4.33399,-0.20681 4.33399,-2.5664 0,-3.80838 1.5342,-6.00528 5.21093,-7.46094 7.59455,-3.00678 8.53259,-6.26411 3.7168,-12.91211 -1.97795,-2.73047 -2.92276,-3.69961 -4.21094,-3.77735 z m -45.00586,8.7168 c -3.06918,0 -3.71093,0.35232 -3.71093,2.03906 0,4.94215 5.00738,11.24476 12.45703,15.67579 3.95754,2.35394 5.54297,1.62898 5.54297,-2.53321 0,-3.22593 -0.82042,-4.6984 -5.28907,-9.5 -4.59682,-4.93932 -5.77367,-5.68164 -9,-5.68164 z m 52.97852,24.19727 c -0.85917,0.14409 -0.69151,0.93584 -0.50586,2.54492 0.21231,1.84023 1.23381,3.18022 3.10351,4.07227 1.5326,0.73121 3.32803,2.19745 3.99024,3.25781 0.90274,1.44553 2.33176,1.92361 5.71289,1.91211 5.81155,-0.0197 7.4566,-1.06889 6.6582,-4.25 -0.68533,-2.73055 -2.87654,-3.83558 -12.29297,-6.19532 -3.92104,-0.9826 -5.80684,-1.48589 -6.66601,-1.34179 z m -13.68945,7.71484 -7.25,0.29492 -7.25,0.29297 0.35156,5 c 0.19381,2.75 0.55744,5.3375 0.80859,5.75 0.88554,1.45448 6.87922,0.71928 10.08985,-1.23828 2.80731,-1.71165 3.25,-2.53532 3.25,-6.04102 l 0,-4.05859 z m -44.15235,12.9707 c -6.02343,-0.0503 -11.79311,0.38989 -11.59765,1.36719 0.1375,0.6875 1.15,1.79684 2.25,2.46485 2.51203,1.52551 22.10679,1.73167 23.02734,0.24218 0.35481,-0.5741 0.10024,-1.6991 -0.56445,-2.5 -0.81539,-0.98247 -7.09181,-1.52396 -13.11524,-1.57422 z m 34.25391,15.11719 c -3.17419,0 -17.32385,10.9672 -19.81641,15.35938 -1.27386,2.24468 -1.76924,15.82452 -0.61914,16.97461 1.17839,1.1784 2.44149,0.71928 4.35938,-1.58399 6.89937,-8.28574 11.16742,-14.20678 13.27343,-18.4082 2.76085,-5.50784 4.31303,-12.3418 2.80274,-12.3418 z"
       style="fill:url(#linearGradient4712)" />
    <path
       id="path4941"
       d="m 613.83008,204.03906 c -8.23108,0.0478 -16.17902,0.61514 -18.73047,1.67188 -10.51492,4.35498 -15.294,7.20271 -19.87305,11.83594 -6.13717,6.20978 -13.69685,19.00679 -15.98437,27.06054 -0.9373,3.3 -2.51099,7.8 -3.49805,10 -2.63831,5.88037 -5.32565,20.77778 -4.64258,25.74219 0.32229,2.34231 1.02371,8.12422 1.5586,12.84961 1.85483,16.38616 7.61739,33.74953 14.01172,42.21875 3.34175,4.42612 5.42919,6.00828 11.80859,8.95312 4.26158,1.96721 9.68542,3.88112 12.05469,4.25391 2.36927,0.37279 5.51927,1.76206 7,3.08789 2.65481,2.37708 2.92271,2.40673 19.19336,2.04297 24.40053,-0.54551 43.04907,-3.64223 53.51757,-8.88477 6.03197,-3.02077 17.24356,-8.32577 27.76368,-13.13671 16.14966,-7.38538 26.46991,-18.2761 33.16796,-35 1.10634,-2.76234 1.55079,-7.3865 1.55079,-16.13672 l 0,-12.26563 -3.34571,-4.86523 c -1.84049,-2.67559 -4.14477,-6.4377 -5.11914,-8.36133 -2.74639,-5.42204 -9.50656,-13.85349 -11.65429,-14.53516 -1.06411,-0.33773 -4.03697,-2.43323 -6.60547,-4.65625 -3.94973,-3.41847 -16.54468,-10.03625 -33.77539,-17.74609 -2.2,-0.98438 -6.17024,-2.76088 -8.82227,-3.94727 -2.65203,-1.1864 -9.17703,-3.32866 -14.5,-4.75976 -5.32297,-1.43111 -11.91412,-3.21973 -14.64648,-3.97656 -3.68419,-1.02049 -12.19861,-1.49317 -20.42969,-1.44532 z m -12.75586,15.07227 c 3.53166,-0.003 9.6543,2.56936 9.6543,4.05664 0,0.34584 2.1375,3.14088 4.75,6.21289 2.6125,3.07201 5.5587,6.74268 6.54687,8.15625 2.2189,3.17407 2.86031,3.17856 10.50977,0.0703 8.03148,-3.26348 22.84675,-3.47575 34.08007,-0.48828 9.10811,2.42227 12.92602,4.58983 15.93165,9.04297 4.04007,5.98576 1.03215,12.09482 -8.42774,17.11328 -5.37873,2.85341 -5.58764,4.57211 -0.64062,5.27539 8.06807,1.14698 28.95609,6.81791 32.71093,8.88086 7.46,4.09861 10.15001,10.88494 7.1543,18.05469 -1.62645,3.89264 -5.32331,6.36282 -15.79687,10.55664 -6.7652,2.70892 -8.81831,3.06445 -17.71485,3.06445 -6.95671,0 -11.31712,-0.50151 -14.125,-1.625 -2.23395,-0.89385 -4.28726,-1.40024 -4.5625,-1.125 -0.27524,0.27524 0.0553,3.36889 0.73438,6.875 0.67912,3.50611 1.26157,9.15456 1.29297,12.55274 0.0721,7.79574 -2.05382,10.9194 -9.53126,14 -6.59607,2.71748 -16.90258,3.03723 -21.4121,0.66406 -6.8941,-3.62807 -12.55097,-11.09749 -13.48243,-17.80078 -0.64397,-4.63434 -0.82093,-4.66061 -9.51757,-1.40235 -4.77884,1.79042 -8.15487,2.25979 -16.58594,2.30469 -9.94363,0.053 -10.82465,-0.108 -14.52149,-2.66992 -5.52474,-3.82864 -7.39257,-7.45348 -7.39257,-14.33984 0,-7.02757 3.34773,-12.82725 10.93164,-18.9336 2.73233,-2.2 4.99017,-4.73163 5.01757,-5.625 0.0274,-0.89337 -1.55912,-3.36837 -3.52539,-5.5 -9.63495,-10.44523 -8.0682,-21.375 3.0625,-21.375 5.20976,0 6.16114,-1.19106 4.46289,-5.57812 -1.73632,-4.48542 -2.45637,-21.60796 -1.02148,-24.28907 1.76488,-3.29772 7.03246,-6.1249 11.41797,-6.1289 z"
       style="fill:url(#linearGradient4712)" />
    <path
       id="path4939"
       d="m 367.19141,172.36133 c -4.32867,0.20375 -8.06761,0.70081 -13.46289,1.5957 -23.77332,3.94319 -41.86309,12.35613 -60.06641,27.9375 -5.28209,4.52127 -17.90535,20.34587 -21.70899,27.21289 -6.20832,11.20839 -13.44237,35.35562 -14.82812,49.5 -1.0067,10.27554 2.99653,34.53366 8.32812,50.47266 3.13323,9.36689 6.92923,15.32717 16.72266,26.24609 11.63636,12.97364 17.78499,16.78433 45.66016,28.31055 11.32757,4.68389 21.00168,6.74873 29.89258,6.3789 3.025,-0.12582 6.85,0.3391 8.5,1.03321 6.52631,2.74543 11.19956,4.25957 15.5,5.02344 11.71552,2.08097 25.47028,0.59375 36.19921,-3.91407 11.01412,-4.62764 19.03482,-11.08682 28.45899,-22.91992 9.48417,-11.90843 14.81429,-22.03096 21.44726,-40.72656 9.8899,-27.87559 12.44174,-58.99372 6.94336,-84.67188 -2.8219,-13.17868 -5.26187,-19.33718 -12.25195,-30.9082 -10.65469,-17.63723 -18.97316,-24.8145 -37.79101,-32.60547 -14.57427,-6.03403 -19.96191,-7.0702 -40.54297,-7.80273 -7.75336,-0.27597 -12.67134,-0.36587 -17,-0.16211 z m 41.13671,22.45117 7.59766,3.55859 c 12.63893,5.91886 19.84271,13.85009 26.09766,28.73633 4.34447,10.33948 8.3169,25.40409 9.88867,37.5 1.60092,12.32014 1.62384,43.56024 0.0371,50.5 -2.17911,9.5307 -11.75944,27.45935 -18.11133,33.89063 -6.74486,6.82917 -15.96623,12.65889 -22.10937,13.97851 -11.20976,2.40799 -16.19654,3.2323 -26,4.29883 -13.04296,1.41897 -55.78767,2.03958 -58.5,0.84961 -1.1,-0.4826 -3.11518,-0.90857 -4.47852,-0.94727 -1.36333,-0.0387 -5.52492,-1.23431 -9.24609,-2.65625 -8.20622,-3.13578 -11.14975,-6.3431 -10.46289,-11.40234 0.38988,-2.87177 -0.78394,-6.06213 -6.44532,-17.51172 -7.2334,-14.62884 -8.40166,-18.48722 -9.84765,-32.5 -1.69438,-16.4198 -1.26907,-25.84172 1.53711,-34.03515 1.40616,-4.10569 2.98612,-9.16589 3.51172,-11.2461 1.52762,-6.04613 9.94202,-20.72514 15.40624,-26.87695 2.76417,-3.11199 6.64866,-7.61451 8.63282,-10.00586 5.97391,-7.19982 27.56736,-17.52975 43.39258,-20.75781 3.3,-0.67315 8.925,-1.86703 12.5,-2.65235 3.575,-0.78533 13.27306,-1.71842 21.55078,-2.07422 l 15.04882,-0.64648 z"
       style="fill:url(#linearGradient4712)" />
    <path
       id="path4937"
       d="m 615.22852,160.85742 c -7.7,0.10822 -16.25,0.61135 -19,1.11914 -18.33388,3.38535 -34.01258,9.69828 -42.76563,17.21875 -2.62135,2.25221 -8.05782,8.21676 -12.08008,13.25391 -16.03132,20.07632 -26.66953,42.52027 -29.21484,61.63672 -1.95523,14.6847 -1.76939,23.00345 0.94336,42.11328 2.05286,14.4613 2.97164,18.12142 7.14844,28.5 2.63573,6.54931 6.231,14.18072 7.99023,16.95898 4.88216,7.71008 17.96144,21.79728 24.49023,26.37696 5.77223,4.04899 18.26989,10.22612 26.98829,13.33984 11.19582,3.99851 30.86643,10.03349 34.97656,10.73047 6.33269,1.07391 14.63807,1.05049 20.52344,-0.0586 2.75,-0.51824 9.5,-1.36154 15,-1.87305 14.81667,-1.37799 29.82533,-6.34461 49.90234,-16.51367 18.56022,-9.4008 22.02819,-11.85415 34.64062,-24.49219 7.21917,-7.23383 9.41219,-10.26602 14.14649,-19.56055 7.84963,-15.41065 9.85909,-22.48479 10.53125,-37.08984 0.61666,-13.399 -0.78429,-25.95729 -3.72656,-33.42188 -7.10493,-18.02536 -19.03993,-36.18764 -31.34375,-47.69726 -12.87441,-12.04338 -33.59956,-27.40966 -42.72852,-31.67969 -16.20209,-7.57844 -30.1312,-13.01683 -40.63281,-15.86328 -10.91002,-2.95712 -12.83248,-3.18015 -25.78906,-2.99805 z m -3.62696,29.42578 c 15.601,-0.28766 18.4888,-0.0806 25.12696,1.8086 4.125,1.17398 9.40302,2.54258 11.72851,3.04101 12.51594,2.68255 16.80096,4.29764 36.03711,13.57617 7.29657,3.51949 13.5187,6.39844 13.82617,6.39844 1.17093,0 15.08128,8.45071 18.77539,11.40625 6.73972,5.39222 14.71699,13.93721 17.35938,18.59375 1.40446,2.475 3.72031,6.3 5.14453,8.5 5.79072,8.945 6.12891,10.50464 6.12891,28.22461 l 0,16.50586 -4.93946,10.13477 c -7.7301,15.86223 -20.11659,27.92999 -36.56054,35.62109 -3.85,1.80071 -10.6,5.01634 -15,7.14453 -4.4,2.12818 -8.5698,3.86914 -9.26563,3.86914 -0.69583,0 -3.62083,1.32011 -6.5,2.9336 -3.36922,1.88812 -9.6892,3.89256 -17.73437,5.625 -11.59214,2.49624 -14.53361,2.71472 -40.5,3.00586 -15.4,0.17265 -28.9,0.099 -30,-0.16407 -1.1,-0.26302 -3.04058,-0.7019 -4.3125,-0.97461 -1.27192,-0.2727 -5.15571,-3.14011 -8.63086,-6.37304 -3.47516,-3.23293 -7.60958,-6.54678 -9.1875,-7.36328 -1.57792,-0.8165 -5.42953,-5.24199 -8.5586,-9.83594 -11.10029,-16.29689 -17.83802,-44.804 -16.39258,-69.35352 0.62869,-10.6777 1.95554,-16.42666 6,-26 1.39415,-3.3 2.5455,-6.77388 2.5586,-7.7207 0.0691,-5.01431 10.00319,-21.5464 18.23633,-30.34766 5.08945,-5.44064 7.97228,-7.44762 17.56054,-12.2207 l 11.47266,-5.71094 17.62695,-0.32422 z"
       style="fill:url(#linearGradient4712)" />
  </g>
</svg>
