<?xml version="1.0" encoding="UTF-8" standalone="no"?>
<svg
   xmlns:osb="http://www.openswatchbook.org/uri/2009/osb"
   xmlns:dc="http://purl.org/dc/elements/1.1/"
   xmlns:cc="http://creativecommons.org/ns#"
   xmlns:rdf="http://www.w3.org/1999/02/22-rdf-syntax-ns#"
   xmlns:svg="http://www.w3.org/2000/svg"
   xmlns="http://www.w3.org/2000/svg"
   xmlns:xlink="http://www.w3.org/1999/xlink"
   version="1.1"
   id="svg2985"
   height="848.0235"
   width="594.30719">
  <defs
     id="defs5498">
    <linearGradient
       osb:paint="solid"
       id="linearGradient4756">
      <stop
         id="stop4758"
         offset="0"
         style="stop-color:#ffffff;stop-opacity:1;" />
    </linearGradient>
    <linearGradient
       osb:paint="solid"
       id="linearGradient4750">
      <stop
         id="stop4752"
         offset="0"
         style="stop-color:#000000;stop-opacity:1;" />
    </linearGradient>
    <linearGradient
       osb:paint="solid"
       id="linearGradient5694">
      <stop
         id="stop5696"
         offset="0"
         style="stop-color:#002b11;stop-opacity:1;" />
    </linearGradient>
    <linearGradient
       osb:paint="solid"
       id="linearGradient4712">
      <stop
         id="stop4714"
         offset="0"
         style="stop-color:#162d50;stop-opacity:1;" />
    </linearGradient>
    <linearGradient
       osb:paint="solid"
       id="linearGradient4706">
      <stop
         id="stop4708"
         offset="0"
         style="stop-color:#d40000;stop-opacity:1;" />
    </linearGradient>
    <linearGradient
       gradientUnits="userSpaceOnUse"
       y2="508.69208"
       x2="761.44257"
       y1="508.69208"
       x1="262.13925"
       id="linearGradient4716"
       xlink:href="#linearGradient4712" />
    <linearGradient
       gradientUnits="userSpaceOnUse"
       y2="500.0004"
       x2="771.30902"
       y1="500.0004"
       x1="228.69211"
       id="linearGradient4754"
       xlink:href="#linearGradient4750" />
    <linearGradient
       gradientUnits="userSpaceOnUse"
       y2="500.10483"
       x2="752.40271"
       y1="500.10483"
       x1="248.61133"
       id="linearGradient4760"
       xlink:href="#linearGradient4756" />
    <linearGradient
       y2="508.69208"
       x2="761.44257"
       y1="508.69208"
       x1="262.13925"
       gradientUnits="userSpaceOnUse"
       id="linearGradient501"
       xlink:href="#linearGradient4712" />
    <linearGradient
       y2="508.69208"
       x2="761.44257"
       y1="508.69208"
       x1="262.13925"
       gradientUnits="userSpaceOnUse"
       id="linearGradient503"
       xlink:href="#linearGradient4712" />
    <linearGradient
       y2="508.69208"
       x2="761.44257"
       y1="508.69208"
       x1="262.13925"
       gradientUnits="userSpaceOnUse"
       id="linearGradient505"
       xlink:href="#linearGradient4712" />
  </defs>
  <metadata
     id="metadata5594">
    <rdf:RDF>
      <cc:Work
         rdf:about="">
        <dc:format>image/svg+xml</dc:format>
        <dc:type
           rdf:resource="http://purl.org/dc/dcmitype/StillImage" />
        <dc:title />
      </cc:Work>
    </rdf:RDF>
  </metadata>
  <g
     transform="translate(-202.84595,-75.988218)"
     style="display:inline"
     id="layer4">
    <path
       id="path4655"
       d="m 470.78906,95.123047 c -2.24937,0.0683 -5.80739,0.45373 -11.58594,1.1875 -7.69999,0.97775 -26.37499,2.702302 -41.5,3.832033 -15.125,1.12972 -30.875,2.48524 -35,3.01172 -9.71047,1.23935 -30.81144,3.67482 -43.45507,5.01562 -4.70515,0.49896 -9.29029,1.16025 -13.73633,1.97852 -4.44604,0.81827 -8.75228,1.7938 -12.9043,2.92187 -4.15202,1.12808 -8.14957,2.40755 -11.97265,3.83594 -3.82309,1.42839 -7.47241,3.00541 -10.93165,4.72461 -4.16654,2.07073 -11.54043,6.07832 -18.32226,9.88867 -6.78183,3.81035 -12.97161,7.42345 -14.77148,8.70508 -1.13336,0.80702 -2.12926,1.72396 -3.01954,2.81641 -0.89027,1.09245 -1.67491,2.35998 -2.38281,3.86718 -0.7079,1.50721 -1.33955,3.25535 -1.92578,5.30664 -0.58623,2.05129 -1.12706,4.40616 -1.65234,7.13086 -1.09356,5.67242 -3.97285,17.9625 -6.39844,27.3125 -1.44919,5.58621 -2.67587,10.53554 -3.73242,15.13086 -1.05656,4.59532 -1.94332,8.83714 -2.71094,13.00391 -0.76762,4.16677 -1.41566,8.25998 -1.99805,12.56055 -0.58238,4.30056 -1.09876,8.80798 -1.59961,13.80468 -0.731,7.29295 -1.47194,13.40963 -2.8125,22.20703 -1.34056,8.79741 -3.28074,20.27555 -6.40625,38.29297 -0.25589,1.47511 -0.49568,4.47973 -0.71484,8.65821 -0.21916,4.17847 -0.41759,9.53073 -0.59375,15.70507 -0.35232,12.3487 -0.61319,27.98112 -0.75586,44.06836 -0.14267,16.08725 -0.16795,32.62905 -0.0508,46.79493 0.11716,14.16587 0.37751,25.95642 0.80469,32.54101 0.61487,9.47779 1.85259,28.25742 2.75,41.73242 0.33769,5.07048 0.60517,10.11131 0.81445,15.99024 0.20928,5.87892 0.36091,12.59654 0.46289,21.02148 0.20395,16.8499 0.21386,40.52882 0.11523,77.98828 -0.0655,24.8875 -0.22878,48.18711 -0.43945,65.67774 -0.21067,17.49062 -0.46876,29.17226 -0.72266,30.82226 -0.30527,1.98389 -0.53336,4.88263 -0.68359,8.48242 -0.15023,3.5998 -0.22312,7.90122 -0.21875,12.6875 0.009,9.57257 0.32677,21.08811 0.95117,32.83008 0.55571,10.45 1.45899,30.475 2.00782,44.5 0.27843,7.11495 0.68452,14.22114 1.12109,20.00977 0.43656,5.78863 0.9036,10.25969 1.30078,12.10547 0.534,2.48165 1.2883,4.9908 2.23242,7.4707 0.94413,2.4799 2.07901,4.93091 3.37305,7.29883 1.29404,2.36792 2.74632,4.65116 4.33008,6.79687 1.58375,2.14571 3.29806,4.15353 5.11133,5.9668 1.31352,1.31352 2.49977,2.42665 3.73046,3.45117 1.2307,1.02453 2.50492,1.96048 3.9961,2.91602 2.98235,1.91108 6.8299,3.90417 12.91406,6.85937 6.69692,3.25283 12.23695,5.8158 17.52734,7.90235 2.6452,1.04327 5.2269,1.96637 7.86133,2.79883 2.63443,0.83245 5.32098,1.57258 8.17188,2.24804 2.85089,0.67546 5.8675,1.28708 9.16211,1.85938 3.2946,0.5723 6.86648,1.10593 10.83203,1.6289 7.9311,1.04595 17.43182,2.04714 29.41015,3.21875 8.56233,0.8375 20.71233,2.20353 27,3.03516 3.14384,0.41582 9.44402,0.88575 17.0625,1.30664 7.61849,0.42089 16.55527,0.79272 24.97071,1.01563 8.41543,0.2229 16.22343,0.52529 22.02343,0.83398 5.80001,0.30869 9.592,0.62369 9.97657,0.86914 0.38456,0.24545 5.68364,0.55009 13.91211,0.8418 8.22846,0.29171 19.38633,0.57049 31.48632,0.76758 14.01108,0.2282 26.05499,0.53852 35.51172,0.90624 9.45674,0.36773 16.32631,0.79288 19.98828,1.25196 4.38667,0.54991 9.92898,0.89783 18.66602,1.08594 8.73704,0.1881 20.66882,0.21641 37.83398,0.13086 21.87152,-0.10902 33.16679,-0.17973 39.76758,-0.4961 3.3004,-0.15818 5.42633,-0.37746 7.11524,-0.69336 1.6889,-0.3159 2.94007,-0.72923 4.48828,-1.27344 3.50393,-1.23167 11.60393,-4.49106 18,-7.24218 6.39607,-2.75113 15.90391,-6.60334 21.1289,-8.56055 4.41539,-1.65395 7.89217,-3.00503 10.84766,-4.33203 2.95549,-1.327 5.38946,-2.63055 7.7207,-4.18945 2.33125,-1.55891 4.55891,-3.37299 7.10157,-5.72266 2.54265,-2.34967 5.40051,-5.23431 8.99023,-8.93359 3.58923,-3.69878 6.49979,-6.78197 8.91211,-9.50391 2.41232,-2.72194 4.32723,-5.08263 5.92383,-7.33789 1.5966,-2.25527 2.87549,-4.40436 4.01758,-6.70313 1.14208,-2.29876 2.14653,-4.74718 3.19531,-7.59961 l 2.75195,-7.48828 0.59766,-42.5 c 0.16425,-11.6875 0.44773,-23.71875 0.77344,-33.6875 0.3257,-9.96875 0.69364,-17.875 1.02343,-21.3125 1.73288,-18.06254 2.77728,-29.37364 3.38672,-37.15625 0.60945,-7.7826 0.78394,-12.03671 0.77539,-15.98633 -0.008,-3.49686 0.26981,-8.47563 0.75196,-14.27734 0.48214,-5.80171 1.16888,-12.42652 1.98242,-19.21289 0.81354,-6.78637 1.7536,-13.7347 2.74023,-20.18555 0.98664,-6.45085 2.02005,-12.40406 3.02149,-17.19922 0.35189,-1.68497 0.69104,-4.11332 1.03125,-7.51953 0.3402,-3.4062 0.68226,-7.79053 1.04101,-13.39062 0.7175,-11.20018 1.50152,-27.26053 2.47461,-50.07227 0.62173,-14.575 1.8408,-35.5 2.71094,-46.5 0.49009,-6.1955 0.91086,-21.64473 1.24414,-42.4414 0.33328,-20.79668 0.57932,-46.94126 0.7168,-74.52539 0.13748,-27.58414 0.16761,-56.60812 0.0703,-83.16602 -0.0973,-26.55789 -0.32229,-50.64924 -0.69336,-68.36719 -0.2679,-12.79205 -0.50258,-22.65656 -0.82227,-30.51172 -0.31968,-7.85515 -0.72357,-13.70017 -1.32812,-18.45117 -0.30227,-2.37549 -0.65508,-4.47878 -1.07227,-6.42187 -0.41719,-1.9431 -0.89969,-3.72701 -1.46093,-5.4668 -1.12248,-3.47957 -2.56207,-6.78138 -4.43555,-10.82226 -1.35967,-2.93266 -2.61211,-5.4437 -3.80469,-7.59766 -1.19258,-2.15396 -2.32476,-3.95165 -3.44726,-5.45703 -1.12251,-1.50538 -2.23534,-2.71817 -3.38477,-3.70508 -1.14943,-0.98691 -2.336,-1.74715 -3.60937,-2.3457 -1.05902,-0.4978 -1.97353,-0.89771 -3.05469,-1.26953 -1.08116,-0.37183 -2.32812,-0.71641 -4.05664,-1.10157 -3.45705,-0.77032 -8.83491,-1.70578 -18.63282,-3.36523 -2.6125,-0.44248 -6.16796,-1.23868 -9.79296,-2.16406 -3.625,-0.92539 -7.31953,-1.97997 -10.20704,-2.94141 -5.65022,-1.88134 -10.99355,-3.48642 -16.35546,-4.87109 -5.36192,-1.38468 -10.74273,-2.54861 -16.46875,-3.55079 -5.72602,-1.00217 -11.79651,-1.84232 -18.53907,-2.57617 -6.74255,-0.73384 -14.15684,-1.36172 -22.56836,-1.9414 -12.3375,-0.85024 -22.75471,-1.74495 -23.14843,-1.98828 -0.39373,-0.24334 -14.14959,-0.89149 -30.56836,-1.44141 -16.41877,-0.549929 -33.67657,-1.46934 -38.35157,-2.04297 -2.33749,-0.28682 -7.66874,-0.532397 -14.375,-0.695312 -6.70625,-0.162916 -14.7875,-0.24317 -22.625,-0.203126 -16.58626,0.08474 -24.21156,0.156326 -27.90039,-0.002 -1.84441,-0.07914 -2.70516,-0.216758 -3.20898,-0.4375 -0.50382,-0.220741 -0.65125,-0.525163 -1.07031,-0.941406 -0.27272,-0.270872 -0.64427,-0.46836 -1.22852,-0.589844 -0.58424,-0.121483 -1.38117,-0.166962 -2.50586,-0.132812 z"
       style="fill:#ffffff;fill-opacity:1;fill-rule:nonzero;stroke:none" />
    <path
       id="path4653"
       d="m 487.11914,76.042969 c -1.17071,-0.07427 -2.49492,-0.07273 -3.96484,0.0039 -1.95991,0.102176 -4.18028,0.339389 -6.64649,0.712891 -6.06948,0.91921 -16.63273,2.15688 -28.12304,3.345703 -11.49032,1.188823 -23.90769,2.328798 -33.68165,3.048828 -8.52499,0.62802 -25.39998,2.247639 -37.5,3.599609 -12.1,1.35197 -28.07499,3.093664 -35.5,3.871094 -7.87223,0.82426 -14.70399,1.750756 -21.04296,2.960938 -3.16949,0.60509 -6.21619,1.281249 -9.20704,2.050781 -2.99084,0.769531 -5.92635,1.632049 -8.875,2.611328 -2.94864,0.979279 -5.91023,2.076209 -8.95312,3.310539 -3.04289,1.23434 -6.16782,2.60593 -9.44141,4.14063 -6.54716,3.06939 -13.69185,6.78545 -21.98047,11.32812 -5.50585,3.01755 -9.98123,5.70089 -13.65039,8.32618 -1.83457,1.31264 -3.46765,2.6119 -4.92773,3.92968 -1.46008,1.31778 -2.74664,2.65516 -3.88867,4.04688 -1.14203,1.39172 -2.1391,2.83663 -3.01953,4.37109 -0.88043,1.53447 -1.64308,3.15829 -2.31836,4.9043 -0.67528,1.74601 -1.26249,3.61426 -1.78906,5.64062 -0.52658,2.02636 -0.99341,4.21043 -1.42774,6.58594 -0.88764,4.85486 -3.81017,17.37617 -6.49414,27.82617 -1.64267,6.39574 -3.01301,11.96238 -4.17773,17.08399 -1.16473,5.12161 -2.12353,9.79811 -2.94727,14.41211 -0.82374,4.61399 -1.51116,9.16617 -2.13086,14.03906 -0.6197,4.87289 -1.172,10.06656 -1.72461,15.96484 -0.2963,3.1625 -1.09047,9.01875 -2.13086,15.90625 -1.04039,6.8875 -2.32701,14.80625 -3.60937,22.09375 l -4.66407,26.5 -0.35351,64.9043 c -0.13894,25.47369 -0.1464,42.86039 0.0312,55.99805 0.17765,13.13765 0.54041,22.02627 1.13867,30.50195 1.1442,16.20987 1.99623,27.99673 2.60547,38.61719 0.60924,10.62045 0.97634,20.07498 1.14648,31.61719 0.17015,11.5422 0.1438,25.17332 -0.0293,44.14843 -0.1731,18.97511 -0.49359,43.29371 -0.91407,76.21289 -0.27104,21.22002 -0.45171,39.28058 -0.53125,55.08008 -0.0795,15.7995 -0.0573,29.33708 0.0742,41.51367 0.13151,12.17659 0.37229,22.99246 0.73438,33.34375 0.36209,10.3513 0.84483,20.23889 1.45703,30.5625 0.35574,5.99892 0.72966,10.9738 1.19922,15.27149 0.46955,4.29769 1.03433,7.91903 1.77344,11.20898 0.7391,3.28995 1.652,6.24891 2.8164,9.22461 1.16441,2.97571 2.58073,5.96731 4.32617,9.32227 1.6475,3.1667 3.42888,6.08056 5.38868,8.78515 1.95979,2.7046 4.09878,5.19979 6.46289,7.53321 2.3641,2.33341 4.95205,4.50346 7.8125,6.55664 2.86044,2.05318 5.9926,3.98963 9.4414,5.85351 6.49771,3.51164 13.79119,7.01953 20.72852,10.02539 3.46866,1.50294 6.8475,2.88097 9.99414,4.07032 3.14663,1.18935 6.061,2.19039 8.59765,2.9414 2.7881,0.82545 5.57653,1.55636 8.59961,2.23047 3.02309,0.67411 6.28154,1.2905 10.00977,1.88867 7.45646,1.19635 16.79264,2.31714 29.89062,3.66211 13.47501,1.38369 29.90001,3.20442 36.5,4.04492 3.30001,0.42025 9.78829,0.90462 17.58204,1.34571 7.79374,0.44108 16.89297,0.83889 25.41796,1.08789 8.52501,0.249 16.83829,0.58345 23.36329,0.92187 6.525,0.33843 11.26172,0.68084 12.63671,0.94531 1.375,0.26448 6.52716,0.51212 13.71876,0.69727 7.19159,0.18515 16.42263,0.30782 25.95898,0.32422 9.71293,0.0167 19.2416,0.15291 26.89062,0.36133 7.64903,0.20841 13.4184,0.48904 15.60938,0.79687 4.3023,0.60447 14.34727,1.67312 22.32226,2.375 4.52625,0.39835 11.14565,0.71448 18.75977,0.94336 7.61412,0.22888 16.22311,0.37077 24.72656,0.41797 8.50346,0.0472 16.90145,2e-4 24.09571,-0.14648 7.19425,-0.14669 13.18458,-0.39333 16.87109,-0.7461 3.45919,-0.33101 6.6138,-0.72916 9.63867,-1.24023 3.02488,-0.51108 5.92081,-1.13595 8.85938,-1.91992 2.93856,-0.78398 5.92082,-1.72725 9.12109,-2.87696 3.20027,-1.14971 6.61776,-2.505 10.42773,-4.11328 6.60001,-2.78601 17.46302,-7.22249 24.14063,-9.85937 5.36586,-2.1189 9.48371,-3.76936 12.89258,-5.31055 3.40887,-1.54119 6.1087,-2.97398 8.64062,-4.6543 2.53193,-1.68031 4.89584,-3.60826 7.63086,-6.14453 2.73502,-2.53627 5.84121,-5.68001 9.85938,-9.78906 4.93503,-5.04667 8.93422,-9.29956 12.23242,-13.12695 3.2982,-3.82739 5.89454,-7.22922 8.02539,-10.57422 1.06543,-1.6725 2.01533,-3.33141 2.87695,-5.02149 0.86162,-1.69007 1.63507,-3.41118 2.35157,-5.21093 1.43299,-3.59951 2.6352,-7.51067 3.83984,-12.10157 0.51863,-1.9765 0.92016,-3.69545 1.24414,-5.82226 0.32398,-2.12682 0.57024,-4.66064 0.77539,-8.27149 0.41031,-7.2217 0.65896,-18.74606 1.04883,-39.90625 0.23054,-12.5125 0.60874,-25.80078 1.0332,-37.1289 0.42446,-11.32813 0.89519,-20.6961 1.3086,-25.3711 0.82682,-9.35 1.98442,-25.325 2.57226,-35.5 0.69183,-11.97489 1.82737,-25.03567 3.17188,-37.07226 0.67225,-6.0183 1.39748,-11.78088 2.14453,-17.02344 0.74705,-5.24256 1.51636,-9.96492 2.27929,-13.9043 0.63167,-3.26158 1.21351,-7.2079 1.76368,-12.12109 0.55016,-4.91319 1.06946,-10.79401 1.57812,-17.91992 1.01732,-14.25184 1.9908,-33.48949 3.08203,-59.95899 0.60087,-14.575 1.86041,-35.725 2.79883,-47 0.3679,-4.42022 0.65731,-8.81022 0.88477,-14.3164 0.22745,-5.50618 0.39224,-12.12878 0.50976,-21.01563 0.23504,-17.7737 0.28142,-44.60324 0.25977,-89.66797 -0.0148,-30.69328 -0.0999,-56.92294 -0.26758,-79.20312 -0.16771,-22.28019 -0.41714,-40.61098 -0.76172,-55.50781 -0.34458,-14.89684 -0.78473,-26.35912 -1.33008,-34.90235 -0.27267,-4.27161 -0.57109,-7.81316 -0.89844,-10.68945 -0.32734,-2.87629 -0.68334,-5.08758 -1.06835,-6.69727 -0.72813,-3.0442 -1.43128,-5.74847 -2.16016,-8.2539 -0.72888,-2.50544 -1.48442,-4.81265 -2.31836,-7.06055 -0.83394,-2.2479 -1.74575,-4.4374 -2.78906,-6.70898 -1.04332,-2.27159 -2.21723,-4.62466 -3.57422,-7.20118 -1.25516,-2.38315 -2.46442,-4.53384 -3.67969,-6.48047 -1.21527,-1.94662 -2.43618,-3.68964 -3.71484,-5.25976 -1.27867,-1.57012 -2.61521,-2.96705 -4.06055,-4.2207 -1.44534,-1.25366 -2.99954,-2.36411 -4.71484,-3.36133 -1.71531,-0.99722 -3.59115,-1.88082 -5.67969,-2.68164 -2.08855,-0.80082 -4.39001,-1.51915 -6.95508,-2.1836 -2.56507,-0.66445 -5.39418,-1.27517 -8.53906,-1.86328 -3.14488,-0.58811 -6.60562,-1.1528 -10.4336,-1.72461 -2.19999,-0.32862 -5.71835,-1.111 -9.61523,-2.10742 -3.89688,-0.99642 -8.17227,-2.20689 -11.88477,-3.39062 -5.28515,-1.685177 -10.45805,-3.182537 -15.61914,-4.509765 -5.16108,-1.327229 -10.31097,-2.483968 -15.55078,-3.492188 -5.2398,-1.008219 -10.56852,-1.867552 -16.08984,-2.595703 -5.52132,-0.728151 -11.23461,-1.325478 -17.24024,-1.8125 -17.41432,-1.412205 -31.09127,-2.429928 -42.70117,-3.160156 -11.60989,-0.730228 -21.15273,-1.172961 -30.29883,-1.431641 -11,-0.31112 -23.375,-0.980681 -27.5,-1.488281 -2.0625,-0.2538 -6.54176,-0.488838 -12.0957,-0.664063 -5.55393,-0.175224 -12.18255,-0.290634 -18.54687,-0.302734 -9.58737,-0.01819 -15.39734,-0.09144 -18.86719,-0.308594 -1.73492,-0.108578 -2.88407,-0.253339 -3.62891,-0.445312 -0.74483,-0.191973 -1.08494,-0.430713 -1.19922,-0.728516 -0.19897,-0.518519 -0.56828,-0.964096 -1.10351,-1.335937 -0.53523,-0.371842 -1.23656,-0.670775 -2.0957,-0.894532 -0.85915,-0.223756 -1.87617,-0.373 -3.04688,-0.447265 z m -16.33008,19.080078 c 1.12469,-0.03415 1.92162,0.01133 2.50586,0.132812 0.58425,0.121484 0.9558,0.318972 1.22852,0.589844 0.41906,0.416243 0.56649,0.720665 1.07031,0.941406 0.50382,0.220742 1.36457,0.358361 3.20898,0.4375 3.68883,0.158279 11.31413,0.08669 27.90039,0.002 7.8375,-0.04004 15.91875,0.04021 22.625,0.203126 6.70626,0.162915 12.03751,0.408492 14.375,0.695312 4.675,0.57363 21.9328,1.493041 38.35157,2.042973 16.41877,0.54992 30.17463,1.19807 30.56836,1.44141 0.39372,0.24333 10.81093,1.13804 23.14843,1.98828 8.41152,0.57968 15.82581,1.20756 22.56836,1.9414 6.74256,0.73385 12.81305,1.574 18.53907,2.57617 5.72602,1.00218 11.10683,2.16611 16.46875,3.55079 5.36191,1.38467 10.70524,2.98975 16.35546,4.87109 2.88751,0.96144 6.58204,2.01602 10.20704,2.94141 3.625,0.92538 7.18046,1.72158 9.79296,2.16406 9.79791,1.65945 15.17577,2.59491 18.63282,3.36523 1.72852,0.38516 2.97548,0.72974 4.05664,1.10157 1.08116,0.37182 1.99567,0.77173 3.05469,1.26953 1.27337,0.59855 2.45994,1.35879 3.60937,2.3457 1.14943,0.98691 2.26226,2.1997 3.38477,3.70508 1.1225,1.50538 2.25468,3.30307 3.44726,5.45703 1.19258,2.15396 2.44502,4.665 3.80469,7.59766 1.87348,4.04088 3.31307,7.34269 4.43555,10.82226 0.56124,1.73979 1.04374,3.5237 1.46093,5.4668 0.41719,1.94309 0.77,4.04638 1.07227,6.42187 0.60455,4.751 1.00844,10.59602 1.32812,18.45117 0.31969,7.85516 0.55437,17.71967 0.82227,30.51172 0.37107,17.71795 0.59606,41.8093 0.69336,68.36719 0.0973,26.5579 0.0672,55.58188 -0.0703,83.16602 -0.13748,27.58413 -0.38352,53.72871 -0.7168,74.52539 -0.33328,20.79667 -0.75405,36.2459 -1.24414,42.4414 -0.87014,11 -2.08921,31.925 -2.71094,46.5 -0.97309,22.81174 -1.75711,38.87209 -2.47461,50.07227 -0.35875,5.60009 -0.70081,9.98442 -1.04101,13.39062 -0.34021,3.40621 -0.67936,5.83456 -1.03125,7.51953 -1.00144,4.79516 -2.03485,10.74837 -3.02149,17.19922 -0.98663,6.45085 -1.92669,13.39918 -2.74023,20.18555 -0.81354,6.78637 -1.50028,13.41118 -1.98242,19.21289 -0.48215,5.80171 -0.75951,10.78048 -0.75196,14.27734 0.009,3.94962 -0.16594,8.20373 -0.77539,15.98633 -0.60944,7.78261 -1.65384,19.09371 -3.38672,37.15625 -0.32979,3.4375 -0.69773,11.34375 -1.02343,21.3125 -0.32571,9.96875 -0.60919,22 -0.77344,33.6875 l -0.59766,42.5 -2.75195,7.48828 c -1.04878,2.85243 -2.05323,5.30085 -3.19531,7.59961 -1.14209,2.29877 -2.42098,4.44786 -4.01758,6.70313 -1.5966,2.25526 -3.51151,4.61595 -5.92383,7.33789 -2.41232,2.72194 -5.32288,5.80513 -8.91211,9.50391 -3.58972,3.69928 -6.44758,6.58392 -8.99023,8.93359 -2.54266,2.34967 -4.77032,4.16375 -7.10157,5.72266 -2.33124,1.5589 -4.76521,2.86245 -7.7207,4.18945 -2.95549,1.327 -6.43227,2.67808 -10.84766,4.33203 -5.22499,1.95721 -14.73283,5.80942 -21.1289,8.56055 -6.39607,2.75112 -14.49607,6.01051 -18,7.24218 -1.54821,0.54421 -2.79938,0.95754 -4.48828,1.27344 -1.68891,0.3159 -3.81484,0.53518 -7.11524,0.69336 -6.60079,0.31637 -17.89606,0.38708 -39.76758,0.4961 -17.16516,0.0856 -29.09694,0.0572 -37.83398,-0.13086 -8.73704,-0.18811 -14.27935,-0.53603 -18.66602,-1.08594 -3.66197,-0.45908 -10.53154,-0.88423 -19.98828,-1.25196 -9.45673,-0.36772 -21.50064,-0.67804 -35.51172,-0.90624 -12.09999,-0.19709 -23.25786,-0.47587 -31.48632,-0.76758 -8.22847,-0.29171 -13.52755,-0.59635 -13.91211,-0.8418 -0.38457,-0.24545 -4.17656,-0.56045 -9.97657,-0.86914 -5.8,-0.30869 -13.608,-0.61108 -22.02343,-0.83398 -8.41544,-0.22291 -17.35222,-0.59474 -24.97071,-1.01563 -7.61848,-0.42089 -13.91866,-0.89082 -17.0625,-1.30664 -6.28767,-0.83163 -18.43767,-2.19766 -27,-3.03516 -11.97833,-1.17161 -21.47905,-2.1728 -29.41015,-3.21875 -3.96555,-0.52297 -7.53743,-1.0566 -10.83203,-1.6289 -3.29461,-0.5723 -6.31122,-1.18392 -9.16211,-1.85938 -2.8509,-0.67546 -5.53745,-1.41559 -8.17188,-2.24804 -2.63443,-0.83246 -5.21613,-1.75556 -7.86133,-2.79883 -5.29039,-2.08655 -10.83042,-4.64952 -17.52734,-7.90235 -6.08416,-2.9552 -9.93171,-4.94829 -12.91406,-6.85937 -1.49118,-0.95554 -2.7654,-1.89149 -3.9961,-2.91602 -1.23069,-1.02452 -2.41694,-2.13765 -3.73046,-3.45117 -1.81327,-1.81327 -3.52758,-3.82109 -5.11133,-5.9668 -1.58376,-2.14571 -3.03604,-4.42895 -4.33008,-6.79687 -1.29404,-2.36792 -2.42892,-4.81893 -3.37305,-7.29883 -0.94412,-2.4799 -1.69842,-4.98905 -2.23242,-7.4707 -0.39718,-1.84578 -0.86422,-6.31684 -1.30078,-12.10547 -0.43657,-5.78863 -0.84266,-12.89482 -1.12109,-20.00977 -0.54883,-14.025 -1.45211,-34.05 -2.00782,-44.5 -0.6244,-11.74197 -0.94243,-23.25751 -0.95117,-32.83008 -0.004,-4.78628 0.0685,-9.0877 0.21875,-12.6875 0.15023,-3.59979 0.37832,-6.49853 0.68359,-8.48242 0.2539,-1.65 0.51199,-13.33164 0.72266,-30.82226 0.21067,-17.49063 0.37392,-40.79024 0.43945,-65.67774 0.0986,-37.45946 0.0887,-61.13838 -0.11523,-77.98828 -0.10198,-8.42494 -0.25361,-15.14256 -0.46289,-21.02148 -0.20928,-5.87893 -0.47676,-10.91976 -0.81445,-15.99024 -0.89741,-13.475 -2.13513,-32.25463 -2.75,-41.73242 -0.42718,-6.58459 -0.68753,-18.37514 -0.80469,-32.54101 -0.11717,-14.16588 -0.0919,-30.70768 0.0508,-46.79493 0.14267,-16.08724 0.40354,-31.71966 0.75586,-44.06836 0.17616,-6.17434 0.37459,-11.5266 0.59375,-15.70507 0.21916,-4.17848 0.45895,-7.1831 0.71484,-8.65821 3.12551,-18.01742 5.06569,-29.49556 6.40625,-38.29297 1.34056,-8.7974 2.0815,-14.91408 2.8125,-22.20703 0.50085,-4.9967 1.01723,-9.50412 1.59961,-13.80468 0.58239,-4.30057 1.23043,-8.39378 1.99805,-12.56055 0.76762,-4.16677 1.65438,-8.40859 2.71094,-13.00391 1.05655,-4.59532 2.28323,-9.54465 3.73242,-15.13086 2.42559,-9.35 5.30488,-21.64008 6.39844,-27.3125 0.52528,-2.7247 1.06611,-5.07957 1.65234,-7.13086 0.58623,-2.05129 1.21788,-3.79943 1.92578,-5.30664 0.7079,-1.5072 1.49254,-2.77473 2.38281,-3.86718 0.89028,-1.09245 1.88618,-2.00939 3.01954,-2.81641 1.79987,-1.28163 7.98965,-4.89473 14.77148,-8.70508 6.78183,-3.81035 14.15572,-7.81794 18.32226,-9.88867 3.45924,-1.7192 7.10856,-3.29622 10.93165,-4.72461 3.82308,-1.42839 7.82063,-2.70786 11.97265,-3.83594 4.15202,-1.12807 8.45826,-2.1036 12.9043,-2.92187 4.44604,-0.81827 9.03118,-1.47956 13.73633,-1.97852 12.64363,-1.3408 33.7446,-3.77627 43.45507,-5.01562 4.125,-0.52648 19.875,-1.882 35,-3.01172 15.12501,-1.129734 33.80001,-2.854286 41.5,-3.832036 5.77855,-0.73377 9.33657,-1.119199 11.58594,-1.1875 z"
       style="fill:#000000;fill-opacity:1;fill-rule:nonzero;stroke:none" />
    <path
       id="path4545"
       d="m 456.20312,698.54102 c -1.1,0.26354 -3.8,0.9541 -6,1.53515 -2.2,0.58105 -6.475,0.79859 -9.5,0.48438 -5.1492,-0.53485 -5.88267,-0.32129 -11.5,3.33398 -10.35724,6.7396 -19.5,18.75338 -19.5,25.62305 0,2.35745 0.84644,3.13323 6.25,5.73242 5.68437,2.73423 7.01925,2.97934 14.75,2.70312 7.04552,-0.25173 9.61226,-0.83317 15,-3.39648 7.42305,-3.53163 15.70219,-10.57541 18.4668,-15.70898 l 1.88477,-3.49805 -3.92578,-8.64453 c -3.31087,-7.2891 -4.23923,-8.56813 -5.92579,-8.16406 z m 22.44141,26.82226 c -1.98895,-0.23411 -3.40027,0.79263 -6.76562,4.92969 -2.6092,3.20752 -4.02721,5.83389 -3.67188,6.79687 1.80516,4.89212 10.92408,18.24421 16.85938,24.68555 6.54929,7.10769 10.0604,9.69103 15.6289,11.5 3.85418,1.25206 10.9414,0.31826 13.8711,-1.82812 1.44967,-1.06208 3.42311,-3.47348 4.38476,-5.35938 3.94412,-7.73491 0.69249,-24.35645 -5.3789,-27.49609 -1.63681,-0.84642 -3.9007,-2.46516 -5.03125,-3.59571 -1.89725,-1.89725 -2.50188,-1.96816 -7.83985,-0.91797 -9.91188,1.95004 -15.29978,0.14598 -18.43359,-6.17578 -0.62174,-1.25421 -2.21805,-2.37368 -3.62305,-2.53906 z"
       style="fill:#162d50;fill-opacity:1" />
    <path
       id="path4543"
       d="m 540.06836,679.37109 -9.86524,0.28711 -0.17773,8.7461 c -0.19208,9.44334 -2.07608,17.36057 -5.94727,25 -1.34621,2.65661 -2.17873,5.26163 -1.85156,5.79101 1.04934,1.69787 15.77908,1.0605 23.98828,-1.03906 7.92056,-2.02574 19.10923,-7.4514 23.23828,-11.26758 4.38471,-4.05247 2.40576,-12.35075 -4.8125,-20.18164 -5.57418,-6.04727 -11.19564,-7.72592 -24.57226,-7.33594 z"
       style="fill:#162d50;fill-opacity:1" />
    <path
       id="path4541"
       d="m 431.64062,643.30273 c -2.42898,0.0917 -5.12151,0.53368 -8.11914,1.31446 -5.93505,1.54589 -14.09062,5.60049 -17.16992,8.53515 -1.79986,1.71533 -1.79334,1.88909 0.19532,6.38477 2.7234,6.1567 10.89711,14.63634 19.94726,20.68945 8.05151,5.38518 9.222,5.65978 14.55469,3.43164 4.62828,-1.93385 9.62319,-1.90988 12.43359,0.0586 2.81659,1.97282 3.8308,1.32585 4.63281,-2.94922 0.35211,-1.87692 1.76003,-5.5151 3.12696,-8.08594 2.68518,-5.05012 2.51517,-6.52344 -0.75196,-6.52344 -2.61435,0 -8.89249,-6.69287 -12.98046,-13.83789 -3.66591,-6.40734 -8.5822,-9.29266 -15.86915,-9.01758 z m 63.25782,26.25196 c -8.13739,0.23929 -16.75469,3.3284 -21.19532,8.08984 -2.22347,2.38411 -2.4975,3.52897 -2.4707,10.34766 0.0484,12.31081 4.35546,20.01621 13.90235,24.875 4.15644,2.11538 5.80613,2.41679 10.5,1.91992 4.12132,-0.43627 6.07712,-0.20159 7.52734,0.9043 2.74834,2.0958 3.59948,1.56059 7.32227,-4.60157 4.19371,-6.94167 6.21874,-13.79063 6.21874,-21.03515 0,-5.65926 -0.05,-5.75774 -3.45312,-6.88086 -3.64046,-1.20146 -4.94181,-3.41561 -5.00781,-8.51563 -0.0362,-2.79757 -0.41019,-3.09101 -5.53907,-4.34961 -2.43348,-0.59716 -5.09222,-0.83367 -7.80468,-0.7539 z"
       style="fill:#162d50;fill-opacity:1" />
    <path
       id="path4539"
       d="m 481.56641,596.26953 c -1.43127,-0.0792 -3.59922,0.15952 -7.38477,0.66602 -9.64742,1.29081 -15.30122,4.07045 -20.91406,10.2832 -4.13897,4.58135 -4.54458,8.24222 -2.02539,18.29492 2.51866,10.05061 3.4876,11.82066 10.47461,19.14453 6.01603,6.30607 6.74688,7.52045 7.36718,12.25 0.75902,5.78738 1.68078,6.30346 6.66016,3.72852 1.61795,-0.83667 5.50899,-2.10385 8.64648,-2.81641 7.14639,-1.62303 7.50867,-2.58464 7.44727,-19.74804 -0.0665,-18.58695 -3.38486,-37.01884 -7.30273,-40.56446 -0.84266,-0.76259 -1.53748,-1.15908 -2.96875,-1.23828 z m 57.08593,21.08399 c -1.23045,-0.22293 -2.95376,-0.17 -5.82422,0.041 -14.84225,1.09106 -26.48774,11.7912 -26.35546,24.2168 0.0237,2.22613 -0.58958,5.97531 -1.36328,8.33203 -0.7737,2.35672 -1.40626,4.86303 -1.40626,5.56836 0,0.70534 2.39813,2.03868 5.33008,2.96289 2.93194,0.92422 7.09444,3.23729 9.25,5.14062 2.15555,1.90333 4.44197,3.47906 5.08008,3.50196 3.8188,0.13702 17.62485,-14.61147 20.80664,-22.22657 3.00861,-7.20062 1.51684,-21.74683 -2.6582,-25.92187 -0.89281,-0.8928 -1.62893,-1.39231 -2.85938,-1.61523 z"
       style="fill:#162d50;fill-opacity:1" />
    <path
       id="path4537"
       d="m 527.84375,563.38477 c -3.8947,-0.2738 -8.9008,-0.18808 -18.14063,0.0391 -16.32686,0.40134 -21.37133,0.90812 -31,3.11328 -26.76974,6.13083 -46.9668,16.05266 -65.67773,32.26367 -16.38658,14.1972 -23.35587,23.81135 -31.14258,42.95703 -8.36686,20.57215 -11.17272,36.96708 -9.22265,53.91407 2.18318,18.97278 5.33924,27.43712 16.61328,44.57226 15.19193,23.08983 37.3819,43.32314 60.50586,55.16992 11.56968,5.92734 21.37468,9.35846 30.42382,10.64649 16.45814,2.34259 27.79737,0.45801 37.41602,-6.2168 2.5206,-1.74916 6.8948,-3.9042 9.71875,-4.78906 7.34127,-2.30031 21.08294,-10.02404 30.62891,-17.21485 10.85106,-8.1739 33.4302,-30.17581 40.10742,-39.08203 11.67816,-15.57658 20.19675,-31.93563 24.26367,-46.59961 1.45384,-5.24207 1.80183,-10.2738 1.79883,-26 -0.004,-21.5724 -1.26043,-28.73926 -7.45899,-42.55468 -12.34801,-27.52139 -40.6932,-48.80695 -77.36718,-58.09766 -4.78968,-1.21338 -7.5721,-1.8473 -11.4668,-2.12109 z m -45.82617,19.83593 c 2.78038,0.12927 5.21627,0.55173 7.01367,1.30274 1.79552,0.75021 4.4758,2.80252 5.95508,4.56054 2.64524,3.1437 7.71679,17.54208 7.71679,21.90821 0,3.62225 2.54074,3.56933 8.70313,-0.18164 7.15123,-4.35287 15.89809,-6.94961 23.79687,-7.06446 14.57444,-0.21191 23.94923,12.33247 23.84766,31.91211 -0.043,8.28143 -2.81962,16.3433 -7.93359,23.04297 -4.05756,5.31569 -4.34954,7.45703 -1.01953,7.45703 4.71773,0 15.3839,4.05227 20.05273,7.61719 9.84469,7.51698 17.18462,23.92041 14.60938,32.65039 -3.48847,11.82577 -24.55378,23.67577 -47.48829,26.71289 -4.36255,0.57772 -8.11005,1.22921 -8.32812,1.44727 -0.21806,0.21807 0.74365,3.56039 2.13867,7.42773 3.84755,10.66628 4.23016,15.77933 1.7832,23.82227 -2.81726,9.26005 -6.92319,14.56991 -13.91406,17.99023 -12.96097,6.34121 -27.20091,3.05188 -39.59375,-9.14453 -6.08562,-5.98916 -14.53336,-16.95875 -19.08008,-24.77344 -1.51986,-2.61225 -3.15555,-4.99018 -3.63281,-5.28515 -0.47727,-0.29496 -3.14158,0.61651 -5.92187,2.02539 -13.11803,6.64741 -27.27162,6.65487 -40.69336,0.0215 -11.89548,-5.87906 -15.38863,-12.0104 -12.70703,-22.30859 2.44364,-9.38435 10.65885,-21.43797 18.29492,-26.8418 2.22393,-1.57381 4.05275,-3.54743 4.06445,-4.38672 0.0117,-0.83929 -2.83076,-3.67957 -6.31641,-6.3125 -12.6267,-9.53775 -20.9856,-22.08346 -21.09765,-31.66211 -0.0839,-7.17433 2.41607,-10.71119 11.30859,-15.99414 8.79698,-5.22619 16.90763,-7.89829 26.69727,-8.79492 7.13877,-0.65384 7.90388,-0.92489 7.66601,-2.71875 -1.45611,-10.98103 -1.41364,-16.74158 0.15821,-20.85742 1.90555,-4.98962 10.5613,-13.78756 17.61914,-17.91016 6.5274,-3.81276 17.95963,-6.04992 26.30078,-5.66211 z"
       style="fill:#162d50;fill-opacity:1" />
    <path
       id="path4535"
       d="m 533.0918,536.14453 c -16.49773,0.11241 -37.28352,3.68044 -64.88868,10.91211 -23.34539,6.11576 -33.25472,10.70978 -55.80273,25.86524 -18.41018,12.37425 -26.27022,18.85571 -36.80078,30.34765 -18.1278,19.78277 -27.49311,34.77439 -30.45703,48.75781 -1.86982,8.82152 -1.83731,33.92225 0.0605,46.51368 3.19617,21.20517 10.94145,43.88829 20.29102,59.43359 18.63343,30.98134 22.78562,36.77615 36.32422,50.69922 11.25938,11.57912 19.58577,16.97499 36.38476,23.57812 6.05,2.37805 11.58509,5.12657 12.30079,6.10743 2.08911,2.86304 4.03475,3.50563 17.21679,5.68164 6.86539,1.1333 13.60742,2.26548 14.98242,2.51562 8.2544,1.50163 35.3562,-2.80826 45.28711,-7.20117 7.66421,-3.39025 28.89858,-16.67187 39.71289,-24.83985 8.56294,-6.46752 13.42812,-11.33745 26.37696,-26.39453 24.03394,-27.94697 31.96815,-39.94956 41.61914,-62.96289 6.75594,-16.10993 11.55561,-30.78103 13.95312,-42.65625 1.70413,-8.44082 2.04463,-13.84793 2.01563,-32 -0.0398,-24.94568 -1.1316,-33.06738 -6.03125,-44.86914 -4.91901,-11.84839 -8.99473,-18.18021 -16.78711,-26.07812 -15.30856,-15.51589 -42.52104,-31.00492 -70.14649,-39.92578 -7.35743,-2.37588 -15.71268,-3.55183 -25.61132,-3.48438 z m 0.61132,17.61328 c 12.13435,-0.0895 14.36137,0.17807 22.01758,2.64063 13.67841,4.39956 39.11555,17.5001 50.57422,26.04687 13.60893,10.15059 18.44262,16.42974 24.41016,31.71289 l 3.31836,8.5 0.43554,23.5 c 0.3914,21.15296 0.22065,24.536 -1.70312,33.86328 -3.3499,16.24168 -11.8845,38.94066 -21.04297,55.9668 -6.95954,12.93818 -29.24923,41.49272 -43.20312,55.3457 -7.64105,7.5858 -21.85691,17.90359 -35.80665,25.98829 -11.42442,6.62114 -15.31895,8.20192 -25.29101,10.26171 -9.55936,1.97454 -9.44557,1.97955 -10.20899,-0.42578 -1.15275,-3.63204 -4.31443,-4.40402 -17,-4.15039 -14.2303,0.2845 -22.84001,-1.28534 -35.91015,-6.54883 -24.0651,-9.69129 -35.6352,-20.78834 -55.73438,-53.44921 -4.51912,-7.34351 -9.45082,-15.60157 -10.95898,-18.35157 -5.21645,-9.51174 -11.19325,-26.04839 -13.73438,-38 -2.24119,-10.54097 -2.55633,-14.43172 -2.58203,-32 -0.0272,-18.55122 0.13777,-20.41441 2.26368,-25.73828 3.36361,-8.42352 14.11236,-23.02555 27.65624,-37.57031 13.45771,-14.45221 47.80418,-36.97182 66.73829,-43.75586 8.25041,-2.95609 43.84824,-11.41578 52.76171,-12.53906 5.225,-0.65846 15.57501,-1.24208 23,-1.29688 z"
       style="fill:#162d50;fill-opacity:1" />
    <path
       id="path4533"
       d="m 480.5625,294.1582 c -2.10597,0 -6.42765,6.05268 -7.91211,11.08203 -0.88445,2.99649 -3.91795,24.30243 -3.93945,27.66797 -0.004,0.6875 0.63146,1.25 1.41406,1.25 2.43916,0 8.29347,-10.74485 10.5293,-19.32617 1.17124,-4.49535 2.83344,-10.11207 3.69336,-12.48047 1.4517,-3.99825 1.43804,-4.44516 -0.19532,-6.25 -0.96753,-1.0691 -2.58289,-1.94336 -3.58984,-1.94336 z m 37.48633,10.44922 c -0.74102,0.0784 -1.58193,0.37671 -2.58985,0.85156 -1.79109,0.84381 -4.94336,1.84675 -7.00586,2.22852 -2.0625,0.38176 -3.75,1.26805 -3.75,1.9707 10e-6,0.70266 1.81196,6.53413 4.02735,12.95899 6.62921,19.22543 9.61412,24.23269 15.23828,25.56836 7.29408,1.73226 8.20906,0.88173 7.33789,-6.81836 -0.92641,-8.1884 -5.02685,-24.70492 -7.52734,-30.32617 -2.1893,-4.92165 -3.50741,-6.66879 -5.73047,-6.4336 z"
       style="fill:#162d50;fill-opacity:1" />
    <path
       id="path4531"
       d="m 456.68359,258.21289 c -3.29899,0.10184 -6.64163,0.63924 -8.59961,1.56836 -3.64397,1.72917 -7.38086,6.16279 -7.38086,8.75586 0,2.48411 5.68552,4.79016 16.5,6.69141 5.5,0.96693 10.45,1.63795 11,1.49218 1.04705,-0.27747 1.03691,-1.45633 -0.082,-10.71093 -0.56292,-4.65582 -1.10738,-5.84318 -3.09765,-6.75 -1.78558,-0.81357 -5.04085,-1.14872 -8.33985,-1.04688 z"
       style="fill:#162d50;fill-opacity:1" />
    <path
       id="path4529"
       d="m 496.0918,244.67188 c -1.52682,0.30368 -3.38761,1.42723 -6.25977,3.50781 -7.67243,5.55788 -10.6228,16.22899 -6.9043,24.97851 2.35162,5.53328 9.31428,13.63705 15.01563,17.47657 4.75639,3.20314 5.87424,3.52343 12.2832,3.52343 4.91875,0 8.85061,-0.68634 13.01172,-2.27343 5.23047,-1.99496 6.24437,-2.83583 8.24219,-6.83789 5.26898,-10.5549 3.56653,-22.3866 -4.36328,-30.31641 -4.42793,-4.42793 -8.48225,-5.88899 -9.91407,-3.57227 -1.04358,1.68856 -5.09003,1.1105 -7,-1 -0.99548,-1.1 -3.03089,-2 -4.52148,-2 -1.49058,0 -3.89325,-0.93048 -5.33984,-2.06836 -1.5315,-1.20467 -2.72318,-1.72165 -4.25,-1.41796 z m 51.61132,26.23632 -0.0117,3.375 c -0.007,1.85647 -0.67634,5.85 -1.48829,8.875 -0.81194,3.025 -1.48128,5.8217 -1.48828,6.21485 -0.0195,1.17396 3.28944,2.59527 12.125,5.20703 13.53768,4.00168 26.93145,2.864 33.57618,-2.85156 2.38864,-2.05462 2.61777,-2.72189 1.76562,-5.13282 -2.1503,-6.08369 -21.99197,-14.421 -36.22852,-15.22265 l -8.25,-0.46485 z"
       style="fill:#162d50;fill-opacity:1" />
    <path
       id="path4527"
       d="m 554.10547,218.50781 c -3.63093,-0.40877 -6.73327,0.29107 -10.12109,2.00781 -6.16785,3.12549 -17.28126,13.16874 -17.28126,15.61719 0,0.96767 1.75358,2.92045 3.89844,4.33985 2.14486,1.4194 5.40736,4.39646 7.25,6.61523 2.89095,3.48107 3.89994,4.03459 7.35156,4.03516 6.1275,0.001 16.70939,-2.53162 22.19336,-5.31055 5.09581,-2.58225 12.30664,-9.62496 12.30664,-12.02148 0,-2.90932 -4.4535,-6.75897 -12.30664,-10.63868 -5.50038,-2.71737 -9.66008,-4.23576 -13.29101,-4.64453 z"
       style="fill:#162d50;fill-opacity:1" />
    <path
       id="path4525"
       d="m 469.37109,199.41602 c -4.06846,0.39092 -5.59597,1.09767 -7.85937,3.63086 -1.54516,1.72933 -2.8086,4.21492 -2.8086,5.52539 0,5.69189 11.65281,22.57356 18.4375,26.71093 3.9978,2.43788 4.35996,2.40075 11.0625,-1.125 3.1367,-1.65 6.39087,-3 7.23243,-3 4.17291,0 -2.59419,-17.54281 -9.47852,-24.57226 -5.60139,-5.71947 -10.343,-7.76979 -16.58594,-7.16992 z"
       style="fill:#162d50;fill-opacity:1" />
    <path
       id="path4523"
       d="m 506.70312,170.82812 c -17.9966,-0.0458 -25.54789,1.52628 -39.61523,8.2461 -31.06535,14.8396 -48.07146,35.1783 -56.51172,67.58398 -1.68808,6.48125 -2.07728,10.94259 -2.05078,23.5 0.0651,30.81558 7.06607,47.75 26.33008,63.6875 4.31606,3.57077 7.84765,6.81821 7.84765,7.2168 0,0.39859 2.72372,3.96114 6.05274,7.91602 9.40243,11.17008 24.72861,20.3935 39.44726,23.74023 4.02635,0.91551 11.26309,1.28498 22,1.12305 13.65693,-0.20596 17.68408,-0.65621 27.5,-3.07032 27.43168,-6.74649 35.09479,-10.51646 48.03516,-23.63086 8.33875,-8.45089 20.47788,-25.56502 24.35938,-34.34179 5.06167,-11.44534 6.97962,-20.32765 7.04492,-32.64063 0.0547,-10.31132 -0.2117,-12.12018 -2.57227,-17.5 -1.44798,-3.3 -3.41074,-9.6 -4.36133,-14 -4.45797,-20.63452 -14.22574,-35.05209 -35.00586,-51.66797 -15.63034,-12.49812 -28.0486,-19.09082 -44.21484,-23.47265 -8.4274,-2.28423 -11.79647,-2.65765 -24.28516,-2.68946 z m -34.29492,15.49415 c 8.83915,0.51183 15.14078,3.57898 22.59571,11.00195 6.52778,6.49979 12.67661,18.26915 14.67187,28.08398 0.65034,3.1991 1.70763,5.75 2.38281,5.75 0.66746,0 3.36204,-2.5561 5.98829,-5.67968 2.62624,-3.12358 7.39651,-7.78326 10.60156,-10.35547 14.61257,-11.72737 26.11918,-12.86815 43.63281,-4.32813 16.69529,8.14098 23.55039,18.93925 18.97461,29.89063 -1.86305,4.4589 -10.10344,12.69306 -15.41406,15.40234 -2.27628,1.16127 -4.13772,2.66548 -4.13672,3.3418 0.001,0.67633 3.56192,2.48514 7.91211,4.02148 15.24579,5.38431 24.5855,13.55927 25.79492,22.57617 0.75846,5.65469 -0.22134,8.58489 -4.42188,13.23438 -10.47414,11.59363 -29.88081,14.05911 -51.28711,6.51562 -14.10099,-4.96913 -15,-5.17164 -15,-3.36328 10e-6,0.81921 0.91902,3.56851 2.04297,6.10938 1.12394,2.54086 3.41946,10.5854 5.10157,17.87695 4.4612,19.33823 3.45463,28.69799 -3.58204,33.30859 -5.19311,3.40266 -18.42205,2.39354 -24.98437,-1.90625 -5.45695,-3.57553 -9.46553,-10.42009 -15.01367,-25.63281 -1.7944,-4.92016 -3.7199,-8.60048 -4.58008,-8.75195 -0.96339,-0.16964 -2.59675,2.11247 -4.65234,6.50391 -3.49121,7.45842 -10.00386,15.49801 -14.39649,17.76953 -9.17946,4.74688 -18.94159,-2.77804 -18.93359,-14.59766 0.008,-12.36094 3.51691,-31.11044 7.15625,-38.24414 1.10238,-2.16093 1.62893,-4.261 1.17187,-4.66797 -0.45706,-0.40698 -4.20508,-1.26736 -8.33008,-1.91016 -19.22336,-2.99554 -27.98709,-9.30918 -27.99609,-20.16796 -0.0106,-12.86108 16.92317,-25.15135 32.24609,-23.4043 7.0115,0.79942 7.49952,-0.48749 2.11915,-5.59375 -5.00672,-4.75166 -12.86658,-16.91762 -14.91602,-23.08789 -3.76163,-11.32523 0.71309,-21.35469 12.00977,-26.91602 5.73989,-2.82572 7.19386,-3.12952 13.24218,-2.77929 z"
       style="fill:#162d50;fill-opacity:1" />
    <path
       id="path4521"
       d="m 514.87305,132.91602 c -2.85593,-0.0499 -5.50275,0.0516 -7.86719,0.32031 -10.74559,1.221 -18.86048,4.38571 -42.80274,16.6875 -25.77937,13.24572 -36.93997,20.82512 -50.80664,34.50781 -18.6335,18.38628 -28.7389,32.58269 -33.55664,47.14063 -4.57826,13.83431 -5.50291,23.58775 -4.79296,50.58593 1.25329,47.66106 5.86288,63.23008 24.14453,81.54883 6.63325,6.6467 12.34329,11.11395 21.51953,16.83399 24.70295,15.39867 47.31842,24.4258 67.49218,26.94336 9.03977,1.1281 20.22515,0.58957 25,-1.20508 5.61509,-2.11046 34.02152,-7.50091 48.5,-9.20313 19.32681,-2.27224 32.86609,-8.82101 50.12891,-24.24414 18.28832,-16.33934 25.24047,-24.44321 30.74414,-35.83789 7.24801,-15.00611 12.0828,-36.13021 12.0918,-52.83594 0.005,-9.22896 -3.14939,-31.94696 -5.99219,-43.16406 -4.57974,-18.07073 -15.17257,-39.36892 -25.9668,-52.20703 -10.07809,-11.98638 -33.49988,-33.62123 -41.47656,-38.3125 -16.08435,-9.4596 -46.36787,-17.20922 -66.35937,-17.55859 z m -5.57617,17.41992 c 10.91329,-0.86552 25.36229,1.26856 43,6.375 10.14374,2.9368 18.55657,6.95075 25.27539,12.05859 8.03275,6.10674 22.11832,19.45871 29.81445,28.26172 29.74741,34.02581 38.75504,94.51642 19.77148,132.76758 -4.10439,8.2702 -5.77912,10.35992 -17.29687,21.58984 -20.70086,20.18354 -31.72139,26.47484 -50.15821,28.63086 -5.22499,0.61102 -14.20024,1.97349 -19.94335,3.02735 -6.97293,1.27952 -11.22303,1.61837 -12.79297,1.02148 -1.78362,-0.67813 -4.45094,-0.081 -11.05664,2.47266 -9.66147,3.73504 -17.4497,4.76464 -27.20704,3.5957 -17.96431,-2.15214 -34.31245,-8.85469 -59.41015,-24.35742 -11.50896,-7.10904 -17.97753,-12.64619 -23.94336,-20.5 -10.18057,-13.40234 -12.63953,-27.03047 -12.64453,-70.05664 -0.004,-35.22676 1.06313,-39.57248 14.21875,-57.93555 9.67485,-13.50448 25.36831,-28.6215 38.81445,-37.38867 12.51423,-8.15953 44.14111,-24.43131 53.83594,-27.69727 2.83919,-0.95645 6.08489,-1.57673 9.72266,-1.86523 z"
       style="fill:#162d50;fill-opacity:1" />
  </g>
</svg>
