<?xml version="1.0" encoding="UTF-8" standalone="no"?>
<svg
   xmlns:osb="http://www.openswatchbook.org/uri/2009/osb"
   xmlns:dc="http://purl.org/dc/elements/1.1/"
   xmlns:cc="http://creativecommons.org/ns#"
   xmlns:rdf="http://www.w3.org/1999/02/22-rdf-syntax-ns#"
   xmlns:svg="http://www.w3.org/2000/svg"
   xmlns="http://www.w3.org/2000/svg"
   xmlns:xlink="http://www.w3.org/1999/xlink"
   version="1.1"
   id="svg2985"
   height="942.19269"
   width="619.85876">
  <defs
     id="defs5498">
    <linearGradient
       osb:paint="solid"
       id="linearGradient4756">
      <stop
         id="stop4758"
         offset="0"
         style="stop-color:#ffffff;stop-opacity:1;" />
    </linearGradient>
    <linearGradient
       osb:paint="solid"
       id="linearGradient4750">
      <stop
         id="stop4752"
         offset="0"
         style="stop-color:#000000;stop-opacity:1;" />
    </linearGradient>
    <linearGradient
       osb:paint="solid"
       id="linearGradient5694">
      <stop
         id="stop5696"
         offset="0"
         style="stop-color:#002b11;stop-opacity:1;" />
    </linearGradient>
    <linearGradient
       osb:paint="solid"
       id="linearGradient4712">
      <stop
         id="stop4714"
         offset="0"
         style="stop-color:#162d50;stop-opacity:1;" />
    </linearGradient>
    <linearGradient
       osb:paint="solid"
       id="linearGradient4706">
      <stop
         id="stop4708"
         offset="0"
         style="stop-color:#d40000;stop-opacity:1;" />
    </linearGradient>
    <linearGradient
       gradientUnits="userSpaceOnUse"
       y2="508.69208"
       x2="761.44257"
       y1="508.69208"
       x1="262.13925"
       id="linearGradient4716"
       xlink:href="#linearGradient4712" />
    <linearGradient
       gradientUnits="userSpaceOnUse"
       y2="500.0004"
       x2="771.30902"
       y1="500.0004"
       x1="228.69211"
       id="linearGradient4754"
       xlink:href="#linearGradient4750" />
    <linearGradient
       gradientUnits="userSpaceOnUse"
       y2="500.10483"
       x2="752.40271"
       y1="500.10483"
       x1="248.61133"
       id="linearGradient4760"
       xlink:href="#linearGradient4756" />
    <linearGradient
       y2="508.69208"
       x2="761.44257"
       y1="508.69208"
       x1="262.13925"
       gradientUnits="userSpaceOnUse"
       id="linearGradient501"
       xlink:href="#linearGradient4712" />
    <linearGradient
       y2="508.69208"
       x2="761.44257"
       y1="508.69208"
       x1="262.13925"
       gradientUnits="userSpaceOnUse"
       id="linearGradient503"
       xlink:href="#linearGradient4712" />
    <linearGradient
       y2="508.69208"
       x2="761.44257"
       y1="508.69208"
       x1="262.13925"
       gradientUnits="userSpaceOnUse"
       id="linearGradient505"
       xlink:href="#linearGradient4712" />
  </defs>
  <metadata
     id="metadata5594">
    <rdf:RDF>
      <cc:Work
         rdf:about="">
        <dc:format>image/svg+xml</dc:format>
        <dc:type
           rdf:resource="http://purl.org/dc/dcmitype/StillImage" />
        <dc:title />
      </cc:Work>
    </rdf:RDF>
  </metadata>
  <g
     transform="translate(-190.07102,-28.903028)"
     style="display:inline"
     id="layer1">
    <path
       id="path4662"
       d="m 532.73438,45.648438 c -16.63482,0.09507 -30.11802,0.370063 -40.91016,0.828124 -5.39607,0.229031 -10.11811,0.503403 -14.22656,0.824219 -4.10846,0.320816 -7.60285,0.68827 -10.53907,1.101563 -3.575,0.503206 -14.6,1.62564 -24.5,2.49414 -8.45661,0.741876 -15.91146,1.454743 -22.60156,2.169922 -6.69009,0.71518 -12.61533,1.433201 -18.00976,2.1875 -5.39444,0.7543 -10.25851,1.543108 -14.82813,2.402344 -4.56962,0.859236 -8.84489,1.788371 -13.06055,2.818359 -10.64849,2.601688 -18.60575,4.543192 -24.86914,6.177735 -6.26339,1.634542 -10.83267,2.96224 -14.70898,4.339844 -3.87631,1.377603 -7.05961,2.803894 -10.54688,4.634765 -3.48726,1.830871 -7.27874,4.066203 -12.375,7.060547 -4.92117,2.891475 -9.56272,5.724243 -13.83398,8.435547 -4.27126,2.711303 -8.17168,5.302098 -11.61523,7.708984 -3.44356,2.406889 -6.42913,4.629199 -8.86719,6.607419 -2.43807,1.97823 -4.3292,3.71141 -5.58399,5.13672 -1.50308,1.70735 -3.20765,3.89783 -4.95508,6.32227 -1.74742,2.42443 -3.53718,5.08274 -5.21093,7.72265 -1.67376,2.63991 -3.23159,5.26147 -4.51367,7.61524 -1.28209,2.35377 -2.28893,4.43984 -2.86133,6.00586 -0.9775,2.67433 -3.21128,10.89195 -4.96485,18.26172 -1.75356,7.36978 -4.75452,19.25039 -6.66796,26.40039 -2.27233,8.49093 -4.56475,18.2026 -6.45313,27.12304 -1.88838,8.92045 -3.37272,17.04965 -4.02539,22.37696 -0.57275,4.675 -1.90629,14.125 -2.96484,21 -0.84926,5.51573 -1.5336,10.2081 -2.09766,14.58203 -0.56406,4.37393 -1.00711,8.42902 -1.37305,12.67187 -0.73188,8.48571 -1.15531,17.72038 -1.61719,31.7461 -0.49806,15.125 -1.33066,30.65 -1.8496,34.5 -0.3219,2.38807 -0.56308,7.72649 -0.72266,14.61328 -0.15958,6.88679 -0.2384,15.32119 -0.23633,23.90039 0.002,8.5792 0.085,17.30422 0.24805,24.76953 0.16305,7.46531 0.40711,13.67168 0.73047,17.2168 0.28845,3.1625 0.56116,9.01875 0.76757,15.90625 0.20642,6.8875 0.34655,14.80625 0.3711,22.09375 0.0368,10.89452 -0.0419,18.34183 -0.36133,24.96679 -0.31945,6.62497 -0.87973,12.4276 -1.80859,20.03321 -0.47492,3.88865 -0.8616,7.46131 -1.1836,11.25781 -0.322,3.7965 -0.57865,7.81592 -0.79687,12.59766 -0.43644,9.56348 -0.71511,22.17576 -1.03125,42.14453 -0.221,13.95907 -0.51614,26.19417 -0.83399,35.19726 -0.31784,9.00309 -0.65841,14.77417 -0.96679,15.80274 -0.57715,1.925 -1.34337,6.2 -1.70313,9.5 -0.35975,3.3 -1.49637,10.275 -2.52539,15.5 -0.54574,2.7711 -1.07472,6.86477 -1.50976,11.46875 -0.43505,4.60398 -0.77615,9.71828 -0.94727,14.53125 -0.32266,9.075 -1.09763,22.21795 -1.7207,29.20703 -0.31079,3.48618 -0.44623,10.21864 -0.44336,18.63672 0.003,8.41807 0.14419,18.52231 0.38672,28.75195 0.24253,10.22964 0.58595,20.585 0.99414,29.50586 0.40819,8.92086 0.88101,16.40668 1.38086,20.89844 0.47829,4.29804 1.30514,9.01038 2.42578,13.95703 1.12063,4.94665 2.53514,10.12713 4.18554,15.36523 1.65041,5.2381 3.53787,10.53268 5.60547,15.70508 2.06761,5.1724 4.31528,10.22311 6.6875,14.97266 1.4523,2.90772 3.24591,6.11349 5.20703,9.36523 1.96113,3.25174 4.09064,6.5494 6.2168,9.64453 2.12617,3.09514 4.2479,5.98591 6.19531,8.42383 1.94742,2.43792 3.71965,4.42303 5.14454,5.70313 1.19773,1.07603 2.54184,2.12964 4.01953,3.15625 1.47769,1.0266 3.08873,2.02683 4.82031,2.99414 3.46316,1.93462 7.40817,3.74066 11.73047,5.3789 4.3223,1.63824 9.02124,3.10818 13.99414,4.3711 4.97289,1.26291 10.21983,2.31829 15.63476,3.12695 2.84727,0.42521 7.34324,0.72609 12.88086,0.9082 5.53762,0.18211 12.11663,0.24539 19.13282,0.19336 7.01618,-0.052 14.46897,-0.21887 21.75195,-0.49609 7.28297,-0.27722 14.39639,-0.66475 20.73437,-1.15821 16.84518,-1.3115 28.35398,-2.07387 36.06055,-2.33789 3.85329,-0.13201 6.75629,-0.1394 8.90039,-0.0293 2.1441,0.11011 3.52909,0.33867 4.34766,0.67773 0.82685,0.34249 1.55363,0.81067 2.17969,1.3711 0.62605,0.56042 1.15215,1.21287 1.57617,1.92773 0.42402,0.71486 0.74604,1.49108 0.96679,2.29688 0.22075,0.80579 0.33923,1.64138 0.35547,2.4746 0.0162,0.83323 -0.0703,1.66378 -0.25976,2.46094 -0.18951,0.79717 -0.48242,1.56021 -0.87891,2.25781 -0.39649,0.69761 -0.89528,1.33069 -1.5,1.86524 -0.60472,0.53455 -1.31473,0.9713 -2.12891,1.2793 -0.72057,0.27258 -4.0602,0.65875 -8.85937,1.06054 -4.79917,0.4018 -11.0579,0.81922 -17.61914,1.15625 -6.56124,0.33704 -12.37305,0.72282 -16.45117,1.07227 -4.07813,0.34945 -6.42257,0.66257 -6.04883,0.85547 0.74748,0.38581 6.98437,1.49373 13.85937,2.46289 6.875,0.96916 15.2,2.42239 18.5,3.22851 1.17125,0.28612 2.95421,0.5331 5.70118,0.75391 2.74696,0.22081 6.45725,0.41485 11.48632,0.5957 10.05815,0.36171 25.38757,0.66946 48.8125,1.02344 14.90376,0.22522 27.03218,0.4468 37.21485,0.71094 10.18266,0.26413 18.41957,0.56989 25.53711,0.96484 7.11754,0.39495 13.11583,0.87843 18.82422,1.49609 5.70838,0.61767 11.12683,1.37046 17.08203,2.30274 9.34079,1.4623 21.80759,3.08468 29.34179,3.82031 2.34134,0.22861 10.53608,0.33216 21.63086,0.3418 11.09478,0.01 25.09001,-0.0737 39.0293,-0.2207 13.93929,-0.14702 27.8224,-0.35827 38.69727,-0.59961 10.87486,-0.24135 18.74107,-0.51376 20.64257,-0.78711 4.09519,-0.58872 8.79591,-1.62893 13.07032,-2.83203 2.1372,-0.60156 4.16722,-1.24422 5.96289,-1.89063 1.79566,-0.64641 3.35617,-1.29725 4.55273,-1.91601 1.0953,-0.5664 2.31448,-1.49192 3.59375,-2.69922 1.27927,-1.20731 2.61871,-2.69636 3.95703,-4.38672 1.33833,-1.69036 2.67481,-3.5821 3.94727,-5.59766 1.27246,-2.01556 2.48082,-4.15497 3.5625,-6.33789 0.98721,-1.99228 1.73863,-3.53299 2.3457,-5.04883 0.60708,-1.51584 1.06909,-3.0069 1.48242,-4.90039 0.82667,-3.78698 1.45297,-9.18329 2.62305,-19.60547 1.32015,-11.75895 3.09348,-29.85223 3.93945,-40.20898 0.84597,-10.35675 1.95636,-22.05675 2.46875,-26 0.25619,-1.97163 0.49576,-9.16449 0.67383,-19.16406 0.17807,-9.99958 0.29464,-22.80586 0.3086,-36.00586 0.014,-13.2 0.12773,-25.93047 0.30078,-35.8086 0.17304,-9.87812 0.40534,-16.9039 0.65429,-18.6914 0.24896,-1.7875 0.54251,-10.38711 0.81446,-22.80274 0.27194,-12.41562 0.52226,-28.64726 0.68554,-45.69726 0.16328,-17.05 0.41762,-33.73047 0.69727,-46.8711 0.27965,-13.14062 0.5846,-22.7414 0.8457,-25.6289 0.52221,-5.775 1.44511,-21.3 2.05078,-34.5 0.73529,-16.02476 1.38755,-28.30631 1.95118,-36.73438 0.56362,-8.42806 1.03861,-13.00264 1.41601,-13.61328 0.34189,-0.55319 1.30544,-9.43002 2.14063,-19.72656 0.83519,-10.29653 1.78196,-19.14574 2.10351,-19.66602 0.21287,-0.34443 0.41361,-1.22945 0.60352,-2.66601 0.1899,-1.43657 0.36962,-3.42512 0.53711,-5.97461 0.33497,-5.09898 0.62448,-12.44372 0.87304,-22.11914 0.49713,-19.35084 0.82632,-48.02131 1.00391,-86.67578 l 0.39648,-86.17579 -2.58789,-22.32421 c -0.99336,-8.5676 -1.69425,-16.24647 -2.23437,-25.24805 -0.54012,-9.00158 -0.91948,-19.32587 -1.27149,-33.18359 -0.3509,-13.81455 -0.76537,-25.11131 -1.34765,-34.52344 -0.29114,-4.70607 -0.62425,-8.94078 -1.01172,-12.78321 -0.38747,-3.84242 -0.83039,-7.29292 -1.33985,-10.42968 -0.50945,-3.13676 -1.08703,-5.95976 -1.74414,-8.54883 -0.6571,-2.58907 -1.39419,-4.945184 -2.2246,-7.144532 -0.83042,-2.199349 -1.75384,-4.243332 -2.78321,-6.210938 -1.02937,-1.967606 -2.16397,-3.858115 -3.41797,-5.751953 -2.27579,-3.437011 -5.01963,-6.93739 -8.0332,-10.324219 -3.01357,-3.386828 -6.29673,-6.659873 -9.65234,-9.644531 -3.35562,-2.984659 -6.78401,-5.679656 -10.08594,-7.910156 -1.65097,-1.115251 -3.27064,-2.11585 -4.83399,-2.976563 -1.56334,-0.860713 -3.06983,-1.582354 -4.49609,-2.144531 -2.2767,-0.897391 -4.51964,-1.61529 -7.29687,-2.201172 -2.77724,-0.585882 -6.089,-1.039177 -10.5,-1.408203 -4.41101,-0.369027 -9.92158,-0.653566 -17.09961,-0.900391 -7.17803,-0.246824 -16.02327,-0.456505 -27.10157,-0.675781 -31.08834,-0.615342 -58.10168,-1.055848 -81.50195,-1.318359 -23.40027,-0.262512 -43.18746,-0.347027 -59.82226,-0.251953 z"
       style="fill:#ffffff;fill-opacity:1;fill-rule:nonzero;stroke:none" />
    <path
       id="path4660"
       d="m 475.55859,28.904297 -23.5,2.703125 c -12.925,1.487297 -29.35,3.19977 -36.5,3.804687 -4.82093,0.407869 -9.24894,0.845155 -13.43945,1.337891 -4.19051,0.492736 -8.14354,1.041419 -12.01758,1.669922 -3.87403,0.628503 -7.66756,1.337176 -11.53906,2.152344 -3.8715,0.815167 -7.82099,1.736332 -12.00391,2.789062 -8.25,2.076308 -19.275,4.779271 -24.5,6.00586 -3.25668,0.764517 -6.33698,1.613188 -9.38086,2.605468 -3.04387,0.992281 -6.05214,2.12751 -9.16406,3.46875 -3.11192,1.341241 -6.32629,2.887823 -9.78711,4.699219 -3.46081,1.811396 -7.16725,3.888268 -11.25781,6.291016 -9.49715,5.578511 -17.09763,10.184293 -23.37305,14.320312 -3.1377,2.06801 -5.9442,4.018133 -8.49023,5.914063 -2.54604,1.895929 -4.83282,3.738345 -6.92969,5.58789 -2.09687,1.849546 -4.00471,3.70591 -5.79492,5.634766 -1.79021,1.928856 -3.46183,3.930588 -5.08789,6.064448 -1.62606,2.13387 -3.20613,4.40068 -4.81055,6.86524 -1.60441,2.46456 -3.2337,5.12591 -4.95898,8.04687 -1.31265,2.22237 -2.51188,4.50864 -3.63086,6.95704 -1.11898,2.44839 -2.15673,5.05796 -3.15039,7.92968 -0.99366,2.87172 -1.94222,6.0057 -2.87891,9.49805 -0.93669,3.49235 -1.86248,7.34401 -2.81055,11.6543 -0.96781,4.4 -3.70982,15.425 -6.09375,24.5 -2.55861,9.73996 -5.05184,20.61213 -7.02343,30.36328 -0.9858,4.87557 -1.84165,9.47058 -2.50977,13.5039 -0.66812,4.03333 -1.14827,7.5051 -1.38476,10.13282 -0.37125,4.125 -1.31507,10.875 -2.09766,15 -0.64172,3.38246 -1.29775,7.96081 -1.92188,13.18164 -0.62412,5.22083 -1.21695,11.08481 -1.72851,17.03906 -0.51156,5.95425 -0.94208,11.99737 -1.24609,17.58008 -0.30402,5.58271 -0.48093,10.70433 -0.48243,14.81054 -0.001,4.43041 -0.17665,9.96368 -0.45703,15.31055 -0.28037,5.34688 -0.66597,10.50737 -1.08984,14.18945 -0.45708,3.97059 -0.78709,10.18742 -0.99219,17.92579 -0.2051,7.73836 -0.28516,16.99861 -0.24414,27.05468 0.041,10.05608 0.2031,20.90833 0.48437,31.83203 0.28128,10.92371 0.68162,21.91851 1.19727,32.25977 0.33266,6.67122 0.57279,11.91262 0.67773,16.67578 0.10495,4.76316 0.0757,9.04878 -0.1289,13.80664 -0.20457,4.75786 -0.58574,9.98726 -1.18164,16.64258 -0.59591,6.65532 -1.40751,14.73586 -2.47656,25.19141 -0.28118,2.75 -0.61837,10.14297 -0.93555,19.83984 -0.31718,9.69688 -0.61434,21.69766 -0.81445,33.66016 -0.17715,10.58951 -0.33586,18.87998 -0.5293,25.64062 -0.19344,6.76064 -0.42226,11.99214 -0.74219,16.46485 -0.31993,4.4727 -0.7305,8.18639 -1.28711,11.91211 -0.55661,3.72571 -1.25862,7.46276 -2.16211,11.98242 -0.57898,2.89634 -1.11801,6.5315 -1.61328,10.77929 -0.49527,4.2478 -0.94745,9.10749 -1.35156,14.45313 -0.80822,10.69128 -1.4254,23.32577 -1.82422,36.88672 -0.39882,13.56095 -0.57805,28.04947 -0.50781,42.45117 0.0702,14.4017 0.38934,28.71617 0.98828,41.92969 0.3669,8.09457 0.82746,15.01369 1.5,21.28906 0.67254,6.27537 1.55756,11.90611 2.76953,17.42773 0.60599,2.76082 1.29344,5.49543 2.07813,8.26758 0.78468,2.77215 1.6656,5.58333 2.6582,8.5 1.9852,5.83335 4.41597,12.0883 7.4082,19.29883 1.78717,4.30663 4.083,9.06958 6.64453,13.90234 2.56154,4.83277 5.38908,9.73506 8.24219,14.31836 2.85311,4.58331 5.73068,8.848 8.39258,12.40625 1.33095,1.77913 2.60816,3.38233 3.80078,4.75977 1.19262,1.37744 2.30098,2.5294 3.29492,3.4082 2.58706,2.28737 5.32035,4.39188 8.23242,6.33203 2.91207,1.94015 6.00204,3.71566 9.30664,5.3418 3.3046,1.62614 6.82325,3.10389 10.58789,4.44922 3.76465,1.34533 7.77617,2.55852 12.06836,3.65625 3.70296,0.94703 7.29612,1.74266 10.94141,2.40234 3.64529,0.65969 7.3419,1.18378 11.25391,1.58985 3.912,0.40606 8.03987,0.69273 12.54297,0.8789 4.50309,0.18617 9.38221,0.27149 14.80078,0.27149 8.28065,0 12.64633,0.0244 14.9414,0.27734 1.14754,0.12648 1.77799,0.31031 2.1211,0.57617 0.34311,0.26586 0.39843,0.61431 0.39843,1.07031 0,0.78501 0.22552,1.57758 0.66016,2.3711 0.43464,0.79352 1.07912,1.58811 1.91211,2.37305 0.83299,0.78493 1.85572,1.56105 3.05078,2.32031 1.19506,0.75926 2.56119,1.50226 4.08203,2.21875 3.04168,1.43297 6.69911,2.76256 10.82617,3.92187 4.12707,1.15931 8.72433,2.1476 13.64649,2.89649 7.32726,1.11481 16.92226,2.76987 21.32226,3.67969 1.56527,0.32365 3.4262,0.59857 5.85547,0.83984 2.42928,0.24126 5.42722,0.44953 9.26953,0.63476 7.68463,0.37047 18.74405,0.65456 35.375,0.95899 19.30201,0.35332 35.14295,0.69059 48.39063,1.05859 13.24767,0.36801 23.90274,0.76724 32.83008,1.24219 8.92733,0.47495 16.12775,1.02506 22.46875,1.69922 6.34099,0.67416 11.8219,1.47187 17.31054,2.4375 4.675,0.82247 14.125,2.12208 21,2.88867 4.52647,0.50472 14.28673,0.84532 26.61524,1.03711 12.32851,0.19179 27.22512,0.23556 42.02734,0.14648 14.80222,-0.0891 29.50943,-0.31054 41.45703,-0.64843 5.9738,-0.16895 11.25845,-0.36861 15.51953,-0.59375 4.26109,-0.22514 7.49854,-0.47658 9.38086,-0.75391 4.98672,-0.7347 9.48061,-1.61617 13.53516,-2.66797 4.05455,-1.05179 7.66999,-2.27412 10.89844,-3.68945 1.61422,-0.70767 3.13101,-1.46423 4.55859,-2.27149 1.42758,-0.80725 2.76533,-1.66547 4.01953,-2.57812 1.2542,-0.91265 2.42546,-1.87849 3.51953,-2.90234 1.09408,-1.02386 2.11139,-2.10524 3.0586,-3.2461 2.58902,-3.11833 4.88713,-6.26225 6.90039,-9.4414 2.01326,-3.17916 3.74082,-6.39347 5.1875,-9.6543 1.44668,-3.26084 2.61267,-6.56827 3.50195,-9.93164 0.88928,-3.36338 1.5027,-6.78276 1.84375,-10.26953 0.51108,-5.225 1.80453,-17.15 2.875,-26.5 1.07048,-9.35 2.22725,-21.725 2.57227,-27.5 0.34503,-5.775 1.25883,-15.9 2.02929,-22.5 0.51407,-4.40373 0.90269,-12.60124 1.2168,-26.86524 0.31411,-14.26399 0.55371,-34.59447 0.76758,-63.26758 0.16026,-21.48662 0.41374,-41.67929 0.69336,-56.90429 0.27962,-15.225 0.58539,-25.48233 0.84961,-27.09571 0.26422,-1.61337 0.51287,-6.73733 0.70117,-13.6914 0.1883,-6.95408 0.31624,-15.73828 0.33789,-24.67578 0.0434,-17.875 0.46314,-40.375 0.93359,-50 0.91673,-18.75555 1.89427,-35.93639 2.76563,-49.02539 0.87136,-13.08901 1.63654,-22.08619 2.12695,-24.47461 0.56466,-2.75 1.53069,-11.075 2.14649,-18.5 0.6158,-7.425 1.82783,-17.775 2.69336,-23 0.33455,-2.01963 0.60421,-4.58999 0.82617,-8.68164 0.22195,-4.09166 0.39707,-9.70386 0.54101,-17.81055 0.28788,-16.21337 0.45344,-42.40055 0.63672,-86.33203 0.15243,-36.53756 0.17805,-63.11413 0.0645,-81.45508 -0.1136,-18.34095 -0.36642,-28.44628 -0.76758,-32.04492 -2.25473,-20.22522 -3.51218,-32.23015 -4.20703,-42.25977 -0.34743,-5.01481 -0.55399,-9.53555 -0.67383,-14.34375 -0.11984,-4.8082 -0.1538,-9.90329 -0.1543,-16.0664 -7.5e-4,-10.2117 -0.18615,-19.15707 -0.58789,-27.07227 -0.40174,-7.91519 -1.01914,-14.79959 -1.88867,-20.88672 -0.43477,-3.04356 -0.93381,-5.88812 -1.49805,-8.5625 -0.56424,-2.67437 -1.19442,-5.179222 -1.89648,-7.542967 -0.70206,-2.363744 -1.47599,-4.587552 -2.32422,-6.699219 -0.84823,-2.111667 -1.77068,-4.111153 -2.77344,-6.029296 -1.43789,-2.750514 -3.04478,-5.472296 -4.79297,-8.142579 -1.74818,-2.670283 -3.63783,-5.288927 -5.64453,-7.832031 -2.0067,-2.543104 -4.13029,-5.011882 -6.34375,-7.380859 -2.21345,-2.368977 -4.51633,-4.639208 -6.88476,-6.78711 -2.36844,-2.147901 -4.80179,-4.172857 -7.27344,-6.052734 -2.47165,-1.879877 -4.98277,-3.61283 -7.50586,-5.177734 -2.5231,-1.564904 -5.05731,-2.96108 -7.58008,-4.164063 -2.52277,-1.202982 -5.03323,-2.2137 -7.50391,-3.007812 -1.76323,-0.56673 -3.39445,-1.066264 -5.14257,-1.50586 -1.74813,-0.439596 -3.613,-0.818877 -5.84766,-1.148437 -2.23466,-0.329561 -4.83771,-0.60908 -8.06055,-0.845703 -3.22283,-0.236624 -7.06468,-0.431013 -11.77734,-0.591797 -9.42531,-0.32157 -22.3321,-0.508102 -40.72656,-0.628907 -18.39447,-0.120804 -42.27754,-0.175595 -73.6543,-0.232421 L 475.55859,28.904297 Z m 57.17579,16.744141 c 16.6348,-0.09507 36.42199,-0.01056 59.82226,0.251953 23.40027,0.262511 50.41361,0.703017 81.50195,1.318359 11.0783,0.219276 19.92354,0.428957 27.10157,0.675781 7.17803,0.246825 12.6886,0.531364 17.09961,0.900391 4.411,0.369026 7.72276,0.822321 10.5,1.408203 2.77723,0.585882 5.02017,1.303781 7.29687,2.201172 1.42626,0.562177 2.93275,1.283818 4.49609,2.144531 1.56335,0.860713 3.18302,1.861312 4.83399,2.976563 3.30193,2.2305 6.73032,4.925497 10.08594,7.910156 3.35561,2.984658 6.63877,6.257703 9.65234,9.644531 3.01357,3.386829 5.75741,6.887208 8.0332,10.324219 1.254,1.893838 2.3886,3.784347 3.41797,5.751953 1.02937,1.967606 1.95279,4.011589 2.78321,6.210938 0.83041,2.199348 1.5675,4.555462 2.2246,7.144532 0.65711,2.58907 1.23469,5.41207 1.74414,8.54883 0.50946,3.13676 0.95238,6.58726 1.33985,10.42968 0.38747,3.84243 0.72058,8.07714 1.01172,12.78321 0.58228,9.41213 0.99675,20.70889 1.34765,34.52344 0.35201,13.85772 0.73137,24.18201 1.27149,33.18359 0.54012,9.00158 1.24101,16.68045 2.23437,25.24805 l 2.58789,22.32421 -0.39648,86.17579 c -0.17759,38.65447 -0.50678,67.32494 -1.00391,86.67578 -0.24856,9.67542 -0.53807,17.02016 -0.87304,22.11914 -0.16749,2.54949 -0.34721,4.53804 -0.53711,5.97461 -0.18991,1.43656 -0.39065,2.32158 -0.60352,2.66601 -0.32155,0.52028 -1.26832,9.36949 -2.10351,19.66602 -0.83519,10.29654 -1.79874,19.17337 -2.14063,19.72656 -0.3774,0.61064 -0.85239,5.18522 -1.41601,13.61328 -0.56363,8.42807 -1.21589,20.70962 -1.95118,36.73438 -0.60567,13.2 -1.52857,28.725 -2.05078,34.5 -0.2611,2.8875 -0.56605,12.48828 -0.8457,25.6289 -0.27965,13.14063 -0.53399,29.8211 -0.69727,46.8711 -0.16328,17.05 -0.4136,33.28164 -0.68554,45.69726 -0.27195,12.41563 -0.5655,21.01524 -0.81446,22.80274 -0.24895,1.7875 -0.48125,8.81328 -0.65429,18.6914 -0.17305,9.87813 -0.28683,22.6086 -0.30078,35.8086 -0.014,13.2 -0.13053,26.00628 -0.3086,36.00586 -0.17807,9.99957 -0.41764,17.19243 -0.67383,19.16406 -0.51239,3.94325 -1.62278,15.64325 -2.46875,26 -0.84597,10.35675 -2.6193,28.45003 -3.93945,40.20898 -1.17008,10.42218 -1.79638,15.81849 -2.62305,19.60547 -0.41333,1.89349 -0.87534,3.38455 -1.48242,4.90039 -0.60707,1.51584 -1.35849,3.05655 -2.3457,5.04883 -1.08168,2.18292 -2.29004,4.32233 -3.5625,6.33789 -1.27246,2.01556 -2.60894,3.9073 -3.94727,5.59766 -1.33832,1.69036 -2.67776,3.17941 -3.95703,4.38672 -1.27927,1.2073 -2.49845,2.13282 -3.59375,2.69922 -1.19656,0.61876 -2.75707,1.2696 -4.55273,1.91601 -1.79567,0.64641 -3.82569,1.28907 -5.96289,1.89063 -4.27441,1.2031 -8.97513,2.24331 -13.07032,2.83203 -1.9015,0.27335 -9.76771,0.54576 -20.64257,0.78711 -10.87487,0.24134 -24.75798,0.45259 -38.69727,0.59961 -13.93929,0.14701 -27.93452,0.23033 -39.0293,0.2207 -11.09478,-0.01 -19.28952,-0.11319 -21.63086,-0.3418 -7.5342,-0.73563 -20.001,-2.35801 -29.34179,-3.82031 -5.9552,-0.93228 -11.37365,-1.68507 -17.08203,-2.30274 -5.70839,-0.61766 -11.70668,-1.10114 -18.82422,-1.49609 -7.11754,-0.39495 -15.35445,-0.70071 -25.53711,-0.96484 -10.18267,-0.26414 -22.31109,-0.48572 -37.21485,-0.71094 -23.42493,-0.35398 -38.75435,-0.66173 -48.8125,-1.02344 -5.02907,-0.18085 -8.73936,-0.37489 -11.48632,-0.5957 -2.74697,-0.22081 -4.52993,-0.46779 -5.70118,-0.75391 -3.3,-0.80612 -11.625,-2.25935 -18.5,-3.22851 -6.875,-0.96916 -13.11189,-2.07708 -13.85937,-2.46289 -0.37374,-0.1929 1.9707,-0.50602 6.04883,-0.85547 4.07812,-0.34945 9.88993,-0.73523 16.45117,-1.07227 6.56124,-0.33703 12.81997,-0.75445 17.61914,-1.15625 4.79917,-0.40179 8.1388,-0.78796 8.85937,-1.06054 0.81418,-0.308 1.52419,-0.74475 2.12891,-1.2793 0.60472,-0.53455 1.10351,-1.16763 1.5,-1.86524 0.39649,-0.6976 0.6894,-1.46064 0.87891,-2.25781 0.1895,-0.79716 0.276,-1.62771 0.25976,-2.46094 -0.0162,-0.83322 -0.13472,-1.66881 -0.35547,-2.4746 -0.22075,-0.8058 -0.54277,-1.58202 -0.96679,-2.29688 -0.42402,-0.71486 -0.95012,-1.36731 -1.57617,-1.92773 -0.62606,-0.56043 -1.35284,-1.02861 -2.17969,-1.3711 -0.81857,-0.33906 -2.20356,-0.56762 -4.34766,-0.67773 -2.1441,-0.11011 -5.0471,-0.10272 -8.90039,0.0293 -7.70657,0.26402 -19.21537,1.02639 -36.06055,2.33789 -6.33798,0.49346 -13.4514,0.88099 -20.73437,1.15821 -7.28298,0.27722 -14.73577,0.44406 -21.75195,0.49609 -7.01619,0.052 -13.5952,-0.0113 -19.13282,-0.19336 -5.53762,-0.18211 -10.03359,-0.48299 -12.88086,-0.9082 -5.41493,-0.80866 -10.66187,-1.86404 -15.63476,-3.12695 -4.9729,-1.26292 -9.67184,-2.73286 -13.99414,-4.3711 -4.3223,-1.63824 -8.26731,-3.44428 -11.73047,-5.3789 -1.73158,-0.96731 -3.34262,-1.96754 -4.82031,-2.99414 -1.47769,-1.02661 -2.8218,-2.08022 -4.01953,-3.15625 -1.42489,-1.2801 -3.19712,-3.26521 -5.14454,-5.70313 -1.94741,-2.43792 -4.06914,-5.32869 -6.19531,-8.42383 -2.12616,-3.09513 -4.25567,-6.39279 -6.2168,-9.64453 -1.96112,-3.25174 -3.75473,-6.45751 -5.20703,-9.36523 -2.37222,-4.74955 -4.61989,-9.80026 -6.6875,-14.97266 -2.0676,-5.1724 -3.95506,-10.46698 -5.60547,-15.70508 -1.6504,-5.2381 -3.06491,-10.41858 -4.18554,-15.36523 -1.12064,-4.94665 -1.94749,-9.65899 -2.42578,-13.95703 -0.49985,-4.49176 -0.97267,-11.97758 -1.38086,-20.89844 -0.40819,-8.92086 -0.75161,-19.27622 -0.99414,-29.50586 -0.24253,-10.22964 -0.38385,-20.33388 -0.38672,-28.75195 -0.003,-8.41808 0.13257,-15.15054 0.44336,-18.63672 0.62307,-6.98908 1.39804,-20.13203 1.7207,-29.20703 0.17112,-4.81297 0.51222,-9.92727 0.94727,-14.53125 0.43504,-4.60398 0.96402,-8.69765 1.50976,-11.46875 1.02902,-5.225 2.16564,-12.2 2.52539,-15.5 0.35976,-3.3 1.12598,-7.575 1.70313,-9.5 0.30838,-1.02857 0.64895,-6.79965 0.96679,-15.80274 0.31785,-9.00309 0.61299,-21.23819 0.83399,-35.19726 0.31614,-19.96877 0.59481,-32.58105 1.03125,-42.14453 0.21822,-4.78174 0.47487,-8.80116 0.79687,-12.59766 0.322,-3.7965 0.70868,-7.36916 1.1836,-11.25781 0.92886,-7.60561 1.48914,-13.40824 1.80859,-20.03321 0.31945,-6.62496 0.39808,-14.07227 0.36133,-24.96679 -0.0246,-7.2875 -0.16468,-15.20625 -0.3711,-22.09375 -0.20641,-6.8875 -0.47912,-12.74375 -0.76757,-15.90625 -0.32336,-3.54512 -0.56742,-9.75149 -0.73047,-17.2168 -0.16305,-7.46531 -0.24598,-16.19033 -0.24805,-24.76953 -0.002,-8.5792 0.0768,-17.0136 0.23633,-23.90039 0.15958,-6.88679 0.40076,-12.22521 0.72266,-14.61328 0.51894,-3.85 1.35154,-19.375 1.8496,-34.5 0.46188,-14.02572 0.88531,-23.26039 1.61719,-31.7461 0.36594,-4.24285 0.80899,-8.29794 1.37305,-12.67187 0.56406,-4.37393 1.2484,-9.0663 2.09766,-14.58203 1.05855,-6.875 2.39209,-16.325 2.96484,-21 0.65267,-5.32731 2.13701,-13.45651 4.02539,-22.37696 1.88838,-8.92044 4.1808,-18.63211 6.45313,-27.12304 1.91344,-7.15 4.9144,-19.03061 6.66796,-26.40039 1.75357,-7.36977 3.98735,-15.58739 4.96485,-18.26172 0.5724,-1.56602 1.57924,-3.65209 2.86133,-6.00586 1.28208,-2.35377 2.83991,-4.97533 4.51367,-7.61524 1.67375,-2.63991 3.46351,-5.29822 5.21093,-7.72265 1.74743,-2.42444 3.452,-4.61492 4.95508,-6.32227 1.25479,-1.42531 3.14592,-3.15849 5.58399,-5.13672 2.43806,-1.97822 5.42363,-4.20053 8.86719,-6.607419 3.44355,-2.406886 7.34397,-4.997681 11.61523,-7.708984 4.27126,-2.711304 8.91281,-5.544072 13.83398,-8.435547 5.09626,-2.994344 8.88774,-5.229676 12.375,-7.060547 3.48727,-1.830871 6.67057,-3.257162 10.54688,-4.634765 3.87631,-1.377604 8.44559,-2.705302 14.70898,-4.339844 6.26339,-1.634543 14.22065,-3.576047 24.86914,-6.177735 4.21566,-1.029988 8.49093,-1.959123 13.06055,-2.818359 4.56962,-0.859236 9.43369,-1.648044 14.82813,-2.402344 5.39443,-0.754299 11.31967,-1.47232 18.00976,-2.1875 6.6901,-0.715179 14.14495,-1.428046 22.60156,-2.169922 9.9,-0.8685 20.925,-1.990934 24.5,-2.49414 2.93622,-0.413293 6.43061,-0.780747 10.53907,-1.101563 4.10845,-0.320816 8.83049,-0.595188 14.22656,-0.824219 10.79214,-0.458061 24.27534,-0.733051 40.91016,-0.828124 z"
       style="fill:#000000;fill-opacity:1;fill-rule:nonzero;stroke:none" />
    <path
       id="path4758"
       d="m 372.06641,169.53516 c -2.13356,0.009 -4.37411,0.0281 -6.73243,0.0566 l -25.77539,0.3125 -10.5,4.30273 c -19.6458,8.04981 -27.91793,15.36007 -42.53711,37.5918 -7.69095,11.69582 -20.23447,37.11828 -24.50586,49.66601 -1.93689,5.68988 -2.12077,7.7372 -1.57617,17.58985 1.26232,22.83741 9.0067,35.83505 31.11914,52.23242 11.59075,8.59507 12.46933,9.14658 28.5,17.875 28.08649,15.29262 38.40349,18.19977 54.06055,15.23047 7.06663,-1.34016 9.93945,-4.08191 9.93945,-9.48828 0,-3.04703 -0.61677,-4.72944 -2.3164,-6.32618 -2.11787,-1.98956 -3.24957,-2.15902 -13.25,-1.97851 -12.78156,0.2307 -14.31813,-0.29418 -37.78125,-12.88672 -18.3556,-9.85137 -28.15441,-16.73813 -38.78711,-27.26172 -10.68517,-10.57553 -13.13642,-15.93866 -13.27539,-29.04687 -0.0843,-7.95376 0.19106,-9.14263 4.30078,-18.5 9.73249,-22.15975 18.45797,-37.38624 28.87695,-50.39649 6.35788,-7.93912 11.46313,-11.55284 23.73242,-16.79883 l 11,-4.70312 17.16797,-0.41211 c 17.71788,-0.42545 30.86519,0.97753 40.82617,4.35937 11.6236,3.94633 36.84802,21.40743 43.0625,29.8086 2.09214,2.8283 5.72572,7.16758 8.07422,9.64258 8.51636,8.97507 12.12063,21.18414 13.0586,44.23437 0.58031,14.2609 0.50928,15.00135 -2.18164,23 -1.52923,4.5456 -4.58874,11.41563 -6.80079,15.26563 -5.11896,8.9095 -19.71681,23.64869 -29.70703,29.99414 -4.125,2.62006 -11.1,7.13666 -15.5,10.03906 -4.4,2.90239 -10.475,6.42436 -13.5,7.82617 -17.02015,7.88723 -35.07009,15.58192 -39,16.625 -6.36958,1.69063 -9,4.43035 -9,9.375 0,2.7762 0.69276,4.75698 2.25,6.43164 2.0223,2.1748 2.86254,2.37217 8.31055,1.94531 6.25496,-0.49008 11.18672,-2.31584 36.43945,-13.48242 13.65572,-6.03846 16.75609,-7.741 30.50586,-16.7539 4.1953,-2.75 10.18505,-6.65424 13.31055,-8.67578 6.44348,-4.16755 24.00768,-21.46013 28.42969,-27.99024 4.386,-6.47693 8.44303,-14.85871 11.40234,-23.56055 2.54975,-7.49752 2.63487,-8.48533 2.42383,-27.76757 -0.33905,-30.97865 -4.19597,-45.14472 -15.92578,-58.49219 -3.14859,-3.58281 -7.43247,-8.63116 -9.51953,-11.21875 -4.84932,-6.01229 -14.99317,-14.20191 -26.82032,-21.65234 -21.81493,-13.74218 -29.79542,-16.14136 -61.79882,-16.01172 z m 0.49218,24.50976 c -18.14877,0.15999 -26.72755,1.86794 -37.98632,7.56446 -27.15779,13.74085 -37.49701,35.48398 -31.95118,67.18945 1.94535,11.12155 4.06069,16.73102 9.76758,25.88672 4.93175,7.91214 11.73547,15.30087 18.08008,19.63867 6.62969,4.53271 30.00174,15.01191 36.80469,16.50195 16.77761,3.67476 41.86365,0.76409 55.7539,-6.4707 25.11296,-13.08021 36.26713,-31.14915 34.76563,-56.31641 -1.62962,-27.31472 -19.12063,-52.67823 -45.23438,-65.59179 -14.17236,-7.00841 -21.58193,-8.56471 -40,-8.40235 z m -22,10.87305 c 9.49528,0.0166 12.60484,1.39334 19.57032,8.6582 l 4.75,4.95313 4.83984,-2.4375 c 8.5575,-4.31071 19.6974,-5.80615 26.43945,-3.54883 11.83527,3.9626 17.52831,17.70864 10.84961,26.19922 -1.0721,1.36296 -1.94922,2.90017 -1.94922,3.41797 0,0.51779 4.37027,1.22936 9.71289,1.58007 18.89603,1.24123 27.42969,9.30426 21.03125,19.87305 -3.81915,6.30837 -15.85797,13.76055 -22.26367,13.78125 l -3.01953,0.01 0.0195,10.75 c 0.0163,9.19476 -0.30052,11.34745 -2.1875,14.875 -7.0487,13.17694 -19.7772,14.30275 -32.15429,2.84375 -3.24829,-3.00734 -6.29695,-5.46117 -6.77344,-5.45117 -0.47649,0.01 -2.35309,2.29319 -4.17188,5.07421 -2.27066,3.47194 -4.62084,5.6538 -7.5,6.96094 -2.30621,1.04702 -4.64336,1.86029 -5.19336,1.80859 -8.72639,-0.82062 -14.43996,-8.33698 -15.28515,-20.11132 l -0.48438,-6.75 -3.21679,0 c -11.52634,0 -23.51368,-10.77959 -23.51368,-21.14258 0,-6.12082 4.22965,-14.35059 9.10743,-17.7207 2.09884,-1.45011 3.83261,-3.11916 3.85351,-3.70899 0.0209,-0.58983 -1.37518,-3.68398 -3.10351,-6.875 -2.34227,-4.32453 -3.2593,-7.48908 -3.59961,-12.42773 -0.42086,-6.1076 -0.22851,-6.9378 2.46875,-10.625 1.60935,-2.2 5.36702,-5.35 8.34961,-7 4.76652,-2.63689 6.39211,-2.99863 13.42382,-2.98633 z m -0.71289,15.49219 c -2.71941,0.0447 -5.40041,0.66934 -6.86523,1.85546 -2.28789,1.85263 -2.29104,1.88585 -0.55274,6.4375 0.96647,2.53068 3.50929,6.16531 5.69141,8.13672 4.40709,3.98154 7.27221,4.42083 11.85156,1.81446 2.15745,-1.22793 3.0696,-2.49581 3.0586,-4.25 -0.0228,-3.63885 -3.38818,-10.4776 -6.08594,-12.36719 -1.62107,-1.13544 -4.37825,-1.67163 -7.09766,-1.62695 z m 25.80078,29.18945 c -7.24503,0.006 -11.5962,3.91539 -11.58203,11.00586 0.01,4.84195 4.88703,11.20442 9.99414,13.03906 0.825,0.29633 4.3924,0.40307 7.92774,0.23828 5.33472,-0.24867 6.7452,-0.69671 8.29492,-2.63867 6.79868,-8.51943 4.02951,-17.20309 -6.48047,-20.32422 -3.00375,-0.89201 -5.73929,-1.32233 -8.1543,-1.32031 z m -31.5371,9.80469 c -4.8726,0 -8.05079,2.36861 -8.05079,6 0,1.8493 0.7988,3.44605 2.22266,4.44336 2.39224,1.67559 11.77734,2.17983 11.77734,0.63281 0,-0.50804 -0.52741,-3.20804 -1.17187,-6 -1.14179,-4.94652 -1.26378,-5.07617 -4.77734,-5.07617 z m 58.21874,22.15625 c -0.71512,0.0517 -1.58449,0.523 -2.71093,1.375 -1.06762,0.80751 -3.43012,1.46875 -5.25,1.46875 -2.67781,0 -3.3086,0.39384 -3.3086,2.0664 0,2.62848 4.52406,8.60469 7.90625,10.44336 3.2416,1.76224 3.60778,1.78081 4.88086,0.24024 1.82492,-2.20837 2.45987,-8.47228 1.23438,-12.18555 -0.63777,-1.93246 -1.25325,-3.00913 -2.08399,-3.31836 -0.20768,-0.0773 -0.42959,-0.10708 -0.66797,-0.0898 z m -38.26953,4.84375 c -1.61905,0 -2,0.66667 -2,3.5 0,2.26667 0.44048,3.4119 1.25,3.25 3.2706,-0.65412 3.94792,-6.75 0.75,-6.75 z M 645.3125,328.125 284.375,473.4375 645.3125,328.125 Z"
       style="fill:url(#linearGradient4712)" />
    <path
       id="path4790"
       d="m 622.46875,837.4043 c -2.74122,0 -15.49898,7.20434 -17.10937,9.66211 -2.03558,3.10669 -0.96871,6.91253 2.46093,8.77343 3.38023,1.8341 3.58028,1.84215 8.50977,0.36524 4.52316,-1.35518 14.73374,-10.13338 14.71484,-12.65039 -0.0137,-1.82869 -6.03929,-6.15039 -8.57617,-6.15039 z"
       style="fill:url(#linearGradient4712)" />
    <path
       id="path4788"
       d="m 669.07812,835.04883 -3.75976,4.04101 c -2.06808,2.22257 -5.22227,4.78902 -7.00977,5.70313 -1.93656,0.99034 -3.25,2.42686 -3.25,3.55469 0,2.32484 5.73489,6.01929 11.94922,7.69531 6.00928,1.62072 6.24357,1.61498 8.82813,-0.19531 4.1722,-2.92232 2.25729,-12.2076 -3.68555,-17.8711 l -3.07227,-2.92773 z"
       style="fill:url(#linearGradient4712)" />
    <path
       id="path4786"
       d="m 675.9375,805.4043 c -8.33521,0 -10.94385,0.30507 -10.6875,1.25 0.18652,0.6875 1.2016,3.8375 2.25586,7 2.1557,6.46658 1.97102,6.3972 12.48437,4.6914 8.73927,-1.41794 12.06836,-3.48526 12.06836,-7.49609 0,-4.45391 -2.93469,-5.44531 -16.12109,-5.44531 z"
       style="fill:url(#linearGradient4712)" />
    <path
       id="path4784"
       d="m 606.51367,801.4043 c -6.35592,0 -14.50682,1.96972 -15.15625,3.66211 -1.51175,3.93957 3.21328,8.43925 12.07227,11.49804 2.82037,0.9738 5.53566,1.6508 6.0332,1.50391 0.49753,-0.14689 1.01788,-3.95568 1.15625,-8.46484 l 0.25195,-8.19922 -4.35742,0 z m 31.3125,2.97851 c -4.98026,-0.32448 -10.64084,1.66133 -11.40625,4.71094 -1.03746,4.13357 1.54045,10.476 6.11914,15.05469 3.66882,3.66882 4.8586,4.26557 8.63672,4.32617 2.40987,0.0386 5.28281,0.46627 6.38281,0.94922 4.04741,1.77702 5.97591,0.76191 6.3125,-3.32031 0.64545,-7.82814 -4.46371,-16.97318 -11.49804,-20.58008 -1.30257,-0.6679 -2.88679,-1.03247 -4.54688,-1.14063 z"
       style="fill:url(#linearGradient4712)" />
    <path
       id="path4782"
       d="m 627.93164,772.4375 c -1.64775,-0.0448 -3.13757,0.49179 -3.57617,1.63477 -0.7865,2.04957 1.21607,12.04096 2.79492,13.94335 1.64879,1.98668 10.9082,1.90046 10.9082,-0.10156 0,-2.44106 -3.76204,-11.5904 -5.60156,-13.62304 -1.07153,-1.18403 -2.87764,-1.80873 -4.52539,-1.85352 z m 39.99609,5.32031 c -1.13814,-0.23686 -2.71553,0.006 -4.70507,0.85742 -3.62061,1.54924 -13.16407,10.34928 -13.16407,12.13868 0,0.69875 1.9125,2.66934 4.25,4.3789 5.00429,3.65994 6.75,3.99787 6.75,1.30469 0,-1.08164 2.025,-4.24648 4.5,-7.0332 5.24361,-5.90403 5.78358,-10.93591 2.36914,-11.64649 z"
       style="fill:url(#linearGradient4712)" />
    <path
       id="path4780"
       d="m 649.05859,748.78906 c -32.57146,1.83174 -56.02752,13.37878 -71.64843,35.26953 -11.73247,16.44157 -15.73675,34.71896 -11.94532,54.50782 1.86298,9.72355 3.974,14.91783 9.48828,23.33789 10.02271,15.3042 24.73495,26.13108 41.4668,30.51758 11.32173,2.96814 21.72726,2.1784 35.13867,-2.66993 4.25413,-1.5379 10.59071,-2.82867 16.1543,-3.28906 7.20158,-0.59592 10.11874,-1.32168 13.67578,-3.40625 5.57067,-3.26463 10.14983,-8.68768 12.36328,-14.64062 1.01594,-2.73231 4.35546,-7.36208 8.46485,-11.73633 7.24797,-7.71512 11.6112,-15.23817 14.40039,-24.82813 2.33671,-8.03423 1.50777,-32.10179 -1.39453,-40.49609 -10.04647,-29.05731 -33.86707,-44.38271 -66.16407,-42.56641 z m -20.61914,7.61524 c 5.40587,0 12.04273,3.40138 15.82617,8.10937 1.71994,2.14023 3.61355,3.88395 4.20899,3.87695 0.59545,-0.007 3.7346,-1.35695 6.97461,-3 11.74253,-5.95472 23.58268,-2.86792 28.57617,7.44727 1.93518,3.99755 2.1574,5.5764 1.56445,11.11328 l -0.6914,6.45313 3.11133,0 c 6.79727,0 15.09273,5.68889 18.16796,12.45898 4.93327,10.86058 -0.30909,22.16461 -12.86914,27.7461 -2.3375,1.03873 -4.25,2.27914 -4.25,2.75781 0,0.47866 0.88352,2.9344 1.96485,5.45703 5.80545,13.54358 2.17773,25.89574 -9.33203,31.76758 -8.53739,4.35545 -25.65956,0.20467 -35.37891,-8.57618 -2.1988,-1.98648 -4.53761,-3.61132 -5.19727,-3.61132 -0.65967,0 -3.30328,1.74234 -5.87695,3.87109 -2.57368,2.12875 -6.86451,5.12366 -9.53516,6.65625 -6.80794,3.90684 -17.29057,4.54568 -23.4082,1.42578 -9.61641,-4.90422 -15.64883,-16.03059 -13.33008,-24.58398 1.15594,-4.26404 5.61146,-11.36914 7.12891,-11.36914 0.53017,0 0.96294,-0.7875 0.96094,-1.75 -0.002,-1.13243 -1.59662,-2.40618 -4.51758,-3.60742 -5.45534,-2.24352 -12.56545,-8.93329 -15.40039,-14.49024 -2.41832,-4.74029 -2.72575,-12.00744 -0.67383,-15.95117 3.46159,-6.65307 11.31162,-10.71756 23.97656,-12.41211 l 8.39649,-1.12305 -0.10938,-7.12109 c -0.0921,-6.05075 0.2988,-7.81363 2.59766,-11.73633 3.20759,-5.47335 10.77327,-9.80859 17.11523,-9.80859 z"
       style="fill:url(#linearGradient4712)" />
    <path
       id="path4778"
       d="m 674.58398,721.60352 c -28.59574,-0.29665 -29.28136,-0.25545 -46.28515,2.75586 -18.90049,3.34719 -38.02864,9.66648 -48.73047,16.0996 -13.43253,8.0746 -30.38814,25.00009 -38.5,38.42969 -9.13443,15.12252 -9.29172,15.8179 -9.09961,40.41211 0.19093,24.44431 0.53553,26.05547 9.27539,43.47266 6.10732,12.17094 11.43026,19.329 22.7793,30.63086 6.94509,6.91622 10.21209,9.31692 17.53515,12.88867 14.46912,7.05717 41.03877,15.48459 53.81641,17.06836 3.95012,0.48962 13.25859,0.80105 20.68359,0.6914 11.53875,-0.17041 14.15375,-0.51419 18,-2.36718 2.475,-1.19236 9.45,-3.81309 15.5,-5.82227 12.43703,-4.13028 32.9772,-13.99349 42.23633,-20.28125 8.32845,-5.65574 15.21458,-14.44693 20.21875,-25.8125 6.226,-14.14061 8.10618,-22.60468 8.74414,-39.36523 1.12682,-29.60385 -3.48015,-52.09794 -13.79687,-67.34961 -15.07493,-22.28595 -24.2241,-31.70115 -36.87696,-37.95117 l -6.47656,-3.19922 -29.02344,-0.30078 z m 0.5293,16.99218 20.55664,0.3086 6.67578,3.39062 c 4.08801,2.07613 8.73662,5.5647 11.99414,9 7.87399,8.30372 19.51204,25.15651 22.83789,33.07227 5.28874,12.58757 7.48072,41.17524 4.45704,58.125 -0.74442,4.17296 -3.30079,12.04796 -5.68165,17.5 -6.39841,14.65203 -11.95925,19.90506 -30.89453,29.1875 -16.03978,7.86301 -25.76162,11.30565 -40,14.16601 -19.57523,3.93248 -26.29649,3.41133 -49.70898,-3.84961 -24.5575,-7.61603 -33.28321,-12.74259 -44.70508,-26.27539 -8.43107,-9.98926 -14.30276,-19.80201 -18.74023,-31.3164 -2.08715,-5.41577 -2.31458,-7.65533 -2.33008,-23 l -0.0156,-17 4.40821,-8 c 6.25125,-11.34393 10.86789,-17.25919 19.57617,-25.08399 12.35045,-11.09747 17.49348,-14.22852 32.17383,-19.58203 10.49793,-3.8283 17.58385,-5.63333 31.21093,-7.95117 16.34327,-2.77981 19.1298,-2.97683 38.18555,-2.69141 z"
       style="fill:url(#linearGradient4712)" />
    <path
       id="path4776"
       d="m 482.85742,565.01367 -4.62109,2.44531 c -8.01056,4.23812 -16.17774,10.77276 -16.17774,12.94336 0,1.69839 0.66476,2.00196 4.38477,2.00196 2.41184,0 6.57434,-0.70952 9.25,-1.57618 5.32844,-1.72589 12.86523,-6.43077 12.86523,-8.03124 0,-0.55564 -1.28222,-2.53375 -2.84961,-4.39649 l -2.85156,-3.38672 z m 41.56641,2.38281 c -2.129,0.48142 -4.3477,2.44088 -6.12305,6.00782 -1.19239,2.39568 -2.76763,3.80212 -4.99219,4.45703 -1.7875,0.52623 -3.25,1.58184 -3.25,2.3457 0,2.20207 3.99014,7.22059 7.38868,9.29297 8.3746,5.10667 15.35461,-1.10559 14.38476,-12.80078 -0.56414,-6.80271 -3.85987,-10.1051 -7.4082,-9.30274 z"
       style="fill:url(#linearGradient4706)" />
    <path
       id="path4774"
       d="m 470.45312,531.67969 c -1.55579,-0.30485 -3.32083,-0.23322 -6.29882,0.0195 -8.04045,0.6824 -10.09571,1.41447 -10.09571,3.5957 0,2.10984 4.48431,4.78582 12.93164,7.71485 7.63237,2.64645 12.06836,3.02099 12.06836,1.01953 0,-0.75625 0.26656,-2.7137 0.59375,-4.34961 0.54407,-2.72038 0.19063,-3.21266 -4.15234,-5.75781 -2.14372,-1.25631 -3.49108,-1.93735 -5.04688,-2.24219 z"
       style="fill:url(#linearGradient4706)" />
    <path
       id="path4772"
       d="m 508.74219,530.61523 c -10.13397,0.51927 -13.68097,4.77587 -13.6836,15.29493 -0.002,7.65997 1.4038,12.52771 4.25,14.71875 3.321,2.55655 6.01402,2.17549 7.88477,-1.11329 1.14311,-2.00958 3.16676,-3.38402 6.7207,-4.56445 3.07573,-1.02159 6.126,-2.92704 7.72071,-4.82226 2.26734,-2.69456 2.57822,-3.83806 2.21289,-8.17774 -0.23364,-2.77541 -1.07412,-6.39687 -1.86719,-8.04687 -1.37597,-2.86276 -1.76448,-3.01256 -8.48242,-3.28907 -1.72544,-0.071 -3.30815,-0.0742 -4.75586,0 z m 30.74804,5.78907 0.21875,6.75 c 0.1194,3.7125 0.24671,6.8625 0.28321,7 0.17928,0.67601 10.1496,-0.0794 14.46093,-1.09571 5.82061,-1.37213 7.50095,-3.39251 5.84571,-7.02539 -1.35893,-2.98251 -8.97854,-5.6289 -16.20508,-5.6289 l -4.60352,0 z"
       style="fill:url(#linearGradient4706)" />
    <path
       id="path4770"
       d="m 491.93359,492.51562 c -4.93542,-0.77148 -11.92873,1.2521 -13.8457,4.83399 -2.58337,4.82708 -0.50547,17.66836 3.50781,21.68164 3.13391,3.13391 5.45266,2.99478 13.13477,-0.78711 5.79744,-2.85407 6.37143,-3.4094 5.94141,-5.75 -0.26181,-1.42495 -1.02112,-5.69121 -1.68555,-9.48047 -0.71025,-4.05057 -1.97456,-7.6562 -3.06836,-8.75 -0.92367,-0.92367 -2.33923,-1.49088 -3.98438,-1.74805 z m 50.03125,9.80469 c -5.40728,-0.4027 -15.36744,2.70671 -18.98437,6.82617 -1.60684,1.8301 -2.92188,3.74386 -2.92188,4.25391 0,0.51005 1.9125,1.80639 4.25,2.88086 5.4675,2.51321 5.60344,2.51367 11.37305,-0.0137 9.57105,-4.19252 11.79877,-6.99313 9.76953,-12.28125 -0.38661,-1.00751 -1.6839,-1.53178 -3.48633,-1.66602 z"
       style="fill:url(#linearGradient4706)" />
    <path
       id="path4768"
       d="m 513.40625,461.05664 c -8.38968,0.0937 -16.6859,0.83631 -21.84766,2.19336 -13.16317,3.46065 -28.41857,11.77094 -40.38671,21.99805 -12.58856,10.75728 -19.03195,18.75656 -24.6875,30.65625 -5.10339,10.73788 -7.42579,21.19069 -7.42579,33.4082 0,12.25986 1.33196,17.88888 7.00586,29.5918 11.96325,24.67526 35.36302,44.78876 58.11914,49.95703 3.93656,0.89405 10.19865,1.33785 16.375,1.1582 12.75189,-0.37091 19.93146,-2.95294 26.50782,-9.5293 3.3028,-3.3028 6.75633,-5.45301 12.06054,-7.50976 19.60661,-7.60264 33.15544,-16.24795 41.57227,-26.52539 20.7873,-25.38253 26.00884,-57.14682 13.64648,-83.01172 -4.18909,-8.76453 -15.73733,-20.95442 -26.28711,-27.74805 -7.57173,-4.87589 -21.89899,-10.62558 -32.24609,-12.93945 -5.53413,-1.23757 -14.01657,-1.79294 -22.40625,-1.69922 z m -23.69141,15.64258 c 9.56467,-0.25634 17.69962,4.42973 21.4043,12.62695 1.26233,2.79313 2.73294,5.07813 3.26758,5.07813 0.53463,0 3.26744,-1.1105 6.07226,-2.46875 6.449,-3.12298 15.74699,-5.53125 21.35938,-5.53125 8.22447,0 16.33964,6.22852 18.76758,14.40429 2.04977,6.90231 1.86124,9.42126 -1.1543,15.47266 -1.44441,2.89857 -2.23191,5.61274 -1.75,6.03125 0.48192,0.41851 2.99321,1.54058 5.58008,2.49219 8.43065,3.1013 12.77911,10.30803 12.79101,21.20117 0.0116,10.61384 -8.36734,17.34095 -23.77343,19.08594 -2.90362,0.32888 -5.4949,0.94566 -5.75782,1.37109 -0.26293,0.42542 0.0204,3.0962 0.62891,5.93359 1.48914,6.94361 -0.30461,16.28719 -4.45117,23.19141 -2.39311,3.98465 -4.41925,5.89531 -8.50586,8.02344 -6.57984,3.42649 -15.34546,3.78867 -21.70898,0.89844 -4.29247,-1.94957 -10.26966,-7.31131 -14.50782,-13.01368 l -2.53125,-3.40625 -6.44336,3.58204 c -12.10357,6.72888 -25.54449,8.55632 -33.74218,4.58789 -5.45782,-2.64208 -10.20118,-9.55026 -10.20118,-14.85547 0,-4.6977 4.25807,-11.38921 10.87305,-17.08594 2.81908,-2.42775 5.12473,-4.94462 5.125,-5.5918 2.7e-4,-0.64718 -2.58555,-2.3564 -5.74805,-3.79883 -13.07016,-5.96136 -18.92789,-12.81674 -17.99804,-21.0664 0.94082,-8.34694 8.02948,-14.70139 18.59375,-16.66602 l 5.9414,-1.10547 -0.1289,-10.09179 c -0.11015,-8.573 0.19355,-10.69622 2.01758,-14.09375 4.61224,-8.59098 11.02908,-12.94362 21.80273,-14.78907 1.41598,-0.24254 2.81135,-0.37939 4.17773,-0.41601 z"
       style="fill:url(#linearGradient4706)" />
    <path
       id="path4766"
       d="m 532.05273,433.57617 c -30.96916,-0.57927 -50.99595,3.85084 -78.08203,17.27149 -6.92346,3.43044 -14.79748,7.75659 -17.49609,9.61328 -9.70101,6.67446 -21.23874,20.10692 -35.05078,40.80468 -5.1223,7.67592 -11.69392,22.35817 -13.95899,31.1875 -3.63518,14.17006 0.61949,54.26386 7.32032,68.98438 9.07131,19.92804 26.09188,39.87818 39.96484,46.84375 2.30546,1.15756 5.90546,3.27858 8,4.71289 6.93038,4.74583 31.36259,16.47741 41.66797,20.00781 9.61966,3.29549 10.70565,3.45455 21.14062,3.09961 16.3161,-0.55497 24.40284,-4.74791 24.49414,-12.69726 0.0398,-3.46731 0.11121,-3.52199 7.47852,-5.85352 7.0329,-2.2257 26.98048,-12.94501 32.62891,-17.5332 1.43136,-1.16268 5.83708,-4.73534 9.79101,-7.93946 18.31881,-14.84482 34.10193,-39.58302 42.2168,-66.17382 3.30605,-10.83321 3.35551,-11.2881 3.35351,-30 l -0.002,-19 -3.74805,-9.84961 c -4.6574,-12.23604 -5.10751,-13.10852 -9.60546,-18.65039 -2.00878,-2.475 -5.44301,-7.15138 -7.63086,-10.39258 -11.0694,-16.39876 -28.39287,-31.47719 -45.50586,-39.60742 l -9.47071,-4.5 -17.50586,-0.32813 z m -3.57031,17.03516 c 2.5229,-0.0617 4.78025,-0.0248 6.64649,0.11914 6.65205,0.51297 9.22602,1.30301 17.1289,5.26367 5.11501,2.56348 12.00078,6.82486 15.30078,9.46875 12.77248,10.23304 31.572,34.53194 36.66797,47.39453 2.88395,7.2793 3.22747,9.30083 3.60547,21.20508 0.40389,12.71961 0.30002,13.55999 -3.11133,25.19922 -9.18199,31.32822 -29.12723,56.83751 -56.75,72.58008 -11.32279,6.45301 -15.30741,8.08417 -31.91211,13.07031 -6.875,2.06445 -13.48954,4.6503 -14.69726,5.74609 -1.20771,1.09579 -2.33271,3.27264 -2.5,4.83594 l -0.30274,2.8418 -8,-2.82032 c -9.90215,-3.48989 -29.30187,-13.1738 -43.66211,-21.79687 -15.40876,-9.25267 -26.26903,-21.4841 -34.53906,-38.89844 -5.00421,-10.53744 -8.59285,-31.54688 -8.01367,-46.91601 0.34449,-9.1413 0.87812,-12.09832 3.15234,-17.5 4.83327,-11.4799 8.59426,-18.21322 14.89844,-26.66797 3.38946,-4.54572 7.51406,-10.1254 9.16406,-12.39844 6.95636,-9.58309 15.3945,-16.11542 30.51758,-23.62305 13.93874,-6.91968 28.39999,-12.0576 39.98242,-14.20507 8.90408,-1.6509 18.85513,-2.71339 26.42383,-2.89844 z"
       style="fill:url(#linearGradient4712)" />
    <path
       id="path4764"
       d="m 410.33008,259.4043 -0.63672,4.63867 c -0.34975,2.55177 -0.63477,5.50665 -0.63477,6.56641 0,1.49354 0.58998,1.85659 2.625,1.61132 2.00129,-0.2412 2.89277,-1.14845 3.75,-3.8164 0.71289,-2.21872 2.22324,-4.07043 4.125,-5.05664 5.11756,-2.65384 4.17939,-3.94336 -2.86523,-3.94336 l -6.36328,0 z"
       style="fill:url(#linearGradient4712)" />
    <path
       id="path4762"
       d="m 403.55859,227.9043 -7.26367,0.0644 c -5.68636,0.0505 -7.85715,0.50755 -10,2.10742 -3.86867,2.88837 -3.41305,4.42025 1.76367,5.93555 2.475,0.72447 6.525,2.64945 9,4.27734 5.67552,3.73298 8.56785,4.06916 7.44336,0.86524 -0.43433,-1.2375 -0.82488,-4.725 -0.86718,-7.75 l -0.0762,-5.5 z"
       style="fill:url(#linearGradient4712)" />
  </g>
</svg>
