<?xml version="1.0" encoding="UTF-8" standalone="no"?>
<svg
   xmlns:osb="http://www.openswatchbook.org/uri/2009/osb"
   xmlns:dc="http://purl.org/dc/elements/1.1/"
   xmlns:cc="http://creativecommons.org/ns#"
   xmlns:rdf="http://www.w3.org/1999/02/22-rdf-syntax-ns#"
   xmlns:svg="http://www.w3.org/2000/svg"
   xmlns="http://www.w3.org/2000/svg"
   xmlns:xlink="http://www.w3.org/1999/xlink"
   version="1.1"
   id="svg2985"
   height="822.69226"
   width="612.37274">
  <defs
     id="defs5498">
    <linearGradient
       osb:paint="solid"
       id="linearGradient4756">
      <stop
         id="stop4758"
         offset="0"
         style="stop-color:#ffffff;stop-opacity:1;" />
    </linearGradient>
    <linearGradient
       osb:paint="solid"
       id="linearGradient4750">
      <stop
         id="stop4752"
         offset="0"
         style="stop-color:#000000;stop-opacity:1;" />
    </linearGradient>
    <linearGradient
       osb:paint="solid"
       id="linearGradient5694">
      <stop
         id="stop5696"
         offset="0"
         style="stop-color:#002b11;stop-opacity:1;" />
    </linearGradient>
    <linearGradient
       osb:paint="solid"
       id="linearGradient4712">
      <stop
         id="stop4714"
         offset="0"
         style="stop-color:#162d50;stop-opacity:1;" />
    </linearGradient>
    <linearGradient
       osb:paint="solid"
       id="linearGradient4706">
      <stop
         id="stop4708"
         offset="0"
         style="stop-color:#d40000;stop-opacity:1;" />
    </linearGradient>
    <linearGradient
       gradientUnits="userSpaceOnUse"
       y2="508.69208"
       x2="761.44257"
       y1="508.69208"
       x1="262.13925"
       id="linearGradient4716"
       xlink:href="#linearGradient4712" />
    <linearGradient
       gradientUnits="userSpaceOnUse"
       y2="500.0004"
       x2="771.30902"
       y1="500.0004"
       x1="228.69211"
       id="linearGradient4754"
       xlink:href="#linearGradient4750" />
    <linearGradient
       gradientUnits="userSpaceOnUse"
       y2="500.10483"
       x2="752.40271"
       y1="500.10483"
       x1="248.61133"
       id="linearGradient4760"
       xlink:href="#linearGradient4756" />
    <linearGradient
       y2="508.69208"
       x2="761.44257"
       y1="508.69208"
       x1="262.13925"
       gradientUnits="userSpaceOnUse"
       id="linearGradient501"
       xlink:href="#linearGradient4712" />
    <linearGradient
       y2="508.69208"
       x2="761.44257"
       y1="508.69208"
       x1="262.13925"
       gradientUnits="userSpaceOnUse"
       id="linearGradient503"
       xlink:href="#linearGradient4712" />
    <linearGradient
       y2="508.69208"
       x2="761.44257"
       y1="508.69208"
       x1="262.13925"
       gradientUnits="userSpaceOnUse"
       id="linearGradient505"
       xlink:href="#linearGradient4712" />
  </defs>
  <metadata
     id="metadata5594">
    <rdf:RDF>
      <cc:Work
         rdf:about="">
        <dc:format>image/svg+xml</dc:format>
        <dc:type
           rdf:resource="http://purl.org/dc/dcmitype/StillImage" />
        <dc:title />
      </cc:Work>
    </rdf:RDF>
  </metadata>
  <g
     transform="translate(-193.81438,-88.653849)"
     style="display:inline"
     id="layer5">
    <g
       id="g4891">
      <path
         style="color:#000000;clip-rule:nonzero;display:inline;overflow:visible;visibility:visible;opacity:1;isolation:auto;mix-blend-mode:normal;color-interpolation:sRGB;color-interpolation-filters:linearRGB;solid-color:#000000;solid-opacity:1;fill:#ffffff;fill-opacity:1;fill-rule:nonzero;stroke:none;stroke-width:1;stroke-linecap:butt;stroke-linejoin:miter;stroke-miterlimit:4;stroke-dasharray:none;stroke-dashoffset:0;stroke-opacity:1;color-rendering:auto;image-rendering:auto;shape-rendering:auto;text-rendering:auto;enable-background:accumulate"
         d="m 625.31641,109.67578 c -23.04045,0.10272 -46.14941,0.31251 -64.51368,0.60742 -18.36426,0.29491 -31.98384,0.67493 -36.04882,1.11914 -6.05,0.66113 -17.3,1.863 -25,2.67188 -7.03382,0.73889 -13.85957,1.55309 -21.01368,2.51367 -7.1541,0.96058 -14.63657,2.06755 -22.98632,3.39453 -4.95,0.78667 -12.15,1.72136 -16,2.07617 -4.47521,0.41242 -8.98406,0.95977 -13.49024,1.63282 -4.50618,0.67304 -9.00935,1.47214 -13.47265,2.39062 -4.4633,0.91849 -8.88782,1.95477 -13.23438,3.10352 -4.34656,1.14875 -8.61551,2.4096 -12.77148,3.77343 -5.20394,1.70773 -10.65635,3.30212 -15.76954,4.62891 -5.11318,1.32679 -9.88712,2.38597 -13.73046,3.02539 -3.09926,0.51563 -6.32798,1.15546 -9.62891,1.89649 -3.30093,0.74102 -6.67315,1.58389 -10.05859,2.50781 -6.77089,1.84783 -13.59405,4.01744 -20,6.3418 -6.40596,2.32435 -12.39628,4.80283 -17.5,7.26367 -2.55187,1.23041 -4.88108,2.45742 -6.93164,3.6582 -2.05057,1.20078 -3.82181,2.37527 -5.25391,3.50391 -0.99856,0.78696 -2.23794,1.97215 -3.65039,3.46093 -1.41245,1.48878 -2.9985,3.28056 -4.6875,5.28516 -3.378,4.0092 -7.17193,8.86381 -10.83203,13.82031 -3.6601,4.9565 -7.18589,10.01582 -10.0293,14.43164 -1.4217,2.20792 -2.67209,4.25508 -3.68359,6.04883 -1.01151,1.79375 -1.78409,3.33376 -2.24805,4.52735 -0.97451,2.50702 -1.93463,5.71806 -2.87305,9.58203 -0.93842,3.86396 -1.85528,8.38155 -2.74023,13.50195 -0.88496,5.1204 -1.73862,10.84283 -2.55274,17.11914 -0.81411,6.27631 -1.58854,13.1058 -2.31445,20.4375 -0.54455,5.5 -1.45156,12.42415 -2.01758,15.38672 -0.56602,2.96257 -1.02929,7.19871 -1.02929,9.41406 0,2.21536 -1.3176,11.7162 -2.92774,21.11328 -1.95593,11.41526 -3.22979,19.36855 -4.13672,26.25196 -0.90692,6.8834 -1.44693,12.69692 -1.93554,19.83398 -0.51681,7.5489 -1.11844,13.80842 -2.05079,20.56445 -0.93234,6.75604 -2.19542,14.00859 -4.03515,23.54102 -0.8017,4.15392 -1.5305,8.38624 -2.05859,11.85937 -0.5281,3.47314 -0.85547,6.1871 -0.85547,7.30274 0,2.23128 -0.71808,7.58365 -1.59571,11.89453 -0.78772,3.86927 -1.30039,7.12235 -1.91211,13.94922 -0.61172,6.82686 -1.32249,17.22751 -2.50781,35.38867 -0.34693,5.31557 -0.56591,13.35779 -0.67187,22.6543 -0.10597,9.2965 -0.0992,19.84761 0.006,30.18359 0.10507,10.33598 0.30756,20.45664 0.59375,28.89063 0.28618,8.43398 0.65637,15.18096 1.09375,18.77148 0.60297,4.95 1.50645,16.425 2.00781,25.5 1.2272,22.21347 2.24653,39.48706 3.06445,51.94531 0.81792,12.45825 1.43444,20.10116 1.85938,23.05469 0.51434,3.575 1.4575,10.325 2.0957,15 0.3191,2.3375 0.83411,5.19336 1.4082,7.91211 0.5741,2.71875 1.20727,5.30039 1.75977,7.08789 1.10498,3.575 3.03089,10.1 4.2793,14.5 0.99218,3.49704 2.33599,7.59506 4.94531,14.83203 2.60932,7.23698 6.48415,17.61291 12.54101,33.66797 1.55618,4.125 4.49563,13.125 6.53321,20 0.94611,3.1923 1.95985,6.2722 3.01953,9.19531 1.05968,2.92312 2.16449,5.69038 3.29687,8.25196 1.13238,2.56157 2.29085,4.91772 3.45508,7.02539 1.16423,2.10767 2.33502,3.96593 3.49023,5.52734 1.48022,2.00068 3.19138,4.12538 5,6.23438 1.80863,2.10899 3.71482,4.20135 5.58204,6.13867 1.86722,1.93732 3.69557,3.71944 5.35156,5.20507 1.65599,1.48564 3.13952,2.67574 4.31445,3.42969 1.7048,1.09397 3.98501,2.29576 6.59766,3.51172 2.61265,1.21596 5.55693,2.44617 8.59179,3.59961 3.03487,1.15344 6.15943,2.2303 9.13086,3.13672 2.97143,0.90641 5.79053,1.64231 8.2129,2.11719 9.4014,1.84303 16.75619,3.2445 23.91406,4.32617 3.57893,0.54083 7.10865,1.00274 10.82031,1.39844 3.71166,0.3957 7.60532,0.72515 11.91211,1.00586 8.61358,0.56142 18.87988,0.92278 32.64844,1.20507 13.76855,0.2823 31.03932,0.48618 53.66211,0.73047 20.3849,0.22013 39.67009,0.53559 54.34179,0.86719 14.6717,0.3316 24.72991,0.67934 26.65821,0.96289 3.85,0.56614 9.67541,1.05188 12.94531,1.08008 2.52541,0.0218 4.1167,0.13553 5.375,0.5293 0.62915,0.19688 1.17548,0.4639 1.71289,0.82421 0.53741,0.36032 1.06642,0.81406 1.66211,1.38477 0.7713,0.73895 1.47212,1.60903 1.98047,2.41406 0.50835,0.80504 0.82422,1.54503 0.82422,2.02735 0,0.48232 0.12883,0.99969 0.33593,1.44531 0.2071,0.44562 0.49247,0.8195 0.80664,1.01367 0.51709,0.31958 1.50342,0.60741 2.88086,0.86133 1.37745,0.25391 3.14617,0.4742 5.22461,0.66016 4.15689,0.37191 9.55584,0.6051 15.56055,0.6914 6.00471,0.0863 12.61571,0.0263 19.19336,-0.1914 6.57765,-0.21769 13.12236,-0.59278 18.99805,-1.13282 9.075,-0.83409 21.675,-2.38455 28,-3.44336 6.325,-1.05881 22.96437,-3.311 36.97656,-5.00586 8.32647,-1.00714 15.63024,-1.97886 22.00195,-2.93359 6.37171,-0.95473 11.81155,-1.89219 16.41211,-2.83203 4.60057,-0.93984 8.36195,-1.8813 11.375,-2.84375 3.01305,-0.96245 5.27757,-1.94618 6.88672,-2.96875 0.59226,-0.37637 1.46802,-1.31276 2.40234,-2.51953 0.93433,-1.20677 1.92723,-2.68391 2.75196,-4.13867 0.7385,-1.30267 1.5321,-3.00869 2.36133,-5.03907 0.82922,-2.03037 1.69421,-4.38458 2.57226,-6.98242 1.75611,-5.19567 3.56746,-11.36713 5.26758,-17.87109 1.70012,-6.50396 3.28861,-13.34091 4.59766,-19.8711 1.30904,-6.53018 2.339,-12.75299 2.92187,-18.02734 2.45573,-22.22165 4.40865,-42.66103 5.49414,-57.5 0.56327,-7.7 1.49063,-19.4 2.06055,-26 0.56991,-6.6 1.45674,-27.3 1.9707,-46 0.51396,-18.7 1.60532,-45.475 2.42578,-59.5 0.82046,-14.025 1.92741,-35.4 2.46094,-47.5 0.53352,-12.1 1.49232,-29.66228 2.12891,-39.02734 0.35372,-5.20372 0.57097,-14.34528 0.67187,-25.39454 0.1009,-11.04925 0.0861,-24.00633 -0.0293,-36.83789 -0.11536,-12.83155 -0.32994,-25.53924 -0.625,-36.08984 -0.29505,-10.5506 -0.67118,-18.94399 -1.10937,-23.15039 -0.43691,-4.19409 -0.69683,-12.02352 -0.79688,-25.48047 -0.10004,-13.45695 -0.0402,-32.54141 0.16602,-59.24805 0.26942,-34.89016 0.3865,-53.35902 0.19727,-64.74609 -0.0946,-5.69353 -0.26582,-9.61769 -0.53321,-12.9375 -0.26739,-3.31981 -0.63048,-6.03563 -1.10937,-9.31641 -0.63795,-4.37034 -1.36302,-8.62233 -2.19141,-12.82812 -0.82839,-4.20579 -1.75975,-8.36505 -2.81445,-12.54883 -1.0547,-4.18378 -2.23195,-8.39296 -3.54883,-12.69726 -1.31688,-4.30431 -2.77374,-8.70411 -4.38867,-13.27149 -1.4027,-3.96713 -3.01138,-8.97909 -4.47266,-13.85937 -1.46127,-4.88029 -2.77513,-9.62891 -3.58984,-13.06641 -1.38718,-5.85292 -2.50442,-10.45032 -3.4668,-14.10742 -0.96238,-3.6571 -1.76924,-6.37437 -2.53906,-8.4668 -0.76982,-2.09242 -1.50301,-3.55986 -2.3125,-4.71875 -0.80949,-1.15888 -1.69595,-2.00875 -2.77735,-2.86523 -1.25231,-0.99185 -2.67187,-1.88267 -4.30273,-2.6836 -1.63086,-0.80093 -3.4727,-1.51293 -5.56641,-2.14843 -2.0937,-0.63551 -4.44118,-1.19387 -7.08203,-1.68946 -2.64084,-0.49558 -5.57538,-0.92744 -8.84765,-1.30859 -3.52322,-0.41037 -16.73662,-0.67066 -34.83008,-0.80274 -18.09346,-0.13207 -41.06697,-0.13591 -64.10742,-0.0332 z"
         id="path4709" />
      <path
         style="color:#000000;clip-rule:nonzero;display:inline;overflow:visible;visibility:visible;opacity:1;isolation:auto;mix-blend-mode:normal;color-interpolation:sRGB;color-interpolation-filters:linearRGB;solid-color:#000000;solid-opacity:1;fill:#000000;fill-opacity:1;fill-rule:nonzero;stroke:none;stroke-width:1;stroke-linecap:butt;stroke-linejoin:miter;stroke-miterlimit:4;stroke-dasharray:none;stroke-dashoffset:0;stroke-opacity:1;color-rendering:auto;image-rendering:auto;shape-rendering:auto;text-rendering:auto;enable-background:accumulate"
         d="m 702.67578,88.767578 c -13.25598,-0.173137 -33.81893,-0.135597 -68.42187,0.02539 -22.1375,0.102995 -44.51289,0.324884 -62.72852,0.599609 -18.21562,0.274725 -32.27148,0.602286 -37.77148,0.916016 -10.01011,0.571 -22.54784,1.663903 -35.75196,3.080078 -13.20411,1.416175 -27.07461,3.155623 -39.74804,5.017578 -7.425,1.09087 -19.35,2.705081 -26.5,3.585941 -7.15,0.88086 -13.69507,1.80646 -14.54297,2.05664 -0.8479,0.25018 -4.7469,0.85579 -8.66406,1.34765 -1.95859,0.24593 -5.85788,1.15141 -10.5625,2.41211 -4.70463,1.26071 -10.21457,2.87665 -15.39454,4.54297 -5.95864,1.91682 -11.86151,3.62893 -17.30273,5.03321 -5.44122,1.40428 -10.42079,2.50073 -14.5332,3.18359 -2.94679,0.48931 -6.13257,1.14253 -9.47461,1.92969 -3.34204,0.78715 -6.84065,1.70753 -10.41602,2.73242 -7.15073,2.04978 -14.60628,4.51617 -21.71875,7.15625 -7.11246,2.64007 -13.88136,5.45362 -19.66015,8.20312 -2.8894,1.37476 -5.53066,2.73493 -7.84376,4.04688 -2.31309,1.31194 -4.29818,2.57659 -5.87304,3.76562 -1.7663,1.33357 -4.45318,4.03601 -7.61328,7.54688 -3.16011,3.51087 -6.79426,7.83069 -10.45118,12.39844 -3.65691,4.56774 -7.33701,9.38251 -10.59374,13.88672 -3.25674,4.5042 -6.08928,8.69733 -8.04883,12.01757 -1.10342,1.86962 -2.13785,3.80732 -3.11133,5.84375 -0.97348,2.03644 -1.88506,4.17124 -2.74219,6.4336 -0.85712,2.26236 -1.6597,4.65378 -2.41406,7.20117 -0.75436,2.54739 -1.46177,5.25105 -2.12695,8.14258 -1.33037,5.78306 -2.4956,12.31385 -3.55079,19.82812 -1.05518,7.51427 -1.99996,16.01212 -2.88867,25.73047 -0.57497,6.28749 -1.46751,13.26249 -1.98437,15.5 -0.51685,2.2375 -0.95145,6.07879 -0.96485,8.53516 -0.0135,2.45637 -1.34096,12.13137 -2.95117,21.5 -1.97183,11.47267 -3.49087,21.20492 -4.51562,28.89648 -1.02476,7.69157 -1.55524,13.34247 -1.55274,16.65234 0.001,1.81322 -0.15678,4.3389 -0.45117,7.4004 -0.29438,3.0615 -0.72571,6.65899 -1.26758,10.61718 -1.08373,7.91639 -2.61369,17.27439 -4.39844,26.66797 -1.58838,8.36012 -2.88671,16.74303 -2.88671,18.62891 0,1.88587 -0.92118,8.54482 -2.04688,14.79883 -0.78068,4.33725 -1.5075,10.05634 -2.1582,16.78125 -0.65071,6.7249 -1.22521,14.45478 -1.70313,22.81836 -0.47792,8.36357 -0.85876,17.36001 -1.12109,26.61328 -0.26233,9.25327 -0.40623,18.76422 -0.41016,28.1582 -0.006,14.6083 0.39431,31.90048 0.96875,46.09375 0.28722,7.09664 0.61831,13.41828 0.96289,18.24219 0.34459,4.82391 0.70345,8.15066 1.04688,9.25586 0.27197,0.87521 1.18227,14.60021 2.02344,30.5 1.22723,23.19735 2.0315,37.57503 2.67773,47.01562 0.64623,9.44059 1.13442,13.9441 1.73047,17.39258 0.61792,3.575 1.72139,10.55 2.45312,15.5 0.49778,3.36735 1.14672,6.745 2.125,10.68164 0.97829,3.93664 2.28582,8.43278 4.09961,14.03516 1.8138,5.60237 4.13438,12.31123 7.13868,20.67578 3.00429,8.36454 6.6924,18.38426 11.24218,30.60742 2.04725,5.5 4.96047,14.275 6.47461,19.5 1.08723,3.75181 2.13491,7.09112 3.19727,10.14453 1.06236,3.05341 2.13851,5.8204 3.28711,8.42774 1.14859,2.60733 2.36892,5.05516 3.71484,7.46875 1.34592,2.41358 2.81831,4.79347 4.47266,7.26562 1.66214,2.48381 3.74385,5.25329 6.02734,8.07227 2.2835,2.81897 4.7696,5.68678 7.23633,8.36523 2.46672,2.67845 4.91512,5.16822 7.12695,7.23047 2.21183,2.06225 4.18627,3.69761 5.70508,4.66797 3.17302,2.02722 6.65276,3.95113 10.35547,5.74219 3.70271,1.79105 7.62774,3.44982 11.69336,4.94335 4.06562,1.49354 8.27146,2.82237 12.5332,3.95704 4.26174,1.13467 8.58002,2.07461 12.8711,2.78906 7.02615,1.16983 13.10092,2.32615 13.5,2.57031 0.39909,0.24415 6.24909,1.15435 13,2.02344 2.4135,0.31071 5.37534,0.57473 9.36914,0.80469 3.99379,0.22996 9.01909,0.42644 15.5625,0.60156 13.0868,0.35023 32.2426,0.61609 61.34375,0.90234 26.05645,0.25631 44.88875,0.52629 57.60351,0.83789 6.35738,0.1558 11.18645,0.32217 14.62305,0.50196 3.4366,0.17979 5.48118,0.37342 6.27344,0.58398 2.475,0.65778 8.775,2.49729 14,4.08789 6.73731,2.05098 13.13791,3.83505 18.65429,5.21484 5.51638,1.3798 10.14854,2.3553 13.34571,2.78907 2.15704,0.29265 6.69199,0.51036 12.47265,0.65234 5.78066,0.14199 12.80665,0.20777 19.94336,0.20117 7.13671,-0.007 14.38418,-0.0871 20.60938,-0.24023 6.22519,-0.1531 11.42849,-0.37828 14.47461,-0.67578 6.05,-0.59089 17.975,-2.16224 26.5,-3.49024 8.525,-1.32801 24.95,-3.56116 36.5,-4.96289 14.01175,-1.7005 25.20572,-3.23164 34.26757,-4.84961 4.53093,-0.80898 8.52887,-1.63884 12.08008,-2.52343 3.55121,-0.8846 6.6551,-1.82329 9.39844,-2.84766 2.74334,-1.02437 5.12512,-2.13497 7.23242,-3.36328 2.10731,-1.22831 3.93892,-2.5739 5.58203,-4.07031 1.64311,-1.49642 3.09846,-3.14398 4.44922,-4.97266 1.35076,-1.82868 2.59788,-3.83935 3.82813,-6.06445 1.02814,-1.85958 2.04658,-4.01138 3.08398,-6.54297 1.0374,-2.5316 2.09365,-5.44258 3.19727,-8.82031 2.20724,-6.75548 4.60401,-15.37777 7.41797,-26.5625 1.62966,-6.47749 2.80474,-11.91973 3.85351,-18.31641 1.04877,-6.39668 1.97122,-13.7478 3.0918,-24.04297 1.43975,-13.22759 2.61567,-24.58933 3.5957,-35.11328 0.98003,-10.52395 1.76483,-20.20977 2.42188,-30.08789 0.65705,-9.87812 1.18544,-19.94817 1.65625,-31.23828 0.4708,-11.29012 0.88338,-23.80063 1.30468,-38.56055 0.50237,-17.6 1.39795,-37.175 1.99024,-43.5 0.5923,-6.325 1.54554,-22.75 2.11914,-36.5 0.5736,-13.75 1.43402,-31.975 1.91211,-40.5 0.34026,-6.06746 0.58755,-16.46135 0.74414,-28.83984 0.15658,-12.3785 0.22343,-26.74148 0.20312,-40.7461 -0.0203,-14.00462 -0.12793,-27.65182 -0.31836,-38.59765 -0.19042,-10.94584 -0.46461,-19.19043 -0.81835,-22.39258 -0.29485,-2.6689 -0.53408,-8.58017 -0.71485,-16.96485 -0.18076,-8.38467 -0.30389,-19.24331 -0.36328,-31.80468 -0.11878,-25.12275 0.0133,-57.05924 0.42383,-89.6543 0.0867,-6.88515 0.1277,-12.39796 0.082,-17.11328 -0.0457,-4.71532 -0.17731,-8.63298 -0.43555,-12.32617 -0.25823,-3.6932 -0.64434,-7.16169 -1.19531,-10.98047 -0.55097,-3.81878 -1.26752,-7.98801 -2.19141,-13.08008 -1.16984,-6.44771 -2.65314,-12.97151 -4.46289,-19.62109 -1.80974,-6.64959 -3.94593,-13.42495 -6.42383,-20.37891 -1.27386,-3.575 -2.98711,-9.01953 -4.7207,-14.91016 -1.73359,-5.89062 -3.48752,-12.22734 -4.84375,-17.58984 -1.4819,-5.85943 -2.79174,-10.69361 -4.0332,-14.73828 -1.24146,-4.04467 -2.41395,-7.30032 -3.625,-9.99805 -1.21105,-2.69773 -2.46089,-4.83765 -3.85156,-6.65625 -1.39068,-1.81859 -2.92279,-3.31537 -4.70313,-4.72265 -2.39519,-1.8933 -4.59423,-3.448197 -6.86914,-4.757818 -2.27491,-1.30962 -4.62565,-2.373976 -7.32422,-3.283203 -2.69857,-0.909227 -5.74594,-1.663356 -9.41211,-2.355469 -3.66617,-0.692113 -7.95119,-1.322191 -13.1289,-1.980469 -2.68657,-0.341559 -5.51614,-0.60752 -9.33203,-0.810546 -3.8159,-0.203027 -8.61811,-0.343119 -15.2461,-0.429688 z m -77.35937,20.908202 c 23.04045,-0.10271 46.01396,-0.0989 64.10742,0.0332 18.09346,0.13208 31.30686,0.39237 34.83008,0.80274 3.27227,0.38115 6.20681,0.81301 8.84765,1.30859 2.64085,0.49559 4.98833,1.05395 7.08203,1.68946 2.09371,0.6355 3.93555,1.3475 5.56641,2.14843 1.63086,0.80093 3.05042,1.69175 4.30273,2.6836 1.0814,0.85648 1.96786,1.70635 2.77735,2.86523 0.80949,1.15889 1.54268,2.62633 2.3125,4.71875 0.76982,2.09243 1.57668,4.8097 2.53906,8.4668 0.96238,3.6571 2.07962,8.2545 3.4668,14.10742 0.81471,3.4375 2.12857,8.18612 3.58984,13.06641 1.46128,4.88028 3.06996,9.89224 4.47266,13.85937 1.61493,4.56738 3.07179,8.96718 4.38867,13.27149 1.31688,4.3043 2.49413,8.51348 3.54883,12.69726 1.0547,4.18378 1.98606,8.34304 2.81445,12.54883 0.82839,4.20579 1.55346,8.45778 2.19141,12.82812 0.47889,3.28078 0.84198,5.9966 1.10937,9.31641 0.26739,3.31981 0.43859,7.24397 0.53321,12.9375 0.18923,11.38707 0.0721,29.85593 -0.19727,64.74609 -0.20623,26.70664 -0.26606,45.7911 -0.16602,59.24805 0.10005,13.45695 0.35997,21.28638 0.79688,25.48047 0.43819,4.2064 0.81432,12.59979 1.10937,23.15039 0.29506,10.5506 0.50964,23.25829 0.625,36.08984 0.11536,12.83156 0.1302,25.78864 0.0293,36.83789 -0.1009,11.04926 -0.31815,20.19082 -0.67187,25.39454 -0.63659,9.36506 -1.59539,26.92734 -2.12891,39.02734 -0.53353,12.1 -1.64048,33.475 -2.46094,47.5 -0.82046,14.025 -1.91182,40.8 -2.42578,59.5 -0.51396,18.7 -1.40079,39.4 -1.9707,46 -0.56992,6.6 -1.49728,18.3 -2.06055,26 -1.08549,14.83897 -3.03841,35.27835 -5.49414,57.5 -0.58287,5.27435 -1.61283,11.49716 -2.92187,18.02734 -1.30905,6.53019 -2.89754,13.36714 -4.59766,19.8711 -1.70012,6.50396 -3.51147,12.67542 -5.26758,17.87109 -0.87805,2.59784 -1.74304,4.95205 -2.57226,6.98242 -0.82923,2.03038 -1.62283,3.7364 -2.36133,5.03907 -0.82473,1.45476 -1.81763,2.9319 -2.75196,4.13867 -0.93432,1.20677 -1.81008,2.14316 -2.40234,2.51953 -1.60915,1.02257 -3.87367,2.0063 -6.88672,2.96875 -3.01305,0.96245 -6.77443,1.90391 -11.375,2.84375 -4.60056,0.93984 -10.0404,1.8773 -16.41211,2.83203 -6.37171,0.95473 -13.67548,1.92645 -22.00195,2.93359 -14.01219,1.69486 -30.65156,3.94705 -36.97656,5.00586 -6.325,1.05881 -18.925,2.60927 -28,3.44336 -5.87569,0.54004 -12.4204,0.91513 -18.99805,1.13282 -6.57765,0.21768 -13.18865,0.27771 -19.19336,0.1914 -6.00471,-0.0863 -11.40366,-0.31949 -15.56055,-0.6914 -2.07844,-0.18596 -3.84716,-0.40625 -5.22461,-0.66016 -1.37744,-0.25392 -2.36377,-0.54175 -2.88086,-0.86133 -0.31417,-0.19417 -0.59954,-0.56805 -0.80664,-1.01367 -0.2071,-0.44562 -0.33593,-0.96299 -0.33593,-1.44531 0,-0.48232 -0.31587,-1.22231 -0.82422,-2.02735 -0.50835,-0.80503 -1.20917,-1.67511 -1.98047,-2.41406 -0.59569,-0.57071 -1.1247,-1.02445 -1.66211,-1.38477 -0.53741,-0.36031 -1.08374,-0.62733 -1.71289,-0.82421 -1.2583,-0.39377 -2.84959,-0.5075 -5.375,-0.5293 -3.2699,-0.0282 -9.09531,-0.51394 -12.94531,-1.08008 -1.9283,-0.28355 -11.98651,-0.63129 -26.65821,-0.96289 -14.6717,-0.3316 -33.95689,-0.64706 -54.34179,-0.86719 -22.62279,-0.24429 -39.89356,-0.44817 -53.66211,-0.73047 -13.76856,-0.28229 -24.03486,-0.64365 -32.64844,-1.20507 -4.30679,-0.28071 -8.20045,-0.61016 -11.91211,-1.00586 -3.71166,-0.3957 -7.24138,-0.85761 -10.82031,-1.39844 -7.15787,-1.08167 -14.51266,-2.48314 -23.91406,-4.32617 -2.42237,-0.47488 -5.24147,-1.21078 -8.2129,-2.11719 -2.97143,-0.90642 -6.09599,-1.98328 -9.13086,-3.13672 -3.03486,-1.15344 -5.97914,-2.38365 -8.59179,-3.59961 -2.61265,-1.21596 -4.89286,-2.41775 -6.59766,-3.51172 -1.17493,-0.75395 -2.65846,-1.94405 -4.31445,-3.42969 -1.65599,-1.48563 -3.48434,-3.26775 -5.35156,-5.20507 -1.86722,-1.93732 -3.77341,-4.02968 -5.58204,-6.13867 -1.80862,-2.109 -3.51978,-4.2337 -5,-6.23438 -1.15521,-1.56141 -2.326,-3.41967 -3.49023,-5.52734 -1.16423,-2.10767 -2.3227,-4.46382 -3.45508,-7.02539 -1.13238,-2.56158 -2.23719,-5.32884 -3.29687,-8.25196 -1.05968,-2.92311 -2.07342,-6.00301 -3.01953,-9.19531 -2.03758,-6.875 -4.97703,-15.875 -6.53321,-20 -6.05686,-16.05506 -9.93169,-26.43099 -12.54101,-33.66797 -2.60932,-7.23697 -3.95313,-11.33499 -4.94531,-14.83203 -1.24841,-4.4 -3.17432,-10.925 -4.2793,-14.5 -0.5525,-1.7875 -1.18567,-4.36914 -1.75977,-7.08789 -0.57409,-2.71875 -1.0891,-5.57461 -1.4082,-7.91211 -0.6382,-4.675 -1.58136,-11.425 -2.0957,-15 -0.42494,-2.95353 -1.04146,-10.59644 -1.85938,-23.05469 -0.81792,-12.45825 -1.83725,-29.73184 -3.06445,-51.94531 -0.50136,-9.075 -1.40484,-20.55 -2.00781,-25.5 -0.43738,-3.59052 -0.80757,-10.3375 -1.09375,-18.77148 -0.28619,-8.43399 -0.48868,-18.55465 -0.59375,-28.89063 -0.10508,-10.33598 -0.11183,-20.88709 -0.006,-30.18359 0.10596,-9.29651 0.32494,-17.33873 0.67187,-22.6543 1.18532,-18.16116 1.89609,-28.56181 2.50781,-35.38867 0.61172,-6.82687 1.12439,-10.07995 1.91211,-13.94922 0.87763,-4.31088 1.59571,-9.66325 1.59571,-11.89453 0,-1.11564 0.32737,-3.8296 0.85547,-7.30274 0.52809,-3.47313 1.25689,-7.70545 2.05859,-11.85937 1.83973,-9.53243 3.10281,-16.78498 4.03515,-23.54102 0.93235,-6.75603 1.53398,-13.01555 2.05079,-20.56445 0.48861,-7.13706 1.02862,-12.95058 1.93554,-19.83398 0.90693,-6.88341 2.18079,-14.8367 4.13672,-26.25196 1.61014,-9.39708 2.92774,-18.89792 2.92774,-21.11328 0,-2.21535 0.46327,-6.45149 1.02929,-9.41406 0.56602,-2.96257 1.47303,-9.88672 2.01758,-15.38672 0.72591,-7.3317 1.50034,-14.16119 2.31445,-20.4375 0.81412,-6.27631 1.66778,-11.99874 2.55274,-17.11914 0.88495,-5.1204 1.80181,-9.63799 2.74023,-13.50195 0.93842,-3.86397 1.89854,-7.07501 2.87305,-9.58203 0.46396,-1.19359 1.23654,-2.7336 2.24805,-4.52735 1.0115,-1.79375 2.26189,-3.84091 3.68359,-6.04883 2.84341,-4.41582 6.3692,-9.47514 10.0293,-14.43164 3.6601,-4.9565 7.45403,-9.81111 10.83203,-13.82031 1.689,-2.0046 3.27505,-3.79638 4.6875,-5.28516 1.41245,-1.48878 2.65183,-2.67397 3.65039,-3.46093 1.4321,-1.12864 3.20334,-2.30313 5.25391,-3.50391 2.05056,-1.20078 4.37977,-2.42779 6.93164,-3.6582 5.10372,-2.46084 11.09404,-4.93932 17.5,-7.26367 6.40595,-2.32436 13.22911,-4.49397 20,-6.3418 3.38544,-0.92392 6.75766,-1.76679 10.05859,-2.50781 3.30093,-0.74103 6.52965,-1.38086 9.62891,-1.89649 3.84334,-0.63942 8.61728,-1.6986 13.73046,-3.02539 5.11319,-1.32679 10.5656,-2.92118 15.76954,-4.62891 4.15597,-1.36383 8.42492,-2.62468 12.77148,-3.77343 4.34656,-1.14875 8.77108,-2.18503 13.23438,-3.10352 4.4633,-0.91848 8.96647,-1.71758 13.47265,-2.39062 4.50618,-0.67305 9.01503,-1.2204 13.49024,-1.63282 3.85,-0.35481 11.05,-1.2895 16,-2.07617 8.34975,-1.32698 15.83222,-2.43395 22.98632,-3.39453 7.15411,-0.96058 13.97986,-1.77478 21.01368,-2.51367 7.7,-0.80888 18.95,-2.01075 25,-2.67188 4.06498,-0.44421 17.68456,-0.82423 36.04882,-1.11914 18.36427,-0.29491 41.47323,-0.5047 64.51368,-0.60742 z"
         id="path4707" />
      <path
         style="fill:url(#linearGradient4712)"
         d="m 631.78125,736.16211 c -2.39146,-0.19629 -3.23903,2.89257 -3.41016,12.43945 -0.13282,7.41045 1.18425,12.32054 4.19532,15.64844 2.49441,2.75688 6.25982,2.91717 7.64648,0.32617 0.97745,-1.82637 4.48755,-24.13832 3.8457,-24.44531 -2.32683,-1.11292 -10.78102,-3.84594 -12.27734,-3.96875 z"
         id="path4932" />
      <path
         style="fill:url(#linearGradient4712)"
         d="m 669.93164,726.5 c -1.70261,0 -5.67773,5.86027 -5.67773,8.36914 0,0.89759 -0.9,2.53086 -2,3.63086 -2.46964,2.46966 -2.47847,3.14852 -0.0977,7.79102 2.35826,4.59851 5.56021,7.64694 10.10352,9.61718 4.20721,1.82448 4.54008,1.84501 9.03711,0.59571 5.02738,-1.39664 9.99202,-6.84595 10.64062,-11.68164 0.4314,-3.21628 0.0598,-4.47439 -2.07031,-7.00586 C 687.2648,734.72366 672.777,726.5 669.93164,726.5 Z"
         id="path4930" />
      <path
         style="fill:url(#linearGradient4712)"
         d="m 395.61523,714.26758 -7.43164,2.32422 c -4.0871,1.27839 -7.63086,2.47111 -7.87695,2.64843 -0.24609,0.17733 0.33901,1.65311 1.30078,3.28125 0.96177,1.62815 2.44455,5.32827 3.29492,8.22071 1.65149,5.61733 3.63324,8.46725 6.85157,9.85742 3.25542,1.40619 9.79497,0.0996 11.85937,-2.36914 3.43801,-4.11147 1.19107,-13.0976 -5.15039,-20.5957 l -2.84766,-3.36719 z"
         id="path4928" />
      <path
         style="fill:url(#linearGradient4712)"
         d="m 611.80859,710.69727 c -7.14216,-0.37695 -16.55468,1.47201 -16.55468,3.25195 0,1.63572 4.15616,3.38266 13.35351,5.61133 7.97744,1.93306 11.65356,2.30901 11.63086,1.18945 -0.008,-0.4125 -0.61795,-2.775 -1.35547,-5.25 l -1.34179,-4.5 -5.73243,-0.30273 z"
         id="path4926" />
      <path
         style="fill:url(#linearGradient4712)"
         d="m 642.66211,707.57812 c -4.10495,0.10263 -7.25455,1.07708 -7.8418,2.60743 -0.90417,2.35622 3.49672,10.59965 6.4336,12.05078 1.375,0.67939 4.39927,1.242 6.72265,1.25 3.67334,0.0128 4.42331,-0.37002 5.75,-2.93555 3.48075,-6.73103 0.75213,-11.93334 -6.70117,-12.77344 -1.52093,-0.17143 -2.99496,-0.23342 -4.36328,-0.19922 z"
         id="path4924" />
      <path
         style="fill:url(#linearGradient4712)"
         d="m 688.72852,699.61719 c -2.87534,0.20051 -6.4298,0.90671 -10.66602,2.12109 -7.31964,2.09828 -7.80859,2.41161 -7.80859,5 0,2.54465 0.30718,2.76172 3.91211,2.76172 4.93611,0 18.35258,-2.53749 21.04882,-3.98047 2.57032,-1.3756 2.61733,-3.63902 0.10352,-4.98437 -1.51917,-0.81303 -3.7145,-1.11848 -6.58984,-0.91797 z"
         id="path4922" />
      <path
         style="fill:url(#linearGradient4712)"
         d="m 417.58008,685.98047 c -1.90367,-0.0694 -3.34124,-0.0282 -3.85742,0.16992 -0.67709,0.25982 -1.48842,2.80839 -1.80078,5.66211 -0.31236,2.85371 -0.86731,6.425 -1.23438,7.9375 l -0.66797,2.75 6.56836,0 c 8.74686,0 16.1986,-1.69478 19.3418,-4.39844 2.15106,-1.85027 2.45467,-2.73033 1.86523,-5.41406 -0.38711,-1.76249 -1.68025,-3.72736 -2.87304,-4.36719 -1.73407,-0.93018 -11.63079,-2.13175 -17.3418,-2.33984 z"
         id="path4920" />
      <path
         style="fill:url(#linearGradient4712)"
         d="m 617.92383,664.95508 c -0.56171,-0.2909 -1.10705,-0.30339 -1.60742,0.006 -1.72172,1.06408 -1.24612,3.65034 1.89453,10.28906 1.74444,3.68743 3.58996,6.25 4.5,6.25 1.88939,0 1.89203,0.3025 -0.0645,-7.48633 -1.20525,-4.79813 -3.03751,-8.1859 -4.72265,-9.05859 z"
         id="path4918" />
      <path
         style="fill:url(#linearGradient4712)"
         d="m 661.18359,661.80078 c -1.14098,-0.0475 -2.4151,0.12704 -3.8164,0.54688 -5.17417,1.55022 -6.81869,4.37118 -9.29883,15.94922 -2.83762,13.24688 -2.94807,12.48765 1.92773,13.34765 2.33402,0.41168 5.03402,1.20894 6,1.77149 3.08895,1.7989 3.79397,1.22377 7.55469,-6.16602 7.08245,-13.91696 5.61967,-25.11689 -2.36719,-25.44922 z"
         id="path4916" />
      <path
         style="fill:url(#linearGradient4712)"
         d="m 423.27734,649.64844 c -0.90075,-0.15834 -2.29927,-0.0896 -4.54882,0.14258 -8.05399,0.83124 -15.72891,4.69505 -19.40625,9.77148 -3.76427,5.19642 -3.79555,6.02382 -0.31836,8.17969 3.70516,2.29721 4.06302,2.25194 12.44336,-1.5918 10.35757,-4.75062 15.27952,-10.36784 13.39257,-15.28516 -0.25826,-0.673 -0.66174,-1.05845 -1.5625,-1.21679 z"
         id="path4914" />
      <path
         style="fill:url(#linearGradient4712)"
         d="m 667.05078,624.75586 c -9.2346,-0.56052 -30.55951,1.71736 -41.24023,4.4043 -16.50092,4.15113 -33.96543,15.78062 -45.67383,30.41211 -11.77259,14.71172 -16.24627,33.56045 -12.35547,52.05664 5.47941,26.04819 15.15775,45.56451 30.35742,61.20703 13.72237,14.12217 25.40093,21.39782 38.82617,24.1875 16.92369,3.51665 38.37348,-2.62202 51.78907,-14.82227 6.97541,-6.3435 19.47903,-22.85878 24.20312,-31.96679 1.80228,-3.4748 4.48053,-10.12342 5.95117,-14.7754 2.47437,-7.82704 2.67359,-9.76475 2.67383,-25.95898 2.2e-4,-14.24248 -0.40183,-19.33583 -2.16406,-27.36328 -2.68967,-12.25219 -9.35983,-29.20304 -14.54688,-36.9707 -8.07797,-12.09686 -21.66436,-19.42952 -37.82031,-20.41016 z m -5.6543,20.86523 c 2.74671,0.1172 5.41014,0.85704 8.35743,2.23243 10.85249,5.06445 15.36725,14.12186 14.08593,28.26171 l -0.66992,7.38477 6.79102,0.0215 c 10.76593,0.0348 17.78113,4.16734 22.39453,13.18946 4.00218,7.82679 0.91529,15.97469 -8.20899,21.66797 -3.19172,1.99154 -5.82275,4.01666 -5.84765,4.5 -0.0249,0.48334 1.57234,2.67142 3.55078,4.86132 6.72636,7.44527 8.09382,15.16891 4.41992,24.98829 -3.59349,9.60448 -15.61142,19.10366 -25.91992,20.48632 -5.13012,0.6881 -12.54009,-1.14048 -17.32422,-4.27343 -4.63081,-3.03254 -6.43768,-3.07942 -7.3418,-0.19141 -1.46893,4.69217 -6.47043,10.59199 -10.72656,12.65234 l 0,-0.002 c -7.46782,3.61511 -14.15638,2.19453 -21.73047,-4.61523 -2.67971,-2.40928 -6.01921,-6.72301 -7.41992,-9.58594 -2.91065,-5.94916 -4.65258,-17.34612 -3.8457,-25.16406 l 0.54492,-5.27735 -7.87695,-1.73242 c -11.07698,-2.43528 -16.72136,-5.09156 -21.24219,-9.99609 -4.28586,-4.6496 -5.67418,-8.83821 -4.68164,-14.12891 0.78809,-4.20086 5.60382,-9.88358 10.45312,-12.33594 3.99763,-2.02165 12.61447,-4.06445 17.14453,-4.06445 3.71546,0 3.69182,-1.11074 -0.16601,-8 -9.67945,-17.28544 -8.9278,-30.19294 2.08203,-35.75 8.34925,-4.21417 16.07415,-2.47886 23.64648,5.3125 l 4.48047,4.60938 2.86524,-3.95508 c 3.56298,-4.91855 7.17088,-7.51522 13.32812,-9.59766 3.28093,-1.10964 6.11072,-1.61524 8.85742,-1.49805 z"
         id="path4912" />
      <path
         style="fill:url(#linearGradient4712)"
         d="m 379.75391,617.79297 c -14.44645,0.63699 -21.13012,2.29448 -33,8.18555 -43.08964,21.38554 -53.01423,59.32469 -28.22461,107.90039 4.01042,7.85849 6.6961,11.55164 13.13281,18.0625 10.88906,11.01451 22.29523,16.81378 38.42187,19.53515 7.5118,1.26761 12.74983,1.12785 20.92383,-0.56054 9.35115,-1.93153 12.53383,-3.46388 17.8711,-8.60938 2.98514,-2.87788 6.43961,-4.78807 12.5,-6.9082 12.09462,-4.23112 23.02465,-11.11634 32.38281,-20.39844 9.14361,-9.0693 12.34693,-14.80319 15.00781,-26.86523 2.68242,-12.15963 0.56925,-26.57831 -5.72656,-39.05469 -7.2513,-14.36989 -20.90572,-31.24081 -24.24609,-29.95899 -1.3655,0.52399 -1.27939,1.07195 0.6582,4.20703 3.31405,5.36224 2.93523,12.61391 -1.06446,20.36915 -1.72561,3.3459 -3.13671,6.43514 -3.13671,6.86523 0,0.43009 1.47309,1.26846 3.27539,1.86328 12.00845,3.96314 18.91973,19.29644 13.70117,30.39844 -4.03633,8.58693 -13.07862,13.6839 -27.09375,15.26953 l -6.07031,0.68555 0.60937,3.11132 c 0.33504,1.71067 0.86399,6.25938 1.17383,10.10938 0.50901,6.32499 0.28907,7.53131 -2.26758,12.5 -1.64609,3.19907 -4.26602,6.45042 -6.26562,7.77539 -5.12196,3.39388 -13.58655,5.55957 -19.15235,4.90039 -5.3472,-0.6333 -13.44316,-4.3888 -16.3164,-7.56836 -2.45081,-2.71211 -3.70017,-2.65301 -8.16797,0.37891 -3.75741,2.54985 -9.37858,4.50504 -12.92578,4.49805 -2.96779,-0.006 -11.6787,-4.36889 -14.20118,-7.11329 -6.92083,-7.52969 -8.62614,-20.90352 -4.24609,-33.31054 2.03659,-5.76891 2.16747,-6.85576 0.91211,-7.5586 -7.28186,-4.07694 -16.02823,-14.87368 -18.02734,-22.25195 -1.1168,-4.12184 -0.0709,-9.70959 2.50195,-13.36914 1.99435,-2.83675 8.04046,-5.65958 13.56055,-6.33203 4.44825,-0.54189 4.49476,-0.58908 4.18554,-4.04883 -0.17205,-1.925 -0.39705,-7.13197 -0.5,-11.57227 -0.16532,-7.13022 0.10408,-8.49708 2.29688,-11.69726 8.93193,-13.0353 28.91787,-9.4676 40.48828,7.22851 1.54,2.22222 3.21238,4.04102 3.71484,4.04102 0.50246,0 2.45147,-1.49394 4.33203,-3.32031 8.88215,-8.62624 27.64063,-13.95967 37.2793,-10.59961 2.04221,0.71192 3.68916,0.74724 4.83594,0.10547 1.48165,-0.82917 0.89818,-1.50908 -3.94531,-4.60743 -14.15595,-9.05545 -30.40147,-13.11349 -49.1875,-12.28515 z m -20.79493,27.88086 c -1.90103,-0.11693 -3.27042,0.88407 -3.5371,3.2207 -0.38876,3.40617 2.2572,10.87874 4.52343,12.77735 0.87232,0.73081 4.11104,1.83223 7.19727,2.44921 3.08623,0.61699 6.00508,1.1795 6.48633,1.25 1.62398,0.23797 -0.37719,-6.19766 -3.35743,-10.80078 -3.49659,-5.40066 -8.1441,-8.7016 -11.3125,-8.89648 z m 27.33985,34.79883 c -4.27186,0.0798 -8.91376,2.95925 -12.72266,8.3125 -3.22558,4.53343 -4.04335,9.85117 -1.85351,12.04101 3.76523,3.76523 14.24039,1.18623 20.78125,-5.11719 4.72362,-4.55215 4.96479,-8.14653 0.82617,-12.28515 -2.0383,-2.0383 -4.46814,-2.99903 -7.03125,-2.95117 z m -38.41992,0.27539 c -6.49627,-0.15545 -10.75316,0.14902 -11.15235,0.79492 -0.99535,1.61051 4.27279,7.84039 9.35352,11.0625 6.3418,4.02185 7.36393,3.7657 9.47461,-2.36914 3.47879,-10.11137 4.21293,-9.2038 -7.67578,-9.48828 z m 9.9082,29.75195 c -0.61422,0 -2.35602,2.44925 -3.87109,5.44141 -3.07287,6.06872 -3.95108,15.39271 -1.81836,19.30859 0.88956,1.63331 2.13249,2.25 4.53515,2.25 4.01072,0 5.74078,-1.7599 9.02735,-9.19141 1.36798,-3.09324 2.95976,-5.91736 3.53906,-6.27539 2.29066,-1.4157 1.04871,-4.37958 -2.29883,-5.48437 -1.84412,-0.60861 -4.39708,-2.21909 -5.67383,-3.57813 -1.27675,-1.35904 -2.82522,-2.4707 -3.43945,-2.4707 z"
         id="path4910" />
      <path
         style="fill:url(#linearGradient4712)"
         d="m 666.4375,592.73242 c -3.20579,-0.0952 -6.57173,-0.0701 -10.12695,0.0664 -37.06577,1.42281 -74.75129,14.89223 -92.14453,32.93164 -16.24159,16.84497 -23.45577,36.41782 -24.61524,66.78515 -0.51856,13.58146 -0.34697,15.53753 2.66211,30.43946 3.92988,19.46201 6.19549,27.39256 14.16406,49.56836 7.31111,20.34614 13.64211,30.92995 24.39063,40.77344 12.80266,11.72467 22.77197,16.17883 46.08594,20.5957 7.09481,1.34412 11.63941,2.48049 10.0996,2.52539 -3.61108,0.1053 -8.35649,2.57318 -9.66992,5.02734 -2.99166,5.58998 0.93189,14.48545 6.75586,15.31641 2.94532,0.42024 3.33807,0.38264 13.71485,-1.28125 9.54172,-1.52999 26.40455,-8.28767 33.85742,-13.56836 3.37759,-2.39317 9.06758,-6.31583 12.64258,-8.7168 3.575,-2.40097 11.675,-9.61452 18,-16.02929 16.10789,-16.33651 20.73881,-24.38503 29.9707,-52.08204 8.5946,-25.78508 9.98892,-33.66809 10.01172,-56.65625 0.0147,-14.75113 -0.38218,-19.56875 -2.46485,-30 C 743.87514,648.89523 735.61505,631.77887 719.64258,616 703.43795,599.99179 688.87804,593.39907 666.4375,592.73242 Z m -0.98828,20.83008 c 5.0204,0.15669 9.48679,0.65783 12.97266,1.53906 13.81611,3.49275 26.72584,13.12453 35.98828,26.85352 4.54242,6.73287 6.44849,10.91149 9.67968,21.21484 5.42236,17.29039 7.21025,26.5825 7.85352,40.83008 0.79294,17.56258 -1.33191,29.99429 -9.08984,53.19922 -8.61205,25.75975 -12.1968,32.06961 -26.02344,45.80078 -6.09206,6.05 -12.42617,11.68647 -14.07617,12.52539 -2.51457,1.27852 -5.91257,1.41919 -21,0.86523 -25.72132,-0.94439 -46.63531,-4.94508 -56.98633,-10.89843 -5.80641,-3.33954 -14.75062,-12.23277 -19.74414,-19.63477 -3.47757,-5.15489 -13.67797,-32.00813 -17.60938,-46.35742 -1.13016,-4.125 -3.4777,-14.475 -5.21679,-23 -3.56295,-17.46605 -3.56185,-22.94375 0.01,-40.5 3.3018,-16.22998 6.32498,-23.35053 13.4668,-31.7207 9.54234,-11.18356 16.47753,-15.19715 41.1914,-23.84571 13.48065,-4.71751 33.52279,-7.34115 48.58399,-6.87109 z"
         id="path4908" />
      <path
         style="fill:url(#linearGradient4712)"
         d="m 406.97852,583.67773 c -19.48181,0.58486 -46.84012,6.19415 -68.72461,14.70313 -18.7229,7.27971 -30.18072,15.65393 -41.05469,30.00391 -7.34407,9.69168 -16.41785,28.27785 -18.42969,37.7539 -0.91802,4.32396 -2.74792,11.01133 -4.06641,14.86133 -5.24136,15.30491 -5.88271,19.23268 -5.88671,36 -0.004,14.27339 0.2919,17.13309 2.7539,26.5 3.33686,12.69543 6.9128,20.61339 13.82031,30.60547 6.16486,8.91777 12.81783,14.84921 23.52735,20.97461 12.81318,7.3286 25.35506,10.77428 57.33594,15.75781 10.28171,1.60218 20.66722,-0.13491 22.71875,-3.80078 0.63343,-1.13187 3.25886,-1.96728 8.35156,-2.6582 15.86555,-2.15244 36.45211,-8.47794 50.29883,-15.45313 23.38889,-11.78199 32.76821,-19.03645 43.04101,-33.29492 13.35669,-18.53885 14.97972,-24.62952 14.25586,-53.5332 -0.79168,-31.61165 -1.76736,-39.33918 -6.57226,-52.08985 -2.23226,-5.9237 -5.15422,-12.6235 -6.49219,-14.88867 -5.56629,-9.42371 -20.7992,-24.16429 -34.2793,-33.16992 -9.06489,-6.05597 -28.45232,-15.73998 -34.23633,-17.10156 -4.24873,-1.00017 -9.86739,-1.36488 -16.36132,-1.16993 z m 5.77148,21.02735 c 3.06853,0.0675 5.49419,0.29591 6.77539,0.71875 6.16696,2.03528 23.517,11.80424 32.30273,18.1875 4.63911,3.37054 11.5709,9.73699 15.40626,14.14648 5.8511,6.72696 7.62237,9.67451 11.00195,18.31836 4.71254,12.05313 5.97545,22.7012 6.00195,50.63672 0.018,19.03069 -1.20565,24.17194 -7.91992,33.28711 -2.02566,2.75 -4.92471,6.69749 -6.44141,8.77148 -4.97464,6.80246 -27.00198,20.57374 -41.84375,26.16016 -12.91149,4.85988 -29.82211,8.60651 -43.27929,9.58984 -7.15,0.52247 -17.05,1.39915 -22,1.94727 -11.74916,1.30099 -12.72134,1.25657 -21.15821,-0.95508 -22.92767,-6.01028 -35.08187,-14.78812 -44.22656,-31.94531 -4.67192,-8.76541 -8.11323,-24.42589 -8.11523,-36.92383 -0.001,-10.80151 0.98933,-16.02735 5.99218,-31.64453 1.5857,-4.95 3.54055,-11.925 4.34571,-15.5 3.90108,-17.32134 20.77098,-39.54227 35.65625,-46.9668 8.63476,-4.30688 22.90823,-9.3798 32.14062,-11.42382 3.5007,-0.77505 9.76475,-2.31317 13.91992,-3.41797 7.24309,-1.92583 22.23582,-3.18873 31.44141,-2.98633 z"
         id="path4906" />
      <path
         style="fill:url(#linearGradient4712)"
         d="m 669.22266,274.5 c -1.87532,0 -10.04146,6.28314 -9.66407,7.43555 0.1918,0.58572 1.84349,2.07695 3.66993,3.31445 4.24927,2.87909 9.64465,3.02151 10.51562,0.27734 C 674.47751,283.21667 670.90353,274.5 669.22266,274.5 Z"
         id="path4904" />
      <path
         style="fill:url(#linearGradient4712)"
         d="m 637.75391,271.5 c -0.825,0 -1.5,0.675 -1.5,1.5 0,0.825 0.675,1.5 1.5,1.5 0.825,0 1.5,-0.675 1.5,-1.5 0,-0.825 -0.675,-1.5 -1.5,-1.5 z"
         id="path4902" />
      <path
         style="fill:url(#linearGradient4712)"
         d="m 393.65039,261.83203 c -1.42476,-0.0645 -2.85129,-0.0174 -4.25391,0.1543 -11.51625,1.40975 -15.76791,5.65975 -14.88281,14.87109 0.61463,6.39664 4.74196,10.6044 10.50586,10.71289 2.05382,0.0387 4.63438,0.457 5.73438,0.92969 3.51839,1.5119 6.34356,1.07179 12.85742,-2.00586 9.07144,-4.28605 12.03182,-7.2574 11.25781,-11.30078 -1.33716,-6.98516 -11.24542,-12.90985 -21.21875,-13.36133 z m 39.4043,13.68359 c -1.13527,0.0736 -1.80078,0.91751 -1.80078,2.51758 0,1.39266 -0.67279,4.13971 -1.49414,6.10547 -0.82131,1.96577 -1.22198,4.01269 -0.89063,4.54883 0.79472,1.28588 5.25093,0.17905 8.38477,-2.08203 3.57707,-2.58089 3.75369,-6.36594 0.41992,-8.98828 -1.87932,-1.47827 -3.48388,-2.17514 -4.61914,-2.10157 z"
         id="path4900" />
      <path
         style="fill:url(#linearGradient4712)"
         d="m 625.66211,250.83008 c -0.90691,0.03 -2.2877,0.36588 -4.53516,1.01953 -10.1119,2.94093 -11.32323,5.65295 -3.35742,7.51758 5.80149,1.35801 6.63247,1.30825 8.6543,-0.52149 1.94236,-1.75781 2.36067,-4.96012 0.93945,-7.20312 -0.3596,-0.56753 -0.79426,-0.84246 -1.70117,-0.8125 z"
         id="path4898" />
      <path
         style="fill:url(#linearGradient4712)"
         d="m 651.25586,243.5 c -6.30297,0 -8.50517,1.73393 -7.64844,6.01758 0.79569,3.97841 5.02553,9.78997 8,10.99023 3.80713,1.53625 5.56172,1.05469 7.11914,-1.95703 0.83912,-1.62269 1.52735,-4.75506 1.52735,-6.96094 0,-5.52204 -2.85557,-8.08984 -8.99805,-8.08984 z m 33.13672,0.21094 -7.63867,0.28906 -0.31055,4.87305 c -0.1704,2.68012 -0.0538,5.54216 0.25976,6.35937 0.45395,1.18295 2.11696,1.40663 8.15821,1.10156 8.35803,-0.42206 10.39258,-1.78176 10.39258,-6.95312 0,-4.80412 -2.28305,-5.99566 -10.86133,-5.66992 z"
         id="path4896" />
      <path
         style="fill:url(#linearGradient4712)"
         d="m 417.22852,234.5 c -3.23047,0 -7.62531,2.6747 -10.42383,6.34375 -3.52997,4.62804 -3.24114,6.10976 1.49804,7.67383 2.22757,0.73517 4.29504,1.73152 4.59375,2.21484 1.73716,2.81078 8.35743,-4.17128 8.35743,-8.81445 0,-4.06799 -1.81792,-7.41797 -4.02539,-7.41797 z"
         id="path4894" />
      <path
         style="fill:url(#linearGradient4712)"
         d="m 626.26172,213.50586 c -0.64206,0.30551 -1.00781,1.60262 -1.00781,3.92969 0,5.06498 1.46965,8.87589 4.75,12.31445 6.07252,6.36539 6.67373,2.05264 1.34961,-9.68945 -2.18482,-4.8185 -4.0217,-7.06387 -5.0918,-6.55469 z"
         id="path4892" />
      <path
         style="fill:url(#linearGradient4712)"
         d="m 676.03516,210.80469 c -0.71568,0.0657 -1.64566,0.67858 -2.49805,1.81445 -2.04283,2.72223 -5.49666,12.88408 -4.9043,14.42774 0.3068,0.79949 0.81517,1.45312 1.12891,1.45312 0.90783,0 7.49219,-14.25514 7.49219,-16.2207 0,-1.05763 -0.50307,-1.54031 -1.21875,-1.47461 z"
         id="path4890" />
      <path
         style="fill:url(#linearGradient4712)"
         d="m 385.30273,201.8418 c -9.82626,-0.1485 -19.28867,1.04919 -27.26171,3.71093 -10.07268,3.36269 -23.78856,10.26454 -30.49024,15.34375 -16.05505,12.16816 -23.55116,31.25783 -19.90039,50.67188 4.52367,24.05593 17.10285,46.12772 34.07031,59.77734 9.44502,7.59813 15.21576,11.01556 23.53321,13.93946 4.94236,1.73742 7.85136,2.16382 12.14062,1.77734 6.28678,-0.56647 16.04481,-3.87728 17.85352,-6.05664 1.4237,-1.71546 0.51158,-3.49724 -1.80469,-3.52734 -5.8002,-0.0753 -15.09052,-7.48903 -18.3125,-14.61329 l -1.86914,-4.13671 -7.32227,0.0488 c -6.24428,0.0402 -8.11042,-0.38191 -12.68164,-2.86523 -9.87212,-5.36303 -14.77796,-17.36256 -11.43945,-27.97656 0.94805,-3.0141 1.54483,-5.58199 1.32812,-5.70703 -0.2167,-0.12504 -2.03299,-1.06047 -4.0371,-2.07813 -16.66857,-8.46411 -21.47693,-28.82939 -8.64844,-36.63086 5.80446,-3.52991 12.95372,-3.64441 26.95117,-0.43164 l 2.6582,0.61133 -0.1582,-7.34961 c -0.13241,-6.1555 0.24781,-8.08043 2.3418,-11.84961 3.1593,-5.68674 9.73571,-9.40646 14.95312,-8.45898 5.14284,0.93394 10.34771,3.90082 13.85938,7.90039 3.73711,4.25633 5.38743,4.4126 9.54297,0.90429 11.86152,-10.01409 27.75766,-7.99101 33.71484,4.29102 3.34417,6.89473 3.76472,15.68543 1.04492,21.83398 -1.15477,2.61054 -1.87503,5.11101 -1.59961,5.55664 0.27541,0.44562 3.47234,2.47129 7.10352,4.50196 13.46968,7.53268 17.8644,15.11205 14.78125,25.49414 C 452.53175,297.03821 440.5492,305.5 428.7832,305.5 l -4.24023,0 -0.60352,7.20898 c -0.41982,5.00768 -1.48204,8.97984 -3.47656,13.00391 -1.57927,3.1863 -2.64665,6.01547 -2.37305,6.28906 1.36655,1.36656 5.83163,0.0629 14.3125,-4.18164 22.23874,-11.13012 37.26948,-34.91594 37.17188,-58.82031 -0.0975,-23.88091 -12.29228,-42.09445 -37.32031,-55.73633 -13.18602,-7.18722 -30.57408,-11.17438 -46.95118,-11.42187 z m -7.83203,31.77343 c -1.09245,-0.0884 -1.63578,1.35818 -1.36718,4.36133 0.19312,2.15923 0.74579,4.96009 1.22656,6.22461 0.68385,1.79864 1.64096,2.29883 4.39844,2.29883 4.44465,0 4.51425,-1.36197 0.4082,-8.03516 -1.93066,-3.13772 -3.57357,-4.76116 -4.66602,-4.84961 z m -35.73632,23.1211 c -0.98222,0.0446 -1.66363,0.24925 -1.9043,0.63867 -1.92682,3.11766 4.65961,8.89701 11.92383,10.46289 4.9338,1.06354 6.55154,0.65393 7.52343,-1.90234 1.35231,-3.55685 1.54846,-3.28725 -4.27343,-5.91797 -4.65933,-2.10541 -10.32289,-3.41511 -13.26953,-3.28125 z m 18.26953,32.94531 c -1.81695,0.25805 -2.3121,1.05455 -2.56641,4.14453 -0.18897,2.29603 0.32059,4.79577 1.27344,6.25 1.32417,2.02095 2.40491,2.42383 6.50586,2.42383 2.70486,0 5.20215,-0.45859 5.54882,-1.01953 0.34668,-0.56094 -1.42718,-3.01934 -3.9414,-5.46289 -2.51422,-2.44354 -4.57031,-4.94006 -4.57031,-5.54883 0,-0.60877 -1.0125,-0.96286 -2.25,-0.78711 z M 405.76562,303.5 c -0.69339,0 -3.17341,0.675 -5.51171,1.5 -2.3383,0.825 -6.05611,1.5 -8.26172,1.5 l -4.01172,0 0.62305,4.54102 c 0.83332,6.07969 2.19392,8.35568 5.97851,10.00195 6.92247,3.01123 11.21975,1.29693 12.71485,-5.07031 1.14231,-4.86477 0.20805,-12.47266 -1.53126,-12.47266 z"
         id="path4888" />
      <path
         style="fill:url(#linearGradient4712)"
         d="m 645.85938,178.8125 c -17.45134,0.71449 -34.57656,6.85225 -46.83985,17.6582 -7.20135,6.34556 -15.81175,19.96758 -19.29687,30.5293 -2.76858,8.39022 -2.96256,9.98243 -2.88086,23.5 0.0786,13.0042 0.36729,15.32527 2.80078,22.5 11.13985,32.84385 35.8466,62.07743 57.52148,68.05664 6.89645,1.90245 17.58721,1.66458 26.52735,-0.58789 13.19556,-3.32463 18.73024,-7.63192 22.47461,-17.49609 1.38266,-3.64247 2.89841,-5.16946 9.2539,-9.31836 16.57161,-10.81807 27.32448,-30.65684 29.35156,-54.1543 1.13748,-13.18547 -3.96616,-32.74605 -11.99023,-45.95508 -7.21804,-11.88217 -23.22178,-25.1679 -36.13672,-30 -9.72643,-3.63913 -20.31436,-5.16111 -30.78515,-4.73242 z m 30.45703,12.36328 c 1.15169,-0.0409 2.32231,0.0727 3.51562,0.3418 10.87574,2.45288 16.37546,15.35963 11.92188,27.98242 -2.13534,6.05219 -1.95364,7.99508 0.75,8.02148 3.38316,0.033 9.90467,3.3609 12.94531,6.60352 11.52116,12.28646 4.80448,33.76994 -11.71484,37.4668 -5.34094,1.19525 -5.61298,1.40234 -5.04297,3.83593 2.34908,10.02912 1.45892,15.33368 -3.59375,21.45118 -3.47659,4.20925 -9.70915,7.56471 -14.11914,7.59961 -4.39188,0.0348 -13.33813,-3.52402 -18.63477,-7.41211 -2.67256,-1.96184 -5.33966,-3.56641 -5.92773,-3.56641 -0.58808,0 -1.95062,1.99166 -3.02735,4.42578 -2.24807,5.08215 -9.24379,13.06153 -13.2832,15.15039 -3.86336,1.99782 -9.78264,1.76481 -13.55469,-0.53515 -6.92894,-4.22482 -8.22458,-12.90531 -3.76562,-25.22461 4.37637,-12.09116 4.49216,-11.37667 -2.16016,-13.31055 -7.33821,-2.13328 -13.84828,-8.19323 -14.91602,-13.88477 -1.50859,-8.04151 3.49647,-15.99898 12.93555,-20.56836 2.53456,-1.22696 4.60769,-2.75413 4.60742,-3.39257 -2.8e-4,-0.63843 -0.94638,-3.63516 -2.10351,-6.66016 -4.83241,-12.63297 -1.83218,-26.91752 6.66406,-31.73242 5.21411,-2.95489 8.9548,-2.83933 15.50391,0.48242 6.23105,3.16044 9.47118,7.38045 13.47656,17.55273 1.81154,4.60067 3.15274,6.70449 4.14648,6.5 0.80811,-0.16629 2.72946,-3.54085 4.26758,-7.5 6.00621,-15.46014 13.0475,-23.34096 21.10938,-23.62695 z"
         id="path4886" />
      <path
         style="fill:url(#linearGradient4712)"
         d="m 365.0293,166.79688 c -11.71323,-0.36114 -23.98001,1.19132 -30.51172,4.18164 -14.96119,6.84945 -29.54013,22.56795 -42.16406,45.45898 -11.17593,20.26538 -14.697,28.72478 -16.67579,40.0625 -1.79406,10.27932 -1.50196,24.36167 0.73633,35.46875 1.23506,6.12871 9.24258,22.85666 14.97852,31.28906 5.28906,7.77546 15.98298,21.26178 21.86133,27.57227 12.27326,13.17552 28.78155,21.88809 51.5,27.17773 5.5,1.28058 13.19944,2.36486 17.11132,2.41016 6.3885,0.074 7.47969,-0.20952 10.72071,-2.78516 2.64004,-2.09804 5.1786,-3.0448 9.46094,-3.52929 9.64653,-1.09138 32.96324,-7.32531 39.36718,-10.5254 7.68405,-3.83976 22.74647,-13.25669 29.97071,-18.73828 11.88427,-9.01751 24.06075,-24.04612 33.91796,-41.85937 9.90169,-17.89366 10.29597,-19.43374 9.67774,-37.74805 -0.55285,-16.37776 -2.19922,-24.11065 -7.75391,-36.41992 -9.41437,-20.86236 -26.47025,-33.49811 -58.47265,-43.31641 -38.11164,-11.6926 -44.46493,-13.24305 -72.42969,-17.68164 -3.54881,-0.56327 -7.39051,-0.8972 -11.29492,-1.01757 z m -7.27539,20.97656 c 8.32008,-0.40631 12.93985,0.0411 27.5,2.66797 9.625,1.73651 21.1,4.23007 25.5,5.53906 50.73136,15.09251 51.15528,15.25621 63.76562,24.54883 7.73613,5.70079 12.36396,12.22594 15.58789,21.98437 4.82734,14.61173 6.27409,27.31256 4.04297,35.48633 -1.15147,4.21845 -8.72027,18.26974 -14.79101,27.45898 -5.09546,7.71297 -20.60148,23.67179 -26.03321,26.79297 -2.51502,1.44517 -7.04726,4.27842 -10.07226,6.29688 -3.025,2.01847 -7.43976,4.65575 -9.81055,5.86133 -4.85508,2.46887 -22.9335,7.13627 -37.14453,9.58984 -6.56798,1.13398 -13.73592,1.53604 -23.48438,1.31641 -13.17441,-0.29682 -14.47635,-0.50927 -21.29687,-3.46289 -15.04059,-6.5133 -24.53618,-15.02672 -38.29492,-34.33985 -14.0782,-19.76155 -17.98313,-29.65095 -17.95313,-45.47265 0.0221,-11.63504 2.32106,-20.34186 8.72461,-33.04102 13.99373,-27.75155 26.94077,-43.70491 39.8457,-49.10156 2.32364,-0.97172 7.9773,-1.83509 13.91407,-2.125 z"
         id="path4884" />
      <path
         style="fill:url(#linearGradient4712)"
         d="m 644.03125,143.66211 c -7.50103,0.35132 -15.54426,1.45475 -22.07422,3.21484 -15.67506,4.22507 -29.99126,12.3801 -37.41406,21.3125 -6.43513,7.74387 -16.06256,22.62359 -19.4043,29.99024 -12.19685,26.88717 -17.59904,42.24571 -19.91992,56.63281 -1.75838,10.90008 -0.051,28.24434 4.05859,41.2207 6.81529,21.5199 35.19444,67.68989 47.23047,76.83985 11.3984,8.66523 31.59617,16.28704 51.7461,19.52734 16.5125,2.65536 22.58403,2.22339 26.25,-1.86523 3.61551,-4.03233 3.67361,-8.78348 0.16015,-12.95899 -1.4239,-1.6922 -3.5614,-3.14045 -4.75,-3.21875 -1.18861,-0.0783 2.45372,-0.49627 8.09375,-0.92969 21.5654,-1.65724 30.61732,-6.22436 49.31836,-24.88476 12.76377,-12.73603 13.90871,-14.2068 19.23047,-24.67969 3.11233,-6.12489 7.01724,-15.19025 8.67774,-20.14648 l 3.01953,-9.01172 0,-31.89258 c 0,-33.66388 -0.50499,-38.44963 -5.04688,-47.88477 -2.67733,-5.56177 -13.98033,-18.45869 -21.37109,-24.38476 -3.34523,-2.68228 -10.58203,-8.54009 -16.08203,-13.01563 -19.55125,-15.90955 -41.13815,-29.19871 -52.89844,-32.5664 -4.36453,-1.24984 -11.32319,-1.65015 -18.82422,-1.29883 z m 3.22266,20.45508 c 7.71369,-0.0395 9.19381,0.2854 16,3.51172 8.56077,4.05803 24.36801,14.26803 34.16015,22.0664 19.9047,15.85193 25.2352,20.42855 30.21875,25.93555 3.01443,3.33106 6.23022,7.63552 7.14649,9.56641 2.81532,5.93285 3.63977,16.61089 3.25781,42.2207 L 737.66992,292 l -3.125,8 c -5.75641,14.7362 -11.10728,23.23972 -20.79101,33.03516 -15.98283,16.16719 -23.25341,19.46379 -42.93164,19.46679 -13.60676,0.002 -18.0634,1.38458 -20.41407,6.33399 -1.83562,3.86496 -0.70342,9.08745 2.51758,11.62109 3.07249,2.41678 3.27273,2.41589 -8.17187,0.01 -17.03824,-3.58212 -28.81657,-8.6435 -36.71289,-15.77735 -7.39361,-6.67968 -26.9808,-37.5821 -35.57422,-56.125 -4.00957,-8.65186 -7.18232,-22.78328 -7.19922,-32.06445 -0.0185,-10.14185 4.23944,-25.40743 12.50976,-44.85547 11.19471,-26.32489 19.23156,-38.50767 30.41407,-46.10156 10.16218,-6.90101 25.39204,-11.35568 39.0625,-11.42578 z"
         id="path4882" />
    </g>
  </g>
</svg>
