<?xml version="1.0" encoding="UTF-8" standalone="no"?>
<svg
   xmlns:osb="http://www.openswatchbook.org/uri/2009/osb"
   xmlns:dc="http://purl.org/dc/elements/1.1/"
   xmlns:cc="http://creativecommons.org/ns#"
   xmlns:rdf="http://www.w3.org/1999/02/22-rdf-syntax-ns#"
   xmlns:svg="http://www.w3.org/2000/svg"
   xmlns="http://www.w3.org/2000/svg"
   xmlns:xlink="http://www.w3.org/1999/xlink"
   version="1.1"
   id="svg2985"
   height="908.66156"
   width="573.59943">
  <defs
     id="defs5498">
    <linearGradient
       osb:paint="solid"
       id="linearGradient4756">
      <stop
         id="stop4758"
         offset="0"
         style="stop-color:#ffffff;stop-opacity:1;" />
    </linearGradient>
    <linearGradient
       osb:paint="solid"
       id="linearGradient4750">
      <stop
         id="stop4752"
         offset="0"
         style="stop-color:#000000;stop-opacity:1;" />
    </linearGradient>
    <linearGradient
       osb:paint="solid"
       id="linearGradient5694">
      <stop
         id="stop5696"
         offset="0"
         style="stop-color:#002b11;stop-opacity:1;" />
    </linearGradient>
    <linearGradient
       osb:paint="solid"
       id="linearGradient4712">
      <stop
         id="stop4714"
         offset="0"
         style="stop-color:#162d50;stop-opacity:1;" />
    </linearGradient>
    <linearGradient
       osb:paint="solid"
       id="linearGradient4706">
      <stop
         id="stop4708"
         offset="0"
         style="stop-color:#d40000;stop-opacity:1;" />
    </linearGradient>
    <linearGradient
       gradientUnits="userSpaceOnUse"
       y2="508.69208"
       x2="761.44257"
       y1="508.69208"
       x1="262.13925"
       id="linearGradient4716"
       xlink:href="#linearGradient4712" />
    <linearGradient
       gradientUnits="userSpaceOnUse"
       y2="500.0004"
       x2="771.30902"
       y1="500.0004"
       x1="228.69211"
       id="linearGradient4754"
       xlink:href="#linearGradient4750" />
    <linearGradient
       gradientUnits="userSpaceOnUse"
       y2="500.10483"
       x2="752.40271"
       y1="500.10483"
       x1="248.61133"
       id="linearGradient4760"
       xlink:href="#linearGradient4756" />
    <linearGradient
       y2="508.69208"
       x2="761.44257"
       y1="508.69208"
       x1="262.13925"
       gradientUnits="userSpaceOnUse"
       id="linearGradient501"
       xlink:href="#linearGradient4712" />
    <linearGradient
       y2="508.69208"
       x2="761.44257"
       y1="508.69208"
       x1="262.13925"
       gradientUnits="userSpaceOnUse"
       id="linearGradient503"
       xlink:href="#linearGradient4712" />
    <linearGradient
       y2="508.69208"
       x2="761.44257"
       y1="508.69208"
       x1="262.13925"
       gradientUnits="userSpaceOnUse"
       id="linearGradient505"
       xlink:href="#linearGradient4712" />
  </defs>
  <metadata
     id="metadata5594">
    <rdf:RDF>
      <cc:Work
         rdf:about="">
        <dc:format>image/svg+xml</dc:format>
        <dc:type
           rdf:resource="http://purl.org/dc/dcmitype/StillImage" />
        <dc:title />
      </cc:Work>
    </rdf:RDF>
  </metadata>
  <g
     transform="translate(-213.19975,-45.669514)"
     style="display:inline"
     id="layer2">
    <path
       id="path4642"
       d="m 602.42188,64.699219 c -17.84077,0.04734 -31.83638,0.280343 -44.67383,0.761719 -12.83746,0.481375 -24.51676,1.211125 -37.72266,2.251953 -8.51642,0.671225 -19.14795,1.694265 -30.61719,2.914062 -11.46924,1.219797 -23.7757,2.6365 -35.64453,4.091797 -11.86882,1.455297 -23.30045,2.950401 -33.01562,4.328125 -9.71517,1.377724 -17.71438,2.637921 -22.72266,3.625 -5.49945,1.083883 -12.17749,2.691304 -19.2793,4.587891 -7.10181,1.896586 -14.62702,4.081908 -21.81836,6.320312 -7.19133,2.238404 -14.05033,4.531292 -19.81835,6.640622 -5.76803,2.10934 -10.44547,4.03555 -13.27735,5.54492 -2.80801,1.49666 -5.81712,3.52491 -8.8457,5.90235 -3.02858,2.37744 -6.0771,5.10423 -8.96289,7.99805 -2.88579,2.89381 -5.60864,5.95421 -7.98828,9 -2.37965,3.04578 -4.41563,6.07681 -5.92578,8.91015 -1.37739,2.58423 -2.66208,5.73293 -3.86329,9.48438 -1.2012,3.75144 -2.31899,8.1049 -3.35937,13.09765 -1.04038,4.99276 -2.00352,10.62543 -2.89844,16.9336 -0.89492,6.30816 -1.72151,13.29256 -2.48633,20.99023 -0.75851,7.63433 -1.4806,13.6467 -2.83398,22.30664 -1.35339,8.65994 -3.33808,19.96744 -6.62109,38.19336 -1.42369,7.90367 -2.5697,15.46204 -3.50196,24.05274 -0.93226,8.59069 -1.65062,18.21391 -2.22265,30.25 -0.57204,12.03608 -0.99683,26.48476 -1.33985,44.72461 -0.34302,18.23984 -0.60441,40.27067 -0.84961,67.47265 -0.33567,37.23929 -0.55226,57.48006 -0.93359,70.04102 -0.19067,6.28048 -0.42235,10.64127 -0.73047,14.24609 -0.30812,3.60482 -0.6932,6.45445 -1.18945,9.71289 -1.1727,7.7 -3.1016,21.425 -4.28516,30.5 -1.18355,9.075 -2.98478,20.55 -4.00391,25.5 -1.01913,4.95 -3.02268,16.875 -4.45117,26.5 -1.42849,9.625 -4.16386,24.925 -6.08008,34 -1.49087,7.06063 -2.7103,13.32753 -3.70898,19.29102 -0.99868,5.96349 -1.77631,11.62416 -2.38477,17.4707 -0.60845,5.84654 -1.04699,11.87811 -1.36718,18.58789 -0.3202,6.70978 -0.52235,14.09718 -0.65625,22.65039 -0.20866,13.32746 -0.24517,22.00916 0.0566,31.01758 0.3018,9.00842 0.94193,18.34356 2.08789,32.98047 0.71332,9.11091 1.30212,16.29252 1.875,22.24414 0.57287,5.95162 1.13005,10.6732 1.77929,14.86523 0.64925,4.19203 1.39157,7.85341 2.33399,11.68555 0.94242,3.83214 2.0847,7.83509 3.53711,12.70703 4.2379,14.21558 7.30739,24.82657 9.54492,33.07813 2.23753,8.25156 3.64311,14.14369 4.55469,18.92187 0.52464,2.75 1.20748,5.53125 1.88672,7.79688 0.67923,2.26562 1.35486,4.01562 1.86133,4.70312 0.66776,0.90647 1.46981,1.71264 2.45507,2.43945 0.98527,0.72682 2.15419,1.37499 3.5586,1.96485 1.40441,0.58986 3.04356,1.12158 4.96875,1.61719 1.92519,0.4956 4.13599,0.95438 6.68359,1.39843 4.95,0.86279 21.82604,3.8045 37.50391,6.53711 7.83893,1.36631 16.09023,2.95889 23.06836,4.42383 6.97812,1.46495 12.68307,2.80226 15.43164,3.6582 2.94893,0.91835 5.61838,1.66216 8.45312,2.28321 2.83475,0.62104 5.83424,1.11864 9.44727,1.54882 3.61302,0.43019 7.83926,0.79292 13.12304,1.13868 5.28378,0.34575 11.62565,0.67519 19.47266,1.04297 12.925,0.60576 30.7,1.44616 39.5,1.86523 6.13227,0.29202 15.06282,0.51144 25.17578,0.6582 10.11297,0.14677 21.40902,0.22147 32.27149,0.22266 10.86246,10e-4 21.29111,-0.0701 29.67187,-0.21484 8.38077,-0.14471 14.71299,-0.36338 17.38086,-0.6543 5.225,-0.56978 23.675,-1.43918 41,-1.9336 15.23998,-0.4349 26.60458,-0.85456 37.97656,-1.46874 11.37199,-0.61419 22.75136,-1.42292 38.02344,-2.63477 3.22386,-0.25582 6.28681,-0.57265 9.20508,-0.95703 2.91826,-0.38438 5.69236,-0.83724 8.33398,-1.36133 2.64163,-0.52409 5.15098,-1.11997 7.54493,-1.79492 2.39394,-0.67496 4.67243,-1.42866 6.84765,-2.26563 2.17522,-0.83696 4.24697,-1.75745 6.23242,-2.76758 1.98546,-1.01012 3.88434,-2.11024 5.70899,-3.30468 1.82464,-1.19444 3.57673,-2.48315 5.26953,-3.87305 1.6928,-1.3899 3.32611,-2.88005 4.91601,-4.47656 2.06496,-2.07354 3.91748,-4.16499 5.62305,-6.39063 1.70557,-2.22564 3.26465,-4.58572 4.74219,-7.19531 1.47753,-2.60959 2.87305,-5.46796 4.2539,-8.69336 1.38086,-3.22539 2.74658,-6.81757 4.16211,-10.89062 1.46557,-4.21702 2.69226,-8.15773 3.72657,-12.10547 1.0343,-3.94775 1.87675,-7.90205 2.57226,-12.14453 0.69552,-4.24248 1.24417,-8.77377 1.69336,-13.875 0.4492,-5.10124 0.7984,-10.77288 1.09375,-17.29688 1.31843,-29.12241 2.16439,-46.56777 2.92188,-58.32226 0.37874,-5.87725 0.73402,-10.33112 1.11718,-14.11133 0.38317,-3.78021 0.79332,-6.8866 1.27735,-10.06641 0.43343,-2.84741 0.78238,-5.5037 1.06836,-8.41015 0.28597,-2.90646 0.50972,-6.06253 0.68945,-9.91211 0.35945,-7.69917 0.54685,-18.16922 0.72852,-34.94532 0.21387,-19.75056 0.31765,-29.69989 0.0918,-35.2832 -0.11293,-2.79166 -0.30796,-4.49183 -0.61328,-5.7793 -0.30532,-1.28746 -0.72076,-2.163 -1.27344,-3.30468 -0.51112,-1.05584 -0.90326,-1.92705 -1.19336,-2.80079 -0.29009,-0.87373 -0.47793,-1.74932 -0.58398,-2.8125 -0.21209,-2.12636 -0.0933,-5.00383 0.20898,-10.11718 0.18098,-3.06164 0.5198,-6.63289 0.91993,-9.91992 0.40012,-3.28704 0.86154,-6.28985 1.28711,-8.21485 0.76253,-3.44922 1.41063,-6.69096 1.96484,-9.89062 0.55421,-3.19967 1.0138,-6.35668 1.39844,-9.63672 0.76928,-6.56008 1.23891,-13.61143 1.5625,-22.47266 0.18076,-4.95 0.55981,-11.19375 1.02539,-17.26562 0.46558,-6.07188 1.0177,-11.97188 1.54297,-16.23438 0.54151,-4.39426 1.02212,-9.89216 1.36914,-15.35547 0.34702,-5.4633 0.56046,-10.89201 0.56836,-15.14453 0.0153,-8.25 0.6859,-25.35 1.49023,-38 0.4152,-6.52988 0.7421,-14.48548 0.97656,-22.98047 0.23447,-8.49498 0.37724,-17.52885 0.42188,-26.21289 0.0446,-8.68404 -0.008,-17.0182 -0.16211,-24.11523 -0.15429,-7.09703 -0.41113,-12.95744 -0.77344,-16.69141 -0.53366,-5.5 -1.4259,-26.425 -1.98437,-46.5 -1.02003,-36.6659 -1.72725,-59.56495 -2.36914,-74.41015 -0.32095,-7.42261 -0.62621,-12.83109 -0.94532,-16.94141 -0.3191,-4.11032 -0.65219,-6.9218 -1.03125,-9.14844 -1.61175,-9.46766 -2.99841,-18.63109 -4.17382,-27.5957 -1.17542,-8.96461 -2.13959,-17.7304 -2.90625,-26.4043 -0.89932,-10.1746 -1.75239,-17.80453 -2.91602,-25.13867 -1.16363,-7.33414 -2.6378,-14.37248 -4.7793,-23.36133 -1.6379,-6.875 -4.26882,-18.8 -5.8457,-26.499999 -1.0029,-4.897214 -1.8044,-8.69944 -2.50781,-11.679687 -0.70341,-2.980247 -1.30806,-5.139337 -1.91992,-6.75 -0.61187,-1.610664 -1.23074,-2.672474 -1.95899,-3.460938 -0.72825,-0.788463 -1.56656,-1.302759 -2.61914,-1.816406 -0.9625,-0.469688 -2.79375,-1.085373 -4.96875,-1.699219 -2.175,-0.613846 -4.69375,-1.225854 -7.03125,-1.6875 -1.81741,-0.35893 -3.85839,-0.647301 -6.78711,-0.884765 -2.92872,-0.237465 -6.74531,-0.424011 -12.11133,-0.578125 -10.73202,-0.308229 -27.66447,-0.487884 -56.10156,-0.691407 -16.10706,-0.115275 -29.70968,-0.166325 -41.60351,-0.134765 z"
       style="fill:#ffffff;fill-opacity:1;fill-rule:nonzero;stroke:none" />
    <path
       id="path4640"
       d="m 586.81836,45.744141 c -11.42633,0.09804 -21.45991,0.299049 -30.97656,0.646484 -9.51665,0.347435 -18.51561,0.841735 -27.87305,1.523437 -9.35744,0.681703 -19.07279,1.551506 -30.02148,2.652344 -10.94869,1.100838 -23.13147,2.432266 -37.42188,4.03711 -10.25195,1.151316 -24.49447,3.008996 -37.55273,4.845703 -13.05826,1.836706 -24.93226,3.652439 -30.44727,4.71875 -5.97642,1.155523 -12.97424,2.826474 -20.33984,4.802734 -7.3656,1.976261 -15.09965,4.25874 -22.54883,6.638672 -7.44918,2.379932 -14.61269,4.856119 -20.83984,7.222656 -6.22716,2.366538 -11.51728,4.622517 -15.2168,6.558594 -3.38673,1.77238 -6.21947,3.511293 -9.11914,5.681641 -2.89967,2.170347 -5.86625,4.772126 -9.52149,8.269534 -2.85238,2.72922 -5.44374,5.3723 -7.80468,8.01367 -2.36095,2.64137 -4.49129,5.28129 -6.42383,8.00391 -1.93255,2.72261 -3.66718,5.52704 -5.23438,8.5 -1.56719,2.97295 -2.96752,6.11345 -4.23242,9.50585 -1.2649,3.39241 -2.39428,7.03663 -3.41992,11.01758 -1.02564,3.98096 -1.94744,8.29851 -2.79688,13.03711 -0.84944,4.73861 -1.627,9.8991 -2.36328,15.56446 -0.73628,5.66535 -1.43101,11.83644 -2.11718,18.59765 -0.75193,7.40906 -2.15162,17.80721 -3.59961,27.2793 -1.448,9.47209 -2.9443,18.01812 -3.89063,21.7207 -0.49201,1.925 -1.81325,9.575 -2.9375,17 -1.34997,8.91572 -2.41171,16.67097 -3.25976,24.84766 -0.84806,8.17669 -1.48333,16.77493 -1.97657,27.375 -0.49324,10.60006 -0.84533,23.20283 -1.13086,39.38867 -0.28553,16.18584 -0.50358,35.95466 -0.72851,60.88867 -0.33591,37.2367 -0.60984,60.32999 -0.95313,74.88672 -0.17164,7.27836 -0.3609,12.42175 -0.58398,16.13281 -0.22308,3.71106 -0.47954,5.98962 -0.78711,7.53516 -0.82682,4.15474 -2.03153,12.92974 -2.67774,19.5 -0.64621,6.57026 -1.97991,16.67031 -2.96289,22.44531 -0.98299,5.775 -3.44416,20.625 -5.46875,33 -2.0246,12.375 -4.8099,28.125 -6.1914,35 -2.30285,11.46009 -4.12186,21.00357 -5.54492,29.55859 -1.42307,8.55503 -2.45027,16.12234 -3.17188,23.62696 -0.72161,7.50462 -1.13745,14.94701 -1.33594,23.25586 -0.19848,8.30885 -0.17951,17.48344 -0.0332,28.45117 0.12696,9.51745 0.42471,20.36306 0.80273,30.16992 0.37803,9.80687 0.83634,18.575 1.28321,23.9375 0.83573,10.02887 1.46761,17.57505 2.12695,23.87695 0.65935,6.30191 1.34705,11.35909 2.29492,16.41407 0.94787,5.05497 2.15612,10.10644 3.85742,16.39453 1.70131,6.28808 3.89479,13.81321 6.81446,23.81445 1.84645,6.325 3.8032,13.41683 5.46875,19.74609 1.66555,6.32927 3.0399,11.89598 3.7207,15.17383 0.70575,3.39797 1.35414,6.22058 2.00977,8.61133 0.65563,2.39075 1.31795,4.34903 2.05078,6.02344 0.73283,1.67441 1.53726,3.06355 2.47461,4.3125 0.93734,1.24894 2.00816,2.3583 3.27734,3.47266 1.82178,1.59953 3.619,2.94519 5.62305,4.11523 2.00405,1.17004 4.21414,2.16443 6.86523,3.0625 2.6511,0.89807 5.74296,1.69879 9.50586,2.48242 3.7629,0.78364 8.19764,1.55022 13.53711,2.37695 15.84297,2.45305 29.45051,4.80606 40.65234,7.02344 5.60092,1.10869 10.6004,2.18367 14.97657,3.2207 4.37617,1.03704 8.12984,2.03531 11.23828,2.99219 3.08778,0.95052 6.52415,1.77639 10.54883,2.50196 4.02467,0.72556 8.63685,1.35141 14.07812,1.90039 5.44127,0.54897 11.71127,1.02065 19.04883,1.4414 7.33756,0.42075 15.74348,0.78998 25.45703,1.13086 16.225,0.56939 35.8,1.39076 43.5,1.82617 9.61541,0.54371 23.98743,0.82267 37.76953,0.83399 6.89105,0.006 13.63464,-0.0544 19.5625,-0.1836 5.92786,-0.12918 11.03988,-0.3266 14.66797,-0.59179 6.6,-0.48242 26.175,-1.33918 43.5,-1.90235 17.325,-0.56317 37.125,-1.48746 44,-2.05468 6.875,-0.56722 20.375,-1.47994 30,-2.0293 6.08314,-0.3472 11.18496,-0.6812 15.5957,-1.04297 4.41075,-0.36177 8.13083,-0.75083 11.45118,-1.20703 3.32034,-0.4562 6.24081,-0.98084 9.05273,-1.61133 2.81192,-0.63049 5.5149,-1.36732 8.40039,-2.25195 3.98618,-1.22208 7.72073,-2.54693 11.22656,-4 3.50584,-1.45307 6.7836,-3.03522 9.85743,-4.76953 3.07382,-1.73432 5.94265,-3.62169 8.63281,-5.6875 2.69016,-2.06581 5.20181,-4.30831 7.55664,-6.75586 2.35482,-2.44755 4.55326,-5.09898 6.62109,-7.97852 2.06783,-2.87954 4.00482,-5.98783 5.83399,-9.34961 1.82917,-3.36177 3.5506,-6.97683 5.18945,-10.87109 1.63885,-3.89426 3.19454,-8.06794 4.69141,-12.54492 1.71638,-5.13357 3.11857,-9.67256 4.27539,-14.01563 1.15681,-4.34307 2.06735,-8.4898 2.79882,-12.83984 0.73148,-4.35004 1.28424,-8.90414 1.72461,-14.0586 0.44037,-5.15445 0.76924,-10.90968 1.05274,-17.66601 1.3267,-31.61736 2.11073,-49.06614 3.05859,-62.05274 0.47393,-6.49329 0.98803,-11.86952 1.63281,-17.3457 0.64479,-5.47618 1.41942,-11.05139 2.41211,-17.9375 0.44674,-3.09892 0.81747,-8.83245 1.09961,-16.0957 0.28214,-7.26326 0.47545,-16.05631 0.57032,-25.27735 0.0949,-9.22103 0.0916,-18.86953 -0.0234,-27.84179 -0.11508,-8.97227 -0.34177,-17.26822 -0.68945,-23.78516 -0.55507,-10.40375 -0.82309,-16.52217 -0.7754,-20.98047 0.0239,-2.22915 0.12754,-4.04233 0.3125,-5.76953 0.18497,-1.7272 0.45166,-3.36847 0.80469,-5.25 1.02459,-5.46064 1.92789,-12.65632 2.57813,-20.07617 0.65023,-7.41985 1.04739,-15.06389 1.05859,-21.42383 0.005,-2.75 0.18453,-6.54453 0.46875,-10.44141 0.28423,-3.89687 0.67315,-7.89609 1.09961,-11.05859 0.42646,-3.1625 0.90901,-8.79336 1.34375,-15.31836 0.43474,-6.525 0.82166,-13.94414 1.05469,-20.68164 0.46607,-13.475 1.37598,-33.80107 2.02343,-45.16992 0.33249,-5.83801 0.5551,-13.47186 0.67579,-22.08984 0.12068,-8.61799 0.13868,-18.22041 0.0605,-27.9961 -0.0781,-9.77569 -0.25162,-19.72403 -0.51562,-29.03515 -0.26401,-9.31112 -0.61778,-17.98471 -1.05469,-25.20899 -0.632,-10.45 -1.59637,-39.7 -2.14453,-65 -0.25302,-11.67782 -0.46401,-20.70363 -0.7168,-28.19726 -0.25279,-7.49364 -0.54731,-13.45513 -0.9707,-19.00391 -0.42339,-5.54878 -0.97542,-10.68409 -1.74023,-16.52734 -0.76482,-5.84326 -1.74247,-12.39444 -3.01954,-20.77149 -1.38347,-9.075 -3.23503,-24.825 -4.11328,-35 -0.43319,-5.01871 -0.86223,-9.41219 -1.35742,-13.59961 -0.49519,-4.18742 -1.05573,-8.16887 -1.75195,-12.36133 -1.39244,-8.3849 -3.32677,-17.61611 -6.35742,-31.03906 -2.17315,-9.624995 -5.03835,-22.470974 -6.36719,-28.546874 -1.04097,-4.75968 -2.07523,-8.682813 -3.22852,-11.949218 -0.57664,-1.633203 -1.18139,-3.102716 -1.83398,-4.429688 -0.65259,-1.326972 -1.35284,-2.512659 -2.11328,-3.578125 -0.76045,-1.065466 -1.58221,-2.01069 -2.48242,-2.859375 -0.90022,-0.848685 -1.87733,-1.600714 -2.94922,-2.277344 -1.07189,-0.67663 -2.2382,-1.276872 -3.51368,-1.826172 -1.27547,-0.549299 -2.66089,-1.046978 -4.17187,-1.513672 -4.14916,-1.281545 -7.48062,-2.255556 -11.30469,-3.003906 -3.82407,-0.74835 -8.14005,-1.270481 -14.25586,-1.646484 -6.1158,-0.376003 -14.03228,-0.606979 -25.05664,-0.771484 -11.02436,-0.164506 -25.1573,-0.263098 -43.70703,-0.376954 -22.2604,-0.13663 -39.97192,-0.189311 -55.20703,-0.05859 z m 15.60352,18.955078 c 11.89383,-0.03156 25.49645,0.01949 41.60351,0.134765 28.43709,0.203523 45.36954,0.383178 56.10156,0.691407 5.36602,0.154114 9.18261,0.34066 12.11133,0.578125 2.92872,0.237464 4.9697,0.525835 6.78711,0.884765 2.3375,0.461646 4.85625,1.073654 7.03125,1.6875 2.175,0.613846 4.00625,1.229531 4.96875,1.699219 1.05258,0.513647 1.89089,1.027943 2.61914,1.816406 0.72825,0.788464 1.34712,1.850274 1.95899,3.460938 0.61186,1.610663 1.21651,3.769753 1.91992,6.75 0.70341,2.980247 1.50491,6.782473 2.50781,11.679687 1.57688,7.699999 4.2078,19.624999 5.8457,26.499999 2.1415,8.98885 3.61567,16.02719 4.7793,23.36133 1.16363,7.33414 2.0167,14.96407 2.91602,25.13867 0.76666,8.6739 1.73083,17.43969 2.90625,26.4043 1.17541,8.96461 2.56207,18.12804 4.17382,27.5957 0.37906,2.22664 0.71215,5.03812 1.03125,9.14844 0.31911,4.11032 0.62437,9.5188 0.94532,16.94141 0.64189,14.8452 1.34911,37.74425 2.36914,74.41015 0.55847,20.075 1.45071,41 1.98437,46.5 0.36231,3.73397 0.61915,9.59438 0.77344,16.69141 0.15428,7.09703 0.20675,15.43119 0.16211,24.11523 -0.0446,8.68404 -0.18741,17.71791 -0.42188,26.21289 -0.23446,8.49499 -0.56136,16.45059 -0.97656,22.98047 -0.80433,12.65 -1.47493,29.75 -1.49023,38 -0.008,4.25252 -0.22134,9.68123 -0.56836,15.14453 -0.34702,5.46331 -0.82763,10.96121 -1.36914,15.35547 -0.52527,4.2625 -1.07739,10.1625 -1.54297,16.23438 -0.46558,6.07187 -0.84463,12.31562 -1.02539,17.26562 -0.32359,8.86123 -0.79322,15.91258 -1.5625,22.47266 -0.38464,3.28004 -0.84423,6.43705 -1.39844,9.63672 -0.55421,3.19966 -1.20231,6.4414 -1.96484,9.89062 -0.42557,1.925 -0.88699,4.92781 -1.28711,8.21485 -0.40013,3.28703 -0.73895,6.85828 -0.91993,9.91992 -0.30224,5.11335 -0.42107,7.99082 -0.20898,10.11718 0.10605,1.06318 0.29389,1.93877 0.58398,2.8125 0.2901,0.87374 0.68224,1.74495 1.19336,2.80079 0.55268,1.14168 0.96812,2.01722 1.27344,3.30468 0.30532,1.28747 0.50035,2.98764 0.61328,5.7793 0.22586,5.58331 0.12208,15.53264 -0.0918,35.2832 -0.18167,16.7761 -0.36907,27.24615 -0.72852,34.94532 -0.17973,3.84958 -0.40348,7.00565 -0.68945,9.91211 -0.28598,2.90645 -0.63493,5.56274 -1.06836,8.41015 -0.48403,3.17981 -0.89418,6.2862 -1.27735,10.06641 -0.38316,3.78021 -0.73844,8.23408 -1.11718,14.11133 -0.75749,11.75449 -1.60345,29.19985 -2.92188,58.32226 -0.29535,6.524 -0.64455,12.19564 -1.09375,17.29688 -0.44919,5.10123 -0.99784,9.63252 -1.69336,13.875 -0.69551,4.24248 -1.53796,8.19678 -2.57226,12.14453 -1.03431,3.94774 -2.261,7.88845 -3.72657,12.10547 -1.41553,4.07305 -2.78125,7.66523 -4.16211,10.89062 -1.38085,3.2254 -2.77637,6.08377 -4.2539,8.69336 -1.47754,2.60959 -3.03662,4.96967 -4.74219,7.19531 -1.70557,2.22564 -3.55809,4.31709 -5.62305,6.39063 -1.5899,1.59651 -3.22321,3.08666 -4.91601,4.47656 -1.6928,1.3899 -3.44489,2.67861 -5.26953,3.87305 -1.82465,1.19444 -3.72353,2.29456 -5.70899,3.30468 -1.98545,1.01013 -4.0572,1.93062 -6.23242,2.76758 -2.17522,0.83697 -4.45371,1.59067 -6.84765,2.26563 -2.39395,0.67495 -4.9033,1.27083 -7.54493,1.79492 -2.64162,0.52409 -5.41572,0.97695 -8.33398,1.36133 -2.91827,0.38438 -5.98122,0.70121 -9.20508,0.95703 -15.27208,1.21185 -26.65145,2.02058 -38.02344,2.63477 -11.37198,0.61418 -22.73658,1.03384 -37.97656,1.46874 -17.325,0.49442 -35.775,1.36382 -41,1.9336 -2.66787,0.29092 -9.00009,0.50959 -17.38086,0.6543 -8.38076,0.14471 -18.80941,0.21603 -29.67187,0.21484 -10.86247,-10e-4 -22.15852,-0.0759 -32.27149,-0.22266 -10.11296,-0.14676 -19.04351,-0.36618 -25.17578,-0.6582 -8.8,-0.41907 -26.575,-1.25947 -39.5,-1.86523 -7.84701,-0.36778 -14.18888,-0.69722 -19.47266,-1.04297 -5.28378,-0.34576 -9.51002,-0.70849 -13.12304,-1.13868 -3.61303,-0.43018 -6.61252,-0.92778 -9.44727,-1.54882 -2.83474,-0.62105 -5.50419,-1.36486 -8.45312,-2.28321 -2.74857,-0.85594 -8.45352,-2.19325 -15.43164,-3.6582 -6.97813,-1.46494 -15.22943,-3.05752 -23.06836,-4.42383 -15.67787,-2.73261 -32.55391,-5.67432 -37.50391,-6.53711 -2.5476,-0.44405 -4.7584,-0.90283 -6.68359,-1.39843 -1.92519,-0.49561 -3.56434,-1.02733 -4.96875,-1.61719 -1.40441,-0.58986 -2.57333,-1.23803 -3.5586,-1.96485 -0.98526,-0.72681 -1.78731,-1.53298 -2.45507,-2.43945 -0.50647,-0.6875 -1.1821,-2.4375 -1.86133,-4.70312 -0.67924,-2.26563 -1.36208,-5.04688 -1.88672,-7.79688 -0.91158,-4.77818 -2.31716,-10.67031 -4.55469,-18.92187 -2.23753,-8.25156 -5.30702,-18.86255 -9.54492,-33.07813 -1.45241,-4.87194 -2.59469,-8.87489 -3.53711,-12.70703 -0.94242,-3.83214 -1.68474,-7.49352 -2.33399,-11.68555 -0.64924,-4.19203 -1.20642,-8.91361 -1.77929,-14.86523 -0.57288,-5.95162 -1.16168,-13.13323 -1.875,-22.24414 -1.14596,-14.63691 -1.78609,-23.97205 -2.08789,-32.98047 -0.30181,-9.00842 -0.2653,-17.69012 -0.0566,-31.01758 0.1339,-8.55321 0.33605,-15.94061 0.65625,-22.65039 0.32019,-6.70978 0.75873,-12.74135 1.36718,-18.58789 0.60846,-5.84654 1.38609,-11.50721 2.38477,-17.4707 0.99868,-5.96349 2.21811,-12.23039 3.70898,-19.29102 1.91622,-9.075 4.65159,-24.375 6.08008,-34 1.42849,-9.625 3.43204,-21.55 4.45117,-26.5 1.01913,-4.95 2.82036,-16.425 4.00391,-25.5 1.18356,-9.075 3.11246,-22.8 4.28516,-30.5 0.49625,-3.25844 0.88133,-6.10807 1.18945,-9.71289 0.30812,-3.60482 0.5398,-7.96561 0.73047,-14.24609 0.38133,-12.56096 0.59792,-32.80173 0.93359,-70.04102 0.2452,-27.20198 0.50659,-49.23281 0.84961,-67.47265 0.34302,-18.23985 0.76781,-32.68853 1.33985,-44.72461 0.57203,-12.03609 1.29039,-21.65931 2.22265,-30.25 0.93226,-8.5907 2.07827,-16.14907 3.50196,-24.05274 3.28301,-18.22592 5.2677,-29.53342 6.62109,-38.19336 1.35338,-8.65994 2.07547,-14.67231 2.83398,-22.30664 0.76482,-7.69767 1.59141,-14.68207 2.48633,-20.99023 0.89492,-6.30817 1.85806,-11.94084 2.89844,-16.9336 1.04038,-4.99275 2.15817,-9.34621 3.35937,-13.09765 1.20121,-3.75145 2.4859,-6.90015 3.86329,-9.48438 1.51015,-2.83334 3.54613,-5.86437 5.92578,-8.91015 2.37964,-3.04579 5.10249,-6.10619 7.98828,-9 2.88579,-2.89382 5.93431,-5.62061 8.96289,-7.99805 3.02858,-2.37744 6.03769,-4.40569 8.8457,-5.90235 2.83188,-1.50937 7.50932,-3.43558 13.27735,-5.54492 5.76802,-2.10933 12.62702,-4.402218 19.81835,-6.640622 7.19134,-2.238404 14.71655,-4.423726 21.81836,-6.320312 7.10181,-1.896587 13.77985,-3.504008 19.2793,-4.587891 5.00828,-0.987079 13.00749,-2.247276 22.72266,-3.625 9.71517,-1.377724 21.1468,-2.872828 33.01562,-4.328125 11.86883,-1.455297 24.17529,-2.872 35.64453,-4.091797 11.46924,-1.219797 22.10077,-2.242837 30.61719,-2.914062 13.2059,-1.040828 24.8852,-1.770578 37.72266,-2.251953 12.83745,-0.481376 26.83306,-0.714379 44.67383,-0.761719 z"
       style="fill:#000000;fill-opacity:1;fill-rule:nonzero;stroke:none" />
    <g
       id="g4489">
      <path
         style="fill:#d40000"
         d="m 473.00781,561.7168 c -1.27582,-0.2086 -1.96337,0.0242 -2.35156,0.65234 -1.01356,1.63997 -3.67183,22.51125 -3.09766,24.32031 1.47629,4.65137 7.67525,-0.16867 12.82813,-9.97461 4.90889,-9.34165 4.78765,-10.38664 -1.4961,-12.99804 -2.74347,-1.14014 -4.60699,-1.79141 -5.88281,-2 z m 51.51367,6.13672 c -0.43852,-0.25344 -1.2502,-0.13657 -2.74609,0.17187 -1.7875,0.36858 -4.9375,0.91713 -7,1.21875 -4.57477,0.66902 -4.76695,2.30587 -0.67383,5.75 4.13645,3.48061 8.62891,3.49099 9.94727,0.0234 0.53639,-1.4108 0.97656,-3.71166 0.97656,-5.11328 0,-1.17296 -0.0654,-1.79735 -0.50391,-2.05078 z"
         id="path4468" />
      <path
         style="fill:#d40000"
         d="m 550.18164,549.58203 c -1.90754,0 -9.06483,8.08673 -9.11523,10.29883 -0.0265,1.16265 1.46216,2.4914 4.20898,3.75391 2.3375,1.07438 5.6,1.83994 7.25,1.70117 2.63872,-0.22192 3.03987,-0.6754 3.33594,-3.75391 0.38193,-3.97138 -3.41802,-12 -5.67969,-12 z"
         id="path4466" />
      <path
         style="fill:#d40000"
         d="m 446.16211,539.7832 c -4.13112,0.76652 -14.37658,21.13 -12.75586,25.35352 0.3053,0.79562 0.95353,1.44531 1.43945,1.44531 3.62045,0 17.17969,-14.46858 17.17969,-18.33203 0,-3.02865 -4.00475,-8.81165 -5.86328,-8.4668 z"
         id="path4464" />
      <path
         style="fill:#d40000"
         d="m 483.03711,523.58203 c -2.44297,0 -21.34254,19.70053 -20.64453,21.51953 0.75173,1.95895 4.25631,1.9018 5.01758,-0.082 0.41331,-1.07707 1.61436,-1.46617 3.85742,-1.25 3.20097,0.30848 3.25238,0.3936 3.02539,4.94922 l -0.23047,4.63477 5.96484,2.23046 c 5.56782,2.08223 9.25384,2.25307 13.05274,0.60743 0.92965,-0.40271 2.9397,0.32224 5,1.80078 2.11104,1.51495 4.60717,2.39798 6.44531,2.28125 l 3,-0.19141 -0.3457,-8.09765 c -0.5846,-13.71087 -0.89673,-14.45048 -6.91407,-16.41211 -6.30799,-2.05639 -12.46255,-6.16507 -14.25781,-9.51954 -0.72703,-1.35848 -2.0629,-2.4707 -2.9707,-2.4707 z"
         id="path4462" />
      <path
         style="fill:#d40000"
         d="m 436.7168,511.58203 c -4.91463,0 -7.94475,0.48656 -9.25,1.48242 -1.68015,1.28188 -1.73974,1.61564 -0.44141,2.48438 0.825,0.55203 3.3,1.04274 5.5,1.08984 2.2,0.0471 4.9,0.47067 6,0.94336 4.20011,1.80485 5.5,1.21399 5.5,-2.5 l 0,-3.5 -7.30859,0 z"
         id="path4460" />
      <path
         style="fill:#d40000"
         d="m 501.55078,500.67188 c -4.27607,0.0934 -7.75219,1.13695 -9.58203,2.96679 -1.46262,1.46262 -1.94336,3.33097 -1.94336,7.54297 0,10.53693 4.13464,15.23637 14.47852,16.45703 11.81552,1.39432 13.22618,0.29512 14.26171,-11.125 0.93041,-10.26082 -2.43558,-14.39724 -12.70312,-15.61328 -1.57173,-0.18615 -3.08636,-0.25966 -4.51172,-0.22851 z m 26.05664,23.91015 c -0.8427,0 -2.26996,1.4625 -3.17187,3.25 -2.12899,4.21943 -6.39224,8.75 -8.23438,8.75 -1.22043,0 -1.33561,1.69475 -0.73047,10.72852 0.39526,5.90066 0.95813,11.11564 1.25,11.58789 0.29187,0.47226 1.49059,0.60056 2.66602,0.28515 1.17543,-0.3154 2.47617,-0.57989 2.88867,-0.58789 0.4125,-0.008 0.75,-1.0475 0.75,-2.3125 0,-4.35355 5.28738,-6.46968 8,-3.20117 0.68469,0.825 1.61851,1.5 2.07617,1.5 2.38628,0 11.94982,-12.61476 11.88672,-15.67969 -0.042,-2.04225 -14.94434,-14.32031 -17.38086,-14.32031 z"
         id="path4458" />
      <path
         style="fill:#d40000"
         d="m 535.49805,479.79883 c -0.66516,-0.14067 -1.25731,-0.12972 -1.74805,0.0586 -1.32998,0.51036 -6.09621,7.22341 -10.30078,14.50781 l -1.89453,3.28321 2.73437,4.86328 c 1.50411,2.67575 2.73633,5.71203 2.73633,6.74609 0,3.01936 2.61,5.95787 11.83399,13.32227 4.76631,3.80542 9.21065,6.93774 9.87695,6.96094 3.68238,0.12812 5.0392,-24.16887 1.88086,-33.67774 -2.22023,-6.68448 -10.46306,-15.07975 -15.11914,-16.06445 z m 24.77734,10.96484 c -2.18881,-0.31086 -3.12354,1.61279 -1.54883,3.1875 1.16503,1.16503 3.79883,0.20595 3.79883,-1.38281 0,-0.81746 -1.0125,-1.62894 -2.25,-1.80469 z m 22.10547,6.11719 c -3.85718,-0.0872 -8.78459,0.79844 -13.06836,2.69336 -6.75497,2.98805 -8.28711,4.68272 -8.28711,9.16406 0,2.11475 0.47152,3.84375 1.04883,3.84375 2.14936,0 6.95117,-3.10156 6.95117,-4.49023 0,-1.88175 3.1312,-3.50977 6.75195,-3.50977 4.77865,0 13.24805,-2.91632 13.24805,-4.5625 0,-1.99174 -2.78736,-3.05149 -6.64453,-3.13867 z m -20.20117,19.7793 c -0.89121,-0.17008 -1.35598,1.51231 -2.14453,6.35742 -0.51088,3.13897 -2.07125,8.20332 -3.46875,11.25586 -1.3975,3.05254 -2.54102,5.94616 -2.54102,6.42968 0,0.48354 6.71703,0.87891 14.92773,0.87891 12.23204,0 15.2117,-0.282 16.49805,-1.56836 3.77616,-3.77615 3.13537,-11.56053 -1.30273,-15.8125 -3.17997,-3.04661 -10.54094,-5.61914 -16.08203,-5.61914 -2.00259,0 -4.17339,-0.53081 -4.82422,-1.18164 -0.41946,-0.41946 -0.76543,-0.68354 -1.0625,-0.74023 z"
         id="path4456" />
      <path
         style="fill:#d40000"
         d="m 572.7207,468.58203 c -1.92327,0 -9.80001,5.29645 -12.8164,8.61719 -1.5285,1.68272 -2.84416,4.54927 -3.15821,6.88281 -0.29607,2.2 -0.31731,3.4375 -0.0469,2.75 0.27045,-0.6875 1.05997,-1.25 1.7539,-1.25 0.69392,0 2.09457,-0.9212 3.11329,-2.04687 1.01871,-1.12567 3.22722,-2.70207 4.90625,-3.50391 5.04438,-2.40902 9.97762,-11.44922 6.24804,-11.44922 z"
         id="path4454" />
      <path
         style="fill:#d40000"
         d="m 435.88086,465.75391 c -1.79019,0.41676 -1.86329,1.91234 -0.48633,4.54882 1.8778,3.59544 5.78613,7.19018 12.63086,11.61915 3.025,1.95736 6.28123,3.58147 7.23633,3.60937 1.86813,0.0545 8.69163,-6.68189 8.73633,-8.625 0.0403,-1.75017 -9.51671,-6.84042 -17.32813,-9.22852 -5.49101,-1.67871 -8.99887,-2.34059 -10.78906,-1.92382 z m 69.375,6.0957 c -3.1924,0.0248 -6.44008,0.20913 -9.45313,0.58008 -8.94637,1.10143 -18.77939,4.51841 -18.77539,6.52539 0.001,0.61977 3.54617,3.92935 7.87891,7.35351 l 7.87891,6.22657 8.15625,-0.10743 c 4.48634,-0.0581 8.4407,0.17897 8.78711,0.52539 0.34641,0.34642 1.65006,0.62891 2.89648,0.62891 1.77536,0 3.38254,-1.8485 7.42383,-8.53906 2.83724,-4.6972 4.93235,-9.13282 4.65429,-9.85742 -0.78645,-2.04948 -9.87007,-3.41023 -19.44726,-3.33594 z m -36.16406,12.73242 c -0.97787,0 -7.06641,7.33379 -7.06641,8.51172 0,0.39824 -1.35,2.26334 -3,4.14258 -3.19317,3.63682 -3.60182,5.63704 -2.00391,9.83984 0.8703,2.28907 0.60685,2.98041 -2.06836,5.42383 -2.58276,2.35899 -3.01653,3.41408 -2.74804,6.6875 0.27923,3.40435 0.67858,3.94868 3.21289,4.39062 5.07399,0.88481 6.24004,6.50381 1.60156,7.7168 -1.28932,0.33717 -1.99414,1.36395 -1.99414,2.9043 0,4.44039 3.0074,2.49554 14.30664,-9.25391 10.27608,-10.68553 11.29662,-12.0978 12.4707,-17.23047 0.70332,-3.0747 1.71582,-6.02636 2.25,-6.56054 2.49296,-2.49296 0.83325,-5.249 -6.54492,-10.85742 -4.13482,-3.14304 -7.92205,-5.71485 -8.41601,-5.71485 z"
         id="path4452" />
      <path
         style="fill:#d40000"
         d="m 549.52539,456.58203 c -0.83333,0 -1.5,0.88889 -1.5,2 0,1.11111 0.66667,2 1.5,2 0.83333,0 1.5,-0.88889 1.5,-2 0,-1.11111 -0.66667,-2 -1.5,-2 z"
         id="path4450" />
      <path
         style="fill:#d40000"
         d="m 516.38086,417.81055 c -23.50288,-0.61072 -57.66673,6.771 -72.13867,16.34179 -11.36702,7.51741 -22.96455,20.70577 -28.38672,32.2793 -3.93208,8.39295 -12.20444,33.59341 -14.39453,43.85156 -3.044,14.25777 -1.71652,35.94787 3.13867,51.29883 3.77281,11.92876 15.14914,28.71182 25.50781,37.62891 9.31272,8.0167 24.44381,14.97612 43.41797,19.96875 3.23769,0.85196 7.99593,1.12447 13.5,0.77539 4.675,-0.29649 9.625,-0.48417 11,-0.41797 1.375,0.0662 5.2581,-0.38757 8.62891,-1.00781 4.89411,-0.90055 6.55949,-1.70921 8.26758,-4.01953 3.35625,-4.53958 7.48127,-6.21187 13.4746,-5.46094 11.13465,1.3951 12.73879,1.13703 22.80664,-3.66016 11.20714,-5.34004 16.8625,-9.02851 25.60938,-16.70703 27.04237,-23.73938 40.1632,-70.60448 28.83008,-102.96875 -4.77895,-13.64734 -16.19806,-31.66035 -25.87305,-40.81055 -12.64365,-11.95784 -36.74532,-23.69343 -54.05664,-26.32226 -2.83395,-0.43035 -5.97448,-0.68229 -9.33203,-0.76953 z m -14.63281,17.00976 c 3.73092,-0.48682 7.6664,4.1127 8.73047,11.48633 1.57468,10.91206 2.9354,11.96725 5.95703,4.62109 2.35472,-5.72477 9.44608,-13.3457 12.41797,-13.3457 5.63255,0 7.62923,6.84166 4.76953,16.34375 -0.81841,2.71936 -1.02056,4.89519 -0.48438,5.22656 0.50536,0.31234 3.69966,-1.94647 7.09766,-5.02148 6.75238,-6.11055 10.72892,-7.75253 15.14648,-6.25 5.31861,1.809 6.46308,8.56046 2.65821,15.66992 -2.05987,3.84891 0.26274,4.05926 5.85351,0.5293 6.87231,-4.33909 10.15392,-5.05381 14.02735,-3.05078 8.10675,4.19216 6.15367,14.01502 -4.73243,23.80273 -2.29396,2.0625 -3.60706,3.75763 -2.91797,3.76563 0.85554,0.0105 0.7782,0.35887 -0.24609,1.0957 -1.20579,0.86738 -1.10773,0.93991 0.5,0.37305 1.1,-0.38785 4.94806,-0.93462 8.55273,-1.21485 5.3869,-0.41876 7.29949,-0.13029 10.73633,1.62305 10.29179,5.25048 9.92485,14.38803 -0.77539,19.29687 -2.75745,1.265 -5.01367,2.70853 -5.01367,3.20899 0,0.50046 1.81423,2.46392 4.0332,4.36328 7.94868,6.80377 10.2796,15.84608 6.15625,23.88867 -3.52619,6.87785 -7.59591,8.66158 -20.92773,9.17188 -10.00933,0.38313 -11.29671,0.62983 -10.70117,2.05664 2.46424,5.9039 2.6069,8.95368 0.62695,13.42968 -3.84882,8.70089 -10.89996,10.16782 -21.93945,4.56446 -6.86484,-3.48441 -8.19832,-3.17427 -8.23242,1.91015 -0.0445,6.62628 -6.66365,14.2168 -12.39649,14.2168 -4.41538,0 -11.2232,-4.53599 -16.61914,-11.07617 -5.34124,-6.47389 -5.86203,-6.8884 -8.70312,-6.9082 -1.77369,-0.0123 -2.99713,1.6134 -6.28907,8.35156 -4.43986,9.08781 -9.68391,15.91036 -13.85937,18.0332 -6.722,3.41751 -11.71227,2.14976 -14.47852,-3.67969 -2.16901,-4.57084 -2.10713,-8.97206 0.32813,-23.21679 1.09971,-6.43264 1.74858,-12.1026 1.4414,-12.59961 -1.43253,-2.31789 -4.6164,-0.52167 -8.86523,5 -13.53227,17.5862 -28.57422,19.28732 -28.57422,3.23242 0,-6.44844 6.8605,-20.37662 13.93945,-28.29687 3.84995,-4.3075 5.06055,-6.42517 5.06055,-8.86524 0,-2.89655 -0.21741,-3.13021 -2.25,-2.4043 -3.0652,1.09469 -12.76047,0.77421 -17.82617,-0.58984 -9.7408,-2.62292 -11.70726,-9.89802 -4.2168,-15.5957 4.76981,-3.62821 11.48629,-5.38477 20.59375,-5.38477 l 6.20117,0 2.41016,-4.53906 c 1.39807,-2.63539 2.02637,-4.87467 1.49805,-5.33789 -0.50057,-0.43889 -4.16087,-2.92151 -8.13282,-5.51758 -14.31967,-9.3594 -20.08432,-19.9248 -14.25585,-26.12891 1.28072,-1.36326 3.85912,-2.9018 5.72851,-3.41797 6.28321,-1.73488 22.39741,3.72444 33.59766,11.38282 2.40778,1.64638 4.55979,2.4051 5.75,2.02734 2.16287,-0.68647 2.30173,-1.57118 0.92383,-5.89648 -0.53809,-1.68905 -1.86142,-7.04917 -2.93946,-11.91016 -2.12629,-9.58769 -1.60148,-13.04572 2.16211,-14.24023 3.21832,-1.02146 7.6348,4.2292 12.94922,15.39257 3.71432,7.80223 5.32303,10.22996 6.60742,9.97461 1.43507,-0.28532 1.64632,-1.36031 1.35547,-6.95117 -0.42519,-8.17329 1.29227,-16.86735 4.01758,-20.33203 1.08392,-1.37798 2.30519,-2.1053 3.54883,-2.26758 z"
         id="path4448" />
    </g>
    <g
       style="fill:url(#linearGradient4716);fill-opacity:1"
       id="g4513">
      <path
         style="fill:url(#linearGradient501);fill-opacity:1"
         d="m 571.95508,296.82422 c -7.95155,-0.0847 -16.33522,0.64975 -27.16016,2.18359 -10.30114,1.45962 -21.77614,3.47056 -25.5,4.4668 -16.41914,4.39263 -32.26953,9.67419 -32.26953,10.75391 0,0.64618 2.03738,2.16182 4.52734,3.36718 6.79917,3.29142 9.97266,8.03706 9.97266,14.91016 0,6.85743 -2.59284,10.97526 -8.80078,13.98047 -4.86938,2.35723 -11.22469,8.4392 -10.33008,9.88672 0.32748,0.52987 2.61772,1.47175 5.08789,2.09375 8.89433,2.23962 14.65022,10.39404 13.11524,18.57617 -0.91373,4.87057 -7.23771,11.1985 -12.10352,12.11133 -4.96103,0.93069 -13.31691,-0.16737 -19.84375,-2.60938 -11.06238,-4.13896 -17.27756,-10.97177 -19.75781,-21.7168 -2.24192,-9.71253 2.4462,-22.58866 12.21484,-33.54882 2.70494,-3.03488 4.91797,-6.00808 4.91797,-6.60742 0,-1.3497 -3.66185,-1.44685 -4.48242,-0.11915 -0.3296,0.53331 -3.75578,1.90978 -7.61328,3.0586 -8.61532,2.56575 -33.04452,14.72182 -38.14844,18.98242 -2.05941,1.71913 -7.90941,5.85287 -13,9.1875 -15.08476,9.88141 -37.08579,29.87124 -35.08203,31.875 0.48142,0.48142 3.71942,-0.0331 7.34375,-1.16797 4.09295,-1.28162 9.17241,-2.02091 13.78125,-2.0039 8.9729,0.0331 15.11712,2.98553 21.89258,10.52148 4.70238,5.23017 12.44107,20.18773 16.46679,31.82617 1.31327,3.79669 2.91901,6.75 3.66993,6.75 0.73426,0 3.21134,-1.52189 5.5039,-3.38281 13.52997,-10.9826 42.24747,-19.33742 69.94531,-20.34961 17.79813,-0.65042 26.78216,0.62616 38.72266,5.50195 31.23893,12.75612 45.87497,25.42438 61.49609,53.23047 5.39066,9.59555 10.50391,23.6969 10.50391,28.96875 0,3.83693 1.82252,4.23299 5.75586,1.25195 4.34097,-3.28998 10.8324,-3.98348 15.69141,-1.67773 5.00465,2.37486 8.23908,7.61025 9.46679,15.32617 1.24582,7.82975 4.04585,13.52348 6.85743,13.94141 2.72144,0.40454 8.72534,-5.03775 15.21874,-13.79688 5.45493,-7.35826 9.56714,-10.01367 15.50977,-10.01367 8.24365,0 14.47614,5.6961 15.26953,13.95313 0.56324,5.86167 -1.2559,9.56521 -10.21094,20.80664 -11.9086,14.94908 -23.93382,21.69637 -37.55859,21.07226 -8.12871,-0.37235 -12.99192,-2.31997 -20.14258,-8.0664 -3.86608,-3.10687 -10.89195,-13.12663 -12.28125,-17.51563 -0.76126,-2.40494 -3.41955,-3.07416 -3.97265,-1 -5.49479,20.60573 -11.72106,35.0378 -19.8418,45.99024 -6.85814,9.24956 -7.02233,11.46828 -0.67969,9.23046 5.70861,-2.01411 14.5301,-1.83214 19.41797,0.40039 11.52978,5.26626 17.94912,19.14912 19.12305,41.35352 0.29879,5.65152 0.71594,10.83789 0.92773,11.52539 0.21179,0.6875 0.92027,1.25 1.57422,1.25 5.66351,0 41.53531,-37.69509 58.52539,-61.5 7.21629,-10.11081 9.45414,-14.33256 16.16992,-30.51562 9.82727,-23.6808 13.08913,-35.05468 17.77344,-61.98438 2.41739,-13.8974 2.70175,-18.03315 2.74805,-40 0.0547,-25.93585 -0.70984,-33.84499 -4.85938,-50.25976 -7.69519,-30.44073 -23.15669,-50.11852 -51.82617,-65.95704 -33.8323,-18.69073 -54.87466,-27.14453 -79.15625,-31.80468 -9.09819,-1.74614 -16.61876,-2.6516 -24.57031,-2.73633 z m -23.23828,12.75781 c 4.66413,0 17.60415,7.5342 24.45117,14.23633 10.99866,10.76592 17.03815,33.49452 12.39648,46.65039 -3.93668,11.15775 -11.70619,18.00623 -27.33789,24.09961 -11.13317,4.33982 -15.87207,4.87131 -20.98437,2.35156 -9.76398,-4.81247 -10.96287,-20.11073 -2.07227,-26.4414 1.59457,-1.13543 6.60183,-3.50354 11.12696,-5.26368 8.08826,-3.1461 8.23357,-3.2625 8.5371,-6.88867 0.56171,-6.71051 -2.70678,-11.93335 -10.70507,-17.10742 -8.53738,-5.5228 -11.09461,-9.246 -11.09961,-16.1543 -0.007,-8.88178 6.68031,-15.48242 15.6875,-15.48242 z m 101.75,57.1875 c 1.17397,-0.006 2.36041,0.0211 3.55859,0.082 14.28915,0.72618 24.90937,5.50981 34.91211,15.72461 5.67612,5.79647 10.42183,15.76603 10.33203,21.70508 -0.13554,8.96587 -8.02665,16.03714 -16.79492,15.04883 -5.72906,-0.64575 -9.7711,-3.73627 -13.71875,-10.49219 -4.1862,-7.16419 -9.52986,-10.26422 -17.63867,-10.23242 -6.68957,0.0263 -12.34523,2.41956 -16.79102,7.10547 -5.09696,5.37224 -6.58329,10.06404 -7.29883,23.05078 -0.56679,10.28696 -0.95301,12.14637 -3.23437,15.59375 -1.42462,2.15274 -4.16038,4.65935 -6.08008,5.57031 -7.21267,3.42264 -15.00585,1.15767 -19.5293,-5.67773 -2.35407,-3.55724 -2.67659,-5.13031 -2.99023,-14.57617 -0.5475,-16.48902 2.98989,-28.33741 12.17187,-40.7793 10.65356,-14.43595 25.492,-22.03262 43.10157,-22.12305 z"
         id="path4441" />
      <path
         style="fill:url(#linearGradient503);fill-opacity:1"
         d="m 356.54297,399.58203 c -1.91462,0 -14.48183,14.54066 -19.09961,22.09766 -2.15203,3.52181 -7.90366,14.72734 -12.78125,24.90234 -21.28872,44.40977 -24.6383,54.19795 -26.69336,78 -0.54609,6.325 -1.40019,13.975 -1.89648,17 -2.09506,12.77001 -0.72194,38.48567 3.06445,57.38672 2.28889,11.42582 8.92936,32.17127 14.44726,45.13672 12.76817,30.00149 32.80725,49.24639 64.5918,62.0332 15.29698,6.15391 32.67221,10.96931 46.34961,12.84375 1.65,0.2261 13.8,0.29748 27,0.1582 l 24,-0.2539 15.5,-4.08594 c 8.525,-2.24675 21.35,-6.17943 28.5,-8.74023 7.15,-2.56081 15.47626,-5.04467 18.50391,-5.51953 7.7731,-1.21912 25.85209,-8.28801 42.27343,-16.5293 10.69473,-5.36731 34.72266,-22.2616 34.72266,-24.41406 0,-0.46832 -1.48061,-1.76709 -3.28906,-2.88477 -5.65046,-3.49218 -7.3789,-8.03715 -8.56836,-22.53711 -0.58236,-7.09919 -1.50946,-13.35906 -2.06055,-13.91016 -0.97587,-0.97586 -2.1497,-0.305 -11.98047,6.84571 -9.77471,7.10994 -23.59809,-0.97705 -23.40625,-13.69336 0.0498,-3.30086 -0.33273,-4.83594 -1.20703,-4.83594 -0.70434,0 -5.99111,2.20044 -11.74805,4.88867 l -10.46679,4.88672 0.0781,5.4375 c 0.0583,4.034 -0.6866,7.09588 -2.88672,11.86328 -2.34835,5.08859 -2.96484,7.81187 -2.96484,13.09375 0,8.52561 2.16503,11.21404 10.38281,12.88867 3.08891,0.62947 6.98335,1.97707 8.6543,2.99415 3.78696,2.30506 7.46289,8.68112 7.46289,12.94726 0,4.3047 -3.6801,10.63925 -7.58203,13.05078 -9.97246,6.16332 -28.61696,1.07731 -39.43359,-10.75781 -6.47587,-7.08564 -9.74028,-14.10433 -11.19141,-24.06055 -0.96387,-6.61306 -0.93848,-9.65806 0.12891,-15.48242 0.73078,-3.98761 1.55604,-8.53913 1.83398,-10.11523 l 0.50391,-2.86524 -7.88086,0.67969 c -16.31103,1.407 -21.29718,1.05265 -33.37891,-2.36914 -17.0187,-4.82003 -32.93389,-13.36997 -43.66406,-23.45899 -10.75354,-10.111 -21.31989,-25.97321 -26.01172,-39.04882 -4.04503,-11.27308 -6.19727,-34.18137 -4.37891,-46.61719 2.38469,-16.30901 12.24436,-46.14015 19.24024,-58.2168 2.15457,-3.71932 3.67777,-7.1482 3.38672,-7.61914 -0.29106,-0.47093 -2.32728,-1.14265 -4.52539,-1.49414 -5.62434,-0.89937 -10.08453,-5.75376 -14.03321,-15.27148 -4.55426,-10.97742 -7.87474,-17.35352 -9.03906,-17.35352 -0.5455,0 -2.85701,1.35 -5.13477,3 -3.31734,2.40307 -5.15831,3 -9.25781,3 -9.93685,0 -16.33653,-7.39759 -15.27734,-17.66015 0.41941,-4.06376 0.23015,-5.33985 -0.78711,-5.33985 z m -8,44.00391 c 11.47104,-0.009 18.13704,10.21751 14.10742,21.63867 -0.75544,2.14114 -1.91445,8.60949 -2.57617,14.375 -1.27921,11.14566 -0.58474,17.80446 1.97656,18.9668 10.82523,4.91262 13.9769,8.61714 13.9668,16.41406 -0.008,6.11621 -2.25468,9.99905 -7.68946,13.28906 -4.84377,2.93224 -13.91879,3.12451 -19.86914,0.42188 -15.42923,-7.00794 -22.63151,-24.54319 -20.42382,-49.72657 2.30386,-26.2804 7.57207,-35.3689 20.50781,-35.3789 z m 0.48242,127.56836 c 11.58989,0.078 20.38022,2.40915 32.90039,8.72656 8.86453,4.47285 12.59961,9.25217 12.59961,16.12305 0,4.19364 -0.55837,5.96569 -2.80273,8.9082 -5.99808,7.86388 -11.6468,8.43863 -25.40235,2.58398 -7.33512,-3.12199 -11.04284,-4.12568 -15.69922,-4.25 l -6.0957,-0.16406 -0.30859,3.72461 c -0.26003,3.13581 0.2453,4.28047 3.20117,7.23633 7.48736,7.48736 5.51394,20.50794 -3.77539,24.91601 -10.06644,4.77684 -22.30076,-0.92221 -28.32813,-13.19531 -2.5636,-5.22008 -2.78906,-6.6165 -2.78906,-17.20117 0,-10.98424 0.15196,-11.82972 3.25977,-18.14258 3.7937,-7.7061 9.21374,-12.99441 17.11914,-16.70117 4.99911,-2.34404 6.78112,-2.62735 16.12109,-2.56445 z m 98.03516,75.68359 c 2.87041,0.27483 5.73708,1.15951 7.71289,2.56641 5.7834,4.11814 7.97607,13.34629 4.67578,19.67578 -5.26649,10.10037 -19.06283,22.51705 -30.48438,27.43554 -5.85923,2.52317 -19.7098,3.71509 -25.43945,2.18946 -9.65694,-2.57133 -22.09966,-12.45379 -25.96484,-20.62305 -2.72118,-5.75137 -3.15895,-13.38473 -1.02539,-17.88086 2.70454,-5.6994 6.87379,-8.11914 13.99023,-8.11914 7.16719,0 11.313,2.43688 14.00391,8.23047 2.70332,5.82029 4.39316,7.26953 8.47851,7.26953 4.84206,0 11.44745,-4.41654 18.11524,-12.11328 2.84876,-3.28836 6.54237,-6.68214 8.20703,-7.54297 1.98694,-1.02748 4.86005,-1.36272 7.73047,-1.08789 z"
         id="path4446" />
      <path
         style="fill:url(#linearGradient505);fill-opacity:1"
         d="m 575.52539,272.13281 -31.5,0.008 c -32.35466,0.008 -41.41402,0.6909 -60.5,4.56055 -41.0589,8.32461 -70.24702,22.99589 -112,56.29492 -12.90418,10.2914 -37.28876,34.63115 -45.93359,45.84961 -7.53958,9.78418 -27.22121,42.09821 -34.6211,56.84375 -13.2293,26.36159 -22.72592,56.95985 -27.43554,88.39258 -2.61536,17.45528 -1.53261,42.98248 3.05468,72 7.1689,45.34789 13.46262,63.9334 30.47657,90 14.07165,21.55877 20.53862,26.88168 44.45898,36.59766 8.25,3.35099 20.4,8.57299 27,11.60351 17.11391,7.8582 21.21168,9.36761 27.98828,10.30469 10.05637,1.39062 51.49638,0.45658 67.51172,-1.52148 14.40853,-1.77961 17.20385,-1.86225 45,-1.33203 11.55027,0.22031 15.92401,-0.099 21.5,-1.56641 8.50653,-2.23865 32.26065,-11.54838 47.3125,-18.54297 20.64934,-9.59575 50.32348,-27.91884 65.78906,-40.62305 14.30612,-11.75178 22.03489,-17.84099 30.35938,-23.91992 10.69651,-7.8111 22.86125,-20.51125 36.87695,-38.5 13.26865,-17.02994 19.70722,-27.54352 28.58203,-46.67578 7.19248,-15.5055 9.79945,-23.69476 15.54297,-48.8125 6.20606,-27.14057 6.49257,-29.96263 6.45117,-63.51172 -0.0585,-47.42772 -2.63629,-62.29409 -15.97461,-92.0957 -8.80949,-19.68289 -17.64405,-31.77433 -32.1289,-43.97656 -17.53204,-14.76921 -25.03934,-18.9357 -50.31055,-27.92579 -33.41624,-11.88765 -37.63306,-13.12202 -62.5,-18.27343 l -25,-5.17774 z m -2.67383,19.27539 20.33594,4.11133 c 22.66609,4.58162 34.47508,7.70154 46.33789,12.24024 4.4,1.68343 13.85,5.05921 21,7.50195 18.16454,6.20577 29.02129,12.84012 44.92969,27.45508 11.82204,10.86084 21.41812,27.68842 30.19726,52.95508 5.11624,14.7247 6.37314,27.3321 6.36914,63.87304 -0.004,34.33504 -0.30042,36.93265 -7.63867,67.03711 -5.14111,21.09086 -7.1163,26.54405 -15.96679,44.06055 -8.01339,15.85976 -11.69868,21.53727 -24.72266,38.0918 -12.32343,15.66408 -25.97947,29.30036 -37.16797,37.11132 -4.4,3.07174 -13.05681,9.85964 -19.23633,15.08399 -24.63065,20.82347 -56.53641,39.40733 -91.82617,53.48437 -16.9296,6.7532 -21.26973,7.86518 -24.32422,6.23047 -3.27038,-1.75025 -37.26457,0.54809 -73.52344,4.97266 -9.00828,1.09921 -40.57596,1.085 -48.09961,-0.0215 -2.75493,-0.40517 -11.07992,-3.55237 -18.5,-6.99414 -7.42006,-3.44177 -19.46821,-8.67756 -26.77343,-11.63672 -23.10279,-9.35836 -27.50924,-12.30199 -35.69727,-23.83203 -17.10286,-24.08354 -26.3751,-47.33296 -30.92773,-77.55078 -0.7872,-5.225 -2.23851,-13.775 -3.22461,-19 -1.43705,-7.61447 -1.79988,-14.85886 -1.83008,-36.5 -0.0365,-26.13313 0.0531,-27.40133 2.80273,-39.5 4.51857,-19.88237 7.34984,-29.19771 13.73633,-45.19336 7.25522,-18.17146 9.85571,-23.42932 20.17578,-40.80664 17.59396,-29.62539 24.45195,-38.80839 41.73047,-55.875 12.54571,-12.39184 28.59574,-25.68885 45.01758,-37.29687 14.13176,-9.98924 20.80833,-13.93147 34.72656,-20.50391 14.80158,-6.98956 28.10978,-11.37114 46.97461,-15.4668 14.78649,-3.21023 14.82376,-3.21286 49.96094,-3.62109 l 35.16406,-0.41016 z"
         id="path4439" />
    </g>
  </g>
</svg>
