<?xml version="1.0" encoding="UTF-8" standalone="no"?>
<svg
   xmlns:osb="http://www.openswatchbook.org/uri/2009/osb"
   xmlns:dc="http://purl.org/dc/elements/1.1/"
   xmlns:cc="http://creativecommons.org/ns#"
   xmlns:rdf="http://www.w3.org/1999/02/22-rdf-syntax-ns#"
   xmlns:svg="http://www.w3.org/2000/svg"
   xmlns="http://www.w3.org/2000/svg"
   xmlns:xlink="http://www.w3.org/1999/xlink"
   version="1.1"
   id="svg2985"
   height="937.18652"
   width="629.9035">
  <defs
     id="defs5498">
    <linearGradient
       osb:paint="solid"
       id="linearGradient4756">
      <stop
         id="stop4758"
         offset="0"
         style="stop-color:#ffffff;stop-opacity:1;" />
    </linearGradient>
    <linearGradient
       osb:paint="solid"
       id="linearGradient4750">
      <stop
         id="stop4752"
         offset="0"
         style="stop-color:#000000;stop-opacity:1;" />
    </linearGradient>
    <linearGradient
       osb:paint="solid"
       id="linearGradient5694">
      <stop
         id="stop5696"
         offset="0"
         style="stop-color:#002b11;stop-opacity:1;" />
    </linearGradient>
    <linearGradient
       osb:paint="solid"
       id="linearGradient4712">
      <stop
         id="stop4714"
         offset="0"
         style="stop-color:#162d50;stop-opacity:1;" />
    </linearGradient>
    <linearGradient
       osb:paint="solid"
       id="linearGradient4706">
      <stop
         id="stop4708"
         offset="0"
         style="stop-color:#d40000;stop-opacity:1;" />
    </linearGradient>
    <linearGradient
       gradientUnits="userSpaceOnUse"
       y2="508.69208"
       x2="761.44257"
       y1="508.69208"
       x1="262.13925"
       id="linearGradient4716"
       xlink:href="#linearGradient4712" />
    <linearGradient
       gradientUnits="userSpaceOnUse"
       y2="500.0004"
       x2="771.30902"
       y1="500.0004"
       x1="228.69211"
       id="linearGradient4754"
       xlink:href="#linearGradient4750" />
    <linearGradient
       gradientUnits="userSpaceOnUse"
       y2="500.10483"
       x2="752.40271"
       y1="500.10483"
       x1="248.61133"
       id="linearGradient4760"
       xlink:href="#linearGradient4756" />
    <linearGradient
       y2="508.69208"
       x2="761.44257"
       y1="508.69208"
       x1="262.13925"
       gradientUnits="userSpaceOnUse"
       id="linearGradient501"
       xlink:href="#linearGradient4712" />
    <linearGradient
       y2="508.69208"
       x2="761.44257"
       y1="508.69208"
       x1="262.13925"
       gradientUnits="userSpaceOnUse"
       id="linearGradient503"
       xlink:href="#linearGradient4712" />
    <linearGradient
       y2="508.69208"
       x2="761.44257"
       y1="508.69208"
       x1="262.13925"
       gradientUnits="userSpaceOnUse"
       id="linearGradient505"
       xlink:href="#linearGradient4712" />
  </defs>
  <metadata
     id="metadata5594">
    <rdf:RDF>
      <cc:Work
         rdf:about="">
        <dc:format>image/svg+xml</dc:format>
        <dc:type
           rdf:resource="http://purl.org/dc/dcmitype/StillImage" />
        <dc:title />
      </cc:Work>
    </rdf:RDF>
  </metadata>
  <g
     transform="translate(-185.04796,-31.406624)"
     style="display:inline"
     id="layer7">
    <path
       id="path4727"
       d="m 543,52.400391 c -17.52873,0.0066 -31.9457,0.06449 -43.93164,0.201171 -11.98594,0.136684 -21.54149,0.352778 -29.34375,0.675782 -7.80226,0.323003 -13.85239,0.75277 -18.83008,1.318359 -4.97769,0.56559 -8.88229,1.266417 -12.39453,2.130859 -4.4,1.082941 -12.275,2.479742 -17.5,3.103516 -5.225,0.623774 -11.975,1.765147 -15,2.53711 -3.025,0.771959 -14.275,2.804597 -25,4.515624 -10.725,1.711028 -21.3,3.522367 -23.5,4.025391 -2.2,0.503024 -10.975,1.63616 -19.5,2.519531 -8.34237,0.864447 -15.34133,1.765326 -21.33203,2.814454 -2.99535,0.524563 -5.73832,1.085867 -8.27149,1.699218 -2.53317,0.613352 -4.8569,1.277262 -7.01171,2.007813 -2.15481,0.730551 -4.14168,1.528135 -6.00196,2.404297 -1.86027,0.876161 -3.59263,1.830675 -5.24219,2.880859 -1.64955,1.050184 -3.21561,2.194647 -4.73828,3.447266 -1.52266,1.252618 -3.00282,2.614192 -4.48242,4.097656 -2.50583,2.512381 -4.5739,4.848633 -6.33594,7.320313 -0.88101,1.23584 -1.68584,2.50552 -2.42968,3.84766 -0.74385,1.34213 -1.42722,2.75711 -2.06641,4.2832 -1.27839,3.05218 -2.38065,6.55081 -3.43555,10.80469 -1.05489,4.25387 -2.06274,9.26308 -3.15429,15.33984 -0.44458,2.475 -1.16413,5.68164 -1.96485,8.85352 -0.80071,3.17187 -1.68258,6.30898 -2.45312,8.64648 -0.71918,2.18169 -1.3662,4.55736 -1.94727,7.18164 -0.58107,2.62428 -1.09586,5.49708 -1.55469,8.67383 -0.91765,6.35349 -1.60701,13.92188 -2.13085,23.14453 -0.32801,5.775 -1.90197,19.95 -3.49805,31.5 -1.59608,11.55 -5.16689,39.675 -7.9336,62.5 -2.76668,22.825 -5.917,46.225 -7.00195,52 -1.08495,5.775 -2.44989,14.73463 -3.0332,19.91016 -0.5833,5.17553 -1.24711,9.71196 -1.47461,10.08007 -0.40246,0.65119 -1.00333,4.07237 -1.64063,8.9961 -0.63729,4.92373 -1.31102,11.35 -1.85546,18.01367 -0.60665,7.425 -1.7357,17.14288 -2.50782,21.5957 -0.77211,4.45281 -1.89895,12.97889 -2.50586,18.94532 -0.60691,5.96644 -2.39275,17.84854 -3.96875,26.40429 -1.576,8.55575 -3.16006,18.92969 -3.51953,23.05469 -0.35948,4.125 -1.51089,12.225 -2.55859,18 -1.24797,6.87881 -2.21262,12.83984 -2.95703,19.625 -0.74442,6.78516 -1.2686,14.39371 -1.63477,24.57031 -0.36617,10.17661 -0.57427,22.92147 -0.6875,39.97461 -0.11323,17.05314 -0.13159,38.4153 -0.11719,65.83008 0.013,24.78476 0.0822,46.07355 0.2168,64.33398 0.13459,18.26044 0.33485,33.49267 0.61133,46.16211 0.27648,12.66945 0.62964,22.77728 1.06836,30.78907 0.43871,8.01178 0.9627,13.92738 1.58398,18.21484 0.3283,2.26557 0.96343,5.36448 1.78125,8.84766 0.81782,3.48318 1.81867,7.35093 2.87696,11.15625 1.05829,3.80531 2.1749,7.54732 3.22461,10.77929 1.0497,3.23198 2.03215,5.95364 2.82421,7.7168 1.35892,3.025 5.29886,11.575 8.75586,19 3.45699,7.425 6.61216,14.625 7.01172,16 0.44783,1.54111 1.44608,3.80067 2.77539,6.41406 1.32932,2.61339 2.98999,5.5815 4.76172,8.53516 1.77173,2.95366 3.65464,5.89315 5.42969,8.45508 1.77505,2.56192 3.44196,4.74541 4.78125,6.18359 1.26593,1.35941 2.38109,2.487 3.56445,3.52539 1.18336,1.0384 2.4343,1.98815 3.97461,2.99219 3.08063,2.00808 7.31533,4.23357 14.46094,7.82422 3.71803,1.8683 6.69622,3.3398 9.34961,4.5664 2.65339,1.22661 4.98159,2.20774 7.4043,3.09961 2.4227,0.89188 4.93886,1.69449 7.96484,2.5586 3.02598,0.8641 6.56218,1.7903 11.02539,2.93359 l 19.5,4.99609 50,-0.49218 c 18.06687,-0.17786 31.50381,-0.4099 41.64258,-0.73828 10.13877,-0.32839 16.97936,-0.75313 21.85742,-1.31836 7.425,-0.86035 15.975,-2.00935 19,-2.55274 7.70554,-1.38416 20.16534,-4.0292 31.93555,-6.70117 11.77021,-2.67197 22.85083,-5.37089 27.80078,-6.85937 6.18014,-1.85843 15.63014,-4.28677 21,-5.39649 7.3346,-1.51574 15.56217,-3.35167 24.1875,-5.39258 8.62533,-2.04091 17.64842,-4.2868 26.57617,-6.61914 8.8,-2.29895 19.15,-5.00201 23,-6.00781 4.9268,-1.28712 7.98302,-2.19213 9.96289,-3.06641 0.98994,-0.43714 1.71048,-0.86655 2.26172,-1.33203 0.55124,-0.46548 0.93291,-0.9673 1.24414,-1.54883 0.456,-0.85201 1.10934,-1.60356 2.03516,-2.28125 0.92582,-0.67768 2.12475,-1.28186 3.67187,-1.83984 1.54712,-0.55798 3.44181,-1.06959 5.76172,-1.5625 2.31991,-0.49291 5.06442,-0.96675 8.30859,-1.44922 3.69462,-0.54946 7.03942,-1.08992 10.11329,-1.66211 3.07386,-0.57219 5.87651,-1.17681 8.48437,-1.85351 2.60786,-0.67671 5.02176,-1.42605 7.31836,-2.28907 2.29659,-0.86301 4.47515,-1.8396 6.61523,-2.9707 2.14008,-1.1311 4.2406,-2.4155 6.37891,-3.89648 2.13831,-1.48099 4.31614,-3.15767 6.60742,-5.07032 4.58257,-3.82529 9.6251,-8.59599 15.74805,-14.63867 3.58497,-3.53798 6.4987,-6.55539 8.91016,-9.32617 2.41145,-2.77078 4.32025,-5.29398 5.89453,-7.8418 1.57427,-2.54782 2.81523,-5.12114 3.88867,-7.99023 1.07343,-2.8691 1.97975,-6.03492 2.88867,-9.76953 0.5948,-2.44389 1.06733,-4.541 1.45117,-6.64258 0.38385,-2.10158 0.67821,-4.2084 0.91992,-6.66797 0.48343,-4.91914 0.75223,-11.25377 1.08008,-21.80664 0.20618,-6.63678 0.58399,-13.61482 1.12305,-20.83203 0.53906,-7.21722 1.23872,-14.67352 2.08789,-22.26758 0.84917,-7.59406 1.84788,-15.32643 2.98437,-23.09375 1.1365,-7.76732 2.41145,-15.56966 3.8125,-23.30664 1.0458,-5.775 2.37654,-15.225 2.95704,-21 0.7817,-7.77623 1.7288,-15.42974 2.89257,-23.3125 1.16377,-7.88276 2.54421,-15.99479 4.19336,-24.6875 1.6173,-8.525 2.93188,-16.91421 2.92188,-18.64258 -0.01,-1.72838 1.50509,-10.27838 3.36719,-19 1.8622,-8.72163 5.2658,-25.98242 7.5625,-38.35742 2.2967,-12.375 5.01426,-26.775 6.03906,-32 0.50435,-2.57137 0.97548,-5.54257 1.42187,-9.00586 0.44639,-3.46329 0.86836,-7.41885 1.27344,-11.96094 0.81016,-9.08417 1.55403,-20.51261 2.29883,-35.0332 0.5996,-11.689 1.29014,-23.13362 1.99023,-33.18359 0.70009,-10.04998 1.40973,-18.70531 2.05078,-24.81641 0.27405,-2.6125 0.52538,-7.57422 0.71094,-13.46484 0.18556,-5.89063 0.30535,-12.71016 0.3125,-19.03516 0.007,-6.325 0.12116,-13.20039 0.29883,-19.18164 0.17767,-5.98125 0.41884,-11.06836 0.68164,-13.81836 1.34358,-14.0607 2.38137,-26.29419 3.125,-37.28516 0.74363,-10.99096 1.19252,-20.73854 1.35742,-29.83203 0.1649,-9.09349 0.0469,-17.5321 -0.3457,-25.90039 -0.39263,-8.36828 -1.05933,-16.66708 -1.98828,-25.48242 -1.2462,-11.825 -2.6934,-28.475 -3.2168,-37 -0.72667,-11.83524 -1.35572,-21.19727 -2.02344,-28.88477 -0.66771,-7.68749 -1.37368,-13.7009 -2.25781,-18.84179 -0.44206,-2.57045 -0.92876,-4.92224 -1.47656,-7.15625 -0.5478,-2.23402 -1.15775,-4.34954 -1.8457,-6.44727 -1.37592,-4.19545 -3.06591,-8.31875 -5.20899,-13.16992 -1.73055,-3.91738 -3.4436,-7.50231 -5.13086,-10.74219 -1.68725,-3.239879 -3.34925,-6.13442 -4.97461,-8.667966 -1.62536,-2.533547 -3.21491,-4.707483 -4.75976,-6.50586 -1.54486,-1.798376 -3.04449,-3.221489 -4.49024,-4.255859 -1.97362,-1.41205 -4.11179,-2.75851 -6.36718,-4.017578 -2.2554,-1.259068 -4.62743,-2.430906 -7.06641,-3.494141 -2.43899,-1.063235 -4.9463,-2.017245 -7.4707,-2.841797 -2.52441,-0.824551 -5.06648,-1.519482 -7.57813,-2.0625 -5.3939,-1.166146 -10.54261,-2.510294 -11.44141,-2.988281 -0.72025,-0.383037 -5.39235,-1.316324 -15.46875,-3.050781 C 690.32009,63.01359 674.8394,60.477962 652.5,56.892578 646.46052,55.923267 640.95268,55.155729 635,54.550781 629.04732,53.945833 622.64948,53.504437 614.82812,53.183594 607.00677,52.862751 597.76268,52.663872 586.11719,52.546875 574.47169,52.429878 560.42511,52.393801 543,52.400391 Z"
       style="color:#000000;clip-rule:nonzero;display:inline;overflow:visible;visibility:visible;opacity:1;isolation:auto;mix-blend-mode:normal;color-interpolation:sRGB;color-interpolation-filters:linearRGB;solid-color:#000000;solid-opacity:1;fill:#ffffff;fill-opacity:1;fill-rule:nonzero;stroke:none;stroke-width:1;stroke-linecap:butt;stroke-linejoin:miter;stroke-miterlimit:4;stroke-dasharray:none;stroke-dashoffset:0;stroke-opacity:1;color-rendering:auto;image-rendering:auto;shape-rendering:auto;text-rendering:auto;enable-background:accumulate" />
    <path
       id="path4725"
       d="m 544.5,31.412109 c -22.49461,-0.0097 -39.46726,-0.0134 -52.57617,0.05664 -13.10891,0.07004 -22.3533,0.213032 -29.39258,0.496094 -7.03928,0.283062 -11.87442,0.706583 -16.16016,1.335937 -4.28573,0.629355 -8.02283,1.465304 -12.87109,2.574219 -4.4,1.006389 -10.7,2.108474 -14,2.449219 -3.3,0.340745 -11.4,1.735532 -18,3.099609 -7.83958,1.620271 -22.31025,4.099783 -36.64844,6.367188 -14.33818,2.267404 -28.54388,4.3227 -35.85156,5.097656 -5.24095,0.555785 -10.1679,1.237258 -14.80469,2.058594 -4.63678,0.821336 -8.98371,1.782027 -13.06445,2.896484 -4.08074,1.114457 -7.89593,2.38321 -11.46875,3.818359 -3.57283,1.435149 -6.90259,3.036901 -10.01563,4.820313 -3.11303,1.783412 -6.00956,3.748958 -8.71093,5.908203 -2.70138,2.159245 -5.20709,4.51157 -7.54493,7.074219 -2.33783,2.562649 -4.50686,5.334501 -6.52929,8.328125 -2.02243,2.993624 -3.89915,6.20994 -5.6543,9.662109 -0.6524,1.283188 -1.40801,3.185873 -2.1875,5.431643 -0.77948,2.24576 -1.582,4.83395 -2.33203,7.48828 -0.75003,2.65433 -1.44768,5.37587 -2.01172,7.88477 -0.56403,2.50889 -0.9953,4.80579 -1.2168,6.61523 -0.44296,3.61869 -1.20736,7.54103 -2.24218,11.57227 -1.03483,4.03124 -2.34009,8.17138 -3.86719,12.22851 -0.59749,1.5874 -1.14416,3.54787 -1.6582,6.0332 -0.51404,2.48534 -0.99544,5.49533 -1.46485,9.1836 -0.9388,7.37654 -1.82715,17.46417 -2.82031,31.48242 -0.31173,4.4 -1.41123,13.85 -2.44336,21 -1.03214,7.15 -2.81036,20.65 -3.95117,30 -1.1408,9.35 -2.48544,20.375 -2.98828,24.5 -0.50284,4.125 -1.81246,14.475 -2.91211,23 -1.09966,8.525 -2.50859,20 -3.13086,25.5 -0.62227,5.5 -1.94802,13.825 -2.94531,18.5 -0.99729,4.675 -2.08851,11.73909 -2.42578,15.69727 -0.33728,3.95818 -1.25499,10.03318 -2.03907,13.5 -0.78407,3.46682 -1.91422,12.15273 -2.50976,19.30273 -0.73187,8.78678 -2.11112,20.86865 -3.75586,33.33789 -1.64475,12.46924 -3.555,25.32584 -5.34571,35.66211 -1.61984,9.35 -3.42209,21.725 -4.00586,27.5 -0.58376,5.775 -1.7032,13.425 -2.48632,17 -0.39157,1.7875 -0.9752,5.83729 -1.59961,10.92188 -0.62442,5.08458 -1.28962,11.20397 -1.84571,17.13085 -0.46997,5.00908 -0.83092,9.30588 -1.10742,14.40821 -0.27649,5.10233 -0.46816,11.01005 -0.59961,19.23828 -0.26289,16.45646 -0.28451,42.19753 -0.25781,89.35351 0.0269,47.4034 0.17383,78.31661 0.59375,101.10352 0.20996,11.39346 0.48742,20.75544 0.85352,29.13086 0.36609,8.37542 0.82005,15.76479 1.38086,23.21289 0.43335,5.75541 1.10304,11.25459 2.0664,16.69141 0.96337,5.43681 2.21984,10.81072 3.82617,16.3164 1.60634,5.50569 3.56352,11.14345 5.92578,17.10547 2.36227,5.96202 5.13019,12.24886 8.36133,19.05469 3.69914,7.79158 7.29313,15.89158 7.98828,18 0.69515,2.10842 4.5978,9.94654 8.67188,17.41992 3.14367,5.76666 5.30509,9.47038 7.54883,12.58984 1.12187,1.55973 2.2644,2.97267 3.56054,4.42579 1.29614,1.45311 2.74585,2.94549 4.48243,4.6621 1.82974,1.80872 3.3594,3.27112 4.83984,4.5586 1.48044,1.28747 2.91219,2.39926 4.54883,3.50781 1.63663,1.10855 3.47706,2.2144 5.77539,3.48633 2.29833,1.27192 5.05401,2.71067 8.51953,4.48828 4.6329,2.37641 9.33388,4.55897 14.17578,6.57227 4.84191,2.01329 9.82427,3.8574 15.01953,5.55468 5.19527,1.69728 10.60389,3.24742 16.29688,4.67579 5.69298,1.42836 11.6708,2.73486 18.00586,3.9414 l 0.002,0 c 1.64032,0.31226 4.52597,0.55728 8.36328,0.74024 3.83731,0.18296 8.6254,0.30397 14.07422,0.36914 10.89764,0.13033 24.43291,0.0374 38.26367,-0.23438 13.83076,-0.2718 27.95712,-0.72277 40.03711,-1.30469 6.04,-0.29095 11.56889,-0.61557 16.29297,-0.96679 4.72408,-0.35123 8.64412,-0.72892 11.4668,-1.12891 4.13478,-0.58593 10.01489,-1.62376 16.68164,-2.90625 6.66675,-1.28249 14.1209,-2.80887 21.40039,-4.375 7.27948,-1.56613 14.38443,-3.17252 20.35742,-4.60937 5.97299,-1.43686 10.81328,-2.70496 13.56055,-3.59961 4.125,-1.34331 11.775,-3.38427 17,-4.53516 14.16571,-3.12025 27.68963,-6.26104 40.13086,-9.30078 12.44122,-3.03974 23.79894,-5.97929 33.63476,-8.69531 9.83582,-2.71602 18.15052,-5.20835 24.5,-7.35743 3.17474,-1.07453 5.85811,-2.06397 7.9961,-2.95117 2.13798,-0.8872 3.72959,-1.67234 4.7207,-2.34179 0.9576,-0.64682 2.08834,-1.23544 3.13867,-1.66211 1.05033,-0.42668 2.02025,-0.69141 2.65625,-0.69141 1.33738,0 3.46833,-0.33499 6.04297,-0.90234 2.57463,-0.56735 5.59311,-1.36741 8.70898,-2.29493 3.11587,-0.92751 6.32798,-1.98201 9.28907,-3.0625 2.96108,-1.08048 5.67097,-2.18661 7.78125,-3.21289 3.2215,-1.56668 6.15511,-3.255 9.08203,-5.25586 2.92691,-2.00085 5.84712,-4.31426 9.04297,-7.13476 3.98362,-3.51575 7.88665,-7.11112 11.5625,-10.63281 3.67584,-3.5217 7.12445,-6.96903 10.19922,-10.18946 3.07476,-3.22043 5.77664,-6.21421 7.95703,-8.82617 2.18038,-2.61196 3.83933,-4.84279 4.83203,-6.53906 1.09247,-1.86674 2.12563,-3.88023 3.09765,-6.03125 0.97203,-2.15102 1.88343,-4.43859 2.73047,-6.85156 0.84705,-2.41298 1.63013,-4.95286 2.34766,-7.60547 0.71752,-2.65261 1.36966,-5.41915 1.95312,-8.28906 1.16694,-5.73984 2.06058,-11.89208 2.66407,-18.36719 0.60349,-6.47512 0.91617,-13.27289 0.91992,-20.30469 0.002,-3.97225 0.0429,-7.39481 0.16601,-10.74805 0.12316,-3.35323 0.32845,-6.63639 0.65821,-10.33007 0.6595,-7.38738 1.81831,-16.41589 3.81836,-30.92188 0.8342,-6.05 1.92437,-14.15 2.42187,-18 0.4974,-3.85 1.80109,-11.95 2.89649,-18 1.0953,-6.05 2.73287,-17.525 3.63867,-25.5 1.2727,-11.20529 2.1008,-18.14704 2.8789,-23.56641 0.77811,-5.41936 1.50623,-9.31633 2.57813,-14.43359 1.0944,-5.225 2.63076,-14.225 3.41406,-20 0.7832,-5.775 3.00189,-18.15 4.92969,-27.5 2.7814,-13.49016 5.14917,-25.35695 7.13476,-35.80859 1.9856,-10.45165 3.58962,-19.48866 4.84571,-27.31446 1.25609,-7.8258 2.16297,-14.44206 2.75586,-20.05468 0.59289,-5.61263 0.87118,-10.2211 0.86718,-14.03321 -0.004,-3.837 0.0925,-7.13018 0.59571,-14.16601 0.50322,-7.03583 1.41316,-17.81432 3.03711,-36.62305 0.45115,-5.225 0.95059,-13.91172 1.39062,-23.69922 0.44003,-9.7875 0.82066,-20.67578 1.03711,-30.30078 0.2165,-9.625 0.58813,-20.23203 1.01367,-29.56641 0.42554,-9.33437 0.90499,-17.39609 1.33399,-21.93359 0.8579,-9.075 2.01225,-21.675 2.56445,-28 0.3234,-3.70296 0.56735,-9.12908 0.73242,-15.34766 0.16508,-6.21858 0.25053,-13.22966 0.25586,-20.09961 0.005,-6.86995 -0.0688,-13.59879 -0.22461,-19.25585 -0.15582,-5.65707 -0.39255,-10.24233 -0.71094,-12.82227 -0.92689,-7.51043 -1.9459,-18.0062 -2.91015,-29.68555 -0.96425,-11.67934 -1.87373,-24.54226 -2.57813,-36.78906 -0.4612,-8.01841 -0.99445,-14.97209 -1.66211,-21.18164 -0.66765,-6.20955 -1.47066,-11.6741 -2.47265,-16.71875 -1.00199,-5.04465 -2.20182,-9.66965 -3.66602,-14.19336 -1.46419,-4.52371 -3.19182,-8.94702 -5.24609,-13.59375 -2.6797,-6.06142 -5.62646,-11.972858 -8.60547,-17.312501 -1.48951,-2.669822 -2.98664,-5.195943 -4.46289,-7.527344 -1.47625,-2.3314 -2.93166,-4.467807 -4.33594,-6.355468 -0.84149,-1.131151 -1.93391,-2.322618 -3.22851,-3.546876 -1.2946,-1.224257 -2.79092,-2.481857 -4.44141,-3.74414 -3.30099,-2.524566 -7.21619,-5.069838 -11.35742,-7.416016 -4.14123,-2.346177 -8.50918,-4.493566 -12.71289,-6.220703 -2.10186,-0.863568 -4.16312,-1.621861 -6.13477,-2.248047 -1.97164,-0.626185 -3.85344,-1.119404 -5.59765,-1.453125 -4.2993,-0.822603 -10.80694,-2.382396 -14.46094,-3.466797 -1.82706,-0.5422 -5.6258,-1.379338 -10.27344,-2.292968 C 705.22151,43.689886 699.725,42.699764 694.5,41.855469 684.05,40.166878 665.375,37.134329 653,35.117188 l -22.5,-3.667969 -86,-0.03711 z M 543,52.400391 c 17.42511,-0.0066 31.47169,0.02949 43.11719,0.146484 11.64549,0.116997 20.88958,0.315876 28.71093,0.636719 7.82136,0.320843 14.2192,0.762239 20.17188,1.367187 5.95268,0.604948 11.46052,1.372486 17.5,2.341797 22.3394,3.585384 37.82009,6.121012 47.89648,7.855469 10.0764,1.734457 14.7485,2.667744 15.46875,3.050781 0.8988,0.477987 6.04751,1.822135 11.44141,2.988281 2.51165,0.543018 5.05372,1.237949 7.57813,2.0625 2.5244,0.824552 5.03171,1.778562 7.4707,2.841797 2.43898,1.063235 4.81101,2.235073 7.06641,3.494141 2.25539,1.259068 4.39356,2.605528 6.36718,4.017578 1.44575,1.03437 2.94538,2.457483 4.49024,4.255859 1.54485,1.798377 3.1344,3.972313 4.75976,6.50586 1.62536,2.533546 3.28736,5.428087 4.97461,8.667966 1.68726,3.23988 3.40031,6.82481 5.13086,10.74219 2.14308,4.85117 3.83307,8.97447 5.20899,13.16992 0.68795,2.09773 1.2979,4.21325 1.8457,6.44727 0.5478,2.23401 1.0345,4.5858 1.47656,7.15625 0.88413,5.14089 1.5901,11.1543 2.25781,18.84179 0.66772,7.6875 1.29677,17.04953 2.02344,28.88477 0.5234,8.525 1.9706,25.175 3.2168,37 0.92895,8.81534 1.59565,17.11414 1.98828,25.48242 0.39263,8.36829 0.5106,16.8069 0.3457,25.90039 -0.1649,9.09349 -0.61379,18.84107 -1.35742,29.83203 -0.74363,10.99097 -1.78142,23.22446 -3.125,37.28516 -0.2628,2.75 -0.50397,7.83711 -0.68164,13.81836 -0.17767,5.98125 -0.29183,12.85664 -0.29883,19.18164 -0.007,6.325 -0.12694,13.14453 -0.3125,19.03516 -0.18556,5.89062 -0.43689,10.85234 -0.71094,13.46484 -0.64105,6.1111 -1.35069,14.76643 -2.05078,24.81641 -0.70009,10.04997 -1.39063,21.49459 -1.99023,33.18359 -0.7448,14.52059 -1.48867,25.94903 -2.29883,35.0332 -0.40508,4.54209 -0.82705,8.49765 -1.27344,11.96094 -0.44639,3.46329 -0.91752,6.43449 -1.42187,9.00586 -1.0248,5.225 -3.74236,19.625 -6.03906,32 -2.2967,12.375 -5.7003,29.63579 -7.5625,38.35742 -1.8621,8.72162 -3.37719,17.27162 -3.36719,19 0.01,1.72837 -1.30458,10.11758 -2.92188,18.64258 -1.64915,8.69271 -3.02959,16.80474 -4.19336,24.6875 -1.16377,7.88276 -2.11087,15.53627 -2.89257,23.3125 -0.5805,5.775 -1.91124,15.225 -2.95704,21 -1.40105,7.73698 -2.676,15.53932 -3.8125,23.30664 -1.13649,7.76732 -2.1352,15.49969 -2.98437,23.09375 -0.84917,7.59406 -1.54883,15.05036 -2.08789,22.26758 -0.53906,7.21721 -0.91687,14.19525 -1.12305,20.83203 -0.32785,10.55287 -0.59665,16.8875 -1.08008,21.80664 -0.24171,2.45957 -0.53607,4.56639 -0.91992,6.66797 -0.38384,2.10158 -0.85637,4.19869 -1.45117,6.64258 -0.90892,3.73461 -1.81524,6.90043 -2.88867,9.76953 -1.07344,2.86909 -2.3144,5.44241 -3.88867,7.99023 -1.57428,2.54782 -3.48308,5.07102 -5.89453,7.8418 -2.41146,2.77078 -5.32519,5.78819 -8.91016,9.32617 -6.12295,6.04268 -11.16548,10.81338 -15.74805,14.63867 -2.29128,1.91265 -4.46911,3.58933 -6.60742,5.07032 -2.13831,1.48098 -4.23883,2.76538 -6.37891,3.89648 -2.14008,1.1311 -4.31864,2.10769 -6.61523,2.9707 -2.2966,0.86302 -4.7105,1.61236 -7.31836,2.28907 -2.60786,0.6767 -5.41051,1.28132 -8.48437,1.85351 -3.07387,0.57219 -6.41867,1.11265 -10.11329,1.66211 -3.24417,0.48247 -5.98868,0.95631 -8.30859,1.44922 -2.31991,0.49291 -4.2146,1.00452 -5.76172,1.5625 -1.54712,0.55798 -2.74605,1.16216 -3.67187,1.83984 -0.92582,0.67769 -1.57916,1.42924 -2.03516,2.28125 -0.31123,0.58153 -0.6929,1.08335 -1.24414,1.54883 -0.55124,0.46548 -1.27178,0.89489 -2.26172,1.33203 -1.97987,0.87428 -5.03609,1.77929 -9.96289,3.06641 -3.85,1.0058 -14.2,3.70886 -23,6.00781 -8.92775,2.33234 -17.95084,4.57823 -26.57617,6.61914 -8.62533,2.04091 -16.8529,3.87684 -24.1875,5.39258 -5.36986,1.10972 -14.81986,3.53806 -21,5.39649 -4.94995,1.48848 -16.03057,4.1874 -27.80078,6.85937 -11.77021,2.67197 -24.23001,5.31701 -31.93555,6.70117 -3.025,0.54339 -11.575,1.69239 -19,2.55274 -4.87806,0.56523 -11.71865,0.98997 -21.85742,1.31836 -10.13877,0.32838 -23.57571,0.56042 -41.64258,0.73828 l -50,0.49218 -19.5,-4.99609 c -4.46321,-1.14329 -7.99941,-2.06949 -11.02539,-2.93359 -3.02598,-0.86411 -5.54214,-1.66672 -7.96484,-2.5586 -2.42271,-0.89187 -4.75091,-1.873 -7.4043,-3.09961 -2.65339,-1.2266 -5.63158,-2.6981 -9.34961,-4.5664 -7.14561,-3.59065 -11.38031,-5.81614 -14.46094,-7.82422 -1.54031,-1.00404 -2.79125,-1.95379 -3.97461,-2.99219 -1.18336,-1.03839 -2.29852,-2.16598 -3.56445,-3.52539 -1.33929,-1.43818 -3.0062,-3.62167 -4.78125,-6.18359 -1.77505,-2.56193 -3.65796,-5.50142 -5.42969,-8.45508 -1.77173,-2.95366 -3.4324,-5.92177 -4.76172,-8.53516 -1.32931,-2.61339 -2.32756,-4.87295 -2.77539,-6.41406 -0.39956,-1.375 -3.55473,-8.575 -7.01172,-16 -3.457,-7.425 -7.39694,-15.975 -8.75586,-19 -0.79206,-1.76316 -1.77451,-4.48482 -2.82421,-7.7168 -1.04971,-3.23197 -2.16632,-6.97398 -3.22461,-10.77929 -1.05829,-3.80532 -2.05914,-7.67307 -2.87696,-11.15625 -0.81782,-3.48318 -1.45295,-6.58209 -1.78125,-8.84766 -0.62128,-4.28746 -1.14527,-10.20306 -1.58398,-18.21484 -0.43872,-8.01179 -0.79188,-18.11962 -1.06836,-30.78907 -0.27648,-12.66944 -0.47674,-27.90167 -0.61133,-46.16211 -0.13459,-18.26043 -0.20377,-39.54922 -0.2168,-64.33398 -0.0144,-27.41478 0.004,-48.77694 0.11719,-65.83008 0.11323,-17.05314 0.32133,-29.798 0.6875,-39.97461 0.36617,-10.1766 0.89035,-17.78515 1.63477,-24.57031 0.74441,-6.78516 1.70906,-12.74619 2.95703,-19.625 1.0477,-5.775 2.19911,-13.875 2.55859,-18 0.35947,-4.125 1.94353,-14.49894 3.51953,-23.05469 1.576,-8.55575 3.36184,-20.43785 3.96875,-26.40429 0.60691,-5.96643 1.73375,-14.49251 2.50586,-18.94532 0.77212,-4.45282 1.90117,-14.1707 2.50782,-21.5957 0.54444,-6.66367 1.21817,-13.08994 1.85546,-18.01367 0.6373,-4.92373 1.23817,-8.34491 1.64063,-8.9961 0.2275,-0.36811 0.89131,-4.90454 1.47461,-10.08007 0.58331,-5.17553 1.94825,-14.13516 3.0332,-19.91016 1.08495,-5.775 4.23527,-29.175 7.00195,-52 2.76671,-22.825 6.33752,-50.95 7.9336,-62.5 1.59608,-11.55 3.17004,-25.725 3.49805,-31.5 0.52384,-9.22265 1.2132,-16.79104 2.13085,-23.14453 0.45883,-3.17675 0.97362,-6.04955 1.55469,-8.67383 0.58107,-2.62428 1.22809,-4.99995 1.94727,-7.18164 0.77054,-2.3375 1.65241,-5.47461 2.45312,-8.64648 0.80072,-3.17188 1.52027,-6.37852 1.96485,-8.85352 1.09155,-6.07676 2.0994,-11.08597 3.15429,-15.33984 1.0549,-4.25388 2.15716,-7.75251 3.43555,-10.80469 0.63919,-1.52609 1.32256,-2.94107 2.06641,-4.2832 0.74384,-1.34214 1.54867,-2.61182 2.42968,-3.84766 1.76204,-2.47168 3.83011,-4.807932 6.33594,-7.320313 1.4796,-1.483464 2.95976,-2.845038 4.48242,-4.097656 1.52267,-1.252619 3.08873,-2.397082 4.73828,-3.447266 1.64956,-1.050184 3.38192,-2.004698 5.24219,-2.880859 1.86028,-0.876162 3.84715,-1.673746 6.00196,-2.404297 2.15481,-0.730551 4.47854,-1.394461 7.01171,-2.007813 2.53317,-0.613351 5.27614,-1.174655 8.27149,-1.699218 5.9907,-1.049128 12.98966,-1.950007 21.33203,-2.814454 8.525,-0.883371 17.3,-2.016507 19.5,-2.519531 2.2,-0.503024 12.775,-2.314363 23.5,-4.025391 10.725,-1.711027 21.975,-3.743665 25,-4.515624 3.025,-0.771963 9.775,-1.913336 15,-2.53711 5.225,-0.623774 13.1,-2.020575 17.5,-3.103516 3.51224,-0.864442 7.41684,-1.565269 12.39453,-2.130859 4.97769,-0.565589 11.02782,-0.995356 18.83008,-1.318359 7.80226,-0.323004 17.35781,-0.539098 29.34375,-0.675782 C 511.0543,52.464879 525.47127,52.407021 543,52.400391 Z"
       style="color:#000000;clip-rule:nonzero;display:inline;overflow:visible;visibility:visible;opacity:1;isolation:auto;mix-blend-mode:normal;color-interpolation:sRGB;color-interpolation-filters:linearRGB;solid-color:#000000;solid-opacity:1;fill:#000000;fill-opacity:1;fill-rule:nonzero;stroke:none;stroke-width:1;stroke-linecap:butt;stroke-linejoin:miter;stroke-miterlimit:4;stroke-dasharray:none;stroke-dashoffset:0;stroke-opacity:1;color-rendering:auto;image-rendering:auto;shape-rendering:auto;text-rendering:auto;enable-background:accumulate" />
    <path
       id="path5064"
       d="m 338.7207,818.39453 c -1.34972,0.26784 -2.58858,1.70882 -4.4707,4.47266 -2.17296,3.19093 -3.14705,10.77873 -1.58398,12.34179 0.88813,0.88814 0.85113,0.89374 5.11523,-0.88476 3.94259,-1.64441 10.22942,-7.12689 10.19922,-8.89453 -0.01,-0.57961 -1.86639,-2.59102 -4.12695,-4.46875 -2.32281,-1.92943 -3.78309,-2.83424 -5.13282,-2.56641 z"
       style="fill:url(#linearGradient4706)" />
    <path
       id="path5062"
       d="m 654.6582,788.20117 c -0.4055,-0.40543 -2.32306,0.11524 -4.25976,1.15821 -3.7091,1.99749 -3.81127,2.67054 -1.38477,9.05273 0.549,1.44396 1.55809,2.44473 2.24219,2.22266 1.4821,-0.48109 4.46264,-11.37328 3.40234,-12.4336 z"
       style="fill:url(#linearGradient4706)" />
    <path
       id="path5060"
       d="m 378.27539,784.80664 0.0469,5.28516 c 0.11181,12.56297 -11.56394,23.14404 -17.47852,15.83984 -2.47066,-3.05113 -2.32788,-4.88123 0.73633,-9.39062 3.01915,-4.44308 2.58883,-6.66059 -1.29883,-6.67969 -1.52976,-0.008 -3.85983,-0.30164 -5.17773,-0.6543 -2.2245,-0.59527 -2.3456,-0.43306 -1.68946,2.26367 1.86881,7.68081 1.84111,8.56678 -0.35351,11.53516 -2.76496,3.73981 -2.34531,5.97739 1.45117,7.74414 4.69791,2.18624 6.48828,4.20573 6.48828,7.31641 0,1.58411 0.74601,4.01797 1.6582,5.41015 1.01933,1.5557 1.93767,5.9015 2.38282,11.27539 0.78072,9.42511 3.24763,15.81074 7.16796,18.55664 4.15955,2.91346 6.69175,2.04631 8.95508,-3.07031 3.28466,-7.42554 2.33047,-14.83406 -3.45117,-26.79297 -5.23616,-10.83062 -5.52049,-12.35221 -2.90039,-15.58789 1.67137,-2.06405 2.71094,-2.25209 13.25,-2.39648 8.07419,-0.11062 12.9946,-0.6887 16.73438,-1.9668 l 5.29687,-1.81055 -0.29687,-5.64453 c -0.25917,-4.92538 -0.62353,-5.80147 -2.85157,-6.86523 -2.56539,-1.22483 -11.18943,-2.6662 -22.55859,-3.77149 l -6.11133,-0.5957 z"
       style="fill:url(#linearGradient4706)" />
    <path
       id="path5058"
       d="m 332.95703,774.7207 -6.72851,0.63868 C 316.3246,776.29872 314,776.87929 314,778.41602 c 0,0.7601 1.6875,1.82428 3.75,2.36523 2.0625,0.54095 6.225,1.64395 9.25,2.44922 3.025,0.80527 6.07649,1.50469 6.78125,1.55469 2.18516,0.15495 2.57911,-2.93083 0.83984,-6.57813 l -1.66406,-3.48633 z"
       style="fill:url(#linearGradient4706)" />
    <path
       id="path5056"
       d="m 339.66602,748.88086 c -1.42654,-0.28025 -2.77939,0.12705 -3.25977,1.37891 -0.70769,1.8442 1.86706,7.82406 6.39648,14.85742 3.52948,5.48065 6.19727,7.3585 6.19727,4.36328 0,-2.02674 -3.98062,-14.63617 -5.63672,-17.85547 -0.77039,-1.49757 -2.27073,-2.46389 -3.69726,-2.74414 z"
       style="fill:url(#linearGradient4706)" />
    <path
       id="path5054"
       d="m 372.12891,741.08398 c -1.37584,0.11487 -2.36081,0.3573 -2.60352,0.75 -1.20211,1.94505 -3.48466,19.9213 -3.50586,27.60938 -0.0192,6.98117 0.0207,7.08955 3.23047,8.69922 4.51058,2.26197 6.05787,1.76961 6.86719,-2.1875 0.48233,-2.35837 2.54236,-5.17199 6.68359,-9.125 3.77305,-3.60157 6.23838,-6.86243 6.66797,-8.81836 0.80374,-3.6594 -1.7188,-13.26848 -3.97461,-15.14063 -1.60191,-1.32947 -9.23773,-2.13169 -13.36523,-1.78711 z"
       style="fill:url(#linearGradient4706)" />
    <path
       id="path5052"
       d="m 589.06055,719.42578 c -2.53121,0.0627 -4.93169,0.21124 -7.14063,0.45313 -19.5199,2.13747 -26.75381,3.80938 -34.95508,8.07617 -10.41176,5.41679 -15.24323,9.78882 -18.89648,17.09961 -3.62873,7.26173 -3.78724,10.59319 -1.60352,33.82031 2.19741,23.37275 5.84353,34.31108 16.74024,50.2207 6.83202,9.97501 18.26278,21.0829 26.08008,25.3418 2.8674,1.56218 9.03984,4.30465 13.71484,6.09375 4.675,1.78909 9.24003,3.27363 10.14453,3.29883 4.4144,0.12304 15.17347,-4.34182 20.98047,-8.70703 9.3549,-7.03223 25.875,-23.87457 25.875,-26.37891 0,-1.7238 -0.4055,-1.97514 -2.25,-1.39453 -14.6218,4.60255 -20.73994,4.7121 -29.58984,0.52539 -3.4869,-1.64957 -6.78598,-3 -7.33008,-3 -0.544,0 -2.98368,1.99541 -5.42188,4.43359 -9.7179,9.71791 -26.96761,14.22186 -37.00781,9.66211 -7.2084,-3.27364 -11.4011,-11.66728 -9.44922,-18.91601 1.08451,-4.02757 6.89846,-13.54551 11.41016,-18.67969 1.4499,-1.65 2.63602,-3.48624 2.63672,-4.08008 6e-4,-0.59383 -3.48555,-1.83338 -7.74805,-2.75586 -9.43851,-2.04266 -15.4579,-5.47375 -17.62891,-10.04883 -4.77017,-10.05237 1.07704,-18.76346 15.13477,-22.54882 2.3344,-0.62859 4.24023,-1.46222 4.24023,-1.85352 -0.002,-0.3913 -1.12729,-2.92515 -2.5,-5.63086 C 553.1234,751.75132 552,747.9862 552,746.0918 c 0,-7.73617 7.98182,-16.00907 16.35742,-16.95313 5.7609,-0.64933 10.41495,0.9722 15.09375,5.25781 2.0894,1.91378 4.30543,3.46261 4.92383,3.44141 0.6183,-0.0212 2.025,-1.48369 3.125,-3.25 4.4542,-7.15231 17.76462,-10.16826 26.10352,-5.91406 5.1278,2.61603 10.80185,8.87013 12.37695,13.64258 0.92,2.78778 0.94824,4.77939 0.11914,8.07226 -1.5811,6.27902 -1.56731,6.30301 3.65039,6.98242 9.2484,1.20426 14.25828,2.7287 18.08398,5.5 5.4858,3.97394 6.58919,2.8902 5.73829,-5.63476 -1.5117,-15.1438 -6.67408,-24.31025 -16.51368,-29.33008 -10.12768,-5.16672 -34.27959,-8.91943 -51.99804,-8.48047 z m 18.86328,21.4375 c -1.3577,0.0455 -2.7235,0.37032 -3.95117,1.02734 -1.1808,0.63196 -2.8517,4.04324 -4.4336,9.05079 -3.5306,11.17629 -3.47026,11.523 2.21094,12.70703 8.4529,1.76171 9.25,1.60622 9.25,-1.80664 0,-1.66829 1.125,-5.25337 2.5,-7.9668 1.375,-2.71343 2.5,-6.04807 2.5,-7.41016 0,-3.37232 -4.00307,-5.73809 -8.07617,-5.60156 z m -37.36719,2.28516 c -0.52157,-0.0119 -1.05458,0.0665 -1.5957,0.23828 -3.0525,0.96882 -2.52917,5.5708 1.01953,8.9707 1.6396,1.57085 4.12478,4.50415 5.52148,6.51953 1.3967,2.01539 3.20388,3.66602 4.01758,3.66602 1.7866,0 1.78485,0.0684 0.12305,-6.16797 -2.28944,-8.59166 -5.43494,-13.14322 -9.08594,-13.22656 z m 51.04688,27.54687 c -2.12536,-0.12634 -3.58924,-0.13003 -3.78907,0.0527 -0.377,0.34488 -0.17302,2.53963 0.45508,4.87695 1.4592,5.42949 -0.28938,14.57944 -3.42578,17.91797 -3.7987,4.04352 -9.20287,2.58296 -11.20117,-3.02539 -0.364,-1.0214 -0.18165,-3.64308 0.40625,-5.82617 1.3985,-5.1936 0.30722,-6.43095 -6.33008,-7.1875 -7.3799,-0.84118 -12.13597,0.36933 -12.54297,3.1914 -0.7608,5.27597 10.06801,20.17969 14.66211,20.17969 2.9661,0 6.72327,3.53534 9.07617,8.54102 1.4829,3.15472 3.15684,5.02054 5.36914,5.98242 4.2208,1.83521 8.20251,1.81867 14.53711,-0.0625 3.3426,-0.99266 5.773,-2.43905 6.8418,-4.07032 1.5491,-2.36423 1.54139,-2.90028 -0.12891,-8.19921 -0.9831,-3.11884 -2.62985,-7.24382 -3.66015,-9.16602 -3.7167,-6.93457 -1.31147,-11.80304 7.42773,-15.03125 4.4898,-1.65853 5.91975,-4.2757 2.99805,-5.48828 -1.99253,-0.82694 -14.31926,-2.30651 -20.69531,-2.68555 z m -56.67774,3.69922 c -1.07096,-0.20791 -2.63258,0.0584 -5.70508,0.59961 -4.87445,0.85862 -6.2207,1.4793 -6.2207,2.86719 0,1.3934 1.54692,2.09338 7.25,3.28125 3.9875,0.83054 7.8125,1.55969 8.5,1.62109 1.9684,0.17593 1.39545,-3.12291 -1.06445,-6.12695 -1.10765,-1.35272 -1.68881,-2.03428 -2.75977,-2.24219 z m 14.57617,28.48047 c -1.4474,0 -10.6902,9.56438 -13.9082,14.39062 -2.7829,4.17375 -3.36905,8.09809 -1.34375,9 2.1714,0.96696 9.75304,-0.29926 14.58984,-2.43554 C 584.06244,821.5234 590,816.27409 590,813.96289 590,812.23542 581.13725,802.875 579.50195,802.875 Z"
       style="fill:url(#linearGradient4706)" />
    <path
       id="path5050"
       d="m 376.99219,709.6875 c -15.10586,0.0538 -23.93356,1.44466 -34.32422,5.4082 -10.23855,3.90552 -32.65704,18.74195 -39.01953,25.82227 -10.32266,11.48728 -25.66098,48.23659 -25.64258,61.4375 0.009,6.36093 3.14811,19.55268 6.40625,26.91992 3.67081,8.30034 11.07664,18.88453 19.42773,27.76563 10.24914,10.89961 24.78545,20.83398 30.48438,20.83398 1.32274,0 3.672,0.99663 5.2207,2.21484 1.54871,1.21821 5.0968,3.00492 7.88477,3.96875 10.90823,3.77111 27.67898,1.63823 37.34179,-4.74804 8.73364,-5.77217 25.52808,-23.24773 32.2754,-33.58399 6.83731,-10.47414 17.78101,-32.22061 20.81054,-41.35156 7.16521,-21.59574 6.55201,-49.47806 -1.375,-62.52734 C 431.29651,733.31074 418.96281,722.06787 410,717.70898 395.89515,710.84937 390.90963,709.6379 376.99219,709.6875 Z m -1.67383,17.03516 c 13.60339,0.22533 19.49491,3.42037 24.53516,13.30273 4.80412,9.41938 5.39454,17.77672 1.77929,25.16602 -1.44878,2.96121 -2.63281,5.80822 -2.63281,6.32617 0,0.51796 3.1945,1.69094 7.09961,2.60742 13.50901,3.17038 18.35424,9.80384 17.74805,24.30078 -0.31933,7.63683 -0.5938,8.58197 -3.34766,11.51172 -4.06296,4.32246 -11.44595,7.62254 -20.21484,9.03711 -4.00702,0.6464 -7.28516,1.57842 -7.28516,2.07031 0,0.49189 0.94491,3.69118 2.10156,7.11133 2.8237,8.34944 2.35001,21.06802 -1.0332,27.71875 -2.70767,5.32275 -6.52905,9.63572 -10.26953,11.58984 -4.37693,2.28661 -10.91625,1.75151 -16.91602,-1.38281 -6.41325,-3.35032 -11.15298,-9.21084 -13.52148,-16.72461 -0.95038,-3.01493 -2.05433,-5.48242 -2.45313,-5.48242 -0.3988,0 -3.02109,1.1921 -5.82812,2.64844 -17.40582,9.03046 -31.58055,-2.4388 -26.67578,-21.58399 1.79543,-7.00825 3.85026,-10.42214 10.3457,-17.19531 7.13565,-7.44075 7.03576,-7.53596 -14.25,-13.38672 -4.9775,-1.36815 -6.95519,-2.62445 -11.59766,-7.37109 -3.07788,-3.14695 -5.81698,-6.87972 -6.08789,-8.29688 -1.49431,-7.81698 5.53988,-14.04352 18.32617,-16.2207 l 7.35938,-1.25391 -0.33984,-7.04492 c -0.39281,-8.15185 1.03696,-11.82921 6.08789,-15.65039 6.85774,-5.18808 15.91327,-5.45148 22.02929,-0.64062 1.39605,1.09814 2.96194,1.99609 3.48047,1.99609 0.51854,0 2.35499,-2.26983 4.08008,-5.04492 3.94543,-6.34686 8.07744,-8.26317 17.48047,-8.10742 z"
       style="fill:url(#linearGradient4706)" />
    <path
       id="path5048"
       d="m 352.90234,678.07422 c -4.07078,0.22501 -7.18748,0.75566 -11.87109,1.73242 -18.21051,3.79776 -33.31369,11.72237 -49.67969,26.06836 -11.46422,10.04923 -22.63212,24.71541 -30.08008,39.5 -1.10828,2.2 -4.01989,7.825 -6.4707,12.5 -6.21975,11.86439 -7.80646,16.2503 -9.40234,26 -2.94321,17.9809 -1.3618,36.05296 4.8125,55 7.38125,22.65082 18.87498,42.42971 31.39844,54.0293 19.28,17.85772 37.31874,27.49025 58.89062,31.44922 4.73427,0.86886 11.04818,1.27367 15.4668,0.99023 8.81848,-0.56567 22.51285,-4.50231 29.53515,-8.49023 4.19706,-2.38348 15.74949,-13.43499 24.10157,-23.05469 1.15742,-1.33308 5.13587,-4.89883 8.83984,-7.92383 10.0978,-8.24679 25.47716,-25.59714 30.6582,-34.58789 14.05272,-24.38593 19.69603,-42.57823 20.60352,-66.41211 0.97526,-25.61366 -1.52839,-38.50432 -11.41406,-58.77148 -7.94904,-16.29677 -23.46246,-30.15571 -43.79102,-39.11914 -15.29581,-6.74435 -22.45923,-8.17831 -44,-8.80665 -8.50111,-0.24797 -13.52687,-0.32852 -17.59766,-0.10351 z m 28.13086,17.10937 c 8.32213,0.18654 14.93201,1.64055 23.6211,4.9043 13.64429,5.125 22.63172,10.9148 32.3457,20.83984 14.84803,15.17064 18.78078,24.58435 19.73047,47.22071 0.84184,20.06575 -2.34288,35.0814 -11.82227,55.73437 -10.09654,21.99754 -18.56928,34.66562 -33.34961,49.86719 -12.20488,12.55272 -21.85381,19.92784 -30.42578,23.25586 -4.55955,1.77023 -8.11073,2.24133 -18.63281,2.46875 -14.80507,0.32 -17.12498,-0.0538 -27.5,-4.42188 -21.82213,-9.18752 -38.95651,-22.99737 -52.93359,-42.66406 -11.30388,-15.90533 -16.86785,-30.45766 -17.78125,-46.51367 -0.63425,-11.14904 0.50688,-16.51618 7.08398,-33.31836 12.86307,-32.86063 19.92835,-42.32225 43.09766,-57.72266 21.29034,-14.15148 32.44228,-17.91895 57.5332,-19.43554 3.29465,-0.19914 6.25916,-0.27703 9.0332,-0.21485 z"
       style="fill:url(#linearGradient4712)" />
    <path
       id="path5046"
       d="m 585.34375,676.20703 c -19.65353,-0.57622 -42.15593,3.1749 -56.02148,9.62305 -13.68936,6.36621 -26.37478,17.65063 -35.63672,31.70312 -6.21716,9.43287 -8.17021,14.043 -10.63477,25.10742 -4.12304,18.51006 -1.1284,51.64739 6.50586,72.00782 6.76,18.02879 16.30264,32.14239 32.94531,48.72656 11.57068,11.53001 14.51292,13.85845 26.02149,20.59375 15.92406,9.3194 22.60452,12.26484 33.51562,14.77734 11.7466,2.7049 20.73468,2.6298 32.17188,-0.27148 12.3604,-3.13547 18.90754,-6.55797 25.86914,-13.51953 C 648.51688,876.51822 654,864.03764 654,853.27148 c 0,-2.76979 0.49892,-4.37408 1.47852,-4.75 4.1114,-1.5777 17.11593,-12.66007 22.11523,-18.84765 7.2045,-8.91681 9.72267,-13.46445 13.54297,-24.44922 2.7856,-8.00993 3.12289,-10.32091 3.55859,-24.34961 0.5567,-17.92702 -1.00936,-35.06979 -3.91406,-42.84375 -3.5118,-9.39906 -12.99022,-22.32305 -21.54102,-29.37109 -20.3698,-16.79011 -50.29334,-29.41714 -75.68164,-31.93555 -2.65785,-0.26365 -5.40719,-0.43526 -8.21484,-0.51758 z m 13.33594,29.07031 c 10.62682,0.27209 20.81931,1.69982 31.32031,4.30274 12.7749,3.16658 20.65474,6.9573 27.21094,13.08984 9.9891,9.34366 13.71413,19.29996 14.51953,38.80274 0.8683,21.02633 -2.51998,36.75492 -13.42578,62.31836 -5.3506,12.54189 -8.41084,16.88982 -19.49024,27.69336 -16.2199,15.81614 -24.36105,21.42135 -35.96875,24.76367 -7.6373,2.19906 -12.0623,2.00353 -20.3457,-0.90039 -23.4177,-8.20952 -39.26676,-20.80058 -53.81445,-42.75 -9.90859,-14.95 -14.81014,-31.0506 -16.70703,-54.88477 -2.24782,-28.24361 -0.35422,-37.23218 10.21679,-48.49414 10.79578,-11.50141 24.39751,-18.31076 42.55664,-21.30859 12.24,-2.02066 23.30091,-2.90491 33.92774,-2.63282 z"
       style="fill:url(#linearGradient4712)" />
    <path
       id="path5044"
       d="m 609.41992,586.875 c -1.7294,0 -9.96338,9.18233 -12.20508,13.60938 -2.6861,5.30498 -3.50993,9.68337 -2.71093,14.4121 0.5707,3.37833 1.04231,3.97852 3.13281,3.97852 3.9286,0 7.63082,-2.44161 13.79492,-9.09961 7.9164,-8.55069 8.57281,-10.21671 5.37891,-13.66797 -1.3901,-1.50216 -3.36337,-4.19492 -4.38477,-5.98242 -1.0214,-1.7875 -2.37466,-3.25 -3.00586,-3.25 z m 30.42578,11.21289 c -0.8082,-0.15784 -2.05458,0.80895 -2.77148,2.14844 -1.0859,2.02896 -1.04097,3.72428 0.26953,10.15039 0.8652,4.24243 2.29513,8.81501 3.17773,10.16211 1.0564,1.61222 2.35152,2.34356 3.79102,2.13867 1.9643,-0.27961 2.16038,-0.83172 1.92188,-5.41406 -0.33691,-6.47116 -4.44468,-18.80589 -6.38868,-19.18555 z"
       style="fill:url(#linearGradient4706)" />
    <path
       id="path5042"
       d="m 384.21289,579.50781 -3.47461,3.6836 c -1.91112,2.02637 -4.43486,3.68359 -5.60742,3.68359 -1.42158,0 -2.13086,0.62837 -2.13086,1.88477 0,3.22915 7.9069,17.85967 11.10742,20.55273 4.06629,3.42154 7.64431,3.40139 8.50977,-0.0469 1.82612,-7.27583 -1.43842,-21.12095 -6.44141,-27.32421 l -1.96289,-2.4336 z"
       style="fill:url(#linearGradient4706)" />
    <path
       id="path5040"
       d="m 651.05469,575.03125 c -1.39575,-0.10241 -2.15082,0.6034 -2.60352,2.09375 -1.1795,3.88298 -5.57968,8.90491 -9.08398,10.36914 -1.8525,0.77402 -3.36719,1.85812 -3.36719,2.4082 0,1.30096 2.23007,5.27898 3.45117,6.15625 0.5233,0.37591 1.7605,-0.64828 2.75,-2.27539 2.5647,-4.21732 5.75722,-5.14402 13.13672,-3.8164 7.2479,1.30393 11.66211,0.15821 11.66211,-3.02735 0,-2.47959 -3.0444,-5.41235 -9.5,-9.15039 -3.013,-1.74464 -5.04956,-2.6554 -6.44531,-2.75781 z"
       style="fill:url(#linearGradient4706)" />
    <path
       id="path5038"
       d="m 355.22266,569.875 c -1.59595,0 -17.82797,2.06126 -20.47266,2.59961 -3.14361,0.6399 -3.8355,3.93721 -1,4.76562 2.69364,0.78697 11.17258,-0.15208 17,-1.88281 4.01875,-1.19356 5.25,-2.02018 5.25,-3.52148 0,-1.07869 -0.35042,-1.96094 -0.77734,-1.96094 z m 48.71679,1.58203 c -3.20708,-0.17103 -5.51256,0.059 -5.93945,0.87695 -0.65195,1.2492 8.62933,8.30418 12.5,9.50196 5.60619,1.73484 19.77958,-0.46371 20.29688,-3.14844 0.50188,-2.60473 -17.23618,-6.71738 -26.85743,-7.23047 z"
       style="fill:url(#linearGradient4706)" />
    <path
       id="path5036"
       d="m 373.46875,564.875 c -2.9459,0 -4.23757,2.37061 -2.45898,4.51367 1.60919,1.93898 3.61913,1.89444 4.38281,-0.0957 1.19478,-3.11353 0.62707,-4.41797 -1.92383,-4.41797 z m 19.03125,2 c -0.825,0 -1.5,0.675 -1.5,1.5 0,0.825 0.675,1.5 1.5,1.5 0.825,0 1.5,-0.675 1.5,-1.5 0,-0.825 -0.675,-1.5 -1.5,-1.5 z"
       style="fill:url(#linearGradient4706)" />
    <path
       id="path5034"
       d="m 594.00781,562.09961 c -3.22771,-0.30852 -5.67578,-0.002 -5.67578,1.08008 0,0.98858 2.93479,2.8108 8.08399,5.01953 10.1849,4.36877 12.58398,4.58125 12.58398,1.11914 0,-2.0792 -0.86542,-2.93724 -4.63672,-4.60547 -3.11925,-1.37978 -7.12775,-2.30477 -10.35547,-2.61328 z m 32.13867,6.76367 c -2.85169,-0.0236 -3.32389,1.89429 -2.97851,7.31836 0.2847,4.47123 1.05729,7.20252 2.68359,9.48633 2.3303,3.27262 6.14844,4.37061 6.14844,1.76758 0,-0.79254 -0.45,-1.72063 -1,-2.06055 -1.7101,-1.05692 -1.10013,-6.10352 1.07227,-8.86523 2.873,-3.65253 2.14734,-5.95016 -2.22266,-7.03321 -1.53715,-0.38096 -2.75256,-0.60543 -3.70313,-0.61328 z"
       style="fill:url(#linearGradient4706)" />
    <path
       id="path5032"
       d="m 616.19922,538.05664 c -3.1319,-0.45505 -2.837,2.15015 0.9043,7.98047 3.6934,5.7556 6.41485,6.55936 5.37695,1.58789 -1.0336,-4.95018 -3.83205,-9.21252 -6.28125,-9.56836 z m 32.60156,2.92188 c -3.58233,-0.039 -5.73508,2.24233 -8.80078,8.1875 l -3.5,6.7871 2.5,1.93946 c 1.375,1.06623 2.95,1.94608 3.5,1.95508 0.55,0.009 4.0375,-2.81116 7.75,-6.26563 8.1517,-7.58511 8.70931,-10.038 2.69531,-11.83984 -1.59845,-0.47891 -2.95042,-0.75069 -4.14453,-0.76367 z"
       style="fill:url(#linearGradient4706)" />
    <path
       id="path5030"
       d="m 336.25,525.88281 c -1.7125,-0.006 -2.25,0.56815 -2.25,2.40039 0,2.48779 6.91034,9.48872 14,14.1836 4.59181,3.04077 6.42229,2.68379 6.81055,-1.32618 0.25579,-2.64183 -0.34405,-3.80499 -3.34961,-6.49218 -4.951,-4.42657 -12.46257,-8.75563 -15.21094,-8.76563 z"
       style="fill:url(#linearGradient4706)" />
    <path
       id="path5028"
       d="m 381.08984,519.875 c -6.57245,0 -8.68157,1.31752 -9.89062,6.17383 -1.42247,5.71351 -2.63595,21.2499 -1.82422,23.36523 0.38934,1.01457 1.25861,1.4314 2.21484,1.06446 0.86534,-0.33206 2.66217,-0.60352 3.99219,-0.60352 1.59308,0 2.41797,-0.56881 2.41797,-1.66992 0,-0.91928 2.025,-3.61292 4.5,-5.98438 4.4228,-4.23779 4.5,-4.42262 4.5,-10.76367 0,-9.5271 -1.04856,-11.58203 -5.91016,-11.58203 z m 51.37891,19 c -12.74992,0 -29.96777,6.55175 -37.79883,14.38281 -2.56843,2.56843 -4.66992,5.334 -4.66992,6.14453 0,2.13688 2.01384,1.80758 4.76367,-0.77734 2.25648,-2.12116 3.49135,-2.28337 21.56445,-2.85547 11.2547,-0.35627 20.40979,-1.10833 22.16993,-1.82031 11.33774,-4.58608 7.14264,-15.07422 -6.0293,-15.07422 z"
       style="fill:url(#linearGradient4706)" />
    <path
       id="path5026"
       d="m 630.5,515.56445 c -25.6155,0.0272 -36.01692,2.97496 -51.35352,14.54883 -8.8053,6.64503 -14.21526,12.96287 -18.66406,21.79688 -4.9024,9.735 -5.8658,16.3726 -5.19336,35.78711 0.8797,25.39969 3.71709,33.26015 16.67969,46.18945 10.9076,10.87964 19.02905,14.78826 36.03125,17.3418 6.0944,0.91532 21.51141,0.5286 32.03711,-0.80274 C 659.05481,648.02033 666,644.97122 666,639.02734 c 0,-3.44867 1.27171,-5.05021 7.13281,-8.98046 2.5484,-1.70892 8.09327,-6.83259 12.32227,-11.38477 13.8901,-14.95129 19.20968,-30.21118 16.70508,-47.92188 -1.3466,-9.52196 -4.60209,-17.14241 -12.46289,-29.17187 C 675.79907,520.29982 664.9375,515.52785 630.5,515.56445 Z m -18.24609,7.53907 c 6.2438,-0.51778 11.45516,1.63491 16.73047,6.91015 2.92749,2.92757 3.40893,3.09339 5.36523,1.83789 5.7351,-3.68049 9.42849,-4.97656 14.18359,-4.97656 7.203,0 14.10104,2.6362 18.55274,7.08789 6.6757,6.67575 6.23252,14.8602 -1.26758,23.38086 -2.1001,2.38578 -3.81836,4.97376 -3.81836,5.75 0,0.77623 1.57937,2.16537 3.50977,3.08594 4.8748,2.32464 12.28301,9.37034 14.57421,13.86133 5.2672,10.32466 -0.64917,20.55931 -13.82617,23.91601 l -6.75781,1.7207 0.49023,3.84961 c 0.2696,2.11674 0.49,6.80875 0.5,10.42774 0.009,5.68401 -0.37364,7.08343 -2.80664,10.27148 -1.5491,2.02982 -3.86433,4.37603 -5.14453,5.21485 -5.0462,3.3064 -13.16412,2.32462 -19.48242,-2.35743 -1.4068,-1.04249 -3.90664,-4.63634 -5.55664,-7.98632 -1.65,-3.34998 -3.40348,-6.12025 -3.89648,-6.15625 -0.493,-0.036 -3.02069,1.92088 -5.61719,4.34961 -7.9263,7.41414 -18.92188,11.82084 -25.42188,10.18945 -4.5315,-1.13735 -9.42638,-6.39767 -11.05468,-11.88086 -3.2084,-10.80389 -1.24287,-20.63833 6.52343,-32.6543 2.1819,-3.37586 3.9668,-6.33876 3.9668,-6.58593 0,-0.24718 -2.3625,-1.64292 -5.25,-3.09961 -13.2827,-6.70087 -19.05685,-13.89688 -16.75195,-20.88086 2.3071,-6.99057 9.91956,-10.50391 22.75976,-10.50391 l 8.45899,0 -0.84766,-2.75 c -0.4661,-1.5125 -0.84937,-5.33052 -0.85937,-8.48438 -0.0101,-5.27982 0.28106,-6.02603 3.66796,-9.4121 3.1261,-3.12527 4.48968,-3.74465 9.07618,-4.125 z"
       style="fill:url(#linearGradient4706)" />
    <path
       id="path5024"
       d="m 378.89844,490.14648 c -2.77642,-0.10485 -5.42688,-0.10043 -7.89844,0.0254 -15.33925,0.78091 -22.40236,3.55932 -41.64648,16.38867 -13.60489,9.06988 -25.70466,20.1649 -30.24805,27.73437 C 295.16123,540.86619 292,551.36565 292,557.89453 c 0,5.88595 2.48977,15.39419 5.2168,19.92383 5.01696,8.33326 38.3764,43.23682 49.3789,51.66406 4.42682,3.39067 9.54629,6.29607 13.08789,7.42774 7.10116,2.26908 8.33031,2.33795 10.84375,0.60937 1.29732,-0.89221 6.59373,-1.554 15.47266,-1.93359 17.62118,-0.75333 29.42124,-3.77882 45.6543,-11.70508 14.46729,-7.06406 21.77744,-13.30399 29.26758,-24.98047 12.55425,-19.57098 15.23665,-31.59039 11.19921,-50.20898 -2.90459,-13.39446 -5.51674,-19.84769 -10.17578,-25.14063 -4.67146,-5.30706 -16.44989,-14.37253 -24.8164,-19.10156 -13.21403,-7.46901 -38.79553,-13.56877 -58.23047,-14.30274 z m 0.65234,15.92188 c 6.14714,-0.32265 8.85192,-0.0365 11.22266,1.18945 5.57417,2.88251 10.20769,11.0341 10.24218,18.01758 0.0284,5.75892 0.86095,6.04129 9.62891,3.27149 4.35615,-1.37612 11.51532,-3.05214 15.9082,-3.72461 6.88396,-1.05381 8.75582,-0.9994 13.55079,0.39453 12.73288,3.70155 21.60351,15.6014 18.95703,25.42968 -1.31155,4.8707 -6.47984,11.87694 -10.16993,13.78516 -3.41698,1.76699 -3.67164,3.98366 -0.80859,7.03125 1.14509,1.21888 2.29394,3.94789 2.55274,6.06445 1.28506,10.50954 -12.3442,18.25556 -33.13477,18.83204 l -10,0.27734 -0.56836,9.53711 c -0.49937,8.38569 -0.89935,9.96975 -3.31641,13.13867 -1.51178,1.98205 -3.8271,4.31062 -5.14453,5.17383 -3.42849,2.24644 -9.23404,2.58378 -14.66992,0.85351 -8.86552,-2.82195 -18.06626,-14.61506 -23.96289,-30.71484 -1.26036,-3.44123 -2.69736,-5.75 -3.57812,-5.75 -0.80941,0 -4.23585,0.7228 -7.61524,1.60547 -13.999,3.65645 -27.87306,-1.14119 -31.57812,-10.91992 -3.79548,-10.01739 4.08142,-19.43145 17.92187,-21.41993 6.67447,-0.95892 7.44261,-2.81274 2.54102,-6.13281 -6.55803,-4.44207 -16.23769,-14.71563 -17.51758,-18.59375 -2.28173,-6.91369 1.05055,-15.77735 7.38281,-19.63867 5.97724,-3.64483 15.93451,-2.14429 24.52539,3.69336 1.9487,1.32417 4.04845,2.40625 4.66602,2.40625 0.61757,0 2.37091,-1.97319 3.89648,-4.38672 4.01935,-6.35878 9.16299,-8.90002 19.06836,-9.41992 z"
       style="fill:url(#linearGradient4706)" />
    <path
       id="path5022"
       d="m 622.68945,483.13477 c -10.77031,0.18352 -20.93705,0.75411 -24.18945,1.60546 -2.2,0.57587 -7.15,1.78409 -11,2.6836 -22.2114,5.18942 -47.05076,22.99556 -58.48633,41.92773 -14.00256,23.18196 -16.72262,44.88077 -10,79.78516 4.28219,22.23343 16.32983,40.50197 34.80469,52.78125 12.03083,7.99627 17.01894,9.37595 56.18164,15.52539 10.4497,1.64084 28.87982,1.16104 38.76562,-1.00781 14.0367,-3.07954 31.47778,-11.48478 42.23438,-20.35547 16.7698,-13.82967 30.65717,-30.02046 37.20117,-43.3711 9.4508,-19.28136 10.90904,-41.37019 4.11524,-62.33398 -3.4444,-10.6284 -5.52296,-14.64067 -11.97266,-23.11523 -17.684,-23.23608 -45.25515,-40.37133 -69.84375,-43.40625 -5.66635,-0.69938 -17.04023,-0.90228 -27.81055,-0.71875 z M 629.5,501.45312 c 38.8641,-0.13169 53.98983,6.39648 70.42773,30.39649 19.0313,27.7865 22.1031,52.14083 9.6875,76.79492 -6.2541,12.41904 -21.17432,29.067 -30.86132,34.43359 -3.1948,1.76994 -4.26116,2.97064 -4.28516,4.82618 -0.1172,9.14772 -8.86527,13.62648 -32.29687,16.5332 -10.5109,1.30389 -30.87148,1.73728 -37.17188,0.79102 -10.3858,-1.55984 -15.49207,-3.08526 -22.94727,-6.85547 -15.0819,-7.62715 -26.84031,-19.23617 -34.16992,-33.73633 -4.83411,-9.56337 -6.00872,-16.38132 -6.59179,-38.26563 -0.6047,-22.6964 0.17836,-27.70721 6.25586,-40.01953 9.63844,-19.52637 32.07264,-37.21374 54.08984,-42.64648 7.4751,-1.8445 11.83798,-2.19765 27.86328,-2.25196 z"
       style="fill:url(#linearGradient4712)" />
    <path
       id="path5020"
       d="m 385,462.39453 c -22.2427,0.0179 -24.06177,0.16389 -34,2.7207 -21.10188,5.42888 -37.21785,12.46136 -53.91602,23.5293 -31.06618,20.5914 -42.29091,47.87795 -35.78125,86.98047 3.48309,20.92243 17.54279,42.74866 39.79883,61.7832 23.44833,20.05425 37.42667,26.13611 79.39844,34.54492 7.22825,1.44814 32.25049,0.25679 40.56836,-1.93164 27.56701,-7.25286 51.23346,-28.5651 67.1582,-60.47851 15.0762,-30.21293 15.16306,-58.22686 0.2793,-88.81641 -4.63701,-9.53012 -8.59099,-14.92741 -18.44531,-25.17578 -15.95923,-16.59741 -30.45861,-24.88549 -54.95508,-31.41406 -5.42768,-1.44653 -10.79604,-1.75769 -30.10547,-1.74219 z m -11.60547,13.45313 c 7.33891,-0.11489 15.30736,0.57749 24.10547,2.05664 25.75047,4.32919 38.68015,8.96395 54.57031,19.56445 21.13753,14.10108 28.57919,24.41085 33.49805,46.40625 4.7916,21.42634 3.11061,33.72566 -7.23633,52.93555 -11.57001,21.48063 -23.59073,32.55685 -46.125,42.5 -13.77263,6.07712 -28.05371,9.59969 -41.57617,10.25586 -6.86754,0.33325 -11.97928,1.07188 -13.3457,1.92578 -6.50947,4.06791 -24.64072,-0.42176 -36.875,-9.13086 -12.68193,-9.02778 -50.05333,-48.41731 -55.875,-58.89258 -11.02427,-19.83661 -8.15896,-43.21209 7.72461,-63.01953 9.12534,-11.37967 32.45297,-29.18531 48.75976,-37.21875 9.6604,-4.75914 20.14349,-7.19133 32.375,-7.38281 z"
       style="fill:url(#linearGradient4712)" />
    <path
       id="path5018"
       d="m 669.17188,259.16992 c -0.57124,-0.0633 -1.26835,0.37731 -2.6211,1.26367 -2.3447,1.53631 -2.67419,2.302 -2.21289,5.14453 0.3068,1.89015 -0.083,4.8336 -0.89844,6.78516 -0.7922,1.8961 -1.43995,4.70031 -1.43945,6.23047 9e-4,3.36199 5.26584,14.83621 7.15234,15.58789 2.6132,1.04122 3.96318,0.66967 6.39258,-1.75976 2.0376,-2.03752 2.4568,-3.43919 2.4668,-8.25 0.0124,-6.19154 -3.8675,-19.12633 -6.9707,-23.24024 -0.8528,-1.13063 -1.29791,-1.69845 -1.86914,-1.76172 z"
       style="fill:url(#linearGradient4712)" />
    <path
       id="path5016"
       d="m 671.89648,231.57812 c -0.4761,0.47611 -0.39992,2.51507 0.17188,4.58594 0.5661,2.05038 0.89507,5.86069 0.73047,8.46875 -0.2751,4.35923 -0.12363,4.72467 1.88867,4.51563 1.204,-0.12507 3.679,0.4199 5.5,1.21094 4.3951,1.90913 6.51289,1.83433 11.42969,-0.39844 7.3723,-3.34787 9.78491,-9.81789 4.63281,-12.42578 -4.4533,-2.25415 -23.41742,-6.89308 -24.35352,-5.95704 z"
       style="fill:url(#linearGradient4712)" />
    <path
       id="path5014"
       d="m 401.90234,196.375 c -8.21667,0 -10.92808,1.21667 -10.86718,4.87305 0.0879,5.28039 8.89113,15.01904 14.52148,16.06445 2.16843,0.40262 4.73086,1.43903 5.69336,2.30273 2.14893,1.92836 2.30092,7.55766 0.25,9.25977 -4.04865,3.36009 -0.11067,10.96636 7,13.51953 2.26772,0.81425 6.76867,1.3378 10.39453,1.20899 8.54426,-0.30353 9.42275,-1.67665 5.67383,-8.87305 -1.53414,-2.94491 -3.52785,-6.78255 -4.42969,-8.52735 -1.54222,-2.98378 -1.89366,-3.13878 -5.9082,-2.61132 -7.76815,1.02064 -10.23678,-3.80675 -6.05274,-11.83399 2.17078,-4.16474 2.17165,-4.19115 0.25,-7.73633 -3.00778,-5.54893 -7.53994,-7.64648 -16.52539,-7.64648 z m 34.90821,8.94922 c -0.98153,-0.0811 -1.64337,-0.0517 -1.89453,0.10351 -0.50404,0.31151 -0.91602,2.56528 -0.91602,5.00782 0,3.92621 0.2608,4.44492 2.25,4.48242 1.2375,0.0233 5.4,1.13717 9.25,2.47461 8.00871,2.78214 9.43146,2.92684 12.95312,1.32226 5.40781,-2.46396 1.98287,-7.72725 -6.60351,-10.14843 -6.26967,-1.76792 -12.09448,-2.9989 -15.03906,-3.24219 z"
       style="fill:url(#linearGradient4712)" />
    <path
       id="path5012"
       d="m 674.1543,167.18945 c -5.81489,-0.25746 -12.0858,0.098 -18.6543,1.07617 -25.5023,3.79768 -38.90367,9.24847 -51.00977,20.74805 -13.6425,12.95908 -19.51547,24.81662 -20.26367,40.91406 -0.5268,11.33149 0.54644,16.20151 7.71094,34.98243 10.7755,28.24672 27.2131,48.36841 42.5,52.02734 5.2217,1.2498 6.118,1.02984 8.4043,-2.0625 2.0233,-2.7367 2.73002,-3 8.04882,-3 8.31281,0 15.10938,-1.0831 15.10938,-2.4082 0,-0.62517 -1.65218,-2.0257 -3.67188,-3.11328 -3.7379,-2.01274 -8.78841,-8.85611 -11.72851,-15.89258 -1.8096,-4.33115 -1.15911,-4.3108 -15.09961,-0.4961 -6.8595,1.87705 -8.59998,2.02304 -12.20508,1.02344 -6.3625,-1.76412 -10.03357,-5.40169 -11.88867,-11.7832 -2.4041,-8.2697 -0.41376,-15.48254 6.77734,-24.5625 1.6257,-2.05275 2.70951,-4.12968 2.40821,-4.61719 -0.3013,-0.48751 -2.45095,-1.19245 -4.77735,-1.56445 -13.7035,-2.19128 -23.98242,-12.59085 -23.98242,-24.26563 0,-3.34812 0.60339,-5.15912 2.33399,-7.01367 4.0782,-4.37037 10.59376,-6.97663 21.91796,-8.76758 l 3.58399,-0.5664 -0.45899,-7.91602 c -0.6449,-11.13926 0.19741,-14.46303 4.84571,-19.11133 3.4364,-3.43639 4.53034,-3.94531 8.49414,-3.94531 5.1398,0 8.832,1.61382 12.375,5.40625 3.0023,3.21366 4.1197,3.24168 7,0.17578 5.6552,-6.01973 25.02071,-9.9747 34.72851,-7.0918 7.9659,2.36561 11.55211,7.45721 11.53711,16.38086 -0.0117,6.89674 -3.12899,15.58472 -7.77539,21.67188 -1.8784,2.46085 -3.41406,4.87747 -3.41406,5.36914 0,0.49167 3.2625,1.87041 7.25,3.06445 13.3472,3.99674 18.73609,9.34453 18.74609,18.59375 0.008,10.31585 -7.88352,20.40462 -18.38671,23.50586 -5.2768,1.55805 -5.32195,1.73232 -3.02735,11.61328 1.0356,4.45933 1.35574,8.62378 0.92774,12.06055 -0.9572,7.68527 1.25742,6.92413 8.57812,-2.94922 7.5979,-10.24732 18.34535,-31.8171 23.34375,-46.85156 3.6048,-10.84283 3.78034,-11.96296 3.33984,-21.16602 -0.398,-8.31597 -0.91272,-10.62219 -3.57812,-16 -6.9916,-14.10678 -20.99019,-26.76761 -34.12109,-30.86132 -4.74415,-1.47905 -10.10309,-2.34996 -15.91797,-2.60743 z m -43.9668,8.00391 c 0.7977,0.31922 0.55953,0.55551 -0.60547,0.60352 -1.0541,0.0434 -1.6448,-0.19311 -1.3125,-0.5254 0.3323,-0.33225 1.19607,-0.36699 1.91797,-0.0781 z m 48.0625,13.70703 c -8.2021,0.0349 -14.32655,1.68485 -17.49805,4.7168 -3.3801,3.23131 -6.31971,10.83602 -7.25781,18.77539 -0.3888,3.29033 -1.33486,6.97911 -2.10156,8.19726 -0.7668,1.21815 -1.39258,2.68065 -1.39258,3.25 0,0.5881 2.3754,1.03516 5.5,1.03516 4.143,0 5.5,-0.35864 5.5,-1.45312 0,-3.46407 2.67682,-6.85558 7.23242,-9.16407 C 677.54992,209.53627 684,200.30754 684,191.69727 c 0,-2.77151 -0.1027,-2.82088 -5.75,-2.79688 z m -43.01562,5.08399 c -0.13361,-0.024 -0.17904,0.44588 -0.24219,1.39062 -0.1337,2 -0.13248,2 -1.08008,0 -1.1105,-2.34398 -0.47758,9.86744 0.66601,12.84766 0.49181,1.28158 0.91896,1.46522 1.43946,0.62304 0.5565,-0.90048 0.89388,-0.85946 1.36328,0.16602 0.9598,2.09695 -0.3761,-10.97419 -1.375,-13.45313 -0.41535,-1.03076 -0.63788,-1.55019 -0.77148,-1.57421 z M 618.96094,222.875 c -7.1791,0 -11.96094,1.60379 -11.96094,4.00977 0,2.82279 5.50491,6.80387 10.25391,7.41601 2.3349,0.30096 5.37109,0.71833 6.74609,0.92578 5.894,0.88924 8,0.64825 8,-0.91601 0,-2.20126 -1.80975,-5.46824 -4.81055,-8.68555 -2.2146,-2.37439 -3.33841,-2.75 -8.22851,-2.75 z m 38.56836,16.27148 c -0.41732,-0.29814 -1.20545,-0.18626 -2.6836,0.10938 -5.6752,1.13503 -6.97456,4.15307 -3.60156,8.36914 0.55,0.6875 2.01822,1.25 3.26172,1.25 2.4165,0 3.45547,-2.20248 3.48047,-7.375 0.006,-1.34712 -0.0397,-2.05537 -0.45703,-2.35352 z M 637.73242,255.875 c -1.4066,0 -8.35894,6.88077 -11.08594,10.97266 -0.9063,1.35987 -1.64648,4.17237 -1.64648,6.25 0,3.64267 0.12399,3.77734 3.46289,3.77734 5.1674,0 14.28827,-3.77949 18.66797,-7.73633 3.6045,-3.25647 5.03477,-6.26367 2.98047,-6.26367 -0.4883,0 -3.17806,-1.575 -5.97656,-3.5 -2.7985,-1.925 -5.67865,-3.5 -6.40235,-3.5 z"
       style="fill:url(#linearGradient4712)" />
    <path
       id="path5010"
       d="m 432.77344,133.08789 c -7.74047,-0.515 -17.47908,0.32514 -32.27344,2.31836 -35.95163,4.84371 -43.67288,7.42713 -54.44922,18.22266 C 337.23464,162.46075 335,168.07985 335,181.41211 c 0,7.24047 0.3149,9.46289 1.33984,9.46289 0.73672,0 1.86245,-1.1472 2.50196,-2.55078 1.55547,-3.41387 6.95409,-5.512 15.9375,-6.19141 l 7.41015,-0.56054 -0.66015,-3.09766 c -1.57112,-7.38511 -1.65894,-9.40635 -0.58399,-13.39844 2.24641,-8.34252 10.49617,-14.36719 19.67188,-14.36719 6.93775,0 12.89614,4.4153 18.77734,13.91602 1.44697,2.3375 2.91472,4.25 3.26367,4.25 0.34896,0 2.53358,-1.55405 4.85352,-3.45508 2.31995,-1.90102 6.40023,-4.61753 9.0664,-6.03515 19.5663,-10.4035 43.31295,-5.48446 48.4336,10.03125 2.20159,6.67089 -1.65948,16.86399 -7.93945,20.95898 -1.68693,1.1 -3.06832,2.4813 -3.07032,3.06836 -0.002,0.58706 2.50623,1.85774 5.57227,2.82422 10.51755,3.31537 17.87004,14.52758 15.4414,23.54687 -1.91684,7.11861 -11.72563,14.06055 -19.86718,14.06055 l -3.91602,0 -0.40625,6.38086 c -0.32108,5.04236 -0.98602,7.14138 -3.17383,10.00976 -5.19087,6.80558 -13.06909,9.25201 -24.54101,7.625 -8.87291,-1.2584 -15.90935,-4.72504 -21.5625,-10.625 l -4.32422,-4.51171 -6.86328,3.12304 c -13.41022,6.1043 -20.80711,5.7921 -31.53711,-1.33007 -9.78342,-6.49388 -11.1394,-14.78476 -4.28125,-26.17383 1.90112,-3.15713 3.45703,-6.10031 3.45703,-6.54102 0,-0.44071 -1.6875,-1.33655 -3.75,-1.99023 -5.9631,-1.88994 -12.03739,-5.7689 -14.48828,-9.25196 -3.72162,-5.28894 -5.12,-4.73257 -4.31445,1.71485 3.80411,30.44701 20.14032,66.64718 34.30859,76.02734 2.38359,1.57807 4.47073,2.25375 5.74414,1.85938 1.1,-0.34066 11.225,-0.94698 22.5,-1.34766 28.58822,-1.01596 43.17734,-4.23209 55,-12.12695 13.35962,-8.92122 25.32885,-28.20757 31.24219,-50.3418 3.84749,-14.40153 1.88313,-39.1832 -4.1211,-52 -4.13626,-8.82938 -15.75539,-19.76219 -27.07031,-25.47266 -6.79569,-3.42968 -12.53688,-5.29945 -20.27734,-5.81445 z m -54.38282,31.82813 c -0.79188,0.13163 -1.56456,0.41628 -2.27343,0.86523 -2.26198,1.43259 -0.9596,10.98244 2.24414,16.44922 1.49703,2.55448 3.09583,4.64453 3.55273,4.64453 1.83013,0 10.08594,-4.1582 10.08594,-5.08008 0,-1.32963 -4.78595,-10.75153 -7.19727,-14.16992 -1.49178,-2.1148 -4.03646,-3.10389 -6.41211,-2.70898 z m 59.11133,3.33789 c -4.45127,0.19456 -9.27087,1.19438 -13.00195,2.93554 -6.74427,3.14729 -11.5,7.19938 -11.5,9.79883 0,0.9898 1.82958,2.80341 4.25,4.21289 2.3375,1.36119 5.04429,2.51922 6.01562,2.57422 2.24039,0.12689 22.48746,-6.77985 25.48438,-8.69336 3.2588,-2.08071 3.02443,-6.65245 -0.45703,-8.93359 -2.25782,-1.47938 -6.33975,-2.0891 -10.79102,-1.89453 z m -67.86133,29.20507 c -2.32684,0.8929 -2.03208,2.92139 0.60938,4.19532 3.24017,1.56267 5.75,1.45133 5.75,-0.25586 0,-2.0213 -4.34436,-4.71269 -6.35938,-3.93946 z m 9.36719,15.19727 -2.7539,2.90625 c -1.51461,1.59869 -3.66605,3.56015 -4.78125,4.35938 C 368.0207,222.3958 365,227.0185 365,229.82812 c 0,2.02933 0.79247,3.07967 3.25,4.30274 1.7875,0.88961 4.78879,1.64644 6.66992,1.68164 4.51385,0.0844 17.09461,-5.70235 17.03711,-7.83594 -0.0238,-0.88108 -2.94696,-4.68802 -6.49609,-8.46094 l -6.45313,-6.85937 z"
       style="fill:url(#linearGradient4712)" />
    <path
       id="path5008"
       d="m 676.78711,127.2168 c -3.57349,-0.152 -7.23135,-0.13691 -10.97461,0.0449 -14.4124,0.70008 -41.46032,5.84101 -54.97852,10.45117 -24.0814,8.21259 -45.79805,24.83083 -55.09765,42.16211 -10.7709,20.07334 -13.27631,29.91725 -13.10938,51.5 0.20528,26.54139 4.13256,43.17252 15.82422,67 7.4701,15.22406 11.45465,20.84037 23.31055,32.86133 19.3622,19.63186 40.94518,33.06863 60.23828,37.5039 10.6599,2.45059 28.17594,2.76232 36.30664,0.64454 18.3011,-4.76683 31.53147,-19.11102 35.00977,-37.95704 1.0285,-5.57272 2.04617,-7.68736 6.20117,-12.86132 11.9405,-14.86904 18.90234,-26.00662 26.05664,-41.69141 11.9625,-26.22616 17.28515,-48.60125 16.12305,-67.76758 -1.4019,-23.12033 -8.12429,-39.52137 -22.17969,-54.10156 -16.85093,-17.4802 -37.71608,-26.72505 -62.73047,-27.78904 z M 669.5,153.49023 c 14.9582,-0.081 16.53524,0.0938 24.21484,2.68165 20.986,7.07188 42.41368,29.3272 47.17578,48.99804 0.63841,2.63715 1.17632,9.24809 1.19532,14.69141 0.0308,8.67977 -0.39012,11.16461 -3.41602,20.20508 -9.2725,27.70315 -21.24707,48.52307 -38.51367,66.95703 -12.2888,13.11964 -21.33413,17.25546 -40.48633,18.51562 -9.0495,0.59544 -10.05287,0.87312 -12.67187,3.49219 -2.3516,2.35157 -3.68148,2.83966 -7.67188,2.81836 -11.1821,-0.0598 -26.25202,-8.29138 -36.01562,-19.67188 -9.305,-10.84611 -18.37958,-25.88011 -22.83008,-37.82617 -1.4293,-3.8366 -3.66059,-9.67656 -4.95899,-12.97656 -10.1681,-25.84408 -7.04884,-50.119 9.16016,-71.28125 C 603.55554,165.45212 630.79,153.69973 669.5,153.49023 Z"
       style="fill:url(#linearGradient4712)" />
    <path
       id="path5006"
       d="m 380.75977,93.427734 c -8.2986,0.190962 -15.76629,0.958372 -20.75977,2.263672 -11.23201,2.93604 -16.88117,5.925234 -26.43555,13.988284 -10.53557,8.89108 -17.94092,19.85691 -24.43945,36.19531 -6.53542,16.43114 -9.77159,29.83539 -11.14062,46.13672 -0.4787,5.69984 -1.57134,12.82467 -2.42774,15.83203 -3.85346,13.53177 -0.14004,33.27287 9.22266,49.03125 1.47049,2.475 4.53093,8.58996 6.80078,13.58789 13.37977,29.46067 44.69892,52.32957 77.29297,56.4375 11.70752,1.47553 31.86917,0.52447 38.12695,-1.79883 3.025,-1.12308 9.1,-2.7881 13.5,-3.69922 18.50879,-3.83265 29.17064,-9.49365 43.375,-23.02734 15.73599,-14.99301 23.66515,-27.12747 33.0293,-50.54883 4.41455,-11.04154 5.15736,-13.9744 6.17578,-24.40429 1.6738,-17.14171 0.68242,-45.91075 -1.91406,-55.54688 -5.96295,-22.12979 -14.16779,-36.04671 -27.84961,-47.24023 C 477.51821,107.70977 455.66616,99.893322 427,96.914062 c -5.775,-0.600189 -15,-1.631878 -20.5,-2.292968 -8.31215,-0.999115 -17.44164,-1.384321 -25.74023,-1.19336 z m 45.68359,25.310546 c 6.66977,-0.10793 12.51283,0.22877 15.55664,1.04102 24.44813,6.52401 46.76218,25.23921 53.38086,44.77148 5.37408,15.85933 6.67074,40.44072 2.86914,54.35547 -5.82387,21.31675 -14.40713,36.95138 -27.75,50.54102 -7.48709,7.62557 -10.42886,9.85767 -17.5,13.27734 -14.514,7.01909 -31.19867,10.15039 -54.07031,10.15039 -11.11782,0 -12.82538,0.22538 -14.33594,1.89453 -3.56056,3.93438 -8.96642,3.08674 -19.3125,-3.03125 -7.73905,-4.57636 -13.27779,-10.25424 -19.86719,-20.36328 -14.22882,-21.82894 -23.32399,-50.88871 -24.88086,-79.5 -1.25562,-23.0751 2.79927,-35.45725 15.8711,-48.46875 11.69348,-11.63953 24.08251,-16.76934 48.37109,-20.02539 5.89781,-0.79064 15.41393,-2.14761 21.14649,-3.01758 6.35427,-0.96432 13.85171,-1.51707 20.52148,-1.625 z"
       style="fill:url(#linearGradient4712)" />
  </g>
</svg>
