<?xml version="1.0" encoding="UTF-8" standalone="no"?>
<svg
   xmlns:osb="http://www.openswatchbook.org/uri/2009/osb"
   xmlns:dc="http://purl.org/dc/elements/1.1/"
   xmlns:cc="http://creativecommons.org/ns#"
   xmlns:rdf="http://www.w3.org/1999/02/22-rdf-syntax-ns#"
   xmlns:svg="http://www.w3.org/2000/svg"
   xmlns="http://www.w3.org/2000/svg"
   xmlns:xlink="http://www.w3.org/1999/xlink"
   version="1.1"
   id="svg2985"
   height="938.69989"
   width="542.61688">
  <defs
     id="defs5498">
    <linearGradient
       osb:paint="solid"
       id="linearGradient4756">
      <stop
         id="stop4758"
         offset="0"
         style="stop-color:#ffffff;stop-opacity:1;" />
    </linearGradient>
    <linearGradient
       osb:paint="solid"
       id="linearGradient4750">
      <stop
         id="stop4752"
         offset="0"
         style="stop-color:#000000;stop-opacity:1;" />
    </linearGradient>
    <linearGradient
       osb:paint="solid"
       id="linearGradient5694">
      <stop
         id="stop5696"
         offset="0"
         style="stop-color:#002b11;stop-opacity:1;" />
    </linearGradient>
    <linearGradient
       osb:paint="solid"
       id="linearGradient4712">
      <stop
         id="stop4714"
         offset="0"
         style="stop-color:#162d50;stop-opacity:1;" />
    </linearGradient>
    <linearGradient
       osb:paint="solid"
       id="linearGradient4706">
      <stop
         id="stop4708"
         offset="0"
         style="stop-color:#d40000;stop-opacity:1;" />
    </linearGradient>
    <linearGradient
       gradientUnits="userSpaceOnUse"
       y2="508.69208"
       x2="761.44257"
       y1="508.69208"
       x1="262.13925"
       id="linearGradient4716"
       xlink:href="#linearGradient4712" />
    <linearGradient
       gradientUnits="userSpaceOnUse"
       y2="500.0004"
       x2="771.30902"
       y1="500.0004"
       x1="228.69211"
       id="linearGradient4754"
       xlink:href="#linearGradient4750" />
    <linearGradient
       gradientUnits="userSpaceOnUse"
       y2="500.10483"
       x2="752.40271"
       y1="500.10483"
       x1="248.61133"
       id="linearGradient4760"
       xlink:href="#linearGradient4756" />
    <linearGradient
       y2="508.69208"
       x2="761.44257"
       y1="508.69208"
       x1="262.13925"
       gradientUnits="userSpaceOnUse"
       id="linearGradient501"
       xlink:href="#linearGradient4712" />
    <linearGradient
       y2="508.69208"
       x2="761.44257"
       y1="508.69208"
       x1="262.13925"
       gradientUnits="userSpaceOnUse"
       id="linearGradient503"
       xlink:href="#linearGradient4712" />
    <linearGradient
       y2="508.69208"
       x2="761.44257"
       y1="508.69208"
       x1="262.13925"
       gradientUnits="userSpaceOnUse"
       id="linearGradient505"
       xlink:href="#linearGradient4712" />
  </defs>
  <metadata
     id="metadata5594">
    <rdf:RDF>
      <cc:Work
         rdf:about="">
        <dc:format>image/svg+xml</dc:format>
        <dc:type
           rdf:resource="http://purl.org/dc/dcmitype/StillImage" />
        <dc:title />
      </cc:Work>
    </rdf:RDF>
  </metadata>
  <g
     transform="translate(-228.6921,-30.649671)"
     style="display:inline"
     id="layer10">
    <path
       id="path4748"
       d="m 482.88281,50.783203 c -5.12786,0.108289 -9.4484,0.28483 -13.74023,0.546875 -4.29183,0.262046 -8.55495,0.609596 -13.56836,1.058594 -12.375,1.108298 -29.25,2.522532 -37.5,3.142578 -6.33888,0.476412 -11.69948,0.937822 -16.44922,1.447266 -4.74974,0.509443 -8.88937,1.066115 -12.7832,1.734375 -3.89383,0.668259 -7.54135,1.44753 -11.3125,2.40039 -3.77116,0.952861 -7.66517,2.080114 -12.04688,3.44336 -7.22693,2.248457 -13.03408,4.186442 -17.86523,6.101562 -2.41558,0.95756 -4.5879,1.908705 -6.57031,2.890625 -1.98242,0.98192 -3.77577,1.99419 -5.43555,3.072266 -1.65978,1.078075 -3.18515,2.222723 -4.63281,3.46875 -1.44767,1.246027 -2.81799,2.594303 -4.16407,4.080078 -1.34607,1.485774 -2.66843,3.108932 -4.02343,4.90625 -1.35501,1.797318 -2.74234,3.768561 -4.2168,5.949219 -2.6032,3.85 -6.76941,9.263039 -9.25977,12.029299 -1.24518,1.38313 -2.54907,3.0511 -3.64648,4.625 -1.09741,1.5739 -1.98834,3.05374 -2.4082,4.05859 -0.44102,1.05551 -1.13907,2.1316 -1.94336,3.05664 -0.8043,0.92505 -1.71482,1.69905 -2.58008,2.14649 -0.56278,0.29102 -1.16054,0.74593 -1.78321,1.3457 -0.62266,0.59977 -1.27075,1.34366 -1.93164,2.21094 -1.32177,1.73454 -2.69836,3.96432 -4.04296,6.52148 -1.34461,2.55717 -2.65753,5.4423 -3.85157,8.49219 -1.19403,3.04989 -2.2686,6.26383 -3.13867,9.47656 -0.73924,2.72966 -2.3096,12.85466 -3.48828,22.5 -0.47928,3.922 -0.84834,7.17615 -1.125,10.27149 -0.27666,3.09534 -0.461,6.03207 -0.56836,9.3164 -0.21471,6.56866 -0.12404,14.53074 0.13867,27.94922 0.16152,8.25 0.41515,16.36836 0.69336,22.80273 0.27821,6.43438 0.58099,11.18477 0.8418,12.69727 0.31216,1.81033 0.55323,6.01794 0.71875,11.42969 0.16552,5.41174 0.25563,12.02794 0.26953,18.6582 0.0139,6.63026 -0.0487,13.27435 -0.19141,18.74024 -0.1427,5.46588 -0.36563,9.75325 -0.66992,11.67187 -0.52338,3.3 -1.45884,14.325 -2.08008,24.5 -0.58474,9.57709 -1.17185,17.93767 -1.89257,26.10352 -0.72073,8.16584 -1.57519,16.13761 -2.69141,24.93945 -1.11622,8.80184 -2.4944,18.43289 -4.26563,29.91797 -1.77122,11.48507 -3.93535,24.8235 -6.62109,41.03906 -1.62977,9.84001 -2.77157,17.57778 -3.62305,24.92383 -0.85147,7.34605 -1.41261,14.30036 -1.88281,22.57617 -0.53586,9.4316 -1.19618,18.3948 -1.88281,25.81641 -0.68663,7.4216 -1.39956,13.30162 -2.03906,16.57031 -0.57961,2.96257 -1.06342,7.68757 -1.07422,10.5 -0.0108,2.81243 -0.73261,8.71328 -1.60352,13.11328 -0.33863,1.71086 -0.61221,3.9389 -0.83789,7.60742 -0.22568,3.66853 -0.40286,8.77843 -0.55273,16.25391 -0.29975,14.95095 -0.48564,39.3642 -0.70508,80.63867 -0.15475,29.10648 -0.29129,50.66526 -0.22852,67.13672 0.0314,8.23573 0.11244,15.19915 0.26563,21.19922 0.15318,6.00006 0.37929,11.03623 0.69922,15.41601 0.31992,4.37979 0.73401,8.10361 1.26562,11.47852 0.53161,3.3749 1.18051,6.4013 1.96875,9.38672 0.78825,2.98541 1.71682,5.92931 2.80664,9.14062 1.08982,3.21132 2.34101,6.68958 3.77735,10.74219 2.30125,6.49295 4.39676,12.22854 6.35546,17.37305 1.95871,5.1445 3.78128,9.69749 5.53907,13.82617 1.75779,4.12868 3.44992,7.83383 5.14843,11.2793 1.69852,3.44546 3.40273,6.63168 5.1836,9.72656 1.94491,3.37995 3.64455,6.18931 5.29297,8.64648 1.64842,2.45718 3.24477,4.56124 4.98242,6.53321 1.73765,1.97196 3.61749,3.81201 5.83008,5.73632 2.21259,1.92432 4.75878,3.93383 7.83203,6.24805 4.60665,3.46891 8.44541,6.23627 12.11914,8.5625 1.83686,1.16312 3.63322,2.21636 5.46289,3.19141 1.82967,0.97504 3.69285,1.87256 5.66602,2.72461 3.94632,1.70408 8.32947,3.2276 13.7539,4.83007 5.42443,1.60248 11.89,3.2833 19.99805,5.30469 7.425,1.8511 17.775,4.50674 23,5.90235 3.98744,1.06505 7.85533,1.94257 12.26562,2.6914 4.4103,0.74883 9.36323,1.36876 15.52149,1.91992 6.15826,0.55117 13.52062,1.0338 22.75195,1.50586 9.23134,0.47207 20.33142,0.93379 33.96094,1.44532 13.75,0.51604 25.9,1.18674 27,1.49218 1.77601,0.49316 5.09988,0.97845 9.69336,1.43946 4.59348,0.461 10.45564,0.89838 17.30859,1.29492 13.70591,0.79308 31.3737,1.42428 50.76953,1.76562 12.0372,0.21184 23.05267,0.47768 31.10352,0.73438 8.05085,0.2567 13.13707,0.50425 13.31445,0.68164 0.3222,0.3222 2.48784,0.52213 5.7168,0.61719 3.22895,0.0951 7.52218,0.0848 12.0957,-0.0137 4.57353,-0.0984 9.4273,-0.28468 13.78321,-0.54297 4.3559,-0.25829 8.21297,-0.58816 10.78906,-0.97266 5.69076,-0.84938 11.16804,-1.83528 16.33984,-2.93164 5.1718,-1.09636 10.03828,-2.30242 14.50391,-3.5918 4.46562,-1.28938 8.53127,-2.66333 12.10351,-4.09179 3.57224,-1.42847 6.65093,-2.91219 9.14258,-4.42579 1.77011,-1.07528 3.41565,-2.23874 4.94727,-3.50195 1.53162,-1.26321 2.94866,-2.62599 4.26367,-4.10156 1.31501,-1.47557 2.52817,-3.06302 3.64844,-4.77539 1.12026,-1.71237 2.1483,-3.54984 3.0957,-5.52344 0.71178,-1.48274 1.24712,-2.61206 1.65039,-3.75 0.40327,-1.13794 0.6743,-2.28548 0.85547,-3.80273 0.36233,-3.03451 0.36702,-7.5508 0.35937,-16.44727 -0.005,-6.07416 -0.3677,-14.85855 -0.95117,-24.73437 -0.58346,-9.87583 -1.38873,-20.84395 -2.27539,-31.28321 -0.88665,-10.43926 -1.85474,-20.35078 -2.76953,-28.11523 -0.4574,-3.88223 -0.90159,-7.22763 -1.31445,-9.83399 -0.41286,-2.60635 -0.79497,-4.47273 -1.12891,-5.39843 l -1.04297,-2.88672 0.36133,-1.27344 2.73828,-4.79102 c 0.40582,-0.36996 0.4283,-0.3033 0.95117,-0.82617 1.05461,-1.05461 1.88033,-1.67705 2.89258,-2 1.01225,-0.32295 2.21104,-0.34641 4.00977,-0.20312 l 4.34961,0.3457 0.47461,-16 c 1.49762,-50.66494 2.87404,-89.50298 3.82812,-108 0.59576,-11.55 1.47104,-36.975 1.94531,-56.5 0.23714,-9.7625 0.62225,-20.1 1.05274,-28.89062 0.43049,-8.79063 0.90635,-16.03438 1.32226,-19.60938 0.41591,-3.575 0.90825,-10.70703 1.36524,-19.31641 0.45699,-8.60937 0.87863,-18.69609 1.15625,-28.18359 0.55523,-18.975 1.53997,-45.56816 2.1875,-59.0957 0.33887,-7.07941 0.56012,-15.12855 0.64844,-22.69531 0.0883,-7.56677 0.0437,-14.65118 -0.15235,-19.80469 -0.36442,-9.57939 -1.05633,-35.61314 -1.56055,-58.27344 0.17357,-14.4417 0.3003,-27.87197 0.13477,-33.5 -0.19531,-6.64063 -0.4873,-12.84131 -0.90234,-18.9082 -0.41504,-6.0669 -0.95313,-12 -1.63672,-18.10352 -0.6836,-6.10351 -1.51465,-12.37841 -2.51563,-19.12891 -1.00097,-6.75048 -2.17187,-13.97656 -3.53906,-21.98437 -0.68359,-4.00391 -1.73308,-8.11835 -3.04688,-12.25195 -0.0724,-0.22787 -0.18185,-0.45367 -0.25585,-0.68164 -1.32319,-5.54666 -2.86983,-11.64112 -4.48243,-17.56055 -1.61259,-5.91943 -3.29112,-11.66382 -4.875,-16.51172 -1.34769,-4.125 -3.24631,-10.63164 -5.21875,-17.79101 -1.97244,-7.15938 -4.0187,-14.97149 -5.66406,-21.70899 -2.10508,-8.62003 -3.72492,-15.19061 -5.19531,-20.5625 -1.4704,-5.37189 -2.79179,-9.54464 -4.29688,-13.36914 -1.50508,-3.8245 -3.19515,-7.30144 -5.40429,-11.2793 -2.20915,-3.977855 -4.93694,-8.457097 -8.51953,-14.289059 -1.78234,-2.901396 -3.1474,-5.108008 -4.28907,-6.835938 -1.14167,-1.727929 -2.06063,-2.97714 -2.94922,-3.960937 -0.88858,-0.983798 -1.74644,-1.702096 -2.76953,-2.371094 -1.02308,-0.668999 -2.21069,-1.288732 -3.75586,-2.072266 -1.64326,-0.833276 -4.37661,-1.794908 -8.09961,-2.861328 -3.723,-1.06642 -8.43661,-2.237011 -14.04101,-3.492187 -5.6044,-1.255177 -12.09927,-2.594593 -19.38672,-3.994141 -7.28745,-1.399548 -15.36651,-2.859843 -24.13867,-4.359375 -6.29485,-1.076055 -11.50879,-1.912665 -16.61914,-2.570313 -5.11035,-0.657647 -10.11648,-1.135847 -15.99805,-1.49414 -5.88157,-0.358293 -12.63758,-0.597397 -21.24609,-0.775391 -8.60852,-0.177993 -19.07015,-0.295361 -32.36133,-0.412109 -22.95028,-0.201594 -36.43568,-0.259547 -46.69141,-0.04297 z"
       style="color:#000000;clip-rule:nonzero;display:inline;overflow:visible;visibility:visible;opacity:1;isolation:auto;mix-blend-mode:normal;color-interpolation:sRGB;color-interpolation-filters:linearRGB;solid-color:#000000;solid-opacity:1;fill:url(#linearGradient4760);fill-opacity:1;fill-rule:nonzero;stroke:none;stroke-width:1;stroke-linecap:butt;stroke-linejoin:miter;stroke-miterlimit:4;stroke-dasharray:none;stroke-dashoffset:0;stroke-opacity:1;color-rendering:auto;image-rendering:auto;shape-rendering:auto;text-rendering:auto;enable-background:accumulate" />
    <path
       id="path4746"
       d="m 487.22852,30.755859 c -10.02069,0.168198 -16.84304,0.546047 -24.1543,1.197266 -9.9,0.881799 -29.7,2.495365 -44,3.585937 -7.15,0.545288 -14.71797,1.222512 -21.15234,1.875 -6.43438,0.652489 -11.73516,1.280239 -14.34766,1.72461 -3.09085,0.525735 -7.40366,1.567154 -12.29492,2.916016 -4.89127,1.348861 -10.36005,3.004544 -15.76172,4.757812 -5.40167,1.753268 -10.73731,3.604796 -15.35938,5.34375 -4.62207,1.738954 -8.53151,3.365954 -11.08398,4.671875 -2.38379,1.21962 -4.69925,2.645797 -6.96484,4.294922 -2.2656,1.649125 -4.48099,3.521673 -6.66602,5.636719 -2.18503,2.115045 -4.34031,4.472461 -6.48242,7.089843 -2.14211,2.617383 -4.27138,5.494256 -6.40821,8.650391 -1.58724,2.344395 -3.96911,5.439476 -6.52929,8.537109 -2.56019,3.097634 -5.2987,6.19782 -7.59571,8.552735 -1.7647,1.809186 -3.22354,3.359216 -4.49609,4.818356 -1.27255,1.45915 -2.35913,2.82785 -3.375,4.27149 -1.01587,1.44364 -1.96237,2.96193 -2.95703,4.72461 -0.99466,1.76267 -2.03716,3.7693 -3.24609,6.18554 -2.10575,4.20866 -3.80226,7.78055 -5.20704,11.14063 -1.40477,3.36008 -2.51867,6.50799 -3.46093,9.87109 -0.94227,3.3631 -1.71148,6.94049 -2.42969,11.15821 -0.71821,4.21771 -1.38457,9.07608 -2.11719,15 -1.0757,8.69806 -1.71482,14.87928 -2.07812,21.48242 -0.3633,6.60314 -0.45078,13.62819 -0.42578,24.01758 0.0164,6.81061 0.13976,13.56398 0.32421,18.95898 0.18446,5.395 0.43001,9.43164 0.69336,10.80664 0.39053,2.03896 0.72844,6.8428 0.9961,13.0957 0.26765,6.25291 0.46581,13.95428 0.57422,21.79102 0.1084,7.83674 0.12825,15.80914 0.041,22.59961 -0.0872,6.79046 -0.2823,12.39959 -0.60156,15.51367 -0.62026,6.05 -1.58527,18.875 -2.14453,28.5 -0.55926,9.625 -1.67608,22.19059 -2.48047,27.92383 -0.80439,5.73324 -1.46289,12.51652 -1.46289,15.07226 0,2.05468 -1.56411,12.88938 -3.8418,27.17774 -2.27769,14.28836 -5.26896,32.03038 -8.12695,47.90234 -1.11655,6.2008 -2.03125,13.39523 -2.03125,15.98828 0,2.59306 -0.63403,8.25292 -1.41016,12.57618 -0.38806,2.16163 -0.81545,6.03923 -1.1914,10.54492 -0.37596,4.50568 -0.70049,9.63945 -0.88282,14.31445 -0.36465,9.35 -1.06634,19.475 -1.55859,22.5 -0.49224,3.025 -1.36856,11.07184 -1.94727,17.88086 -0.57872,6.80901 -1.35459,12.87005 -1.7246,13.46875 -0.40559,0.65626 -0.76587,3.36222 -1.08399,8.32031 -0.31811,4.9581 -0.59329,12.16859 -0.83398,21.83008 -0.48139,19.32299 -0.81876,48.45408 -1.05079,89 -0.15441,26.98427 -0.26522,47.28737 -0.15234,63.0957 0.0564,7.90417 0.1688,14.68565 0.35938,20.61524 0.19057,5.92959 0.46048,11.00848 0.83007,15.50976 0.36959,4.50129 0.83817,8.42372 1.43165,12.04297 0.59347,3.61925 1.31158,6.93527 2.17382,10.21875 0.86224,3.28349 1.86905,6.53531 3.04492,10.0293 1.17588,3.49399 2.5203,7.2297 4.05469,11.48047 2.74594,7.60714 5.29031,14.47727 7.70508,20.71875 2.41477,6.24147 4.70089,11.85336 6.92773,16.94531 2.22685,5.09195 4.394,9.66369 6.57618,13.82227 2.18217,4.15858 4.37939,7.90435 6.66015,11.3457 2.28076,3.44135 4.64538,6.57926 7.16797,9.51953 2.52259,2.94027 5.2017,5.68256 8.10938,8.33789 2.90767,2.65533 6.04446,5.224 9.48047,7.81055 3.436,2.58654 7.1717,5.19188 11.27929,7.92578 3.51151,2.33716 6.75736,4.30709 10.28711,6.10547 3.52976,1.79838 7.34428,3.42497 11.99024,5.07422 4.64596,1.64924 10.12425,3.32117 16.98437,5.21093 6.86012,1.88977 15.1012,3.99764 25.27344,6.51758 7.74438,1.9185 14.11166,3.42462 20.01758,4.62696 5.90592,1.20233 11.34997,2.10093 17.25195,2.80664 5.90198,0.7057 12.26157,1.21789 19.99414,1.64648 7.73257,0.42859 16.83864,0.77353 28.23633,1.14453 16.775,0.54603 34.1,1.42383 38.5,1.94922 5.62814,0.67203 11.15555,1.25329 16.79687,1.75781 5.64133,0.50453 11.39562,0.93219 17.48243,1.29492 12.1736,0.72548 25.67141,1.19322 42.2207,1.50586 20.075,0.37925 40.775,1.00506 46,1.39063 6.8088,0.50245 13.10107,0.79518 19.11133,0.86133 6.01025,0.0661 11.73787,-0.0948 17.41601,-0.49805 5.67814,-0.40323 11.30669,-1.04937 17.11914,-1.95508 5.81246,-0.90571 11.80946,-2.07045 18.22266,-3.51172 6.39363,-1.43687 11.97304,-2.88897 16.91602,-4.44336 2.47148,-0.77719 4.78288,-1.58112 6.95898,-2.41992 2.1761,-0.83879 4.21701,-1.71288 6.14258,-2.63476 1.92556,-0.92188 3.7352,-1.89152 5.45508,-2.91797 1.71987,-1.02645 3.34916,-2.10922 4.9082,-3.26172 1.55904,-1.1525 3.04913,-2.3738 4.49219,-3.67383 1.44305,-1.30003 2.83901,-2.67939 4.21093,-4.14844 2.12624,-2.27675 4.04178,-4.59599 5.74414,-6.94921 1.70237,-2.35323 3.19241,-4.74004 4.4629,-7.1543 1.27048,-2.41426 2.32176,-4.85655 3.15234,-7.31641 0.83058,-2.45986 1.43961,-4.93771 1.82226,-7.42773 0.29573,-1.92433 0.72208,-4.0278 1.16993,-5.86719 0.44784,-1.83939 0.91717,-3.41469 1.30078,-4.28125 0.50804,-1.14767 0.85537,-3.07886 1.07422,-6.25781 0.21885,-3.17896 0.30923,-7.60569 0.30273,-13.74219 -0.0113,-10.63605 0.63228,-37.71596 1.52539,-67.64062 0.89312,-29.92467 2.03577,-62.6941 3.02149,-84.70899 0.82498,-18.425 1.50381,-41.15 1.50781,-50.5 0.002,-4.675 0.16757,-11.17461 0.43164,-17.88086 0.26407,-6.70625 0.62665,-13.61914 1.02539,-19.11914 0.39874,-5.5 0.7652,-13.10428 1.0332,-20.92383 0.26801,-7.81955 0.43757,-15.85437 0.44532,-22.21875 0.008,-6.79244 0.17302,-14.06012 0.44726,-20.68359 0.27424,-6.62347 0.65796,-12.60274 1.10547,-16.81641 0.50438,-4.7492 1.02306,-11.6875 1.5293,-20.17969 0.50623,-8.49218 0.99989,-18.53805 1.45507,-29.5 0.91038,-21.92388 1.6659,-47.51424 2.05469,-71.67773 0.2185,-13.57931 0.21718,-30.35861 0.0508,-48.14258 -0.1664,-17.78396 -0.49833,-36.57252 -0.93945,-54.16797 -0.44112,-17.59545 -0.99198,-33.99796 -1.59766,-47.01172 -0.30283,-6.50687 -0.61808,-12.16734 -0.9414,-16.70507 -0.32332,-4.53774 -0.65435,-7.95321 -0.98438,-9.97266 -0.5393,-3.3 -2.38131,-14.775 -4.09375,-25.5 -0.85956,-5.38344 -1.78049,-10.57571 -2.77539,-15.63281 -0.9949,-5.0571 -2.06382,-9.97996 -3.2207,-14.82227 -1.15688,-4.8423 -2.40059,-9.6047 -3.7461,-14.34375 -1.3455,-4.73905 -2.79275,-9.45383 -4.35351,-14.20117 -1.13014,-3.4375 -2.97707,-9.83258 -5.04297,-17.36719 -2.0659,-7.53461 -4.35077,-16.20875 -6.35547,-24.20312 -1.86335,-7.43071 -3.41974,-13.4608 -4.81445,-18.50391 -1.39471,-5.0431 -2.62703,-9.09834 -3.8418,-12.58203 -1.21477,-3.48368 -2.41282,-6.395987 -3.73633,-9.148437 -1.32351,-2.75245 -2.77319,-5.345915 -4.49414,-8.195312 -2.15919,-3.575 -6.19356,-10.325 -8.96679,-15 -1.56872,-2.644473 -3.06533,-4.968861 -4.54102,-7.027344 -1.47569,-2.058484 -2.93053,-3.851725 -4.41406,-5.431641 -1.48354,-1.579916 -2.99564,-2.94748 -4.58789,-4.15625 -1.59225,-1.208769 -3.26458,-2.258081 -5.06641,-3.203125 -2.11864,-1.111209 -4.00395,-2.023498 -6.11523,-2.859375 -2.11128,-0.835877 -4.44906,-1.595216 -7.47071,-2.40039 -6.04329,-1.61035 -14.82451,-3.404052 -30.01562,-6.359375 -13.2411,-2.575964 -23.42022,-4.531753 -32.20313,-6.025391 -8.7829,-1.493638 -16.16933,-2.526002 -23.82421,-3.253906 -7.65489,-0.727904 -15.57851,-1.150927 -25.43555,-1.429688 -9.85704,-0.278761 -21.64774,-0.412384 -37.03711,-0.558594 -20.10598,-0.19102 -33.32502,-0.232653 -43.3457,-0.06445 z m -4.34571,20.027344 c 10.25573,-0.216578 23.74113,-0.158625 46.69141,0.04297 13.29118,0.116748 23.75281,0.234116 32.36133,0.412109 8.60851,0.177994 15.36452,0.417098 21.24609,0.775391 5.88157,0.358293 10.8877,0.836493 15.99805,1.49414 5.11035,0.657648 10.32429,1.494258 16.61914,2.570313 8.77216,1.499532 16.85122,2.959827 24.13867,4.359375 7.28745,1.399548 13.78232,2.738964 19.38672,3.994141 5.6044,1.255176 10.31801,2.425767 14.04101,3.492187 3.723,1.06642 6.45635,2.028052 8.09961,2.861328 1.54517,0.783534 2.73278,1.403267 3.75586,2.072266 1.02309,0.668998 1.88095,1.387296 2.76953,2.371094 0.88859,0.983797 1.80755,2.233008 2.94922,3.960937 1.14167,1.72793 2.50673,3.934542 4.28907,6.835938 3.58259,5.831962 6.31038,10.311204 8.51953,14.289058 2.20914,3.97786 3.89921,7.4548 5.40429,11.2793 1.50509,3.8245 2.82648,7.99725 4.29688,13.36914 1.47039,5.37189 3.09023,11.94247 5.19531,20.5625 1.64536,6.7375 3.69162,14.54961 5.66406,21.70899 1.97244,7.15937 3.87106,13.66601 5.21875,17.79101 1.58388,4.8479 3.26241,10.59229 4.875,16.51172 1.6126,5.91943 3.15924,12.01389 4.48243,17.56055 0.074,0.22797 0.18343,0.45377 0.25585,0.68164 1.3138,4.1336 2.36329,8.24804 3.04688,12.25195 1.36719,8.00781 2.53809,15.23389 3.53906,21.98437 1.00098,6.7505 1.83203,13.0254 2.51563,19.12891 0.68359,6.10352 1.22168,12.03662 1.63672,18.10352 0.41504,6.06689 0.70703,12.26757 0.90234,18.9082 0.16553,5.62803 0.0388,19.0583 -0.13477,33.5 0.50422,22.6603 1.19613,48.69405 1.56055,58.27344 0.19605,5.15351 0.24066,12.23792 0.15235,19.80469 -0.0883,7.56676 -0.30957,15.6159 -0.64844,22.69531 -0.64753,13.52754 -1.63227,40.1207 -2.1875,59.0957 -0.27762,9.4875 -0.69926,19.57422 -1.15625,28.18359 -0.45699,8.60938 -0.94933,15.74141 -1.36524,19.31641 -0.41591,3.575 -0.89177,10.81875 -1.32226,19.60938 -0.43049,8.79062 -0.8156,19.12812 -1.05274,28.89062 -0.47427,19.525 -1.34955,44.95 -1.94531,56.5 -0.95408,18.49702 -2.3305,57.33506 -3.82812,108 l -0.47461,16 -4.34961,-0.3457 c -1.79873,-0.14329 -2.99752,-0.11983 -4.00977,0.20312 -1.01225,0.32295 -1.83797,0.94539 -2.89258,2 -0.52287,0.52287 -0.54535,0.45621 -0.95117,0.82617 l -2.73828,4.79102 -0.36133,1.27344 1.04297,2.88672 c 0.33394,0.9257 0.71605,2.79208 1.12891,5.39843 0.41286,2.60636 0.85705,5.95176 1.31445,9.83399 0.91479,7.76445 1.88288,17.67597 2.76953,28.11523 0.88666,10.43926 1.69193,21.40738 2.27539,31.28321 0.58347,9.87582 0.94595,18.66021 0.95117,24.73437 0.008,8.89647 0.003,13.41276 -0.35937,16.44727 -0.18117,1.51725 -0.4522,2.66479 -0.85547,3.80273 -0.40327,1.13794 -0.93861,2.26726 -1.65039,3.75 -0.9474,1.9736 -1.97544,3.81107 -3.0957,5.52344 -1.12027,1.71237 -2.33343,3.29982 -3.64844,4.77539 -1.31501,1.47557 -2.73205,2.83835 -4.26367,4.10156 -1.53162,1.26321 -3.17716,2.42667 -4.94727,3.50195 -2.49165,1.5136 -5.57034,2.99732 -9.14258,4.42579 -3.57224,1.42846 -7.63789,2.80241 -12.10351,4.09179 -4.46563,1.28938 -9.33211,2.49544 -14.50391,3.5918 -5.1718,1.09636 -10.64908,2.08226 -16.33984,2.93164 -2.57609,0.3845 -6.43316,0.71437 -10.78906,0.97266 -4.35591,0.25829 -9.20968,0.44453 -13.78321,0.54297 -4.57352,0.0984 -8.86675,0.10872 -12.0957,0.0137 -3.22896,-0.0951 -5.3946,-0.29499 -5.7168,-0.61719 -0.17738,-0.17739 -5.2636,-0.42494 -13.31445,-0.68164 -8.05085,-0.2567 -19.06632,-0.52254 -31.10352,-0.73438 -19.39583,-0.34134 -37.06362,-0.97254 -50.76953,-1.76562 -6.85295,-0.39654 -12.71511,-0.83392 -17.30859,-1.29492 -4.59348,-0.46101 -7.91735,-0.9463 -9.69336,-1.43946 -1.1,-0.30544 -13.25,-0.97614 -27,-1.49218 -13.62952,-0.51153 -24.7296,-0.97325 -33.96094,-1.44532 -9.23133,-0.47206 -16.59369,-0.95469 -22.75195,-1.50586 -6.15826,-0.55116 -11.11119,-1.17109 -15.52149,-1.91992 -4.41029,-0.74883 -8.27818,-1.62635 -12.26562,-2.6914 -5.225,-1.39561 -15.575,-4.05125 -23,-5.90235 -8.10805,-2.02139 -14.57362,-3.70221 -19.99805,-5.30469 -5.42443,-1.60247 -9.80758,-3.12599 -13.7539,-4.83007 -1.97317,-0.85205 -3.83635,-1.74957 -5.66602,-2.72461 -1.82967,-0.97505 -3.62603,-2.02829 -5.46289,-3.19141 -3.67373,-2.32623 -7.51249,-5.09359 -12.11914,-8.5625 -3.07325,-2.31422 -5.61944,-4.32373 -7.83203,-6.24805 -2.21259,-1.92431 -4.09243,-3.76436 -5.83008,-5.73632 -1.73765,-1.97197 -3.334,-4.07603 -4.98242,-6.53321 -1.64842,-2.45717 -3.34806,-5.26653 -5.29297,-8.64648 -1.78087,-3.09488 -3.48508,-6.2811 -5.1836,-9.72656 -1.69851,-3.44547 -3.39064,-7.15062 -5.14843,-11.2793 -1.75779,-4.12868 -3.58036,-8.68167 -5.53907,-13.82617 -1.9587,-5.14451 -4.05421,-10.8801 -6.35546,-17.37305 -1.43634,-4.05261 -2.68753,-7.53087 -3.77735,-10.74219 -1.08982,-3.21131 -2.01839,-6.15521 -2.80664,-9.14062 -0.78824,-2.98542 -1.43714,-6.01182 -1.96875,-9.38672 -0.53161,-3.37491 -0.9457,-7.09873 -1.26562,-11.47852 -0.31993,-4.37978 -0.54604,-9.41595 -0.69922,-15.41601 -0.15319,-6.00007 -0.23424,-12.96349 -0.26563,-21.19922 -0.0628,-16.47146 0.0738,-38.03024 0.22852,-67.13672 0.21944,-41.27447 0.40533,-65.68772 0.70508,-80.63867 0.14987,-7.47548 0.32705,-12.58538 0.55273,-16.25391 0.22568,-3.66852 0.49926,-5.89656 0.83789,-7.60742 0.87091,-4.4 1.59272,-10.30085 1.60352,-13.11328 0.0108,-2.81243 0.49461,-7.53743 1.07422,-10.5 0.6395,-3.26869 1.35243,-9.14871 2.03906,-16.57031 0.68663,-7.42161 1.34695,-16.38481 1.88281,-25.81641 0.4702,-8.27581 1.03134,-15.23012 1.88281,-22.57617 0.85148,-7.34605 1.99328,-15.08382 3.62305,-24.92383 2.68574,-16.21556 4.84987,-29.55399 6.62109,-41.03906 1.77123,-11.48508 3.14941,-21.11613 4.26563,-29.91797 1.11622,-8.80184 1.97068,-16.77361 2.69141,-24.93945 0.72072,-8.16585 1.30783,-16.52643 1.89257,-26.10352 0.62124,-10.175 1.5567,-21.2 2.08008,-24.5 0.30429,-1.91862 0.52722,-6.20599 0.66992,-11.67187 0.14271,-5.46589 0.20531,-12.10998 0.19141,-18.74024 -0.0139,-6.63026 -0.10401,-13.24646 -0.26953,-18.6582 -0.16552,-5.41175 -0.40659,-9.61936 -0.71875,-11.42969 -0.26081,-1.5125 -0.56359,-6.26289 -0.8418,-12.69727 -0.27821,-6.43437 -0.53184,-14.55273 -0.69336,-22.80273 -0.26271,-13.41848 -0.35338,-21.38056 -0.13867,-27.94922 0.10736,-3.28433 0.2917,-6.22106 0.56836,-9.3164 0.27666,-3.09534 0.64572,-6.34949 1.125,-10.27149 1.17868,-9.64534 2.74904,-19.77034 3.48828,-22.5 0.87007,-3.21273 1.94464,-6.42667 3.13867,-9.47656 1.19404,-3.04989 2.50696,-5.93502 3.85157,-8.49219 1.3446,-2.55716 2.72119,-4.78694 4.04296,-6.52148 0.66089,-0.86728 1.30898,-1.61117 1.93164,-2.21094 0.62267,-0.59977 1.22043,-1.05468 1.78321,-1.3457 0.86526,-0.44744 1.77578,-1.22144 2.58008,-2.14649 0.80429,-0.92504 1.50234,-2.00113 1.94336,-3.05664 0.41986,-1.00485 1.31079,-2.48469 2.4082,-4.05859 1.09741,-1.5739 2.4013,-3.24187 3.64648,-4.625 2.49036,-2.76626 6.65657,-8.179298 9.25977,-12.029298 1.47446,-2.180658 2.86179,-4.151901 4.2168,-5.949219 1.355,-1.797318 2.67736,-3.420476 4.02343,-4.90625 1.34608,-1.485775 2.7164,-2.834051 4.16407,-4.080078 1.44766,-1.246027 2.97303,-2.390675 4.63281,-3.46875 1.65978,-1.078076 3.45313,-2.090346 5.43555,-3.072266 1.98241,-0.98192 4.15473,-1.933065 6.57031,-2.890625 4.83115,-1.91512 10.6383,-3.853105 17.86523,-6.101562 4.38171,-1.363246 8.27572,-2.490499 12.04688,-3.44336 3.77115,-0.95286 7.41867,-1.732131 11.3125,-2.40039 3.89383,-0.66826 8.03346,-1.224932 12.7832,-1.734375 4.74974,-0.509444 10.11034,-0.970854 16.44922,-1.447266 8.25,-0.620046 25.125,-2.03428 37.5,-3.142578 5.01341,-0.448998 9.27653,-0.796548 13.56836,-1.058594 4.29183,-0.262045 8.61237,-0.438586 13.74023,-0.546875 z"
       style="color:#000000;clip-rule:nonzero;display:inline;overflow:visible;visibility:visible;opacity:1;isolation:auto;mix-blend-mode:normal;color-interpolation:sRGB;color-interpolation-filters:linearRGB;solid-color:#000000;solid-opacity:1;fill:url(#linearGradient4754);fill-opacity:1;fill-rule:nonzero;stroke:none;stroke-width:1;stroke-linecap:butt;stroke-linejoin:miter;stroke-miterlimit:4;stroke-dasharray:none;stroke-dashoffset:0;stroke-opacity:1;color-rendering:auto;image-rendering:auto;shape-rendering:auto;text-rendering:auto;enable-background:accumulate" />
    <path
       id="path5634"
       d="m 608.05078,798.83594 c -0.30557,0.0547 -0.47656,0.25176 -0.47656,0.60547 0,2.88785 7.62416,19.17691 11.3789,24.31054 7.50152,10.25635 10.08425,12.75976 15.23047,14.76953 6.41768,2.50632 7.24211,2.46375 9.57032,-0.49609 1.08158,-1.375 2.60749,-2.5 3.39257,-2.5 2.53399,0 1.53934,-2.0624 -3.88867,-8.06055 -6.3271,-6.99166 -11.68359,-16.89954 -11.68359,-21.61132 0,-4.13929 -1.7695,-5.01535 -5.85938,-2.9004 -4.51912,2.33692 -8.52247,1.96301 -12.21093,-1.14062 -2.40282,-2.02184 -4.53641,-3.14059 -5.45313,-2.97656 z"
       style="fill:url(#linearGradient4712)" />
    <path
       id="path5632"
       d="m 478.61328,779.52539 c -0.43102,0 -2.95791,0.96126 -5.61523,2.13672 -3.24248,1.4343 -7.72412,2.3021 -13.62696,2.63867 -7.99815,0.45603 -8.79687,0.68513 -8.79687,2.52539 0,3.21458 5.7286,11.2861 12.10742,17.0586 6.90326,6.24709 14.15943,10.4156 20.11524,11.55468 2.35261,0.44995 5.40234,0.58449 6.77734,0.30078 3.44722,-0.71128 16.5,-5.96727 16.5,-6.64453 0,-0.30311 -2.25184,-2.06915 -5.00586,-3.92382 -6.67798,-4.49722 -16.66169,-15.29746 -19.43359,-21.02344 -1.23056,-2.54199 -2.59047,-4.62305 -3.02149,-4.62305 z"
       style="fill:url(#linearGradient4712)" />
    <path
       id="path5630"
       d="m 651.78125,754.00586 c -2.17938,0.4911 -4.76012,2.41582 -5.00977,4.1582 -0.24756,1.72783 0.36263,2.24335 3.30274,2.79492 1.98341,0.37209 3.85522,1.32645 4.16016,2.1211 0.30492,0.79466 1.8004,1.44531 3.32421,1.44531 2.80967,0 4.70545,1.5738 6.51563,5.41016 1.82621,3.87034 6.97116,10.43048 9,11.47461 1.1,0.56611 4.025,0.93586 6.5,0.82226 3.87839,-0.17802 4.54565,-0.52906 4.83008,-2.53711 0.85078,-6.00637 -12.44788,-16.81667 -22.30664,-18.13281 -3.31387,-0.4424 -4.2879,-1.10447 -5.52344,-3.75391 -0.825,-1.7691 -2.10734,-3.4587 -2.84961,-3.75586 -0.53612,-0.21463 -1.2169,-0.21057 -1.94336,-0.0469 z"
       style="fill:url(#linearGradient4712)" />
    <path
       id="path5628"
       d="m 441.59375,749.01367 c -0.52474,0.32431 -0.76005,1.80961 -0.52344,3.30078 0.23661,1.49118 0.70412,5.29844 1.03907,8.46094 0.68554,6.47277 1.83189,7.12481 5.54101,3.1543 1.33337,-1.42734 4.33633,-3.71883 6.67383,-5.09375 2.3375,-1.37493 4.25,-3.08496 4.25,-3.79883 0,-1.46032 -15.47932,-6.95121 -16.98047,-6.02344 z"
       style="fill:url(#linearGradient4712)" />
    <path
       id="path5626"
       d="m 495.11914,736.52539 c -2.45093,0 -3.57578,0.5264 -4.00195,1.86914 -0.82374,2.59538 0.88858,6.61779 3.64453,8.56055 3.62587,2.55599 6.25537,1.66328 6.63086,-2.25 0.46764,-4.87369 -2.06718,-8.17969 -6.27344,-8.17969 z"
       style="fill:url(#linearGradient4712)" />
    <path
       id="path5624"
       d="m 675.10742,726.78125 c -4.92364,0.3377 -12.37637,1.92084 -15.64258,3.56445 -2.88412,1.45134 -3.3544,2.21252 -3.45898,5.59571 -0.0876,2.83522 -0.78356,4.45088 -2.52539,5.86132 -2.85282,2.31008 -2.80207,3.00491 0.28515,3.86719 2.55469,0.71354 2.32043,0.74979 5.8086,-0.86523 1.375,-0.63662 4.58172,-1.43018 7.125,-1.76172 6.04379,-0.78789 12.99365,-4.35697 14.76953,-7.58594 1.9865,-3.61194 0.77049,-7.7265 -2.5293,-8.55469 -0.83056,-0.20846 -2.19081,-0.23366 -3.83203,-0.12109 z"
       style="fill:url(#linearGradient4712)" />
    <path
       id="path5622"
       d="m 334.01953,723.83984 c -0.41112,-0.19554 -1.09857,-0.15604 -2.19531,0.0547 -1.5125,0.29062 -9.1625,1.7282 -17,3.19336 -17.05142,3.18762 -18.10354,4.61096 -6.75,9.13281 4.13651,1.64748 6.59445,1.01182 17.23633,-4.45312 6.52457,-3.35056 9.2397,-5.27981 9.25,-6.57227 0.006,-0.72961 -0.12989,-1.15992 -0.54102,-1.35547 z m 21.05469,5.18555 -4.24024,0.18945 c -5.66037,0.25154 -9.74499,2.83434 -13.34179,8.43946 -3.34898,5.21894 -5.58101,14.09037 -4.56446,18.14062 0.96464,3.84342 5.9853,9.19509 10.91797,11.63672 7.80042,3.86115 10.84775,2.42759 12.64258,-5.94141 1.37234,-6.39897 1.24361,-19.79711 -0.25976,-26.96484 l -1.1543,-5.5 z"
       style="fill:url(#linearGradient4712)" />
    <path
       id="path5620"
       d="m 315.07422,701.27539 -8.5,0.57617 c -11.44873,0.77531 -19.74722,2.5764 -20.46289,4.44141 -1.52623,3.9773 5.2571,8.7436 14.46289,10.16211 4.33442,0.66788 21.18109,0.33135 23.75,-0.47461 2.44192,-0.76612 1.18059,-3.64896 -4,-9.14063 l -5.25,-5.56445 z"
       style="fill:url(#linearGradient4712)" />
    <path
       id="path5618"
       d="m 658.07422,697.21094 c -20.49543,0.26078 -34.96752,4.91616 -45.11133,14.50976 -9.92402,9.38572 -11.38867,14.75901 -11.38867,41.8125 0,19.27386 1.52845,35.34675 3.12109,32.83399 0.68645,-1.08303 0.86524,-1.05366 0.93164,0.1582 0.0452,0.825 0.68782,-0.44004 1.42774,-2.81055 1.82434,-5.84462 5.18244,-10.54376 10.26953,-14.36718 2.3375,-1.75685 4.25,-3.74183 4.25,-4.41211 0,-0.67027 -2.3625,-2.5632 -5.25,-4.20703 -6.93587,-3.94855 -10.69201,-8.07362 -11.41602,-12.53516 -0.5316,-3.27589 -0.18548,-4.05084 3.41992,-7.65625 3.5923,-3.59229 4.52372,-4.01172 8.91993,-4.01172 l 4.91015,0 1.67969,-7.15625 c 2.90417,-12.37469 9.02806,-18.72556 16.1582,-16.75586 1.69378,0.46791 5.22083,3.15079 7.83789,5.96094 l 4.75782,5.10937 6.24218,-2.02734 c 16.53088,-5.37051 25.13572,-4.45127 29.79102,3.18359 5.44654,8.93251 -0.47342,19.70792 -13.50586,24.58399 -3.09071,1.15638 -6.05266,2.10156 -6.58203,2.10156 -0.52937,0 -0.96289,0.67019 -0.96289,1.48828 0,0.83774 3.02677,3.01108 6.92969,4.97656 7.95601,4.00658 13.24477,9.00282 16.67382,15.75196 3.10476,6.11086 3.02371,9.05245 -0.35351,12.82226 -3.39159,3.78586 -9.47012,5.37183 -15.44531,4.0293 -2.30789,-0.51855 -4.58846,-0.7009 -5.06836,-0.4043 -0.47991,0.2966 -0.57653,3.30582 -0.21485,6.6875 0.58183,5.44021 -0.0345,12.60079 -2.14062,24.89844 -0.80531,4.70226 0.24181,4.7898 6.43945,0.54102 10.24974,-7.02669 20.40595,-18.35561 25.52735,-28.47852 3.33119,-6.58442 8.43764,-24.67586 9.2246,-32.67969 0.77569,-7.88916 -1.81619,-28.62224 -4.4414,-35.53125 -1.11097,-2.92381 -3.00276,-6.75119 -4.20508,-8.50586 -3.04732,-4.44727 -15.23718,-12.97808 -24.04102,-16.82421 -6.95127,-3.03684 -8.02955,-3.2177 -18.38476,-3.08594 z m -20.51367,23.31445 c -2.67538,0 -5.09506,5.1059 -5.72852,12.0918 l -0.52148,5.76758 3.86914,1.82226 c 4.64401,2.18669 5.36469,4.65721 2.31054,7.9082 -2.76083,2.93878 -6.75211,3.1138 -10.14453,0.44532 -2.67593,-2.10489 -11.28991,-4.44963 -12.83593,-3.49414 -1.96137,1.2122 -0.80121,4.46019 2.49023,6.9707 1.88404,1.43703 6.49654,3.92235 10.25,5.52344 3.75347,1.60108 7.39007,2.9226 8.08203,2.9375 0.69195,0.0149 1.97606,-1.76599 2.85352,-3.95899 0.87747,-2.193 3.12409,-5.3305 4.99218,-6.9707 3.94625,-3.46486 4.10379,-4.11981 1.39649,-5.81055 -2.49225,-1.55643 -2.69693,-7.23691 -0.38867,-10.75976 0.92737,-1.41535 1.3647,-3.41483 1.03125,-4.71485 -0.8116,-3.16415 -5.3449,-7.75781 -7.65625,-7.75781 z m -34.38086,25.27149 c 0.33225,0.33228 0.36699,1.19414 0.0781,1.91601 -0.31922,0.79773 -0.55551,0.56143 -0.60351,-0.60351 -0.0434,-1.05417 0.1931,-1.64479 0.52539,-1.3125 z m 49.40039,22.99218 c -0.51917,0.0165 -1.16408,0.12874 -2.00586,0.29102 -1.925,0.37112 -7.2359,0.83386 -11.80274,1.02734 -6.75098,0.28601 -9.25148,0.8672 -13.37109,3.10938 -6.68589,3.63891 -9.82617,7.82154 -9.82617,13.08789 0,6.76454 1.4102,9.2207 5.29492,9.2207 4.96914,0 11.26096,-5.82013 14.78906,-13.68359 2.38718,-5.32059 3.22805,-6.31641 5.33985,-6.31641 4.49964,0 5.01903,3.07488 1.99218,11.7793 -5.22478,15.02512 -3.62167,24.61749 5.82618,34.86719 4.66149,5.05712 7.49708,5.40706 9.51953,1.17382 5.08923,-10.6524 3.85,-36.09351 -2.47461,-50.78906 -1.2889,-2.99482 -1.72375,-3.81714 -3.28125,-3.76758 z"
       style="fill:url(#linearGradient4712)" />
    <path
       id="path5616"
       d="m 336.39453,675.68359 c -1.5609,-0.1615 -3.65737,-0.11121 -6.76172,0.10157 -10.11376,0.69322 -13.45836,2.23646 -13.86328,6.39648 -0.16819,1.72789 0.3716,4.76141 1.19922,6.74219 1.42661,3.41436 1.74955,3.60156 6.22656,3.60156 5.13448,0 8.37887,2.00969 8.37891,5.1875 0,1.03202 -0.675,2.13459 -1.5,2.45117 -2.02443,0.77685 -1.89023,1.9137 0.62695,5.31836 1.62226,2.19422 1.97542,3.68457 1.48828,6.28125 -0.3513,1.87238 -0.33215,3.71081 0.041,4.08399 1.13945,1.13944 3.03164,0.76093 4.39258,-0.87891 0.711,-0.8567 3.2513,-2.70765 5.64648,-4.11133 3.63843,-2.13226 5.09144,-2.4415 8.83008,-1.88086 3.53733,0.53046 4.47461,0.3698 4.47461,-0.76758 0,-2.40058 2.48713,-3.70142 8.1289,-4.25195 8.51801,-0.83121 10.8711,-2.10392 10.8711,-5.87891 0,-2.15135 -0.84793,-4.00125 -2.58008,-5.6289 -2.22096,-2.08696 -3.74038,-2.47256 -10.92383,-2.77344 -7.66701,-0.32114 -8.49272,-0.16673 -10.16992,1.90039 -4.15142,5.11655 -5.49215,6.06516 -8.13672,5.75977 -3.57838,-0.41324 -4.1098,-4.58483 -1.21094,-9.49805 2.58475,-4.38083 1.96129,-8.65058 -1.60351,-10.98633 -0.96778,-0.63411 -1.99379,-1.00646 -3.55469,-1.16797 z m 20.17969,36.77344 0,3.41797 c 0,2.5768 0.49213,3.54709 2,3.94141 1.31027,0.34264 2,1.3633 2,2.96093 0,1.34125 0.83751,3.19651 1.86133,4.12305 1.02382,0.92655 2.67207,3.48025 3.66211,5.67578 1.24741,2.76625 2.59496,4.1664 4.38867,4.5586 1.42364,0.31128 3.03789,0.73896 3.58789,0.95117 1.66031,0.64062 9.43936,-0.456 11.66016,-1.64453 1.75085,-0.93703 2.00149,-1.79707 1.58984,-5.44922 -1.04406,-9.26287 -10.89988,-16.18626 -25.5,-17.91407 l -5.25,-0.62109 z"
       style="fill:url(#linearGradient4712)" />
    <path
       id="path5614"
       d="m 493.02734,665.8125 c -8.4834,0.14401 -16.4552,1.68626 -22.22265,4.59766 -7.32695,3.69864 -17.23995,11.77015 -20.01953,16.30078 -2.71299,4.42211 -8.04367,21.06847 -8.7461,27.31445 -0.30927,2.75 -0.7539,6.2375 -0.98828,7.75 -0.55092,3.55523 1.39985,3.61159 8.73828,0.25195 3.00121,-1.374 8.28111,-2.79356 11.73242,-3.15429 l 6.2754,-0.65625 -0.64454,-4.09571 c -0.35418,-2.25277 -0.91495,-7.76459 -1.24609,-12.25 -0.52543,-7.11707 -0.32096,-8.73563 1.60156,-12.70703 2.73902,-5.65806 8.25094,-10.63867 11.77344,-10.63867 4.06926,0 10.47377,7.35823 13.81445,15.87305 2.64429,6.73986 4.47906,8.555 6.06055,5.99609 1.97682,-3.19856 25.55869,-11.86914 32.28125,-11.86914 3.20698,0 7.57341,2.4916 9.48828,5.41406 3.9243,5.98925 0.18705,16.35744 -8.71094,24.16211 -3.08778,2.70837 -5.61995,5.38745 -5.62695,5.95313 -0.007,0.56568 3.02383,1.81206 6.73633,2.76953 13.95289,3.59848 21.25,8.70292 21.25,14.86523 0,4.51682 -5.3005,13.90925 -10.70117,18.96094 -5.78835,5.41433 -10.70268,7.28266 -17.44532,6.63477 -2.70234,-0.25966 -5.13769,-0.10809 -5.41211,0.33593 -0.27441,0.44403 0.42494,5.33491 1.55274,10.86914 1.12781,5.53423 2.10869,13.20623 2.17969,17.04883 0.11805,6.39242 0.30577,6.98557 2.22656,6.97656 3.90584,-0.0182 12.6144,-4.89179 18.23633,-10.20507 6.54771,-6.18825 17.34306,-20.34086 23.09961,-30.28516 6.81982,-11.78108 8.75872,-19.08185 8.76172,-33 0.003,-11.07264 -0.21002,-12.43343 -2.75,-17.60547 -1.51399,-3.08286 -5.84181,-9.17336 -9.61719,-13.53515 -6.51242,-7.52395 -7.73064,-8.40195 -23.74805,-17.11719 -9.28563,-5.0524 -19.47564,-10.07604 -22.64453,-11.16406 -7.80835,-2.68095 -16.80175,-3.93503 -25.28516,-3.79102 z m -13.91406,21.71289 c -4.50385,0 -6.39449,9.99797 -4.13281,21.86133 0.87663,4.59826 1.61457,9.99826 1.63867,12 0.0241,2.00174 0.62899,5.28087 1.3457,7.28711 1.54826,4.33397 0.52496,6.85156 -2.78515,6.85156 -2.58641,0 -5.01413,-2.34201 -6.09375,-5.87695 -0.69386,-2.27187 -1.03343,-2.35417 -7.67578,-1.87891 -4.98561,0.35672 -8.55748,1.31841 -12.64258,3.4043 -6.66008,3.40071 -7.83987,6.22606 -3.72852,8.91992 2.82403,1.85038 22.41229,7.74814 29.56641,8.90234 11.73899,1.89388 12.04484,9.05451 0.46875,10.9668 -7.87983,1.3017 -16.28289,4.68654 -20.41406,8.22266 -8.23637,7.05003 -2.98774,10.21769 11.40039,6.88086 7.59043,-1.76033 11.8518,-4.36069 14.01757,-8.54883 2.04914,-3.96259 5.37486,-4.86062 7.64063,-2.0625 1.62781,2.01025 1.64547,2.44387 0.2207,5.43164 -1.25213,2.62575 -1.33801,4.02546 -0.44922,7.32617 1.67883,6.23468 8.74073,14.99051 16.49219,20.44922 4.34318,3.05853 7.96215,4.86328 9.75,4.86328 2.77117,0 2.8418,-0.13605 2.8418,-5.36914 0,-10.47211 -5.6912,-35.63086 -8.06055,-35.63086 -0.53969,0 -1.51507,-1.16899 -2.16601,-2.59766 -1.029,-2.2584 -1.63026,-2.52445 -4.60938,-2.04101 -8.64527,1.40294 -19.17236,-7.97981 -19.16016,-17.07813 0.005,-3.64748 3.34453,-9.02782 6.49415,-10.46289 2.95634,-1.347 3.12219,-2.47589 0.75195,-5.10351 -1.40659,-1.55935 -1.69707,-3.45768 -1.48438,-9.67578 0.38471,-11.24728 -5.00413,-27.04102 -9.22656,-27.04102 z m 51.74219,10.00977 c -4.96871,-0.036 -14.50758,2.57521 -22.19336,6.44922 -8.83793,4.45474 -9.82349,5.74409 -10.35352,13.54101 -0.24303,3.575 -0.78584,7.5125 -1.20507,8.75 -0.63457,1.87316 -0.40179,2.25 1.39257,2.25 1.18545,0 4.00788,1.72837 6.27149,3.83984 3.6688,3.42222 4.16614,4.44038 4.57617,9.38477 0.38837,4.68321 0.13092,5.87689 -1.6543,7.66211 -2.97008,2.97008 -2.69562,4.40036 0.70117,3.6543 1.98269,-0.43547 3.54899,-0.0417 5.29297,1.33007 1.36215,1.07147 4.70683,2.65539 7.4336,3.51954 10.18923,3.22909 18.2963,-0.27523 23.03125,-9.95313 3.38717,-6.92312 2.83291,-8.17939 -4.64453,-10.50781 -26.07757,-8.12036 -31.81692,-10.14724 -33.26563,-11.74805 -3.63383,-4.01533 -1.30912,-7.17721 5.28711,-7.19141 5.4519,-0.0117 13.28874,-3.48734 17.625,-7.8164 3.09987,-3.09473 6.03435,-10.37753 4.91211,-12.19336 -0.40279,-0.65173 -1.55079,-0.95871 -3.20703,-0.9707 z"
       style="fill:url(#linearGradient4712)" />
    <path
       id="path5612"
       d="m 455.0957,485.52539 c -1.79187,0 -1.80421,-0.19145 0.69727,11.75 0.60487,2.8875 1.65145,5.25 2.32422,5.25 1.55619,0 9.46749,-7.85884 9.42969,-9.36719 -0.0355,-1.41599 -10.1766,-7.63281 -12.45118,-7.63281 z m 31.73828,10.875 -5.3789,1.61133 c -11.38391,3.40961 -15.40269,6.79044 -16.5625,13.9375 -0.50124,3.08874 -0.25236,4.15086 1.21875,5.22656 2.58377,1.88929 6.14441,1.68175 10.92969,-0.63476 4.76396,-2.3062 15.5332,-11.60198 15.5332,-13.40821 0,-0.6781 -1.29051,-2.47 -2.86914,-3.98242 l -2.8711,-2.75 z"
       style="fill:url(#linearGradient4706)" />
    <path
       id="path5610"
       d="m 471.73047,474.52539 c -6.80287,0 -11.15625,1.00677 -11.15625,2.57813 0,1.78958 8.1803,7.30503 14.97656,10.0996 3.03829,1.24932 5.97344,2.13677 6.52344,1.97071 0.55,-0.16606 1.13198,-1.61697 1.29297,-3.22461 0.22153,-2.21231 -0.24461,-3.16697 -1.91797,-3.92383 -2.19497,-0.99279 -3.23316,-2.38978 -4.27149,-5.75 -0.41884,-1.3554 -1.64718,-1.75 -5.44726,-1.75 z"
       style="fill:url(#linearGradient4706)" />
    <path
       id="path5608"
       d="m 513.32422,472.52539 0.83984,3.25 c 0.46145,1.7875 0.8552,6.03151 0.875,9.42969 0.0401,6.87775 -2.39553,11.55763 -6.31836,12.14062 -2.98772,0.44401 -3.70466,-2.11651 -2.21679,-7.92187 1.37021,-5.34629 0.65712,-10.73641 -1.53125,-11.57617 -2.35762,-0.9047 -7.91483,0.57845 -10.22266,2.72851 -4.0943,3.81442 -2.03583,13.08067 3.57227,16.08203 3.25371,1.74134 4.18373,3.76734 4.74218,10.33008 0.69799,8.20269 3.72862,13.10671 9.53125,15.42188 4.1154,1.642 7.80749,1.30402 8.94336,-0.81836 1.83513,-3.42898 1.12427,-12.20939 -1.58398,-19.56641 -2.70092,-7.33708 -3.08563,-10.19562 -1.57617,-11.70508 0.49855,-0.49855 3.70569,-1.30156 7.12695,-1.78515 7.83562,-1.10756 11.06836,-3.1156 11.06836,-6.87696 0,-1.55207 -0.80902,-3.55541 -1.79883,-4.45117 -2.86295,-2.59094 -9.98579,-4.68164 -15.95117,-4.68164 l -5.5,0 z"
       style="fill:url(#linearGradient4706)" />
    <path
       id="path5606"
       d="m 493.76172,445.58984 c -2.00156,0.1237 -3.94187,0.90763 -5.47461,2.32813 -4.86583,4.50951 -4.84604,15.19738 0.0391,20.42773 3.19451,3.42029 4.3556,3.63434 9.67383,1.78321 2.1589,-0.75145 5.58019,-1.14444 7.60352,-0.87305 3.22136,0.43207 3.75883,0.2012 4.3125,-1.86719 1.07091,-4.00068 0.74966,-4.86328 -1.80664,-4.86328 -3.01013,0 -4.53029,-2.56582 -4.55079,-7.68359 -0.0174,-4.33547 -0.49386,-5.25502 -3.95703,-7.625 -1.77682,-1.21596 -3.83829,-1.75066 -5.83984,-1.62696 z m 25.66016,5.92578 c -1.00351,-0.0993 -2.31596,0.19025 -3.86915,1.02149 -1.92343,1.02939 -4.33919,7.59374 -3.37109,9.16016 0.60178,0.97369 1.53204,0.54032 6.14258,-2.86915 4.34311,-3.21171 4.10817,-7.01472 1.09766,-7.3125 z"
       style="fill:url(#linearGradient4706)" />
    <path
       id="path5604"
       d="m 381.3457,441.60156 c -5.30313,-0.42208 -11.94051,1.06966 -15.15039,3.81641 -2.31778,1.98337 -5.55088,9.2542 -6.49414,14.60742 -0.78118,4.43336 -0.0898,4.26412 -11.87695,2.91016 -5.76824,-0.66259 -5.97243,-0.41516 -4.33984,5.27734 1.23156,4.29425 -0.58696,6.8622 -4.2168,5.95117 -2.01281,-0.50518 -2.89814,-1.6388 -3.83008,-4.89844 -1.77701,-6.2154 -2.48266,-6.81368 -7.22852,-6.13281 -8.34584,1.19735 -11.63476,2.40074 -11.63476,4.25781 0,3.05487 4.11985,5.86269 14.5,9.88282 8.71227,3.37417 10.03892,4.19813 10.30078,6.39844 0.35101,2.94949 -0.97656,4.22964 -8.66211,8.35351 -6.35896,3.41206 -9.31067,7.44225 -7.50195,10.24219 2.48969,3.8541 14.65445,-0.04 22.83789,-7.31055 l 3.97461,-3.53125 -2.72461,-4.84766 c -4.80005,-8.53906 -3.20084,-13.5254 5.6582,-17.65039 8.10079,-3.77193 15.05228,-2.89707 19.36719,2.43555 2.94713,3.64224 0.19093,12.63739 -4.21094,13.74219 -3.83991,0.96375 -4.81122,-0.27737 -4.07226,-5.20508 0.79006,-5.2685 -0.31199,-6.03126 -6.36133,-4.40234 -3.63354,0.97841 -4.10547,1.44495 -4.10547,4.0664 0,3.53367 3.10287,6.96094 6.30078,6.96094 4.57698,0 6.41083,4.91448 2.69922,7.23242 -1.1,0.68696 -2,2.18536 -2,3.33008 0,3.80737 3.14544,11.38223 5.99219,14.42969 2.2914,2.45295 3.6139,3.00686 7.16015,3.00586 5.33363,-0.002 10.82514,-2.62633 12.7461,-6.0918 1.27795,-2.30547 1.22394,-3.23762 -0.48047,-8.39258 -1.7723,-5.3603 -2.24984,-5.92048 -6.30274,-7.40625 -2.41156,-0.88407 -5.031,-2.58601 -5.82226,-3.7832 -1.2975,-1.96313 -1.22672,-2.39047 0.73242,-4.34961 2.31425,-2.31426 4.81137,-2.30148 10.51758,0.0527 3.55729,1.46763 13.23183,0.58905 16.02734,-1.45507 1.48276,-1.08422 1.63215,-1.89734 0.85547,-4.69141 -1.2933,-4.6526 -7.69659,-7.7769 -17.55469,-8.56641 -12.75654,-1.02165 -16.63891,-5.28132 -8.93164,-9.79882 6.29391,-3.68908 11.06055,-9.24673 11.06055,-12.89649 0,-2.56303 -0.56708,-3.55693 -2.54688,-4.45898 -1.29478,-0.58995 -2.91393,-0.94329 -4.68164,-1.08399 z"
       style="fill:url(#linearGradient4706)" />
    <path
       id="path5602"
       d="m 630.28125,437.23242 0.57617,8.89649 c 0.31702,4.89315 1.39512,12.04648 2.39649,15.89648 l 1.82031,7 5.85351,1.85156 c 3.84451,1.21677 7.1349,3.13686 9.59375,5.59571 3.55633,3.55633 4.01299,3.72259 9.14844,3.34179 6.34504,-0.4705 10.71714,1.71421 13.91016,6.95117 2.45912,4.03334 2.46965,6.11705 0.0566,11.43165 -2.29252,5.04926 -6.48263,8.18058 -8.91211,6.6582 -2.43188,-1.52387 -2.522,-4.68167 -0.19336,-6.78906 2.75578,-2.49396 2.77263,-8.08064 0.0293,-9.54883 -2.73771,-1.46517 -8.68683,-0.29388 -13.1875,2.5957 -2.75699,1.77007 -3.87324,3.29539 -4.37696,5.98047 -0.79707,4.24873 0.45071,5.87261 5.4961,7.15039 7.31858,1.85347 6.65894,7.85315 -0.84571,7.69141 -6.95952,-0.14999 -13.21537,-6.26533 -13.32421,-13.02539 -0.0344,-2.13622 -0.6545,-4.58079 -1.37696,-5.43164 -0.72246,-0.85085 -2.88842,-4.95832 -4.81445,-9.12696 -3.93501,-8.51682 -3.92751,-8.51127 -15.75977,-9.48242 -6.26388,-0.51411 -8.18063,-0.32074 -10.25,1.03516 -5.28082,3.46013 -3.03459,5.74291 12.83789,13.04687 12.99077,5.9779 14.61524,7.04256 14.61524,9.57422 0,2.8107 -2.14713,3.88195 -11.0918,5.53711 -11.67452,2.1603 -14.57114,3.21869 -16.89258,6.16992 -2.24489,2.85392 -2.50903,5.9778 -0.97265,11.50977 2.41867,8.70873 8.21725,9.15437 22.38281,1.7207 6.29498,-3.30342 10.59109,-4.95414 12.36133,-4.75 2.60277,0.30014 2.71809,0.55646 2.80469,6.3125 0.0497,3.3 0.42481,8.25 0.83593,11 1.54243,10.31763 10.34959,27.1417 15.78711,30.16016 1.25769,0.69817 2.9947,1.28518 3.86133,1.30468 5.05605,0.11371 9.92383,-12.92883 9.92383,-26.58789 0,-9.3627 -2.77518,-19.892 -5.96289,-22.61718 -2.28267,-1.95145 -2.64021,-4.75433 -0.83594,-6.5586 1.91337,-1.91337 5.10838,-1.36727 7.64453,1.30664 2.31023,2.43572 9.05877,4.96157 16.41016,6.14453 8.80077,1.41619 18.74414,-4.88102 18.74414,-11.87109 0,-10.91248 -14.01183,-23.08031 -29.25977,-25.4082 -5.90578,-0.90163 -7.74023,-2.05627 -7.74023,-4.87305 0,-3.02637 1.48454,-3.79835 11.5,-5.98633 18.2513,-3.98718 23.87121,-10.99927 15.35156,-19.15429 -2.76436,-2.64606 -3.56185,-2.85603 -10.66992,-2.82813 -12.91938,0.0507 -22.32948,5.89491 -26.20898,16.2793 -2.43203,6.50988 -4.49939,9.18945 -7.0918,9.18945 -3.29821,0 -4.1938,-3.54109 -2.32031,-9.18164 1.99124,-5.99507 1.45267,-13.40099 -1.32227,-18.15234 -2.48384,-4.25291 -10.09492,-8.78171 -15.84375,-9.42969 l -4.6875,-0.5293 z m 11.35937,42.50391 c -2.22292,-0.50704 -2.87817,1.40445 -1.03124,4.85547 1.10316,2.06128 1.86705,2.29156 4.38281,1.32617 2.24419,-0.86118 1.95887,-3.01518 -0.64063,-4.83594 -1.05464,-0.7387 -1.96996,-1.17669 -2.71094,-1.3457 z"
       style="fill:url(#linearGradient4706)" />
    <path
       id="path5600"
       d="m 363.53711,415.52539 c -8.6474,0 -28.02654,3.60458 -34.10352,6.34375 -9.54664,4.30311 -16.54511,12.44258 -20.37109,23.69141 -2.46227,7.23938 -3.39609,17.96484 -1.56445,17.96484 0.50769,0 2.23165,-1.30978 3.83203,-2.91016 2.85034,-2.85035 6.88866,-4.40333 14.59375,-5.61328 3.03822,-0.4771 3.73225,-0.96051 3.28711,-2.29101 -0.31024,-0.92727 -1.73612,-5.00556 -3.16797,-9.06446 -2.20659,-6.25504 -2.42416,-7.80975 -1.43359,-10.20117 4.10865,-9.91919 22.25587,-7.87789 29.46484,3.31446 1.65,2.56172 3.33445,4.68103 3.74219,4.71093 0.40774,0.0299 2.7811,-1.50186 5.27343,-3.40429 7.1532,-5.46017 18.56783,-6.58075 26.39063,-2.58985 8.03109,4.09716 9.6427,9.90332 5.13086,18.48047 -3.19967,6.08267 -3.33348,8.56836 -0.46094,8.56836 0.90113,0 4.47726,1.35564 7.94727,3.01172 5.2484,2.50483 6.65907,3.73351 8.39257,7.31445 4.51069,9.31784 1.40953,16.16374 -8.92382,19.69336 -5.8897,2.01178 -5.75035,1.70853 -4.43555,9.66992 0.88365,5.35071 0.0975,8.3815 -3.18555,12.28321 -6.65474,7.90872 -19.63124,10.8131 -26.77148,5.99218 -4.12532,-2.78533 -10.15744,-11.03941 -11.17774,-15.29492 -0.93543,-3.90152 -2.75004,-4.27643 -6.62304,-1.36914 -10.99492,8.25338 -23.86498,10.79614 -29.2168,5.77344 -3.00781,-2.82284 -4.57948,-7.62993 -3.81055,-11.65234 0.29726,-1.555 2.72023,-5.00734 5.38477,-7.67188 2.66454,-2.66454 4.84375,-5.20192 4.84375,-5.63867 0,-0.43675 -1.73483,-1.31386 -3.85547,-1.94922 -2.12063,-0.63536 -6.01039,-3.05243 -8.64453,-5.37109 -5.54187,-4.87815 -7.7022,-5.62945 -7.04688,-2.45118 0.24506,1.18857 0.7183,5.31016 1.05274,9.16016 0.77014,8.86547 2.50024,14.2664 8.99219,28.08399 5.74071,12.21864 10.91538,18.77874 17.00195,21.55078 6.43065,2.92874 26.33224,2.35063 21.51758,-0.625 -1.56455,-0.96695 -1.20504,-5.5006 0.48828,-6.15039 0.82841,-0.31789 4.45357,0.22053 8.05469,1.19531 5.69982,1.54287 7.407,1.61268 13.1914,0.54687 19.0296,-3.50635 33.21211,-16.08423 42.08008,-37.32226 2.30623,-5.52322 2.62373,-7.66368 2.64453,-17.78907 l 0.0234,-11.51171 -4.60742,-9.48829 c -5.05559,-10.41186 -10.01992,-16.07208 -22.29883,-25.41796 -11.91268,-9.06713 -18.76065,-11.57227 -31.63086,-11.57227 z m -27.43164,20.00391 c -2.0577,0.003 -3.53125,0.49315 -3.53125,1.47265 0,1.42379 4.34704,13.65646 5.53711,15.58203 0.31994,0.51767 3.31255,0.94141 6.65039,0.94141 l 6.06836,0 -0.6543,-4.09766 c -1.14555,-7.16388 -3.23004,-10.84844 -7.0332,-12.4375 -2.33733,-0.97657 -4.97942,-1.4635 -7.03711,-1.46093 z"
       style="fill:url(#linearGradient4706)" />
    <path
       id="path5639"
       d="m 504.04688,549.19922 2.39843,2.76953 c 5.71281,-1.59721 7.6323,-2.91746 12.68555,-7.64453 3.59535,-3.36327 8.80138,-9.53141 11.57031,-13.70703 6.54505,-9.8701 16.01284,-29.40716 19.96289,-41.19727 3.03445,-9.05723 3.11125,-9.72758 2.63477,-22.86328 -0.26997,-7.44242 -1.00178,-15.17477 -1.62695,-17.18359 -1.5457,-4.96657 -7.51988,-10.67887 -19.64844,-18.78907 -15.28255,-10.21923 -21.57981,-11.7155 -42.71289,-10.15234 -8.73713,0.64626 -13.94096,1.52032 -16.48828,2.76953 -7.62464,3.73915 -15.7162,18.82095 -18.83008,35.09571 -2.01037,10.50727 -2.00306,10.55499 1.83203,9.90624 1.7875,-0.30238 7.14318,-1.08251 11.90039,-1.73242 l 8.64844,-1.18164 0.35156,-7.70508 c 0.28167,-6.1918 0.8407,-8.43531 2.84961,-11.42187 2.65812,-3.95172 10.29068,-9.63986 12.92187,-9.63086 3.85508,0.0136 9.03957,2.26904 12.99219,5.65234 l 4.2832,3.66602 4.86914,-1.75 c 5.96456,-2.14482 10.81159,-0.96018 13.91797,3.40234 2.56079,3.59626 2.54818,6.56055 -0.0469,11.40235 -2.56928,4.79371 -2.14767,5.94316 2.72266,7.40234 7.62437,2.28432 14.19244,9.18276 14.29882,15.01953 0.0996,5.46566 -5.06802,11.28542 -12.57031,14.16016 -5.48127,2.10032 -5.43515,1.90784 -2.86914,12.03906 3.61847,14.28656 -3.42312,26.68979 -13.87305,24.43555 -7.86438,-1.6965 -15.43138,-7.21807 -18.75781,-13.68555 -1.0608,-2.0625 -2.44089,-3.75 -3.06641,-3.75 -0.62552,0 -3.5165,1.83754 -6.42578,4.08203 -6.73442,5.19557 -12.08281,7.91797 -15.54882,7.91797 -3.83635,0 -4.38481,1.59455 -1.82813,5.30469 3.71599,5.39251 8.60826,8.50436 14.5293,9.24414 5.60771,0.70064 17.96976,0.11227 22.67187,-1.08008 2.30048,-0.58335 2.90751,-0.28056 3.92969,1.96289 1.04732,2.29861 0.93683,2.92646 -0.83594,4.69922 -1.15478,1.15479 -3.69814,1.97304 -6.84179,2.54297 z"
       style="fill:url(#linearGradient4706)" />
    <path
       id="path5644"
       d="m 668.81836,417.16211 c -4.28762,0.0882 -9.66042,0.39473 -16.74414,0.81641 -25.77145,1.53409 -27.10597,1.8125 -40.14258,8.36718 -12.57913,6.32466 -17.29951,12.64274 -23.40625,31.33008 -6.18577,18.92919 -7.81256,40.20216 -4.5,58.84961 2.74284,15.44038 11.77357,29.9642 25.22266,40.56641 12.30112,9.69723 21.96584,14.54451 36.82617,18.47265 3.85,1.01769 7.5625,1.87595 8.25,1.90625 2.47752,0.10913 1.17071,-3.26095 -2.8086,-7.24023 -7.13882,-7.13884 -14.85785,-22.45034 -16.93554,-33.5918 -0.55246,-2.96257 -1.00586,-5.55007 -1.00586,-5.75 0,-1.12028 -3.68328,0.0109 -8.83789,2.71289 -7.87302,4.12693 -12.65866,4.68175 -18.41211,2.13672 -5.44107,-2.40684 -9.43109,-8.43314 -10.63867,-16.07226 -1.43577,-9.08264 2.50856,-15.74662 11.93164,-20.16016 2.72673,-1.27713 4.95608,-2.8069 4.95508,-3.40039 -10e-4,-0.59348 -2.47045,-2.37041 -5.48829,-3.94727 -6.05198,-3.16225 -12.50976,-9.60835 -12.50976,-12.48828 0,-2.7294 4.05361,-8.26182 8.02344,-10.95117 3.1401,-2.12725 4.36418,-2.32256 12.64453,-2.02344 5.04164,0.18213 9.39651,0.0996 9.67773,-0.18164 0.28123,-0.28119 -0.10407,-3.4427 -0.85547,-7.02734 -0.7514,-3.58465 -1.64682,-9.88108 -1.99023,-13.99024 -0.53843,-6.44256 -0.346,-7.9112 1.39453,-10.67187 1.11013,-1.7608 3.41636,-3.925 5.125,-4.8086 7.32746,-3.78917 23.65004,4.08827 29.48047,14.22657 1.65,2.86911 3.5675,5.2316 4.25976,5.25 0.69226,0.0184 3.08732,-1.29118 5.32227,-2.91016 8.42506,-6.10309 22.6867,-8.30217 29.91797,-4.61328 7.13831,3.64147 13,11.35819 13,17.11523 0,5.82614 -5.12476,12.2633 -12.4043,15.58008 -3.77578,1.72036 -3.11291,3.95102 2.20899,7.4375 5.93131,3.88572 13.64463,13.35458 15.63476,19.19532 1.22152,3.58496 1.30694,5.35604 0.42774,8.84765 -1.50352,5.97101 -7.53294,12.55993 -14.0586,15.36719 -4.67327,2.01039 -6.2556,2.19226 -14.05469,1.60351 l -8.78906,-0.66406 0.76758,4.28711 c 1.4404,8.04316 0.76067,19.89725 -1.54883,26.9961 -2.95195,9.07355 -2.88585,10.17771 0.56641,9.3457 5.45924,-1.31571 20.89857,-9.55057 27.75,-14.80078 7.47482,-5.7279 18.39444,-18.47028 22.85937,-26.67383 6.28087,-11.54003 7.3401,-31.06788 2.65235,-48.89453 -3.80101,-14.45454 -5.59926,-18.42961 -12.89258,-28.47852 -7.89323,-10.87549 -13.77565,-16.42245 -24.57031,-23.17187 -10.3334,-6.46101 -13.44184,-8.1629 -26.30469,-7.89844 z"
       style="fill:url(#linearGradient4706)" />
    <path
       id="path5598"
       d="m 360.91211,383.72461 c -18.57541,1.03616 -37.95051,9.46821 -50.95117,22.98437 -13.98487,14.5394 -24.85887,32.29193 -31.0586,50.70313 -3.14186,9.3303 -4.29473,30.07894 -2.39257,43.08789 3.6604,25.03364 24.14014,51.74288 48.36718,63.08008 14.58681,6.82599 31.53136,6.66408 46.19727,-0.44336 3.85,-1.8658 9.7,-4.15428 13,-5.08399 11.65884,-3.28467 28.29422,-13.39428 36.9375,-22.44921 1.6154,-1.69234 3.2552,-3.07813 3.64258,-3.07813 0.38738,0 1.46136,1.9125 2.38672,4.25 4.72592,11.93785 17.96507,28.61071 27.66015,34.83203 4.7763,3.06494 16.55877,6.92623 27.22266,8.92188 10.61855,1.98717 24.14383,-3.44221 48.65039,-19.52539 7.53059,-4.94218 27.33872,-23.88189 36.45312,-34.85547 l 4.88282,-5.87696 1.25,4.88477 c 5.04543,19.71501 14.15546,35.1868 29.11132,49.4375 13.10629,12.48833 24.9765,19.21078 36.5293,20.6875 10.2629,1.31184 33.527,0.64378 40.04102,-1.15039 11.29338,-3.11057 26.19509,-12.04831 33.60351,-20.1543 9.5652,-10.46585 23.49679,-34.48368 21.28516,-36.69531 -0.79807,-0.79807 -1.72155,-0.30466 -3.37695,1.80078 -11.65424,14.82267 -24.39213,25.19031 -39.2793,31.97461 -4.6162,2.10367 -7.55964,4.08301 -7.96289,5.35352 -1.48161,4.66814 -13.98794,9.11523 -25.63477,9.11523 -13.07792,0 -34.45359,-8.27354 -48.25781,-18.67773 -18.51143,-13.952 -29.79299,-30.22741 -33.20508,-47.90625 -3.57447,-18.52016 -2.8962,-36.17066 2.11133,-54.98438 4.75129,-17.85099 10.89334,-29.89846 19.09766,-37.46094 4.92265,-4.53754 22.03645,-13.22202 29.35156,-14.89453 2.475,-0.56587 15.01985,-1.58291 27.87695,-2.25976 27.37448,-1.4411 27.78932,-1.35908 44.13281,8.73242 11.77636,7.27147 22.37568,17.75608 30.78321,30.45117 6.1473,9.28222 8.48985,15.17096 13.32617,33.5 0.80128,3.03675 1.46868,4.2565 1.70117,3.10547 0.31153,-1.5423 0.56494,-1.6354 1.36133,-0.5 1.72698,2.46214 -0.0768,-14.55545 -2.30859,-21.78125 -4.26536,-13.80961 -8.65002,-21.11001 -18.86524,-31.41211 -18.10402,-18.258 -37.87178,-27.07396 -64.00781,-28.54297 -11.77148,-0.66164 -33.91874,2.89747 -44.5,7.15039 -13.09913,5.26493 -26.79028,14.9615 -33,23.3711 -1.65,2.23453 -3.2989,4.07293 -3.66406,4.08593 -0.36517,0.013 -2.35827,-3.01406 -4.42969,-6.72656 -4.93786,-8.84988 -13.00974,-17.20588 -22.90235,-23.70898 -21.19646,-13.93391 -34.77435,-16.82941 -59.0039,-12.58008 -7.02291,1.23167 -15.26361,3.09751 -18.3125,4.14648 -11.08113,3.81247 -26.16802,14.86577 -34.25586,25.09766 l -3.72266,4.71094 -2.5039,-3.78711 c -1.37813,-2.08249 -6.17114,-7.65861 -10.65039,-12.39063 -12.45369,-13.15646 -30.92723,-24.11647 -46.08985,-27.3457 -2.84311,-0.60551 -5.76479,-0.99421 -8.73633,-1.17774 -2.60009,-0.16058 -5.23699,-0.16364 -7.89062,-0.0156 z m 318.84961,23.11719 c 0.79773,0.31922 0.56143,0.55747 -0.60352,0.60547 -1.05416,0.0434 -1.64479,-0.19312 -1.3125,-0.52539 0.33229,-0.33225 1.19415,-0.36895 1.91602,-0.0801 z m -301.58399,1.18359 7.44922,3.7168 c 8.12997,4.05749 17.92757,11.46714 27.75782,20.99023 5.03373,4.87644 7.3603,8.25558 11.5,16.70313 l 5.18945,10.58984 0,13.5 c 0,12.34886 -0.22471,14.0359 -2.64453,19.7793 -4.48145,10.63667 -9.0092,17.30867 -17.85547,26.31836 -9.04577,9.21288 -13.92795,12.24983 -25.5,15.85742 -5.22671,1.62942 -8.89996,2.101 -14.5,1.86328 -7.239,-0.30729 -7.50264,-0.23799 -7.61524,1.99805 -0.0642,1.27417 -0.6502,2.84917 -1.30078,3.5 -1.44044,1.44099 -15.67368,1.88114 -22.36132,0.6914 -10.92457,-1.9435 -20.07759,-10.71033 -27.67579,-26.50781 -8.62904,-17.94073 -9.79145,-21.77947 -11.48437,-37.89648 -1.93731,-18.44356 -1.9433,-21.68209 -0.0469,-29.14258 2.79428,-10.99261 7.76291,-19.52156 15.84961,-27.20313 11.57673,-10.99676 23.5652,-14.659 48.1875,-14.7207 l 15.05078,-0.0371 z m 115.90235,3.62109 c 9.79512,-0.33428 19.72847,0.48208 25.16797,2.60743 7.97852,3.11739 25.06093,14.79922 32.45703,22.19531 7.53599,7.536 8.40411,9.62448 10.00195,24.07617 1.84968,16.7295 0.55206,23.41289 -8.66797,44.68164 -11.37738,26.24534 -26.92456,47.07053 -39.67773,53.14649 -8.8974,4.23897 -16.19213,3.51963 -15.60352,-1.53907 0.25428,-2.18529 1.0102,-2.89365 3.81641,-3.57422 2.01366,-0.48835 3.45848,-0.87654 4.87109,-1.27148 l -2.39843,-2.76953 c -8.67031,1.57189 -22.44911,0.93993 -28.40626,-2.14063 -1.50862,-0.78014 -5.19337,-4.06287 -8.1875,-7.29687 -18.94129,-20.45885 -28.43014,-65.23624 -19.43945,-91.73633 5.65395,-16.66504 13.15387,-27.7389 21.72461,-32.08203 4.88982,-2.47786 14.54668,-3.96259 24.3418,-4.29688 z m 168.0293,0.65821 c 3.22265,-0.19531 6.25097,-0.24414 9.35156,0 -3.10059,-0.24414 -6.12891,-0.19531 -9.35156,0 z M 505.30664,550.83203 c 0.97297,0.25354 0.41758,0.47765 -1.23242,0.49805 -1.65,0.0204 -2.44461,-0.18701 -1.76758,-0.46094 0.67703,-0.27397 2.02703,-0.29065 3,-0.0371 z"
       style="fill:url(#linearGradient4712)" />
    <path
       id="path5596"
       d="m 647.07422,283.52539 c -4.80674,0 -5.5,0.24974 -5.5,1.97266 0,1.36499 0.99972,2.25845 3.25,2.9082 6.24581,1.80341 7.75,1.43865 7.75,-1.88086 0,-2.9697 -0.0556,-3 -5.5,-3 z"
       style="fill:url(#linearGradient4712)" />
    <path
       id="path5594"
       d="m 670.67383,271.88477 c -1.23691,-0.0672 -2.70578,0.28489 -4.44531,1.01171 -4.4557,1.86171 -6.00742,4.80054 -5.39649,10.22071 0.37188,3.2993 1.32825,5.09603 4.11328,7.72265 1.99594,1.88241 3.62891,4.07085 3.62891,4.86328 0,2.13638 -2.22509,4.60632 -4.5,4.9961 -1.50344,0.25759 -2.0761,1.25708 -2.30664,4.02344 -0.26306,3.15645 0.0926,3.89606 2.5,5.20117 5.24862,2.84546 20.37876,1.20621 22.31836,-2.41797 1.30427,-2.43706 1.252,-6.37131 -0.14649,-11.03906 -1.08974,-3.63722 -1.30384,-3.78584 -5.25,-3.61719 l -4.11523,0.17578 -0.50391,-8 c -0.56467,-8.96284 -2.18575,-12.93914 -5.89648,-13.14062 z"
       style="fill:url(#linearGradient4712)" />
    <path
       id="path5592"
       d="m 749.17969,271.79688 c 0.33225,0.33229 0.36699,1.19413 0.0781,1.91601 -0.31922,0.79773 -0.55551,0.56143 -0.60351,-0.60351 -0.0434,-1.05417 0.1931,-1.6448 0.52539,-1.3125 z"
       style="fill:url(#linearGradient4712)" />
    <path
       id="path5590"
       d="m 498.35547,264.70508 c -0.60509,-0.0915 -1.28879,0.32465 -2.5957,1.16601 -1.47641,0.95048 -5.00985,2.79511 -7.85157,4.09961 -5.42116,2.4886 -8.95365,6.49554 -7.97461,9.04688 0.74142,1.93209 1.17026,1.90676 8.1543,-0.4961 7.17612,-2.46894 14.49773,-6.66685 14.45313,-8.2871 -0.0183,-0.66432 -0.94667,-2.3074 -2.06446,-3.6504 -0.98946,-1.18881 -1.516,-1.78735 -2.12109,-1.8789 z"
       style="fill:url(#linearGradient4712)" />
    <path
       id="path5588"
       d="m 637.12305,256.66211 c -2.95724,0.21012 -1.58756,2.70813 4.05859,8.80664 8.24543,8.90605 10.50424,8.08027 5.9668,-2.17969 -2.04626,-4.62697 -2.9258,-5.5832 -5.625,-6.12304 -1.94968,-0.38994 -3.41465,-0.57395 -4.40039,-0.50391 z"
       style="fill:url(#linearGradient4712)" />
    <path
       id="path5586"
       d="m 539.61133,247.57422 c -1.33486,-0.20162 -2.03711,0.87463 -2.03711,3.24023 0,1.80871 -0.9,5.05335 -2,7.21094 -1.1,2.15759 -2,4.56646 -2,5.35156 0,1.13481 1.20389,1.31739 5.86719,0.89453 11.29105,-1.02383 13.05255,-4.62281 6.00586,-12.26757 -2.53323,-2.74823 -4.50109,-4.22807 -5.83594,-4.42969 z"
       style="fill:url(#linearGradient4712)" />
    <path
       id="path5584"
       d="m 693.6543,241.85156 c -0.76077,-0.15632 -1.73951,0.0384 -3.38282,0.49219 -2.04408,0.5644 -5.95331,2.6687 -8.6875,4.67578 l -4.9707,3.64844 0.64258,7.67969 c 0.53093,6.33311 1.13248,8.29103 3.43164,11.17773 3.20437,4.02325 5.29399,11.99751 4.39844,16.78711 l -0.61524,3.28516 8.07813,-0.52344 c 12.46814,-0.80761 22.41515,-3.54025 24.05664,-6.60742 0.88409,-1.65194 0.28179,-2.25883 -4.75977,-4.79883 -3.17439,-1.5993 -9.5755,-4.10769 -14.22656,-5.57422 -9.43829,-2.97598 -11.04492,-3.95373 -11.04492,-6.72656 0,-1.31082 1.39638,-2.51172 4.43555,-3.81446 6.00927,-2.57587 7.98375,-5.75587 7.125,-11.48242 -0.36775,-2.4523 -1.45196,-5.42455 -2.40821,-6.60547 -0.76876,-0.94938 -1.31149,-1.45695 -2.07226,-1.61328 z"
       style="fill:url(#linearGradient4712)" />
    <path
       id="path5582"
       d="m 655.11133,240.58203 c -1.3911,0.17332 -2.11465,1.98262 -2.29102,5.44336 -0.24948,4.89562 -0.16598,5.05588 4,7.66406 5.19192,3.25049 6.38706,3.39063 7.71875,0.90235 1.74377,-3.25826 1.19965,-4.93248 -3.13476,-9.63477 -2.84322,-3.08452 -4.90187,-4.54832 -6.29297,-4.375 z"
       style="fill:url(#linearGradient4712)" />
    <path
       id="path5580"
       d="m 481.53125,236.64453 c -0.82237,0.17497 -0.95703,0.63903 -0.95703,1.51367 0,1.20953 2.58644,3.85534 7,7.15821 3.85,2.88113 7,5.71441 7,6.29687 0,2.17473 3.51429,0.29804 3.84766,-2.05469 0.51545,-3.63793 -1.64783,-9.8563 -3.83594,-11.02734 -1.05526,-0.56475 -4.6395,-1.31063 -7.96485,-1.6582 -2.75663,-0.28813 -4.26747,-0.40349 -5.08984,-0.22852 z m 40.58594,7.88086 c -9.0285,0 -16.54297,5.54071 -16.54297,12.19727 0,4.60141 2.79126,7.80273 6.80078,7.80273 5.05566,0 7.05942,4.5843 3.18945,7.29492 -2.7221,1.90664 -6.99023,12.72405 -6.99023,17.7168 0,5.28388 2.07923,10.11878 5.51367,12.82031 3.07289,2.41714 8.19001,2.8368 10.85156,0.89063 2.40806,-1.76082 3.58313,-7.62995 3.61133,-18.0293 0.0259,-9.55225 -1.38947,-16.96063 -3.58789,-18.78516 -2.00796,-1.66645 -1.70543,-5.31194 0.61523,-7.41211 1.10232,-0.99758 2.48137,-3.58013 3.0625,-5.73828 1.56998,-5.83042 -0.61118,-8.75781 -6.52343,-8.75781 z"
       style="fill:url(#linearGradient4712)" />
    <path
       id="path5578"
       d="m 383.7207,235.70703 c -1.08238,0.15043 -1.16094,0.96229 -1.18164,2.56836 -0.0195,1.5125 -0.64646,3.85193 -1.39258,5.19922 -1.61481,2.91591 -1.02776,5.05078 1.38868,5.05078 0.96084,0 2.96166,1.125 4.44531,2.5 3.18915,2.9556 8.11837,3.29493 13.15625,0.9043 8.77451,-4.16377 4.32027,-11.33346 -9.20703,-14.82031 -4.04088,-1.04159 -6.12661,-1.55278 -7.20899,-1.40235 z"
       style="fill:url(#linearGradient4712)" />
    <path
       id="path5576"
       d="m 384.27734,218.19141 c -2.63849,0.0913 -5.90099,0.88952 -7.25,1.77343 -2.60468,1.70665 -3.28826,5.05707 -1.20312,5.89844 2.22921,0.8995 3.17323,0.6573 8.25,-2.11523 6.58595,-3.59671 6.666,-5.78022 0.20312,-5.55664 z"
       style="fill:url(#linearGradient4712)" />
    <path
       id="path5574"
       d="m 505.81445,212.61133 c -1.08361,-0.15042 -2.33018,-0.0283 -3.77343,0.33398 -4.17914,1.0489 -5.05039,4.5195 -3.01758,12.0293 1.41051,5.21085 2.37396,6.87978 4.90429,8.5 1.73143,1.10867 3.54636,1.89072 4.03321,1.73828 1.77516,-0.55584 4.71319,-9.94988 4.0957,-13.09375 -1.20996,-6.16037 -2.99134,-9.05655 -6.24219,-9.50781 z m 35.68164,7.11328 c -4.80954,-0.40339 -14.20925,3.24245 -17.91406,6.94727 -3.47864,3.47863 -4.2373,8.83625 -1.25781,8.88085 0.9625,0.0144 3.55,0.87691 5.75,1.91797 4.92303,2.32961 7.5,2.52562 7.5,0.56836 0,-0.8181 1.8177,-2.63483 4.03906,-4.03711 4.4202,-2.79035 6.22089,-6.20513 5.75977,-10.91992 -0.26565,-2.71622 -0.69662,-3.09067 -3.87696,-3.35742 z"
       style="fill:url(#linearGradient4712)" />
    <path
       id="path5572"
       d="m 661.66797,206.21875 c -2.3255,0.0995 -4.50275,0.37004 -6.59375,0.80664 -9.90033,2.06718 -20.87227,7.83986 -27.64844,14.54688 -4.87783,4.82805 -6.03418,6.74438 -8.46289,14.02343 -2.56771,7.69566 -2.81255,9.69364 -2.81055,22.92969 0.003,13.99794 0.13325,14.9155 3.78907,26.5 2.08282,6.6 5.12791,15.22146 6.76562,19.1582 3.56381,8.5667 13.21656,23.5109 18.50391,28.64649 4.15825,4.03889 7.36328,4.83046 7.36328,1.81836 0,-3.15511 2.06989,-3.83246 13.5,-4.41797 6.05,-0.30991 16.19934,-1.69356 22.55273,-3.07422 26.01426,-5.65318 34.57779,-12.06106 40.57422,-30.35937 2.65679,-8.10728 2.86736,-9.87026 2.78516,-23.27149 -0.10222,-16.66173 -1.96607,-25.40074 -8.03321,-37.67969 -7.15986,-14.49045 -15.50378,-20.51764 -35.63085,-25.73632 -11.36186,-2.94598 -19.67779,-4.18925 -26.6543,-3.89063 z m -7.03906,25.40625 c 0.72373,-0.0167 1.46271,0.0647 2.20898,0.25195 1.39919,0.35118 5.16336,3.11669 8.36523,6.14453 3.2019,3.02783 6.44387,5.50391 7.20313,5.50391 0.75926,0 2.79405,-1.19396 4.52344,-2.6543 4.15618,-3.50957 12.44629,-7.32373 15.94531,-7.33593 4.77126,-0.0166 8.32373,2.59557 11.0957,8.1582 2.95963,5.9392 3.44252,13.74038 1.10352,17.83203 -2.56689,4.4903 -1.90257,5.46196 6.14844,9 13.65875,6.00257 18.47607,12.96729 12.85742,18.58594 -3.71453,3.71453 -13.78924,8.11392 -21.60156,9.43164 l -6.9043,1.16406 -0.004,5.1582 c -0.006,8.8412 -5.43501,14.48041 -15.54297,16.14454 -7.4889,1.23293 -8.9631,1.30331 -12.54687,0.59375 -9.43245,-1.86758 -15.38954,-9.07259 -14.32813,-17.32813 l 0.60938,-4.75 -3.94336,0 c -5.32789,0 -10.15888,-1.73707 -13.59375,-4.88672 -5.36369,-4.91832 -5.42605,-9.71321 -0.18359,-14.27148 1.39327,-1.21143 2.5332,-2.74007 2.5332,-3.39649 0,-0.65643 -2.3862,-3.86614 -5.30274,-7.13476 -2.91653,-3.26861 -5.89251,-7.36732 -6.61328,-9.10742 -2.9751,-7.18253 2.08312,-11.9129 11.48438,-10.73829 l 5.29101,0.66211 0.6875,-4.58984 c 1.10626,-7.37701 5.4417,-12.32061 10.50782,-12.4375 z"
       style="fill:url(#linearGradient4712)" />
    <path
       id="path5570"
       d="m 532.57422,193.68359 c -6.875,-0.18799 -15.86498,0.19858 -19.97852,0.85938 -9.17558,1.47397 -21.74149,6.00659 -27.34179,9.86133 -11.32186,7.79294 -20.54,22.78176 -23.20508,37.73632 -3.2888,18.45447 -0.3481,45.14442 6.48633,58.88477 5.88426,11.83004 17.30249,21.87964 26.63672,23.44336 2.69648,0.45173 6.48776,0.87475 8.42382,0.93945 4.61505,0.15421 16.83761,-3.27128 23.22461,-6.50781 15.59945,-7.90485 41.20578,-44.81624 47.28711,-68.16406 2.89058,-11.09765 1.35466,-24.62189 -4.06836,-35.82031 -3.15892,-6.5231 -11.82917,-14.73597 -19.21094,-18.19532 -5.09707,-2.38867 -7.17837,-2.73425 -18.2539,-3.03711 z m -26.87891,10.63672 c 4.69689,0.38481 9.10111,3.25018 11.87891,8.48633 1.375,2.59187 3.02146,4.7148 3.6582,4.7168 0.63675,0.002 3.33675,-1.12115 6,-2.49414 2.66326,-1.37299 7.33893,-2.99197 10.39063,-3.59766 10.03383,-1.99147 16.11914,2.80841 16.11914,12.7168 0,4.76913 -3.35684,12.85176 -5.71289,13.75586 -2.84568,1.09199 -1.54447,5.11897 3.125,9.66406 7.0184,6.83147 9.01098,12.1179 6.40234,16.99219 -1.55556,2.90658 -9.00623,6.83658 -15.39258,8.11914 l -5.73047,1.15039 0.64649,7.09765 c 1.28239,14.05096 -2.58868,26.57287 -9.25196,29.92969 -1.51485,0.76315 -3.8789,1.61815 -5.2539,1.90039 -10.28219,2.11056 -22.41577,-10.58016 -22.45117,-23.48242 -0.0186,-6.76893 -0.3031,-6.87224 -9.04883,-3.26953 -9.79355,4.03434 -17.18294,2.73257 -19.32227,-3.4043 -2.33299,-6.69241 3.00748,-15.12551 12.39063,-19.56445 3.12902,-1.48027 5.43164,-3.22568 5.43164,-4.11719 0,-1.78455 -3.4042,-5.20863 -10.83594,-10.89453 -2.87551,-2.2 -6.43044,-5.73093 -7.89844,-7.8457 -2.49173,-3.58952 -2.56897,-4.02144 -1.17968,-6.5 2.15368,-3.84223 6.11649,-5.34253 13.91015,-5.26953 l 6.84571,0.0645 -0.54688,-7.24805 c -0.51663,-6.83108 -0.39161,-7.43304 2.19727,-10.50976 3.94264,-4.68556 8.93201,-6.7813 13.6289,-6.39649 z"
       style="fill:url(#linearGradient4712)" />
    <path
       id="path5568"
       d="m 354.2832,191.72656 c -1.79385,-0.1479 -5.81595,1.10973 -11.38086,3.83008 -12.8501,6.28166 -20.66749,19.21116 -21.93164,36.27148 -0.65251,8.80589 0.81591,25.13894 2.76172,30.72071 0.65649,1.88321 1.39368,2.82091 1.63867,2.08594 0.36867,-1.10607 0.59379,-1.1009 1.3086,0.0273 0.58681,0.92622 0.8685,0.30647 0.8789,-1.93555 0.025,-5.37899 2.60844,-8.86469 10.53125,-14.21094 9.62793,-6.49686 9.73954,-7.82437 1.41016,-16.72851 -6.97867,-7.46022 -8.43486,-10.09685 -7.54102,-13.6582 0.78723,-3.13657 3.73795,-4.84327 9.60547,-5.55664 4.47322,-0.54385 4.49302,-0.56465 5.15039,-5.17579 0.80056,-5.6156 1.96093,-7.91238 5.58789,-11.06445 3.34118,-2.90369 3.77433,-4.45757 1.98047,-4.60547 z m 4.32618,10.10352 c -2.10076,0.52044 -3.20518,2.95827 -3.68946,7.78711 -0.50838,5.06916 -0.34734,5.59283 2.55664,8.3457 1.72479,1.63504 3.09766,3.96244 3.09766,5.25 0,4.33693 5.36227,2.09003 5.72851,-2.40039 0.94559,-11.59368 -0.76683,-17.75664 -5.24609,-18.88086 -0.93599,-0.23492 -1.74701,-0.27504 -2.44726,-0.10156 z m -15.7129,19.21289 c -1.08003,0.71903 0.34345,3.58498 3.88672,7.19531 4.31664,4.39833 6.47548,5.27445 7.35352,2.98633 0.63077,-1.64378 -6.31444,-9.20219 -9.3125,-10.13477 -0.93068,-0.2895 -1.56772,-0.28655 -1.92774,-0.0469 z m 26.99219,11.67383 c -4.10378,-0.39747 -9.12597,2.20867 -9.85547,5.11523 -1.01252,4.0342 1.17155,7.60663 5.88477,9.62695 5.24206,2.24701 6.33859,4.38602 3.63476,7.08985 -3.5854,3.5854 -2.23422,11.97738 2.77344,17.22656 3.1759,3.32907 5.61204,3.49605 7.69141,0.52734 1.99131,-2.84305 2.02004,-11.36473 0.0508,-15.14062 -0.82161,-1.57537 -1.49414,-4.38787 -1.49414,-6.25 0,-2.68471 -0.40034,-3.38672 -1.93945,-3.38672 -2.76292,0 -3.4228,-1.59298 -3.4961,-8.45508 l -0.0644,-6.04492 -3.18555,-0.30859 z m -16.76953,15.80859 c -1.78749,0 -15.74059,9.59851 -16.85937,11.59766 -0.46928,0.83856 -0.58077,2.22981 -0.25,3.09179 0.97088,2.53007 6.70904,0.96745 13.57812,-3.69726 3.36124,-2.28257 6.34163,-4.75373 6.625,-5.49219 0.69645,-1.81492 -1.37612,-5.5 -3.09375,-5.5 z"
       style="fill:url(#linearGradient4712)" />
    <path
       id="path5566"
       d="m 750.64648,343.65625 c 0.1736,-14.4417 0.3003,-27.87197 0.13477,-33.5 -0.19531,-6.64063 -0.4873,-12.84131 -0.90234,-18.9082 -0.41504,-6.0669 -0.95313,-12 -1.63672,-18.10352 -0.6836,-6.10351 -1.51465,-12.37842 -2.51563,-19.12891 -1.00097,-6.75048 -2.17187,-13.97656 -3.53906,-21.98437 -0.68359,-4.00391 -1.73309,-8.11835 -3.04688,-12.25195 -0.0724,-0.22787 -0.18184,-0.45367 -0.25585,-0.68164 0.75271,3.15529 1.77628,6.94269 2.27734,9.42773 0.27723,1.375 -1.57599,-1.14437 -4.11719,-5.59961 -6.71102,-11.76577 -16.60558,-24.6736 -26.44726,-34.5 -10.56991,-10.55349 -20.85446,-16.16162 -33.76563,-18.41406 -13.49327,-2.35399 -28.83669,0.25593 -42.75781,7.27539 -7.82428,3.94525 -10.48172,6.04553 -20.3457,16.07422 -6.24041,6.34461 -12.69123,13.9197 -14.33594,16.83398 l -2.99024,5.29883 -3.95507,-5.91992 c -4.83307,-7.23759 -11.45279,-13.38133 -25.28125,-23.45899 -24.37643,-17.76462 -42.18489,-22.90994 -66.4375,-19.19726 -10.31699,1.57935 -20.3257,4.645 -28.39649,8.69726 -8.33854,4.18668 -20.38024,12.8189 -25.63867,18.37891 l -5.33984,5.64648 -6.70704,-6.30859 c -28.15605,-26.47787 -39.27983,-33.43334 -57.2871,-35.82617 -14.31134,-1.90171 -35.90619,1.76898 -47.84961,8.13476 -9.82721,5.23785 -27.78452,25.6218 -34.86133,39.57227 -12.6141,24.86605 -11.86043,51.83433 2.09375,74.9668 4.27198,7.08186 13.19095,16.11389 23.33203,23.625 4.96669,3.67864 8.70445,7.3074 9.85742,9.57226 2.84053,5.57985 9.38615,11.78732 15.04492,14.26758 10.41815,4.56633 23.21276,2.72221 43.59766,-6.28125 24.01674,-10.60756 32.12344,-15.0605 44.64453,-24.5332 l 3.14258,-2.37891 3.76172,6.78711 c 7.16439,12.92757 15.70033,24.43398 21.64257,29.17188 3.1834,2.53821 8.10501,6.50816 10.93555,8.82031 9.36714,7.65162 12.76898,8.78873 25.87305,8.6582 8.21511,-0.0818 13.78514,-0.7178 19.5,-2.22851 20.43547,-5.40206 45.66639,-22.80961 59.66406,-41.16407 l 5.27539,-6.91601 3.59375,9.22265 c 8.6081,22.09067 23.25933,38.94409 41.4668,47.69922 9.08745,4.36973 17.64838,6.07211 31,6.16211 4.95,0.0333 12.375,0.1177 16.5,0.1875 6.48587,0.10976 8.40822,-0.30133 14.21875,-3.0332 24.20727,-11.38123 49.51999,-38.27991 57.6875,-61.30274 l 1.94726,-5.49023 0.12696,4.5 c 0.0695,2.475 0.54177,23.4 1.04883,46.5 0.0138,0.62888 0.0289,0.99669 0.043,1.63086 z M 373.57422,182.12891 c 23.94853,0.0312 33.71831,2.9907 44.04101,13.34179 10.96888,10.99903 15.21345,22.09101 15.32813,40.05469 0.1045,16.36938 -2.45455,24.26517 -11.96289,36.91406 -10.33776,13.75226 -26.72103,23.35055 -42.64844,24.98633 -9.07587,0.93211 -12.96441,-0.0232 -13.60351,-3.3418 -0.54686,-2.83962 2.56399,-4.55556 8.2871,-4.57226 22.08761,-0.0645 43.22695,-15.91011 49.7129,-37.26367 1.77245,-5.83544 2.01406,-8.68053 1.62304,-19.04102 -0.59597,-15.79078 -3.41202,-23.42064 -11.7207,-31.75781 -8.23806,-8.2663 -14.00245,-10.04066 -34.63867,-10.66406 -14.1169,-0.42646 -16.08399,-0.29601 -16.08399,1.07422 0,0.85859 1.32676,2.11116 2.94922,2.7832 3.46281,1.43434 8.3026,7.72099 9.24414,12.00781 0.81943,3.73085 2.4102,4.38909 7.49805,3.09766 5.51829,-1.40069 10.88096,0.009 14.22461,3.74023 3.25785,3.6356 3.48999,6.82722 0.75,10.31055 -2.86229,3.63881 -2.48747,5.41096 1.41601,6.69922 4.52922,1.49478 12.51775,8.62379 14.21485,12.68554 3.08713,7.38853 -5.61239,16.85116 -17.27735,18.79297 -4.03431,0.67158 -4.16691,0.81793 -4.84765,5.35742 -1.37664,9.1801 -6.75924,15.19141 -13.60352,15.19141 -5.22173,0 -11.71776,-5.83305 -15.03906,-13.50586 -1.29996,-3.00314 -2.76949,-5.46756 -3.26758,-5.47656 -0.49808,-0.009 -2.29808,1.04225 -4,2.33789 -8.37863,6.37854 -15.89247,8.54752 -21.08398,6.08398 -6.9324,-3.28964 -5.87372,0.2634 3.58203,12.01758 6.84496,8.50878 14.34899,14.06491 23.76172,17.5957 4.54954,1.70657 6.84513,1.99007 11.82226,1.46094 5.36248,-0.5701 6.29851,-0.41757 7.11328,1.16406 1.29498,2.51386 0.52213,4.10925 -2.83203,5.84376 -5.35743,2.77044 -12.67001,1.91102 -21.95703,-2.58008 -4.61643,-2.23245 -10.58412,-5.66676 -13.25976,-7.63086 -8.94118,-6.56343 -21.74217,-24.52604 -25.87696,-36.31055 -2.0405,-5.81564 -2.27939,-8.34252 -2.27539,-24 0.004,-15.44956 0.25476,-18.17289 2.15235,-23.24805 4.36588,-11.67665 13.42135,-22.25846 23.94531,-27.98437 9.04594,-4.92174 16.08888,-6.18786 34.3125,-6.16406 z m 160.20703,2.50781 c 3.12591,0.005 5.53918,0.23064 7.95117,0.67773 18.54631,3.4378 34.45485,18.68509 40.44531,38.76367 2.56707,8.60421 2.32186,22.06603 -0.55664,30.44336 -7.48873,21.79453 -22.08849,44.98117 -38.3164,60.85743 -8.59915,8.41282 -14.54904,12.11776 -24.92383,15.51757 -8.81551,2.88883 -13.63362,3.64933 -16.30664,2.57422 -1.1,-0.44243 -3.92742,-0.8363 -6.2832,-0.875 -6.68853,-0.10976 -13.72707,-4.33567 -23.24219,-13.95312 -10.01293,-10.12061 -13.21584,-15.67432 -16.4961,-28.60547 -9.09349,-35.84758 -2.45591,-67.50778 18.13868,-86.51172 11.85997,-10.94395 26.28212,-16.4983 47.36328,-18.24219 5.26141,-0.43522 9.10065,-0.65131 12.22656,-0.64648 z m 125.64063,13.2539 c 7.40354,-0.50493 16.63433,0.57829 27.07421,3.21094 17.83188,4.49671 29.54262,10.47563 36.54493,18.65625 4.20102,4.90795 10.62489,17.08324 13.44531,25.48438 3.11057,9.26542 5.42765,26.49864 4.67578,34.7832 -1.46373,16.12829 -8.29048,32.34973 -16.85156,40.04688 -10.04945,9.03532 -29.75978,16.0917 -50.93946,18.23632 -7.26279,0.73542 -7.29405,0.75276 -6.99414,3.56446 0.16571,1.55353 -0.22749,3.46043 -0.87304,4.23828 -1.87408,2.25812 -10.64657,1.75844 -16.43164,-0.93555 -16.55931,-7.71131 -37.51837,-47.06916 -41.7461,-78.39258 -2.67832,-19.84385 4.87291,-43.65295 16.92969,-53.375 6.42275,-5.17901 20.89176,-12.55866 28.39453,-14.48242 2.03899,-0.52281 4.30364,-0.86684 6.77149,-1.03516 z"
       style="fill:url(#linearGradient4712)" />
    <path
       id="path5564"
       d="m 723.07617,788.77344 0.36133,-1.27344 2.73828,-4.79102 c -0.6832,0.62285 -1.60156,1.50639 -1.60156,1.39063 0,-0.18451 1.11081,-3.28681 2.46875,-6.89453 1.35795,-3.60772 2.98891,-10.60608 3.62305,-15.55078 0.97688,-7.61732 0.89166,-10.56536 -0.55469,-19.3086 -3.59404,-21.72624 -8.56496,-33.4354 -18.53516,-43.65625 -11.9696,-12.27053 -26.0034,-19.52179 -43.81055,-22.63672 -11.82157,-2.06789 -15.68369,-1.93974 -31.66015,1.05665 -20.82668,3.90604 -34.52305,9.21545 -45.41797,17.60156 l -4.38867,3.37695 -11.02735,-11.28516 c -17.62944,-18.04154 -34.96386,-28.76395 -51.19726,-31.66992 -11.65842,-2.08702 -32.65312,-2.10217 -43.63867,-0.0312 -18.73722,3.53221 -29.41294,7.72999 -44.18164,17.3711 l -7.58399,4.95117 -3.48242,-4.69922 c -9.59962,-12.9494 -31.24766,-31.15204 -44.87109,-37.73047 -16.93512,-8.17757 -52.08007,-6.70338 -72.61133,3.04688 -25.12562,11.9321 -42.38148,30.10407 -49.36133,51.98437 -4.3919,13.76765 -2.64094,44.83093 3.57813,63.5 13.79368,41.40738 30.90742,63.53878 57.875,74.8418 5.68245,2.38171 7.51201,2.63213 19.27734,2.64453 13.74459,0.0145 16.53488,-0.6116 23.82031,-5.35547 2.10035,-1.36763 5.02535,-4.22187 6.5,-6.3418 2.06447,-2.96785 4.47006,-4.63085 10.46094,-7.23047 8.96356,-3.88956 28.62199,-16.70696 33.62305,-21.92187 l 3.40429,-3.54883 4.13281,7.20703 c 2.27332,3.96338 6.25353,10.06645 8.84571,13.56446 2.91361,3.93177 4.71289,7.40393 4.71289,9.09179 0,3.93222 5.57238,14.50773 9.30859,17.66797 1.75558,1.48495 5.66641,3.84839 8.69141,5.25 5.01927,2.32563 6.91936,2.5839 21.73633,2.95703 21.29649,0.53629 29.17893,-0.69231 47.73047,-7.4375 19.93963,-7.24989 28.25172,-12.11086 42.89257,-25.08398 2.67199,-2.36763 5.18909,-4.30469 5.59375,-4.30469 0.40466,0 3.81024,5.0625 7.56836,11.25 14.96475,24.63855 42.26497,45.70855 62.4961,48.23242 6.2338,0.77768 20.29543,-0.87831 25.33593,-2.98437 8.29265,-3.46489 30.56623,-22.34138 36.65235,-31.0625 3.68312,-5.27773 15.01092,-28.12625 17.99804,-36.30078 l 2.32618,-6.36524 0.17187,0.47852 z M 345.50977,648.69336 c 11.29212,-0.34798 19.52602,2.36115 34.99023,10.00586 12.38887,6.12441 15.48766,8.13926 20.66211,13.4414 7.1943,7.37185 11.87784,16.34151 16.41406,31.42774 5.40772,17.98458 5.21706,33.42441 -0.5664,45.90039 -8.131,17.54005 -32.33908,36.70831 -51.28907,40.61133 -10.13333,2.0871 -26.00749,1.62346 -27.53515,-0.80469 -0.80038,-1.27266 -0.79974,-2.22734 0,-3.5 0.88638,-1.41055 3.11533,-1.86821 11.49414,-2.36133 18.62355,-1.09605 24.23383,-2.90881 37.68359,-12.17187 12.77952,-8.80145 21.55781,-20.26923 24.67383,-32.23242 2.72928,-10.47845 1.69683,-20.38038 -4.01367,-38.48438 -6.09005,-19.30729 -10.58443,-24.48796 -29.40625,-33.9082 -16.59544,-8.30595 -21.68695,-9.51684 -37.04297,-8.81446 -19.77019,0.90428 -34.79364,6.69685 -45.15234,17.41016 -5.21356,5.39202 -13.84766,18.32192 -13.84766,20.73828 0,1.91522 0.28756,1.92134 6.1875,0.13086 2.57793,-0.78234 7.90313,-1.73961 11.83398,-2.12695 4.01814,-0.39594 7.34767,-1.22663 7.60547,-1.89844 0.25219,-0.65721 0.0191,-3.15724 -0.51953,-5.55469 -0.53867,-2.39745 -0.72181,-5.65074 -0.40625,-7.22851 1.42021,-7.10108 11.25031,-11.89773 24.6875,-12.04883 9.78511,-0.11004 14.86661,2.82923 18.98438,10.98047 1.5671,3.10212 1.73419,3.16438 6.9414,2.62695 11.55387,-1.19246 21.86141,4.86909 24.76563,14.5625 1.05874,3.53378 0.95046,4.46217 -0.94141,8.0918 -2.26739,4.35008 -2.73345,7.03906 -1.21875,7.03906 0.50568,0 3.3723,2.24153 6.36914,4.98047 16.69619,15.25938 9.59113,32.57095 -12.59766,30.69531 l -7.26367,-0.61328 -1.12695,9.47266 c -1.83649,15.44627 -6.6975,22.45193 -15.58398,22.46093 -7.52018,0.007 -19.86806,-8.454 -23.91602,-16.38867 -1.7346,-3.40009 -1.97381,-5.2475 -1.52344,-11.81836 0.31539,-4.60137 0.14637,-7.78906 -0.41211,-7.78906 -0.5199,0 -2.70905,0.9 -4.86523,2 -4.7065,2.40108 -8.7818,2.53521 -13.78125,0.45117 -6.0059,-2.50358 -15.82937,-9.30367 -16.92969,-11.71875 -1.10489,-2.42507 -0.0305,-6.73242 1.67969,-6.73242 2.51319,0 0.6794,-3.13856 -2.90039,-4.96484 -2.16268,-1.10331 -4.21804,-2.47028 -4.56836,-3.03711 -1.25898,-2.03707 -2.5,0.20333 -2.5,4.51562 0,4.27896 5.77935,22.24184 9.49805,29.52344 4.21496,8.2533 16.86537,26.1495 23.52929,33.28516 10.30608,11.03565 13.83233,12.86547 26.18555,13.59765 8.86586,0.52547 10.18506,0.85235 11.86719,2.92969 1.44652,1.78637 1.65126,2.78638 0.87109,4.24414 -0.58973,1.10192 -1.95664,1.83739 -3.23633,1.74219 -1.21815,-0.0907 -6.48984,-0.42817 -11.71484,-0.75 -11.16391,-0.68765 -14.87755,-2.46307 -24.59766,-11.75586 -15.38302,-14.70673 -28.67161,-34.66607 -36.00195,-54.07422 l -4.81836,-12.75586 -0.041,-15 c -0.0466,-16.95072 0.0512,-17.28946 8.81055,-30.5 12.73089,-19.2003 28.35196,-28.99237 51.89258,-32.5332 4.8247,-0.72571 8.92736,-1.18284 12.69141,-1.29883 z m 138.81445,7.16992 c 0.6875,-0.27741 1.8125,-0.27741 2.5,0 0.6875,0.27741 0.125,0.50391 -1.25,0.50391 -1.375,0 -1.9375,-0.2265 -1.25,-0.50391 z m 10.25,2.22656 c 14.42383,-0.0114 16.05688,0.18075 23.5,2.78711 7.03021,2.46177 19.50032,8.81245 38.80273,19.75782 3.89705,2.20981 8.13745,6.01101 12.91993,11.58203 13.71446,15.97573 15.92601,21.13092 15.88281,37.03906 -0.0501,18.4496 -5.70333,31.94572 -22.77149,54.36133 -8.37615,11.0004 -15.80117,18.34936 -22.49609,22.26758 -2.56481,1.50107 -10.43981,4.76404 -17.5,7.25 -7.06018,2.48596 -12.96572,4.87577 -13.12305,5.3125 -1.16045,3.22115 -3.39428,4.33007 -11.25781,5.58203 -4.65094,0.74048 -10.09322,1.65477 -12.09375,2.0332 -2.58879,0.48972 -3.886,0.29594 -4.5,-0.67383 -0.47447,-0.74941 -4.68828,-3.26196 -9.36328,-5.58398 -18.61849,-9.24758 -29.7347,-23.71272 -36.61914,-47.64844 -2.34203,-8.14276 -2.67912,-11.35245 -3.11328,-29.66992 -0.30813,-12.99991 -0.0627,-23.27878 0.66601,-28 1.39797,-9.05687 5.11804,-21.15419 8.64844,-28.1211 4.68199,-9.23946 18.97038,-21.12723 31.27344,-26.01953 4.99135,-1.98481 7.44131,-2.24496 21.14453,-2.25586 z m 167.93359,29.92969 c 8.16484,0.64781 21.41096,6.16425 31.44727,13.35742 10.107,7.24383 14.79959,12.63156 18.0293,20.69922 3.05639,7.63473 5.58984,23.21654 5.58984,34.375 0,9.87137 -4.56571,28.38453 -9.56445,38.77735 -3.86014,8.02557 -13.01268,19.96893 -20.22852,26.39648 -6.22263,5.54285 -19.73147,14.35859 -26.77734,17.47461 -5.00022,2.21133 -5.59457,2.78043 -5.17774,4.96094 0.25895,1.35461 -0.0295,3.08762 -0.64062,3.85156 -1.12747,1.40947 -8.4584,2.53406 -12.11133,1.85742 -7.73906,-1.43354 -15.28016,-4.89534 -19.72266,-9.05078 -13.2673,-12.41 -23.55358,-32.67257 -28.2539,-55.6582 -2.2198,-10.85534 -3.11648,-38.65157 -1.60938,-49.88086 1.85231,-13.80145 4.23256,-18.99164 12.49219,-27.23633 11.47685,-11.4561 21.76866,-16.15815 40.09375,-18.31445 5.5,-0.64719 11.47143,-1.3579 13.26953,-1.58008 0.93481,-0.11551 1.99766,-0.12184 3.16406,-0.0293 z"
       style="fill:url(#linearGradient4712)" />
  </g>
</svg>
