<?xml version="1.0" encoding="UTF-8" standalone="no"?>
<svg
   xmlns:osb="http://www.openswatchbook.org/uri/2009/osb"
   xmlns:dc="http://purl.org/dc/elements/1.1/"
   xmlns:cc="http://creativecommons.org/ns#"
   xmlns:rdf="http://www.w3.org/1999/02/22-rdf-syntax-ns#"
   xmlns:svg="http://www.w3.org/2000/svg"
   xmlns="http://www.w3.org/2000/svg"
   xmlns:xlink="http://www.w3.org/1999/xlink"
   version="1.1"
   id="svg2985"
   height="934.88171"
   width="567.00061">
  <defs
     id="defs5498">
    <linearGradient
       osb:paint="solid"
       id="linearGradient4756">
      <stop
         id="stop4758"
         offset="0"
         style="stop-color:#ffffff;stop-opacity:1;" />
    </linearGradient>
    <linearGradient
       osb:paint="solid"
       id="linearGradient4750">
      <stop
         id="stop4752"
         offset="0"
         style="stop-color:#000000;stop-opacity:1;" />
    </linearGradient>
    <linearGradient
       osb:paint="solid"
       id="linearGradient5694">
      <stop
         id="stop5696"
         offset="0"
         style="stop-color:#002b11;stop-opacity:1;" />
    </linearGradient>
    <linearGradient
       osb:paint="solid"
       id="linearGradient4712">
      <stop
         id="stop4714"
         offset="0"
         style="stop-color:#162d50;stop-opacity:1;" />
    </linearGradient>
    <linearGradient
       osb:paint="solid"
       id="linearGradient4706">
      <stop
         id="stop4708"
         offset="0"
         style="stop-color:#d40000;stop-opacity:1;" />
    </linearGradient>
    <linearGradient
       gradientUnits="userSpaceOnUse"
       y2="508.69208"
       x2="761.44257"
       y1="508.69208"
       x1="262.13925"
       id="linearGradient4716"
       xlink:href="#linearGradient4712" />
    <linearGradient
       gradientUnits="userSpaceOnUse"
       y2="500.0004"
       x2="771.30902"
       y1="500.0004"
       x1="228.69211"
       id="linearGradient4754"
       xlink:href="#linearGradient4750" />
    <linearGradient
       gradientUnits="userSpaceOnUse"
       y2="500.10483"
       x2="752.40271"
       y1="500.10483"
       x1="248.61133"
       id="linearGradient4760"
       xlink:href="#linearGradient4756" />
    <linearGradient
       y2="508.69208"
       x2="761.44257"
       y1="508.69208"
       x1="262.13925"
       gradientUnits="userSpaceOnUse"
       id="linearGradient501"
       xlink:href="#linearGradient4712" />
    <linearGradient
       y2="508.69208"
       x2="761.44257"
       y1="508.69208"
       x1="262.13925"
       gradientUnits="userSpaceOnUse"
       id="linearGradient503"
       xlink:href="#linearGradient4712" />
    <linearGradient
       y2="508.69208"
       x2="761.44257"
       y1="508.69208"
       x1="262.13925"
       gradientUnits="userSpaceOnUse"
       id="linearGradient505"
       xlink:href="#linearGradient4712" />
  </defs>
  <metadata
     id="metadata5594">
    <rdf:RDF>
      <cc:Work
         rdf:about="">
        <dc:format>image/svg+xml</dc:format>
        <dc:type
           rdf:resource="http://purl.org/dc/dcmitype/StillImage" />
        <dc:title />
      </cc:Work>
    </rdf:RDF>
  </metadata>
  <g
     transform="translate(-216.49994,-32.559706)"
     style="display:inline"
     id="layer13">
    <path
       id="path4791"
       d="m 478.10156,51.570312 c -6.34401,-0.0028 -11.46989,0.03258 -16.02148,0.173829 -4.55159,0.141245 -8.52837,0.387924 -12.57813,0.80664 -4.04975,0.418716 -8.17124,1.010257 -13.00976,1.839844 -4.83853,0.829587 -10.39461,1.897624 -17.3125,3.271484 -3.85194,0.764975 -8.30498,1.998929 -12.95117,3.529297 -4.6462,1.530368 -9.48632,3.358063 -14.11329,5.310547 -4.62696,1.952484 -9.03974,4.029224 -12.83398,6.060547 -1.89712,1.015662 -3.63937,2.019228 -5.17578,2.990234 -1.53641,0.971007 -2.8674,1.909527 -3.94141,2.792969 -2.57035,2.11428 -7.92894,5.982293 -11.9082,8.595703 -2.25597,1.481628 -6.02636,4.659943 -10.53516,8.763672 -4.50879,4.103729 -9.75677,9.132032 -14.96875,14.316402 -5.21197,5.18438 -10.38645,10.52448 -14.75195,15.24805 -4.3655,4.72357 -7.92125,8.83143 -9.89062,11.55274 -4.52016,6.24598 -8.23142,11.84826 -11.08008,16.7207 -1.42433,2.43622 -2.63213,4.69017 -3.61914,6.75 -0.98702,2.05982 -1.75232,3.92647 -2.28907,5.58789 -0.55102,1.70558 -1.72369,4.56889 -3.16797,7.80664 -1.44427,3.23775 -3.16014,6.84996 -4.80078,10.05664 -1.8166,3.55062 -3.46885,7.18276 -4.79296,10.48438 -1.32412,3.30161 -2.3201,6.27271 -2.82227,8.5039 -0.90705,4.03013 -2.93451,11.37617 -4.50586,16.32617 -0.99562,3.13632 -1.98072,6.69757 -2.91797,10.48829 -0.93724,3.79071 -1.82726,7.81042 -2.6289,11.86523 -0.80165,4.05481 -1.5147,8.14369 -2.10352,12.07227 -0.58882,3.92857 -1.05279,7.69733 -1.35156,11.10937 -0.55546,6.34345 -1.71943,15.56845 -2.58789,20.5 -0.86847,4.93156 -2.20144,13.91484 -2.96289,19.96484 -0.76145,6.05 -2.06826,14.6 -2.90235,19 -0.8341,4.4 -1.53158,9.9911 -1.55078,12.42383 -0.0192,2.43274 -1.60082,14.35774 -3.51562,26.5 -2.93389,18.60453 -5.21677,33.66685 -6.98829,47.08203 -0.88575,6.7076 -1.6432,13.0035 -2.29101,19.125 -0.64782,6.12151 -1.18589,12.06855 -1.63086,18.07813 -0.44497,6.00957 -0.79699,12.08132 -1.07422,18.45312 -0.27723,6.37181 -0.47846,13.04375 -0.62305,20.25196 -0.28918,14.4164 -0.34913,30.97897 -0.31836,51.58593 0.0374,24.99852 0.14375,41.48864 0.40625,53.45899 0.13126,5.98517 0.30114,10.84068 0.52149,15.06445 0.22035,4.22377 0.49095,7.81593 0.82226,11.27539 0.45558,4.75704 0.86976,10.3085 1.16993,15.41992 0.30016,5.11143 0.48632,9.78283 0.48632,12.78125 0,3.3097 0.15856,7.64151 0.42579,12.43164 0.26722,4.79013 0.64373,10.03953 1.08203,15.18165 0.43829,5.14211 0.93797,10.17732 1.45117,14.54296 0.5132,4.36565 1.03931,8.06076 1.53125,10.52149 0.78916,3.9475 1.91954,11.1475 2.51172,16 0.31468,2.5786 0.97153,6.27899 1.83789,10.53906 0.86636,4.26007 1.94274,9.07993 3.0918,13.89453 1.14905,4.8146 2.3724,9.62499 3.53515,13.86719 1.16276,4.2422 2.26441,7.91611 3.17188,10.45898 1.38638,3.8849 3.56272,10.4375 4.83789,14.5625 1.27517,4.125 3.29533,10.16272 4.48828,13.41602 1.19297,3.2533 5.05488,17.48144 8.58203,31.61914 1.76356,7.06885 3.60584,14.04412 5.1543,19.58789 1.54845,5.54377 2.80309,9.65605 3.38867,10.99805 1.17116,2.684 3.1661,7.88148 4.43359,11.55078 0.73601,2.1307 1.82118,4.53919 3.17774,7.10547 1.35655,2.56628 2.98474,5.29047 4.80273,8.05078 1.81799,2.76031 3.82696,5.55673 5.94727,8.26953 2.12031,2.7128 4.35172,5.34187 6.61523,7.76563 1.21733,1.30349 2.4348,2.51531 3.69336,3.65624 1.25856,1.14094 2.55819,2.21176 3.94336,3.23047 1.38517,1.01872 2.85596,1.98503 4.45312,2.92188 1.59717,0.93684 3.3203,1.84295 5.21485,2.73828 3.78909,1.79066 8.2591,3.53956 13.75,5.40625 5.4909,1.86669 12.00314,3.85166 19.8789,6.11719 6.84736,1.9697 12.74274,3.56732 18.31836,4.89258 5.57563,1.32525 10.83079,2.37845 16.40235,3.25976 5.57155,0.88131 11.45781,1.59066 18.29297,2.22852 6.83515,0.63786 14.6199,1.20392 23.98632,1.79883 14.99123,0.95212 27.7324,1.57663 38.71289,1.84374 5.49025,0.13356 10.53925,0.17766 15.21094,0.12891 4.67169,-0.0487 8.96552,-0.19127 12.94141,-0.42969 3.97588,-0.23841 7.63428,-0.57236 11.03711,-1.00781 3.40283,-0.43545 6.54942,-0.97148 9.50195,-1.61133 2.95253,-0.63985 5.71096,-1.38471 8.33594,-2.23632 2.62498,-0.85162 5.11692,-1.81011 7.53711,-2.88086 2.55504,-1.1304 4.1027,-1.73539 5.40625,-1.92774 0.65177,-0.0962 1.24209,-0.0884 1.86719,0.008 0.62509,0.0962 1.285,0.28057 2.07421,0.54102 1.28195,0.42307 2.36529,1.0434 3.23829,1.83008 0.87299,0.78667 1.53479,1.73999 1.9746,2.83008 0.43982,1.09008 0.65822,2.31706 0.64063,3.65039 -0.0176,1.33332 -0.27032,2.77268 -0.76953,4.28906 -0.4328,1.31465 -0.87693,2.28616 -0.94922,2.96094 -0.0361,0.33738 0.021,0.60013 0.21875,0.79492 0.19773,0.19479 0.53508,0.321 1.0625,0.38476 1.05484,0.12754 2.86587,0.005 5.81445,-0.32226 2.94859,-0.32708 7.0356,-0.85783 12.64453,-1.54688 7.41173,-0.91055 12.19043,-1.60874 16.91407,-2.68164 4.72363,-1.07289 9.39219,-2.52048 16.58593,-4.92773 4.06,-1.35859 7.92561,-2.77453 11.60743,-4.25781 3.68181,-1.48329 7.1796,-3.03427 10.50781,-4.66016 3.32821,-1.62589 6.4852,-3.32687 9.48437,-5.11328 2.99918,-1.78641 5.84044,-3.6582 8.53516,-5.62305 2.69472,-1.96484 5.24336,-4.0224 7.6582,-6.18359 2.41484,-2.1612 4.69594,-4.42533 6.85547,-6.80078 2.15953,-2.37546 4.19815,-4.86308 6.12695,-7.47071 1.92881,-2.60762 3.74807,-5.33564 5.47071,-8.19336 3.44354,-5.71255 9.01879,-14.34717 14.24023,-22.17773 5.22144,-7.83056 10.08909,-14.85707 12.11914,-17.35352 1.1858,-1.45825 2.93206,-4.49705 4.94141,-8.43945 2.00935,-3.9424 4.2811,-8.78836 6.51562,-13.85742 2.23453,-5.06906 4.43359,-10.36295 6.29493,-15.20117 1.86133,-4.83823 3.38562,-9.22081 4.27539,-12.47071 0.75292,-2.75 2.7075,-12.88022 4.34375,-22.51171 1.63624,-9.63141 3.66583,-19.75641 4.50976,-22.5 0.84393,-2.74352 2.23595,-9.71329 3.09375,-15.48829 0.85779,-5.775 2.21734,-13.0886 3.01953,-16.2539 0.80219,-3.1653 1.9186,-9.4653 2.48047,-14 0.56186,-4.5347 1.67518,-10.7918 2.47461,-13.9043 0.39972,-1.55619 0.9328,-4.58398 1.46875,-8.20898 0.53595,-3.62501 1.07476,-7.84723 1.48828,-11.79102 0.82704,-7.88758 2.15735,-17.2668 2.95703,-20.8418 0.39984,-1.7875 1.00111,-5.77539 1.64649,-10.75976 0.64538,-4.98438 1.33489,-10.96524 1.91406,-16.74024 0.57918,-5.775 1.32758,-12.15078 2.06641,-17.76953 0.73882,-5.61875 1.46807,-10.48047 2.00976,-13.23047 0.68452,-3.47507 1.28917,-8.33929 1.84961,-15.02734 0.56044,-6.68805 1.07667,-15.19992 1.58594,-25.97266 1.26056,-26.66462 2.10081,-43.37117 2.77148,-54.12109 0.33534,-5.37496 0.62866,-9.26183 0.91016,-12.1582 0.28151,-2.89638 0.5517,-4.80285 0.8418,-6.22071 0.20055,-0.98016 0.39092,-4.82561 0.5664,-10.83984 0.17549,-6.01423 0.33667,-14.1977 0.48047,-23.85352 0.28761,-19.31163 0.50379,-44.51402 0.625,-70.03711 0.12121,-25.52308 0.14693,-51.36625 0.0488,-71.96093 -0.0981,-20.59468 -0.31914,-35.94038 -0.68945,-40.4668 -0.29745,-3.63578 -0.7519,-7.72223 -1.31446,-11.97851 -0.56255,-4.25629 -1.23407,-8.6822 -1.96679,-13 -0.73272,-4.31781 -1.52603,-8.52732 -2.33399,-12.34766 -0.80796,-3.82034 -1.6297,-7.25173 -2.41797,-10.01563 -1.60404,-5.62423 -3.82166,-14.43718 -5.85546,-23.06054 -2.03381,-8.62336 -3.8838,-17.05713 -4.75391,-21.92383 -0.4864,-2.72055 -1.10805,-5.4417 -1.85156,-8.13867 -0.74352,-2.69698 -1.60982,-5.36951 -2.58008,-7.99024 -0.97026,-2.62072 -2.04626,-5.18983 -3.21289,-7.68164 -1.16663,-2.49181 -2.42324,-4.90658 -3.75586,-7.21679 -1.33263,-2.31022 -2.74074,-4.51585 -4.20899,-6.5918 -1.46824,-2.07596 -2.99682,-4.02153 -4.57031,-5.81055 -1.57349,-1.78902 -3.19148,-3.42168 -4.83984,-4.87109 -1.64837,-1.44942 -3.32667,-2.7163 -5.01953,-3.77344 -1.60258,-1.00075 -4.71406,-3.22708 -6.91407,-4.94727 -1.98298,-1.5505 -5.7649,-3.77986 -10.5039,-6.29687 -4.739,-2.51701 -10.43491,-5.322511 -16.2461,-8.023438 -5.81119,-2.700927 -11.73794,-5.298139 -16.9375,-7.400391 -5.19955,-2.102252 -9.67208,-3.708702 -12.57617,-4.429687 -3.70537,-0.91992 -8.76133,-2.534101 -11.23633,-3.587891 -1.214,-0.51689 -4.83141,-1.568691 -9.83007,-2.904297 -4.99867,-1.335605 -11.37886,-2.954678 -18.11719,-4.607422 -13.47666,-3.305488 -28.38738,-6.744013 -36.55274,-8.308593 -9.44358,-1.8095 -19.19846,-3.535458 -28.16796,-5 -8.96951,-1.464542 -17.15366,-2.667668 -23.45899,-3.429688 -3.47254,-0.419665 -7.17773,-0.968752 -10.34961,-1.513672 -3.17187,-0.544919 -5.81043,-1.085672 -7.15039,-1.492187 -0.93051,-0.282295 -2.06115,-0.515223 -3.52344,-0.707032 -1.46228,-0.191808 -3.25687,-0.342088 -5.51757,-0.457031 -4.52142,-0.229885 -10.90566,-0.320069 -20.22071,-0.324219 z"
       style="color:#000000;clip-rule:nonzero;display:inline;overflow:visible;visibility:visible;opacity:1;isolation:auto;mix-blend-mode:normal;color-interpolation:sRGB;color-interpolation-filters:linearRGB;solid-color:#000000;solid-opacity:1;fill:url(#linearGradient4756);fill-opacity:1;fill-rule:nonzero;stroke:none;stroke-width:1;stroke-linecap:butt;stroke-linejoin:miter;stroke-miterlimit:4;stroke-dasharray:none;stroke-dashoffset:0;stroke-opacity:1;color-rendering:auto;image-rendering:auto;shape-rendering:auto;text-rendering:auto;enable-background:accumulate" />
    <path
       id="path4789"
       d="m 478.63867,32.558594 c -6.15544,0 -10.87521,0.0085 -14.8125,0.07422 -3.93729,0.06572 -7.09183,0.188732 -10.11914,0.419922 -3.0273,0.23119 -5.92608,0.569999 -9.35156,1.066407 -3.42548,0.496407 -7.37794,1.150346 -12.50977,2.011718 -5.85053,0.98201 -12.23107,2.214721 -17.79882,3.410157 -5.56776,1.195436 -10.32275,2.353597 -12.91993,3.185546 -3.58918,1.149718 -7.55388,2.61527 -11.60547,4.259766 -4.05158,1.644496 -8.19001,3.468216 -12.12695,5.333984 -3.93694,1.865769 -7.67271,3.774356 -10.91797,5.587891 -3.24525,1.813535 -6.00004,3.531736 -7.97656,5.019531 -3.85496,2.90175 -10.15976,7.482078 -14.00977,10.179688 -2.21957,1.555207 -6.0798,4.928608 -10.73437,9.269531 -4.65457,4.340923 -10.10304,9.649052 -15.49805,15.072266 -5.39501,5.423209 -10.73685,10.961589 -15.17773,15.763669 -4.44088,4.80208 -7.98125,8.86818 -9.77344,11.3457 -5.26054,7.27218 -8.92563,12.62636 -11.69531,17.22461 -1.38484,2.29913 -2.54578,4.41006 -3.57031,6.47657 -1.02454,2.0665 -1.91279,4.08844 -2.75196,6.21289 -1.86532,4.7223 -6.2958,14.66093 -9.84765,22.08593 -1.77593,3.7125 -3.5702,7.87422 -5.03125,11.58985 -1.46106,3.71562 -2.58889,6.98515 -3.0293,8.91015 -0.88083,3.85 -2.88941,11.05 -4.46484,16 -1.04551,3.285 -2.04836,6.83452 -2.99024,10.56055 -0.94187,3.72603 -1.82183,7.62839 -2.625,11.62109 -0.80317,3.99271 -1.52881,8.07514 -2.1582,12.16016 -0.62939,4.08502 -1.16345,8.1728 -1.58399,12.17578 -0.76539,7.28562 -1.81403,15.72598 -3.09179,24.93555 -1.27776,9.20957 -2.78465,19.18834 -4.4668,29.54687 -1.07179,6.6 -2.43216,17.13825 -3.02344,23.41797 -0.59128,6.27972 -1.23966,11.6853 -1.4414,12.01172 -0.20174,0.32643 -1.51017,8.23817 -2.90625,17.58203 -2.60993,17.46808 -4.67342,31.98587 -6.30079,45.01367 -1.62736,13.02781 -2.81922,24.5648 -3.68359,36.07422 -0.86437,11.50943 -1.40172,22.99136 -1.72265,35.9043 -0.32094,12.91294 -0.42483,27.25774 -0.42188,44.49609 0.004,23.28167 0.30882,44.26578 0.89258,62.25 0.29188,8.99211 0.65374,17.23443 1.08203,24.63868 0.42828,7.40425 0.92341,13.9706 1.48242,19.61132 0.49057,4.95 0.93679,14.85 0.99219,22 0.0279,3.59949 0.16996,7.62926 0.4043,11.85157 0.23433,4.22231 0.56157,8.63811 0.95898,13.00586 0.39741,4.36774 0.86571,8.68883 1.38281,12.7246 0.51711,4.03578 1.08237,7.7853 1.67578,11.01172 0.85043,4.6239 2.23164,12.78477 3.06836,18.13477 0.62336,3.9857 1.3874,8.09608 2.31446,12.4082 0.92705,4.31212 2.01707,8.82515 3.28906,13.61914 1.27199,4.79399 2.72661,9.86948 4.38476,15.30078 1.65816,5.43131 3.51991,11.21929 5.60547,17.44336 2.16546,6.4625 4.81632,15.09297 7.3418,23.79297 2.52548,8.7 4.92559,17.46953 6.5918,24.20703 1.66621,6.7375 3.55991,13.76172 5.26758,19.65235 1.70766,5.89062 3.22928,10.64765 4.15429,12.84765 1.85005,4.4 3.93045,9.77004 4.6211,11.93164 0.72271,2.26198 2.09412,5.14078 3.91406,8.34961 1.81993,3.20884 4.08929,6.74847 6.60351,10.33008 2.51423,3.58162 5.2745,7.20563 8.08008,10.58594 2.80559,3.38031 5.65559,6.51617 8.34961,9.12109 1.70053,1.64428 3.66495,3.25864 5.87695,4.83399 2.21201,1.57535 4.67233,3.11129 7.35938,4.59765 2.68705,1.48636 5.6009,2.92348 8.72656,4.30079 3.12566,1.3773 6.46239,2.69518 9.99024,3.94335 3.49069,1.235 13.45805,4.27212 23.38672,7.19336 9.92866,2.92124 19.81865,5.7266 23.15429,6.5 3.47945,0.8067 10.12568,1.78806 17.77149,2.6875 7.6458,0.89945 16.29119,1.71697 23.76757,2.19922 7.975,0.5143 21.025,1.35479 29,1.86719 7.975,0.5125 22.60385,0.96109 32.50782,0.99609 l 18.00586,0.0625 -0.36329,4.57227 c -0.14586,1.83395 -0.12723,3.09454 0.15235,4.13476 0.27958,1.04023 0.8201,1.86011 1.71484,2.8125 0.61345,0.65296 1.41132,1.29299 2.20117,1.79883 0.78985,0.50584 1.57168,0.87749 2.15625,0.99219 1.16916,0.2294 2.35,0.47492 2.625,0.54492 0.68786,0.1754 7.03641,-0.55173 13.97657,-1.49414 6.94015,-0.94241 14.47192,-2.1001 17.52343,-2.7832 3.85,-0.8619 15.23612,-2.47489 25.30274,-3.58399 7.0765,-0.77967 12.5277,-1.39247 16.99805,-1.96289 4.47034,-0.57042 7.95969,-1.09938 11.11523,-1.71093 3.15554,-0.61156 5.97729,-1.30591 9.10937,-2.20899 3.13209,-0.90308 6.57464,-2.01398 10.97461,-3.45898 5.39848,-1.77293 9.82043,-3.27331 13.65039,-4.67774 3.82997,-1.40443 7.06808,-2.71375 10.09766,-4.10156 3.02959,-1.38781 5.85033,-2.85506 8.84766,-4.57812 2.99732,-1.72307 6.17111,-3.70113 9.90429,-6.11133 3.59753,-2.3226 6.95897,-4.79475 10.1836,-7.52149 3.22463,-2.72674 6.31282,-5.7079 9.35937,-9.05273 3.04656,-3.34483 6.05194,-7.05164 9.11524,-11.22852 3.06329,-4.17687 6.18412,-8.824 9.45898,-14.04687 5.75456,-9.17755 10.25455,-16.17321 13.83203,-21.48047 3.57749,-5.30726 6.23247,-8.92612 8.30078,-11.35352 1.01296,-1.18882 2.12634,-2.80867 3.35938,-4.89648 1.23304,-2.08781 2.58565,-4.64347 4.07617,-7.70703 2.98105,-6.12713 6.51456,-14.28264 10.75,-24.77344 1.63815,-4.05755 2.98324,-7.54572 4.14258,-10.875 1.15934,-3.32928 2.13208,-6.50032 3.02734,-9.92187 0.89527,-3.42156 1.71269,-7.09336 2.5586,-11.42774 0.8459,-4.33438 1.72115,-9.33069 2.73242,-15.39844 0.68748,-4.125 1.48166,-8.35168 2.20703,-11.83789 0.72537,-3.4862 1.38193,-6.23193 1.79492,-7.39648 0.41301,-1.1645 0.91083,-3.15234 1.37891,-5.41797 0.46807,-2.26563 0.90639,-4.80903 1.20312,-7.08203 0.59346,-4.5459 1.95106,-12.31563 3.01758,-17.26563 1.06651,-4.95 2.37669,-12.15 2.91211,-16 0.53541,-3.85 1.64346,-10.15 2.46289,-14 0.81943,-3.85 1.98386,-12.175 2.58594,-18.5 0.60209,-6.325 1.97534,-16 3.05273,-21.5 0.5387,-2.75 1.25276,-7.5 1.97071,-12.9375 0.71794,-5.4375 1.43977,-11.5625 1.99023,-17.0625 0.55047,-5.5 1.2258,-11.28789 1.87109,-16.18164 0.6453,-4.89375 1.26057,-8.89336 1.68946,-10.81836 0.39496,-1.77267 0.72669,-3.63925 1.04492,-6.33398 0.31823,-2.69473 0.62332,-6.21783 0.96289,-11.30273 0.67915,-10.16981 1.49869,-26.58783 2.85156,-55.12696 0.82816,-17.47005 1.75805,-32.17098 2.06641,-32.66992 0.30835,-0.49894 1.11147,-9.60531 1.7832,-20.23633 0.35121,-5.55837 0.63658,-20.79682 0.84766,-40.76953 0.21107,-19.97271 0.34789,-44.67946 0.39844,-69.17578 0.0505,-24.49632 0.0151,-48.7829 -0.11524,-67.91211 -0.13038,-19.12921 -0.3558,-33.10127 -0.6875,-36.97266 -0.27589,-3.22002 -0.73779,-7.11853 -1.32226,-11.31836 -0.58448,-4.19982 -1.29229,-8.70119 -2.05469,-13.12304 -0.7624,-4.42185 -1.58097,-8.76429 -2.39063,-12.65039 -0.80966,-3.8861 -1.60967,-7.31564 -2.33593,-9.90821 -1.70804,-6.09731 -3.34106,-12.36534 -4.82032,-18.47461 -1.47925,-6.10926 -2.80474,-12.05977 -3.89648,-17.52539 -1.22628,-6.13908 -2.44115,-11.55306 -3.70899,-16.41992 -1.26784,-4.86686 -2.58873,-9.18626 -4.02929,-13.14062 -1.44056,-3.95436 -2.99971,-7.54179 -4.74414,-10.94336 -1.74443,-3.40158 -3.67406,-6.61766 -5.85352,-9.82617 -1.6199,-2.38477 -3.27313,-4.63516 -5.00586,-6.78321 -1.73273,-2.14805 -3.54549,-4.19377 -5.48437,-6.16992 -1.93888,-1.97615 -4.00383,-3.8829 -6.24219,-5.75195 -2.23836,-1.86906 -4.65008,-3.700576 -7.28125,-5.527344 -2.63117,-1.826769 -5.4823,-3.648754 -8.59961,-5.498047 -3.11731,-1.849294 -6.50049,-3.725482 -10.19727,-5.662109 -7.39354,-3.873256 -16.03918,-7.986207 -26.31054,-12.597657 -5.55047,-2.49196 -12.75046,-5.270408 -16,-6.173828 -3.24953,-0.90342 -11.30821,-3.385785 -17.90821,-5.515625 -3.86108,-1.24598 -9.5401,-2.837711 -16.10351,-4.554687 -6.56341,-1.716977 -14.01187,-3.558698 -21.41406,-5.306641 -7.40219,-1.747943 -14.75734,-3.401354 -21.13477,-4.740234 -6.37743,-1.33888 -11.77649,-2.363728 -15.26562,-2.853516 -5.94002,-0.83383 -12.43911,-1.946436 -14.44141,-2.472656 -2.0023,-0.52623 -11.06562,-1.914195 -20.14063,-3.083985 -4.5375,-0.584895 -9.52424,-1.33377 -13.90429,-2.068359 -4.38005,-0.734589 -8.15341,-1.45489 -10.26172,-1.984375 -1.64245,-0.412487 -3.17015,-0.73821 -4.88086,-0.996094 -1.71071,-0.257883 -3.60375,-0.448337 -5.97461,-0.585937 -4.74173,-0.275202 -11.39634,-0.34375 -22.33008,-0.34375 z m -0.53711,19.011718 c 9.31505,0.0041 15.69929,0.09433 20.22071,0.324219 2.2607,0.114943 4.05529,0.265223 5.51757,0.457031 1.46229,0.191809 2.59293,0.424737 3.52344,0.707032 1.33996,0.406515 3.97852,0.947268 7.15039,1.492187 3.17188,0.54492 6.87707,1.094007 10.34961,1.513672 6.30533,0.76202 14.48948,1.965146 23.45899,3.429688 8.9695,1.464542 18.72438,3.1905 28.16796,5 8.16536,1.56458 23.07608,5.003105 36.55274,8.308593 6.73833,1.652744 13.11852,3.271817 18.11719,4.607422 4.99866,1.335606 8.61607,2.387407 9.83007,2.904297 2.475,1.05379 7.53096,2.667971 11.23633,3.587891 2.90409,0.720985 7.37662,2.327435 12.57617,4.429687 5.19956,2.102252 11.12631,4.699464 16.9375,7.400391 5.81119,2.700927 11.5071,5.506428 16.2461,8.023438 4.739,2.51701 8.52092,4.74637 10.5039,6.29687 2.20001,1.72019 5.31149,3.94652 6.91407,4.94727 1.69286,1.05714 3.37116,2.32402 5.01953,3.77344 1.64836,1.44941 3.26635,3.08207 4.83984,4.87109 1.57349,1.78902 3.10207,3.73459 4.57031,5.81055 1.46825,2.07595 2.87636,4.28158 4.20899,6.5918 1.33262,2.31021 2.58923,4.72498 3.75586,7.21679 1.16663,2.49181 2.24263,5.06092 3.21289,7.68164 0.97026,2.62073 1.83656,5.29326 2.58008,7.99024 0.74351,2.69697 1.36516,5.41812 1.85156,8.13867 0.87011,4.8667 2.7201,13.30047 4.75391,21.92383 2.0338,8.62336 4.25142,17.43631 5.85546,23.06054 0.78827,2.7639 1.61001,6.19529 2.41797,10.01563 0.80796,3.82034 1.60127,8.02985 2.33399,12.34766 0.73272,4.3178 1.40424,8.74371 1.96679,13 0.56256,4.25628 1.01701,8.34273 1.31446,11.97851 0.37031,4.52642 0.59135,19.87212 0.68945,40.4668 0.0981,20.59468 0.0724,46.43785 -0.0488,71.96093 -0.12121,25.52309 -0.33739,50.72548 -0.625,70.03711 -0.1438,9.65582 -0.30498,17.83929 -0.48047,23.85352 -0.17548,6.01423 -0.36585,9.85968 -0.5664,10.83984 -0.2901,1.41786 -0.56029,3.32433 -0.8418,6.22071 -0.2815,2.89637 -0.57482,6.78324 -0.91016,12.1582 -0.67067,10.74992 -1.51092,27.45647 -2.77148,54.12109 -0.50927,10.77274 -1.0255,19.28461 -1.58594,25.97266 -0.56044,6.68805 -1.16509,11.55227 -1.84961,15.02734 -0.54169,2.75 -1.27094,7.61172 -2.00976,13.23047 -0.73883,5.61875 -1.48723,11.99453 -2.06641,17.76953 -0.57917,5.775 -1.26868,11.75586 -1.91406,16.74024 -0.64538,4.98437 -1.24665,8.97226 -1.64649,10.75976 -0.79968,3.575 -2.12999,12.95422 -2.95703,20.8418 -0.41352,3.94379 -0.95233,8.16601 -1.48828,11.79102 -0.53595,3.625 -1.06903,6.65279 -1.46875,8.20898 -0.79943,3.1125 -1.91275,9.3696 -2.47461,13.9043 -0.56187,4.5347 -1.67828,10.8347 -2.48047,14 -0.80219,3.1653 -2.16174,10.4789 -3.01953,16.2539 -0.8578,5.775 -2.24982,12.74477 -3.09375,15.48829 -0.84393,2.74359 -2.87352,12.86859 -4.50976,22.5 -1.63625,9.63149 -3.59083,19.76171 -4.34375,22.51171 -0.88977,3.2499 -2.41406,7.63248 -4.27539,12.47071 -1.86134,4.83822 -4.0604,10.13211 -6.29493,15.20117 -2.23452,5.06906 -4.50627,9.91502 -6.51562,13.85742 -2.00935,3.9424 -3.75561,6.9812 -4.94141,8.43945 -2.03005,2.49645 -6.8977,9.52296 -12.11914,17.35352 -5.22144,7.83056 -10.79669,16.46518 -14.24023,22.17773 -1.72264,2.85772 -3.5419,5.58574 -5.47071,8.19336 -1.9288,2.60763 -3.96742,5.09525 -6.12695,7.47071 -2.15953,2.37545 -4.44063,4.63958 -6.85547,6.80078 -2.41484,2.16119 -4.96348,4.21875 -7.6582,6.18359 -2.69472,1.96485 -5.53598,3.83664 -8.53516,5.62305 -2.99917,1.78641 -6.15616,3.48739 -9.48437,5.11328 -3.32821,1.62589 -6.826,3.17687 -10.50781,4.66016 -3.68182,1.48328 -7.54743,2.89922 -11.60743,4.25781 -7.19374,2.40725 -11.8623,3.85484 -16.58593,4.92773 -4.72364,1.0729 -9.50234,1.77109 -16.91407,2.68164 -5.60893,0.68905 -9.69594,1.2198 -12.64453,1.54688 -2.94858,0.32707 -4.75961,0.4498 -5.81445,0.32226 -0.52742,-0.0638 -0.86477,-0.18997 -1.0625,-0.38476 -0.19773,-0.19479 -0.25489,-0.45754 -0.21875,-0.79492 0.0723,-0.67478 0.51642,-1.64629 0.94922,-2.96094 0.49921,-1.51638 0.75194,-2.95574 0.76953,-4.28906 0.0176,-1.33333 -0.20081,-2.56031 -0.64063,-3.65039 -0.43981,-1.09009 -1.10161,-2.04341 -1.9746,-2.83008 -0.873,-0.78668 -1.95634,-1.40701 -3.23829,-1.83008 -0.78921,-0.26045 -1.44912,-0.44483 -2.07421,-0.54102 -0.6251,-0.0962 -1.21542,-0.10398 -1.86719,-0.008 -1.30355,0.19235 -2.85121,0.79734 -5.40625,1.92774 -2.42019,1.07075 -4.91213,2.02924 -7.53711,2.88086 -2.62498,0.85161 -5.38341,1.59647 -8.33594,2.23632 -2.95253,0.63985 -6.09912,1.17588 -9.50195,1.61133 -3.40283,0.43545 -7.06123,0.7694 -11.03711,1.00781 -3.97589,0.23842 -8.26972,0.38095 -12.94141,0.42969 -4.67169,0.0487 -9.72069,0.005 -15.21094,-0.12891 -10.98049,-0.26711 -23.72166,-0.89162 -38.71289,-1.84374 -9.36642,-0.59491 -17.15117,-1.16097 -23.98632,-1.79883 -6.83516,-0.63786 -12.72142,-1.34721 -18.29297,-2.22852 -5.57156,-0.88131 -10.82672,-1.93451 -16.40235,-3.25976 -5.57562,-1.32526 -11.471,-2.92288 -18.31836,-4.89258 -7.87576,-2.26553 -14.388,-4.2505 -19.8789,-6.11719 -5.4909,-1.86669 -9.96091,-3.61559 -13.75,-5.40625 -1.89455,-0.89533 -3.61768,-1.80144 -5.21485,-2.73828 -1.59716,-0.93685 -3.06795,-1.90316 -4.45312,-2.92188 -1.38517,-1.01871 -2.6848,-2.08953 -3.94336,-3.23047 -1.25856,-1.14093 -2.47603,-2.35275 -3.69336,-3.65624 -2.26351,-2.42376 -4.49492,-5.05283 -6.61523,-7.76563 -2.12031,-2.7128 -4.12928,-5.50922 -5.94727,-8.26953 -1.81799,-2.76031 -3.44618,-5.4845 -4.80273,-8.05078 -1.35656,-2.56628 -2.44173,-4.97477 -3.17774,-7.10547 -1.26749,-3.6693 -3.26243,-8.86678 -4.43359,-11.55078 -0.58558,-1.342 -1.84022,-5.45428 -3.38867,-10.99805 -1.54846,-5.54377 -3.39074,-12.51904 -5.1543,-19.58789 -3.52715,-14.1377 -7.38906,-28.36584 -8.58203,-31.61914 -1.19295,-3.2533 -3.21311,-9.29102 -4.48828,-13.41602 -1.27517,-4.125 -3.45151,-10.6776 -4.83789,-14.5625 -0.90747,-2.54287 -2.00912,-6.21678 -3.17188,-10.45898 -1.16275,-4.2422 -2.3861,-9.05259 -3.53515,-13.86719 -1.14906,-4.8146 -2.22544,-9.63446 -3.0918,-13.89453 -0.86636,-4.26007 -1.52321,-7.96046 -1.83789,-10.53906 -0.59218,-4.8525 -1.72256,-12.0525 -2.51172,-16 -0.49194,-2.46073 -1.01805,-6.15584 -1.53125,-10.52149 -0.5132,-4.36564 -1.01288,-9.40085 -1.45117,-14.54296 -0.4383,-5.14212 -0.81481,-10.39152 -1.08203,-15.18165 -0.26723,-4.79013 -0.42579,-9.12194 -0.42579,-12.43164 0,-2.99842 -0.18616,-7.66982 -0.48632,-12.78125 -0.30017,-5.11142 -0.71435,-10.66288 -1.16993,-15.41992 -0.33131,-3.45946 -0.60191,-7.05162 -0.82226,-11.27539 -0.22035,-4.22377 -0.39023,-9.07928 -0.52149,-15.06445 -0.2625,-11.97035 -0.3689,-28.46047 -0.40625,-53.45899 -0.0308,-20.60696 0.0292,-37.16953 0.31836,-51.58593 0.14459,-7.20821 0.34582,-13.88015 0.62305,-20.25196 0.27723,-6.3718 0.62925,-12.44355 1.07422,-18.45312 0.44497,-6.00958 0.98304,-11.95662 1.63086,-18.07813 0.64781,-6.1215 1.40526,-12.4174 2.29101,-19.125 1.77152,-13.41518 4.0544,-28.4775 6.98829,-47.08203 1.9148,-12.14226 3.49642,-24.06726 3.51562,-26.5 0.0192,-2.43273 0.71668,-8.02383 1.55078,-12.42383 0.83409,-4.4 2.1409,-12.95 2.90235,-19 0.76145,-6.05 2.09442,-15.03328 2.96289,-19.96484 0.86846,-4.93155 2.03243,-14.15655 2.58789,-20.5 0.29877,-3.41204 0.76274,-7.1808 1.35156,-11.10937 0.58882,-3.92858 1.30187,-8.01746 2.10352,-12.07227 0.80164,-4.05481 1.69166,-8.07452 2.6289,-11.86523 0.93725,-3.79072 1.92235,-7.35197 2.91797,-10.48829 1.57135,-4.95 3.59881,-12.29604 4.50586,-16.32617 0.50217,-2.23119 1.49815,-5.20229 2.82227,-8.5039 1.32411,-3.30162 2.97636,-6.93376 4.79296,-10.48438 1.64064,-3.20668 3.35651,-6.81889 4.80078,-10.05664 1.44428,-3.23775 2.61695,-6.10106 3.16797,-7.80664 0.53675,-1.66142 1.30205,-3.52807 2.28907,-5.58789 0.98701,-2.05983 2.19481,-4.31378 3.61914,-6.75 2.84866,-4.87244 6.55992,-10.47472 11.08008,-16.7207 1.96937,-2.72131 5.52512,-6.82917 9.89062,-11.55274 4.3655,-4.72357 9.53998,-10.06367 14.75195,-15.24805 5.21198,-5.18437 10.45996,-10.212673 14.96875,-14.316402 4.5088,-4.103729 8.27919,-7.282044 10.53516,-8.763672 3.97926,-2.61341 9.33785,-6.481423 11.9082,-8.595703 1.07401,-0.883442 2.405,-1.821962 3.94141,-2.792969 1.53641,-0.971006 3.27866,-1.974572 5.17578,-2.990234 3.79424,-2.031323 8.20702,-4.108063 12.83398,-6.060547 4.62697,-1.952484 9.46709,-3.780179 14.11329,-5.310547 4.64619,-1.530368 9.09923,-2.764322 12.95117,-3.529297 6.91789,-1.37386 12.47397,-2.441897 17.3125,-3.271484 4.83852,-0.829587 8.96001,-1.421128 13.00976,-1.839844 4.04976,-0.418716 8.02654,-0.665395 12.57813,-0.80664 4.55159,-0.141245 9.67747,-0.176653 16.02148,-0.173829 z"
       style="color:#000000;clip-rule:nonzero;display:inline;overflow:visible;visibility:visible;opacity:1;isolation:auto;mix-blend-mode:normal;color-interpolation:sRGB;color-interpolation-filters:linearRGB;solid-color:#000000;solid-opacity:1;fill:url(#linearGradient4750);fill-opacity:1;fill-rule:nonzero;stroke:none;stroke-width:1;stroke-linecap:butt;stroke-linejoin:miter;stroke-miterlimit:4;stroke-dasharray:none;stroke-dashoffset:0;stroke-opacity:1;color-rendering:auto;image-rendering:auto;shape-rendering:auto;text-rendering:auto;enable-background:accumulate" />
    <path
       id="path5720"
       d="m 587.01367,565.32617 c -19.60189,-0.0164 -33.3133,7.77701 -40.29492,22.9043 -1.97272,4.27432 -2.2067,6.26508 -2.03516,17.32812 0.1066,6.875 1.05831,17.8397 2.11524,24.36524 l 1.92187,11.86523 -2.39648,4.28906 c -1.31854,2.3591 -2.94525,4.72662 -3.61524,5.26172 -0.67,0.5351 -5.81648,1.18521 -11.43554,1.44336 -8.95156,0.41123 -11.02453,0.86594 -16.75196,3.68555 -12.12701,5.97011 -17.66015,17.12085 -17.66015,35.58984 0,7.3371 0.5555,11.78397 2.08789,16.69727 l 2.08789,6.69726 -3.03516,4.9336 c -4.13552,6.7211 -11.09107,21.77987 -15.08984,32.67187 -2.97015,8.0902 -3.31038,10.11449 -3.36328,20.02149 -0.0557,10.4346 0.11107,11.36768 3.13867,17.51758 1.75874,3.5726 5.215,8.59957 7.67969,11.17187 8.20566,8.5639 17.39615,11.75934 33.86914,11.77735 l 10.74609,0.0117 7.24805,6.65235 c 8.77353,8.0515 15.58768,12.67897 23.39453,15.88867 10.48484,4.3108 21.7739,3.08674 34.625,-3.75586 11.90632,-6.3396 15.96161,-12.59176 16.5625,-25.53516 0.45717,-9.8474 -0.77313,-17.5256 -5.48828,-34.25 -3.52906,-12.5174 -6.58675,-25.84712 -7.72461,-33.66992 -0.59149,-4.0665 -0.52533,-4.18814 2.64258,-4.86914 4.03925,-0.8682 24.13706,-9.8927 28.40429,-12.75391 4.3754,-2.9339 6.34375,-6.70785 6.34375,-12.16015 0,-11.1718 -5.45241,-14.92459 -26.18359,-18.02149 -4.93048,-0.7366 -9.26011,-1.63504 -9.62305,-1.99804 -0.36293,-0.3629 0.34375,-2.40641 1.57227,-4.54102 1.28848,-2.23878 2.23437,-5.56877 2.23437,-7.86719 0,-3.10883 0.4404,-4.1229 2.00391,-4.61914 2.1572,-0.68467 16.50109,-16.43601 20.94531,-23 4.02124,-5.93926 5.85605,-11.38049 7.03516,-20.86914 1.16833,-9.402 0.80323,-13.50855 -2.19336,-24.63086 -2.48004,-9.20504 -4.81296,-13.91041 -9.41992,-19.00976 -4.32695,-4.78942 -15.51025,-12.27005 -24.30078,-16.25586 -5.75914,-2.61132 -7.64215,-2.9598 -16.04688,-2.9668 z m -0.41406,26.23828 c 3.56869,-0.006 13.59096,4.8882 18.79492,9.17774 4.78426,3.94359 8.11298,14.59328 7.22266,23.11133 -0.75658,7.2386 -1.33461,8.30609 -10.04102,18.50976 -10.36165,12.14356 -11.58375,14.04992 -11.59765,18.09375 -0.0103,3.0035 -0.58744,3.97428 -3.47071,5.8418 l -3.45703,2.24023 -1.13086,-2.11133 c -0.62152,-1.16132 -2.18092,-5.93102 -3.46484,-10.59765 -1.70737,-6.20575 -2.08211,-9.14517 -1.39844,-10.94336 1.79691,-4.72623 1.08855,-9.81431 -1.94922,-14.00781 -2.25948,-3.11912 -3.12783,-5.81987 -4.01367,-12.47657 -2.00136,-15.03935 -1.77014,-18.53781 1.45703,-21.90625 2.9612,-3.09082 7.80548,-4.92264 13.04883,-4.93164 z m -39.44336,98.92383 2.90234,4.00781 c 3.1601,4.3624 10.08883,8.75653 19.14844,12.14453 5.42514,2.02891 5.7832,2.3652 5.7832,5.4336 0,2.189 -0.57893,3.49692 -1.75,3.95312 -2.65598,1.0347 -25.33484,1.52595 -28.75,0.62305 -1.65,-0.4362 -4.67285,-1.50555 -6.71679,-2.37695 l -3.71485,-1.58399 3.39649,-5.81445 c 1.86795,-3.1983 4.81458,-8.19476 6.54883,-11.10156 l 3.15234,-5.28516 z m -27.02539,45.10742 4.75195,2.40821 c 8.27623,4.1938 15.76506,5.5508 31.25586,5.6582 7.8931,0.0547 15.63745,-0.23192 17.20899,-0.63672 3.28717,-0.8467 4.60295,0.49837 4.62695,4.73047 0.008,1.483 2.10079,10.708 4.64844,20.5 5.89937,22.6745 8.71599,35.95214 8.01562,37.77734 -0.30315,0.79 -2.35566,2.35557 -4.56055,3.48047 -2.20489,1.1249 -5.49835,2.04492 -7.32031,2.04492 -4.31023,0 -11.86597,-4.98516 -20.23633,-13.35547 -8.80325,-8.8033 -14.23542,-10.90208 -29.03125,-11.20898 -6.04999,-0.1255 -11.99648,-0.27503 -13.21484,-0.33203 -3.55107,-0.1661 -8.91032,-5.58486 -10.08008,-10.19336 -0.80621,-3.1762 -0.69582,-5.25991 0.48828,-9.25391 2.20503,-7.4378 9.13746,-24.60802 11.46094,-28.38672 l 1.98633,-3.23242 z"
       style="fill:url(#linearGradient5694)" />
    <path
       id="path5718"
       d="m 350.00977,532.36328 c -5.99119,-0.17838 -12.795,0.91337 -20.28516,3.30078 -10.79984,3.44235 -16.54158,8.06607 -21.00391,16.91797 -9.12147,18.09418 -10.61584,31.74817 -6.29297,57.47656 4.43695,26.40739 7.45628,34.76094 16.42188,45.42969 l 2.88086,3.42969 -8.36133,5.07617 c -19.19476,11.65313 -26.40372,19.50313 -26.35742,28.70117 0.0635,12.6156 11.84393,22.70625 29.72851,25.46485 2.3375,0.3605 4.25,0.79148 4.25,0.95898 0,0.1675 -1.44914,5.62335 -3.2207,12.12305 -3.17022,11.6311 -3.2186,12.14222 -3.09961,32.44922 0.16204,27.656 2.70344,46.32927 8.29688,60.95507 2.83616,7.416 7.95817,12.78629 13.52343,14.17969 3.71836,0.931 15.09734,0.73989 21.01172,-0.35351 22.2772,-4.1181 32.02202,-21.66527 34.66211,-62.41407 1.3914,-21.4757 0.50342,-41.63424 -2.63867,-59.93164 -2.02893,-11.8152 -2.29916,-15.10259 -1.29883,-15.74609 1.81777,-1.1693 11.63309,-4.82227 12.95703,-4.82227 2.69128,0 7.78966,-5.21952 8.81446,-9.02539 2.30236,-8.5503 -1.36795,-14.08147 -12.29688,-18.52929 -3.96837,-1.61504 -5.15122,-2.57688 -4.96289,-4.03321 0.13602,-1.05178 0.96571,-6.41211 1.84375,-11.91211 2.58526,-16.19385 1.24359,-38.50381 -3.66601,-61 -2.94688,-13.50289 -12.94764,-39.33472 -18.32227,-47.32617 -4.87329,-7.24602 -12.59867,-11.07184 -22.58398,-11.36914 z m -1.6836,26.50391 c 1.66791,-0.0672 2.25866,0.61289 3.66016,2.89843 7.3454,11.97881 15.7986,43.72671 17.52734,65.83008 0.87184,11.14724 -1.42397,25.34091 -5.59179,34.57422 -2.03249,4.50272 -3.35405,9.38718 -3.81446,14.09961 -0.38745,3.96561 -0.90909,7.37261 -1.16015,7.57031 -0.25106,0.1977 -2.81954,1.31567 -5.70704,2.48438 -5.05072,2.04428 -5.25,2.05228 -5.25,0.24414 0,-3.38894 1.73182,-6.52654 4.38282,-7.94531 3.92426,-2.1002 5.84765,-5.76334 5.84765,-11.13086 0,-5.1653 -1.318,-7.31646 -16.03711,-26.17188 -3.46861,-4.44334 -6.90394,-9.24489 -7.63476,-10.66992 -1.49344,-2.91205 -3.4218,-11.62014 -6.70508,-30.27734 -2.1706,-12.33436 -2.18688,-12.90242 -0.54492,-20.46875 2.58574,-11.91543 5.24323,-16.5027 10.6914,-18.45899 2.475,-0.88871 6.18214,-1.91973 8.23829,-2.29297 0.86486,-0.15699 1.54168,-0.26275 2.09765,-0.28515 z m 13.35156,152.90039 2.40625,14.14648 c 2.02057,11.8767 2.37784,17.13061 2.23243,32.75782 -0.2335,25.09059 -3.55091,44.54916 -8.59571,50.41406 -1.4936,1.7365 -3.61732,2.7836 -6.41015,3.1582 -4.15483,0.5573 -4.18266,0.539 -5.19336,-3.3125 -3.89954,-14.8602 -4.58752,-21.18205 -4.60742,-42.37305 -0.0184,-19.6663 0.17591,-22.12153 2.27539,-28.80273 1.26238,-4.0173 2.64441,-10.19873 3.07031,-13.73633 0.4259,-3.5377 0.96834,-6.62543 1.20508,-6.86133 0.23673,-0.236 3.39711,-1.54565 7.02343,-2.91015 l 6.59375,-2.48047 z"
       style="fill:url(#linearGradient5694)" />
    <path
       id="path5716"
       d="m 492.45703,108.92188 c -1.65868,0.0895 -3.36658,0.2718 -5.15039,0.5371 -13.86485,2.06214 -21.68657,7.08821 -29.75976,19.1211 -7.2958,10.8742 -9.86012,19.06069 -10.35157,33.0625 -0.48815,13.90772 0.81014,19.89053 7.46485,34.4082 12.27285,26.77397 14.33007,31.55906 14.33007,33.33008 0,1.65104 -0.95022,1.97869 -7.00781,2.41211 -12.81732,0.91708 -25.45403,9.34381 -27.95898,18.64648 -2.96498,11.0111 3.68363,20.78205 18.44922,27.11133 5.70481,2.44536 6.2509,4.98401 2.94726,13.70117 -15.29148,40.34891 -16.90488,46.74692 -16.18945,64.19532 0.50214,12.24614 1.67172,16.93505 6.91406,27.70507 3.75403,7.71238 11.89069,15.84135 18.40039,18.38282 9.45522,3.69144 18.12539,2.25507 34.33203,-5.6875 8.7536,-4.28998 13.00251,-7.10579 18.37696,-12.17578 8.64334,-8.15369 15.10816,-16.45374 18.18554,-23.35157 5.40171,-12.1077 3.79117,-31.95137 -4.39648,-54.1914 -5.69688,-15.4744 -5.7702,-15.7044 -6.91797,-21.86329 l -0.89258,-4.79492 4.62891,-2.35937 c 9.1663,-4.66999 10.49327,-11.95773 4.12695,-22.67383 -2.20159,-3.70583 -5.16656,-7.65151 -6.58789,-8.76953 l -2.58398,-2.0332 2.67968,-8.28711 c 1.47367,-4.55815 5.09417,-14.66655 8.04688,-22.46289 9.30658,-24.57315 12.59578,-37.15766 13.17578,-50.41602 0.85641,-19.57668 -2.88831,-27.58238 -18.22461,-38.95898 -15.26786,-11.32584 -24.42632,-15.21459 -36.03711,-14.58789 z m 2.74024,26.6875 c 2.94693,0.37973 6.00793,1.64718 9.36132,3.82617 3.28096,2.13192 8.20831,5.90831 10.94922,8.39257 l 4.98242,4.51758 -0.11718,7.35742 c -0.14167,8.88854 -3.79669,22.01601 -12.90821,46.35547 -3.50018,9.35 -7.09609,19.5875 -7.99023,22.75 -0.89413,3.1625 -1.79871,5.75 -2.00977,5.75 -0.21105,0 -0.6368,-1.6875 -0.94726,-3.75 -1.38641,-9.21055 -5.24735,-20.04957 -13.16602,-36.96289 -10.30973,-22.02036 -11.71008,-27.9127 -9.04492,-38.07422 2.08937,-7.96618 7.68035,-16.50839 12.21484,-18.66015 2.89511,-1.37382 5.72885,-1.88169 8.67579,-1.50195 z m 2.13281,119.22656 c 1.76753,-0.45839 1.91609,0.69785 -0.44727,2.66601 -2.47455,2.06076 -10.57631,2.97195 -9.39258,1.05664 0.33992,-0.55 1.53412,-1 2.6543,-1 1.12018,0 3.32972,-0.76367 4.91016,-1.69726 0.91594,-0.54106 1.68621,-0.8726 2.27539,-1.02539 z m -10.01172,31.03711 c 1.23838,-0.0219 2.84996,0.0591 4.53711,0.25 l 6.13476,0.69531 0,3.37891 c 0,1.85854 2.49031,10.23817 5.53321,18.62109 8.48684,23.38051 10.23853,34.19925 6.73633,41.58984 -3.18351,6.71805 -14.91783,17.41075 -24.13477,21.99219 -4.60118,2.2871 -9.19089,4.1582 -10.19922,4.1582 -2.34626,0 -6.14173,-5.10512 -8.55078,-11.5 -1.3862,-3.6797 -1.85061,-7.37631 -1.75781,-14.00195 0.13792,-9.85102 2.52471,-18.30551 11.76172,-41.66016 2.52948,-6.39547 5.12775,-14.03765 5.77343,-16.98242 0.64569,-2.94477 1.48752,-5.7217 1.8711,-6.16992 0.19177,-0.2241 1.05654,-0.34919 2.29492,-0.37109 z M 695.3125,389.0625 484.375,473.4375 695.3125,389.0625 Z"
       style="fill:url(#linearGradient5694)" />
  </g>
</svg>
