<?xml version="1.0" encoding="UTF-8" standalone="no"?>
<svg
   xmlns:osb="http://www.openswatchbook.org/uri/2009/osb"
   xmlns:dc="http://purl.org/dc/elements/1.1/"
   xmlns:cc="http://creativecommons.org/ns#"
   xmlns:rdf="http://www.w3.org/1999/02/22-rdf-syntax-ns#"
   xmlns:svg="http://www.w3.org/2000/svg"
   xmlns="http://www.w3.org/2000/svg"
   xmlns:xlink="http://www.w3.org/1999/xlink"
   version="1.1"
   id="svg2985"
   height="940.75983"
   width="607.97345">
  <defs
     id="defs5498">
    <linearGradient
       osb:paint="solid"
       id="linearGradient4756">
      <stop
         id="stop4758"
         offset="0"
         style="stop-color:#ffffff;stop-opacity:1;" />
    </linearGradient>
    <linearGradient
       osb:paint="solid"
       id="linearGradient4750">
      <stop
         id="stop4752"
         offset="0"
         style="stop-color:#000000;stop-opacity:1;" />
    </linearGradient>
    <linearGradient
       osb:paint="solid"
       id="linearGradient5694">
      <stop
         id="stop5696"
         offset="0"
         style="stop-color:#002b11;stop-opacity:1;" />
    </linearGradient>
    <linearGradient
       osb:paint="solid"
       id="linearGradient4712">
      <stop
         id="stop4714"
         offset="0"
         style="stop-color:#162d50;stop-opacity:1;" />
    </linearGradient>
    <linearGradient
       osb:paint="solid"
       id="linearGradient4706">
      <stop
         id="stop4708"
         offset="0"
         style="stop-color:#d40000;stop-opacity:1;" />
    </linearGradient>
    <linearGradient
       gradientUnits="userSpaceOnUse"
       y2="508.69208"
       x2="761.44257"
       y1="508.69208"
       x1="262.13925"
       id="linearGradient4716"
       xlink:href="#linearGradient4712" />
    <linearGradient
       gradientUnits="userSpaceOnUse"
       y2="500.0004"
       x2="771.30902"
       y1="500.0004"
       x1="228.69211"
       id="linearGradient4754"
       xlink:href="#linearGradient4750" />
    <linearGradient
       gradientUnits="userSpaceOnUse"
       y2="500.10483"
       x2="752.40271"
       y1="500.10483"
       x1="248.61133"
       id="linearGradient4760"
       xlink:href="#linearGradient4756" />
    <linearGradient
       y2="508.69208"
       x2="761.44257"
       y1="508.69208"
       x1="262.13925"
       gradientUnits="userSpaceOnUse"
       id="linearGradient501"
       xlink:href="#linearGradient4712" />
    <linearGradient
       y2="508.69208"
       x2="761.44257"
       y1="508.69208"
       x1="262.13925"
       gradientUnits="userSpaceOnUse"
       id="linearGradient503"
       xlink:href="#linearGradient4712" />
    <linearGradient
       y2="508.69208"
       x2="761.44257"
       y1="508.69208"
       x1="262.13925"
       gradientUnits="userSpaceOnUse"
       id="linearGradient505"
       xlink:href="#linearGradient4712" />
  </defs>
  <metadata
     id="metadata5594">
    <rdf:RDF>
      <cc:Work
         rdf:about="">
        <dc:format>image/svg+xml</dc:format>
        <dc:type
           rdf:resource="http://purl.org/dc/dcmitype/StillImage" />
        <dc:title />
      </cc:Work>
    </rdf:RDF>
  </metadata>
  <g
     transform="translate(-196.01332,-29.620594)"
     style="display:inline"
     id="layer11">
    <path
       id="path4767"
       d="m 481.89258,46.826172 c -14.73496,0.08544 -29.64195,0.263387 -41.75781,0.515625 -12.11587,0.252238 -21.44062,0.578772 -25.00977,0.962891 -2.6125,0.281158 -7.2519,0.999747 -12.62109,1.929687 -5.3692,0.92994 -11.46819,2.07123 -17.00196,3.201172 -11.06752,2.259884 -24.79252,4.766119 -30.5,5.570312 -6.635,0.934883 -12.14903,1.754763 -16.99218,2.558594 -4.84316,0.803831 -9.01512,1.592119 -12.96485,2.462891 -3.94972,0.870771 -7.67811,1.823279 -11.63281,2.958984 -3.9547,1.135705 -8.13605,2.454103 -12.99414,4.052734 -7.31287,2.406416 -18.58339,5.761563 -25.04492,7.455079 -5.88401,1.542151 -10.58698,2.922769 -14.41993,4.380859 -1.91647,0.729045 -3.61677,1.477695 -5.13671,2.275391 -1.51995,0.797696 -2.85964,1.644188 -4.06055,2.570312 -1.20091,0.926124 -2.26134,1.932545 -3.2207,3.046875 -0.95937,1.11433 -1.81797,2.336906 -2.61328,3.699219 -0.79532,1.362313 -1.52758,2.863129 -2.23633,4.533203 -0.70875,1.67007 -1.39407,3.50926 -2.09375,5.54688 -1.92086,5.59391 -3.9674,12.70743 -5.68946,19.55078 -1.72205,6.84334 -3.11963,13.41651 -3.74218,17.92773 -0.60721,4.4 -2.19224,15.65 -3.52149,25 -2.3366,16.43575 -3.72666,26.46559 -4.65234,33.99609 -0.92568,7.53051 -1.38698,12.56168 -1.86328,19.00391 -0.52864,7.15 -1.48653,17.95 -2.12696,24 -0.20521,1.93867 -0.38349,6.34281 -0.53906,13.5 -0.15557,7.15719 -0.28752,17.06729 -0.39844,30.01758 -0.22184,25.90057 -0.3603,63.96206 -0.43359,116.48242 -0.0734,52.62434 -0.21287,90.79103 -0.4375,116.90625 -0.22463,26.11522 -0.53446,40.17896 -0.95117,44.59375 -0.64893,6.875 -1.83941,19.25 -2.64649,27.5 -0.36722,3.75377 -0.67048,8.23387 -0.91211,13.24219 -0.24162,5.00831 -0.42088,10.54451 -0.54296,16.41406 -0.24417,11.7391 -0.25627,24.80861 -0.0586,37.63281 0.19767,12.8242 0.60427,25.40318 1.19531,36.16602 0.29553,5.38142 0.63671,10.30786 1.02149,14.58398 0.38478,4.27612 0.81326,7.90218 1.28125,10.67969 0.73282,4.34934 2.02581,18.64029 3.30078,35.30859 1.27497,16.66831 2.53194,35.71396 3.19141,49.57032 0.25666,5.39281 0.69897,10.89649 1.3125,16.42187 0.61352,5.52538 1.39749,11.07335 2.33789,16.55664 0.9404,5.4833 2.0381,10.90141 3.27539,16.16797 1.23729,5.26656 2.61494,10.38068 4.11914,15.25586 1.35931,4.40559 2.41774,7.7602 3.52148,10.50391 0.55187,1.37185 1.11474,2.59106 1.73242,3.71289 0.61769,1.12182 1.29057,2.14486 2.06055,3.12695 0.76998,0.98209 1.63775,1.92235 2.64649,2.875 1.00873,0.95265 2.15821,1.91768 3.49218,2.95117 2.66794,2.06699 6.07284,4.40684 10.56055,7.45899 1.97866,1.34571 3.71976,2.47584 5.41406,3.48242 1.69431,1.00658 3.3409,1.88907 5.13477,2.73828 3.58773,1.69841 7.7594,3.26438 14.04883,5.42383 7.89506,2.71075 13.23968,4.42469 18.67578,5.81836 5.4361,1.39367 10.96368,2.46707 19.22656,3.89843 5.5,0.95278 14.5,3.06975 20,4.70508 5.5,1.63533 16.3,4.56796 24,6.51758 7.7,1.94962 19.85,5.13095 27,7.06836 15.55594,4.21514 24.40008,6.55228 31.12109,7.99805 3.36051,0.72288 6.19062,1.22241 9.0625,1.62304 2.87189,0.40064 5.78641,0.70224 9.31641,1.02735 5.31981,0.48994 17.7334,0.86506 33.67188,1.12109 15.93847,0.25604 35.40136,0.39203 54.82421,0.40821 19.42286,0.0162 38.80518,-0.0887 54.57813,-0.31836 15.77295,-0.22964 27.93701,-0.58305 32.92578,-1.06446 2.97226,-0.28681 6.09887,-0.68617 9.36523,-1.19336 3.26637,-0.50718 6.67183,-1.12246 10.20313,-1.84179 7.0626,-1.43867 14.62695,-3.29327 22.57422,-5.53125 7.94727,-2.23799 16.27842,-4.8585 24.87695,-7.83008 8.59854,-2.97159 17.46408,-6.29413 26.48047,-9.9336 7.60701,-3.07057 12.63245,-5.24814 15.98438,-7.00781 1.67596,-0.87983 2.93435,-1.6542 3.88671,-2.38476 0.95236,-0.73057 1.59915,-1.41693 2.05469,-2.11719 0.40021,-0.61522 1.1106,-2.41152 1.9336,-4.81055 0.82299,-2.39903 1.75861,-5.40078 2.60742,-8.42578 1.40535,-5.00842 2.48174,-9.3044 3.73632,-15.33398 1.25459,-6.02958 2.68737,-13.79276 4.8086,-25.73243 0.78814,-4.43618 2.97595,-13.43618 4.86133,-20 1.16382,-4.05178 2.13753,-7.62876 2.98242,-11.04492 0.84489,-3.41615 1.56032,-6.67118 2.20508,-10.08008 1.28951,-6.81778 2.29821,-14.2497 3.5,-24.80859 1.6475,-14.47498 2.60763,-23.22338 3.28906,-30.76953 0.68142,-7.54615 1.08414,-13.89004 1.61719,-23.55859 0.27787,-5.04014 0.61518,-9.75469 0.93554,-13.28907 0.32036,-3.53437 0.62377,-5.88857 0.83204,-6.21093 0.18757,-0.29035 0.35351,-1.70582 0.52929,-5.63086 0.17578,-3.92505 0.36185,-10.35892 0.58594,-20.69141 0.44818,-20.66498 1.05264,-56.91833 2.05469,-119.84961 0.27414,-17.21716 0.52831,-30.91153 0.83203,-42.20898 0.30372,-11.29746 0.65642,-20.19812 1.1289,-27.82422 0.47248,-7.6261 1.06529,-13.97855 1.84571,-20.18164 0.78041,-6.2031 1.74903,-12.25672 2.97656,-19.28516 0.57026,-3.26511 1.01784,-6.04822 1.38086,-8.94336 0.36301,-2.89514 0.64199,-5.90321 0.87109,-9.61328 0.45821,-7.42014 0.72141,-17.65414 1.08399,-35.44336 0.20008,-9.81643 0.42528,-18.15463 0.70508,-25.42383 0.27979,-7.26919 0.61508,-13.46864 1.0371,-19.01172 0.42203,-5.54308 0.92987,-10.42831 1.55665,-15.0664 0.62677,-4.63809 1.37158,-9.02977 2.26562,-13.58399 0.33808,-1.72217 0.61566,-3.66442 0.84766,-6.23633 0.23199,-2.5719 0.41829,-5.77431 0.57422,-10.01367 0.31185,-8.47872 0.50171,-21.10923 0.68945,-41.16406 0.16041,-17.13576 0.18734,-31.49824 0.0527,-43.53125 -0.13461,-12.03301 -0.43117,-21.73688 -0.91601,-29.55664 -0.24242,-3.90988 -0.53077,-7.34775 -0.8711,-10.37109 -0.34033,-3.02335 -0.73259,-5.6309 -1.17773,-7.87891 -0.44514,-2.24801 -0.94315,-4.13685 -1.5,-5.7207 -0.55685,-1.58385 -1.17219,-2.86365 -1.84766,-3.89453 -0.3797,-0.57951 -0.89182,-2.28463 -1.41015,-4.56446 -0.51834,-2.27982 -1.04289,-5.13435 -1.44922,-8.01367 -0.85954,-6.09068 -1.7652,-11.37091 -2.8125,-16.09961 -1.0473,-4.7287 -2.23537,-8.90507 -3.66016,-12.78906 -1.42478,-3.88399 -3.08613,-7.47665 -5.07812,-11.0332 -1.992,-3.55656 -4.31552,-7.07783 -7.06446,-10.82422 -4.32749,-5.89775 -9.12667,-12.45857 -10.66601,-14.58008 -0.76967,-1.06075 -2.39538,-2.904676 -4.39453,-5.019532 -1.99915,-2.114857 -4.37173,-4.500646 -6.63477,-6.648438 -1.71676,-1.629334 -3.21636,-2.994297 -4.66015,-4.205078 -1.4438,-1.210781 -2.83089,-2.2668 -4.32422,-3.277344 -2.98668,-2.021087 -6.39583,-3.860595 -11.51563,-6.390625 -5.07481,-2.507799 -10.32666,-4.849804 -15.67969,-7.003906 C 695.86182,66.468944 690.40855,64.502877 684.92578,62.75 679.44301,60.997123 673.93084,59.456467 668.4668,58.152344 663.00275,56.848221 657.5859,55.780497 652.28906,54.972656 646.97365,54.161984 639.7,52.817337 636.125,51.984375 c -1.19272,-0.277898 -2.84279,-0.525441 -5.0957,-0.751953 -2.25292,-0.226512 -5.10874,-0.432782 -8.70899,-0.623047 -7.20049,-0.38053 -17.38272,-0.702918 -31.69531,-1.029297 -10.725,-0.244569 -21.27493,-0.593903 -29.63086,-0.960937 -8.35593,-0.367034 -14.51785,-0.751768 -16.4707,-1.064453 -2.19038,-0.350718 -10.47987,-0.575596 -21.90625,-0.691407 -11.42638,-0.11581 -25.98966,-0.122554 -40.72461,-0.03711 z"
       style="color:#000000;clip-rule:nonzero;display:inline;overflow:visible;visibility:visible;opacity:1;isolation:auto;mix-blend-mode:normal;color-interpolation:sRGB;color-interpolation-filters:linearRGB;solid-color:#000000;solid-opacity:1;fill:url(#linearGradient4756);fill-opacity:1;fill-rule:nonzero;stroke:none;stroke-width:1;stroke-linecap:butt;stroke-linejoin:miter;stroke-miterlimit:4;stroke-dasharray:none;stroke-dashoffset:0;stroke-opacity:1;color-rendering:auto;image-rendering:auto;shape-rendering:auto;text-rendering:auto;enable-background:accumulate" />
    <path
       id="path4765"
       d="m 485.97852,29.623047 c -16.23507,-0.0191 -32.47976,0.03999 -45.58985,0.179687 -13.11009,0.139694 -23.08559,0.359983 -26.7832,0.666016 -3.03017,0.25079 -8.31485,0.9849 -14.38672,1.964844 -6.07187,0.979944 -12.93095,2.205721 -19.11328,3.441406 -12.36467,2.47137 -24.73047,4.773778 -27.48047,5.117188 -5.681,0.709414 -10.97149,1.46726 -16.0293,2.308593 -5.0578,0.841333 -9.88201,1.766461 -14.63086,2.808594 -4.74884,1.042133 -9.42362,2.201859 -14.17773,3.513672 -4.75412,1.311813 -9.58849,2.775406 -14.66211,4.425781 -7.425,2.415247 -18.89274,5.802726 -25.48438,7.529297 -5.04879,1.32245 -9.40034,2.634923 -13.18945,4.013672 -3.7891,1.378749 -7.01489,2.824516 -9.8164,4.414062 -1.40076,0.794773 -2.69552,1.625512 -3.90039,2.501953 -1.20488,0.876442 -2.32028,1.79797 -3.36329,2.775391 -1.043,0.977422 -2.01453,2.009708 -2.92968,3.107422 -0.91515,1.097714 -1.7744,2.260728 -2.59571,3.498047 -1.01776,1.533285 -2.0814,3.474827 -3.16601,5.761719 -1.08461,2.286891 -2.1903,4.919152 -3.29492,7.835937 -1.10463,2.916786 -2.20735,6.118052 -3.28516,9.541012 -1.07781,3.42297 -2.1306,7.06762 -3.13477,10.87305 -0.65604,2.48618 -1.51963,6.63346 -2.47265,11.72461 -0.95303,5.09115 -1.99502,11.12702 -3.01172,17.38672 -2.0334,12.5194 -3.96134,25.93864 -4.84961,34.51367 -0.37033,3.575 -1.29587,10.55 -2.05859,15.5 -0.63998,4.15336 -1.22282,8.9238 -1.75196,14.38867 -0.52914,5.46488 -1.00431,11.62337 -1.42578,18.55078 -0.84294,13.85484 -1.47307,30.78726 -1.9043,51.39844 -0.43122,20.61118 -0.66419,44.90276 -0.70898,73.47852 -0.0448,28.57575 0.0977,61.43502 0.41406,99.18359 0.0868,10.35957 0.0296,22.72651 -0.13476,35.70703 -0.16436,12.98052 -0.43603,26.57504 -0.77735,39.39063 -0.34131,12.81559 -0.75322,24.85202 -1.19726,34.71679 -0.44404,9.86478 -0.92004,17.55748 -1.39258,21.68555 -0.55038,4.80791 -0.96567,14.4268 -1.24609,26.4082 -0.28043,11.98141 -0.4258,26.32545 -0.4336,40.58594 -0.008,14.2605 0.12119,28.43685 0.38867,40.08203 0.13375,5.82259 0.3028,11.01261 0.50586,15.26367 0.20307,4.25107 0.44018,7.56313 0.71289,9.63086 0.72421,5.49086 1.46618,12.03794 2.19336,19.25196 0.72719,7.21402 1.43899,15.09446 2.10547,23.25195 1.33296,16.31498 2.48142,33.73773 3.18946,49.14844 0.30679,6.67756 0.7539,12.9574 1.36914,19.00781 0.61523,6.05041 1.39928,11.87161 2.38086,17.63477 0.98157,5.76315 2.16057,11.46741 3.5664,17.2832 1.40583,5.81578 3.0378,11.74286 4.92578,17.95117 1.42581,4.6885 2.69853,8.47997 4.07227,11.71875 0.68687,1.61939 1.39843,3.09984 2.16797,4.48633 0.76953,1.38649 1.59572,2.67803 2.51172,3.91797 0.91599,1.23994 1.92258,2.42963 3.04882,3.60937 1.12625,1.17975 2.37316,2.35074 3.77344,3.55664 2.80056,2.41181 6.21274,4.96155 10.49219,7.9961 3.56156,2.52549 6.22859,4.41792 8.55664,5.94531 2.32805,1.52739 4.31628,2.69053 6.52344,3.75781 2.20715,1.06728 4.63316,2.03843 7.83203,3.1836 3.19886,1.14516 7.17142,2.46355 12.47461,4.22461 6.178,2.05155 11.80294,3.7323 17.20508,5.1289 5.40213,1.3966 10.58145,2.50906 15.87109,3.42188 4.1957,0.72404 9.10547,1.72029 13.63672,2.74218 4.53125,1.0219 8.68398,2.06943 11.36328,2.89649 7.88582,2.43423 12.65098,3.8748 17.20508,5.11328 4.5541,1.23848 8.89715,2.27489 15.9414,3.90039 7.37117,1.70095 19.07117,4.78887 26,6.86328 8.07979,2.41899 14.64362,4.15639 20.66797,5.41406 3.01218,0.62884 5.88968,1.1379 8.75391,1.55274 2.86423,0.41484 5.71554,0.7346 8.67578,0.98633 3.56531,0.30317 16.5067,0.53447 34.11133,0.6914 17.60463,0.15693 39.8727,0.2386 62.09179,0.2461 22.21911,0.007 44.38815,-0.06 61.79688,-0.20508 17.40873,-0.14514 30.05695,-0.36702 33.23047,-0.66797 4.11976,-0.39068 9.32589,-1.24629 15.22265,-2.46094 5.89677,-1.21465 12.48421,-2.78865 19.36719,-4.61719 6.88299,-1.82853 14.06221,-3.91219 21.14063,-6.14453 7.07842,-2.23233 14.05599,-4.61302 20.53906,-7.03906 8.74371,-3.272 15.83557,-6.02973 21.625,-8.4707 5.78943,-2.44098 10.276,-4.5655 13.80664,-6.57032 1.76532,-1.0024 3.29202,-1.97399 4.62305,-2.9414 1.33103,-0.96741 2.4675,-1.93034 3.45117,-2.91211 0.98367,-0.98177 1.81385,-1.98381 2.53711,-3.0293 0.72325,-1.04548 1.3389,-2.1344 1.88867,-3.29297 0.73654,-1.55213 1.62602,-4.02963 2.5957,-7.14453 0.96968,-3.11489 2.02004,-6.86741 3.07422,-10.96679 1.05418,-4.09939 2.11349,-8.54714 3.10352,-13.05274 0.99002,-4.5056 1.91027,-9.0688 2.6875,-13.40234 1.72774,-9.63331 4.26487,-21.54604 5.63672,-26.47461 2.49873,-8.97708 4.38835,-16.65889 5.89062,-24.15235 0.75114,-3.74672 1.40508,-7.44787 1.99024,-11.23828 0.58515,-3.79041 1.10156,-7.67076 1.57617,-11.78125 2.20188,-19.07005 3.4312,-29.8979 4.18164,-37.39257 0.75044,-7.49468 1.02198,-11.6562 1.30469,-17.39649 0.32504,-6.6 1.25485,-19.2 2.0664,-28 0.49244,-5.33969 0.94847,-15.53307 1.36914,-30.60742 0.42067,-15.07435 0.80599,-35.02966 1.15625,-59.89258 0.41273,-29.29685 0.7973,-52.98564 1.20508,-72.2793 0.40778,-19.29365 0.83965,-34.19202 1.34766,-45.9082 0.50801,-11.71618 1.09128,-20.25001 1.80469,-26.81445 0.3567,-3.28222 0.74605,-6.07238 1.17382,-8.52149 0.42778,-2.44911 0.89426,-4.55735 1.40625,-6.47656 0.60869,-2.28169 1.1634,-5.44402 1.65235,-9.32617 0.48894,-3.88215 0.91218,-8.48469 1.25976,-13.64649 0.34759,-5.16179 0.61814,-10.88328 0.80274,-17.0039 0.1846,-6.12062 0.2832,-12.63982 0.2832,-19.39844 0,-7.07179 0.13807,-14.18025 0.39062,-21.0332 0.25256,-6.85296 0.61935,-13.45094 1.08008,-19.50196 0.46074,-6.05101 1.01413,-11.55474 1.63868,-16.2207 0.62454,-4.66596 1.32048,-8.49361 2.06445,-11.19141 0.20188,-0.73206 0.38985,-3.41629 0.5625,-7.57812 0.17265,-4.16183 0.33091,-9.80041 0.46875,-16.44336 0.27567,-13.28591 0.47514,-30.58691 0.57812,-48.10547 0.10298,-17.51856 0.10847,-35.25587 -0.006,-49.41797 -0.11432,-14.16209 -0.34837,-24.74834 -0.72461,-27.96484 -0.30014,-2.56603 -0.79668,-5.70233 -1.35351,-8.68945 -0.55683,-2.98713 -1.17396,-5.82506 -1.71875,-7.79102 -0.5448,-1.96595 -1.03952,-4.20921 -1.39844,-6.23828 -0.35892,-2.02907 -0.58203,-3.84395 -0.58203,-4.95703 0,-1.11309 -0.16036,-2.35521 -0.41992,-3.45899 -0.25956,-1.10377 -0.61833,-2.06921 -1.01172,-2.63086 -0.3934,-0.56165 -1.05275,-2.41471 -1.79688,-4.94726 -0.74412,-2.53255 -1.57301,-5.7446 -2.30859,-9.02539 -0.83657,-3.73125 -1.81773,-7.40127 -2.90625,-10.91992 -1.08851,-3.51866 -2.28501,-6.88529 -3.55273,-10.01172 -1.26773,-3.12643 -2.60627,-6.01184 -3.98047,-8.56641 -1.37421,-2.55457 -2.78346,-4.77896 -4.19141,-6.58203 -2.38239,-3.05097 -6.87304,-9.21575 -9.97851,-13.699219 -1.55274,-2.241731 -4.18516,-5.461156 -7.17579,-8.841797 -2.99062,-3.38064 -6.33945,-6.922496 -9.32421,-9.810546 -3.26565,-3.159826 -6.38558,-5.921895 -9.5879,-8.419922 -3.20231,-2.498027 -6.48766,-4.732992 -10.08593,-6.837891 -3.59827,-2.104899 -7.50939,-4.080105 -11.96289,-6.060547 -4.45351,-1.980442 -9.44878,-3.965189 -15.2168,-6.089844 -4.65157,-1.713407 -8.83206,-3.181933 -12.79492,-4.472656 -3.96286,-1.290723 -7.70733,-2.403957 -11.48828,-3.40625 -3.78095,-1.002293 -7.59924,-1.894068 -11.70508,-2.742187 -4.10584,-0.848119 -8.49998,-1.652269 -13.4375,-2.480469 -8.48346,-1.42298 -15.90846,-2.892658 -16.5,-3.267578 -0.29577,-0.187465 -4.38898,-0.438635 -10.7461,-0.691406 -6.35711,-0.252772 -14.97812,-0.507146 -24.32812,-0.703126 -18.7,-0.39195 -39.175,-1.16336 -45.5,-1.71289 -3.6215,-0.314645 -13.5408,-0.558047 -26.61328,-0.728516 -13.07248,-0.170469 -29.29814,-0.268005 -45.5332,-0.287109 z m -4.08594,17.203125 c 14.73495,-0.08544 29.29823,-0.0787 40.72461,0.03711 11.42638,0.115811 19.71587,0.340689 21.90625,0.691407 1.95285,0.312685 8.11477,0.697419 16.4707,1.064453 8.35593,0.367034 18.90586,0.716368 29.63086,0.960937 14.31259,0.326379 24.49482,0.648767 31.69531,1.029297 3.60025,0.190265 6.45607,0.396535 8.70899,0.623047 2.25291,0.226512 3.90298,0.474055 5.0957,0.751953 3.575,0.832962 10.84865,2.177609 16.16406,2.988281 5.29684,0.807841 10.71369,1.875565 16.17774,3.179688 5.46404,1.304123 10.97621,2.844779 16.45898,4.597656 5.48277,1.752877 10.93604,3.718944 16.28906,5.873047 5.35303,2.154102 10.60488,4.496107 15.67969,7.003906 5.1198,2.53003 8.52895,4.369538 11.51563,6.390625 1.49333,1.010544 2.88042,2.066563 4.32422,3.277344 1.44379,1.210781 2.94339,2.575744 4.66015,4.205078 2.26304,2.147792 4.63562,4.533581 6.63477,6.648438 1.99915,2.114856 3.62486,3.958781 4.39453,5.019531 1.53934,2.12151 6.33852,8.68233 10.66601,14.58008 2.74894,3.74639 5.07246,7.26766 7.06446,10.82422 1.99199,3.55655 3.65334,7.14921 5.07812,11.0332 1.42479,3.88399 2.61286,8.06036 3.66016,12.78906 1.0473,4.7287 1.95296,10.00893 2.8125,16.09961 0.40633,2.87932 0.93088,5.73385 1.44922,8.01367 0.51833,2.27983 1.03045,3.98495 1.41015,4.56446 0.67547,1.03088 1.29081,2.31068 1.84766,3.89453 0.55685,1.58385 1.05486,3.47269 1.5,5.7207 0.44514,2.24801 0.8374,4.85556 1.17773,7.87891 0.34033,3.02334 0.62868,6.46121 0.8711,10.37109 0.48484,7.81976 0.7814,17.52363 0.91601,29.55664 0.13461,12.03301 0.10768,26.39549 -0.0527,43.53125 -0.18774,20.05483 -0.3776,32.68534 -0.68945,41.16406 -0.15593,4.23936 -0.34223,7.44177 -0.57422,10.01367 -0.232,2.57191 -0.50958,4.51416 -0.84766,6.23633 -0.89404,4.55422 -1.63885,8.9459 -2.26562,13.58399 -0.62678,4.63809 -1.13462,9.52332 -1.55665,15.0664 -0.42202,5.54308 -0.75731,11.74253 -1.0371,19.01172 -0.2798,7.2692 -0.505,15.6074 -0.70508,25.42383 -0.36258,17.78922 -0.62578,28.02322 -1.08399,35.44336 -0.2291,3.71007 -0.50808,6.71814 -0.87109,9.61328 -0.36302,2.89514 -0.8106,5.67825 -1.38086,8.94336 -1.22753,7.02844 -2.19615,13.08206 -2.97656,19.28516 -0.78042,6.20309 -1.37323,12.55554 -1.84571,20.18164 -0.47248,7.6261 -0.82518,16.52676 -1.1289,27.82422 -0.30372,11.29745 -0.55789,24.99182 -0.83203,42.20898 -1.00205,62.93128 -1.60651,99.18463 -2.05469,119.84961 -0.22409,10.33249 -0.41016,16.76636 -0.58594,20.69141 -0.17578,3.92504 -0.34172,5.34051 -0.52929,5.63086 -0.20827,0.32236 -0.51168,2.67656 -0.83204,6.21093 -0.32036,3.53438 -0.65767,8.24893 -0.93554,13.28907 -0.53305,9.66855 -0.93577,16.01244 -1.61719,23.55859 -0.68143,7.54615 -1.64156,16.29455 -3.28906,30.76953 -1.20179,10.55889 -2.21049,17.99081 -3.5,24.80859 -0.64476,3.4089 -1.36019,6.66393 -2.20508,10.08008 -0.84489,3.41616 -1.8186,6.99314 -2.98242,11.04492 -1.88538,6.56382 -4.07319,15.56382 -4.86133,20 -2.12123,11.93967 -3.55401,19.70285 -4.8086,25.73243 -1.25458,6.02958 -2.33097,10.32556 -3.73632,15.33398 -0.84881,3.025 -1.78443,6.02675 -2.60742,8.42578 -0.823,2.39903 -1.53339,4.19533 -1.9336,4.81055 -0.45554,0.70026 -1.10233,1.38662 -2.05469,2.11719 -0.95236,0.73056 -2.21075,1.50493 -3.88671,2.38476 -3.35193,1.75967 -8.37737,3.93724 -15.98438,7.00781 -9.01639,3.63947 -17.88193,6.96201 -26.48047,9.9336 -8.59853,2.97158 -16.92968,5.59209 -24.87695,7.83008 -7.94727,2.23798 -15.51162,4.09258 -22.57422,5.53125 -3.5313,0.71933 -6.93676,1.33461 -10.20313,1.84179 -3.26636,0.50719 -6.39297,0.90655 -9.36523,1.19336 -4.98877,0.48141 -17.15283,0.83482 -32.92578,1.06446 -15.77295,0.22963 -35.15527,0.33453 -54.57813,0.31836 -19.42285,-0.0162 -38.88574,-0.15217 -54.82421,-0.40821 -15.93848,-0.25603 -28.35207,-0.63115 -33.67188,-1.12109 -3.53,-0.32511 -6.44452,-0.62671 -9.31641,-1.02735 -2.87188,-0.40063 -5.70199,-0.90016 -9.0625,-1.62304 -6.72101,-1.44577 -15.56515,-3.78291 -31.12109,-7.99805 -7.15,-1.93741 -19.3,-5.11874 -27,-7.06836 -7.7,-1.94962 -18.5,-4.88225 -24,-6.51758 -5.5,-1.63533 -14.5,-3.7523 -20,-4.70508 -8.26288,-1.43136 -13.79046,-2.50476 -19.22656,-3.89843 -5.4361,-1.39367 -10.78072,-3.10761 -18.67578,-5.81836 -6.28943,-2.15945 -10.4611,-3.72542 -14.04883,-5.42383 -1.79387,-0.84921 -3.44046,-1.7317 -5.13477,-2.73828 -1.6943,-1.00658 -3.4354,-2.13671 -5.41406,-3.48242 -4.48771,-3.05215 -7.89261,-5.392 -10.56055,-7.45899 -1.33397,-1.03349 -2.48345,-1.99852 -3.49218,-2.95117 -1.00874,-0.95265 -1.87651,-1.89291 -2.64649,-2.875 -0.76998,-0.98209 -1.44286,-2.00513 -2.06055,-3.12695 -0.61768,-1.12183 -1.18055,-2.34104 -1.73242,-3.71289 -1.10374,-2.74371 -2.16217,-6.09832 -3.52148,-10.50391 -1.5042,-4.87518 -2.88185,-9.9893 -4.11914,-15.25586 -1.23729,-5.26656 -2.33499,-10.68467 -3.27539,-16.16797 -0.9404,-5.48329 -1.72437,-11.03126 -2.33789,-16.55664 -0.61353,-5.52538 -1.05584,-11.02906 -1.3125,-16.42187 -0.65947,-13.85636 -1.91644,-32.90201 -3.19141,-49.57032 -1.27497,-16.6683 -2.56796,-30.95925 -3.30078,-35.30859 -0.46799,-2.77751 -0.89647,-6.40357 -1.28125,-10.67969 -0.38478,-4.27612 -0.72596,-9.20256 -1.02149,-14.58398 -0.59104,-10.76284 -0.99764,-23.34182 -1.19531,-36.16602 -0.19767,-12.8242 -0.18557,-25.89371 0.0586,-37.63281 0.12208,-5.86955 0.30134,-11.40575 0.54296,-16.41406 0.24163,-5.00832 0.54489,-9.48842 0.91211,-13.24219 0.80708,-8.25 1.99756,-20.625 2.64649,-27.5 0.41671,-4.41479 0.72654,-18.47853 0.95117,-44.59375 0.22463,-26.11522 0.36407,-64.28191 0.4375,-116.90625 0.0733,-52.52036 0.21175,-90.58185 0.43359,-116.48242 0.11092,-12.95029 0.24287,-22.86039 0.39844,-30.01758 0.15557,-7.15719 0.33385,-11.56133 0.53906,-13.5 0.64043,-6.05 1.59832,-16.85 2.12696,-24 0.4763,-6.44223 0.9376,-11.4734 1.86328,-19.00391 0.92568,-7.5305 2.31574,-17.56034 4.65234,-33.99609 1.32925,-9.35 2.91428,-20.6 3.52149,-25 0.62255,-4.51122 2.02013,-11.08439 3.74218,-17.92773 1.72206,-6.84335 3.7686,-13.95687 5.68946,-19.55078 0.69968,-2.03762 1.385,-3.87681 2.09375,-5.546879 0.70875,-1.670074 1.44101,-3.17089 2.23633,-4.533203 0.79531,-1.362313 1.65391,-2.584889 2.61328,-3.699219 0.95936,-1.11433 2.01979,-2.120751 3.2207,-3.046875 1.20091,-0.926124 2.5406,-1.772616 4.06055,-2.570312 1.51994,-0.797696 3.22024,-1.546346 5.13671,-2.275391 3.83295,-1.45809 8.53592,-2.838708 14.41993,-4.380859 6.46153,-1.693516 17.73205,-5.048663 25.04492,-7.455079 4.85809,-1.598631 9.03944,-2.917029 12.99414,-4.052734 3.9547,-1.135705 7.68309,-2.088213 11.63281,-2.958984 3.94973,-0.870772 8.12169,-1.65906 12.96485,-2.462891 4.84315,-0.803831 10.35718,-1.623711 16.99218,-2.558594 5.70748,-0.804193 19.43248,-3.310428 30.5,-5.570312 5.53377,-1.129942 11.63276,-2.271232 17.00196,-3.201172 5.36919,-0.92994 10.00859,-1.648529 12.62109,-1.929687 3.56915,-0.384119 12.8939,-0.710653 25.00977,-0.962891 12.11586,-0.252238 27.02285,-0.43018 41.75781,-0.515625 z"
       style="color:#000000;clip-rule:nonzero;display:inline;overflow:visible;visibility:visible;opacity:1;isolation:auto;mix-blend-mode:normal;color-interpolation:sRGB;color-interpolation-filters:linearRGB;solid-color:#000000;solid-opacity:1;fill:url(#linearGradient4750);fill-opacity:1;fill-rule:nonzero;stroke:none;stroke-width:1;stroke-linecap:butt;stroke-linejoin:miter;stroke-miterlimit:4;stroke-dasharray:none;stroke-dashoffset:0;stroke-opacity:1;color-rendering:auto;image-rendering:auto;shape-rendering:auto;text-rendering:auto;enable-background:accumulate" />
    <path
       id="path5649"
       d="m 503.62305,149.55469 c -1.66169,0.0233 -3.38177,0.76262 -4.9375,2.31836 l -2.34766,2.34765 0.43555,29.90235 0.43554,29.90234 -4.85156,-9.5 c -6.06702,-11.87786 -19.33607,-32.14961 -22.85547,-34.91797 -1.45624,-1.14548 -3.73277,-2.08203 -5.05859,-2.08203 -3.02197,0 -7.31836,4.18412 -7.31836,7.12695 0,1.2204 3.5563,7.65282 7.90234,14.29493 6.99799,10.69511 21.50761,38.12566 28.3418,53.57812 1.33787,3.025 3.17982,6.11625 4.09375,6.87109 1.02726,0.84846 1.66211,2.85289 1.66211,5.25 0,3.15578 -0.35682,3.87891 -1.91797,3.87891 -1.05502,0 -2.68322,0.29199 -3.61719,0.65039 -1.45329,0.55768 -1.53742,0.35156 -0.58203,-1.43359 1.91211,-3.57281 1.25319,-6.11308 -2.72461,-10.49024 -6.65359,-7.32159 -22.14636,-29.62602 -31.75976,-45.72656 -11.82446,-19.80364 -12.2507,-20.33398 -16.38867,-20.33398 -3.85196,0 -8.00977,4.01055 -8.00977,7.72656 0,2.46698 13.59666,25.89828 22.2832,38.40039 13.93922,20.06204 21.30352,29.61896 24.74414,32.11133 l 3.75,2.71679 -4.22265,2.24024 c -5.72539,3.03731 -11.21194,7.68214 -14.60157,12.36133 l -2.8164,3.88672 -5.60156,-10.95508 c -7.20182,-14.07947 -21.72642,-37.00275 -25.28125,-39.90039 -3.90643,-3.18425 -7.53008,-2.9046 -10.66602,0.82226 -1.42389,1.69219 -2.58789,3.64674 -2.58789,4.34375 0,0.69702 4.06853,7.52554 9.04102,15.17383 8.15512,12.54354 23.52992,41.16734 22.60742,42.08984 -0.20389,0.20389 -1.58909,-0.0909 -3.07617,-0.65625 -1.48708,-0.56539 -7.52046,-1.02734 -13.40821,-1.02734 -10.97254,0 -21.64469,2.12811 -28.53711,5.69141 -2.75325,1.42334 -2.97198,1.43053 -1.83398,0.0586 2.19285,-2.64364 0.33655,-6.41241 -7.66211,-15.55859 -4.19717,-4.79932 -9.8677,-11.41852 -12.60156,-14.70899 -2.73386,-3.29046 -9.28822,-10.48242 -14.56446,-15.98242 -9.08083,-9.46593 -22.77655,-28.13981 -29.83007,-40.67187 -3.8083,-6.76623 -9.24961,-11.82813 -12.71485,-11.82813 -3.18996,0 -7.41992,4.17141 -7.41992,7.31836 0,1.32582 0.83353,3.48521 1.85352,4.79687 1.01999,1.31168 3.15749,4.63978 4.75,7.39649 8.39632,14.53447 22.60606,33.78267 32.87109,44.52539 6.06327,6.34542 15.59589,16.92042 21.18359,23.5 5.5877,6.57959 11.28119,13.01193 12.65235,14.29492 l 2.49414,2.33203 -7.88672,7.53516 c -9.13666,8.72911 -12.43207,14.59693 -14.23047,25.33789 l -1.23047,7.35156 -9.47851,-14.73242 c -30.04301,-46.6938 -36.06493,-54.65625 -41.33399,-54.65625 -3.55955,0 -7.64453,4.08653 -7.64453,7.64844 0,1.87193 2.32882,5.76713 7.35156,12.29492 5.93538,7.7139 27.64844,41.19128 27.64844,42.62891 0,0.20437 -5.10671,-2.71134 -11.34766,-6.48047 -22.13643,-13.36899 -38.54123,-22.0918 -41.54687,-22.0918 -4.06836,0 -9.10547,4.37779 -9.10547,7.91406 0,3.41591 2.86056,6.07069 10,9.28321 3.025,1.36116 10.9,5.61472 17.5,9.45117 28.66452,16.66216 39.53892,22.97712 47.80273,27.75781 9.78757,5.6622 7.87194,3.20777 31.20508,39.94727 8.79571,13.84941 8.79749,13.85606 7.14453,16.65429 -0.90948,1.53964 -1.65234,3.25792 -1.65234,3.81836 0,2.11705 5.2437,7.17383 7.43945,7.17383 1.88897,0 2.88002,1.44048 6.02735,8.75 6.82735,15.85623 10.29325,25.63437 12.10156,34.14649 l 1.78516,8.39843 -2.42774,1.97266 -2.42578,1.9707 -0.5,-8.0957 c -0.40712,-6.59201 -0.90852,-8.50363 -2.69531,-10.28711 -3.15278,-3.14693 -8.00077,-2.91048 -10.96289,0.5332 -2.03381,2.36444 -2.3418,3.77376 -2.3418,10.72461 0,5.8009 -0.31835,7.80691 -1.15625,7.28906 -0.85223,-0.52671 -0.98769,-7.09048 -0.51367,-24.98046 l 0.64258,-24.26758 -3.0625,-2.57617 c -3.80821,-3.20444 -4.99772,-3.21761 -8.71485,-0.0899 -2.66638,2.24361 -3.02215,3.25484 -3.59765,10.25 -0.35118,4.26845 -0.91062,10.45775 -1.24414,13.75391 l -0.60743,5.99414 -4.76953,-5.41016 c -5.72955,-6.49861 -9.68558,-7.27871 -13.63476,-2.6875 -3.5213,4.09375 -2.99148,6.97992 2.37109,12.9043 2.59234,2.86394 5.82271,6.43855 7.17773,7.94531 1.35506,1.50676 2.25474,2.9484 2,3.20313 -0.25472,0.25474 -8.09756,-2.01396 -17.42773,-5.04297 -26.26292,-8.52618 -47.01987,-13.39844 -57.08203,-13.39844 -3.49642,0 -7.38086,4.21097 -7.38086,8 0,5.15752 3.39722,7.56295 11.77734,8.3418 9.91687,0.92168 21.83785,3.79059 41.0918,9.89062 17.59193,5.57346 19.92475,7.13021 5.54297,3.69727 -5.67413,-1.35441 -13.82463,-2.32089 -22.42969,-2.66016 l -13.51758,-0.5332 -3.23242,2.7207 c -4.04943,3.40737 -4.28458,7.20434 -0.65625,10.61719 2.39639,2.25408 3.57257,2.46875 16.75,3.05859 14.19533,0.63541 28.20396,3.20689 42.17383,7.74219 21.03516,6.82903 24.42535,7.28949 27.93164,3.7832 l 2.3418,-2.34179 4.26172,5.45508 c 3.06672,3.9266 3.72932,5.29295 2.36328,4.87109 -1.04393,-0.32239 -9.99844,-1.26599 -19.89844,-2.0957 -9.9,-0.8297 -22.5,-2.18892 -28,-3.02149 -5.5,-0.83257 -13.6735,-1.51653 -18.16211,-1.51953 -7.88858,-0.006 -8.24755,0.0963 -10.75,3.07031 -3.23361,3.84293 -3.23361,5.00278 0,8.84571 2.00767,2.38598 3.41085,3.08517 6.25,3.10937 2.01361,0.0172 9.06211,0.7024 15.66211,1.52344 17.41948,2.16698 37.45499,4.17399 49.57031,4.9668 l 10.57031,0.6914 2.51172,-2.98242 2.50977,-2.98438 4.91797,5.95118 c 2.70516,3.27275 5.20607,6.47817 5.55664,7.125 0.35056,0.64684 -0.52164,5.45273 -1.9375,10.67773 -2.39321,8.83172 -2.57245,11.01243 -2.56445,31 0.005,11.825 0.46514,24.05363 1.02343,27.17578 l 1.01563,5.67774 -5.58789,-3.79297 c -14.99486,-10.17654 -47.60605,-23.23716 -72.53906,-29.05078 -9.31156,-2.17117 -26.32286,-4.00986 -37.04688,-4.00586 -19.30881,0.008 -18.87057,15.20911 0.67578,23.42773 l 3.17578,1.33399 -3.25586,1.68359 c -3.98781,2.06218 -6.50118,7.3542 -5.16406,10.87109 2.12281,5.58341 4.36941,6.35457 35.56836,12.22461 19.66615,3.70016 42.41038,10.23222 61.17383,17.56836 5.67861,2.22023 10.32617,4.38584 10.32617,4.8125 0,0.42666 -2.90968,1.56502 -6.46484,2.52735 -10.7918,2.92121 -16.95717,7.99584 -29.82422,24.54687 -3.52354,4.53238 -5.94212,6.34609 -13.74414,10.3125 -8.42444,4.28283 -10.51361,4.91321 -18.9668,5.72266 -5.225,0.50034 -14.98848,0.9226 -21.69531,0.9375 -11.40121,0.0253 -12.37448,0.18173 -14.97657,2.41992 -2.2298,1.918 -2.7832,3.23672 -2.7832,6.63281 0,3.80627 0.50135,4.69242 4.91406,8.6875 5.7814,5.23424 12.36659,8.66884 34.04102,17.75391 10.0394,4.20812 17.67642,8.08929 20.5,10.41797 2.475,2.04119 6.075,4.79338 8,6.11523 1.925,1.32185 8.9,6.7626 15.5,12.0918 13.07992,10.56143 24.01927,17.78021 34.08398,22.69531 3.53911,1.17934 4.93115,1.71613 10.75977,3.46875 5.17595,1.55637 10.75041,3.12868 15.82813,4.34375 2.53885,0.60753 4.95233,1.12554 7.13085,1.50781 1.38065,0.24227 2.46058,0.31827 3.62305,0.43946 4.4628,0.33325 12.13031,0.75476 22.07422,1.05273 25.52692,0.76491 37.72976,-0.58572 54,-5.97852 5.775,-1.91413 15.225,-4.65797 21,-6.09765 4.84607,-1.20811 8.33639,-2.11448 10.2793,-2.63477 3.75527,-1.35695 5.89765,-2.25266 9.75,-3.60937 4.82767,-1.70021 5.54455,-1.93054 9.14258,-3.17578 0.004,-0.0113 -0.0317,-0.43683 -0.0273,-0.43946 0.1954,-0.11721 5.58575,-3.69448 11.97852,-7.94922 6.39277,-4.25475 20.79277,-12.23229 32,-17.72656 39.08491,-19.16114 43.978,-22.00228 53.12695,-30.85937 5.39637,-5.22423 5.75,-5.85624 5.75,-10.27149 0,-9.25972 -6.6148,-13.41491 -23.92969,-15.02929 -11.1191,-1.0367 -14.23353,-2.17759 -24.07031,-8.82813 -13.84849,-9.36282 -19.56518,-11.04891 -41,-12.08789 -9.625,-0.46653 -18.85,-1.27442 -20.5,-1.79492 l -3,-0.94531 3.05859,-0.0859 c 1.68238,-0.0473 3.93238,-0.74718 5,-1.55469 1.06762,-0.8075 3.60612,-1.4825 5.64063,-1.5 3.00634,-0.0258 4.18038,-0.66331 6.26953,-3.40234 3.47993,-4.56242 17.03383,-9.42353 31.45703,-11.28321 5.81575,-0.74987 20.47422,-3.36461 32.57422,-5.81054 12.1,-2.44594 25.825,-4.94888 30.5,-5.56055 9.41007,-1.23121 12.58562,-2.75538 14.11328,-6.77344 1.38429,-3.64096 -0.91917,-8.37393 -5.04687,-10.37304 l -3.12891,-1.51563 6.78125,-1.83398 c 12.92948,-3.49609 16.50555,-12.20987 7.02344,-17.11329 -2.74381,-1.41888 -5.30413,-1.55816 -18.01953,-0.98437 -18.76814,0.84691 -33.99089,3.45035 -53.4668,9.14258 -20.92248,6.11501 -31.85864,10.48744 -41.02344,16.40234 -7.47888,4.82683 -7.75388,4.91924 -8.38281,2.78321 -0.35768,-1.21479 -0.6952,-11.73104 -0.75,-23.36915 l -0.0996,-21.16015 2.96875,-6.33985 c 1.63269,-3.48689 4.17892,-8.44089 5.66016,-11.00781 2.64477,-4.58326 2.73715,-4.63765 5.11132,-3.08203 2.07972,1.36269 3.41943,1.42313 9.58789,0.4375 9.87822,-1.5784 30.79292,-8.55938 65.59571,-21.89648 15.87816,-6.08482 20.94577,-12.85698 13.99805,-18.70313 -1.6922,-1.42389 -3.5039,-2.58789 -4.02735,-2.58789 -0.52345,0 -4.21624,1.54957 -8.20703,3.44336 -9.59292,4.55224 -57.31089,21.63489 -65.34375,23.39258 l -4.1582,0.9082 4.69336,-6.62305 c 2.5807,-3.6425 8.66629,-13.14609 13.52343,-21.12109 4.85713,-7.975 8.9837,-14.67039 9.17188,-14.87695 0.18819,-0.20656 1.52612,1.03094 2.97266,2.75 3.36477,3.99881 6.65764,4.03152 11.12695,0.10742 4.31846,-3.79166 18.48591,-10.91216 37.61523,-18.9043 14.3947,-6.01404 22.64356,-8.58771 35.80078,-11.17187 7.02294,-1.37935 11.91016,-5.0327 11.91016,-8.9043 0,-1.18462 -1.34382,-3.4981 -2.98633,-5.14062 -2.76028,-2.76028 -3.34706,-2.93254 -7.75,-2.27735 -11.31006,1.68301 -27.85299,6.64032 -42.27344,12.66992 -16.00511,6.6922 -32.61039,14.66569 -36.99023,17.76172 -2.20346,1.55759 -1.87727,0.52608 2.75,-8.69922 2.8875,-5.75675 5.25,-11.3232 5.25,-12.37109 0,-1.27725 0.90646,-2.08886 2.75,-2.46094 12.59129,-2.5413 19.45439,-6.77874 25.72461,-15.88281 2.12109,-3.07973 4.58459,-5.59961 5.47461,-5.59961 2.53478,0 33.22644,-6.87712 36.33984,-8.14258 5.65568,-2.29879 7.24564,-7.63713 3.63867,-12.22265 -2.65924,-3.38068 -4.45619,-3.34949 -20.49023,0.35351 -17.83848,4.11974 -17.0484,4.24952 -17.69727,-2.90625 -0.62723,-6.91725 -5.08794,-16.08913 -10.26953,-21.11133 l -3.38672,-3.28125 7.48829,-3.85351 c 4.11855,-2.11932 16.58634,-9.10629 27.70703,-15.52735 11.1207,-6.42106 22.2457,-12.74176 24.7207,-14.04492 8.06119,-4.24444 9.93015,-8.54064 5.92773,-13.6289 -2.7512,-3.49759 -7.06563,-3.45129 -14.03711,0.15039 -2.96501,1.53182 -15.63845,8.75604 -28.1621,16.05468 -12.52364,7.29865 -24.85221,14.03282 -27.39649,14.96485 -2.56089,0.93812 -5.74357,3.09098 -7.13086,4.82226 -2.33758,2.91719 -2.74648,3.06041 -6.09179,2.13672 -5.51536,-1.52286 -18.86322,-0.44991 -24.23243,1.94727 -4.99582,2.23046 -11.68802,7.80936 -15.07812,12.57031 -1.16483,1.63585 -3.37483,6.60732 -4.91211,11.04688 -2.70932,7.82434 -2.92104,8.10872 -6.87891,9.27734 -3.66003,1.08067 -4.03337,1.03282 -3.5957,-0.45117 2.12177,-7.19416 4.58789,-18.54664 4.58789,-21.125 0,-2.54867 1.12171,-4.17425 5.99023,-8.68164 6.59228,-6.10329 14.25158,-17.60225 15.9043,-23.875 1.23634,-4.69246 5.12226,-8.67789 16.83399,-17.27344 10.00467,-7.34269 21.16289,-14.07774 35.77148,-21.58984 7.5546,-3.88478 9.90375,-4.78734 7.5,-2.88282 -18.50976,14.66555 -40.53584,35.53831 -43.45312,41.17969 -1.07493,2.07864 -1.44596,4.27718 -1.03711,6.13867 0.78663,3.58147 5.79504,7.95508 9.11132,7.95508 3.15108,0 7.37891,-4.18954 7.37891,-7.3125 0,-4.27861 25.41348,-27.16633 47.47461,-42.75586 18.54824,-13.10715 22.60229,-18.94654 17.02539,-24.52344 -1.375,-1.375 -2.5,-2.95159 -2.5,-3.5039 0,-2.60375 -3.2461,-6.79508 -6.00781,-7.75781 -3.14794,-1.09738 -7.19491,-0.24856 -8.44336,1.77148 -0.35444,0.57349 -10.93157,6.19747 -23.50586,12.49609 -23.68909,11.86617 -35.03297,18.42239 -45.45313,26.27344 -3.34966,2.5238 -5.12606,3.51493 -3.94726,2.20117 1.17879,-1.31376 4.23831,-5.65287 6.79883,-9.64062 4.79216,-7.46332 9.00935,-10.89641 20.58398,-16.76172 7.82843,-3.96697 29.2715,-20.63474 44.10742,-34.28516 7.35174,-6.76428 14.82969,-13.56386 16.61719,-15.10937 4.48007,-3.87356 4.54724,-8.82227 0.17188,-12.50391 -1.6922,-1.42389 -3.67675,-2.58789 -4.41016,-2.58789 -1.98154,0 -10.10609,6.70573 -23.2793,19.21289 -9.82973,9.33273 -21.49114,18.90658 -27.02539,22.18945 -2.59272,1.53798 10.43441,-17.77582 15.20899,-22.54882 5.93034,-5.92838 6.55413,-9.76243 2.19531,-13.51172 -6.74226,-5.79946 -11.12596,-2.35732 -26.31055,20.66406 -23.09148,35.00904 -23.43184,35.43203 -30.83203,38.39453 -3.5695,1.42897 -7.62484,2.59961 -9.01172,2.59961 -6.41229,0 -12.26287,4.81445 -11.12695,9.1582 0.36761,1.40576 0.18212,1.68682 -0.66016,1 -2.07611,-1.69289 -11.90061,-4.1582 -16.56836,-4.1582 l -4.5332,0 5.02148,-5.25 c 8.40168,-8.78243 22.47198,-25.49146 33.89258,-40.25 5.95849,-7.7 12.90022,-16.27749 15.42578,-19.06055 2.52555,-2.78307 9.50188,-12.21989 15.50391,-20.9707 6.00204,-8.75081 12.41454,-17.32753 14.25,-19.05859 4.25111,-4.00931 4.37775,-7.52459 0.41406,-11.48828 -3.60862,-3.60863 -6.96618,-3.72704 -10.93359,-0.38868 -1.65569,1.39316 -7.95733,9.83066 -14.00391,18.75 -6.04657,8.91933 -14.35291,20.13336 -18.45898,24.91993 -4.10607,4.78657 -12.3259,15.01091 -18.26563,22.72265 -5.93973,7.71174 -10.94885,13.87342 -11.13086,13.69141 -0.18201,-0.18201 1.29771,-4.10831 3.28711,-8.72461 1.9894,-4.6163 4.94112,-11.99258 6.56055,-16.39258 1.61942,-4.4 6.53312,-15.49873 10.91992,-24.66406 12.05944,-25.19576 12.99724,-28.87972 8.49414,-33.38281 -4.70849,-4.7085 -10.10753,-2.53854 -13.05078,5.24414 -0.99891,2.64138 -5.40326,12.45273 -9.78906,21.80273 -4.38579,9.35 -9.91373,21.95 -12.2832,28 -2.36948,6.05 -8.40641,20.9 -13.41602,33 -5.00961,12.1 -10.88754,26.38638 -13.0625,31.74805 -2.17495,5.36167 -5.52722,11.80821 -7.44922,14.32617 -1.922,2.51796 -3.49414,5.06843 -3.49414,5.66797 0,0.59911 -0.22557,0.86622 -0.5,0.5918 -0.82423,-0.82424 2.17076,-19.80597 4.36133,-27.64258 9.04083,-32.34287 26.64218,-70.29549 34.4707,-74.32618 7.23982,-3.72758 8.66646,-9.00562 3.58985,-13.27734 -3.48447,-2.93199 -5.81505,-3.21264 -9.75391,-1.17578 -3.63165,1.878 -11.25363,10.1188 -15.48828,16.74414 -4.34211,6.79348 -13.46637,24.89714 -15.65625,31.06641 l -1.67578,4.72265 -1.71289,-5.43554 c -1.16427,-3.6935 -3.35306,-7.22897 -6.82813,-11.03125 -5.65461,-6.18704 -9.70119,-8.59417 -17.55078,-10.44141 -4.97117,-1.16986 -5.21267,-1.37323 -4.60938,-3.88672 1.84282,-7.67773 15.05149,-43.3982 20.57813,-55.65039 2.48091,-5.5 4.85148,-11.09447 5.26758,-12.43164 0.41611,-1.33717 1.59965,-3.81217 2.6289,-5.5 2.45894,-4.03234 2.36519,-5.89186 -0.46289,-9.17969 -3.57827,-4.15999 -8.13044,-3.76506 -12.30859,1.06836 -1.80241,2.08507 -3.80668,5.42193 -4.45508,7.41602 -0.64839,1.99409 -3.64294,9.25195 -6.65234,16.12695 -3.00941,6.875 -6.94078,16.775 -8.73828,22 -1.79751,5.225 -4.25132,11.95521 -5.45313,14.95703 -1.20181,3.00183 -3.25576,9.07683 -4.56445,13.5 -2.16251,7.30899 -2.38905,7.67831 -2.46875,4.04297 -1.28014,-58.42105 -2.19937,-86.86817 -2.92578,-90.46484 -0.958,-4.74337 -3.76144,-7.63108 -6.88672,-7.97266 -0.2344,-0.0256 -0.46965,-0.0365 -0.70703,-0.0332 z m 88.39453,43.63672 c -2.72789,0 -4.45027,1.28119 -11.3125,8.41601 -7.91888,8.23345 -26.33299,31.1818 -30.48242,37.98828 -2.67657,4.39048 -2.63652,5.13564 0.49023,8.85157 5.40946,6.42878 8.17568,4.57098 24.4375,-16.42188 5.1126,-6.6 12.67471,-15.74855 16.80273,-20.33008 5.79274,-6.42908 7.50391,-9.01017 7.50391,-11.30664 0,-3.96225 -3.34371,-7.19726 -7.43945,-7.19726 z m -65.05078,77.48047 c 0.64945,0.008 1.27228,0.0271 1.86914,0.0566 7.1623,0.35401 10.67649,2.30394 13.81445,6.83203 2.42218,3.49521 2.82519,5.24297 3.48438,15.10547 0.94661,14.16292 -0.40555,39.47497 -2.35743,44.14648 -1.28148,3.06702 -2.44033,3.87003 -9.52343,6.60156 -9.15666,3.53119 -14.31853,3.8451 -21.64258,1.3125 -7.50327,-2.59457 -13.28681,-6.3163 -21.19141,-13.63476 -7.89375,-7.3084 -11.28131,-12.38256 -13.68554,-20.49805 -1.96671,-6.63852 -2.09183,-17.981 -0.2461,-22.39844 3.86648,-9.2538 20.49191,-15.97674 42.84766,-17.32617 2.48964,-0.15028 4.68251,-0.22127 6.63086,-0.19726 z m -93.70508,35.46484 c 11.20099,-0.13055 12.61683,0.63381 16.49414,8.88867 3.04047,6.47323 3.2305,15.89082 0.42969,21.38086 -2.24409,4.39879 -6.67048,8.97852 -13.06055,13.51172 -3.71257,2.63375 -4.55427,3.82105 -4.80469,6.78515 -0.24573,2.90875 0.20827,3.99501 2.38477,5.70704 3.57489,2.81201 5.94515,2.6565 11.91992,-0.78125 6.95008,-3.99893 14.10099,-11.50383 17.71875,-18.59766 2.93191,-5.74902 3.09593,-5.89214 4.01953,-3.5 1.70307,4.41101 10.76767,35.18265 13.28516,45.09961 l 2.4375,9.60742 -3.98242,4.1875 c -5.22562,5.49327 -8.0265,11.1521 -8.6875,17.55664 -0.49466,4.79281 -0.31901,5.37531 2.2207,7.37305 1.51653,1.1929 3.73762,2.16992 4.93555,2.16992 2.62121,0 6.90542,-4.36282 8.34765,-8.5 0.93654,-2.68652 1.0543,-2.75563 1.125,-0.64844 0.0484,1.44091 -1.5925,4.21222 -4.23242,7.14844 -3.42097,3.80495 -4.85759,6.62221 -6.96094,13.64649 -4.13701,13.81574 -4.39462,17.46466 -1.47461,20.85937 1.73013,2.0114 3.35755,2.82617 5.64453,2.82617 4.61346,0 7.19099,-3.10102 8.74024,-10.51953 1.1725,-5.61444 1.25492,-3.41263 0.75586,19.89844 l -0.56055,26.21289 2.53906,2.53711 c 3.00219,3.0022 6.52773,3.24976 9.69922,0.68164 2.91153,-2.35761 3.54188,-7.13845 4.50196,-34.14258 l 0.72851,-20.5 4.09961,0.33008 4.09961,0.33008 -0.34961,26.03906 c -0.33443,24.88345 -0.26016,26.1601 1.67773,28.78125 l 2.02735,2.74219 -10.17774,0.69531 c -5.59786,0.38253 -12.20273,1.12393 -14.67773,1.64648 -2.475,0.52256 -5.50361,1.17839 -6.73047,1.45704 -1.79032,0.40656 -2.49873,-0.13797 -3.58594,-2.75782 -2.58858,-6.23765 -5.59522,-17.3071 -6.72656,-24.76367 -2.00359,-13.2055 -8.62018,-37.95579 -15.29101,-57.19727 -3.56504,-10.28302 -6.75967,-19.14452 -7.09766,-19.6914 -0.3853,-0.62343 0.67348,-0.78448 2.83594,-0.4336 2.80744,0.45559 3.92668,0.0811 6.02148,-2.01367 1.41541,-1.41541 2.5818,-3.60664 2.5918,-4.86914 0.0347,-4.58905 2.97005,-16.07631 5.44531,-21.30859 1.91206,-4.04175 2.31571,-5.93925 1.64063,-7.71484 -1.27252,-3.34697 -3.74464,-5.10547 -7.17774,-5.10547 -6.33513,0 -11.74945,9.21331 -14.29687,24.33203 l -1.22266,7.25586 -4.21875,-9.37696 c -2.3203,-5.15765 -4.21115,-9.90045 -4.20312,-10.53906 0.0174,-1.34597 -5.63776,-6.33789 -7.17969,-6.33789 -0.57269,0 -2.62476,-1.39215 -4.56055,-3.0918 -3.76827,-3.30859 -3.42595,-3.29776 -14.07617,-0.44726 l -6.33008,1.69531 -5.5293,-2.79687 c -6.03546,-3.05366 -11.1796,-8.39405 -14.30468,-14.84961 -6.56412,-13.55965 4.34776,-30.01276 24.95507,-37.62891 7.24294,-2.67688 10.00551,-3.17433 18.17774,-3.26953 z m 192.74023,29.38867 c 1.16734,0 2.12305,0.42191 2.12305,0.93945 0,1.73246 -1.76073,2.05382 -3.00977,0.54883 -1.02837,-1.23911 -0.87954,-1.48828 0.88672,-1.48828 z m -30.38867,5.80664 c 0.4927,-0.006 0.98281,-10e-4 1.46875,0.0137 11.66262,0.36157 21.2603,6.7906 23.50781,17.02344 0.54436,2.47844 0.2875,3.77203 -1.04296,5.24219 -1.01833,1.12521 -1.84287,3.7594 -1.94532,6.21875 -0.0977,2.34651 -0.75569,5.34657 -1.46289,6.66797 -2.17894,4.07139 -10.26674,12.11489 -14.19922,14.12109 -5.07056,2.58681 -9.61387,2.40656 -13.97461,-0.55664 -4.71087,-3.20112 -11.43323,-13.33086 -13.44922,-20.26562 l -1.59179,-5.47071 3.10156,-3.19922 c 1.70492,-1.75903 3.09961,-3.9476 3.09961,-4.86328 0,-3.26067 4.13436,-12.64661 5.80273,-13.17383 3.63195,-1.14772 7.23663,-1.71477 10.68555,-1.75781 z m -106.82617,8.3125 c 0.50556,0.0352 1.98338,0.89491 3.56055,2.0957 4.45192,3.38953 10.16674,6.19713 16.92382,8.31446 5.27306,1.65232 5.68186,2.00693 6.20899,5.36914 0.31044,1.98006 0.87893,17.66406 1.26172,34.85156 0.38279,17.1875 0.49046,31.25 0.24023,31.25 -0.25022,0 -2.90786,-1.2258 -5.90625,-2.72266 -2.9984,-1.49686 -5.55307,-2.76194 -5.67773,-2.81054 -0.12467,-0.0486 -0.68885,-3.43534 -1.25391,-7.52735 -0.56505,-4.092 -1.29593,-8.71641 -1.62305,-10.27734 -0.55465,-2.64666 -0.44951,-2.76165 1.54297,-1.69531 2.66862,1.42821 5.08825,0.69468 8.02344,-2.42969 2.02227,-2.1526 2.2036,-3.05058 1.59375,-7.93164 -0.75563,-6.04784 -3.37854,-10.2364 -6.82617,-10.90234 -1.62727,-0.31432 -1.37128,-0.46896 0.94726,-0.56836 3.64031,-0.15602 7.32227,-4.02427 7.32227,-7.69336 0,-5.24049 -8.98788,-11.45719 -18.84375,-13.03321 -4.09499,-0.65481 -4.15843,-0.72874 -6.11133,-7.23828 -1.08518,-3.61716 -1.77717,-6.77361 -1.53711,-7.01367 0.03,-0.03 0.0821,-0.0421 0.1543,-0.0371 z m 52.91016,7.99414 c 0.11527,-0.0147 0.22167,-0.0154 0.31835,0 0.11051,0.0176 0.20933,0.0556 0.29688,0.11328 0.70044,0.46171 0.69049,2.22322 0.33203,5.52344 -0.96966,8.92733 -1.3395,9.96673 -3.75976,10.61523 -5.1787,1.38769 -6.46788,0.8249 -7.11915,-3.11523 -1.03267,-6.24768 -0.78671,-8.25 1.01368,-8.25 0.91058,0 3.13087,-1.125 4.93359,-2.5 1.90425,-1.45243 3.17748,-2.28374 3.98438,-2.38672 z m 15.95312,12.07227 c 0.1476,-0.17263 1.24312,2.61208 2.43359,6.18945 2.79438,8.3971 8.29239,16.77494 15.375,23.42188 6.37147,5.97955 10.83592,8.20312 16.4668,8.20312 2.126,0 4.12226,0.25507 4.43555,0.56836 0.78271,0.78271 -4.34906,20.11104 -9.67188,36.43164 -2.42159,7.425 -4.77945,15.23966 -5.24023,17.36719 l -0.83789,3.86914 -1.29688,-3.58789 c -1.59557,-4.41249 -10.92624,-17.65246 -16.49023,-23.39844 -2.26346,-2.3375 -5.05603,-4.25 -6.20508,-4.25 -1.94737,0 -2.0647,-0.4582 -1.73633,-6.75 0.19376,-3.7125 0.43957,-7.38903 0.54688,-8.16992 0.10731,-0.78088 3.47702,2.47832 7.48828,7.24219 7.85353,9.32706 10.78748,10.98537 15.125,8.55078 3.88426,-2.18018 4.90095,-6.19821 2.63476,-10.40625 -3.0501,-5.66371 -19.33722,-23.37598 -22.14257,-24.08008 l -2.54688,-0.63867 0.69727,-15.125 c 0.38341,-8.31845 0.81723,-15.26487 0.96484,-15.4375 z m -163.40039,4.96289 5.1875,2.41601 c 6.14121,2.85931 14.76249,3.22503 22.27734,0.94532 2.69991,-0.81904 4.96957,-1.494 5.04297,-1.5 0.0734,-0.006 0.36395,1.00273 0.64649,2.24023 0.28254,1.2375 3.22259,8.1 6.5332,15.25 11.27634,24.3538 22.79378,61.72615 28.57812,92.73242 0.89608,4.80329 2.89821,12.50547 4.44727,17.11524 l 2.81641,8.38086 -4.88477,1.75586 c -2.68614,0.96592 -8.15081,3.88896 -12.14453,6.49609 -3.99372,2.60713 -8.17344,5.89865 -9.28711,7.31445 l -2.02539,2.57422 -6.0957,-6.18359 -6.09766,-6.18555 2.04297,-2.48828 c 1.58756,-1.93364 1.93616,-3.44902 1.55859,-6.79883 -0.47306,-4.19692 -0.43636,-4.26474 1.43164,-2.57422 1.34106,1.21364 3.60607,1.73633 7.52344,1.73633 4.87046,0 5.91421,-0.36014 7.96484,-2.74414 1.29783,-1.5088 2.35938,-3.5842 2.35938,-4.61133 0,-2.33769 -4.68575,-8.01953 -6.61328,-8.01953 -1.8892,0 -2.83927,-2.77359 -4.36914,-12.75977 l -1.26563,-8.25781 2.62305,-2.06445 c 3.22462,-2.53649 3.42929,-6.42111 0.625,-11.91797 -1.1,-2.15618 -2,-4.80502 -2,-5.88477 0,-2.86144 -4.79417,-8.11523 -7.4043,-8.11523 -1.57379,0 -2.73128,-1.06278 -3.95312,-3.625 -1.56006,-3.27149 -1.57841,-3.78902 -0.18555,-5.32812 3.28222,-3.62681 0.82204,-9.34224 -6.06445,-14.09375 -1.15834,-0.79923 -3.09332,-3.39457 -4.30078,-5.76563 -1.20745,-2.37106 -3.68642,-6.64606 -5.50782,-9.5 -1.8214,-2.85394 -6.94391,-10.89204 -11.38476,-17.86328 L 394.25,374.67383 Z m 142.375,14.85156 4.5,0 0,4 c 0,2.2 -0.1125,3.93552 -0.25,3.85742 -0.1375,-0.0781 -2.14727,-1.09062 -4.46484,-2.25 -5.90616,-2.95458 -5.80394,-5.60742 0.21484,-5.60742 z m 117.45508,17.87891 c 12.51411,-0.0326 22.66197,8.72296 24.52734,21.16211 0.61582,4.1066 0.40615,4.77849 -2.43359,7.75 -2.40809,2.51984 -3.05769,4.02502 -2.87891,6.67968 0.25412,3.77339 -1.8546,6.7963 -6.36914,9.13086 -3.49514,1.80741 -7.77708,1.7308 -10.30078,-0.18359 -1.53064,-1.1611 -3.42337,-1.36472 -8.06055,-0.87109 -5.64131,0.60052 -6.28728,0.45112 -9.39062,-2.16016 -7.54367,-6.34759 -9.26557,-18.24581 -4.17969,-28.88672 4.61267,-9.65087 9.06469,-12.59499 19.08594,-12.62109 z m -120.89063,3.73242 c 0.23422,0.0288 0.52046,0.16691 0.86914,0.35351 1.06384,0.56935 2.76284,1.03516 3.77539,1.03516 1.69802,0 1.81078,0.83034 1.44532,10.70313 -0.32216,8.70286 -0.76829,11.20812 -2.38477,13.39453 -1.61569,2.18533 -1.86787,3.5982 -1.3457,7.54492 0.35342,2.67118 0.6085,7.10742 0.5664,9.85742 -0.0421,2.75 -1.18095,10.175 -2.52929,16.5 l -2.45117,11.5 0.49414,-24.41211 c 0.27206,-13.42656 0.49609,-29.52986 0.49609,-35.78516 0,-8.20089 0.0421,-10.47679 0.84766,-10.68164 0.0671,-0.0171 0.13872,-0.0193 0.21679,-0.01 z m 72.59766,26.56445 c 0.32748,0.0867 1.38748,0.96561 2.55859,2.13672 1.3384,1.3384 4.00106,3.0002 5.91797,3.69336 2.67431,0.96704 4.14613,2.52155 6.32422,6.68164 3.46726,6.62239 11.39959,13.79711 17.7793,16.08008 5.4705,1.95761 5.47108,1.78984 0.084,12.54297 -5.76971,11.51685 -30.93004,52.32293 -39.97656,64.83789 -4.71141,6.51776 -8.73414,11.85156 -8.93945,11.85156 -0.20531,0 -0.64644,-1.2375 -0.98047,-2.75 -1.79295,-8.1186 -5.04071,-15.84333 -8.50391,-20.22461 -6.76372,-8.55675 -26.24456,-23.3549 -34.1543,-25.94531 -3.53337,-1.15717 -3.6523,-1.33376 -2.30078,-3.40039 0.7841,-1.19899 1.73827,-5.23103 2.11914,-8.95899 0.38088,-3.72796 1.0136,-6.97607 1.40625,-7.21875 0.39266,-0.24268 2.41135,2.02434 4.48633,5.03711 7.57487,10.99838 13.24372,13.82465 18.0625,9.00586 3.76962,-3.76961 3.09894,-6.42567 -4.04492,-16.00781 -4.40317,-5.90601 -6.5,-9.62827 -6.5,-11.53906 0,-2.62589 -3.85712,-7.11708 -7.01562,-8.16992 -1.25304,-0.41768 -0.21693,-13.82813 1.06835,-13.82813 1.1285,0 7.95943,9.45982 11.44727,15.85352 1.65,3.02464 4.26177,6.42572 5.80469,7.55859 2.68375,1.97054 2.93245,1.98677 5.75781,0.36523 l 2.95508,-1.69531 -0.61719,2.70899 c -0.3391,1.48964 -1.72584,6.98398 -3.08203,12.20898 -1.35619,5.225 -3.04818,11.78082 -3.75977,14.56836 -0.7116,2.78755 -1.80294,6.01979 -2.42578,7.18359 -2.21507,4.13889 -1.40073,8.84461 2.03125,11.73243 1.75593,1.47752 3.94106,2.45849 4.91016,2.20507 1.31743,-0.34452 1.89326,0.32855 2.3457,2.74024 0.32986,1.75831 2.11359,4.66462 3.96289,6.45703 4.16363,4.03553 8.84812,4.05262 11.82617,0.0449 1.58264,-2.12982 1.78589,-3.48443 1.19336,-7.95117 -0.81043,-6.10931 -3.82563,-9.98047 -7.77343,-9.98047 -3.16454,0 -3.63516,-1.57498 -1.83789,-6.15039 l 1.44531,-3.68359 4.63281,1.40625 c 6.5369,1.98398 8.86981,1.77863 11.67578,-1.02735 5.04043,-5.04042 1.86808,-11.41184 -6.96094,-13.97851 l -5.37304,-1.5625 1.05273,-4.14649 1.05274,-4.14648 15.89257,0.55273 c 15.43481,0.53562 15.96818,0.48529 18.50782,-1.69922 3.62673,-3.11958 3.58142,-8.05133 -0.10547,-11.22265 -2.58063,-2.21977 -3.46963,-2.3418 -17.03711,-2.3418 l -14.3125,0 1.26367,-5.43945 c 1.03053,-4.43321 7.23115,-23.22081 8.04297,-24.3711 0.0151,-0.0213 0.047,-0.0261 0.0937,-0.0137 z m -190.8125,56.41797 c 1.01587,0.0383 1.15039,0.76383 1.15039,3.04492 0,1.84873 -0.19409,3.36133 -0.43164,3.36133 -0.23754,0 -1.35805,-1.29946 -2.48828,-2.88672 l -2.05469,-2.88672 2.48633,-0.47461 c 0.56255,-0.10754 0.99927,-0.17098 1.33789,-0.1582 z m 283.51367,7.40625 c -3.25154,0 -26.24373,6.89472 -41.83008,12.54492 -6.75706,2.4495 -13.87611,4.45508 -15.82031,4.45508 -4.80206,0 -9.17922,4.92418 -8.29687,9.33594 0.70319,3.51594 2.25636,5.57904 5.04882,6.71094 3.52773,1.42992 5.1659,1.07866 20.7793,-4.45313 8.38998,-2.97254 19.98086,-6.83843 25.75586,-8.5918 17.69821,-5.37343 21,-7.35242 21,-12.58984 0,-3.22706 -3.74724,-7.41211 -6.63672,-7.41211 z m -172.82422,17.70508 c 3.25391,0.007 5.93613,0.12693 7.53711,0.38476 8.00082,1.28849 11.60181,3.00344 20.57422,9.79688 15.1275,11.45376 17.85065,15.9678 20.87891,34.61328 2.19868,13.53765 1.98267,16.57914 -1.49024,20.94922 -1.62825,2.0489 -3.25069,4.63998 -3.60547,5.75781 -0.75474,2.37796 2.12077,6.79114 5.39453,8.2793 2.09168,0.95081 2.17201,1.55788 2.19141,16.5 0.0111,8.53208 0.44303,18.43343 0.95899,22.0039 0.59462,4.11474 0.58587,6.84382 -0.0215,7.45118 -0.61096,0.61096 -0.95703,0.0176 -0.95703,-1.63672 0,-1.42707 -0.94127,-5.67879 -2.0918,-9.44922 -1.79666,-5.88789 -2.97339,-7.72384 -8.33984,-13 -5.34861,-5.25862 -8.75497,-7.37266 -23.6582,-14.6875 -24.99585,-12.26852 -27.56211,-13.00795 -42.91016,-12.36524 -18.09142,0.75763 -34.80323,5.69446 -49.5,14.62305 l -6.24414,3.79492 -0.62891,-6.00781 c -0.80452,-7.69719 -0.79546,-33.06749 0.0137,-37.96289 0.43861,-2.65356 1.12825,-3.75 2.35547,-3.75 0.95387,0 2.91997,-0.9343 4.36914,-2.07422 3.08604,-2.42748 3.44216,-6.38596 1.15821,-12.85937 -1.40429,-3.98018 -1.36119,-4.3623 0.87109,-7.875 3.21713,-5.06246 5.2255,-6.69134 13.19141,-10.69922 l 6.875,-3.45899 1.32617,2.5293 c 1.65845,3.16526 5.41459,4.69059 8.58203,3.48633 3.12701,-1.18889 6.63086,-5.74027 6.63086,-8.61328 0,-1.97287 0.76166,-2.45232 5.44141,-3.42383 6.41465,-1.33168 21.33592,-2.32714 31.09765,-2.30664 z m -158.13281,88.29492 c 1.94813,0 23.15446,8.22266 32.18555,12.48047 12.24832,5.77461 21.1441,11.47523 26.26953,16.83203 1.84921,1.9327 3.19921,3.92551 3,4.42969 -0.19922,0.50418 -4.18633,-0.85305 -8.86133,-3.01758 -8.48247,-3.9274 -34.45231,-12.84994 -47.26758,-16.24023 -6.22459,-1.64673 -6.64512,-1.9252 -5.25,-3.4668 1.75119,-1.93504 1.98251,-6.28103 0.48242,-9.08399 -0.56936,-1.06384 -0.8215,-1.93359 -0.55859,-1.93359 z m 135.09375,1.70508 c 7.89389,-0.0294 9.98321,0.36552 17,3.21875 12.71822,5.17161 31.54915,15.12434 35.68555,18.86133 4.41177,3.98577 5.38414,7.04642 6.33789,19.92773 0.43502,5.87533 1.18128,9.62737 2.05859,10.35547 0.98443,0.81701 1.09702,1.66175 0.39649,2.9707 -0.53845,1.00609 -0.97852,3.79596 -0.97852,6.19922 0,3.618 0.55901,4.90967 3.25,7.51367 6.31196,6.10793 11.233,7.43434 31.21289,8.41211 20.207,0.98888 25.38208,2.12081 34.03711,7.44532 3.3,2.03013 8.475,5.2175 11.5,7.08203 6.54436,4.03379 12.88324,5.93328 22.85938,6.85351 l 7.35937,0.67969 -2.00195,2 c -2.25795,2.25795 -15.29943,9.12825 -45.09375,23.75195 -11.2073,5.50079 -25.09241,13.21191 -30.85547,17.13477 -13.06131,8.89071 -22.1129,12.84542 -39.85156,17.41406 -7.65457,1.97146 -17.74102,4.87346 -22.41602,6.44922 -4.675,1.57575 -11.73606,3.35135 -15.69141,3.94531 -13.60589,2.04313 -61.13639,0.68284 -67.10547,-1.91992 -1.26337,-0.55089 -3.1729,-1 -4.24218,-1 -3.13369,0 -15.74415,-5.93023 -25.51367,-11.99805 -4.9785,-3.09213 -14.92084,-10.32049 -22.09571,-16.0625 -26.52592,-21.22857 -26.93715,-21.49715 -42.82812,-28.16015 l -14.97461,-6.2793 8.47461,-0.66211 c 9.40817,-0.7349 15.3033,-2.47326 24.97656,-7.36328 9.91716,-5.01332 14.47244,-8.78086 20.55078,-17 9.65393,-13.05405 10.41475,-13.58757 27.26953,-19.07422 l 15.05664,-4.90039 5.8125,2.74609 c 7.12982,3.37029 7.41719,3.37436 11.23243,0.16407 3.07159,-2.58458 4.26548,-7.55769 2.13085,-8.87696 -0.5203,-0.32156 -0.87095,-2.42473 -0.78125,-4.67382 0.13561,-3.40072 -0.33721,-4.51932 -2.80468,-6.64063 -2.126,-1.82773 -2.99772,-3.50518 -3.07422,-5.91797 -0.0639,-2.01535 -1.02252,-4.34267 -2.38867,-5.79687 -2.1614,-2.30071 -2.19599,-2.56125 -0.65821,-4.90821 2.28814,-3.49213 9.2844,-8.07992 19.97657,-13.09961 12.13832,-5.69862 24.68782,-8.74821 36.17773,-8.79101 z m 160.23242,11.72265 c 1.28566,-0.0361 1.26758,0.56126 1.26758,1.61915 0,1.14664 0.44745,2.92213 0.99609,3.94726 0.89468,1.67172 0.40498,1.98216 -4.75,3.01367 -3.16114,0.63253 -8.67109,1.818 -12.24609,2.63282 -3.575,0.81481 -11.53725,2.11371 -17.69336,2.88671 -6.1561,0.77299 -12.3436,1.6939 -13.75,2.04688 -1.40639,0.35298 -2.55664,0.37411 -2.55664,0.0469 0,-1.32424 17.45715,-7.67329 34.5,-12.54687 7.79665,-2.22954 11.67182,-3.33972 13.59766,-3.5918 0.24073,-0.0315 0.4511,-0.0495 0.63476,-0.0547 z"
       style="fill:url(#linearGradient5694);fill-opacity:1" />
    <path
       id="path5681"
       d="m 502.81445,627.54297 c -1.93702,-0.1064 -3.45993,0.73919 -5.27539,2.30078 -1.89644,1.63126 -2.72748,3.34808 -2.80468,5.78711 -0.0974,3.07649 -1.31272,4.57069 -10.78321,13.25976 -5.87056,5.38617 -11.38306,11.28829 -12.25,13.11524 -3.05702,6.44219 -2.10902,12.46838 5.51367,35.01953 7.59523,22.46994 14.25782,37.81234 17.76758,40.91602 3.01187,2.66339 7.99123,2.48844 10.29883,-0.36133 2.64235,-3.26316 2.28648,-7.23308 -1.27734,-14.29297 -3.2749,-6.48753 -15.67131,-40.79041 -17.74805,-49.11133 -1.38373,-5.54425 -1.57083,-5.1804 6.6875,-13.07031 2.92537,-2.79486 6.64732,-5.64782 8.27148,-6.3418 1.62416,-0.69399 3.76166,-2.59161 4.75,-4.21679 l 1.79688,-2.95508 7.93164,6.27539 c 9.47424,7.49753 18.64205,17.39697 21.41211,23.11914 1.90005,3.92498 1.92738,4.46974 0.49609,9.96484 -0.83279,3.19729 -2.53133,7.89683 -3.77344,10.44336 -4.60279,9.4366 -26.06501,50.69919 -27.36132,52.60352 -2.27004,3.33477 -1.67805,8.11611 1.29297,10.45312 5.75466,4.52662 9.98591,1.84591 16.45117,-10.42578 15.16144,-28.7779 26.98074,-52.83433 28.43554,-57.87891 1.08484,-3.7617 1.55255,-8.12096 1.29883,-12.10546 -0.33891,-5.32255 -1.04539,-7.22738 -4.85937,-13.1211 -5.91208,-9.13592 -17.09542,-20.30534 -29.84766,-29.80859 -8.81414,-6.5685 -13.19546,-9.39103 -16.42383,-9.56836 z"
       style="fill:url(#linearGradient4706)" />
    <path
       id="path5677"
       d="m 529.64062,500.52539 c 0.14882,0 0.52912,0.675 0.84571,1.5 0.39855,1.03862 -0.0677,1.5 -1.51563,1.5 -1.74534,0 -1.88477,-0.248 -0.8457,-1.5 0.68469,-0.825 1.3668,-1.5 1.51562,-1.5 z"
       style="fill:url(#linearGradient5694)" />
    <path
       id="path5675"
       d="m 518.72852,436.79492 c 0.33225,0.33229 0.36699,1.19609 0.0781,1.91797 -0.31922,0.79773 -0.55551,0.55948 -0.60352,-0.60547 -0.0434,-1.05416 0.19311,-1.64479 0.5254,-1.3125 z"
       style="fill:url(#linearGradient5694)" />
    <path
       id="path5673"
       d="m 653.64453,417.52539 c -4.54708,0 -9.51953,4.17931 -9.51953,8 0,1.9238 0.97887,3.6454 3.07617,5.41016 6.05357,5.09374 15.25586,1.83063 15.25586,-5.41016 0,-4.30539 -4.06991,-8 -8.8125,-8 z"
       style="fill:url(#linearGradient5694)" />
    <path
       id="path5671"
       d="m 346.53711,411.4668 c -3.60355,-0.20641 -7.23091,2.05277 -8.73633,6.3164 -0.98244,2.7825 0.98782,6.56518 4.54883,8.73633 4.35278,2.65389 7.34673,2.52437 10.32031,-0.44922 3.23751,-3.2375 3.18691,-7.52117 -0.13476,-11.46875 -1.68267,-1.99973 -3.83592,-3.01092 -5.99805,-3.13476 z"
       style="fill:url(#linearGradient5694)" />
    <path
       id="path5665"
       d="m 594.29102,353.47461 c -3.71722,0.0344 -7.493,2.90984 -9.5586,8.07227 -1.95137,4.87694 -1.28642,8.29996 2.13867,10.99414 2.77285,2.18113 5.41229,2.50365 8.21094,1.00586 1.769,-0.94675 8.04297,-11.03222 8.04297,-12.92969 0,-0.51613 -1.16595,-2.32344 -2.58984,-4.01563 -1.80468,-2.14473 -4.01382,-3.14761 -6.24414,-3.12695 z"
       style="fill:url(#linearGradient5694)" />
    <path
       id="path5661"
       d="m 415.10352,330.84961 c -1.94011,0.10754 -3.77856,1.04267 -5.22852,2.78906 -3.13407,3.77479 -1.76117,10.13608 2.56445,11.87891 3.61672,1.45721 5.38109,1.13275 8.60743,-1.58203 4.17654,-3.51433 4.1414,-7.3383 -0.10352,-10.91016 -1.85759,-1.56306 -3.89974,-2.28332 -5.83984,-2.17578 z"
       style="fill:url(#linearGradient5694)" />
    <path
       id="path5659"
       d="m 270.52734,320.72461 c -1.14599,0.35243 -1.11486,2.95047 -0.75,8.05078 0.32461,4.5375 1.09807,9.35578 1.71875,10.70899 1.16621,2.54253 24.79583,21.51871 37.12891,29.8164 3.85,2.59027 8.47852,5.95016 10.28516,7.4668 1.80663,1.51663 4.28163,2.77307 5.5,2.79297 1.32276,0.0215 0.20049,0.76718 -2.78516,1.84961 -6.99167,2.53481 -11.17266,5.26965 -17.27539,11.30273 -7.36103,7.27701 -10.64959,14.34116 -10.58789,22.74219 0.0265,3.61298 0.58076,8.46297 1.23242,10.77734 3.39425,12.05461 17.59174,21.85271 36.64258,25.28906 7.32755,1.32173 20.98813,0.33727 28.98828,-2.08984 3.85,-1.16802 8.23825,-2.35092 9.75195,-2.62891 1.67449,-0.30751 4.26316,-2.32179 6.61133,-5.14257 6.50074,-7.80912 7.4899,-10.53366 7.94922,-21.89844 0.3648,-9.02611 0.0929,-11.29449 -2.25781,-18.83399 -2.18047,-6.99353 -3.47518,-9.37557 -7.03125,-12.93164 -5.89674,-5.89674 -14.9466,-10.34943 -22.03516,-10.84179 -3.82861,-0.26593 -6.29938,-1.02896 -7.79687,-2.40821 -1.20572,-1.11052 -5.5698,-4.05792 -9.69922,-6.54882 -4.12943,-2.4909 -8.59683,-5.68501 -9.92578,-7.09961 -1.32895,-1.4146 -3.27922,-2.57227 -4.33594,-2.57227 -1.05673,0 -3.34127,-0.98465 -5.07617,-2.1875 -6.92599,-4.80196 -32.53175,-24.91368 -38.44336,-30.19531 -4.34029,-3.87775 -6.6626,-5.7704 -7.8086,-5.41797 z m 82.54102,72.52148 c 1.61021,-0.26903 3.00398,0.23076 6.15625,1.82813 5.92368,3.00176 7.36616,5.08082 9.33984,13.45508 2.02367,8.58639 1.92124,13.60336 -0.38086,18.67382 -1.75293,3.86089 -2.4168,4.34101 -8.72851,6.3125 -13.65475,4.26516 -28.8046,3.34936 -40.20899,-2.42968 -6.1447,-3.11375 -8.8355,-6.46634 -9.67382,-12.05664 -1.49897,-9.99582 4.39213,-17.73632 17.38671,-22.84961 6.13776,-2.41523 16.10525,-3.63923 18.97852,-2.33008 1.66801,0.75996 3.1913,0.73442 5.375,-0.0898 0.6581,-0.24841 1.21912,-0.424 1.75586,-0.51368 z"
       style="fill:url(#linearGradient5694)" />
    <path
       id="path5657"
       d="m 502.96484,289.02539 c -4.25305,0 -5.38029,0.42439 -7.42773,2.80469 -3.37577,3.92456 -3.27084,9.52164 0.25586,13.71289 1.46764,1.74419 3.60514,3.56388 4.75,4.04492 4.9492,2.07952 14.38323,-1.71537 16.05078,-6.45703 0.78558,-2.23378 0.55848,-3.51664 -1.14063,-6.44727 -3.2224,-5.55806 -6.64687,-7.6582 -12.48828,-7.6582 z"
       style="fill:url(#linearGradient5694)" />
    <path
       id="path5655"
       d="m 374.41797,188.56055 c -1.25329,0.26403 -2.58824,1.18239 -4.2168,2.55273 -2.0989,1.76611 -3.07617,3.48648 -3.07617,5.41406 0,1.55408 3.6,10.27344 8,19.375 4.4,9.10156 8,16.84718 8,17.21289 0,1.51372 13.26285,24.62272 19.39258,33.78907 3.63378,5.43394 6.60742,10.50758 6.60742,11.27343 0,0.76585 1.8569,3.40643 4.12695,5.86915 5.1221,5.55682 8.46537,5.93764 12.28321,1.40039 1.42389,-1.69219 2.58984,-3.53439 2.58984,-4.09571 0,-2.02658 -8.52609,-17.35014 -13.55078,-24.35351 -5.52761,-7.70434 -11.1566,-18.26779 -25.41406,-47.69727 -7.96269,-16.43616 -10.98232,-21.53233 -14.74219,-20.74023 z"
       style="fill:url(#linearGradient5694)" />
    <path
       id="path5653"
       d="m 463.05078,795.07227 c -1.16247,-0.12119 -2.2424,-0.19719 -3.62305,-0.43946 -2.17852,-0.38227 -4.592,-0.90028 -7.13085,-1.50781 -5.07772,-1.21507 -10.65218,-2.78738 -15.82813,-4.34375 -5.82862,-1.75262 -7.22066,-2.28941 -10.75977,-3.46875 1.42021,0.69356 2.87937,1.48795 4.26563,2.08594 l 8.65039,3.73047 0.28125,7.44726 0.2832,7.44922 -12.84179,14 c -19.85753,21.64856 -26.65649,27.03209 -44.98828,35.62891 -5.90367,2.76857 -11.85938,5.57586 -13.23438,6.23828 -5.58446,2.69036 -5.8722,9.70413 -0.54102,13.19726 3.42124,2.24168 8.68381,0.89713 21.68164,-5.53906 13.74005,-6.8037 24.65181,-14.76926 36.73243,-26.81445 l 10.37304,-10.3418 -0.71484,7.81445 c -0.39319,4.29851 -1.12324,10.01556 -1.62305,12.70313 -0.49981,2.68757 -0.9082,11.51252 -0.9082,19.61328 0,13.38639 0.18857,14.97051 2.07227,17.36523 2.7916,3.54895 7.98817,3.64238 10.70117,0.19336 1.62541,-2.06638 2.01919,-4.78791 2.5625,-17.75 0.35293,-8.42017 0.98373,-16.77533 1.40234,-18.5664 l 0.76172,-3.25586 5,6.40625 c 2.75,3.52315 9.05,10.8833 14,16.35547 4.95,5.47217 10.93391,12.26409 13.29883,15.09375 2.36491,2.82965 5.43608,5.42894 6.82422,5.77734 5.33376,1.33869 10.3329,-3.67179 8.99218,-9.01367 -0.65331,-2.60297 -11.26121,-15.6015 -24.61523,-30.16016 -4.125,-4.49711 -9.525,-11.42552 -12,-15.39648 -2.475,-3.97095 -5.9625,-9.47589 -7.75,-12.23438 -3.50892,-5.41502 -4.03852,-9.18885 -1.71875,-12.25586 1.05013,-1.3884 1.46875,-4.62965 1.46875,-11.38086 l 0,-9.43945 4.75,0.60938 c 0.41559,0.0532 3.33155,0.13617 4.17578,0.19922 z"
       style="fill:url(#linearGradient4706)" />
    <path
       id="path5651"
       d="m 589.29688,774.62891 c -3.598,1.24524 -4.31491,1.47557 -9.14258,3.17578 -3.85235,1.35671 -5.99473,2.25242 -9.75,3.60937 0.37243,-0.0997 1.81588,-0.45786 1.9707,-0.5039 1.44752,-0.43047 1.75,0.12669 1.75,3.2207 0,2.05729 0.73201,11.60077 1.62695,21.20703 1.47674,15.8509 1.48152,17.54549 0.0586,18.3418 -0.86235,0.48259 -4.37878,4.35791 -7.81446,8.61133 -12.12521,15.01119 -28.99006,33.20134 -36.38281,39.24218 -8.12748,6.6412 -9.7351,9.67905 -7.36133,13.90821 5.1804,9.22953 15.21414,2.6936 41.78125,-27.2168 5.72445,-6.44482 10.5289,-11.59612 10.67774,-11.44727 0.14885,0.14885 1.23061,9.7164 2.40429,21.25977 2.20801,21.71612 3.05039,24.75936 7.31836,26.47851 1.20543,0.48556 2.27331,0.91042 2.375,0.94532 1.12918,0.3871 5.55736,-2.37563 6.76758,-4.22266 1.40257,-2.14052 1.40948,-3.75463 0.0625,-16.29492 -2.29365,-21.35368 -3.40779,-37.61735 -2.79297,-40.78516 0.52826,-2.72183 0.7649,-2.83781 4.66797,-2.30078 8.48199,1.16705 28.75264,7.7322 38.08203,12.33399 5.6463,2.78507 12.03253,6.89991 15.34961,9.89257 5.63126,5.08053 9.13157,7.44141 11.03711,7.44141 0.54396,0 2.37224,-1.16599 4.06446,-2.58984 4.89954,-4.1227 4.27398,-7.43266 -2.67188,-14.11524 -8.78746,-8.45437 -18.93736,-14.6353 -33.51953,-20.41211 -6.59197,-2.61145 -31.27847,-8.88281 -34.96485,-8.88281 -1.52139,0 -2.76562,-0.51613 -2.76562,-1.14648 0,-0.63036 -0.72257,-9.88409 -1.60547,-20.5625 -0.86313,-10.43934 -1.38072,-18.69476 -1.22265,-19.1875 z"
       style="fill:url(#linearGradient4706)" />
  </g>
</svg>
