<?xml version="1.0" encoding="UTF-8" standalone="no"?>
<svg
   xmlns:osb="http://www.openswatchbook.org/uri/2009/osb"
   xmlns:dc="http://purl.org/dc/elements/1.1/"
   xmlns:cc="http://creativecommons.org/ns#"
   xmlns:rdf="http://www.w3.org/1999/02/22-rdf-syntax-ns#"
   xmlns:svg="http://www.w3.org/2000/svg"
   xmlns="http://www.w3.org/2000/svg"
   xmlns:xlink="http://www.w3.org/1999/xlink"
   version="1.1"
   id="svg2985"
   height="929.41846"
   width="567.66052">
  <defs
     id="defs5498">
    <linearGradient
       osb:paint="solid"
       id="linearGradient4756">
      <stop
         id="stop4758"
         offset="0"
         style="stop-color:#ffffff;stop-opacity:1;" />
    </linearGradient>
    <linearGradient
       osb:paint="solid"
       id="linearGradient4750">
      <stop
         id="stop4752"
         offset="0"
         style="stop-color:#000000;stop-opacity:1;" />
    </linearGradient>
    <linearGradient
       osb:paint="solid"
       id="linearGradient5694">
      <stop
         id="stop5696"
         offset="0"
         style="stop-color:#002b11;stop-opacity:1;" />
    </linearGradient>
    <linearGradient
       osb:paint="solid"
       id="linearGradient4712">
      <stop
         id="stop4714"
         offset="0"
         style="stop-color:#162d50;stop-opacity:1;" />
    </linearGradient>
    <linearGradient
       osb:paint="solid"
       id="linearGradient4706">
      <stop
         id="stop4708"
         offset="0"
         style="stop-color:#d40000;stop-opacity:1;" />
    </linearGradient>
    <linearGradient
       gradientUnits="userSpaceOnUse"
       y2="508.69208"
       x2="761.44257"
       y1="508.69208"
       x1="262.13925"
       id="linearGradient4716"
       xlink:href="#linearGradient4712" />
    <linearGradient
       gradientUnits="userSpaceOnUse"
       y2="500.0004"
       x2="771.30902"
       y1="500.0004"
       x1="228.69211"
       id="linearGradient4754"
       xlink:href="#linearGradient4750" />
    <linearGradient
       gradientUnits="userSpaceOnUse"
       y2="500.10483"
       x2="752.40271"
       y1="500.10483"
       x1="248.61133"
       id="linearGradient4760"
       xlink:href="#linearGradient4756" />
    <linearGradient
       y2="508.69208"
       x2="761.44257"
       y1="508.69208"
       x1="262.13925"
       gradientUnits="userSpaceOnUse"
       id="linearGradient501"
       xlink:href="#linearGradient4712" />
    <linearGradient
       y2="508.69208"
       x2="761.44257"
       y1="508.69208"
       x1="262.13925"
       gradientUnits="userSpaceOnUse"
       id="linearGradient503"
       xlink:href="#linearGradient4712" />
    <linearGradient
       y2="508.69208"
       x2="761.44257"
       y1="508.69208"
       x1="262.13925"
       gradientUnits="userSpaceOnUse"
       id="linearGradient505"
       xlink:href="#linearGradient4712" />
  </defs>
  <metadata
     id="metadata5594">
    <rdf:RDF>
      <cc:Work
         rdf:about="">
        <dc:format>image/svg+xml</dc:format>
        <dc:type
           rdf:resource="http://purl.org/dc/dcmitype/StillImage" />
        <dc:title />
      </cc:Work>
    </rdf:RDF>
  </metadata>
  <g
     transform="translate(-216.16925,-35.290529)"
     style="display:inline"
     id="layer12">
    <path
       id="path4775"
       d="m 649.88281,52.974609 c -10.48571,-0.110446 -25.39038,-0.0722 -45.96093,0.103516 -27.73966,0.23696 -42.21349,0.379784 -51.8086,0.779297 -4.79755,0.199756 -8.37487,0.464551 -11.78125,0.835937 -3.40637,0.371387 -6.64207,0.850124 -10.75391,1.480469 -9.34999,1.43335 -19.25,2.6155 -22,2.625 -1.375,0.005 -3.24336,0.174943 -5.14648,0.445313 -1.90312,0.270369 -3.84101,0.641165 -5.35352,1.046875 -3.02498,0.81142 -12.25,2.406261 -20.5,3.544922 -8.24999,1.13866 -18.82499,2.901105 -23.5,3.916015 -23.49409,5.10041 -29.98874,6.4211 -35.5,7.21875 -3.3,0.47762 -10.5,1.950148 -16,3.273438 -5.49999,1.32328 -14.94999,3.358454 -21,4.521484 -6.04999,1.16303 -13.69999,2.978283 -17,4.033203 -3.3,1.05493 -9.14999,2.810714 -13,3.902344 -4.70779,1.334845 -8.45487,2.440366 -11.75,3.560547 -3.29512,1.12018 -6.13803,2.25586 -9.04101,3.652343 -2.90298,1.396484 -5.86512,3.053038 -9.39649,5.216798 -3.53136,2.16375 -7.63221,4.83387 -12.8125,8.25586 -8.21675,5.42782 -14.68561,9.84239 -19.89257,13.79297 -2.60348,1.97529 -4.8901,3.83483 -6.92383,5.64648 -2.03373,1.81166 -3.81462,3.57619 -5.40039,5.36133 -1.58577,1.78514 -2.97672,3.59058 -4.23633,5.48633 -1.25961,1.89575 -2.38811,3.88191 -3.44336,6.02539 -1.05525,2.14348 -2.03708,4.44433 -3.00976,6.97266 -0.97269,2.52832 -1.93535,5.28368 -2.94727,8.33398 -1.42326,4.29023 -2.63387,8.37555 -3.63867,12.30273 -1.00481,3.92718 -1.80433,7.69711 -2.40625,11.35547 -0.60192,3.65837 -1.00609,7.20566 -1.22071,10.68946 -0.21461,3.48379 -0.23914,6.90318 -0.082,10.30664 0.30356,6.57552 1.1497,17.87102 2.03321,28.05468 0.88351,10.18367 1.80438,19.25552 2.25586,21.38282 0.32745,1.54292 0.98677,14.59292 1.46484,29 0.47807,14.40707 1.35235,37.18239 1.94336,50.61328 0.34707,7.88714 0.57264,19.28446 0.68945,32.14453 0.11681,12.86006 0.12448,27.18272 0.0371,40.91992 -0.0874,13.7372 -0.26968,26.88966 -0.53516,37.4082 -0.26547,10.51855 -0.61374,18.40333 -1.03124,21.60743 -0.92,7.06037 -1.63683,12.84003 -2.20313,18.23242 -0.5663,5.39239 -0.98195,10.39734 -1.29687,15.91211 -0.31493,5.51476 -0.52945,11.5393 -0.69532,18.96679 -0.16587,7.42749 -0.28321,16.2581 -0.40234,27.38868 -0.2249,21.0134 -0.40224,32.91298 -0.8125,41.67187 -0.20513,4.37944 -0.46776,7.97348 -0.82422,11.5293 -0.35646,3.55581 -0.80699,7.0733 -1.38477,11.29883 -0.69563,5.0875 -1.32846,10.3875 -1.78906,14.82812 -0.46059,4.44063 -0.74895,8.02188 -0.75195,9.67188 -0.003,1.8931 -0.21584,4.90296 -0.57227,8.54882 -0.35642,3.64587 -0.85677,7.92688 -1.43945,12.36133 -1.16537,8.8689 -2.65665,18.35165 -3.9668,24.58985 -1.09736,5.225 -3.13659,18.09701 -4.5332,28.60351 -1.39662,10.5066 -3.02932,20.6316 -3.62695,22.5 -0.37397,1.16914 -0.73096,3.04648 -1.06446,5.47656 -0.33349,2.43009 -0.64329,5.41262 -0.92578,8.79493 -0.56497,6.76462 -1.01673,15.12449 -1.31445,23.8457 -0.29773,8.72121 -0.44248,17.80367 -0.38867,26.01172 0.0538,8.20804 0.3053,15.54245 0.79492,20.76758 0.42611,4.5474 1.20673,9.89977 2.21875,15.5332 1.01202,5.63343 2.25624,11.54727 3.60547,17.2207 1.34922,5.67343 2.80444,11.10605 4.24219,15.77344 1.43774,4.66739 2.85719,8.57022 4.13476,11.18555 0.98841,2.02337 2.07354,3.93635 3.21875,5.69531 1.14522,1.75896 2.35019,3.3639 3.57813,4.77344 1.22793,1.40953 2.47826,2.62255 3.71484,3.59765 1.23658,0.97511 2.45973,1.7123 3.63086,2.16797 8.10722,3.15435 13.62952,5.26484 18.47852,7.02344 4.84899,1.7586 9.02468,3.16531 14.43945,4.91601 6.9965,2.2621 13.60001,4.11329 14.67578,4.11329 1.07578,0 9.75158,1.96518 19.2793,4.36718 9.52772,2.4021 22.44442,5.35616 28.70312,6.56446 6.2587,1.2082 16.75291,3.75946 23.32031,5.66796 4.20238,1.22125 8.86735,2.3076 14.47657,3.34766 5.60921,1.04006 12.16267,2.03382 20.14453,3.07227 12.47391,1.6229 25.82968,3.45376 29.67968,4.06836 3.85002,0.6146 13.07502,1.49417 20.5,1.95507 15.21402,0.94435 29.64867,1.95649 40.75,2.83399 11.10134,0.87749 18.86937,1.62034 20.75,2.02734 1.39328,0.30152 5.43255,0.53034 11.0293,0.68555 5.59676,0.15521 12.751,0.23726 20.3711,0.24414 7.62009,0.007 15.70662,-0.0616 23.16992,-0.20508 7.46329,-0.14347 14.30333,-0.36238 19.42968,-0.6582 19.39005,-1.11875 30.11994,-1.78726 37.14258,-2.52344 3.51132,-0.36809 6.096,-0.75363 8.37305,-1.2207 2.27705,-0.46707 4.24617,-1.01514 6.52734,-1.71094 3.2373,-0.98745 7.4399,-2.66325 12.17383,-4.79883 4.73394,-2.13558 9.9984,-4.73114 15.36328,-7.55859 5.36489,-2.82745 10.82884,-5.88616 15.95899,-8.94922 5.13015,-3.06306 9.9273,-6.13026 13.95703,-8.97266 2.18947,-1.5444 4.85639,-3.59358 7.67578,-5.86523 2.81939,-2.27165 5.79176,-4.7648 8.5918,-7.19922 2.80003,-2.43442 5.42718,-4.81103 7.55859,-6.84375 2.13141,-2.03272 3.76658,-3.72251 4.58008,-4.78906 1.1347,-1.48768 2.34168,-3.33334 3.57226,-5.43555 1.23059,-2.10221 2.48553,-4.46096 3.71289,-6.97461 1.22737,-2.51365 2.4277,-5.1823 3.55274,-7.9043 1.12504,-2.72199 2.17403,-5.49735 3.09766,-8.2246 1.80405,-5.32695 4.29395,-13.95391 6.45703,-22.07618 2.16308,-8.12226 3.99934,-15.73982 4.49414,-19.04492 l 0.54297,-3.61914 -2.3711,2.36914 c -0.69075,0.69073 -1.52909,1.23286 -2.44922,1.62305 -0.92012,0.39019 -1.92154,0.62771 -2.93945,0.70703 -1.01791,0.0793 -2.05302,0.002 -3.03711,-0.24023 -0.98409,-0.24189 -1.91765,-0.64728 -2.73633,-1.22071 -0.76957,-0.53905 -1.41037,-1.20914 -1.94922,-2.12304 -0.53885,-0.91391 -0.97557,-2.07249 -1.33789,-3.5879 -0.36231,-1.5154 -0.65066,-3.38691 -0.89062,-5.73046 -0.23996,-2.34356 -0.43172,-5.15829 -0.60352,-8.55664 -0.3337,-6.6 -1.53075,-19.8318 -2.66015,-29.4043 -0.45725,-3.87565 -0.80986,-7.13069 -1.07422,-10.30078 -0.26437,-3.17009 -0.44055,-6.25521 -0.54297,-9.79102 -0.20484,-7.07162 -0.11668,-15.946 0.14062,-30.9082 0.54065,-31.43945 1.08326,-57.33815 1.56836,-75.50195 0.48511,-18.1638 0.91271,-28.5927 1.22461,-29.09375 0.3423,-0.55 1.35842,-10.9 2.25782,-23 0.4497,-6.05 1.09322,-12.95586 1.76757,-19.20899 0.67435,-6.25312 1.37953,-11.85351 1.95313,-15.29101 0.57802,-3.46383 1.07262,-7.17109 1.51367,-11.64063 0.44105,-4.46954 0.82769,-9.7017 1.18945,-16.2168 0.72354,-13.0302 1.34706,-31.19102 2.09961,-58.64257 0.5579,-20.3501 1.45534,-41.5 1.99414,-47 0.57728,-5.8929 0.93156,-14.55008 1.08985,-24.58985 0.15829,-10.03976 0.1201,-21.46206 -0.0899,-32.88672 -0.20994,-11.42465 -0.59172,-22.85087 -1.11914,-32.89843 -0.52742,-10.04757 -1.19999,-18.71651 -1.99414,-24.625 -0.2957,-2.2 -0.65101,-8.7004 -0.98633,-17.4004 -0.33531,-8.69999 -0.65063,-19.5996 -0.86328,-30.5996 -0.2126,-11 -0.534,-22.3504 -0.88086,-31.7754 -0.34685,-9.42499 -0.71915,-16.9246 -1.0332,-20.2246 -1.42405,-14.96562 -2.44146,-26.15273 -3.10351,-34.16602 -0.66206,-8.01329 -0.96875,-12.85276 -0.96876,-15.125 0,-2.07124 -0.30001,-4.64117 -0.90234,-7.71875 -0.60233,-3.07758 -1.50739,-6.66341 -2.7168,-10.76367 -1.2094,-4.10027 -2.7237,-8.71617 -4.54492,-13.85547 -1.82122,-5.1393 -3.94894,-10.8014 -6.38672,-16.99609 -2.93622,-7.461336 -5.22644,-13.230794 -7.0957,-17.748051 -1.86926,-4.517258 -3.31785,-7.782348 -4.56836,-10.234375 -1.2505,-2.452028 -2.30284,-4.091781 -3.38281,-5.357422 -1.07997,-1.265642 -2.18727,-2.157135 -3.54492,-3.115234 -2.02215,-1.427066 -4.91812,-2.964851 -8.36719,-4.503907 -3.44907,-1.539056 -7.45078,-3.079132 -11.68164,-4.511719 -4.23087,-1.432586 -8.69106,-2.757577 -13.0586,-3.865234 -4.36753,-1.107657 -8.64287,-1.998232 -12.50195,-2.5625 -2.8919,-0.422855 -8.95765,-0.682522 -19.44336,-0.792969 z"
       style="color:#000000;clip-rule:nonzero;display:inline;overflow:visible;visibility:visible;opacity:1;isolation:auto;mix-blend-mode:normal;color-interpolation:sRGB;color-interpolation-filters:linearRGB;solid-color:#000000;solid-opacity:1;fill:url(#linearGradient4756);fill-opacity:1;fill-rule:nonzero;stroke:none;stroke-width:1;stroke-linecap:butt;stroke-linejoin:miter;stroke-miterlimit:4;stroke-dasharray:none;stroke-dashoffset:0;stroke-opacity:1;color-rendering:auto;image-rendering:auto;shape-rendering:auto;text-rendering:auto;enable-background:accumulate" />
    <path
       id="path4773"
       d="m 614.57812,35.291016 c -14.58924,0 -26.56906,0.04431 -36.6289,0.160156 -10.05984,0.11585 -18.19916,0.302339 -25.11133,0.591797 -6.91217,0.289457 -12.59594,0.68035 -17.74219,1.201172 -5.14624,0.520821 -9.75552,1.172479 -14.51758,1.982421 -2.47499,0.420955 -5.44912,0.805708 -8.24609,1.085938 -2.79697,0.28023 -5.41678,0.455937 -7.18555,0.460938 -1.76877,0.0048 -4.22812,0.228366 -6.76562,0.585937 -2.5375,0.357571 -5.15315,0.849149 -7.23438,1.386719 -2.08123,0.537565 -5.74737,1.259273 -9.97851,1.990234 -4.23114,0.730961 -9.02728,1.471174 -13.36524,2.042969 -8.67591,1.14357 -16.93614,2.520927 -18.35546,3.060547 -1.41931,0.53963 -6.69485,1.646574 -11.72461,2.458984 -5.02977,0.81241 -10.71952,1.949454 -12.64454,2.527344 -1.92498,0.57789 -8.82887,1.937494 -15.34179,3.021484 -6.51292,1.08399 -12.62911,2.39208 -13.58985,2.90625 -0.96074,0.51418 -7.10687,1.852016 -13.6582,2.972656 -6.55134,1.120642 -14.16016,2.649165 -16.91016,3.396485 -10.33291,2.807975 -20.54636,5.87988 -29.0371,8.685547 -4.24538,1.402833 -8.06121,2.739958 -11.24414,3.943359 -3.18294,1.203401 -5.7339,2.273134 -7.45313,3.144531 -2.34692,1.18955 -10.79062,6.457862 -18.76563,11.707032 -7.29833,4.803791 -13.4171,8.971244 -18.58984,12.707034 -5.17273,3.73578 -9.3996,7.04011 -12.91406,10.11718 -1.75723,1.53854 -3.33534,3.02011 -4.76563,4.47071 -1.43028,1.4506 -2.71324,2.86937 -3.875,4.2832 -1.16175,1.41383 -2.20265,2.82178 -3.15429,4.25 -0.95164,1.42822 -1.81334,2.87733 -2.61328,4.37109 -1.08306,2.02244 -2.23851,4.5205 -3.41407,7.34766 -1.17556,2.82716 -2.37207,5.98338 -3.53711,9.32031 -1.16504,3.33693 -2.29812,6.85449 -3.34961,10.40625 -1.05149,3.55176 -2.02055,7.13774 -2.85546,10.60938 -0.67884,2.82267 -1.20191,5.08279 -1.60352,7.1582 -0.40161,2.07541 -0.68189,3.96562 -0.87695,6.04688 -0.39013,4.16252 -0.43773,9.09033 -0.42578,17.79492 0.007,5.17122 0.12894,10.99788 0.31836,16.21875 0.18941,5.22087 0.44641,9.83594 0.72656,12.58594 1.54872,15.20258 2.56212,26.52025 3.29687,37.9414 0.73476,11.42115 1.19086,22.94578 1.625,38.5586 0.26381,9.4875 0.61886,19.01171 0.97852,26.71484 0.35966,7.70312 0.72392,13.58516 1.00586,15.78516 0.41729,3.2563 0.70909,10.58233 0.88281,19.91015 0.17372,9.32782 0.22882,20.65823 0.17773,31.91797 -0.0511,11.25974 -0.20967,22.44991 -0.46679,31.50195 -0.25713,9.05205 -0.61225,15.96518 -1.05664,18.66993 -0.8133,4.95 -1.51424,11.7 -1.55664,15 -0.0424,3.3 -0.54606,8.25 -1.11914,11 -0.28654,1.375 -0.64152,7.06914 -0.98243,15.13476 -0.3409,8.06563 -0.66774,18.50274 -0.89843,29.36524 -0.51836,24.40755 -1.11018,43.31461 -1.82422,57.66601 -0.35703,7.1757 -0.74428,13.21218 -1.16797,18.22852 -0.42369,5.01633 -0.88453,9.01204 -1.38672,12.10547 -0.84822,5.225 -1.55912,12.425 -1.57813,16 -0.0108,2.04187 -0.28797,5.66421 -0.72851,10.07421 -0.44054,4.41001 -1.04467,9.60769 -1.71094,14.79688 -0.66626,5.18919 -1.39403,10.37059 -2.08203,14.75 -0.688,4.37941 -1.33604,7.95682 -1.8418,9.9375 -0.83452,3.2682 -2.6878,14.71641 -4.11718,25.44141 -0.71469,5.3625 -1.59893,11.19453 -2.44922,16.26953 -0.8503,5.075 -1.66666,9.39297 -2.24219,11.73047 -0.47479,1.9283 -0.84617,3.65971 -1.14258,5.75 -0.2964,2.09028 -0.51705,4.53991 -0.69336,7.90429 -0.35262,6.72877 -0.52413,17.11739 -0.74609,35.61524 -0.17087,14.2399 -0.20187,25.16553 -0.0859,33.38086 0.11594,8.21532 0.37881,13.72034 0.79883,17.11914 0.3339,2.7019 1.00586,6.6209 1.87305,11.11914 0.86718,4.49824 1.93053,9.57611 3.04687,14.59375 1.11634,5.01763 2.28582,9.97624 3.36719,14.23633 1.08136,4.26009 2.07368,7.82127 2.83594,10.04687 0.87729,2.56153 2.08667,5.29001 3.50976,8.01367 1.42309,2.72367 3.05894,5.44285 4.79297,7.98438 1.73404,2.54153 3.56486,4.9048 5.375,6.91992 1.81014,2.01512 3.60055,3.68175 5.25195,4.82617 1.84026,1.2753 5.46902,3.05793 10.07422,5.04883 4.6052,1.9909 10.18613,4.19016 15.9336,6.30078 5.74747,2.11063 11.66066,4.13114 16.92773,5.76563 5.26707,1.63448 9.88874,2.88283 13.05273,3.44531 3.025,0.5378 9.10001,1.91314 13.5,3.05664 8.37789,2.1774 14.20816,3.65135 19.2168,4.82617 5.00864,1.17482 9.19566,2.0505 14.2832,3.03125 5.77502,1.1133 14.55002,3.14633 19.5,4.51953 7.99429,2.2176 14.40998,3.80412 20.99415,5.10547 6.58417,1.30135 13.33682,2.31753 22.00585,3.39258 9.35001,1.1595 21.5,2.76902 27,3.57812 5.5,0.809 18.325,1.91684 28.5,2.46094 10.17501,0.5441 22.05826,1.43281 26.40821,1.97461 4.34996,0.5418 10.87496,1.01288 14.5,1.04688 1.81252,0.0169 4.24737,0.18037 6.71094,0.43164 2.46356,0.25126 4.95586,0.59032 6.88085,0.95507 2.17129,0.41145 6.92422,0.74301 13.10352,0.98633 6.1793,0.24333 13.78523,0.39893 21.66016,0.45703 7.87492,0.0581 16.01918,0.0192 23.27734,-0.125 7.25817,-0.1442 13.62996,-0.39421 17.95898,-0.75781 6.60001,-0.5543 20.55,-1.44235 31,-1.97266 5.72618,-0.29062 10.6997,-0.67458 15.20899,-1.22265 4.50929,-0.54807 8.55491,-1.26051 12.42383,-2.20703 3.86891,-0.94652 7.56213,-2.1273 11.36718,-3.61328 3.80506,-1.48599 7.72137,-3.27691 12.03907,-5.44336 3.759,-1.88615 8.00646,-4.16108 12.4082,-6.62305 4.40175,-2.46197 8.95818,-5.11057 13.33789,-7.74805 4.37971,-2.63747 8.5825,-5.2631 12.27539,-7.67578 3.6929,-2.41268 6.8755,-4.61281 9.2168,-6.40039 4.35852,-3.32775 8.23167,-6.47874 11.70703,-9.54883 3.47536,-3.07008 6.55238,-6.05931 9.32227,-9.06445 2.76988,-3.00514 5.23251,-6.02528 7.47461,-9.1582 2.24209,-3.13293 4.26425,-6.37861 6.15624,-9.83203 1.409,-2.57183 3.07507,-6.43627 4.83985,-11.08594 1.76478,-4.64967 3.62795,-10.08478 5.42969,-15.80078 1.80174,-5.71601 3.54262,-11.71159 5.0625,-17.48242 1.51988,-5.77084 2.81908,-11.31671 3.73828,-16.13086 0.8316,-4.3554 1.42884,-9.57153 1.79687,-15.18164 0.36804,-5.61012 0.50638,-11.61433 0.42383,-17.54688 -0.0825,-5.93255 -0.3861,-11.79252 -0.90625,-17.11523 -0.26007,-2.66136 -0.57436,-5.18935 -0.94141,-7.52344 -0.36704,-2.3341 -0.78737,-4.47494 -1.25976,-6.36524 -0.7927,-3.1719 -1.74971,-9.32021 -2.12891,-13.66211 -0.27965,-3.20155 -0.56461,-5.28727 -1.01758,-6.81054 -0.22648,-0.76164 -0.49465,-1.38138 -0.82617,-1.93164 -0.33151,-0.55026 -0.72545,-1.03014 -1.20312,-1.50782 -0.82783,-0.8278 -1.84451,-1.44497 -2.95508,-1.85351 -1.11057,-0.40854 -2.31455,-0.60888 -3.52148,-0.59961 -1.20694,0.009 -2.41629,0.22672 -3.53321,0.65234 -1.11692,0.42563 -2.1419,1.05987 -2.98242,1.90039 l -2.45313,2.45508 0.0391,-18.20508 c 0.0357,-16.12955 0.50596,-40.38256 1.09375,-61.43945 0.29389,-10.52845 0.6163,-20.25746 0.92968,-27.77344 0.31339,-7.51598 0.61725,-12.81821 0.8711,-14.49218 0.5422,-3.575 1.68742,-16.18935 2.54492,-28.03125 0.42875,-5.92095 1.04607,-12.59297 1.69531,-18.57422 0.64925,-5.98125 1.33042,-11.27173 1.88672,-14.42578 0.7382,-4.18505 1.30628,-9.01205 1.77539,-15.4375 0.46911,-6.42545 0.83924,-14.44935 1.17969,-25.03125 0.5131,-15.95 1.50748,-42.5 2.20898,-59 0.43853,-10.31566 0.76145,-24.36568 0.97071,-39.80664 0.20925,-15.44097 0.30449,-32.27193 0.28906,-48.14844 -0.0154,-15.87652 -0.14143,-30.79959 -0.37695,-42.42188 -0.23552,-11.62229 -0.58023,-19.94475 -1.03125,-22.62304 -0.41925,-2.48931 -0.83035,-8.12509 -1.19727,-16.13282 -0.36691,-8.00773 -0.68964,-18.38741 -0.93359,-30.36718 -0.21555,-10.5875 -0.58402,-22.2379 -1.00391,-32.47852 -0.41989,-10.24062 -0.8912,-19.07148 -1.3125,-24.02148 -0.8426,-9.9 -2.22486,-26.775 -3.07226,-37.5 -0.48833,-6.18074 -0.9973,-11.37131 -1.6875,-16.18555 -0.69021,-4.81424 -1.5626,-9.25254 -2.77344,-13.93164 -1.21084,-4.6791 -2.76033,-9.59774 -4.81055,-15.37305 -2.05022,-5.77531 -4.60024,-12.4069 -7.80859,-20.509764 -5.80175,-14.652535 -8.80821,-22.196221 -11.11328,-26.908204 -1.15254,-2.355991 -2.13027,-4.003003 -3.19336,-5.478515 -1.06309,-1.475513 -2.21219,-2.778552 -3.70899,-4.443359 -1.37895,-1.533728 -3.01563,-3.000511 -4.95312,-4.421876 -1.93749,-1.421364 -4.17649,-2.797688 -6.75586,-4.15039 -2.57937,-1.352702 -5.5001,-2.682025 -8.80469,-4.009766 -3.30459,-1.32774 -6.99232,-2.65352 -11.10547,-4 -5.47735,-1.793065 -9.52159,-3.132123 -13.51367,-4.132812 -1.99604,-0.500345 -3.97831,-0.916455 -6.12109,-1.261719 -2.14279,-0.345264 -4.44518,-0.620984 -7.08008,-0.839844 -5.26981,-0.43772 -11.86914,-0.649749 -21.17969,-0.753906 -9.31055,-0.104157 -21.33296,-0.09961 -37.44727,-0.09961 z m 35.30469,17.683593 c 10.48571,0.110447 16.55146,0.370114 19.44336,0.792969 3.85908,0.564268 8.13442,1.454843 12.50195,2.5625 4.36754,1.107657 8.82773,2.432648 13.0586,3.865234 4.23086,1.432587 8.23257,2.972663 11.68164,4.511719 3.44907,1.539056 6.34504,3.076841 8.36719,4.503907 1.35765,0.958099 2.46495,1.849592 3.54492,3.115234 1.07997,1.265641 2.13231,2.905394 3.38281,5.357422 1.25051,2.452027 2.6991,5.717117 4.56836,10.234375 1.86926,4.517257 4.15948,10.286715 7.0957,17.748051 2.43778,6.19469 4.5655,11.85679 6.38672,16.99609 1.82122,5.1393 3.33552,9.7552 4.54492,13.85547 1.20941,4.10026 2.11447,7.68609 2.7168,10.76367 0.60233,3.07758 0.90234,5.64751 0.90234,7.71875 10e-6,2.27224 0.3067,7.11171 0.96876,15.125 0.66205,8.01329 1.67946,19.2004 3.10351,34.16602 0.31405,3.3 0.68635,10.79961 1.0332,20.2246 0.34686,9.425 0.66826,20.7754 0.88086,31.7754 0.21265,11 0.52797,21.89961 0.86328,30.5996 0.33532,8.7 0.69063,15.2004 0.98633,17.4004 0.79415,5.90849 1.46672,14.57743 1.99414,24.625 0.52742,10.04756 0.9092,21.47378 1.11914,32.89843 0.20995,11.42466 0.24814,22.84696 0.0899,32.88672 -0.15829,10.03977 -0.51257,18.69695 -1.08985,24.58985 -0.5388,5.5 -1.43624,26.6499 -1.99414,47 -0.75255,27.45155 -1.37607,45.61237 -2.09961,58.64257 -0.36176,6.5151 -0.7484,11.74726 -1.18945,16.2168 -0.44105,4.46954 -0.93565,8.1768 -1.51367,11.64063 -0.5736,3.4375 -1.27878,9.03789 -1.95313,15.29101 -0.67435,6.25313 -1.31787,13.15899 -1.76757,19.20899 -0.8994,12.1 -1.91552,22.45 -2.25782,23 -0.3119,0.50105 -0.7395,10.92995 -1.22461,29.09375 -0.4851,18.1638 -1.02771,44.0625 -1.56836,75.50195 -0.2573,14.9622 -0.34546,23.83658 -0.14062,30.9082 0.10242,3.53581 0.2786,6.62093 0.54297,9.79102 0.26436,3.17009 0.61697,6.42513 1.07422,10.30078 1.1294,9.5725 2.32645,22.8043 2.66015,29.4043 0.1718,3.39835 0.36356,6.21308 0.60352,8.55664 0.23996,2.34355 0.52831,4.21506 0.89062,5.73046 0.36232,1.51541 0.79904,2.67399 1.33789,3.5879 0.53885,0.9139 1.17965,1.58399 1.94922,2.12304 0.81868,0.57343 1.75224,0.97882 2.73633,1.22071 0.98409,0.24188 2.0192,0.31955 3.03711,0.24023 1.01791,-0.0793 2.01933,-0.31684 2.93945,-0.70703 0.92013,-0.39019 1.75847,-0.93232 2.44922,-1.62305 l 2.3711,-2.36914 -0.54297,3.61914 c -0.4948,3.3051 -2.33106,10.92266 -4.49414,19.04492 -2.16308,8.12227 -4.65298,16.74923 -6.45703,22.07618 -0.92363,2.72725 -1.97262,5.50261 -3.09766,8.2246 -1.12504,2.722 -2.32537,5.39065 -3.55274,7.9043 -1.22736,2.51365 -2.4823,4.8724 -3.71289,6.97461 -1.23058,2.10221 -2.43756,3.94787 -3.57226,5.43555 -0.8135,1.06655 -2.44867,2.75634 -4.58008,4.78906 -2.13141,2.03272 -4.75856,4.40933 -7.55859,6.84375 -2.80004,2.43442 -5.77241,4.92757 -8.5918,7.19922 -2.81939,2.27165 -5.48631,4.32083 -7.67578,5.86523 -4.02973,2.8424 -8.82688,5.9096 -13.95703,8.97266 -5.13015,3.06306 -10.5941,6.12177 -15.95899,8.94922 -5.36488,2.82745 -10.62934,5.42301 -15.36328,7.55859 -4.73393,2.13558 -8.93653,3.81138 -12.17383,4.79883 -2.28117,0.6958 -4.25029,1.24387 -6.52734,1.71094 -2.27705,0.46707 -4.86173,0.85261 -8.37305,1.2207 -7.02264,0.73618 -17.75253,1.40469 -37.14258,2.52344 -5.12635,0.29582 -11.96639,0.51473 -19.42968,0.6582 -7.4633,0.14347 -15.54983,0.21196 -23.16992,0.20508 -7.6201,-0.007 -14.77434,-0.0889 -20.3711,-0.24414 -5.59675,-0.15521 -9.63602,-0.38403 -11.0293,-0.68555 -1.88063,-0.407 -9.64866,-1.14985 -20.75,-2.02734 -11.10133,-0.8775 -25.53598,-1.88964 -40.75,-2.83399 -7.42498,-0.4609 -16.64998,-1.34047 -20.5,-1.95507 -3.85,-0.6146 -17.20577,-2.44546 -29.67968,-4.06836 -7.98186,-1.03845 -14.53532,-2.03221 -20.14453,-3.07227 -5.60922,-1.04006 -10.27419,-2.12641 -14.47657,-3.34766 -6.5674,-1.9085 -17.06161,-4.45976 -23.32031,-5.66796 -6.2587,-1.2083 -19.1754,-4.16236 -28.70312,-6.56446 -9.52772,-2.402 -18.20352,-4.36718 -19.2793,-4.36718 -1.07577,0 -7.67928,-1.85119 -14.67578,-4.11329 -5.41477,-1.7507 -9.59046,-3.15741 -14.43945,-4.91601 -4.849,-1.7586 -10.3713,-3.86909 -18.47852,-7.02344 -1.17113,-0.45567 -2.39428,-1.19286 -3.63086,-2.16797 -1.23658,-0.9751 -2.48691,-2.18812 -3.71484,-3.59765 -1.22794,-1.40954 -2.43291,-3.01448 -3.57813,-4.77344 -1.14521,-1.75896 -2.23034,-3.67194 -3.21875,-5.69531 -1.27757,-2.61533 -2.69702,-6.51816 -4.13476,-11.18555 -1.43775,-4.66739 -2.89297,-10.10001 -4.24219,-15.77344 -1.34923,-5.67343 -2.59345,-11.58727 -3.60547,-17.2207 -1.01202,-5.63343 -1.79264,-10.9858 -2.21875,-15.5332 -0.48962,-5.22513 -0.74112,-12.55954 -0.79492,-20.76758 -0.0538,-8.20805 0.0909,-17.29051 0.38867,-26.01172 0.29772,-8.72121 0.74948,-17.08108 1.31445,-23.8457 0.28249,-3.38231 0.59229,-6.36484 0.92578,-8.79493 0.3335,-2.43008 0.69049,-4.30742 1.06446,-5.47656 0.59763,-1.8684 2.23033,-11.9934 3.62695,-22.5 1.39661,-10.5065 3.43584,-23.37851 4.5332,-28.60351 1.31015,-6.2382 2.80143,-15.72095 3.9668,-24.58985 0.58268,-4.43445 1.08303,-8.71546 1.43945,-12.36133 0.35643,-3.64586 0.56882,-6.65572 0.57227,-8.54882 0.003,-1.65 0.29136,-5.23125 0.75195,-9.67188 0.4606,-4.44062 1.09343,-9.74062 1.78906,-14.82812 0.57778,-4.22553 1.02831,-7.74302 1.38477,-11.29883 0.35646,-3.55582 0.61909,-7.14986 0.82422,-11.5293 0.41026,-8.75889 0.5876,-20.65847 0.8125,-41.67187 0.11913,-11.13058 0.23647,-19.96119 0.40234,-27.38868 0.16587,-7.42749 0.38039,-13.45203 0.69532,-18.96679 0.31492,-5.51477 0.73057,-10.51972 1.29687,-15.91211 0.5663,-5.39239 1.28313,-11.17205 2.20313,-18.23242 0.4175,-3.2041 0.76577,-11.08888 1.03124,-21.60743 0.26548,-10.51854 0.44779,-23.671 0.53516,-37.4082 0.0874,-13.7372 0.0797,-28.05986 -0.0371,-40.91992 -0.11681,-12.86007 -0.34238,-24.25739 -0.68945,-32.14453 -0.59101,-13.43089 -1.46529,-36.20621 -1.94336,-50.61328 -0.47807,-14.40708 -1.13739,-27.45708 -1.46484,-29 -0.45148,-2.1273 -1.37235,-11.19915 -2.25586,-21.38282 -0.88351,-10.18366 -1.72965,-21.47916 -2.03321,-28.05468 -0.15711,-3.40346 -0.13258,-6.82285 0.082,-10.30664 0.21462,-3.4838 0.61879,-7.03109 1.22071,-10.68946 0.60192,-3.65836 1.40144,-7.42829 2.40625,-11.35547 1.0048,-3.92718 2.21541,-8.0125 3.63867,-12.30273 1.01192,-3.0503 1.97458,-5.80566 2.94727,-8.33398 0.97268,-2.52833 1.95451,-4.82918 3.00976,-6.97266 1.05525,-2.14348 2.18375,-4.12964 3.44336,-6.02539 1.25961,-1.89575 2.65056,-3.70119 4.23633,-5.48633 1.58577,-1.78514 3.36666,-3.54967 5.40039,-5.36133 2.03373,-1.81165 4.32035,-3.67119 6.92383,-5.64648 5.20696,-3.95058 11.67582,-8.36515 19.89257,-13.79297 5.18029,-3.42199 9.28114,-6.09211 12.8125,-8.25586 3.53137,-2.16376 6.49351,-3.820314 9.39649,-5.216798 2.90298,-1.396483 5.74589,-2.532163 9.04101,-3.652343 3.29513,-1.120181 7.04221,-2.225702 11.75,-3.560547 3.85001,-1.09163 9.7,-2.847414 13,-3.902344 3.30001,-1.05492 10.95001,-2.870173 17,-4.033203 6.05001,-1.16303 15.50001,-3.198204 21,-4.521484 5.5,-1.32329 12.7,-2.795818 16,-3.273438 5.51126,-0.79765 12.00591,-2.11834 35.5,-7.21875 4.67501,-1.01491 15.25001,-2.777355 23.5,-3.916015 8.25,-1.138661 17.47502,-2.733502 20.5,-3.544922 1.51251,-0.40571 3.4504,-0.776506 5.35352,-1.046875 1.90312,-0.27037 3.77148,-0.440313 5.14648,-0.445313 2.75,-0.0095 12.65001,-1.19165 22,-2.625 4.11184,-0.630345 7.34754,-1.109082 10.75391,-1.480469 3.40638,-0.371386 6.9837,-0.636181 11.78125,-0.835937 9.59511,-0.399513 24.06894,-0.542337 51.8086,-0.779297 20.57055,-0.17572 35.47522,-0.213962 45.96093,-0.103516 z"
       style="color:#000000;clip-rule:nonzero;display:inline;overflow:visible;visibility:visible;opacity:1;isolation:auto;mix-blend-mode:normal;color-interpolation:sRGB;color-interpolation-filters:linearRGB;solid-color:#000000;solid-opacity:1;fill:url(#linearGradient4750);fill-opacity:1;fill-rule:nonzero;stroke:none;stroke-width:1;stroke-linecap:butt;stroke-linejoin:miter;stroke-miterlimit:4;stroke-dasharray:none;stroke-dashoffset:0;stroke-opacity:1;color-rendering:auto;image-rendering:auto;shape-rendering:auto;text-rendering:auto;enable-background:accumulate" />
    <path
       id="path5711"
       d="m 762.47461,763.06055 c 1.1224,-1.1224 2.86923,11.84347 3.33203,24.73047 0.6429,17.9042 -0.10512,22.6301 -1.10742,7 -0.4055,-6.325 -1.16395,-15.95906 -1.68555,-21.41016 -0.5213,-5.451 -0.76346,-10.09591 -0.53906,-10.32031 z"
       style="fill:url(#linearGradient5694)" />
    <path
       id="path5709"
       d="m 761.54297,756.28125 c 0.0576,-0.005 0.12098,0.071 0.18945,0.24023 l 0.002,0 c 0.27379,0.677 0.28865,2.027 0.0352,3 -0.2536,0.973 -0.47805,0.41954 -0.49805,-1.23046 -0.0152,-1.2375 0.0986,-1.99413 0.27149,-2.00977 z"
       style="fill:url(#linearGradient5694)" />
    <path
       id="path5707"
       d="m 760.58984,747.63867 c 0.0547,0.0314 0.11486,0.16172 0.17774,0.40235 0.2515,0.9625 0.2515,2.5375 0,3.5 -0.2515,0.9625 -0.45899,0.175 -0.45899,-1.75 0,-1.44375 0.11727,-2.24668 0.28125,-2.15235 z"
       style="fill:url(#linearGradient5694)" />
    <path
       id="path5705"
       d="m 489.10352,546.2168 c -3.25584,0.1094 -6.57499,0.67811 -11.5254,1.75781 -10.52638,2.296 -20.37289,9.62341 -26.1289,19.44531 -4.98459,8.5056 -4.02316,22.75135 2.03516,30.15235 2.17384,2.6556 2.2129,3.14955 1.64843,21.21875 l -0.57812,18.5 -8.98828,9.02734 c -7.06934,7.1001 -9.98363,10.9432 -13.64844,18 -8.31805,16.0169 -9.80747,25.7053 -5.40625,35.1582 2.59511,5.5737 9.67571,11.69674 14.88281,12.86914 1.54966,0.3488 3.06919,1.28699 3.375,2.08399 0.7772,2.0253 -6.06757,29.20273 -9.78711,38.86133 -13.15829,34.1685 -13.22696,34.3985 -13.31836,44.5 -0.10358,11.4445 2.34879,18.07736 8.69532,23.50976 6.24957,5.3494 12.26118,6.9398 26.32031,6.9668 l 12.10351,0.0234 2.85938,3.5 c 7.47088,9.1467 16.93399,16.01892 24.93554,18.10742 4.27872,1.1169 12.16234,0.10566 16.52344,-2.11914 19.48936,-9.9428 22.97249,-45.27648 9.85938,-99.98828 -3.29857,-13.7627 -6.88282,-31.41232 -6.88282,-33.88672 10e-6,-0.3437 1.27357,-1.18796 2.83008,-1.87696 9.22618,-4.0839 15.48429,-13.64372 15.59961,-23.82812 0.0634,-5.5981 -0.46321,-7.26903 -5.26758,-16.76953 -2.93506,-5.8039 -7.16016,-12.62626 -9.39062,-15.16016 l -4.05664,-4.60742 0.54883,-9.68555 c 0.5684,-10.0622 2.93712,-18.31034 7.23632,-25.18554 5.15499,-8.2438 11.48232,-22.5357 13.00391,-29.375 2.9506,-13.2624 -0.46525,-22.85291 -10.96289,-30.78711 -6.39197,-4.831 -13.67198,-7.53312 -25.37305,-9.41602 -4.69578,-0.7556 -7.88673,-1.10549 -11.14257,-0.99609 z m 2.58203,27.98047 c 5.04638,0.0775 10.39483,0.86828 13.64257,2.33593 2.61251,1.1806 4.75,2.78938 4.75,3.57618 10e-6,2.90929 -3.066,9.95212 -8.88867,20.42382 -7.88528,14.1812 -10.91837,23.51044 -12.19922,37.52344 -0.56483,6.1794 -1.66525,13.3942 -2.44726,16.0332 -1.23639,4.1725 -1.23199,5.3462 0.041,9 0.94488,2.7121 1.46952,8.18988 1.47852,15.45118 l 0.0156,11.25 -5.58007,0 c -5.56181,0 -5.57724,-0.009 -4.99414,-2.75 1.10608,-5.1999 3.56236,-22.753 3.56836,-25.5 0.003,-1.5126 0.44554,-2.75 0.98437,-2.75 0.53882,0 1.93853,-1.87678 3.10938,-4.17188 2.53718,-4.9733 2.17618,-10.24224 -1.00586,-14.71094 -2.08881,-2.9335 -2.10293,-3.30497 -1.06446,-25.79687 0.57951,-12.5512 0.77197,-24.51419 0.42774,-26.58399 -0.36632,-2.2025 -1.82407,-4.95883 -3.51367,-6.64843 l -2.88672,-2.88672 2.72656,-1.85157 c 2.04371,-1.3864 6.78955,-2.02082 11.83594,-1.94335 z m -11.21094,143.59375 8.39844,0 1.15234,6.75 c 0.63474,3.7124 3.35243,16.4249 6.03711,28.25 5.9642,26.2699 7.38293,37.31242 6.83984,53.23242 -0.23016,6.747 -0.92238,13.15668 -1.53711,14.24218 -1.03157,1.8214 -1.67207,1.37848 -8.32226,-5.73632 -10.51803,-11.2529 -14.85049,-13.13809 -31.21485,-13.58789 l -12.75,-0.35157 0,-3.32617 c 0,-3.2996 1.34907,-7.35345 10.47657,-31.47265 4.4456,-11.7474 12.52343,-41.37219 12.52343,-45.92969 10e-6,-1.928 0.57217,-2.07031 8.39649,-2.07031 z"
       style="fill:url(#linearGradient5694)" />
    <path
       id="path5703"
       d="m 464.96094,86.505859 c -8.11072,0.320273 -15.73914,2.804994 -21.54492,7.402344 -9.21301,7.295397 -19.06108,23.148547 -21.35938,34.382817 -2.5967,12.69284 3.03772,43.04655 11.51367,62.02148 1.46889,3.28838 3.71971,8.83324 5,12.32227 l 2.32617,6.34375 -5.27734,7.75195 c -8.10049,11.89634 -10.70371,21.55297 -8.16406,30.28906 1.93861,6.66857 5.20925,11.64917 9.37109,14.27149 2.98534,1.88102 3.17669,2.35887 3.21289,8.04101 0.0355,5.56566 -2.62454,29.10452 -3.4375,30.41992 -0.19444,0.31461 -1.08503,7.62306 -1.97851,16.24219 -1.10938,10.70186 -2.41877,17.94945 -4.13282,22.85547 -6.14865,17.59878 -3.55604,29.07454 7.96289,35.23633 3.53266,1.88971 5.63108,2.19597 14.625,2.13867 9.29988,-0.0592 11.4509,-0.4307 18.81836,-3.25 4.57502,-1.75072 8.90449,-3.18359 9.62305,-3.18359 0.71856,0 4.83719,2.57666 9.15039,5.72656 4.31321,3.1499 10.10679,6.51161 12.875,7.46875 19.66867,6.8007 35.85959,-7.85024 31.56055,-28.5586 -0.65562,-3.15809 -3.64573,-13.25628 -6.64453,-22.43945 -7.78163,-23.82962 -10.17393,-33.17289 -12.35742,-48.26758 l -1.92579,-13.3125 2.20118,-1.48437 c 3.86886,-2.61377 9.63436,-9.0928 11.95117,-13.42774 1.90072,-3.55641 2.24804,-5.75173 2.24804,-14.22656 10e-6,-9.3079 -0.23425,-10.49603 -3.2871,-16.69726 -2.01871,-4.10058 -5.0339,-8.21262 -7.81446,-10.66016 l -4.52734,-3.98438 1.06445,-13.26757 c 1.46489,-18.26832 1.33215,-32.22875 -0.45898,-48.52344 -1.8044,-16.41535 -4.23737,-25.94414 -9.40625,-36.82813 -4.80292,-10.1134 -9.35397,-15.337073 -16.74414,-19.216793 -7.73838,-4.06252 -16.33265,-5.90621 -24.44336,-5.585938 z m 3.50586,27.396481 c 1.71994,0.18754 3.56392,0.68744 5.57031,1.49024 4.78861,1.91602 6.97878,5.18294 10.49023,15.65039 3.88568,11.58299 6.16549,39.61826 4.65625,57.24805 -0.61209,7.15 -1.11137,13.72172 -1.10937,14.60351 0.002,1.26488 -1.52629,1.7388 -7.2461,2.24609 -3.9875,0.35365 -8.21578,0.91049 -9.39453,1.23633 -1.79886,0.49726 -2.34516,-0.0241 -3.40234,-3.24609 -0.69274,-2.11129 -4.07147,-10.83623 -7.50977,-19.38672 -6.82277,-16.96715 -11.44336,-35.01559 -11.44336,-44.70117 10e-6,-6.71784 1.73802,-11.66664 6.35743,-18.09961 3.84231,-5.35079 7.87141,-7.60363 13.03125,-7.04102 z m 13.29882,118.66016 0.67188,8.76367 c 0.3705,4.82011 0.42477,9.01468 0.11914,9.32031 -0.95329,0.95329 -13.47549,1.42586 -13.55859,0.51172 -0.0434,-0.47658 -0.0145,-3.79218 0.0625,-7.36718 0.16858,-7.82629 1.61037,-9.70864 8.125,-10.60157 l 4.58007,-0.62695 z m 5.04883,45.58594 c 0.93199,0.38377 1.27822,2.44835 2.16211,9.32422 1.78861,13.91355 5.04787,27.07198 11.90821,48.06836 3.27965,10.0375 5.86799,18.25 5.75195,18.25 -0.11605,0 -1.27712,-1.13454 -2.58008,-2.52149 -1.30297,-1.38694 -4.86842,-3.74944 -7.92383,-5.25 -4.80019,-2.35744 -6.778,-2.72851 -14.55469,-2.72851 -7.42988,0 -10.36142,0.50076 -16.79882,2.86914 -4.28879,1.57789 -8.00182,2.6642 -8.25196,2.41406 -0.25015,-0.25014 0.42451,-3.01269 1.5,-6.13867 1.0755,-3.12598 2.66968,-12.5373 3.54297,-20.91407 0.8733,-8.37676 2.20698,-18.83046 2.96289,-23.23046 0.75592,-4.4 1.68913,-10.5875 2.07422,-13.75 l 0.70117,-5.75 8.13477,-0.0137 c 4.47413,-0.008 9.06566,-0.26288 10.20312,-0.56836 0.48274,-0.12964 0.85731,-0.18847 1.16797,-0.0605 z"
       style="fill:url(#linearGradient5694)" />
  </g>
</svg>
