<?xml version="1.0" encoding="UTF-8" standalone="no"?>
<svg
   xmlns:osb="http://www.openswatchbook.org/uri/2009/osb"
   xmlns:dc="http://purl.org/dc/elements/1.1/"
   xmlns:cc="http://creativecommons.org/ns#"
   xmlns:rdf="http://www.w3.org/1999/02/22-rdf-syntax-ns#"
   xmlns:svg="http://www.w3.org/2000/svg"
   xmlns="http://www.w3.org/2000/svg"
   xmlns:xlink="http://www.w3.org/1999/xlink"
   version="1.1"
   id="svg2985"
   height="949.78595"
   width="585.258">
  <defs
     id="defs5498">
    <linearGradient
       osb:paint="solid"
       id="linearGradient4756">
      <stop
         id="stop4758"
         offset="0"
         style="stop-color:#ffffff;stop-opacity:1;" />
    </linearGradient>
    <linearGradient
       osb:paint="solid"
       id="linearGradient4750">
      <stop
         id="stop4752"
         offset="0"
         style="stop-color:#000000;stop-opacity:1;" />
    </linearGradient>
    <linearGradient
       osb:paint="solid"
       id="linearGradient5694">
      <stop
         id="stop5696"
         offset="0"
         style="stop-color:#002b11;stop-opacity:1;" />
    </linearGradient>
    <linearGradient
       osb:paint="solid"
       id="linearGradient4712">
      <stop
         id="stop4714"
         offset="0"
         style="stop-color:#162d50;stop-opacity:1;" />
    </linearGradient>
    <linearGradient
       osb:paint="solid"
       id="linearGradient4706">
      <stop
         id="stop4708"
         offset="0"
         style="stop-color:#d40000;stop-opacity:1;" />
    </linearGradient>
    <linearGradient
       gradientUnits="userSpaceOnUse"
       y2="508.69208"
       x2="761.44257"
       y1="508.69208"
       x1="262.13925"
       id="linearGradient4716"
       xlink:href="#linearGradient4712" />
    <linearGradient
       gradientUnits="userSpaceOnUse"
       y2="500.0004"
       x2="771.30902"
       y1="500.0004"
       x1="228.69211"
       id="linearGradient4754"
       xlink:href="#linearGradient4750" />
    <linearGradient
       gradientUnits="userSpaceOnUse"
       y2="500.10483"
       x2="752.40271"
       y1="500.10483"
       x1="248.61133"
       id="linearGradient4760"
       xlink:href="#linearGradient4756" />
    <linearGradient
       y2="508.69208"
       x2="761.44257"
       y1="508.69208"
       x1="262.13925"
       gradientUnits="userSpaceOnUse"
       id="linearGradient501"
       xlink:href="#linearGradient4712" />
    <linearGradient
       y2="508.69208"
       x2="761.44257"
       y1="508.69208"
       x1="262.13925"
       gradientUnits="userSpaceOnUse"
       id="linearGradient503"
       xlink:href="#linearGradient4712" />
    <linearGradient
       y2="508.69208"
       x2="761.44257"
       y1="508.69208"
       x1="262.13925"
       gradientUnits="userSpaceOnUse"
       id="linearGradient505"
       xlink:href="#linearGradient4712" />
  </defs>
  <metadata
     id="metadata5594">
    <rdf:RDF>
      <cc:Work
         rdf:about="">
        <dc:format>image/svg+xml</dc:format>
        <dc:type
           rdf:resource="http://purl.org/dc/dcmitype/StillImage" />
        <dc:title />
      </cc:Work>
    </rdf:RDF>
  </metadata>
  <g
     transform="translate(-207.37107,-25.107288)"
     style="display:inline"
     id="layer18">
    <path
       id="path4863"
       d="m 633.10742,42.355469 c -7.65704,-0.160584 -19.15224,-0.106365 -38.05273,0.08789 -21.27441,0.21865 -32.6022,0.363366 -40.15821,0.751953 -3.778,0.194294 -6.61304,0.448797 -9.27734,0.804688 -2.6643,0.355891 -5.15742,0.813259 -8.25195,1.410156 -12.81592,2.47204 -20.34199,3.938939 -25.60352,5.027344 -5.26152,1.088405 -8.2585,1.798316 -12.01562,2.753906 -4.19116,1.06598 -8.88059,1.9375 -10.41993,1.9375 -1.46432,0 -5.30817,0.689429 -11.73437,2.111328 -6.4262,1.4219 -15.43478,3.576271 -27.22656,6.509766 -7.31064,1.818695 -17.07881,4.704693 -26.19727,7.652344 -4.55923,1.473825 -8.95606,2.962264 -12.80273,4.341797 -3.84667,1.379532 -7.14223,2.649376 -9.5,3.683593 -3.025,1.32689 -8.65,3.430009 -12.5,4.673828 -2.35479,0.760758 -7.07127,2.776851 -13.03907,5.503907 -5.96779,2.727055 -13.18603,6.165627 -20.54687,9.771484 -7.36084,3.605857 -14.86452,7.378227 -21.39844,10.775387 -6.53391,3.39717 -12.09891,6.41856 -15.58593,8.51954 -3.08001,1.85573 -6.63931,4.25958 -9.89258,6.63671 -3.25328,2.37713 -6.20052,4.72755 -8.05664,6.47852 -1.41773,1.33741 -2.60328,2.51603 -3.65821,3.67969 -1.05492,1.16365 -1.97871,2.31165 -2.87109,3.58789 -1.78476,2.55247 -3.44519,5.6171 -5.78125,10.33789 -1.61911,3.27195 -3.00166,6.26617 -4.1875,9.11328 -1.18584,2.84711 -2.17494,5.54779 -3.00781,8.22852 -0.83287,2.68072 -1.51014,5.34244 -2.07032,8.11523 -0.56018,2.77279 -1.00331,5.65598 -1.37109,8.7793 -1.05786,8.98373 -1.56474,12.81689 -4.55859,34.5 -0.87331,6.325 -2.38645,18.45469 -3.36328,26.95507 l -1.77735,15.45508 2.83399,2.38477 c 0.62457,0.52554 1.11356,0.9787 1.49609,1.4414 0.38253,0.46271 0.65796,0.93586 0.85547,1.49805 0.39501,1.12439 0.47761,2.6092 0.47461,5.10547 -0.002,1.5568 -0.23458,3.92768 -0.60742,6.49414 -0.37285,2.56646 -0.88595,5.32852 -1.44922,7.66602 -0.63507,2.63543 -1.23388,6.33543 -1.74414,10.66211 -0.51027,4.32667 -0.93198,9.28004 -1.21485,14.42187 -0.50178,9.1211 -1.13577,17.2211 -1.4082,18 -0.27242,0.7789 -0.96142,6.59102 -1.53125,12.91602 -0.37656,4.17969 -0.94117,8.09824 -1.81641,12.36132 -0.87523,4.26309 -2.06107,8.87071 -3.68359,14.42774 -1.33625,4.57658 -2.39782,8.31283 -3.25586,11.58789 -0.85804,3.27505 -1.51164,6.0892 -2.03711,8.82031 -0.52546,2.73111 -0.92123,5.37947 -1.25976,8.32422 -0.33854,2.94475 -0.62073,6.1856 -0.91797,10.10156 -0.50057,6.59457 -1.38467,14.66465 -1.96485,17.9336 -1.33679,7.53205 -3.70768,24.47759 -5.58789,39.94336 -2.20107,18.10505 -3.45989,27.92373 -5.06445,39.5 -0.89882,6.48461 -1.80988,14.49094 -2.84766,25.18554 -1.03778,10.6946 -2.20227,24.07747 -3.60547,41.31446 -0.58205,7.15 -1.72419,17.95 -2.53906,24 -0.81487,6.05 -1.4767,12.93251 -1.4707,15.29297 0.006,2.36045 -0.84569,9.56043 -1.89453,16 -0.91646,5.62676 -1.63051,10.48041 -2.18555,15.58984 -0.55504,5.10943 -0.95194,10.47546 -1.23242,17.125 -0.28048,6.64953 -0.44435,14.583 -0.53711,24.83008 -0.0928,10.24707 -0.11357,22.80694 -0.10547,38.70898 0.008,15.63555 0.0331,27.81278 0.12305,37.70117 0.0899,9.8884 0.24464,17.48765 0.51367,23.9668 0.26903,6.47915 0.65192,11.83827 1.19727,17.24609 0.54534,5.40783 1.25302,10.86465 2.17187,17.53907 0.37999,2.76018 0.95527,5.82514 1.66797,8.99609 0.7127,3.17095 1.56338,6.44866 2.49219,9.63086 0.92881,3.18219 1.93652,6.26857 2.96484,9.0625 1.02832,2.79393 2.07667,5.29463 3.08789,7.30078 1.45357,2.88373 3.47957,6.33449 5.85352,10.04688 2.37395,3.71238 5.09603,7.68563 7.94531,11.61328 2.84927,3.92764 5.82553,7.81032 8.70508,11.33984 2.87954,3.52952 5.66219,6.70661 8.12695,9.22461 1.38534,1.41526 3.02648,2.87125 4.87891,4.34375 1.85242,1.4725 3.91622,2.96167 6.14453,4.44531 2.2283,1.48364 4.62179,2.96148 7.13476,4.41016 2.51298,1.44868 5.14513,2.8687 7.85157,4.23633 5.41287,2.73526 11.12224,5.262 16.76171,7.39648 2.81974,1.06724 5.62176,2.03686 8.36133,2.88477 2.73957,0.8479 5.41618,1.57377 7.98438,2.15625 3.575,0.81081 9.875,2.58699 14,3.94531 5.16456,1.70064 10.80381,3.29714 16.70703,4.73828 5.90322,1.44114 12.07041,2.72692 18.29297,3.80664 5.775,1.00207 12.975,2.4915 16,3.31055 4.11792,1.11498 9.03154,2.27246 14.74804,3.47265 5.71651,1.2002 12.23647,2.44317 19.5625,3.73047 14.65208,2.57462 32.53359,5.32529 53.68946,8.25977 2.38315,0.33057 9.60362,0.58164 19.28906,0.75195 9.68544,0.17032 21.83498,0.26033 34.08008,0.26758 12.24509,0.007 24.58438,-0.0679 34.64648,-0.22656 10.06211,-0.15863 17.84791,-0.40121 20.98438,-0.72852 3.53649,-0.36906 7.73924,-0.99733 12.22265,-1.79687 4.48342,-0.79954 9.24808,-1.77108 13.90625,-2.82617 4.65817,-1.0551 9.21073,-2.19436 13.27149,-3.33008 4.06076,-1.13573 7.62913,-2.26717 10.32031,-3.3086 4.829,-1.86872 14.62116,-6.24108 21.76172,-9.71679 2.86984,-1.39692 5.17959,-2.55119 7.15039,-3.61329 1.9708,-1.06209 3.60265,-2.03271 5.11719,-3.06054 1.51454,-1.02783 2.91103,-2.11215 4.41211,-3.40625 1.50107,-1.2941 3.10671,-2.79729 5.03711,-4.65821 2.18825,-2.10947 4.28218,-4.28485 6.29687,-6.55078 2.01469,-2.26592 3.94953,-4.6226 5.81836,-7.0957 1.86883,-2.4731 3.67315,-5.06195 5.42383,-7.79297 1.75068,-2.73102 3.44913,-5.60486 5.10937,-8.64453 1.66025,-3.03967 3.2814,-6.24547 4.87891,-9.64453 1.59751,-3.39906 3.16994,-6.98964 4.73242,-10.79883 3.12497,-7.61837 6.20825,-16.10858 9.35938,-25.67187 2.06971,-6.28133 4.07666,-12.86252 5.93945,-19.41211 1.86279,-6.5496 3.58199,-13.06856 5.07617,-19.22071 1.49418,-6.15214 2.76267,-11.93836 3.72656,-17.02734 0.9639,-5.08898 1.6226,-9.47975 1.89454,-12.83984 0.31158,-3.85 1.45563,-14.425 2.54296,-23.5 1.08732,-9.075 2.67014,-24.15 3.51758,-33.5 0.84744,-9.35 1.80731,-17.675 2.13281,-18.5 0.32553,-0.825 0.95877,-16.575 1.40821,-35 0.25344,-10.39009 0.55407,-19.72701 0.92187,-28.26758 0.36781,-8.54057 0.80343,-16.28491 1.32227,-23.48633 0.51884,-7.20142 1.12157,-13.85978 1.82812,-20.23242 0.70656,-6.37264 1.51632,-12.45945 2.44727,-18.51367 0.40494,-2.63347 0.80535,-7.9433 1.14453,-14.75196 0.33918,-6.80865 0.61713,-15.11612 0.77344,-23.74804 0.27357,-15.10699 0.61881,-26.2489 1.23047,-36.79297 0.61166,-10.54407 1.48974,-20.4903 2.83008,-33.20703 0.84055,-7.975 1.95428,-20.35 2.47656,-27.5 0.49081,-6.71914 0.97175,-12.42219 1.64844,-19.14453 0.67668,-6.72235 1.54913,-14.46399 2.82031,-25.25977 0.81574,-6.92788 1.48719,-15.63013 1.49219,-19.33984 0.005,-3.70971 0.72036,-13.27719 1.59179,-21.25977 0.47512,-4.35226 0.80954,-9.50416 1.00586,-15.26562 0.19632,-5.76147 0.25399,-12.13271 0.17578,-18.92579 -0.0782,-6.79307 -0.29216,-14.00799 -0.64062,-21.45507 -0.34846,-7.44709 -0.83088,-15.12611 -1.44531,-22.84961 -0.89699,-11.275 -2.10469,-27.025 -2.6836,-35 -0.28946,-3.9875 -0.77051,-8.62539 -1.3125,-12.88477 -0.54199,-4.25937 -1.14493,-8.14023 -1.67773,-10.61523 -1.06561,-4.95 -2.21719,-11.25 -2.5586,-14 -0.34141,-2.75 -1.97904,-10.175 -3.63867,-16.5 -1.80513,-6.87954 -3.1326,-12.66404 -4.26562,-18.89844 -1.13303,-6.2344 -2.07163,-12.9187 -3.09571,-21.60156 -0.57973,-4.91536 -1.13564,-9.1807 -1.71289,-13.00196 -0.57725,-3.82126 -1.17604,-7.19898 -1.83789,-10.33984 -0.66184,-3.14087 -1.3872,-6.0438 -2.2207,-8.91797 -0.8335,-2.87417 -1.77496,-5.71905 -2.86719,-8.74023 -2.18723,-6.050004 -5.22816,-15.123946 -6.75781,-20.164066 -0.76483,-2.52006 -1.70171,-5.201234 -2.59375,-7.490235 -0.89204,-2.289 -1.73924,-4.185827 -2.32813,-5.138671 -0.79372,-1.284273 -1.82727,-2.627176 -3.03515,-3.970704 -1.20788,-1.343527 -2.58957,-2.687226 -4.07813,-3.974609 -1.48856,-1.287383 -3.08493,-2.518928 -4.7207,-3.634766 -1.63577,-1.115837 -3.31144,-2.11642 -4.96094,-2.945312 -1.6381,-0.823163 -3.74045,-1.718592 -6.07812,-2.615235 -2.33768,-0.896642 -4.91059,-1.794568 -7.49219,-2.61914 -2.5816,-0.824573 -5.17114,-1.576641 -7.54102,-2.183594 -2.36987,-0.606952 -4.52016,-1.068717 -6.22265,-1.3125 -2.475,-0.35439 -8.93549,-1.499835 -14.35742,-2.546875 -5.42193,-1.04705 -11.68667,-1.904297 -13.92188,-1.904297 -2.23521,0 -7.83975,-0.707425 -12.45508,-1.572265 -1.77463,-0.332535 -3.61709,-0.591977 -5.97265,-0.789063 -2.35556,-0.197086 -5.22421,-0.331817 -9.05274,-0.412109 z"
       style="color:#000000;clip-rule:nonzero;display:inline;overflow:visible;visibility:visible;opacity:1;isolation:auto;mix-blend-mode:normal;color-interpolation:sRGB;color-interpolation-filters:linearRGB;solid-color:#000000;solid-opacity:1;fill:url(#linearGradient4756);fill-opacity:1;fill-rule:nonzero;stroke:none;stroke-width:1;stroke-linecap:butt;stroke-linejoin:miter;stroke-miterlimit:4;stroke-dasharray:none;stroke-dashoffset:0;stroke-opacity:1;color-rendering:auto;image-rendering:auto;shape-rendering:auto;text-rendering:auto;enable-background:accumulate" />
    <path
       id="path4861"
       d="m 598.13867,25.107422 c -12.58376,0.0056 -22.46375,0.04261 -30.57812,0.179687 -8.11437,0.137074 -14.46281,0.374598 -19.98438,0.78125 -5.52156,0.406653 -10.21614,0.982576 -15.02148,1.796875 -4.80535,0.8143 -9.72179,1.866548 -15.6875,3.226563 -4.675,1.06576 -11.2,2.435722 -14.5,3.044922 -14.36909,2.65262 -27.25763,5.258595 -38.79688,7.845703 -11.53925,2.587108 -21.72922,5.155348 -30.70312,7.736328 -7.542,2.16915 -15.92409,4.825737 -23.04492,7.253906 -7.12084,2.428169 -12.98042,4.62792 -15.47461,5.88086 -2.18848,1.09937 -8.25547,3.41716 -13.48047,5.15039 -2.81325,0.933208 -7.97403,3.146311 -14.36524,6.085938 -6.3912,2.939627 -14.01301,6.606737 -21.74609,10.443359 C 337.02278,88.369825 329.1787,92.375808 322.33984,96 c -6.83886,3.624192 -12.6723,6.86563 -16.38086,9.16797 -3.66164,2.27321 -7.0612,4.63554 -10.20703,7.0957 -3.14582,2.46017 -6.03823,5.01899 -8.68359,7.68164 -2.64536,2.66266 -5.04483,5.42986 -7.20508,8.31055 -2.16025,2.88069 -4.08099,5.87403 -5.77148,8.98828 -1.90242,3.50464 -3.60339,7.02392 -5.11914,10.61524 -1.51576,3.59131 -2.84572,7.25507 -4.00977,11.04687 -1.16404,3.7918 -2.1625,7.71226 -3.00977,11.81836 -0.84726,4.1061 -1.54394,8.39742 -2.10937,12.93164 -1.03069,8.26514 -2.60668,19.96091 -3.50195,25.99023 -1.57852,10.63082 -4.37283,34.17059 -6.56641,55.31055 -0.29764,2.86846 -0.49432,6.80265 -0.57227,10.86524 -0.0779,4.06258 -0.0372,8.25355 0.14063,11.63476 0.56418,10.72896 0.82895,18.94773 0.7832,26.08399 -0.0229,3.56812 -0.12391,6.86517 -0.30273,10.07031 -0.17882,3.20514 -0.43636,6.31862 -0.77344,9.51758 -0.76436,7.25411 -1.17398,11.00996 -2.06836,15.26171 -0.89438,4.25176 -2.27353,8.99942 -4.97851,18.23829 -1.08944,3.72095 -1.99381,6.99721 -2.75977,10.08203 -0.76596,3.08482 -1.3939,5.97912 -1.92773,8.93359 -0.53384,2.95447 -0.97415,5.96891 -1.36719,9.29883 -0.39304,3.32992 -0.73844,6.97439 -1.08203,11.18555 -0.40768,4.99659 -0.72779,8.37707 -1.35157,13.13086 -0.62377,4.75378 -1.55121,10.88086 -3.17578,21.36914 -0.76673,4.95 -1.88513,13.725 -2.48437,19.5 -0.59924,5.775 -1.50074,12.975 -2.00391,16 -0.50317,3.025 -1.42359,9.775 -2.04492,15 -0.62133,5.225 -1.54152,12.875 -2.04492,17 -0.76867,6.29863 -1.75375,15.92652 -2.72656,26.41601 -0.97282,10.48949 -1.93336,21.84058 -2.65235,31.58399 -0.75084,10.175 -1.82812,22.1 -2.39453,26.5 -2.62498,20.39121 -4.4635,33.49034 -5.47656,39 -0.37347,2.03113 -0.65202,10.31402 -0.83789,25.19726 -0.18587,14.88324 -0.27906,36.36682 -0.28516,64.80274 l -0.0176,84 2.73829,16 c 0.86751,5.06833 1.75761,9.62156 2.71289,13.79101 0.95527,4.16945 1.97585,7.95457 3.10156,11.48438 1.12571,3.52981 2.35751,6.80567 3.73633,9.95508 1.37882,3.1494 2.90453,6.17292 4.61914,9.20117 2.85445,5.04137 6.15402,10.24578 9.68359,15.3457 3.52957,5.09992 7.28922,10.09579 11.06055,14.72266 3.77133,4.62686 7.55504,8.88365 11.13476,12.50586 1.78987,1.8111 3.52875,3.46357 5.18946,4.92382 1.6607,1.46026 3.24332,2.72852 4.7207,3.77149 4.10324,2.89671 9.81588,6.41332 15.37109,9.55273 5.55521,3.13942 10.95299,5.90164 14.42774,7.28711 5.04219,2.01046 10.65016,4.01762 15.83008,5.70117 5.17991,1.68356 9.93179,3.04351 13.26562,3.75586 3.62769,0.77515 8.8543,2.29923 11.61328,3.38672 2.75898,1.08749 8.41053,2.6799 12.56055,3.53711 4.15002,0.85722 8.76059,2.01995 10.24414,2.58399 1.48355,0.56405 7.03704,1.71611 12.3418,2.56054 5.30477,0.84443 13.01953,2.38701 17.14453,3.42774 8.52954,2.15198 16.439,3.93874 24.69922,5.54883 8.26021,1.61008 16.87118,3.04349 26.80078,4.49023 11.55,1.68283 24.825,3.68278 29.5,4.44336 1.6087,0.26172 4.82302,0.48091 9.23633,0.66015 4.4133,0.17925 10.02583,0.31883 16.42968,0.41993 12.8077,0.20218 28.78251,0.25241 44.66797,0.16797 15.88546,-0.0844 31.68211,-0.30418 44.13281,-0.64063 6.22536,-0.16822 11.6142,-0.36511 15.75977,-0.58984 4.14557,-0.22474 7.04711,-0.47699 8.29883,-0.75391 7.48007,-1.6548 13.83669,-3.15405 19.51953,-4.6543 5.68284,-1.50024 10.69273,-3.00206 15.48047,-4.66015 4.78774,-1.6581 9.35171,-3.4732 14.14648,-5.60157 4.79477,-2.12836 9.81951,-4.56941 15.52344,-7.48046 2.88325,-1.47149 5.67105,-3.0661 8.37305,-4.79297 2.702,-1.72687 5.31887,-3.58508 7.85742,-5.58789 2.53855,-2.00282 4.99968,-4.1499 7.39258,-6.44922 2.39289,-2.29932 4.71738,-4.75276 6.98242,-7.36914 2.26504,-2.61639 4.47002,-5.39559 6.625,-8.34961 2.15498,-2.95402 4.25954,-6.08232 6.32226,-9.39453 2.06273,-3.31222 4.08401,-6.80902 6.07227,-10.5 1.98826,-3.69098 3.94341,-7.57572 5.875,-11.66602 1.39803,-2.96044 3.29652,-7.62684 5.39648,-13.14062 2.09997,-5.51379 4.40132,-11.87481 6.60743,-18.22657 2.2061,-6.35175 4.31673,-12.69362 6.0332,-18.16797 1.71647,-5.47434 3.03887,-10.08132 3.66992,-12.96289 0.75109,-3.42971 2.73773,-12.31132 4.41406,-19.73632 0.73575,-3.25887 1.4166,-6.68449 2.08985,-10.63477 0.67325,-3.95028 1.33812,-8.42457 2.04297,-13.78125 1.4097,-10.71335 2.97748,-24.95511 5.07812,-45.58398 1.09212,-10.725 2.48294,-23.325 3.08985,-28 0.30344,-2.3375 0.66931,-8.45664 1.01367,-16.43164 0.34435,-7.975 0.66719,-17.80586 0.88672,-27.56836 0.17746,-7.89187 0.48413,-16.2771 0.87695,-24.53321 0.39281,-8.25611 0.87246,-16.38271 1.39258,-23.75586 0.52012,-7.37314 1.08124,-13.99336 1.64062,-19.23632 0.55939,-5.24297 1.11635,-9.10904 1.62696,-10.97461 0.46632,-1.70383 1.06689,-9.35328 1.67773,-20.62696 0.61084,-11.27367 1.23194,-26.17158 1.73633,-42.37304 0.2654,-8.525 0.67908,-17.79375 1.13086,-25.85938 0.45177,-8.06562 0.94165,-14.92812 1.36132,-18.64062 0.83935,-7.425 1.99259,-19.125 2.5625,-26 1.26873,-15.3051 3.63683,-38.49659 5.54883,-54.3418 0.78591,-6.51296 1.42774,-15.1174 1.42774,-19.12109 0,-4.00369 0.7194,-13.74986 1.59765,-21.65821 0.47207,-4.25081 0.79807,-9.60899 0.98243,-15.65625 0.18435,-6.04726 0.22708,-12.78263 0.13476,-19.78906 -0.0923,-7.00643 -0.31978,-14.28379 -0.67773,-21.41211 -0.35796,-7.12832 -0.84642,-14.10857 -1.45899,-20.52148 -0.84058,-8.8 -2.02677,-24.325 -2.63476,-34.5 -0.304,-5.0875 -0.74677,-10.49922 -1.2168,-15.1211 -0.47003,-4.62187 -0.96733,-8.4539 -1.37695,-10.3789 -0.81925,-3.85 -2.09478,-10.825 -2.83399,-15.5 -0.76951,-4.86663 -1.21136,-7.55677 -1.92969,-10.81055 -0.71832,-3.25378 -1.7131,-7.07121 -3.58984,-14.18945 -1.30526,-4.95072 -2.23429,-9.10698 -3.31055,-15.63477 -1.07626,-6.52779 -2.29976,-15.42711 -4.1914,-29.86523 -0.4618,-3.52472 -0.97412,-6.8346 -1.55469,-10 -0.58057,-3.16541 -1.23013,-6.18616 -1.96484,-9.13477 -0.73472,-2.94861 -1.55428,-5.82489 -2.47852,-8.69922 -0.92424,-2.87433 -1.95242,-5.746884 -3.10156,-8.689451 -1.83081,-4.688114 -4.49554,-12.555655 -5.92383,-17.484375 -0.71414,-2.464355 -1.60099,-5.099924 -2.45312,-7.361328 -0.85214,-2.261405 -1.66955,-4.148645 -2.24805,-5.115235 -1.53134,-2.558612 -3.29592,-5.018515 -5.25977,-7.349609 -1.96384,-2.331094 -4.12661,-4.534156 -6.45507,-6.578125 -2.32847,-2.04397 -4.82208,-3.927762 -7.44727,-5.625 -2.62519,-1.697238 -5.3823,-3.207147 -8.23633,-4.498047 -3.88848,-1.758795 -10.10649,-3.999269 -15.75976,-5.800781 -2.82664,-0.900756 -5.51251,-1.69217 -7.69532,-2.257813 -2.1828,-0.565642 -3.86211,-0.90625 -4.67773,-0.90625 -1.36762,0 -7.26725,-0.875655 -13.11133,-1.947265 -6.24504,-1.145123 -11.45431,-2.036387 -16.52734,-2.728516 -5.07303,-0.692129 -10.00971,-1.185791 -15.71289,-1.535156 -5.70319,-0.349366 -12.17115,-0.555045 -20.30664,-0.671875 -8.1355,-0.116831 -17.93863,-0.144147 -30.3086,-0.138672 z m 34.96875,17.248047 c 3.82853,0.08029 6.69718,0.215023 9.05274,0.412109 2.35556,0.197086 4.19802,0.456528 5.97265,0.789063 4.61533,0.86484 10.21987,1.572265 12.45508,1.572265 2.23521,0 8.49995,0.857247 13.92188,1.904297 5.42193,1.04704 11.88242,2.192485 14.35742,2.546875 1.70249,0.243783 3.85278,0.705548 6.22265,1.3125 2.36988,0.606953 4.95942,1.359021 7.54102,2.183594 2.5816,0.824572 5.15451,1.722498 7.49219,2.61914 2.33767,0.896643 4.44002,1.792072 6.07812,2.615235 1.6495,0.828892 3.32517,1.829475 4.96094,2.945312 1.63577,1.115838 3.23214,2.347383 4.7207,3.634766 1.48856,1.287383 2.87025,2.631082 4.07813,3.974609 1.20788,1.343528 2.24143,2.686431 3.03515,3.970704 0.58889,0.952844 1.43609,2.849671 2.32813,5.138671 0.89204,2.289001 1.82892,4.970175 2.59375,7.490235 1.52965,5.04012 4.57058,14.114062 6.75781,20.164066 1.09223,3.02118 2.03369,5.86606 2.86719,8.74023 0.8335,2.87417 1.55886,5.7771 2.2207,8.91797 0.66185,3.14086 1.26064,6.51858 1.83789,10.33984 0.57725,3.82126 1.13316,8.0866 1.71289,13.00196 1.02408,8.68286 1.96268,15.36716 3.09571,21.60156 1.13302,6.2344 2.46049,12.0189 4.26562,18.89844 1.65963,6.325 3.29726,13.75 3.63867,16.5 0.34141,2.75 1.49299,9.05 2.5586,14 0.5328,2.475 1.13574,6.35586 1.67773,10.61523 0.54199,4.25938 1.02304,8.89727 1.3125,12.88477 0.57891,7.975 1.78661,23.725 2.6836,35 0.61443,7.7235 1.09685,15.40252 1.44531,22.84961 0.34846,7.44708 0.56241,14.662 0.64062,21.45507 0.0782,6.79308 0.0205,13.16432 -0.17578,18.92579 -0.19632,5.76146 -0.53074,10.91336 -1.00586,15.26562 -0.87143,7.98258 -1.5868,17.55006 -1.59179,21.25977 -0.005,3.70971 -0.67645,12.41196 -1.49219,19.33984 -1.27118,10.79578 -2.14363,18.53742 -2.82031,25.25977 -0.67669,6.72234 -1.15763,12.42539 -1.64844,19.14453 -0.52228,7.15 -1.63601,19.525 -2.47656,27.5 -1.34034,12.71673 -2.21842,22.66296 -2.83008,33.20703 -0.61166,10.54407 -0.9569,21.68598 -1.23047,36.79297 -0.15631,8.63192 -0.43426,16.93939 -0.77344,23.74804 -0.33918,6.80866 -0.73959,12.11849 -1.14453,14.75196 -0.93095,6.05422 -1.74071,12.14103 -2.44727,18.51367 -0.70655,6.37264 -1.30928,13.031 -1.82812,20.23242 -0.51884,7.20142 -0.95446,14.94576 -1.32227,23.48633 -0.3678,8.54057 -0.66843,17.87749 -0.92187,28.26758 -0.44944,18.425 -1.08268,34.175 -1.40821,35 -0.3255,0.825 -1.28537,9.15 -2.13281,18.5 -0.84744,9.35 -2.43026,24.425 -3.51758,33.5 -1.08733,9.075 -2.23138,19.65 -2.54296,23.5 -0.27194,3.36009 -0.93064,7.75086 -1.89454,12.83984 -0.96389,5.08898 -2.23238,10.8752 -3.72656,17.02734 -1.49418,6.15215 -3.21338,12.67111 -5.07617,19.22071 -1.86279,6.54959 -3.86974,13.13078 -5.93945,19.41211 -3.15113,9.56329 -6.23441,18.0535 -9.35938,25.67187 -1.56248,3.80919 -3.13491,7.39977 -4.73242,10.79883 -1.59751,3.39906 -3.21866,6.60486 -4.87891,9.64453 -1.66024,3.03967 -3.35869,5.91351 -5.10937,8.64453 -1.75068,2.73102 -3.555,5.31987 -5.42383,7.79297 -1.86883,2.4731 -3.80367,4.82978 -5.81836,7.0957 -2.01469,2.26593 -4.10862,4.44131 -6.29687,6.55078 -1.9304,1.86092 -3.53604,3.36411 -5.03711,4.65821 -1.50108,1.2941 -2.89757,2.37842 -4.41211,3.40625 -1.51454,1.02783 -3.14639,1.99845 -5.11719,3.06054 -1.9708,1.0621 -4.28055,2.21637 -7.15039,3.61329 -7.14056,3.47571 -16.93272,7.84807 -21.76172,9.71679 -2.69118,1.04143 -6.25955,2.17287 -10.32031,3.3086 -4.06076,1.13572 -8.61332,2.27498 -13.27149,3.33008 -4.65817,1.05509 -9.42283,2.02663 -13.90625,2.82617 -4.48341,0.79954 -8.68616,1.42781 -12.22265,1.79687 -3.13647,0.32731 -10.92227,0.56989 -20.98438,0.72852 -10.0621,0.15863 -22.40139,0.23381 -34.64648,0.22656 -12.2451,-0.007 -24.39464,-0.0973 -34.08008,-0.26758 -9.68544,-0.17031 -16.90591,-0.42138 -19.28906,-0.75195 -21.15587,-2.93448 -39.03738,-5.68515 -53.68946,-8.25977 -7.32603,-1.2873 -13.84599,-2.53027 -19.5625,-3.73047 -5.7165,-1.20019 -10.63012,-2.35767 -14.74804,-3.47265 -3.025,-0.81905 -10.225,-2.30848 -16,-3.31055 -6.22256,-1.07972 -12.38975,-2.3655 -18.29297,-3.80664 -5.90322,-1.44114 -11.54247,-3.03764 -16.70703,-4.73828 -4.125,-1.35832 -10.425,-3.1345 -14,-3.94531 -2.5682,-0.58248 -5.24481,-1.30835 -7.98438,-2.15625 -2.73957,-0.84791 -5.54159,-1.81753 -8.36133,-2.88477 -5.63947,-2.13448 -11.34884,-4.66122 -16.76171,-7.39648 -2.70644,-1.36763 -5.33859,-2.78765 -7.85157,-4.23633 -2.51297,-1.44868 -4.90646,-2.92652 -7.13476,-4.41016 -2.22831,-1.48364 -4.29211,-2.97281 -6.14453,-4.44531 -1.85243,-1.4725 -3.49357,-2.92849 -4.87891,-4.34375 -2.46476,-2.518 -5.24741,-5.69509 -8.12695,-9.22461 -2.87955,-3.52952 -5.85581,-7.4122 -8.70508,-11.33984 -2.84928,-3.92765 -5.57136,-7.9009 -7.94531,-11.61328 -2.37395,-3.71239 -4.39995,-7.16315 -5.85352,-10.04688 -1.01122,-2.00615 -2.05957,-4.50685 -3.08789,-7.30078 -1.02832,-2.79393 -2.03603,-5.88031 -2.96484,-9.0625 -0.92881,-3.1822 -1.77949,-6.45991 -2.49219,-9.63086 -0.7127,-3.17095 -1.28798,-6.23591 -1.66797,-8.99609 -0.91885,-6.67442 -1.62653,-12.13124 -2.17187,-17.53907 -0.54535,-5.40782 -0.92824,-10.76694 -1.19727,-17.24609 -0.26903,-6.47915 -0.42377,-14.0784 -0.51367,-23.9668 -0.0899,-9.88839 -0.11507,-22.06562 -0.12305,-37.70117 -0.008,-15.90204 0.0127,-28.46191 0.10547,-38.70898 0.0928,-10.24708 0.25663,-18.18055 0.53711,-24.83008 0.28048,-6.64954 0.67738,-12.01557 1.23242,-17.125 0.55504,-5.10943 1.26909,-9.96308 2.18555,-15.58984 1.04884,-6.43957 1.90053,-13.63955 1.89453,-16 -0.006,-2.36046 0.65583,-9.24297 1.4707,-15.29297 0.81487,-6.05 1.95701,-16.85 2.53906,-24 1.4032,-17.23699 2.56769,-30.61986 3.60547,-41.31446 1.03778,-10.6946 1.94884,-18.70093 2.84766,-25.18554 1.60456,-11.57627 2.86338,-21.39495 5.06445,-39.5 1.88021,-15.46577 4.2511,-32.41131 5.58789,-39.94336 0.58018,-3.26895 1.46428,-11.33903 1.96485,-17.9336 0.29724,-3.91596 0.57943,-7.15681 0.91797,-10.10156 0.33853,-2.94475 0.7343,-5.59311 1.25976,-8.32422 0.52547,-2.73111 1.17907,-5.54526 2.03711,-8.82031 0.85804,-3.27506 1.91961,-7.01131 3.25586,-11.58789 1.62252,-5.55703 2.80836,-10.16465 3.68359,-14.42774 0.87524,-4.26308 1.43985,-8.18163 1.81641,-12.36132 0.56983,-6.325 1.25883,-12.13712 1.53125,-12.91602 0.27243,-0.7789 0.90642,-8.8789 1.4082,-18 0.28287,-5.14183 0.70458,-10.0952 1.21485,-14.42187 0.51026,-4.32668 1.10907,-8.02668 1.74414,-10.66211 0.56327,-2.3375 1.07637,-5.09956 1.44922,-7.66602 0.37284,-2.56646 0.60542,-4.93734 0.60742,-6.49414 0.003,-2.49627 -0.0796,-3.98108 -0.47461,-5.10547 -0.19751,-0.56219 -0.47294,-1.03534 -0.85547,-1.49805 -0.38253,-0.4627 -0.87152,-0.91586 -1.49609,-1.4414 l -2.83399,-2.38477 1.77735,-15.45508 c 0.97683,-8.50038 2.48997,-20.63007 3.36328,-26.95507 2.99385,-21.68311 3.50073,-25.51627 4.55859,-34.5 0.36778,-3.12332 0.81091,-6.00651 1.37109,-8.7793 0.56018,-2.77279 1.23745,-5.43451 2.07032,-8.11523 0.83287,-2.68073 1.82197,-5.38141 3.00781,-8.22852 1.18584,-2.84711 2.56839,-5.84133 4.1875,-9.11328 2.33606,-4.72079 3.99649,-7.78542 5.78125,-10.33789 0.89238,-1.27624 1.81617,-2.42424 2.87109,-3.58789 1.05493,-1.16366 2.24048,-2.34228 3.65821,-3.67969 1.85612,-1.75097 4.80336,-4.10139 8.05664,-6.47852 3.25327,-2.37713 6.81257,-4.78098 9.89258,-6.63671 3.48702,-2.10098 9.05202,-5.12237 15.58593,-8.51954 6.53392,-3.39716 14.0376,-7.16953 21.39844,-10.775387 7.36084,-3.605857 14.57908,-7.044429 20.54687,-9.771484 5.9678,-2.727056 10.68428,-4.743149 13.03907,-5.503907 3.85,-1.243819 9.475,-3.346938 12.5,-4.673828 2.35777,-1.034217 5.65333,-2.304061 9.5,-3.683593 3.84667,-1.379533 8.2435,-2.867972 12.80273,-4.341797 9.11846,-2.947651 18.88663,-5.833649 26.19727,-7.652344 11.79178,-2.933495 20.80036,-5.087866 27.22656,-6.509766 6.4262,-1.421899 10.27005,-2.111328 11.73437,-2.111328 1.53934,0 6.22877,-0.87152 10.41993,-1.9375 3.75712,-0.95559 6.7541,-1.665501 12.01562,-2.753906 5.26153,-1.088405 12.7876,-2.555304 25.60352,-5.027344 3.09453,-0.596897 5.58765,-1.054265 8.25195,-1.410156 2.6643,-0.355891 5.49934,-0.610394 9.27734,-0.804688 7.55601,-0.388587 18.8838,-0.533303 40.15821,-0.751953 18.90049,-0.194255 30.39569,-0.248474 38.05273,-0.08789 z"
       style="color:#000000;clip-rule:nonzero;display:inline;overflow:visible;visibility:visible;opacity:1;isolation:auto;mix-blend-mode:normal;color-interpolation:sRGB;color-interpolation-filters:linearRGB;solid-color:#000000;solid-opacity:1;fill:url(#linearGradient4750);fill-opacity:1;fill-rule:nonzero;stroke:none;stroke-width:1;stroke-linecap:butt;stroke-linejoin:miter;stroke-miterlimit:4;stroke-dasharray:none;stroke-dashoffset:0;stroke-opacity:1;color-rendering:auto;image-rendering:auto;shape-rendering:auto;text-rendering:auto;enable-background:accumulate" />
    <path
       id="path5855"
       d="m 346.11328,541.28711 c -13.91761,-0.1767 -29.09358,1.71194 -38.86914,5.36719 -12.82405,4.79511 -22.66,13.22139 -27.9668,23.95898 -3.26548,6.60725 -3.61516,8.10491 -3.56836,15.24805 0.0805,12.2677 4.96879,22.73726 13.84961,29.65625 2.47957,1.93181 4.8736,3.64748 5.32032,3.8125 1.49177,0.55108 5.12366,30.10056 5.70312,46.40625 l 0.57227,16.10547 -9.31836,4.89453 c -11.91647,6.25801 -19.40275,13.02064 -23.125,20.88867 -4.52639,9.56781 -3.44609,16.13288 3.68554,22.39453 4.51824,3.96707 8.18514,5.63079 18.97071,8.60352 l 8,2.20507 0.59765,16.4004 c 0.32896,9.02035 0.93597,18.22479 1.34766,20.45507 0.51328,2.78065 0.23527,5.76626 -0.88281,9.5 -2.55023,8.51625 -4.17522,29.60426 -2.86328,37.15039 1.03212,5.93659 0.97297,6.38032 -1.04297,7.79493 -10.08385,7.07596 -16.32535,17.69306 -15.33203,26.08007 1.67781,14.1665 11.56307,25.30143 31.26367,35.21485 11.26628,5.66923 16.49919,6.60646 37.91211,6.79101 22.8453,0.19689 23.52822,0.0161 48.83593,-12.90039 24.0255,-12.26211 28.28449,-16.73271 26.25391,-27.55664 -1.34121,-7.14928 -12.82313,-16.78093 -23.33789,-19.57617 -4.06412,-1.0804 -4.1874,-1.22369 -2.85547,-3.33984 1.93034,-3.06691 3.34121,-18.26516 6.61133,-71.21289 0.47556,-7.7 0.89253,-14.3375 0.92773,-14.75 0.0352,-0.4125 2.35901,-0.75 5.16211,-0.75 5.02861,0 5.225,0.12056 14.84571,8.99804 l 9.75195,8.9961 -1.81445,5.2539 c -4.55656,13.18981 -0.0408,23.62485 13.08398,30.23438 11.79775,5.94124 19.42763,6.86862 50.99414,6.20117 28.99128,-0.613 35.05441,-1.35689 49.50977,-6.07812 12.42133,-4.05697 18.21398,-8.99618 20.49804,-17.47852 1.41342,-5.24903 1.81543,-20.51772 0.66016,-25.08203 l -0.875,-3.45313 2.375,1.74219 c 1.30591,0.95807 3.62898,2.51119 5.16406,3.45313 2.62407,1.61016 2.75398,2.01202 2.15821,6.71289 -0.34853,2.75 -1.68755,10.175 -2.97461,16.5 -1.28707,6.325 -2.87058,15.75975 -3.51953,20.96484 -0.65197,5.22941 -2.02352,11.03856 -3.06641,12.98437 -1.92489,3.59146 -2.49942,10.53904 -1.05859,12.8086 1.35635,2.13648 -4.9035,13.49975 -9.81055,17.80859 -6.58711,5.78407 -7.87751,7.38409 -10.67969,13.24219 -5.72883,11.97642 -3.52785,22.55949 6.02149,28.94141 5.21438,3.48482 18.87597,8.1572 32.63867,11.16406 7.0602,1.54251 13.24286,1.87696 36.5,1.97265 24.98588,0.10282 29.1712,-0.11733 38.86914,-2.04882 11.925,-2.37504 15.80102,-4.6045 18.26758,-10.50782 3.10129,-7.42242 1.1036,-14.32027 -9.4336,-32.57812 -3.41169,-5.91145 -6.20312,-11.32367 -6.20312,-12.02734 0,-0.70367 -0.68489,-2.25788 -1.52344,-3.45508 -1.32923,-1.89775 -1.39417,-4.778 -0.49805,-22.47266 0.9591,-18.93818 2.06785,-33.55447 3.55469,-46.86914 l 0.62305,-5.57226 7.17187,-2.11329 c 13.04578,-3.84212 23.99828,-8.51291 27.51563,-11.73632 2.98395,-2.73459 3.52948,-3.95506 3.92968,-8.78125 0.37464,-4.51753 0.0516,-6.27245 -1.66796,-9.05469 -3.05645,-4.94544 -9.56352,-9.94775 -21.86133,-16.80469 -5.90883,-3.29461 -11.08382,-6.32514 -11.5,-6.73437 -0.99775,-0.98112 6.31056,-70.76008 7.5039,-71.64649 0.13915,-0.10336 2.84371,-1.35644 6.01172,-2.78516 10.93404,-4.93106 27.8576,-20.3317 31.73828,-28.88281 4.48325,-9.8789 1.47174,-21.4305 -7.84765,-30.10351 -4.73351,-4.40521 -17.78887,-11.71289 -20.92578,-11.71289 -0.73262,0 -6.14446,-1.66853 -12.02735,-3.70899 l -10.69726,-3.71094 -29,-0.36328 c -26.4363,-0.33148 -29.91324,-0.17708 -39.33399,1.7461 -5.68389,1.16032 -12.4786,2.92401 -15.09961,3.91992 -7.14905,2.71642 -15.45437,8.62628 -18.68945,13.29883 -2.59092,3.74217 -2.87695,4.96136 -2.87695,12.25976 0,7.16815 0.38691,8.88799 3.34179,14.88867 1.83747,3.73146 5.5359,9.42272 8.21875,12.64649 l 4.87696,5.86133 -8.71875,7.23828 c -4.79531,3.98089 -10.51875,8.92325 -12.71875,10.98437 l -4,3.74805 -16,0.43555 c -12.63028,0.34346 -17.21409,0.85917 -21.76758,2.44726 l -5.76953,2.01172 -0.57031,-2.60156 c -1.40928,-6.41424 -2.66306,-8.97222 -5.96875,-12.17383 -3.34159,-3.23639 -3.91449,-3.42214 -10.23243,-3.33984 -7.75948,0.10101 -14.13423,2.59398 -31.59179,12.35156 -5.99557,3.35111 -10.97601,5.97227 -11.06641,5.82617 -4.72378,-7.63534 -17.74508,-23.97706 -25.82422,-32.4082 l -4.92773,-5.14258 2.35937,-3.20117 c 2.06027,-2.79616 2.34292,-4.23642 2.22461,-11.35742 -0.13927,-8.38284 -3.3489,-20.73382 -7.52344,-28.95118 -5.8829,-11.5802 -23.77447,-23.25473 -44.34179,-28.93359 -6.00601,-1.65832 -13.90334,-2.50726 -22.25391,-2.61328 z m -1.14062,23.25 c 10.82947,0.13834 20.38826,2.71033 31.44336,8.13867 11.61373,5.70266 14.93225,9.13459 17.9121,18.5332 l 2.33008,7.35157 -4.32031,3.80273 c -4.92054,4.33124 -6.17749,8.09342 -4.45117,13.32422 1.02148,3.0951 0.93419,3.83761 -0.66992,5.60938 -1.73254,1.91362 -1.88091,5.2415 -2.34961,53.18554 -0.49133,50.25853 -0.5347,51.14931 -2.5,51.27539 -1.1,0.0706 -14.15,-0.90567 -29,-2.16992 -14.85,-1.26425 -27.48744,-2.33511 -28.08399,-2.37891 -0.72536,-0.0533 -0.93301,-2.81293 -0.62695,-8.33007 0.25172,-4.5375 0.55613,-8.36634 0.67773,-8.50977 0.1216,-0.14344 5.12873,0.49197 11.12696,1.41211 5.99823,0.92013 14.15886,1.71147 18.13476,1.75977 6.62521,0.0805 7.46033,-0.14243 10,-2.6836 2.35054,-2.35193 2.77149,-3.60176 2.77149,-8.22851 0,-7.93476 -2.25863,-9.81535 -15,-12.4961 -5.5,-1.15718 -13.8716,-2.37001 -18.60352,-2.69336 l -8.60351,-0.58789 -0.61133,-14.61133 c -0.53169,-12.69963 -1.65106,-23.78771 -4.26758,-42.26562 -0.49496,-3.49544 -0.25568,-5.2329 0.96289,-6.97266 2.23027,-3.18416 2.03269,-7.99875 -0.53711,-13.09179 -4.4265,-8.7728 -9.97767,-12.19955 -16.03515,-9.89649 -2.54402,0.96723 -2.75892,0.80012 -4.35938,-3.39062 -2.1491,-5.62734 -1.4098,-8.49188 3.5918,-13.91797 5.41661,-5.87633 13.09051,-9.08797 26.46289,-11.07422 4.40746,-0.65466 8.50678,-1.02429 12.42187,-1.08984 0.73408,-0.0123 1.46163,-0.0131 2.1836,-0.004 z m 281.03515,20.72461 c 3.05441,-0.0107 6.28861,0.0239 9.7168,0.10156 18.68053,0.42306 22.3269,0.76729 26.64258,2.51367 2.75,1.11282 8.68917,3.01692 13.19726,4.23243 8.13548,2.19356 15.77156,6.19184 16.76367,8.77734 0.75113,1.95738 -1.90379,5.533 -7.79101,10.49219 -7.11506,5.99348 -12.07285,8.68811 -18.06836,9.82421 -7.38373,1.39919 -10.13578,4.58634 -12.02734,13.92579 -1.93245,9.54132 -4.08708,26.30566 -6.53711,50.86523 -1.06246,10.6503 -2.15011,19.58175 -2.41602,19.84766 -0.26591,0.26592 -3.08973,-0.4917 -6.27539,-1.6836 -7.08245,-2.64988 -10.92285,-2.12322 -14.91992,2.04883 -2.41493,2.52064 -2.92578,3.90244 -2.92578,7.92188 0,6.72973 3.32183,10.02752 14.25586,14.15429 7.39959,2.79278 8.32645,3.41633 7.83203,5.25782 -0.30849,1.14901 -0.56622,5.12539 -0.57422,8.83789 l -0.0137,6.75 -16.25,-0.16797 c -8.9375,-0.0925 -17.91244,-0.34266 -19.94531,-0.55664 l -3.69727,-0.38868 0.53711,-5.19335 c 0.29496,-2.85607 1.6199,-14.00752 2.94531,-24.78125 1.32541,-10.77373 2.41016,-20.92662 2.41016,-22.5625 0,-2.0234 0.98823,-3.91403 3.08984,-5.91211 3.80516,-3.61771 5.91016,-7.51421 5.91016,-10.9375 0,-3.40706 -2.50825,-8.16709 -5.00977,-9.50586 -1.83475,-0.98193 -1.99023,-2.11078 -1.99023,-14.50977 0,-13.3438 0.0183,-13.45147 2.39062,-14.04687 1.31473,-0.32998 3.67723,-1.94237 5.25,-3.58399 2.34584,-2.44853 2.85938,-3.85952 2.85938,-7.85351 0,-4.00615 -0.51217,-5.40219 -2.89063,-7.88477 -1.5898,-1.65939 -4.24338,-3.31464 -5.89648,-3.67773 -1.65311,-0.36308 -4.7019,-2.4452 -6.77735,-4.62696 -3.53684,-3.718 -4.09231,-3.9511 -8.83789,-3.69922 -6.09667,0.32358 -8.5163,-1.52674 -12.78515,-9.77929 -2.76881,-5.35269 -2.78203,-5.45292 -0.8125,-6.63282 8.68547,-5.20307 21.25978,-7.49166 42.64062,-7.5664 z M 410.20703,646.0625 c 0.11057,-0.018 0.23019,-0.002 0.35938,0.0449 1.24016,0.44881 3.37083,3.80344 7.01757,8.625 11.23932,14.86015 11.59085,15.44649 12.40821,20.69922 0.63838,4.10253 1.55007,5.88151 4.32812,8.44727 1.93539,1.7875 4.35053,3.25 5.36719,3.25 1.10366,0 3.30595,2.11539 5.4668,5.25 1.9905,2.8875 5.65698,7.24868 8.14843,9.6914 l 4.53125,4.44141 -2.73437,1.88476 c -1.50303,1.03702 -6.30879,3.65084 -10.67969,5.8086 -4.37091,2.15776 -8.64591,3.88945 -9.5,3.84765 -1.8339,-0.0897 -22.8206,-9.48592 -24.73437,-11.07421 -1.04019,-0.86328 -1.31253,-7.66024 -1.29493,-32.22266 0.0148,-20.69184 -0.34205,-28.42411 1.31641,-28.69336 z m 176.66016,2.04883 0,12.50976 c 0,6.87968 -0.17064,12.50782 -0.37891,12.50782 -0.20827,0 -0.94145,-1.36102 -1.63086,-3.02539 -0.68941,-1.66438 -3.38937,-4.94559 -5.99804,-7.29102 l -4.74219,-4.26367 6.375,-5.21875 6.375,-5.21875 z m -104.61133,14.05469 c 1.87036,-0.078 -0.5818,11.46493 -4.04492,19.04101 -1.99169,4.35713 -3.92436,7.92188 -4.29492,7.92188 -1.00267,0 -5.32152,-4.84426 -9.3379,-10.47461 l -3.54687,-4.97266 10.16797,-5.74023 c 5.59265,-3.15646 10.56842,-5.75499 11.05664,-5.77539 z m 41.91406,11.19726 c 0.4348,0.0272 0.66969,0.15998 0.6582,0.4082 -0.0218,0.47213 -2.04682,3.03937 -4.5,5.70508 -3.10428,3.37326 -4.46093,4.30863 -4.46093,3.07813 0,-0.97241 -0.73925,-2.58561 -1.64453,-3.58594 -1.552,-1.71494 -1.44963,-1.90198 1.80468,-3.26172 3.72609,-1.55686 6.83819,-2.42532 8.14258,-2.34375 z m 32.12696,3.01172 c 0.574,-0.0328 0.94148,0.38655 1.64062,0.74805 5.93556,3.06907 6.92969,4.87253 6.92969,12.57617 l 0,7.22266 -9.88281,8.55859 c -5.43624,4.70734 -12.65378,11.67362 -16.03711,15.48047 -5.81606,6.54411 -6.42716,6.94715 -11.20508,7.40625 -7.33378,0.70468 -10.375,3.99016 -10.375,11.20508 0,6.04089 2.51661,9.84172 7.31054,11.04492 1.44126,0.36174 4.5232,1.52617 6.84961,2.58593 2.3264,1.0598 4.67113,1.92579 5.20899,1.92579 1.71773,0 7.14509,6.09703 8.66406,9.73242 1.8336,4.38845 1.92157,12.64725 0.15039,14.11719 -2.92456,2.42717 -14.95046,5.26237 -28.18359,6.64648 -21.08796,2.20567 -45.6384,1.5352 -55.14649,-1.50586 -5.15518,-1.64882 -5.64862,-2.24887 -4.29101,-5.22852 0.84364,-1.85158 2.18513,-2.70605 4.93945,-3.14648 5.35132,-0.85571 9.99805,-6.27619 9.99805,-11.66406 0,-3.11687 -0.72198,-4.76894 -3.33399,-7.61914 -2.9607,-3.23068 -3.99947,-3.69129 -9.25,-4.10352 -3.25312,-0.25541 -6.69393,-1.14828 -7.64648,-1.98437 -1.62558,-1.42685 -1.54885,-1.73025 1.25,-4.91797 2.20301,-2.50909 2.98047,-4.4004 2.98047,-7.24024 0,-3.39483 0.37967,-3.99875 3.25,-5.18359 1.7875,-0.73786 6.16238,-3.33268 9.7207,-5.76563 l 6.46875,-4.42382 6.72266,7.39453 c 6.64935,7.31265 6.77873,7.39258 11.73242,7.39258 4.72192,0 5.33055,-0.31483 10.63867,-5.5 3.09672,-3.025 6.48762,-6.84646 7.53516,-8.49219 1.04754,-1.64573 9.223,-11.0874 18.16797,-20.98242 19.89885,-22.01231 23.47132,-26.18095 25.19336,-26.2793 z m -57.69532,20.07422 c 0.0382,-0.002 0.0727,0.005 0.10352,0.0215 0.36407,0.19272 1.49793,0.64845 2.51953,1.01368 1.66157,0.59401 1.45853,1.11131 -1.9375,4.90429 -4.26572,4.76432 -4.98707,5.24741 -5.81836,3.90235 -0.65678,-1.0627 3.94888,-9.77253 5.13281,-9.8418 z m -198.81445,12.83984 c 0.0944,-7.3e-4 0.18209,0.0111 0.26172,0.0371 0.63699,0.2083 0.81836,1.2791 0.81836,3.30274 0,3.59387 -0.73902,3.98939 -5.25,2.81054 -2.43546,-0.63645 -2.18828,-1.82103 0.88476,-4.23828 1.59004,-1.25072 2.62443,-1.90695 3.28516,-1.91211 z m 281.78125,12.13672 c 0.0289,-0.002 0.0553,0.005 0.0781,0.0215 0.18286,0.13112 0.18174,0.84171 0.14649,2.24023 -0.0408,1.61762 -0.39257,4.96641 -0.7832,7.44141 -0.68614,4.3473 -0.75477,4.4199 -2.01758,2.14453 -1.488,-2.68111 -0.83148,-7.62795 1.40625,-10.58594 0.6109,-0.80764 0.96763,-1.25113 1.16992,-1.26172 z m 85.88867,20.23047 c 0.29088,0.0424 0.7185,0.27237 1.3457,0.66406 1.06442,0.66474 1.71329,1.56985 1.44141,2.00977 -0.98976,1.60147 -3.37695,0.74678 -3.37695,-1.20899 0,-0.86789 0.067,-1.3298 0.34179,-1.44336 0.0687,-0.0284 0.15109,-0.0356 0.24805,-0.0215 z m -344.58984,3.19727 6.25,0.58593 c 3.4375,0.32286 16.94119,1.3678 30.00781,2.32032 l 23.75781,1.73046 -0.53515,9.07032 c -1.54447,26.19968 -2.67404,43.09107 -3.48243,52.06836 -0.49526,5.5 -0.92251,13.22852 -0.94921,17.17382 -0.043,6.34655 0.25867,7.53765 2.61328,10.33594 1.46374,1.73955 3.68877,3.55351 4.94531,4.03125 2.20123,0.83691 2.22828,0.98382 0.72266,4.00196 -1.00039,2.00531 -1.35516,4.41637 -0.98438,6.70117 0.59709,3.67945 5.02081,9.25586 7.3418,9.25586 3.30677,0 0.25532,1.97199 -12.38086,8 l -13.62695,6.5 -13.08985,0.16211 c -17.16656,0.21232 -22.23383,-0.66299 -32.08203,-5.54297 -8.25346,-4.08975 -17.07063,-11.91415 -16.24609,-14.41797 0.21735,-0.66 2.38458,-2.64318 4.8164,-4.40625 8.77212,-6.35975 10.81459,-8.44262 12.43946,-12.69727 1.5582,-4.08011 1.54017,-4.8557 -0.30665,-13.71094 -1.76341,-8.45535 -1.83684,-10.3782 -0.73828,-19.38671 0.67071,-5.5 2.02614,-11.9445 3.01172,-14.32227 1.86856,-4.508 1.74005,-12.0757 -0.42773,-25.17773 -0.5005,-3.025 -0.94222,-9.27523 -0.98242,-13.88868 l -0.0742,-8.38671 z m 279.43164,26.68945 5.03515,0.7207 c 2.769,0.39604 11.67566,0.75277 19.79297,0.79297 l 14.75782,0.0723 -0.54493,5.75 c -0.29957,3.1625 -0.79707,8 -1.10546,10.75 -0.74433,6.63712 -2.2475,36.53751 -3.26954,65 -0.64874,18.06664 -0.5509,23.58986 0.46094,25.75 l 1.28906,2.75 -17.17382,-0.0996 c -21.15706,-0.12189 -37.94942,-2.6474 -49.41407,-7.43555 -4.17556,-1.7439 -3.49008,-3.7274 2.625,-7.60547 2.51825,-1.59703 6.94982,-5.6226 9.84766,-8.94531 4.59346,-5.26695 5.26291,-6.57688 5.22461,-10.22656 -0.0241,-2.30243 -0.67816,-5.96689 -1.45313,-8.14258 -1.36248,-3.82517 -1.29117,-4.19292 2.14258,-11.14063 2.6282,-5.31782 3.77008,-9.22809 4.39453,-15.04492 0.46403,-4.32256 2.31667,-15.75365 4.11719,-25.40234 l 3.27344,-17.54297 z"
       style="fill:url(#linearGradient5694)" />
    <path
       id="path5845"
       d="m 655.51953,119.16797 c -5.74435,-0.092 -11.82765,0.23699 -16.21875,1.01953 -20.77629,3.70256 -37.69622,12.07698 -50.31445,24.90625 -7.56603,7.69256 -10.46597,13.67686 -10.92383,22.53516 -0.33762,6.53217 -0.0921,7.53775 3.67578,15.03515 5.18773,10.32274 16.312,22.48612 25.44727,27.82422 l 6.60547,3.85938 -2.43164,3.58007 c -1.33774,1.96864 -2.95653,5.92226 -3.59766,8.78711 l -1.16602,5.20899 -7.11328,0.38086 c -7.64032,0.40885 -14.78116,3.24443 -18.71484,7.43164 l -2.13086,2.26758 -3.63477,-2.39844 c -5.62372,-3.7118 -10.63732,-5.08912 -23.54687,-6.47266 -19.56657,-2.09698 -43.28884,0.48572 -58.18946,6.33594 -4.57771,1.79728 -7.34664,2.27551 -11.08789,1.91602 -4.50457,-0.43283 -5.33356,-0.17495 -8.57812,2.67382 -5.16618,4.53596 -5.42871,7.30445 -1.7168,18.11524 3.91357,11.39812 3.62326,12.75607 -4.25586,19.82422 l -2.64062,2.36914 -2.69531,-2.11914 c -3.70273,-2.91256 -9.44116,-2.80922 -13.09571,0.23633 -1.5547,1.2956 -4.5561,2.67392 -6.66797,3.0625 -4.62508,0.85097 -11.9194,7.20913 -14.84179,12.9375 -1.10712,2.17011 -2.30699,6.88358 -2.66602,10.4746 l -0.65234,6.5293 -6.25,4.91406 -6.25,4.91211 0,-17.18554 0,-17.18555 7.51758,-8.0918 c 6.28758,-6.76797 7.84106,-9.1407 9.5,-14.51172 5.2039,-16.84826 0.35562,-28.09186 -15.13868,-35.11328 -7.1853,-3.2561 -7.81499,-4.22101 -7.90039,-12.09765 -0.0268,-2.475 -0.69215,-7.425 -1.47851,-11 -2.55054,-11.59548 -2.71686,-11.25019 7.25,-15.04688 4.8125,-1.83324 11.03811,-4.76843 13.83398,-6.52344 7.43015,-4.66403 15.78026,-13.24157 18.91602,-19.42968 2.34489,-4.62742 2.66453,-6.24583 2.21484,-11.20508 -1.26357,-13.93488 -13.43781,-23.76386 -34.92969,-28.20313 -14.05546,-2.90324 -53.21394,-1.23632 -64.35546,2.74024 -12.73148,4.54404 -24.49766,14.13723 -28.66797,23.375 -3.06451,6.78831 -3.01742,18.64721 0.10547,26.53906 3.77372,9.53656 11.81849,17.11418 21.38281,20.13867 1.55238,0.4909 1.74767,2.05238 1.73047,13.83399 -0.0107,7.30476 -0.66994,17.78125 -1.4668,23.28125 -0.79687,5.5 -1.46502,10.2897 -1.48242,10.64257 -0.0174,0.35288 -1.21277,0.93801 -2.65821,1.30079 -8.59476,2.15714 -26.5739,18.57499 -31.31445,28.5957 -5.29358,11.18975 -3.89953,19.4038 4.69336,27.66015 3.05715,2.93744 6.6145,5.60597 7.9043,5.92969 1.28981,0.32372 2.34375,0.78095 2.34375,1.01563 0,1.56608 -8.15483,32.72144 -9.39844,35.9082 -6.09629,15.61621 -7.16421,30.99571 -2.82617,40.71484 3.06368,6.86398 10.74709,13.92792 18.54297,17.04883 10.52642,4.21401 17.79273,4.99545 41.08398,4.41992 18.22712,-0.45039 22.39085,-0.86014 30.59766,-3.01757 10.21351,-2.68496 19.30296,-6.3732 24.06445,-9.76368 1.63126,-1.16157 7.58912,-4.46069 13.24024,-7.33203 5.65108,-2.87134 13.29272,-7.37489 16.98242,-10.00781 l 6.70898,-4.78711 6.1582,5.57227 c 8.15018,7.37549 14.13155,9.59961 25.81836,9.59961 10.48634,0 13.22748,-0.86601 18.36328,-5.8086 7.01942,-6.75532 8.15121,-10.06205 8.15821,-23.82617 l 0.006,-12.13476 5.54687,2.79687 c 7.31664,3.68907 14.81411,4.97266 29.03711,4.97266 l 11.7168,0 7.09961,8.16211 7.09765,8.1621 -2.74804,1.70508 c -9.69383,6.014 -11.55241,16.51402 -4.22071,23.84571 6.4481,6.4481 22.7758,13.63766 42.47071,18.69921 12.59518,3.23697 13.6228,3.34059 33,3.36329 20.60808,0.0242 36.6221,-1.50601 46.22265,-4.41602 3.80743,-1.15406 5.97164,-2.56503 7.98828,-5.20898 5.92909,-7.77342 3.64697,-24.28946 -5.52734,-39.99805 -4.52294,-7.74434 -10.18629,-13.29027 -17.00976,-16.6543 -3.99066,-1.96743 -4.28101,-2.36804 -3.71094,-5.14648 1.29928,-6.33245 2.47981,-28.79874 2.50781,-47.72461 l 0.0293,-19.71094 4.25,-1.0957 c 12.70912,-3.27385 20.651,-8.07978 23.67578,-14.32813 3.98252,-8.2268 2.31067,-14.38158 -6.03516,-22.20898 -5.84756,-5.48433 -16.28112,-12.88359 -20.34765,-14.42969 -2.49706,-0.94936 -2.54297,-1.14896 -2.54297,-11.33984 0,-5.70563 0.29258,-13.70491 0.65039,-17.77539 l 0.65039,-7.40039 9.09961,-4.3086 c 5.00469,-2.36944 11.23043,-5.85612 13.83398,-7.74804 5.19654,-3.77615 12.27813,-12.16974 16.82422,-19.94336 6.25783,-10.70065 2.39305,-22.57659 -9.30859,-28.60743 -4.43388,-2.28516 -30.45917,-12.13437 -37.91211,-14.34765 -3.03572,-0.90151 -8.4412,-1.41384 -14.18555,-1.50586 z m -1.96484,23.96289 c 8.39962,-0.002 10.19852,0.37436 21,4.39258 18.8027,6.99471 19.51442,7.36136 18.38867,9.46484 -1.99819,3.73364 -9.62999,9.52649 -16.97852,12.88672 -9.07073,4.14773 -12.85362,7.44309 -13.69531,11.92969 -0.34306,1.82866 -1.16997,3.32422 -1.83789,3.32422 -0.66791,0 -2.21934,1.06806 -3.44531,2.37304 -2.52165,2.68418 -5.07036,16.41534 -5.10156,27.48438 -0.016,5.66142 -0.20906,6.27731 -1.76758,5.6289 -0.9625,-0.40044 -3.87886,-0.9549 -6.48242,-1.23242 -3.44376,-0.36708 -5.44494,-0.0397 -7.3418,1.20313 l -2.60742,1.70898 2.21289,-2.99414 c 1.89003,-2.55638 2.15226,-3.95258 1.79492,-9.56445 -0.50966,-8.00417 -2.1794,-10.05553 -13.81445,-16.97656 -4.38233,-2.6068 -9.37403,-6.14746 -11.09375,-7.86719 -3.75501,-3.75501 -10.39337,-12.60178 -11.21289,-14.94336 -1.28722,-3.67791 9.78129,-14.57219 20.04101,-19.72461 7.89343,-3.96407 21.97261,-7.09075 31.94141,-7.09375 z m -264.73828,9.06836 c 8.81609,-0.0571 16.78378,0.27894 19.55078,1.03516 6.71164,1.83427 13.5,5.06923 13.5,6.43359 0,0.71053 -2.03546,3.08343 -4.52344,5.27344 -3.25995,2.86952 -8.21838,5.42579 -17.75,9.15234 -16.61352,6.49534 -19.88913,9.38107 -19.67187,17.32031 0.0785,2.86877 -0.1827,7.33078 -0.58008,9.91602 -0.48626,3.16342 -0.20661,6.76035 0.85547,11 0.86797,3.46476 1.83,8.22035 2.13867,10.56836 0.49612,3.77394 0.29905,4.37119 -1.70313,5.14453 -7.55245,2.91712 -9.92038,13.18454 -4.375,18.97265 1.5898,1.65939 4.1152,3.28468 5.61133,3.61329 2.71051,0.59532 2.72162,0.63771 3.39453,11.79882 0.37142,6.16062 0.91202,12.55118 1.20117,14.20118 0.50644,2.88991 0.29504,3.09059 -5.78515,5.43554 -3.4715,1.33885 -9.23855,3.87494 -12.81446,5.63672 -3.57592,1.76178 -8.94523,3.92954 -11.93164,4.81641 -2.98642,0.88687 -5.55531,1.61133 -5.71093,1.61133 -0.15563,0 0.64104,-2.1375 1.77148,-4.75 9.85735,-22.78067 12.37305,-37.67639 12.37305,-73.25 l 0,-26.5 -3.36133,-6.5 c -5.46706,-10.56995 -10.66107,-15 -17.58789,-15 -4.23507,0 -4.39679,-0.84151 -0.94531,-4.94336 4.7028,-5.58896 10.54672,-8.19052 21.70703,-9.66602 6.15657,-0.81395 15.82062,-1.26326 24.63672,-1.32031 z m 242.05078,83.72266 3.41797,3.00195 c 2.85472,2.50648 7.03239,4.4783 16.33203,7.70898 0.86626,0.30094 1.25,3.01003 1.25,8.82813 l 0,8.39648 -4.63867,0.63672 c -2.55177,0.34975 -6.98676,0.63477 -9.85547,0.63477 l -5.2168,0 -0.63672,-6.75 c -0.35062,-3.7125 -0.64053,-10.28405 -0.64453,-14.60352 l -0.008,-7.85351 z m -26.75,19.23632 c 3.50651,-0.0274 3.75,0.1655 3.75,2.97071 0,1.65 -0.21806,3.00002 -0.48438,3 -0.26633,0 -1.95383,-1.33683 -3.75,-2.97071 l -3.26562,-2.9707 3.75,-0.0293 z m -65.51367,1.06836 c 4.44804,0.035 8.78027,0.30673 12.75,0.83789 4.94187,0.66124 9.16955,1.38831 9.39648,1.61524 0.22693,0.22693 -0.7084,2.10297 -2.08008,4.16992 -2.38994,3.60132 -2.72943,3.75923 -8.1289,3.76953 -4.97144,0.01 -6.00338,0.37846 -8.76368,3.13867 -2.26724,2.26717 -3.26543,4.33923 -3.625,7.5293 -0.67352,5.97544 1.23901,10.02503 8.42578,17.8418 4.88248,5.31048 6.08291,7.30605 6.5586,10.90625 0.74691,5.65282 4.80936,9.91378 10.28125,10.7832 2.83675,0.45073 5.70905,2.16505 10.18945,6.08203 6.33735,5.54042 6.75918,6.71886 2.91406,8.15625 -5.92552,2.21509 -6.15395,2.1703 -10.19921,-2.0293 -6.993,-7.25979 -34.65301,-29.25793 -41.18165,-32.75195 -1.17777,-0.63033 -3.72985,-1.14648 -5.67187,-1.14648 -4.24415,0 -10.03933,4.59088 -11.06055,8.76171 -0.70491,2.879 -9.17268,12.23829 -11.07226,12.23829 -0.60869,0 -4.45013,-3.09683 -8.53711,-6.88282 l -7.43164,-6.88476 6.2832,-6.56445 c 8.61233,-8.99778 10.73403,-13.91523 10.49219,-24.32618 l -0.18946,-8.1582 4.07618,-1.63086 c 8.83631,-3.5356 23.23009,-5.56005 36.57422,-5.45508 z m 43.51562,14.94336 5.125,4.63086 c 5.47983,4.95214 10.28614,7.47487 17.8418,9.36719 3.16165,0.79183 4.92192,1.82976 5.33984,3.14648 0.72493,2.28407 -0.0203,3.49499 -1.08789,1.76758 -2.73221,-4.4208 -19.16376,-7.0287 -31.3418,-4.97461 -8.15772,1.37598 -11.51843,0.27544 -6.50195,-2.1289 1.55322,-0.74443 4.57974,-3.70467 6.72461,-6.58008 l 3.90039,-5.22852 z m 71.74805,16.4082 0,15.70313 c 0,8.63669 -0.42254,18.99809 -0.93946,23.02539 -0.51693,4.0273 -1.22601,11.60856 -1.57617,16.84766 -0.60285,9.02012 -0.78126,9.60938 -3.35742,11.08789 -2.67481,1.53513 -2.78309,1.48995 -6.42383,-2.69531 l -3.70312,-4.25782 -0.008,-15.83008 c -0.005,-8.70661 -0.69269,-21.63118 -1.52735,-28.7207 -0.83466,-7.08952 -1.39238,-12.98826 -1.24023,-13.10937 0.15214,-0.1211 4.43789,-0.6314 9.52539,-1.13477 l 9.25,-0.91602 z m -266.53711,17.55079 c 0.29613,0 0.53711,9.75268 0.53711,21.67187 0,19.23597 -0.19665,21.88904 -1.75,23.60547 -1.20456,1.33103 -1.75,3.59 -1.75,7.24805 0,6.60002 2.29068,9.37633 10.35547,12.55078 3.10453,1.222 8.06516,3.56954 11.02343,5.21875 l 5.37891,3 -3.87891,2.36719 c -2.13327,1.30197 -7.4789,3.56653 -11.8789,5.0332 -7.57808,2.52604 -9.18665,2.68154 -30.5,2.94726 -12.375,0.15428 -23.6273,-0.0839 -25.00586,-0.52929 -5.71686,-1.84704 -9.20493,-4.37483 -10.58008,-7.66602 -1.70198,-4.07342 -1.06928,-7.69934 4.08789,-23.44726 1.89121,-5.775 4.3663,-14.775 5.5,-20 1.13371,-5.225 2.73693,-11.57668 3.56445,-14.11524 l 1.50586,-4.61523 6.33008,-0.64844 c 8.49436,-0.87028 15.20272,-2.92296 26.81055,-8.20312 5.34137,-2.42969 9.95387,-4.41797 10.25,-4.41797 z m 74.9375,12.0664 6.55078,6.15039 c 3.60259,3.3819 7.19418,6.72794 7.98242,7.43555 1.23792,1.11131 1.19387,1.55105 -0.32422,3.22852 -0.96663,1.06811 -4.39738,4.01459 -7.62304,6.54882 l -5.86329,4.60743 -2.92773,-4.26758 c -3.73487,-5.44803 -8.4013,-14.66417 -8.00195,-15.80274 0.16882,-0.48133 2.5354,-2.45494 5.25781,-4.38672 l 4.94922,-3.51367 z m 66.07226,10.37305 c 0.0254,-0.003 0.0575,0.002 0.0977,0.0156 0.32091,0.10977 1.12105,0.77126 2.55078,2.03711 1.85879,1.64574 3.80758,3.33324 4.33008,3.75 1.46685,1.17 0.32875,0.82972 -2.67578,-0.80078 -1.49867,-0.8133 -3.2438,-2.4818 -3.87891,-3.70898 -0.42744,-0.82593 -0.60178,-1.26877 -0.42383,-1.29297 z m -96.88086,12.81836 c 1.09451,1.09452 11.40821,18.09345 11.40821,18.80273 0,0.46424 -1.99309,2.21616 -4.42969,3.89258 -2.43659,1.67642 -4.57409,3.03037 -4.75,3.00977 -0.1759,-0.0206 -2.09051,-1.55281 -4.25391,-3.4043 -2.1634,-1.85149 -6.00746,-4.61637 -8.54297,-6.14453 l -4.60937,-2.7793 7.4082,-6.86914 c 4.07468,-3.77809 7.57087,-6.70647 7.76953,-6.50781 z m 168.76758,4.76562 c 0.47278,-0.0124 3.81633,2.84698 7.42969,6.35547 6.3287,6.14502 6.53489,6.49922 5.62891,9.65821 -0.79394,2.7683 -1.73041,3.54797 -6.01368,5.0039 l -5.07421,1.72461 -6.58789,-8.13281 -6.5879,-8.13281 5.17383,-3.22657 c 2.84522,-1.77508 5.55847,-3.2376 6.03125,-3.25 z m -108.42773,7.97657 c 1.63923,0 3.28706,8.0564 2.59375,12.67968 -0.54623,3.64251 -0.99094,4.29839 -2.83594,4.1836 -4.78175,-0.29752 -7.32738,-1.14966 -10.41406,-3.48633 l -3.22656,-2.44141 6.44531,-5.46679 c 3.54496,-3.00728 6.89214,-5.46875 7.4375,-5.46875 z m 180.92773,29.375 c 0.34604,0.10458 0.76124,0.65759 1.44922,1.7207 0.85568,1.32225 2.47705,4.76082 3.60352,7.64062 l 2.04882,5.23633 -2.23046,0.48047 c -1.22644,0.26499 -6.28047,0.94555 -11.23047,1.51172 -9.45943,1.08193 -27.06653,1.15124 -34.22266,0.13477 -3.44401,-0.4892 -4.04647,-0.87623 -3.26562,-2.09961 1.24847,-1.95597 1.25844,-8.62893 0.0156,-10.95118 -0.84111,-1.57162 -0.40288,-1.964 3.22461,-2.88476 3.36933,-0.85522 4.51319,-0.78159 5.78906,0.37305 2.47975,2.24415 7.20974,2.77617 10.98828,1.23437 3.17784,-1.2967 3.6795,-1.23062 6.83985,0.91406 1.87593,1.27304 4.71974,2.31446 6.32031,2.31446 3.47592,0 8.34939,-2.35396 9.63672,-4.6543 0.40934,-0.73146 0.68717,-1.07529 1.0332,-0.9707 z"
       style="fill:url(#linearGradient5694)" />
  </g>
</svg>
