<?xml version="1.0" encoding="UTF-8" standalone="no"?>
<svg
   xmlns:osb="http://www.openswatchbook.org/uri/2009/osb"
   xmlns:dc="http://purl.org/dc/elements/1.1/"
   xmlns:cc="http://creativecommons.org/ns#"
   xmlns:rdf="http://www.w3.org/1999/02/22-rdf-syntax-ns#"
   xmlns:svg="http://www.w3.org/2000/svg"
   xmlns="http://www.w3.org/2000/svg"
   xmlns:xlink="http://www.w3.org/1999/xlink"
   version="1.1"
   id="svg2985"
   height="956.92896"
   width="551.72528">
  <defs
     id="defs5498">
    <linearGradient
       osb:paint="solid"
       id="linearGradient4756">
      <stop
         id="stop4758"
         offset="0"
         style="stop-color:#ffffff;stop-opacity:1;" />
    </linearGradient>
    <linearGradient
       osb:paint="solid"
       id="linearGradient4750">
      <stop
         id="stop4752"
         offset="0"
         style="stop-color:#000000;stop-opacity:1;" />
    </linearGradient>
    <linearGradient
       osb:paint="solid"
       id="linearGradient5694">
      <stop
         id="stop5696"
         offset="0"
         style="stop-color:#002b11;stop-opacity:1;" />
    </linearGradient>
    <linearGradient
       osb:paint="solid"
       id="linearGradient4712">
      <stop
         id="stop4714"
         offset="0"
         style="stop-color:#162d50;stop-opacity:1;" />
    </linearGradient>
    <linearGradient
       osb:paint="solid"
       id="linearGradient4706">
      <stop
         id="stop4708"
         offset="0"
         style="stop-color:#d40000;stop-opacity:1;" />
    </linearGradient>
    <linearGradient
       gradientUnits="userSpaceOnUse"
       y2="508.69208"
       x2="761.44257"
       y1="508.69208"
       x1="262.13925"
       id="linearGradient4716"
       xlink:href="#linearGradient4712" />
    <linearGradient
       gradientUnits="userSpaceOnUse"
       y2="500.0004"
       x2="771.30902"
       y1="500.0004"
       x1="228.69211"
       id="linearGradient4754"
       xlink:href="#linearGradient4750" />
    <linearGradient
       gradientUnits="userSpaceOnUse"
       y2="500.10483"
       x2="752.40271"
       y1="500.10483"
       x1="248.61133"
       id="linearGradient4760"
       xlink:href="#linearGradient4756" />
    <linearGradient
       y2="508.69208"
       x2="761.44257"
       y1="508.69208"
       x1="262.13925"
       gradientUnits="userSpaceOnUse"
       id="linearGradient501"
       xlink:href="#linearGradient4712" />
    <linearGradient
       y2="508.69208"
       x2="761.44257"
       y1="508.69208"
       x1="262.13925"
       gradientUnits="userSpaceOnUse"
       id="linearGradient503"
       xlink:href="#linearGradient4712" />
    <linearGradient
       y2="508.69208"
       x2="761.44257"
       y1="508.69208"
       x1="262.13925"
       gradientUnits="userSpaceOnUse"
       id="linearGradient505"
       xlink:href="#linearGradient4712" />
  </defs>
  <metadata
     id="metadata5594">
    <rdf:RDF>
      <cc:Work
         rdf:about="">
        <dc:format>image/svg+xml</dc:format>
        <dc:type
           rdf:resource="http://purl.org/dc/dcmitype/StillImage" />
        <dc:title />
      </cc:Work>
    </rdf:RDF>
  </metadata>
  <g
     transform="translate(-224.13667,-21.535955)"
     style="display:inline"
     id="layer15">
    <path
       id="path4822"
       d="m 547.12109,39.6875 c -6.10868,0.0013 -12.09543,0.07722 -17.4414,0.226562 -5.34598,0.149338 -10.05118,0.372118 -13.59571,0.669922 -6.325,0.531413 -17.125,1.195269 -24,1.47461 -6.875,0.279341 -19.7,1.375597 -28.5,2.435547 -8.8,1.05995 -21.69352,2.409773 -28.65429,3 -3.48038,0.295113 -7.18946,0.712731 -10.36133,1.148437 -3.17188,0.435706 -5.80655,0.8895 -7.13867,1.25586 -11.45383,3.150037 -24.17145,6.761853 -28.34571,8.050781 -1.87252,0.578198 -4.89772,1.724721 -8.67968,3.265625 -3.78197,1.540903 -8.3211,3.476681 -13.22266,5.632812 -9.80312,4.312263 -21.0552,9.507008 -30.59766,14.195313 -4.25402,2.090043 -7.53434,3.716308 -10.17968,5.097656 -2.64535,1.381348 -4.65565,2.518634 -6.37305,3.632813 -1.7174,1.114178 -3.14114,2.203653 -4.61133,3.492187 -1.47019,1.288534 -2.98691,2.775272 -4.89062,4.679687 -2.46183,2.462738 -4.62858,4.892698 -6.56446,7.410158 -1.93587,2.51746 -3.6414,5.12171 -5.18164,7.93164 -1.54024,2.80993 -2.91453,5.82587 -4.18945,9.16601 -1.27492,3.34015 -2.44993,7.00518 -3.58984,11.11329 -6.26071,22.56288 -12.93187,47.47279 -16.18555,60.4375 -1.89038,7.53246 -7.18174,27.37189 -9.07422,34.02343 -0.85628,3.00962 -1.58755,6.03927 -2.21094,9.23633 -0.62338,3.19706 -1.13824,6.56065 -1.5625,10.23828 -0.42426,3.67763 -0.75866,7.66977 -1.01758,12.1211 -0.25891,4.45132 -0.44297,9.36271 -0.57031,14.88086 -0.13403,5.80785 -0.1493,12.55289 -0.0664,19.62304 0.0829,7.07016 0.26376,14.46624 0.51953,21.57422 0.25577,7.10798 0.58807,13.92827 0.97265,19.84961 0.38459,5.92134 0.82167,10.94291 1.29102,14.45313 2.07716,15.53502 3.60751,26.77666 4.67383,34.95117 1.06631,8.1745 1.66902,13.28105 1.89062,16.54883 0.1108,1.63389 0.12587,2.80848 0.0566,3.67578 -0.0692,0.86729 -0.22268,1.42851 -0.45117,1.83593 -0.45698,0.81486 -1.21221,1.01631 -2.18164,1.83204 l -3.16601,2.66211 0.57031,18.24609 c 0.68287,21.89769 1.12028,49.31779 1.25781,72.70898 0.0688,11.6956 0.0632,22.38321 -0.0254,30.8711 -0.0886,8.48789 -0.25947,14.77518 -0.51953,17.66797 -0.59332,6.6 -1.5633,21.45 -2.15625,33 -0.36454,7.10067 -0.82628,13.32275 -1.39844,18.7832 -0.57216,5.46045 -1.25474,10.15927 -2.05859,14.2168 -2.60159,13.13183 -4.46136,23.24922 -5.73242,31.33789 -0.63554,4.04433 -1.12351,7.58183 -1.48438,10.73437 -0.36087,3.15254 -0.5939,5.92099 -0.71875,8.42774 -0.28764,5.775 -0.97138,15 -1.51953,20.5 -0.54814,5.5 -1.90531,21.7 -3.01758,36 -1.11227,14.3 -2.52315,31.4 -3.13476,38 -0.39973,4.3135 -0.7173,8.96562 -0.95704,13.8457 -0.23973,4.88008 -0.40251,9.98845 -0.49023,15.2168 -0.17544,10.4567 -0.0547,21.39169 0.33008,31.93164 0.38479,10.53995 1.03475,20.68379 1.91601,29.56054 0.44064,4.43838 0.9394,8.56075 1.49219,12.25586 0.5528,3.69512 1.15942,6.96372 1.81641,9.69727 0.92394,3.84431 1.90477,7.17439 3.0332,10.13476 1.12843,2.96038 2.40453,5.55029 3.92188,7.91407 1.51734,2.36377 3.27454,4.50211 5.36523,6.55664 2.09069,2.05452 4.51482,4.02597 7.36328,6.05859 1.75981,1.25577 4.40492,2.82149 7.54883,4.51367 3.14391,1.69218 6.78596,3.51019 10.54101,5.27539 3.75506,1.76521 7.62357,3.47633 11.2168,4.95118 3.59323,1.47484 6.91187,2.71404 9.57031,3.53515 4.67595,1.44426 10.10541,3.41392 16.97852,6.18555 6.8731,2.77162 15.18985,6.3452 25.63867,11 6.89193,3.07025 12.86127,5.60872 18.30469,7.73047 5.44342,2.12174 10.3617,3.82601 15.15039,5.23242 4.78869,1.40641 9.44727,2.51327 14.375,3.4375 4.92773,0.92423 10.12383,1.66658 15.98437,2.3418 2.7735,0.31954 6.3339,0.56105 10.33594,0.72265 4.00205,0.16161 8.44605,0.24297 12.98828,0.2461 4.54224,0.003 9.1821,-0.0726 13.57618,-0.22852 4.39407,-0.15589 8.54204,-0.39159 12.0996,-0.70703 6.875,-0.60958 17.225,-1.94242 23,-2.96094 8.43195,-1.48712 15.96478,-2.67115 24.12305,-3.75586 8.15827,-1.08471 16.94199,-2.07011 27.87695,-3.1582 11.275,-1.12192 21.625,-2.24738 23,-2.5 14.5142,-2.66663 26.47889,-4.91589 36.60743,-6.91406 10.12853,-1.99818 18.42159,-3.74555 25.59375,-5.40625 7.17215,-1.6607 13.22215,-3.23448 18.86718,-4.88868 5.64504,-1.65419 10.88445,-3.38852 16.43164,-5.36718 10.45,-3.72748 24.95763,-8.63505 32.23829,-10.90625 3.64033,-1.13561 8.06672,-2.72764 12.26562,-4.37696 4.1989,-1.64931 8.1703,-3.35592 10.90039,-4.72265 4.52451,-2.26505 7.05486,-3.60892 8.70508,-4.9043 0.82511,-0.64769 1.43087,-1.28274 1.95508,-2.01562 0.52421,-0.73289 0.96699,-1.56313 1.46875,-2.59961 0.60552,-1.25084 1.31243,-3.42175 1.96484,-5.91211 0.65241,-2.49037 1.25031,-5.3002 1.63477,-7.82813 0.91745,-6.03244 2.70147,-23.21234 4.41406,-41.50586 1.71259,-18.29352 3.35374,-37.70066 3.98242,-48.18554 0.54414,-9.075 1.40482,-21.225 1.91406,-27 0.50925,-5.775 1.2273,-15.225 1.59571,-21 0.36842,-5.775 1.55001,-16.35 2.625,-23.5 1.07499,-7.15 2.64986,-17.725 3.5,-23.5 0.30213,-2.05243 0.5599,-4.69505 0.78711,-8.36719 0.2272,-3.67214 0.42415,-8.37428 0.60156,-14.54102 0.35482,-12.33348 0.63489,-30.53058 0.9414,-58.09179 0.40675,-36.57434 1.01792,-69.64266 1.6836,-93.82227 0.33284,-12.0898 0.67956,-21.95776 1.02148,-28.92969 0.34192,-6.97192 0.67829,-11.04873 0.99219,-11.55664 0.19948,-0.32275 0.4631,-5.11748 0.72852,-12.58203 0.26541,-7.46454 0.53261,-17.5989 0.73632,-28.60156 0.20372,-11.00267 0.5122,-21.90418 0.84571,-30.60547 0.3335,-8.70129 0.69202,-15.20234 0.99414,-17.40234 0.43154,-3.14246 0.80469,-12.23402 1.09961,-24.44141 0.29491,-12.20739 0.5108,-27.52994 0.62695,-43.13867 0.11615,-15.60874 0.13406,-31.50312 0.0293,-44.84961 -0.10476,-13.34649 -0.33141,-24.14575 -0.69922,-29.56641 -0.65553,-9.66102 -1.6853,-20.7744 -2.85156,-31.21484 -1.16627,-10.44044 -2.46904,-20.20794 -3.67188,-27.17969 -0.40856,-2.36806 -0.95001,-6.88342 -1.49414,-12.25 -0.54413,-5.36658 -1.09095,-11.58437 -1.50781,-17.35937 -0.53784,-7.45091 -1.15926,-13.90777 -1.95899,-19.74805 -0.79972,-5.84028 -1.7774,-11.06322 -3.02929,-16.05078 -1.25189,-4.98757 -2.77754,-9.7381 -4.67188,-14.63086 -1.89433,-4.89276 -4.1577,-9.92852 -6.88476,-15.484376 -1.89704,-3.864838 -3.99636,-7.66178 -6.19141,-11.251953 -2.19505,-3.590174 -4.48646,-6.973504 -6.76953,-10.009766 -2.28307,-3.036262 -4.55767,-5.726583 -6.71875,-7.929687 -2.16108,-2.203105 -4.20803,-3.919067 -6.03711,-5.009766 -1.43981,-0.858571 -3.95938,-1.98876 -6.85938,-3.119141 -2.9,-1.13038 -6.18043,-2.260952 -9.14062,-3.117187 -5.92038,-1.71247 -15.48123,-4.721031 -21.24609,-6.685547 -3.26442,-1.112428 -6.11424,-2.00038 -9.02149,-2.724609 -2.90724,-0.72423 -5.87118,-1.285315 -9.36719,-1.746094 -3.496,-0.46078 -7.52398,-0.8205 -12.55468,-1.142578 -5.0307,-0.322079 -11.06485,-0.605937 -18.57618,-0.914063 -13.2,-0.541484 -30.075,-1.3829 -37.5,-1.869141 -4.52072,-0.296047 -9.95764,-0.517033 -15.79101,-0.664062 -5.83337,-0.147029 -12.06319,-0.2201 -18.17188,-0.21875 z"
       style="color:#000000;clip-rule:nonzero;display:inline;overflow:visible;visibility:visible;opacity:1;isolation:auto;mix-blend-mode:normal;color-interpolation:sRGB;color-interpolation-filters:linearRGB;solid-color:#000000;solid-opacity:1;fill:url(#linearGradient4756);fill-opacity:1;fill-rule:nonzero;stroke:none;stroke-width:1;stroke-linecap:butt;stroke-linejoin:miter;stroke-miterlimit:4;stroke-dasharray:none;stroke-dashoffset:0;stroke-opacity:1;color-rendering:auto;image-rendering:auto;shape-rendering:auto;text-rendering:auto;enable-background:accumulate" />
    <path
       id="path4820"
       d="m 547.59375,21.535156 c -6.256,-0.0024 -12.51119,0.07536 -17.6875,0.232422 -5.17631,0.157063 -9.27376,0.393378 -11.21289,0.710938 -3.24072,0.53071 -14.26572,1.247461 -24.5,1.591796 -5.11715,0.172168 -11.23163,0.548857 -16.96094,1.017579 -5.72931,0.468721 -11.07344,1.029474 -14.64844,1.568359 -7.15,1.077769 -19.10522,2.373248 -26.56836,2.878906 -6.98998,0.473603 -13.41908,1.206579 -18.89257,2.132813 -2.73675,0.463116 -5.2339,0.974161 -7.44336,1.52539 -2.20947,0.55123 -4.13144,1.14298 -5.71485,1.765625 -1.99087,0.782872 -7.77974,2.400277 -12.86328,3.59375 -2.77938,0.652522 -6.08885,1.657412 -9.96289,3.03125 -3.87404,1.373838 -8.31321,3.11565 -13.35156,5.240235 -5.03836,2.124585 -10.67493,4.632346 -16.94727,7.537109 -6.27233,2.904763 -13.17987,6.207503 -20.75586,9.921875 -9.10811,4.465551 -15.02373,7.488613 -19.28125,9.957031 -2.12876,1.234209 -3.84259,2.330253 -5.33398,3.398438 -1.49139,1.068185 -2.7605,2.108088 -3.99805,3.232422 -3.10359,2.81968 -6.11647,6.041496 -8.9414,9.509765 -2.82493,3.46827 -5.46118,7.182163 -7.81641,10.990231 -2.35523,3.80808 -4.42857,7.70974 -6.12305,11.54883 -0.84724,1.91955 -1.59986,3.82396 -2.24609,5.69336 -0.64623,1.8694 -1.18608,3.70372 -1.60742,5.48438 -1.84686,7.8051 -7.97587,30.39991 -11.63867,42.90625 -1.61082,5.5 -3.42974,12.7 -4.04297,16 -0.61323,3.3 -2.20355,9.6 -3.53321,14 -2.62625,8.69053 -4.98773,17.32593 -6.90234,25.1582 -1.9146,7.83227 -3.38233,14.8614 -4.2207,20.3418 -0.40231,2.62986 -0.73587,5.95754 -1.00391,9.83203 -0.26804,3.87448 -0.47031,8.29534 -0.60937,13.11523 -0.27813,9.63978 -0.30364,20.87195 -0.0977,32.49805 0.20598,11.6261 0.64329,23.64655 1.29102,34.86523 0.64772,11.21868 1.50563,21.63522 2.55273,30.05274 0.64467,5.18238 0.98522,8.56089 1.04297,10.98242 0.0289,1.21077 -0.0127,2.18182 -0.12305,3.01953 -0.11031,0.83771 -0.28872,1.54265 -0.5332,2.21875 -0.23784,0.65781 -0.41623,1.85542 -0.53516,3.87891 -0.11892,2.02348 -0.17763,4.87353 -0.17773,8.83593 -2e-4,7.92481 0.23644,20.3 0.71094,39.41993 0.72743,29.31083 1.1087,56.5928 1.14062,78.32617 0.016,10.86668 -0.0551,20.34625 -0.21484,27.99805 -0.15977,7.65179 -0.4074,13.47664 -0.74414,17.0332 -0.54281,5.73303 -1.43544,18.88751 -1.98438,29.23437 -0.32189,6.06724 -0.78621,11.85103 -1.36523,17.10157 -0.57902,5.25053 -1.27274,9.96782 -2.05274,13.89843 -2.29843,11.58235 -3.93501,20.3888 -5.07226,27.41993 -1.13725,7.03112 -1.77518,12.28691 -2.07617,16.76953 -0.3324,4.95 -1.47124,18.9 -2.53126,31 -1.06001,12.1 -2.36003,26.95 -2.88867,33 -0.52864,6.05 -1.23478,15.725 -1.56836,21.5 -0.33358,5.775 -1.25248,16.89884 -2.04101,24.7207 -0.42752,4.24083 -0.75423,8.28065 -0.98242,12.32422 -0.22819,4.04357 -0.35858,8.09126 -0.39063,12.34375 -0.032,4.25249 0.0344,8.71054 0.19531,13.57812 0.1609,4.86759 0.41693,10.14435 0.76758,16.03321 0.74935,12.58466 1.38935,22.50769 2.05274,30.57617 0.66339,8.06847 1.34988,14.28201 2.18945,19.44531 0.41978,2.58165 0.87765,4.90118 1.39062,7.05859 0.51298,2.15742 1.08177,4.15333 1.72071,6.0879 1.27788,3.86912 2.84003,7.49371 4.81836,11.67968 0.9402,1.9894 2.10832,3.96041 3.49804,5.90821 1.38973,1.94779 3.00049,3.873 4.82813,5.77148 1.82763,1.89848 3.87106,3.76988 6.125,5.61133 2.25394,1.84144 4.71808,3.653 7.38672,5.42969 2.66864,1.77668 5.54349,3.51844 8.61523,5.22265 3.07174,1.70422 6.34146,3.37012 9.80469,4.99414 3.46323,1.62402 7.11977,3.20608 10.96289,4.74219 3.84312,1.53611 7.87259,3.02632 12.08398,4.4668 7.12403,2.43672 12.73768,4.48592 19.01368,7.02539 6.27599,2.53946 13.21433,5.56918 22.98632,9.96875 7.56836,3.40744 14.09623,6.19536 20.10938,8.50781 6.01315,2.31245 11.51135,4.14994 17.01953,5.6543 5.50818,1.50436 11.02664,2.67501 17.08008,3.6582 6.05344,0.98319 12.64208,1.77841 20.29101,2.52734 4.50044,0.44066 9.95542,0.64143 16.0293,0.62305 6.07389,-0.0184 12.76607,-0.25601 19.74024,-0.69141 6.97416,-0.43539 14.23035,-1.0685 21.43164,-1.8789 7.20128,-0.81041 14.34828,-1.798 21.10351,-2.94141 4.17908,-0.70736 11.09417,-1.67749 18.86914,-2.67187 7.77497,-0.99439 16.40981,-2.01303 24.02735,-2.81446 7.61753,-0.80143 15.36328,-1.7041 21.70703,-2.51367 6.34375,-0.80957 11.2855,-1.52604 13.29297,-1.95312 4.01493,-0.85416 16.52382,-3.34186 27.79882,-5.52735 15.77966,-3.05865 26.35981,-5.25393 34.89258,-7.36328 4.26639,-1.05467 8.02166,-2.08765 11.65821,-3.19726 3.63654,-1.10962 7.15459,-2.29491 10.94921,-3.6543 7.7,-2.75846 22.55,-7.81354 33,-11.23242 7.33372,-2.39934 13.61536,-4.61399 19.00196,-6.72852 5.38659,-2.11453 9.87782,-4.12944 13.63281,-6.12695 1.8775,-0.99876 3.57086,-1.99318 5.09961,-2.99414 1.52875,-1.00097 2.89383,-2.00711 4.11328,-3.03125 1.21945,-1.02415 2.2926,-2.06647 3.24219,-3.13477 0.94958,-1.0683 1.77498,-2.16344 2.49414,-3.29687 1.45306,-2.2901 2.61655,-4.39566 3.60547,-6.91211 0.98892,-2.51646 1.80239,-5.44448 2.55468,-9.37695 0.7523,-3.93248 1.44432,-8.87005 2.1875,-15.40821 0.74319,-6.53816 1.53841,-14.67625 2.5,-25.00976 0.61417,-6.6 1.80328,-18.75 2.64258,-27 0.83931,-8.25 1.92452,-22.2 2.41016,-31 0.89551,-16.22678 2.15728,-33.00157 3.50976,-47.39453 0.67625,-7.19649 1.37523,-13.79781 2.0625,-19.4375 0.68728,-5.6397 1.3627,-10.31728 1.99219,-13.66797 0.73609,-3.9181 1.32944,-7.93697 1.81836,-13.05079 0.48892,-5.11381 0.87342,-11.32228 1.19141,-19.62109 0.31799,-8.29881 0.56967,-18.68706 0.79297,-32.16015 0.2233,-13.4731 0.4182,-30.03132 0.62304,-50.66797 0.27743,-27.94952 0.58982,-49.92635 0.93164,-65.61524 0.34183,-15.68888 0.71309,-25.08981 1.10547,-27.88476 0.32816,-2.3375 0.72013,-8.68204 1.08789,-17.01953 0.36777,-8.3375 0.71133,-18.66797 0.94141,-28.98047 0.41761,-18.7181 0.90857,-34.23303 1.55664,-48.37305 0.64807,-14.14002 1.45325,-26.90513 2.5,-40.12695 0.32103,-4.05502 0.52069,-12.90528 0.61524,-24.23243 0.0945,-11.32714 0.0834,-25.13099 -0.0156,-39.0957 -0.0991,-13.9647 -0.28707,-28.08893 -0.54687,-40.05664 -0.25981,-11.96771 -0.59086,-21.77908 -0.97852,-27.11523 -0.49558,-6.8216 -1.55288,-16.79224 -2.72852,-26.32227 -1.17564,-9.53003 -2.46962,-18.61945 -3.43945,-23.67773 -0.57999,-3.025 -1.73268,-15.175 -2.5625,-27 -0.40398,-5.75681 -0.87237,-10.99064 -1.42969,-15.83399 -0.55731,-4.84334 -1.20392,-9.29552 -1.96289,-13.49219 -0.75896,-4.19666 -1.62974,-8.13832 -2.63867,-11.95507 -1.00893,-3.81676 -2.15567,-7.50928 -3.46289,-11.21289 -1.21832,-3.45177 -2.5648,-6.88247 -4.01953,-10.261723 -1.45473,-3.379251 -3.01809,-6.707553 -4.66602,-9.951172 -1.64793,-3.243619 -3.38177,-6.4024 -5.17968,-9.447266 -1.79792,-3.044865 -3.65976,-5.974822 -5.56446,-8.757812 -1.90469,-2.78299 -3.85204,-5.418961 -5.82031,-7.876953 -1.96827,-2.457993 -3.95669,-4.738721 -5.94531,-6.808594 -1.98863,-2.069873 -3.97759,-3.930196 -5.94336,-5.548828 -1.96577,-1.618632 -3.90889,-2.99534 -5.8086,-4.09961 -1.2375,-0.719337 -3.76212,-1.781269 -6.83203,-2.914062 -3.0699,-1.132793 -6.68509,-2.336445 -10.10547,-3.335938 -6.84076,-1.998981 -13.31715,-4.106093 -14.39257,-4.68164 -1.14525,-0.612916 -3.15135,-1.352091 -5.66016,-2.13086 -2.50881,-0.778768 -5.52029,-1.596956 -8.67773,-2.367187 -3.15745,-0.770231 -6.45963,-1.492774 -9.55079,-2.080078 -3.09115,-0.587304 -5.97131,-1.039545 -8.28125,-1.269531 -5.5,-0.547604 -22.825,-1.441591 -38.5,-1.986328 -7.8375,-0.27237 -15.64606,-0.633379 -21.91406,-0.994141 -6.268,-0.360763 -10.99544,-0.721278 -12.66797,-0.996094 -1.94198,-0.319091 -6.04119,-0.559394 -11.21875,-0.720703 -5.17755,-0.161309 -11.43345,-0.243624 -17.68945,-0.246094 z M 547.12109,39.6875 c 6.10869,-0.0014 12.33851,0.07172 18.17188,0.21875 5.83337,0.147029 11.27029,0.368015 15.79101,0.664062 7.425,0.486241 24.3,1.327657 37.5,1.869141 7.51133,0.308126 13.54548,0.591984 18.57618,0.914063 5.0307,0.322078 9.05868,0.681798 12.55468,1.142578 3.49601,0.460779 6.45995,1.021864 9.36719,1.746094 2.90725,0.724229 5.75707,1.612181 9.02149,2.724609 5.76486,1.964516 15.32571,4.973077 21.24609,6.685547 2.96019,0.856235 6.24062,1.986807 9.14062,3.117187 2.9,1.130381 5.41957,2.26057 6.85938,3.119141 1.82908,1.090699 3.87603,2.806661 6.03711,5.009766 2.16108,2.203104 4.43568,4.893425 6.71875,7.929687 2.28307,3.036262 4.57448,6.419592 6.76953,10.009766 2.19505,3.590173 4.29437,7.387115 6.19141,11.251953 2.72706,5.555856 4.99043,10.591616 6.88476,15.484376 1.89434,4.89276 3.41999,9.64329 4.67188,14.63086 1.25189,4.98756 2.22957,10.2105 3.02929,16.05078 0.79973,5.84028 1.42115,12.29714 1.95899,19.74805 0.41686,5.775 0.96368,11.99279 1.50781,17.35937 0.54413,5.36658 1.08558,9.88194 1.49414,12.25 1.20284,6.97175 2.50561,16.73925 3.67188,27.17969 1.16626,10.44044 2.19603,21.55382 2.85156,31.21484 0.36781,5.42066 0.59446,16.21992 0.69922,29.56641 0.10476,13.34649 0.0868,29.24087 -0.0293,44.84961 -0.11615,15.60873 -0.33204,30.93128 -0.62695,43.13867 -0.29492,12.20739 -0.66807,21.29895 -1.09961,24.44141 -0.30212,2.2 -0.66064,8.70105 -0.99414,17.40234 -0.33351,8.70129 -0.64199,19.6028 -0.84571,30.60547 -0.20371,11.00266 -0.47091,21.13702 -0.73632,28.60156 -0.26542,7.46455 -0.52904,12.25928 -0.72852,12.58203 -0.3139,0.50791 -0.65027,4.58472 -0.99219,11.55664 -0.34192,6.97193 -0.68864,16.83989 -1.02148,28.92969 -0.66568,24.17961 -1.27685,57.24793 -1.6836,93.82227 -0.30651,27.56121 -0.58658,45.75831 -0.9414,58.09179 -0.17741,6.16674 -0.37436,10.86888 -0.60156,14.54102 -0.22721,3.67214 -0.48498,6.31476 -0.78711,8.36719 -0.85014,5.775 -2.42501,16.35 -3.5,23.5 -1.07499,7.15 -2.25658,17.725 -2.625,23.5 -0.36841,5.775 -1.08646,15.225 -1.59571,21 -0.50924,5.775 -1.36992,17.925 -1.91406,27 -0.62868,10.48488 -2.26983,29.89202 -3.98242,48.18554 -1.71259,18.29352 -3.49661,35.47342 -4.41406,41.50586 -0.38446,2.52793 -0.98236,5.33776 -1.63477,7.82813 -0.65241,2.49036 -1.35932,4.66127 -1.96484,5.91211 -0.50176,1.03648 -0.94454,1.86672 -1.46875,2.59961 -0.52421,0.73288 -1.12997,1.36793 -1.95508,2.01562 -1.65022,1.29538 -4.18057,2.63925 -8.70508,4.9043 -2.73009,1.36673 -6.70149,3.07334 -10.90039,4.72265 -4.1989,1.64932 -8.62529,3.24135 -12.26562,4.37696 -7.28066,2.2712 -21.78829,7.17877 -32.23829,10.90625 -5.54719,1.97866 -10.7866,3.71299 -16.43164,5.36718 -5.64503,1.6542 -11.69503,3.22798 -18.86718,4.88868 -7.17216,1.6607 -15.46522,3.40807 -25.59375,5.40625 -10.12854,1.99817 -22.09323,4.24743 -36.60743,6.91406 -1.375,0.25262 -11.725,1.37808 -23,2.5 -10.93496,1.08809 -19.71868,2.07349 -27.87695,3.1582 -8.15827,1.08471 -15.6911,2.26874 -24.12305,3.75586 -5.775,1.01852 -16.125,2.35136 -23,2.96094 -3.55756,0.31544 -7.70553,0.55114 -12.0996,0.70703 -4.39408,0.15589 -9.03394,0.23164 -13.57618,0.22852 -4.54223,-0.003 -8.98623,-0.0845 -12.98828,-0.2461 -4.00204,-0.1616 -7.56244,-0.40311 -10.33594,-0.72265 -5.86054,-0.67522 -11.05664,-1.41757 -15.98437,-2.3418 -4.92773,-0.92423 -9.58631,-2.03109 -14.375,-3.4375 -4.78869,-1.40641 -9.70697,-3.11068 -15.15039,-5.23242 -5.44342,-2.12175 -11.41276,-4.66022 -18.30469,-7.73047 -10.44882,-4.6548 -18.76557,-8.22838 -25.63867,-11 -6.87311,-2.77163 -12.30257,-4.74129 -16.97852,-6.18555 -2.65844,-0.82111 -5.97708,-2.06031 -9.57031,-3.53515 -3.59323,-1.47485 -7.46174,-3.18597 -11.2168,-4.95118 -3.75505,-1.7652 -7.3971,-3.58321 -10.54101,-5.27539 -3.14391,-1.69218 -5.78902,-3.2579 -7.54883,-4.51367 -2.84846,-2.03262 -5.27259,-4.00407 -7.36328,-6.05859 -2.09069,-2.05453 -3.84789,-4.19287 -5.36523,-6.55664 -1.51735,-2.36378 -2.79345,-4.95369 -3.92188,-7.91407 -1.12843,-2.96037 -2.10926,-6.29045 -3.0332,-10.13476 -0.65699,-2.73355 -1.26361,-6.00215 -1.81641,-9.69727 -0.55279,-3.69511 -1.05155,-7.81748 -1.49219,-12.25586 -0.88126,-8.87675 -1.53122,-19.02059 -1.91601,-29.56054 -0.3848,-10.53995 -0.50552,-21.47494 -0.33008,-31.93164 0.0877,-5.22835 0.2505,-10.33672 0.49023,-15.2168 0.23974,-4.88008 0.55731,-9.5322 0.95704,-13.8457 0.61161,-6.6 2.02249,-23.7 3.13476,-38 1.11227,-14.3 2.46944,-30.5 3.01758,-36 0.54815,-5.5 1.23189,-14.725 1.51953,-20.5 0.12485,-2.50675 0.35788,-5.2752 0.71875,-8.42774 0.36087,-3.15254 0.84884,-6.69004 1.48438,-10.73437 1.27106,-8.08867 3.13083,-18.20606 5.73242,-31.33789 0.80385,-4.05753 1.48643,-8.75635 2.05859,-14.2168 0.57216,-5.46045 1.0339,-11.68253 1.39844,-18.7832 0.59295,-11.55 1.56293,-26.4 2.15625,-33 0.26006,-2.89279 0.4309,-9.18008 0.51953,-17.66797 0.0886,-8.48789 0.0942,-19.1755 0.0254,-30.8711 -0.13753,-23.39119 -0.57494,-50.81129 -1.25781,-72.70898 l -0.57031,-18.24609 3.16601,-2.66211 c 0.96943,-0.81573 1.72466,-1.01718 2.18164,-1.83204 0.22849,-0.40742 0.38195,-0.96864 0.45117,-1.83593 0.0692,-0.8673 0.0542,-2.04189 -0.0566,-3.67578 -0.2216,-3.26778 -0.82431,-8.37433 -1.89062,-16.54883 -1.06632,-8.17451 -2.59667,-19.41615 -4.67383,-34.95117 -0.46935,-3.51022 -0.90643,-8.53179 -1.29102,-14.45313 -0.38458,-5.92134 -0.71688,-12.74163 -0.97265,-19.84961 -0.25577,-7.10798 -0.43663,-14.50406 -0.51953,-21.57422 -0.0829,-7.07015 -0.0676,-13.81519 0.0664,-19.62304 0.12734,-5.51815 0.3114,-10.42954 0.57031,-14.88086 0.25892,-4.45133 0.59332,-8.44347 1.01758,-12.1211 0.42426,-3.67763 0.93912,-7.04122 1.5625,-10.23828 0.62339,-3.19706 1.35466,-6.22671 2.21094,-9.23633 1.89248,-6.65154 7.18384,-26.49097 9.07422,-34.02343 3.25368,-12.96471 9.92484,-37.87462 16.18555,-60.4375 1.13991,-4.10811 2.31492,-7.77314 3.58984,-11.11329 1.27492,-3.34014 2.64921,-6.35608 4.18945,-9.16601 1.54024,-2.80993 3.24577,-5.41418 5.18164,-7.93164 1.93588,-2.51746 4.10263,-4.94742 6.56446,-7.410158 1.90371,-1.904415 3.42043,-3.391153 4.89062,-4.679687 1.47019,-1.288534 2.89393,-2.378009 4.61133,-3.492187 1.7174,-1.114179 3.7277,-2.251465 6.37305,-3.632813 2.64534,-1.381348 5.92566,-3.007613 10.17968,-5.097656 9.54246,-4.688305 20.79454,-9.88305 30.59766,-14.195313 4.90156,-2.156131 9.44069,-4.091909 13.22266,-5.632812 3.78196,-1.540904 6.80716,-2.687427 8.67968,-3.265625 4.17426,-1.288928 16.89188,-4.900744 28.34571,-8.050781 1.33212,-0.36636 3.96679,-0.820154 7.13867,-1.25586 3.17187,-0.435706 6.88095,-0.853324 10.36133,-1.148437 6.96077,-0.590227 19.85429,-1.94005 28.65429,-3 8.8,-1.05995 21.625,-2.156206 28.5,-2.435547 6.875,-0.279341 17.675,-0.943197 24,-1.47461 3.54453,-0.297804 8.24973,-0.520584 13.59571,-0.669922 5.34597,-0.149337 11.33272,-0.225232 17.4414,-0.226562 z"
       style="color:#000000;clip-rule:nonzero;display:inline;overflow:visible;visibility:visible;opacity:1;isolation:auto;mix-blend-mode:normal;color-interpolation:sRGB;color-interpolation-filters:linearRGB;solid-color:#000000;solid-opacity:1;fill:url(#linearGradient4750);fill-opacity:1;fill-rule:nonzero;stroke:none;stroke-width:1;stroke-linecap:butt;stroke-linejoin:miter;stroke-miterlimit:4;stroke-dasharray:none;stroke-dashoffset:0;stroke-opacity:1;color-rendering:auto;image-rendering:auto;shape-rendering:auto;text-rendering:auto;enable-background:accumulate" />
    <path
       id="path5748"
       d="m 356.24219,695.62695 c -21.07338,-0.17547 -32.93107,2.47398 -50.82813,10.95703 -21.80153,10.33374 -31.29979,17.5292 -36.69531,27.79688 -5.52045,10.50544 -4.6949,17.31816 3.04687,25.12305 1.36389,1.375 3.46802,4.075 4.67579,6 1.20776,1.925 4.43456,4.98095 7.16992,6.79297 6.40289,4.24148 15.39108,13.02991 16.0625,15.70507 0.28698,1.14343 0.0781,3.24775 -0.46485,4.67578 -0.84889,2.23275 -1.9046,2.75615 -7.5332,3.73633 -19.09999,3.32612 -30.5918,13.24239 -30.5918,26.40039 0,9.31153 6.92133,16.49089 19.82227,20.5625 5.17194,1.63229 7.17773,2.73802 7.17773,3.95313 0,4.33207 -2.37677,8.88909 -7.36914,14.12304 -10.24923,10.74528 -10.03696,20.94447 0.64258,30.75 9.54331,8.76231 26.44612,15.05075 46.45703,17.28321 5.37323,0.59945 12.91953,1.48172 16.76953,1.96094 3.85,0.47922 18.7,0.78763 33,0.68359 24.30078,-0.17681 26.36537,-0.3346 31.58008,-2.41602 11.29748,-4.50932 17.87696,-12.8677 17.87696,-22.71093 0,-10.6225 -3.36948,-14.25932 -45.71485,-49.34375 -2.88307,-2.38871 -5.24219,-4.74011 -5.24219,-5.22461 0,-0.4845 3.7125,-2.72863 8.25,-4.98828 9.27013,-4.61647 11.95602,-6.51303 23.02149,-16.25196 9.66746,-8.50852 12.84577,-14.2163 13.50391,-24.24804 0.49054,-7.4773 -1.26752,-12.87018 -5.42188,-16.62696 -2.50305,-2.26349 -12.05628,-6.64645 -16.21289,-7.43945 l -3.35938,-0.64258 4.85938,-2.05273 c 11.18295,-4.72606 16.10892,-9.80567 18.41797,-18.99024 1.02142,-4.06287 0.94282,-5.78802 -0.50977,-11.15429 -3.33655,-12.32623 -14.54423,-22.61246 -32.87695,-30.17383 -9.0805,-3.74528 -9.32998,-3.78647 -25.17188,-4.16797 -1.49133,-0.0359 -2.9369,-0.0606 -4.34179,-0.0723 z m 13.41797,29.37696 7.71289,3.80273 c 4.24149,2.09254 7.71093,4.1899 7.71093,4.66016 0,0.47027 -3.2625,1.40007 -7.25,2.0664 -8.94396,1.49457 -14.39782,4.16192 -16.58203,8.10742 -3.49485,6.31306 -3.43305,6.27941 -7.22656,3.9668 -11.86339,-7.23222 -25.95293,5.21233 -20.91211,18.4707 0.81121,2.13365 0.68491,3.08299 -0.5957,4.49805 -0.89293,0.98667 -2.16948,3.3858 -2.83789,5.33008 l -1.21485,3.53516 -1.33203,-3.71875 c -0.73217,-2.04538 -2.6095,-5.59008 -4.17187,-7.875 -3.31858,-4.85334 -14.52356,-15.24868 -20.625,-19.13672 -2.33652,-1.48891 -4.24902,-2.99836 -4.25,-3.35352 -0.003,-1.15422 9.28968,-6.64441 19.15234,-11.3164 14.43375,-6.83733 22.72552,-8.73595 38.88477,-8.9004 l 13.53711,-0.13671 z m -38.80274,63.6582 c 0.083,-0.004 0.17129,0.0258 0.26758,0.0879 0.25678,0.16553 0.56716,0.5516 0.97656,1.08008 1.00196,1.29336 1.94265,5.0054 2.32422,9.17383 0.35243,3.85 0.92032,8.8445 1.26172,11.09961 0.48969,3.23474 0.27922,4.23086 -0.99219,4.71875 -1.19783,0.45965 -1.61133,0.0202 -1.61133,-1.71094 0,-1.28099 -1.16523,-4.04721 -2.58984,-6.14649 -2.55799,-3.76941 -2.57409,-3.91225 -1.33203,-11.56054 0.80331,-4.94661 1.11415,-6.71093 1.69531,-6.74219 z m 53.60156,1.8418 -2.82421,2.94726 c -1.55369,1.62169 -5.86637,4.54747 -9.58204,6.5 -7.6003,3.99384 -7.96875,3.81305 -7.96875,-3.89062 l 0,-4.2793 5.25,-0.63086 c 2.8875,-0.34683 7.4721,-0.63367 10.1875,-0.63867 l 4.9375,-0.008 z m -37.52929,52.25976 4.32812,6.41406 c 3.02474,4.48297 7.63682,9.08195 15.32617,15.28125 6.05,4.87762 13.25,10.91357 16,13.41211 l 5,4.54297 -18.5,-0.0859 c -18.00871,-0.082 -25.02274,-0.5669 -41.46289,-2.875 -6.67624,-0.93731 -16.17344,-3.37925 -17.35351,-4.46093 -0.17448,-0.15993 0.8296,-2.55588 2.23242,-5.32422 1.87834,-3.70671 5.58398,-18.75557 5.58398,-22.67774 0,-0.13834 3.4875,-0.57623 7.75,-0.97265 4.2625,-0.39643 10.7537,-1.2901 14.42383,-1.98633 l 6.67188,-1.26758 z"
       style="fill:url(#linearGradient5694)" />
    <path
       id="path5738"
       d="m 409.41016,108.52148 c -12.23255,0.18532 -25.27323,1.83492 -38.38672,5.03711 -20.27873,4.95188 -32.0926,10.43964 -40.14258,18.64844 -6.90276,7.03893 -9.22139,12.88409 -9.24219,23.29688 -0.0155,7.76239 0.27591,9.04055 3.34766,14.73632 4.16988,7.73193 11.01651,14.24824 19.27929,18.34961 3.86397,1.91795 7.10296,4.35661 8.3379,6.27539 1.11085,1.72598 3.73894,4.03868 5.83984,5.13868 3.23377,1.69316 6.47533,5.41673 6.60547,7.58984 0.0195,0.32544 -1.85727,1.16004 -4.17188,1.85352 -5.53372,1.65794 -13.64359,6.90739 -17.23633,11.15625 -8.4741,10.02173 -10.67184,25.07119 -5.26757,36.07617 3.22533,6.56789 12.49585,15.68081 19.54687,19.21289 2.56536,1.28507 7.09289,2.90803 10.06055,3.60742 l 5.39648,1.27148 -0.60351,11.25977 c -0.52754,9.84368 -0.92356,11.72824 -3.14649,15.00391 -1.39832,2.06054 -2.54297,4.08747 -2.54297,4.5039 0,0.41642 -4.3875,2.43252 -9.75,4.48047 -19.99704,7.63689 -22.88954,9.50256 -26.35351,16.98438 -3.42272,7.39272 -1.60112,17.66798 4.5625,25.74023 3.99151,5.22753 13.97517,12.25886 19.52734,13.75391 5.83282,1.57061 24.28481,4.062 36.51367,4.92968 15.98707,1.13433 46.09326,1.21305 52.66407,0.13672 12.29907,-2.01464 27.69417,-10.16758 37.1914,-19.69336 6.63214,-6.65206 8.64453,-10.92402 8.64453,-18.34961 0,-12.8696 -8.68464,-24.58367 -23.4121,-31.57421 -11.36676,-5.39534 -19.91644,-16.39349 -25.05665,-32.23243 -2.00493,-6.17797 -1.65565,-7.71289 1.96289,-8.62109 5.56001,-1.39548 29.67581,-11.43569 33.42383,-13.91602 6.20135,-4.10386 9.3599,-8.96609 9.87696,-15.20117 0.58403,-7.04268 -0.16531,-9.68766 -3.96875,-14.01953 -4.06153,-4.62583 -10.67559,-7.92893 -21.23047,-10.60156 l -8.46289,-2.14258 3.84961,-7.60547 c 2.1179,-4.1828 4.86807,-11.34963 6.11132,-15.92773 2.09705,-7.72205 2.57685,-8.54048 6.61719,-11.32031 6.47952,-4.45803 9.41207,-9.51412 10.03711,-17.30079 1.05247,-13.11147 -3.50496,-26.24975 -11.79687,-34.00586 -11.08989,-10.37328 -30.60223,-16.08088 -53.4336,-16.52148 -1.71235,-0.0331 -3.4439,-0.0362 -5.1914,-0.01 z m 241.52929,2 c -22.32306,0.0306 -43.21652,4.10753 -57.85547,11.29102 -8.37249,4.10847 -18.37935,13.79061 -19.89453,19.24805 -2.93906,10.58601 -0.29343,18.5954 9.19532,27.83593 10.25066,9.98252 10.69926,11.17288 10.69726,28.41407 l 0,14.69336 -5.99219,1.75976 c -7.89574,2.32024 -13.87187,8.01219 -17.05273,16.24024 -3.31576,8.57702 -3.4081,24.95717 -0.19922,35.16211 3.09461,9.84152 9.32819,18.80437 16.92773,24.33789 l 6.17969,4.5 0.0703,12.20312 c 0.0661,11.55469 -0.0512,12.28666 -2.18164,13.80078 -1.2375,0.87952 -6.75,4.76079 -12.25,8.62305 -12.74295,8.94845 -14.98735,11.12414 -18.16601,17.62109 -2.24054,4.5795 -2.53118,6.23692 -2.11524,12.03125 0.6151,8.56881 3.02731,13.25789 10.42579,20.26368 9.66407,9.15109 20.59902,14.07202 42.9375,19.32226 10.40516,2.44554 20.04296,4.68075 21.41796,4.9668 5.02537,1.04547 33.61392,-0.17508 41.49024,-1.77149 24.67769,-5.0018 35.54725,-11.23898 40.02539,-22.96484 1.2561,-3.28901 1.60451,-6.15599 1.20898,-9.98828 -0.92306,-8.94365 -4.78034,-15.41762 -16.78711,-28.17578 -9.08756,-9.65626 -11.74216,-13.22954 -15.60156,-21.00391 -4.40055,-8.86447 -4.65459,-9.82916 -4.74219,-17.96289 l -0.0937,-8.5957 7,-2.43946 c 11.8848,-4.14087 30.14212,-13.47852 33.90625,-17.34179 3.76255,-3.86163 6.59375,-9.59951 6.59375,-13.36133 0,-1.28467 -1.11361,-4.56958 -2.4746,-7.30078 -4.37987,-8.7892 -16.2401,-14.81313 -34.38868,-17.4668 l -8.13672,-1.18945 -0.004,-8.63477 c -0.008,-15.75416 2.22241,-39.13476 3.73242,-39.13476 2.59286,0 9.04109,-3.93648 11.80664,-7.20703 1.53209,-1.81163 3.94277,-5.76797 5.35742,-8.79297 2.19002,-4.683 2.57445,-6.91119 2.58985,-15 0.0165,-8.7008 -0.2531,-10.04682 -3.19727,-16 -4.07868,-8.24719 -12.82664,-18.0244 -19.56445,-21.86329 -8.15968,-4.64897 -15.6849,-6.13994 -30.86524,-6.11914 z m -241.77148,28.17188 c 10.57008,0.0109 21.97257,0.85125 26.50586,2.23633 6.44204,1.96828 11.42899,5.31208 13.38476,8.97461 1.35283,2.53345 1.35544,2.91753 0.0254,3.38281 -0.825,0.2886 -3.13836,2.15245 -5.14062,4.14258 -3.01612,2.99784 -4.34878,5.83822 -7.77539,16.55664 -3.63491,11.36997 -7.03318,18.88113 -13.61914,30.10156 -0.99597,1.69682 -3.40746,3.94682 -5.35742,5 -5.7334,3.09661 -8.24803,7.76864 -8.01563,14.89063 0.14675,4.4974 -1.75968,22.17822 -2.49609,23.15039 -0.0524,0.0692 -1.10821,0.43601 -2.34571,0.8164 -2.24848,0.69114 -2.24887,0.68398 -2.26367,-11.625 -0.0171,-14.21296 -1.41945,-21.43994 -6.66015,-34.3164 -4.42576,-10.87413 -10.10152,-20.1546 -15.11328,-24.71289 -2.04182,-1.85705 -4.92139,-4.97789 -6.4004,-6.93555 -2.73464,-3.61962 -5.16436,-4.95747 -12.3125,-6.7793 -4.72813,-1.20505 -10.78191,-6.36569 -10.31445,-8.79297 0.89931,-4.66977 24.46544,-13.08474 43.08008,-15.38281 2.8897,-0.35675 6.48516,-0.57179 10.36133,-0.66016 1.45356,-0.0331 2.94702,-0.0484 4.45703,-0.0469 z m 243.26953,1.5918 c 3.04359,-0.01 5.66595,0.0974 7.48242,0.34375 5.06811,0.68735 6.16498,1.29266 10.41406,5.74609 3.08537,3.23375 4.75,5.86017 4.75,7.49219 0,3.79939 -5.05317,11.36174 -8,11.97265 -4.43448,0.91933 -9.44227,5.05084 -11.74804,9.69141 -2.07405,4.17419 -2.2993,6.38512 -2.9043,28.53516 l -0.6543,24.01171 -6.09765,-0.34179 c -7.4448,-0.41752 -11.51729,1.7337 -14.55469,7.6875 -2.62069,5.13698 -2.556,8.60799 0.25195,13.58008 2.40155,4.25247 6.45319,6.82329 13.45703,8.53711 l 4.25,1.03906 0,5.8457 c 0,5.20938 -0.24462,5.9115 -2.25,6.46875 -3.14295,0.87335 -19.87746,1.62351 -22,0.98633 -1.58495,-0.4758 -1.74499,-2.23881 -1.71289,-18.70117 0.027,-13.87168 0.37224,-18.76788 1.46289,-20.67578 0.78602,-1.375 1.42969,-3.85 1.42969,-5.5 0,-1.65 -0.64367,-4.125 -1.42969,-5.5 -1.0983,-1.92127 -1.43569,-6.93595 -1.46289,-21.66211 -0.0551,-29.7893 -2.81899,-40.56428 -11.93359,-46.52539 -2.78649,-1.82241 -5.07398,-3.61921 -5.08398,-3.99219 -0.0258,-0.97474 10.26647,-4.68411 17.93164,-6.46289 6.3473,-1.47296 19.27158,-2.54717 28.40234,-2.57617 z m -281.23633,97.57422 c 1.36888,0.0936 1.88281,2.04624 1.88281,6.20312 0,6.27799 -0.89399,6.69977 -5.1582,2.43555 -3.38698,-3.38698 -3.32697,-4.54222 0.37305,-7.30469 0.89784,-0.67033 1.64461,-1.09762 2.26172,-1.26172 0.23141,-0.0615 0.44507,-0.0856 0.64062,-0.0723 z m 38.42578,40.05468 c 1.4219,0.0575 1.76667,1.1553 2.98243,5.375 2.28865,7.94379 8.40837,20.74651 13.54101,28.33203 6.71352,9.92189 14.3105,16.79552 24.36328,22.04102 l 8.92774,4.6582 -4.87891,3.09571 c -2.68381,1.70202 -7.28182,3.99172 -10.2168,5.08984 -4.76088,1.78125 -7.56997,1.98133 -26.04882,1.84766 -11.39187,-0.0824 -22.0629,-0.29848 -23.7129,-0.48047 -1.65,-0.18199 -7.5,-0.82654 -13,-1.43164 -14.63806,-1.61043 -14.84449,-1.75791 -6.83789,-4.87305 10.29454,-4.00532 15.67547,-8.09597 18.73829,-14.24219 1.42983,-2.86929 2.5996,-6.85846 2.5996,-8.86523 0,-2.37525 0.69583,-4.27816 1.99414,-5.45313 3.03866,-2.74995 3.99596,-7.83411 4.00196,-21.28711 0.004,-8.95066 0.3429,-12.38365 1.2539,-12.66211 0.6875,-0.21015 2.68701,-0.62941 4.44141,-0.93164 0.78535,-0.13529 1.3776,-0.23204 1.85156,-0.21289 z m 238.32617,22.85938 c 0.13468,-0.0164 0.25388,-0.007 0.35938,0.0351 0.633,0.24995 0.7757,1.64249 0.7832,5.33789 0.0141,6.96025 1.60041,13.2797 5.78907,23.07813 4.06823,9.51674 9.56424,17.46218 19.79882,28.61914 4.62041,5.03683 8.40039,9.42409 8.40039,9.75 0,0.94876 -6.79136,2.71544 -16.5,4.29297 -15.09974,2.45351 -22.00721,2.59031 -31.5,0.61914 -21.56325,-4.47758 -31.88311,-7.35855 -38.1289,-10.64063 -3.77905,-1.98583 -6.86216,-3.89195 -6.85156,-4.23632 0.0106,-0.34437 3.67628,-3.1 8.14648,-6.125 13.10434,-8.86774 17.27212,-12.5523 20.11914,-17.78321 2.9337,-5.39017 4.66391,-14.77426 4.69531,-25.46679 l 0.0195,-6.75 11.41797,0 c 6.28002,0 12.13002,-0.27358 13,-0.60743 0.16634,-0.0638 0.3165,-0.10661 0.45117,-0.12304 z M 512.5,378.125 601.5625,410.9375 512.5,378.125 Z"
       style="fill:url(#linearGradient5694)" />
    <path
       id="path5746"
       d="m 643.03125,681.55664 c -2.40941,0.0144 -5.41353,0.10328 -9.41992,0.2207 -14.34142,0.42035 -16.97338,0.78116 -25.02735,3.4336 -11.13329,3.66656 -15.86859,6.05527 -25.75195,12.99218 -7.88236,5.53247 -15.34614,13.63265 -18.80078,20.4043 -4.6596,9.13358 -2.94623,22.03809 4.50195,33.89649 l 3.45508,5.5 -6.79687,0.63281 c -18.7903,1.75324 -30.66673,10.23933 -31.8711,22.77344 -0.93991,9.78177 4.26211,17.52821 17.16016,25.55078 7.50995,4.67118 21.04171,10.82022 26.4043,11.99804 2.67401,0.58731 3.19921,1.1652 3.19921,3.51563 0,3.80735 -1.48115,4.10316 -25,5.00977 -26.98593,1.04022 -37.48086,3.65468 -45.04492,11.21874 -5.18313,5.18313 -7.29008,10.95325 -6.45117,17.66993 1.87517,15.01336 14.24503,37.08328 25.72852,45.90429 6.61191,5.07891 24.74627,14.70438 33.57421,17.82032 6.44335,2.27426 7.78072,2.3631 35.69336,2.375 33.56879,0.0142 52.72516,-1.13037 67.5,-4.03516 18.74656,-3.68564 33.88898,-9.8967 40.68946,-16.69141 5.91565,-5.91064 7.64504,-16.93614 3.79883,-24.20898 -3.65293,-6.90741 -15.37275,-15.89035 -31.98829,-24.51953 -6.05,-3.14204 -11.5625,-6.17355 -12.25,-6.73633 -0.80165,-0.65623 -1.24904,-3.75867 -1.24804,-8.65039 l 0.002,-7.62695 10.24805,-0.28907 c 11.83869,-0.33266 19.49389,-2.02384 29.02929,-6.41406 11.09006,-5.10599 15.96737,-12.33442 14.30469,-21.19726 -1.38555,-7.38559 -7.36292,-11.44194 -24.21094,-16.4336 -5.43136,-1.60919 -12.2375,-3.24756 -15.125,-3.64062 l -5.25,-0.71485 0,-4.29297 0,-4.29296 6.36719,-1.20118 c 15.15649,-2.85982 24.68673,-13.28081 26.23047,-28.68164 0.77149,-7.69668 -1.65469,-18.96995 -5.51953,-25.64648 -8.20524,-14.17456 -24.45302,-26.91643 -41.55664,-32.58789 -7.47617,-2.47905 -9.34599,-3.09789 -16.57422,-3.05469 z m -7.67773,29.94727 c 16.04198,0 24.75563,3.83359 35.98242,15.83593 6.34046,6.77847 7.85547,15.16407 2.74023,15.16407 -3.44808,0 -10.0518,3.9393 -11.82422,7.05468 -1.2598,2.21435 -2.40179,2.93341 -4.66797,2.94141 -4.33244,0.0145 -9.10937,3.31821 -11.45898,7.92383 -1.64765,3.22966 -2.04102,5.90805 -2.04102,13.91406 0,6.25634 -0.55342,11.48312 -1.5,14.16602 -0.825,2.3383 -1.5,5.31915 -1.5,6.625 0,2.61503 -1.29973,2.74521 -14.41601,1.45507 -5.3033,-0.52164 -5.73605,-0.72841 -4.18359,-2.00781 4.98148,-4.10525 6.12958,-13.471 2.3496,-19.17578 -1.23828,-1.86883 -4.11046,-4.29648 -6.38281,-5.39648 l -4.13281,-2 -0.36719,-12 c -0.41407,-13.53809 -1.75797,-17.15996 -7.91992,-21.32227 -2.75032,-1.8578 -4.50483,-2.26274 -8.6875,-2.00391 -3.4236,0.21185 -5.39892,-0.0916 -5.69922,-0.87695 -0.54993,-1.4381 8.14278,-9.45888 13.86524,-12.79297 8.54153,-4.97658 18.5942,-7.5039 29.84375,-7.5039 z m -26.49219,112.73437 3.36133,0.57813 c 1.84866,0.31767 6.51132,0.85486 10.36132,1.19336 3.85,0.33849 8.2375,0.84758 9.75,1.13281 l 2.75,0.51953 0,11.38281 c 0,20.17315 4.6569,26.94645 26.82032,39.01172 7.89745,4.2992 11.97472,7.05262 11.35742,7.66992 -1.69325,1.69325 -26.1764,5.65111 -41.67774,6.73828 -16.17533,1.13444 -49.49274,1.20709 -56,0.1211 -6.30191,-1.05172 -24.37052,-10.94609 -29.51953,-16.16406 -4.06481,-4.11926 -11.7334,-16.49902 -10.79883,-17.4336 1.0349,-1.03491 19.86815,-2.42466 41.08594,-3.03125 21.50405,-0.61477 24.16856,-0.88227 27.99219,-2.81641 3.33125,-1.68506 4.63963,-3.15059 6.18164,-6.91992 1.73726,-4.24663 1.80959,-5.25355 0.65625,-9 -0.71425,-2.32013 -1.52769,-6.18943 -1.80859,-8.59961 l -0.51172,-4.38281 z"
       style="fill:url(#linearGradient5694)" />
    <path
       id="path5744"
       d="m 495.57812,402.88867 c -12.48778,-0.003 -25.14557,0.59451 -30.52734,1.79688 -16.45686,3.67671 -28.95697,10.64386 -39.61914,22.08203 -7.99807,8.58017 -10.7269,15.22231 -10.7793,26.23633 -0.0637,13.38818 5.77972,21.79554 17.13282,24.65429 l 4.29882,1.08203 0,9.88086 c 0,8.97742 -0.17025,9.88282 -1.86523,9.88282 -3.53946,0 -15.92771,7.02787 -19.65039,11.14843 -7.79801,8.63146 -10.94055,19.94958 -7.99805,28.8086 3.43431,10.33974 18.66944,22.89509 30.01563,24.73633 l 3.49804,0.5664 0,20.32422 0,20.32422 -3.75,0.61523 c -38.98856,6.40417 -53.01459,14.42438 -54.06445,30.91211 -0.30739,4.82754 0.0998,7.35354 1.83399,11.38477 3.85291,8.95632 21.00753,23.07877 34.88281,28.7168 9.13011,3.70989 44.1165,14.28162 49.59765,14.98632 2.75,0.35356 8.825,1.33435 13.5,2.18164 4.675,0.84728 11.875,1.87213 16,2.27735 13.82947,1.35854 32.41455,-1.13161 41.03516,-5.5 13.47472,-6.82816 18.36547,-20.26167 12.81445,-35.19531 -4.25088,-11.4359 -22.96061,-39.83233 -29.82812,-45.27149 -4.57831,-3.62609 -4.80634,-4.95023 -2.47461,-14.31055 0.85021,-3.41304 2.55521,-13.798 3.78906,-23.07617 l 2.24414,-16.86914 6.22656,-2.34179 c 20.49327,-7.70406 30.40634,-18.52968 28.86719,-31.5254 -0.33172,-2.80082 -1.40672,-6.33695 -2.38867,-7.85937 -5.05575,-7.83844 -16.73308,-17.97813 -25.14258,-21.82813 l -5.37304,-2.45898 0.57812,-4.62305 c 1.85952,-14.90666 1.22132,-13.61522 7.68945,-15.55273 7.04015,-2.10886 20.25622,-9.4925 24.69922,-13.79883 4.4822,-4.34431 6.69033,-10.53595 5.95899,-16.71094 -0.83633,-7.06149 -3.65312,-11.85745 -10.99414,-18.72461 -6.9367,-6.48894 -17.7418,-11.8171 -30.70118,-15.13867 -4.70104,-1.2049 -17.01807,-1.80936 -29.50586,-1.8125 z m -0.99414,29.61524 c 17.48157,0 28.0144,1.58353 35.06055,5.27539 2.59656,1.36047 2.55447,1.39526 -3.7168,3.0039 -3.48846,0.89483 -7.7852,1.90356 -9.54687,2.24219 -6.68672,1.28531 -11.28669,7.25658 -11.30859,14.67773 -0.008,2.77201 -1.07405,6.39351 -3,10.19141 -2.18251,4.30384 -2.98829,7.29591 -2.98829,11.10938 l 0,5.2207 -9.49804,-0.49805 c -10.57479,-0.55313 -16.41624,0.9269 -20.40235,5.16992 -1.21121,1.28927 -2.59006,3.64219 -3.06445,5.22657 -0.57096,1.90696 -0.89232,-2.73138 -0.94922,-13.72071 -0.0492,-9.50667 -0.5709,-18.05338 -1.22265,-20 -2.64804,-7.90902 -9.89601,-13.68908 -15.78125,-12.58398 -2.36389,0.44388 -2.24612,0.19169 1.41796,-3.00586 11.06128,-9.65292 20.77456,-12.30859 45,-12.30859 z m -26.20117,76.16015 2.89453,2.13867 c 2.37736,1.75765 4.89874,2.2624 14.10157,2.81836 6.16341,0.37234 11.336,0.7229 11.49414,0.7793 0.15814,0.0564 0.15814,4.26602 0,9.35352 l -0.28907,9.25 -4.90429,1.20898 c -2.69745,0.6657 -8.65995,1.51623 -13.25,1.88867 l -8.34571,0.67578 -0.043,-9.88672 c -0.024,-5.43813 -0.40743,-11.76324 -0.85157,-14.05664 l -0.80664,-4.16992 z m -28.54883,19.04883 c 0.22915,0.12621 0.25,0.78357 0.25,2.07617 0,3.061 0.0408,3.02486 -2,1.73438 -1.31189,-0.82957 -1.28053,-1.16829 0.25,-2.69922 0.8334,-0.83361 1.27085,-1.23754 1.5,-1.11133 z m 54.54493,36.47852 -0.71289,6.40625 c -0.39197,3.52333 -1.64532,10.45625 -2.78516,15.40625 -1.23359,5.35719 -2.11709,12.84519 -2.18359,18.5 -0.14409,12.25277 2.39662,18.28822 10.67578,25.36132 5.47506,4.67749 14.14371,16.40981 20.65039,27.94727 1.80193,3.19513 3.08027,6.0037 2.84179,6.24219 -0.23849,0.23848 -2.82352,0.88751 -5.74414,1.4414 -7.61145,1.44348 -13.57263,1.12703 -30.53711,-1.61914 -22.81129,-3.69264 -55.90038,-14.1133 -65.25976,-20.55273 l -4.66016,-3.20703 2.96094,-1.19922 c 3.1729,-1.28466 12.61035,-3.19165 29.45898,-5.95313 11.68186,-1.91465 17.1036,-4.16146 19.73633,-8.18164 1.60417,-2.44958 1.73234,-5.26822 1.4043,-30.98828 l -0.36133,-28.29101 7.4707,0 c 4.1092,0 9.6253,-0.29542 12.25782,-0.65625 l 4.78711,-0.65625 z"
       style="fill:url(#linearGradient4706)" />
  </g>
</svg>
