<?xml version="1.0" encoding="UTF-8" standalone="no"?>
<svg
   xmlns:osb="http://www.openswatchbook.org/uri/2009/osb"
   xmlns:dc="http://purl.org/dc/elements/1.1/"
   xmlns:cc="http://creativecommons.org/ns#"
   xmlns:rdf="http://www.w3.org/1999/02/22-rdf-syntax-ns#"
   xmlns:svg="http://www.w3.org/2000/svg"
   xmlns="http://www.w3.org/2000/svg"
   xmlns:xlink="http://www.w3.org/1999/xlink"
   version="1.1"
   id="svg2985"
   height="874.94769"
   width="544.57068">
  <defs
     id="defs5498">
    <linearGradient
       osb:paint="solid"
       id="linearGradient4756">
      <stop
         id="stop4758"
         offset="0"
         style="stop-color:#ffffff;stop-opacity:1;" />
    </linearGradient>
    <linearGradient
       osb:paint="solid"
       id="linearGradient4750">
      <stop
         id="stop4752"
         offset="0"
         style="stop-color:#000000;stop-opacity:1;" />
    </linearGradient>
    <linearGradient
       osb:paint="solid"
       id="linearGradient5694">
      <stop
         id="stop5696"
         offset="0"
         style="stop-color:#002b11;stop-opacity:1;" />
    </linearGradient>
    <linearGradient
       osb:paint="solid"
       id="linearGradient4712">
      <stop
         id="stop4714"
         offset="0"
         style="stop-color:#162d50;stop-opacity:1;" />
    </linearGradient>
    <linearGradient
       osb:paint="solid"
       id="linearGradient4706">
      <stop
         id="stop4708"
         offset="0"
         style="stop-color:#d40000;stop-opacity:1;" />
    </linearGradient>
    <linearGradient
       gradientUnits="userSpaceOnUse"
       y2="508.69208"
       x2="761.44257"
       y1="508.69208"
       x1="262.13925"
       id="linearGradient4716"
       xlink:href="#linearGradient4712" />
    <linearGradient
       gradientUnits="userSpaceOnUse"
       y2="500.0004"
       x2="771.30902"
       y1="500.0004"
       x1="228.69211"
       id="linearGradient4754"
       xlink:href="#linearGradient4750" />
    <linearGradient
       gradientUnits="userSpaceOnUse"
       y2="500.10483"
       x2="752.40271"
       y1="500.10483"
       x1="248.61133"
       id="linearGradient4760"
       xlink:href="#linearGradient4756" />
    <linearGradient
       y2="508.69208"
       x2="761.44257"
       y1="508.69208"
       x1="262.13925"
       gradientUnits="userSpaceOnUse"
       id="linearGradient501"
       xlink:href="#linearGradient4712" />
    <linearGradient
       y2="508.69208"
       x2="761.44257"
       y1="508.69208"
       x1="262.13925"
       gradientUnits="userSpaceOnUse"
       id="linearGradient503"
       xlink:href="#linearGradient4712" />
    <linearGradient
       y2="508.69208"
       x2="761.44257"
       y1="508.69208"
       x1="262.13925"
       gradientUnits="userSpaceOnUse"
       id="linearGradient505"
       xlink:href="#linearGradient4712" />
  </defs>
  <metadata
     id="metadata5594">
    <rdf:RDF>
      <cc:Work
         rdf:about="">
        <dc:format>image/svg+xml</dc:format>
        <dc:type
           rdf:resource="http://purl.org/dc/dcmitype/StillImage" />
        <dc:title />
      </cc:Work>
    </rdf:RDF>
  </metadata>
  <g
     transform="translate(-227.71438,-62.526105)"
     style="display:inline"
     id="layer14">
    <path
       id="path4802"
       d="m 585.33789,80.082031 c -5.21046,-0.03951 -10.16602,0.160747 -15.37695,0.597657 -5.21094,0.436909 -10.67725,1.110465 -16.91211,2.015624 -14.20828,2.06272 -23.07033,3.319992 -29.76172,4.181641 -6.6914,0.861649 -11.21214,1.327676 -16.73828,1.806641 -7.26109,0.62934 -13.59035,1.284945 -19.37695,2.015625 -5.78661,0.730679 -11.03054,1.536432 -16.12305,2.466797 -4.4,0.80385 -17,3.061698 -28,5.017578 -11,1.955866 -21.24193,3.974186 -22.75781,4.486326 -1.51588,0.51214 -7.25081,1.49388 -12.7461,2.17969 -4.76023,0.59407 -7.29084,0.88201 -8.95898,0.7793 -0.83407,-0.0514 -1.45148,-0.20018 -2.02539,-0.45703 -0.57392,-0.25686 -1.1041,-0.62226 -1.75977,-1.10547 -0.75691,-0.55783 -1.55149,-1.41938 -2.22266,-2.35743 -0.67116,-0.93804 -1.21892,-1.952592 -1.48046,-2.818355 -0.22689,-0.751023 -0.41164,-1.321357 -0.6211,-1.746094 -0.20945,-0.424736 -0.44272,-0.703491 -0.76953,-0.871093 -0.32681,-0.167603 -0.74722,-0.223504 -1.32617,-0.203126 -0.57895,0.02038 -1.31733,0.116652 -2.2832,0.25586 -2.22691,0.32096 -6.52383,1.186991 -9.54883,1.925781 -3.025,0.73878 -7.975,1.638318 -11,1.998047 -2.98313,0.35474 -6.98101,1.15196 -11.45508,2.22852 -4.47407,1.07655 -9.42464,2.43202 -14.31445,3.90625 -4.88982,1.47423 -9.71886,3.06746 -13.94922,4.61523 -4.23036,1.54777 -7.86173,3.05049 -10.35742,4.34766 -1.80635,0.93887 -4.08994,2.42302 -6.59961,4.24218 -2.50967,1.81917 -5.24557,3.97422 -7.95899,6.25391 -2.71342,2.27969 -5.40271,4.68347 -7.82031,7.00391 -2.4176,2.32043 -4.56334,4.55664 -6.18555,6.49804 -1.515,1.81311 -3.04578,3.80749 -4.58789,5.97266 -1.54211,2.16517 -3.09614,4.50033 -4.65429,7 -3.11631,4.99933 -6.25306,10.65089 -9.36719,16.88281 -1.49967,3.0011 -2.84128,5.77681 -4.04883,8.44336 -1.20755,2.66655 -2.28169,5.223 -3.24414,7.79102 -0.96245,2.56801 -1.81376,5.14607 -2.57813,7.85156 -0.76436,2.70549 -1.44138,5.54017 -2.05468,8.61914 -0.61331,3.07897 -1.16262,6.40333 -1.67188,10.0918 -0.50926,3.68847 -0.97745,7.73946 -1.42969,12.27343 -0.90447,9.06795 -1.74267,20.06367 -2.70117,33.92969 -0.57029,8.25 -1.03658,19.5 -1.03711,25 -5.2e-4,5.5 -0.46166,14.01223 -1.02343,18.91602 -0.9673,8.44353 -1.69764,14.95521 -2.25,21.39843 -0.55237,6.44323 -0.92677,12.81728 -1.17969,20.98829 -0.25293,8.17101 -0.38416,18.13872 -0.45313,31.76562 -0.069,13.6269 -0.0757,30.91371 -0.0762,53.72461 -0.001,36.9548 0.0612,59.7225 0.27149,73.99219 0.10515,7.13484 0.24805,12.14452 0.4375,15.74219 0.18944,3.59766 0.42599,5.78239 0.7207,7.26562 0.40032,2.01476 0.8008,5.04522 1.19141,8.91602 0.3906,3.87079 0.77127,8.5829 1.1289,13.95898 0.71526,10.75217 1.34136,24.1632 1.78516,38.83203 0.16224,5.3625 0.42357,10.79961 0.71289,15.24024 0.28931,4.44062 0.60661,7.88476 0.88281,9.25976 0.28503,1.4189 0.63744,11.31743 0.98438,26.53711 0.34693,15.21968 0.68839,35.76052 0.95312,58.46289 0.34215,29.34161 0.6455,52.80479 0.95117,71.6875 0.30568,18.88271 0.61449,33.18556 0.9668,44.20508 0.35231,11.01952 0.74842,18.75576 1.23047,24.50781 0.48205,5.75205 1.04923,9.51932 1.74414,12.59961 0.90965,4.03217 1.79155,7.35953 2.81445,10.24219 0.51145,1.44133 1.05878,2.77254 1.66211,4.02344 0.60333,1.25089 1.26242,2.42178 2,3.54687 0.73758,1.1251 1.55259,2.20365 2.4668,3.26758 0.91421,1.06393 1.92733,2.11425 3.06054,3.18164 2.26644,2.13477 5.01343,4.34055 8.41016,6.87695 2.38262,1.77915 5.2775,3.75537 8.4082,5.76954 3.13071,2.01416 6.49673,4.06575 9.82227,5.99414 3.32554,1.92838 6.611,3.73405 9.57813,5.25586 2.96712,1.5218 5.6164,2.76026 7.67187,3.55468 2.81229,1.08693 6.39672,2.22809 10.44336,3.35547 4.04664,1.12738 8.55547,2.24107 13.21484,3.27149 4.65937,1.03041 9.47062,1.9774 14.1211,2.77343 4.65047,0.79603 9.14019,1.44101 13.16015,1.86524 6.64433,0.7012 14.97447,1.42143 25.06641,2.16797 10.09194,0.74653 21.94568,1.51936 35.63672,2.32226 4.32337,0.25355 14.46524,0.38624 27.375,0.42383 12.90976,0.0376 28.58787,-0.0206 43.98633,-0.14844 15.39846,-0.12779 30.51717,-0.32576 42.30664,-0.56836 11.78947,-0.2426 20.24924,-0.52911 22.33203,-0.83593 10.14355,-1.49365 18.18346,-2.50271 26.35547,-3.22461 8.172,-0.72191 16.47611,-1.15666 27.14453,-1.50196 9.24054,-0.29915 15.27497,-0.57474 19.29492,-0.93164 2.00998,-0.17845 3.51684,-0.37672 4.66797,-0.60937 1.15113,-0.23266 1.94729,-0.49913 2.53711,-0.8125 1.03851,-0.55173 3.13809,-2.31167 5.80273,-4.77539 2.66464,-2.46373 5.89336,-5.63087 9.19141,-8.99414 3.29805,-3.36328 6.66479,-6.92345 9.60351,-10.17383 2.93873,-3.25039 5.45043,-6.19136 7.03711,-8.31641 2.87464,-3.85 6.83229,-8.85209 8.79493,-11.11719 1.10005,-1.26958 2.42176,-3.10695 3.83593,-5.28125 1.41417,-2.17429 2.92168,-4.68529 4.38867,-7.29882 1.467,-2.61354 2.89381,-5.33067 4.15235,-7.91797 1.25854,-2.58731 2.34793,-5.04502 3.13672,-7.14063 0.5589,-1.48485 1.1418,-3.58352 1.73437,-6.17187 0.59258,-2.58835 1.19406,-5.66671 1.79102,-9.10938 1.19391,-6.88534 2.36865,-15.22951 3.4043,-24.03711 1.03564,-8.8076 1.93316,-18.07798 2.57617,-26.81445 0.643,-8.73647 1.0309,-16.93937 1.04687,-23.61133 0.0204,-8.525 0.46521,-19.55 0.98828,-24.5 0.52307,-4.95 1.64954,-15.75 2.50196,-24 0.85241,-8.25 2.27282,-19.05 3.15625,-24 0.88343,-4.95 1.94212,-13.05 2.35351,-18 0.24034,-2.89187 0.90114,-8.0015 1.78516,-14.13086 0.88401,-6.12935 1.99185,-13.27826 3.1289,-20.25 1.13706,-6.97173 2.30329,-13.76653 3.30274,-19.18554 0.99945,-5.41902 1.83152,-9.46241 2.30273,-10.9336 0.79274,-2.475 2.14237,-9.225 3,-15 0.85763,-5.775 2.22687,-13.07783 3.04297,-16.22851 1.30933,-5.05482 2.19626,-9.05689 2.8711,-13.32813 0.67483,-4.27124 1.13758,-8.81164 1.5957,-14.94336 2.23267,-29.8829 4.13386,-54.39985 5.5039,-71 1.68236,-20.38405 2.81402,-34.63201 3.64258,-46.16015 0.82857,-11.52814 1.35402,-20.33646 1.82032,-29.83985 0.53974,-11 1.24797,-21.12207 1.57421,-22.49414 0.32623,-1.37207 1.27309,-15.09707 2.10352,-30.5 0.74448,-13.80862 1.30657,-23.96247 1.66211,-32.01953 0.35554,-8.05706 0.50418,-14.01696 0.42578,-19.43945 -0.0784,-5.42249 -0.38407,-10.30797 -0.94141,-16.21289 -0.55733,-5.90492 -1.366,-12.82964 -2.44726,-22.33399 -0.81342,-7.15 -1.88082,-17.725 -2.37305,-23.5 -0.40748,-4.78073 -1.07576,-9.92264 -1.93164,-15.10742 -0.85587,-5.18478 -1.90026,-10.41203 -3.05664,-15.36719 -1.15637,-4.95515 -2.42539,-9.63664 -3.73437,-13.72851 -1.30899,-4.09188 -2.65701,-7.59453 -3.97071,-10.18946 -1.00592,-1.98698 -2.23061,-4.14936 -3.71484,-6.54687 -1.48423,-2.39752 -3.22719,-5.03098 -5.27344,-7.95899 -4.09249,-5.856 -9.39351,-12.89213 -16.23633,-21.58984 -4.96804,-6.31474 -9.06801,-11.36727 -12.70507,-15.5 -1.81854,-2.06637 -3.52082,-3.90364 -5.15821,-5.55273 -1.63739,-1.64909 -3.21026,-3.11044 -4.76758,-4.42774 -1.55731,-1.31729 -3.09943,-2.48956 -4.67773,-3.56054 -1.5783,-1.07099 -3.19222,-2.04103 -4.89258,-2.951177 -3.40071,-1.820303 -7.14724,-3.403871 -11.64258,-5.09375 -4.76114,-1.789802 -8.66921,-3.215443 -12.1582,-4.384765 -3.48899,-1.169323 -6.55838,-2.083296 -9.64648,-2.847657 -3.0881,-0.764361 -6.19348,-1.378206 -9.75196,-1.953125 -3.55847,-0.574918 -7.57058,-1.109942 -12.4707,-1.710937 -8.27748,-1.015223 -15.27726,-1.783216 -21.50977,-2.306641 -6.2325,-0.523425 -11.69773,-0.802282 -16.9082,-0.841797 z"
       style="color:#000000;clip-rule:nonzero;display:inline;overflow:visible;visibility:visible;opacity:1;isolation:auto;mix-blend-mode:normal;color-interpolation:sRGB;color-interpolation-filters:linearRGB;solid-color:#000000;solid-opacity:1;fill:url(#linearGradient4756);fill-opacity:1;fill-rule:nonzero;stroke:none;stroke-width:1;stroke-linecap:butt;stroke-linejoin:miter;stroke-miterlimit:4;stroke-dasharray:none;stroke-dashoffset:0;stroke-opacity:1;color-rendering:auto;image-rendering:auto;shape-rendering:auto;text-rendering:auto;enable-background:accumulate" />
    <path
       id="path4800"
       d="m 579.4375,62.529297 c -4.66529,0.02182 -9.09298,0.160305 -13.15625,0.425781 -4.06327,0.265476 -7.76211,0.657944 -10.96875,1.1875 -9.19885,1.51913 -17.08794,2.69836 -26.64062,3.917969 -9.55269,1.219609 -20.76899,2.479598 -36.62305,4.158203 -8.25,0.8735 -18.96408,2.320927 -23.8086,3.216797 -4.10445,0.759 -6.35425,1.137937 -7.91015,1.130859 -0.77795,-0.0035 -1.38338,-0.103798 -1.95899,-0.300781 -0.5756,-0.196983 -1.12204,-0.491104 -1.78515,-0.882813 -0.9032,-0.533532 -2.08217,-0.936748 -3.69727,-1.208984 -1.6151,-0.272236 -3.66558,-0.4133 -6.31445,-0.425781 -2.64887,-0.01248 -5.89589,0.103878 -9.90039,0.349609 -4.0045,0.245732 -8.76723,0.620645 -14.44922,1.123047 -9.44732,0.83534 -22.35078,1.970263 -28.67578,2.521485 -3.45696,0.301271 -7.1185,0.721014 -10.91211,1.240234 -3.79361,0.519219 -7.71892,1.138814 -11.70117,1.839844 -7.96451,1.402058 -16.1592,3.130502 -23.99024,5.042968 -7.83104,1.912466 -15.29899,4.008815 -21.8125,6.142578 -3.25675,1.066882 -6.2751,2.14294 -8.98047,3.210938 -2.70536,1.067998 -5.09755,2.12718 -7.10351,3.160156 -2.79092,1.437197 -5.1365,2.713064 -7.30078,4.035154 -2.16429,1.3221 -4.14735,2.69113 -6.21289,4.3125 -2.06555,1.62137 -4.21428,3.49505 -6.70899,5.83008 -2.49471,2.33503 -5.33533,5.13069 -8.78711,8.59375 -3.57897,3.59067 -6.63657,6.83962 -9.3789,10.05078 -2.74234,3.21117 -5.16927,6.38423 -7.48438,9.82422 -2.31511,3.43999 -4.51911,7.14669 -6.8164,11.42383 -2.2973,4.27714 -4.68806,9.12504 -7.37696,14.84766 -1.43447,3.05288 -2.7293,5.98309 -3.90234,8.91796 -1.17305,2.93488 -2.2235,5.87532 -3.17383,8.94922 -0.95033,3.07391 -1.8001,6.28003 -2.56641,9.75 -0.76631,3.46997 -1.44931,7.2031 -2.07031,11.32617 -0.62099,4.12308 -1.17897,8.63671 -1.69336,13.66993 -0.51438,5.03322 -0.98516,10.5867 -1.43164,16.78711 -0.89295,12.4008 -1.68944,27.39214 -2.54297,46.0039 -0.49184,10.725 -1.61939,25.575 -2.50586,33 -0.35213,2.9494 -0.62642,6.06811 -0.83398,10.47266 -0.20757,4.40454 -0.34853,10.09557 -0.43555,18.18945 -0.17403,16.18776 -0.13087,41.98771 0.0332,86.33789 0.13159,35.57028 0.31289,61.4308 0.5625,78.96875 0.1248,8.76898 0.26602,15.45759 0.42773,20.23828 0.16171,4.7807 0.34333,7.65402 0.54687,8.79297 0.31945,1.7875 0.71464,6.50547 1.09375,12.66797 0.37912,6.1625 0.74216,13.76953 0.99805,21.33203 0.45525,13.45394 0.96959,24.92081 1.6211,35.67188 0.6515,10.75107 1.44018,20.78634 2.4414,31.375 0.27423,2.90017 0.53158,12.28242 0.72656,25.06054 0.19499,12.77813 0.32761,28.95213 0.34961,45.43946 0.029,21.67466 0.12305,40.67266 0.28516,57.15625 0.16211,16.48358 0.39166,30.4537 0.69531,42.06836 0.30366,11.61465 0.68118,20.87352 1.13477,27.9414 0.45358,7.06789 0.9838,11.94384 1.5957,14.78711 1.05814,4.91674 2.00374,8.93827 2.96484,12.34961 0.96111,3.41134 1.93856,6.21253 3.06055,8.6875 1.122,2.47497 2.38888,4.62478 3.92969,6.73242 1.54081,2.10764 3.35471,4.17308 5.57226,6.48242 1.25359,1.30549 2.79067,2.72964 4.55079,4.23243 1.76011,1.50278 3.74264,3.08452 5.88476,4.70507 4.28424,3.24112 9.20829,6.63802 14.27344,9.87305 5.06514,3.23503 10.2712,6.30769 15.12109,8.90039 2.42495,1.29635 4.76096,2.47376 6.94531,3.49024 2.18436,1.01647 4.21787,1.87222 6.03711,2.52929 3.01107,1.08754 6.14161,2.11127 9.41407,3.07422 3.27246,0.96295 6.68679,1.86605 10.26562,2.71094 3.57883,0.84489 7.32177,1.63188 11.25196,2.36523 3.93018,0.73336 8.04848,1.41267 12.375,2.04102 8.65302,1.25669 18.14218,2.30972 28.65039,3.18555 10.5082,0.87582 22.03459,1.57392 34.75781,2.12109 11.18913,0.4812 20.62911,1.16037 20.97851,1.50977 0.1747,0.17465 3.09277,0.26953 7.65235,0.28125 4.55958,0.0117 10.76067,-0.0597 17.5039,-0.2168 13.48647,-0.3141 43.19649,-0.92913 66.02149,-1.36524 17.45236,-0.33339 28.44385,-0.62129 36.70117,-1.0625 4.12866,-0.2206 7.57287,-0.47829 10.80078,-0.80078 3.22792,-0.32248 6.23887,-0.70926 9.49805,-1.18359 4.9188,-0.7158 10.85314,-1.34956 17.3457,-1.86328 6.49256,-0.51372 13.54334,-0.90739 20.69727,-1.14649 10.33683,-0.34545 16.07624,-0.58301 19.79882,-1.00195 1.8613,-0.20947 3.21847,-0.46417 4.39454,-0.80078 1.17607,-0.33661 2.17023,-0.75474 3.30664,-1.29102 1.48983,-0.70302 4.04974,-2.64689 7.19336,-5.35351 3.14361,-2.70662 6.87049,-6.17627 10.6914,-9.92774 3.82091,-3.75146 7.73609,-7.78547 11.25782,-11.62304 3.52172,-3.83757 6.65043,-7.47843 8.89648,-10.44336 3.25386,-4.2953 8.03105,-10.58722 10.61523,-13.98242 2.61185,-3.43154 5.02889,-7.04472 7.22461,-10.7793 2.19573,-3.73458 4.16941,-7.59129 5.89649,-11.50977 1.72707,-3.91847 3.20816,-7.89766 4.41406,-11.88086 1.2059,-3.98319 2.13733,-7.96967 2.76953,-11.89843 0.8637,-5.36739 1.70998,-11.50019 2.50586,-18.06055 0.79588,-6.56036 1.54071,-13.54808 2.20508,-20.62305 0.66437,-7.07496 1.24763,-14.23723 1.7168,-21.14843 0.46916,-6.91121 0.82488,-13.57156 1.03515,-19.64063 0.23824,-6.87623 0.52937,-13.23643 0.89258,-19.28125 0.36321,-6.04482 0.79809,-11.77381 1.32422,-17.39258 0.52613,-5.61876 1.14409,-11.12655 1.87109,-16.72461 0.72701,-5.59805 1.56346,-11.28683 2.5293,-17.26953 1.33187,-8.25 2.42092,-16.81703 2.41992,-19.03906 -7.5e-4,-1.15813 0.53064,-5.26151 1.35156,-10.83789 0.82092,-5.57638 1.93115,-12.62539 3.08985,-19.67578 2.31739,-14.10078 4.82667,-28.2057 5.59179,-30.53711 0.55795,-1.70013 2.1122,-9.35013 3.45313,-17 1.34094,-7.64987 3.34731,-17.96016 4.46094,-22.91016 0.59819,-2.65896 1.2592,-7.1588 1.88086,-12.61914 0.62165,-5.46033 1.20395,-11.88117 1.64843,-18.38086 1.40793,-20.58825 2.54642,-35.12484 6.02344,-77 0.77636,-9.35 1.8901,-25.55 2.47656,-36 0.58646,-10.45 1.53118,-24.175 2.09961,-30.5 0.56842,-6.325 1.45607,-18.925 1.97266,-28 0.51659,-9.075 1.43137,-24.825 2.03125,-35 0.32779,-5.55996 0.52659,-12.23451 0.60937,-19.35547 0.0828,-7.12095 0.0494,-14.68933 -0.0879,-22.03711 -0.13725,-7.34777 -0.37861,-14.47441 -0.71093,-20.71484 -0.33232,-6.24043 -0.75539,-11.59366 -1.25782,-15.39258 -0.80014,-6.05 -1.97144,-16.175 -2.60351,-22.5 -0.60487,-6.0528 -1.35018,-11.90306 -2.22461,-17.49805 -0.87444,-5.59498 -1.87795,-10.93497 -2.99805,-15.96484 -1.1201,-5.02987 -2.35735,-9.74997 -3.69922,-14.10742 -1.34186,-4.35745 -2.78839,-8.35197 -4.32812,-11.92969 -0.81241,-1.88771 -2.01407,-4.22837 -3.48047,-6.82812 -1.4664,-2.59975 -3.19775,-5.4581 -5.07031,-8.38282 -1.87257,-2.92471 -3.8851,-5.91473 -5.91602,-8.77734 -2.03092,-2.86261 -4.08002,-5.5983 -6.02148,-8.01172 -2.65467,-3.3 -8.70636,-10.95 -13.44922,-17 -2.49295,-3.17999 -5.06922,-6.26698 -7.63867,-9.17187 -2.56946,-2.9049 -5.13244,-5.627872 -7.59571,-8.076175 -2.46327,-2.448303 -4.82756,-4.623377 -7.00195,-6.433594 -2.17439,-1.810216 -4.15853,-3.255459 -5.86133,-4.246093 -2.60027,-1.512761 -6.97386,-3.539331 -12.35351,-5.761719 -5.37966,-2.222388 -11.7654,-4.640593 -18.39258,-6.939453 -2.19781,-0.762383 -4.6913,-1.492636 -7.42774,-2.1875 -2.73643,-0.694865 -5.71518,-1.353831 -8.88281,-1.972657 -6.33526,-1.23765 -13.42627,-2.314902 -20.8418,-3.197265 -7.41553,-0.882363 -15.15655,-1.570395 -22.79296,-2.029297 -7.63642,-0.458902 -15.16809,-0.688983 -22.16602,-0.65625 z m 5.90039,17.552734 c 5.21047,0.03951 10.6757,0.318372 16.9082,0.841797 6.23251,0.523425 13.23229,1.291418 21.50977,2.306641 4.90012,0.600995 8.91223,1.136019 12.4707,1.710937 3.55848,0.574919 6.66386,1.188764 9.75196,1.953125 3.0881,0.764361 6.15749,1.678334 9.64648,2.847657 3.48899,1.169322 7.39706,2.594963 12.1582,4.384765 4.49534,1.689879 8.24187,3.273447 11.64258,5.09375 1.70036,0.910147 3.31428,1.880187 4.89258,2.951177 1.5783,1.07098 3.12042,2.24325 4.67773,3.56054 1.55732,1.3173 3.13019,2.77865 4.76758,4.42774 1.63739,1.64909 3.33967,3.48636 5.15821,5.55273 3.63706,4.13273 7.73703,9.18526 12.70507,15.5 6.84282,8.69771 12.14384,15.73384 16.23633,21.58984 2.04625,2.92801 3.78921,5.56147 5.27344,7.95899 1.48423,2.39751 2.70892,4.55989 3.71484,6.54687 1.3137,2.59493 2.66172,6.09758 3.97071,10.18946 1.30898,4.09187 2.578,8.77336 3.73437,13.72851 1.15638,4.95516 2.20077,10.18241 3.05664,15.36719 0.85588,5.18478 1.52416,10.32669 1.93164,15.10742 0.49223,5.775 1.55963,16.35 2.37305,23.5 1.08126,9.50435 1.88993,16.42907 2.44726,22.33399 0.55734,5.90492 0.86301,10.7904 0.94141,16.21289 0.0784,5.42249 -0.0702,11.38239 -0.42578,19.43945 -0.35554,8.05706 -0.91763,18.21091 -1.66211,32.01953 -0.83043,15.40293 -1.77729,29.12793 -2.10352,30.5 -0.32624,1.37207 -1.03447,11.49414 -1.57421,22.49414 -0.4663,9.50339 -0.99175,18.31171 -1.82032,29.83985 -0.82856,11.52814 -1.96022,25.7761 -3.64258,46.16015 -1.37004,16.60015 -3.27123,41.1171 -5.5039,71 -0.45812,6.13172 -0.92087,10.67212 -1.5957,14.94336 -0.67484,4.27124 -1.56177,8.27331 -2.8711,13.32813 -0.8161,3.15068 -2.18534,10.45351 -3.04297,16.22851 -0.85763,5.775 -2.20726,12.525 -3,15 -0.47121,1.47119 -1.30328,5.51458 -2.30273,10.9336 -0.99945,5.41901 -2.16568,12.21381 -3.30274,19.18554 -1.13705,6.97174 -2.24489,14.12065 -3.1289,20.25 -0.88402,6.12936 -1.54482,11.23899 -1.78516,14.13086 -0.41139,4.95 -1.47008,13.05 -2.35351,18 -0.88343,4.95 -2.30384,15.75 -3.15625,24 -0.85242,8.25 -1.97889,19.05 -2.50196,24 -0.52307,4.95 -0.96788,15.975 -0.98828,24.5 -0.016,6.67196 -0.40387,14.87486 -1.04687,23.61133 -0.64301,8.73647 -1.54053,18.00685 -2.57617,26.81445 -1.03565,8.8076 -2.21039,17.15177 -3.4043,24.03711 -0.59696,3.44267 -1.19844,6.52103 -1.79102,9.10938 -0.59257,2.58835 -1.17547,4.68702 -1.73437,6.17187 -0.78879,2.09561 -1.87818,4.55332 -3.13672,7.14063 -1.25854,2.5873 -2.68535,5.30443 -4.15235,7.91797 -1.46699,2.61353 -2.9745,5.12453 -4.38867,7.29882 -1.41417,2.1743 -2.73588,4.01167 -3.83593,5.28125 -1.96264,2.2651 -5.92029,7.26719 -8.79493,11.11719 -1.58668,2.12505 -4.09838,5.06602 -7.03711,8.31641 -2.93872,3.25038 -6.30546,6.81055 -9.60351,10.17383 -3.29805,3.36327 -6.52677,6.53041 -9.19141,8.99414 -2.66464,2.46372 -4.76422,4.22366 -5.80273,4.77539 -0.58982,0.31337 -1.38598,0.57984 -2.53711,0.8125 -1.15113,0.23265 -2.65799,0.43092 -4.66797,0.60937 -4.01995,0.3569 -10.05438,0.63249 -19.29492,0.93164 -10.66842,0.3453 -18.97253,0.78005 -27.14453,1.50196 -8.17201,0.7219 -16.21192,1.73096 -26.35547,3.22461 -2.08279,0.30682 -10.54256,0.59333 -22.33203,0.83593 -11.78947,0.2426 -26.90818,0.44057 -42.30664,0.56836 -15.39846,0.1278 -31.07657,0.18603 -43.98633,0.14844 -12.90976,-0.0376 -23.05163,-0.17028 -27.375,-0.42383 -13.69104,-0.8029 -25.54478,-1.57573 -35.63672,-2.32226 -10.09194,-0.74654 -18.42208,-1.46677 -25.06641,-2.16797 -4.01996,-0.42423 -8.50968,-1.06921 -13.16015,-1.86524 -4.65048,-0.79603 -9.46173,-1.74302 -14.1211,-2.77343 -4.65937,-1.03042 -9.1682,-2.14411 -13.21484,-3.27149 -4.04664,-1.12738 -7.63107,-2.26854 -10.44336,-3.35547 -2.05547,-0.79442 -4.70475,-2.03288 -7.67187,-3.55468 -2.96713,-1.52181 -6.25259,-3.32748 -9.57813,-5.25586 -3.32554,-1.92839 -6.69156,-3.97998 -9.82227,-5.99414 -3.1307,-2.01417 -6.02558,-3.99039 -8.4082,-5.76954 -3.39673,-2.5364 -6.14372,-4.74218 -8.41016,-6.87695 -1.13321,-1.06739 -2.14633,-2.11771 -3.06054,-3.18164 -0.91421,-1.06393 -1.72922,-2.14248 -2.4668,-3.26758 -0.73758,-1.12509 -1.39667,-2.29598 -2,-3.54687 -0.60333,-1.2509 -1.15066,-2.58211 -1.66211,-4.02344 -1.0229,-2.88266 -1.9048,-6.21002 -2.81445,-10.24219 -0.69491,-3.08029 -1.26209,-6.84756 -1.74414,-12.59961 -0.48205,-5.75205 -0.87816,-13.48829 -1.23047,-24.50781 -0.35231,-11.01952 -0.66112,-25.32237 -0.9668,-44.20508 -0.30567,-18.88271 -0.60902,-42.34589 -0.95117,-71.6875 -0.26473,-22.70237 -0.60619,-43.24321 -0.95312,-58.46289 -0.34694,-15.21968 -0.69935,-25.11821 -0.98438,-26.53711 -0.2762,-1.375 -0.5935,-4.81914 -0.88281,-9.25976 -0.28932,-4.44063 -0.55065,-9.87774 -0.71289,-15.24024 -0.4438,-14.66883 -1.0699,-28.07986 -1.78516,-38.83203 -0.35763,-5.37608 -0.7383,-10.08819 -1.1289,-13.95898 -0.39061,-3.8708 -0.79109,-6.90126 -1.19141,-8.91602 -0.29471,-1.48323 -0.53126,-3.66796 -0.7207,-7.26562 -0.18945,-3.59767 -0.33235,-8.60735 -0.4375,-15.74219 -0.21032,-14.26969 -0.27249,-37.03739 -0.27149,-73.99219 5e-4,-22.8109 0.007,-40.09771 0.0762,-53.72461 0.069,-13.6269 0.2002,-23.59461 0.45313,-31.76562 0.25292,-8.17101 0.62732,-14.54506 1.17969,-20.98829 0.55236,-6.44322 1.2827,-12.9549 2.25,-21.39843 0.56177,-4.90379 1.02291,-13.41602 1.02343,-18.91602 5.3e-4,-5.5 0.46682,-16.75 1.03711,-25 0.9585,-13.86602 1.7967,-24.86174 2.70117,-33.92969 0.45224,-4.53397 0.92043,-8.58496 1.42969,-12.27343 0.50926,-3.68847 1.05857,-7.01283 1.67188,-10.0918 0.6133,-3.07897 1.29032,-5.91365 2.05468,-8.61914 0.76437,-2.70549 1.61568,-5.28355 2.57813,-7.85156 0.96245,-2.56802 2.03659,-5.12447 3.24414,-7.79102 1.20755,-2.66655 2.54916,-5.44226 4.04883,-8.44336 3.11413,-6.23192 6.25088,-11.88348 9.36719,-16.88281 1.55815,-2.49967 3.11218,-4.83483 4.65429,-7 1.54211,-2.16517 3.07289,-4.15955 4.58789,-5.97266 1.62221,-1.9414 3.76795,-4.17761 6.18555,-6.49804 2.4176,-2.32044 5.10689,-4.72422 7.82031,-7.00391 2.71342,-2.27969 5.44932,-4.43474 7.95899,-6.25391 2.50967,-1.81916 4.79326,-3.30331 6.59961,-4.24218 2.49569,-1.29717 6.12706,-2.79989 10.35742,-4.34766 4.23036,-1.54777 9.0594,-3.141 13.94922,-4.61523 4.88981,-1.47423 9.84038,-2.8297 14.31445,-3.90625 4.47407,-1.07656 8.47195,-1.87378 11.45508,-2.22852 3.025,-0.359729 7.975,-1.259267 11,-1.998047 3.025,-0.73879 7.32192,-1.604821 9.54883,-1.925781 0.96587,-0.139208 1.70425,-0.235481 2.2832,-0.25586 0.57895,-0.02038 0.99936,0.03552 1.32617,0.203126 0.32681,0.167602 0.56008,0.446357 0.76953,0.871093 0.20946,0.424737 0.39421,0.995071 0.6211,1.746094 0.26154,0.865763 0.8093,1.880315 1.48046,2.818355 0.67117,0.93805 1.46575,1.7996 2.22266,2.35743 0.65567,0.48321 1.18585,0.84861 1.75977,1.10547 0.57391,0.25685 1.19132,0.40567 2.02539,0.45703 1.66814,0.10271 4.19875,-0.18523 8.95898,-0.7793 5.49529,-0.68581 11.23022,-1.66755 12.7461,-2.17969 1.51588,-0.51214 11.75781,-2.53046 22.75781,-4.486326 11,-1.95588 23.6,-4.213728 28,-5.017578 5.09251,-0.930365 10.33644,-1.736118 16.12305,-2.466797 5.7866,-0.73068 12.11586,-1.386285 19.37695,-2.015625 5.52614,-0.478965 10.04688,-0.944992 16.73828,-1.806641 6.69139,-0.861649 15.55344,-2.118921 29.76172,-4.181641 6.23486,-0.905159 11.70117,-1.578715 16.91211,-2.015624 5.21093,-0.43691 10.16649,-0.637172 15.37695,-0.597657 z"
       style="color:#000000;clip-rule:nonzero;display:inline;overflow:visible;visibility:visible;opacity:1;isolation:auto;mix-blend-mode:normal;color-interpolation:sRGB;color-interpolation-filters:linearRGB;solid-color:#000000;solid-opacity:1;fill:url(#linearGradient4750);fill-opacity:1;fill-rule:nonzero;stroke:none;stroke-width:1;stroke-linecap:butt;stroke-linejoin:miter;stroke-miterlimit:4;stroke-dasharray:none;stroke-dashoffset:0;stroke-opacity:1;color-rendering:auto;image-rendering:auto;shape-rendering:auto;text-rendering:auto;enable-background:accumulate" />
    <path
       id="path5733"
       d="m 636.54492,709.26953 c 0.52938,-6.5e-4 1.00391,0.29407 1.00391,0.88477 0,0.1837 -0.65223,0.58458 -1.44922,0.89062 -0.96662,0.37092 -1.26594,0.0741 -0.89649,-0.88867 0.22678,-0.59107 0.81242,-0.88606 1.3418,-0.88672 z"
       style="fill:url(#linearGradient5694)" />
    <path
       id="path5731"
       d="m 417.83984,560.54883 c -18.16248,-0.0918 -41.14212,2.75446 -54.67968,7.29297 -22.5054,7.545 -32.61133,18.17972 -32.61133,34.3164 0,11.53819 8.38209,24.48026 18.84765,29.09766 4.54908,2.00705 4.6119,2.18768 3.12891,9.14648 -0.56252,2.63957 -1.35002,9.73744 -1.75,15.77344 l -0.72656,10.97461 -4.35352,0.74219 c -9.62848,1.63878 -21.79951,11.5882 -25.16015,20.57031 -4.01931,10.74256 -1.7984,18.6557 7.92578,28.23828 3.62782,3.575 8.73201,7.624 11.34179,8.99805 3.15033,1.65866 4.77283,3.17103 4.82813,4.5 0.0458,1.10095 0.23008,3.12695 0.41016,4.50195 0.18008,1.375 0.41208,10.15 0.51367,19.5 0.14348,13.20598 -0.20295,18.59445 -1.54883,24.14063 l -1.73242,7.13867 -6.92578,3.61914 c -8.71888,4.55435 -20.06057,12.93176 -25.41211,18.77148 -5.3805,5.87132 -7.87176,13.14327 -7.81836,22.83008 0.0895,16.23333 10.03227,27.51466 27.83203,31.58008 4.78962,1.09394 13.5028,1.30487 40.59961,0.97852 18.975,-0.22853 37.65,-0.9096 41.5,-1.51368 17.33525,-2.71997 27.916,-8.44939 32.06445,-17.35937 2.78912,-5.99044 3.25133,-14.79586 1.05078,-20.0625 -0.76157,-1.8227 -6.23698,-8.44662 -12.16601,-14.71875 -14.98731,-15.85462 -14.44327,-14.67963 -14.44727,-31.14453 -0.003,-12.55702 2.14819,-39.22343 3.85352,-47.75977 0.64518,-3.22955 1.50183,-3.92105 11.08398,-8.95312 17.96705,-9.43541 27.06055,-20.15495 27.06055,-31.9043 0,-4.06908 -0.66019,-6.59056 -2.57813,-9.86328 -2.9753,-5.07697 -11.9644,-12.06039 -20.64843,-16.04102 l -5.97266,-2.73828 0.66992,-6 c 0.8806,-7.87595 3.80517,-12.93266 10.5293,-18.21094 12.36339,-9.70498 14.92063,-12.38359 18.20898,-19.07421 3.14432,-6.3976 3.28546,-7.18184 3.18946,-17.70508 -0.0873,-9.57137 -0.46033,-11.88851 -2.84961,-17.74024 -4.74719,-11.62666 -13.90069,-18.6219 -27.22852,-20.80468 -4.45505,-0.72963 -9.97513,-1.08659 -16.0293,-1.11719 z m -4.25,28.71484 c 18.28578,-0.0729 20.25852,0.6238 21.71485,7.66992 1.30774,6.32723 -0.0938,9.1186 -7.09571,14.12305 -15.56354,11.12369 -24.66015,26.37962 -24.66015,41.35547 l 0,4.28906 -5.25,-0.10937 c -2.8875,-0.0603 -7.275,-0.52332 -9.75,-1.0293 -2.475,-0.506 -5.5125,-0.74427 -6.75,-0.5293 -1.56508,0.27187 -2.25,-0.10045 -2.25,-1.22265 0,-3.31039 3.90612,-21.95346 6.4082,-30.58399 1.42534,-4.91648 2.58989,-10.75864 2.58789,-12.98242 -0.004,-4.55456 -2.68454,-9.63695 -6.34765,-12.03711 -2.62871,-1.7224 -8.59336,-2.2787 -12.64844,-1.17969 -1.375,0.37266 -0.56805,-0.21358 1.79492,-1.30273 8.19258,-3.77616 25.30672,-6.39344 42.24609,-6.46094 z m -47.5039,8.65625 c 0.14685,0.15467 -0.96136,1.74646 -2.46289,3.53711 -2.55202,3.04339 -4.08306,3.35541 -4.06836,0.82813 0.006,-1.01174 5.94582,-4.98184 6.53125,-4.36524 z m 11.88086,85.01172 c 0.38149,-0.0371 0.86087,0.066 1.49218,0.2168 1.4241,0.34025 6.75235,0.89074 11.83985,1.22265 10.61965,0.69282 9.98997,-0.34846 7.45117,12.33008 l -1.70117,8.5 -11.25,0.28321 -11.25,0.2832 0,-4.58985 c 0,-2.52457 0.52175,-7.75348 1.16015,-11.61914 0.84903,-5.14104 1.11333,-6.51561 2.25782,-6.62695 z m -4.40625,51.76953 9.62304,0 9.62305,0 -0.63281,5.75 c -1.40496,12.79281 -2.70173,45.18994 -2.07227,51.75 1.25384,13.06723 3.94792,18.26776 16.47461,31.79297 3.96986,4.28631 7.05106,7.93028 6.84571,8.09766 -0.20536,0.16739 -3.61046,0.82323 -7.56641,1.45703 -10.32081,1.65356 -68.97929,1.54278 -72.29883,-0.13672 -7.03942,-3.56154 -0.11067,-10.92788 19.48047,-20.71094 11.10409,-5.54495 13.9174,-9.31888 18.10156,-24.28515 2.78352,-9.9563 2.85014,-10.76471 2.63867,-31.96485 l -0.21679,-21.75 z"
       style="fill:url(#linearGradient5694)" />
    <path
       id="path5729"
       d="m 629.04883,556.36133 c -9.9,0.0876 -20.925,0.67337 -24.5,1.30273 -17.31313,3.04791 -36.79019,11.06362 -43.7168,17.99024 -6.05692,6.05691 -7.6729,10.1336 -8.11523,20.48632 -0.67498,15.79787 2.81628,30.45849 9.26758,38.91016 2.74297,3.59349 3.38506,5.47656 3.99218,11.7168 0.39782,4.08894 1.36325,10.50154 2.14649,14.25 2.28347,10.92828 2.63684,10.36784 -6.82422,10.88672 -19.98939,1.09629 -44.50534,16.51124 -49.32227,31.01367 -4.02825,12.12791 0.96606,23.07431 14.56641,31.92187 5.15456,3.35325 19.85509,8.31059 29.02344,9.78711 3.43501,0.55319 6.43376,1.19353 6.66211,1.42188 0.52045,0.52045 -4.0806,19.05606 -6.79493,27.375 -2.36598,7.2513 -7.39201,12.3804 -18.73828,19.12109 -7.75281,4.60587 -10.05026,7.21555 -18.99609,21.58594 -6.60742,10.61401 -9.15039,17.34668 -9.15039,24.21484 0,13.91582 14.23302,30.17907 29.19336,33.35547 l 0.002,0 c 6.21357,1.3193 41.80434,0.4175 51.80469,-1.3125 4.675,-0.8088 13,-2.00811 18.5,-2.66601 38.02949,-4.54897 50.16477,-14.8641 44.55664,-37.87305 -1.81749,-7.45674 -9.55304,-18.44103 -17.9668,-25.51367 -10.60351,-8.91337 -12.25261,-11.80479 -12.75781,-22.36719 -0.35318,-7.38405 0.11076,-11.05153 2.94531,-23.25781 l 3.36524,-14.49219 15.07226,-5.04883 c 22.6428,-7.58464 27.78516,-12.11356 27.78516,-24.46875 0,-5.22683 -0.58762,-7.67042 -3,-12.47851 -3.85822,-7.68976 -12.63924,-16.3407 -20.94727,-20.63672 l -6.54492,-3.38477 -0.004,-17.16992 -0.004,-17.16992 2.75,-0.5586 c 1.5125,-0.3067 7.037,-1.22662 12.27734,-2.04492 28.0261,-4.37637 38.76156,-15.28458 37.79297,-38.40234 -0.54674,-13.04913 -3.24613,-18.90149 -13.26562,-28.75977 -7.84101,-7.71484 -14.48402,-11.67224 -26.1543,-15.58203 -6.28858,-2.10682 -8.49997,-2.29747 -24.90039,-2.15234 z m -0.93164,28.33984 c 11.08663,0 14.30228,0.35411 18.92578,2.08399 13.46161,5.03663 22.48343,17.00578 16.73828,22.20507 -2.15167,1.94723 -7.824,3.27714 -24.42773,5.72852 -13.84455,2.04401 -17.23204,3.32352 -21.16211,7.99414 -4.77311,5.67253 -5.76455,11.43131 -6.28711,36.48828 -0.4466,21.41489 -0.72766,24.22329 -4.08008,40.75 l -3.60156,17.75 -4.41602,0 -4.41797,0 0.5625,-6.25 c 3.09699,-34.3537 3.09215,-42.94306 -0.0332,-57.84375 l -1.5918,-7.59375 2.54102,-2.54101 c 3.80469,-3.80469 5.0656,-9.61422 3.24414,-14.94922 -0.81136,-2.37644 -2.42003,-4.99727 -3.57617,-5.82227 -1.15614,-0.825 -4.1288,-3.1875 -6.60547,-5.25 -2.47667,-2.0625 -5.10971,-3.75 -5.85157,-3.75 -1.40701,0 -4.01666,-12.21874 -3.35351,-15.70312 0.5469,-2.87353 9.93471,-7.20856 22.44922,-10.36914 9.94243,-2.51099 13.48435,-2.92774 24.94336,-2.92774 z m -61.57617,115.49805 c 1.92711,0.61164 2.03469,1.14015 1.39257,6.83203 -1.03951,9.21442 -1.48616,10.22036 -4.38476,9.85937 -3.38639,-0.42173 -16.79407,-4.1378 -19.68945,-5.45703 -2.29102,-1.04385 -2.24432,-1.1308 2.4121,-4.4414 5.41519,-3.85005 17.15074,-7.78284 20.26954,-6.79297 z m 28.40039,46.50195 3.25976,0 -2.42578,10.25 c -1.82391,7.70795 -2.44279,13.22605 -2.49609,22.25 -0.12586,21.30522 3.25445,28.82447 20.36328,45.28906 5.44763,5.2425 9.90625,9.88798 9.90625,10.32422 0,1.19818 -6.28472,2.69334 -18.5,4.40235 -6.05018,0.84646 -15.5,2.20389 -21,3.01562 -5.5,0.81173 -17.00485,1.47466 -25.56445,1.47266 l -15.5625,-0.004 -2.77735,-2.89844 c -3.198,-3.33799 -3.35661,-2.81113 4.51367,-14.86718 3.98718,-6.10775 6.04967,-8.18603 11.04297,-11.12305 8.21463,-4.83179 19.79777,-15.76881 23.07227,-21.78516 2.91347,-5.353 7.61139,-21.13001 10.22851,-34.35156 2.44729,-12.36361 2.2534,-11.97461 5.93946,-11.97461 z"
       style="fill:url(#linearGradient5694)" />
    <path
       id="path5727"
       d="m 410.23438,152.82617 c -3.75383,-0.0609 -8.21172,0.002 -13.6836,0.14649 -17.39287,0.45948 -20.4693,0.80573 -28.4414,3.20117 -21.99944,6.61031 -31.48617,15.20774 -31.53907,28.58203 -0.032,8.0947 3.61944,14.77881 13.08203,23.94531 7.68628,7.44575 7.74239,7.53617 7.64649,12.5 -0.11356,5.87893 2.26632,11.09646 5.79687,12.70508 2.34507,1.06849 2.45313,1.51842 2.45313,10.35742 l 0,9.24219 -2.94531,1.02734 c -4.53725,1.5817 -11.44972,8.54744 -14.80079,14.91602 -3.71586,7.06183 -5.95248,16.01703 -6.83984,27.39844 -0.86423,11.08493 0.0161,16.70703 3.4043,21.75195 2.41371,3.59392 7.86993,8.49896 10.38672,9.33789 0.50013,0.16671 -1.16375,5.24377 -3.69727,11.2832 -9.60036,22.88536 -12.54956,37.27218 -13.23437,64.56055 -0.65062,25.92605 0.19338,29.78797 8.21875,37.60156 7.3121,7.11913 14.27048,9.26436 33.00781,10.17578 7.7,0.37455 15.8,0.78871 18,0.91993 7.54417,0.44997 33.82684,-1.85978 44.41211,-3.90235 14.19949,-2.73999 25.32516,-7.13118 30.75976,-12.14062 5.38957,-4.96793 7.82757,-12.19401 9.47266,-28.07227 1.02144,-9.85893 0.95415,-11.86233 -0.57617,-17.16211 -2.9202,-10.11322 -6.74435,-15.08558 -19.46289,-25.31055 -4.71131,-3.7876 -14.58032,-16.71223 -16.85742,-22.07617 -2.85231,-6.71889 -5.19083,-17.20973 -3.91602,-17.5664 10.21712,-2.85859 22.91424,-9.786 27.49219,-15 1.70008,-1.93628 3.59791,-5.40727 4.21875,-7.71289 3.38904,-12.58594 -4.84895,-23.24103 -24.29688,-31.42578 -4.81435,-2.02614 -9.93037,-4.77597 -11.36914,-6.10938 -2.52482,-2.33992 -2.59912,-2.7268 -2.11328,-11.11133 0.3069,-5.29627 1.42671,-11.4009 2.86914,-15.64062 2.14997,-6.3194 2.67073,-7.03112 5.70313,-7.80078 4.55306,-1.15562 11.59964,-8.64389 13.5664,-14.41602 2.80091,-8.22021 1.63402,-26.0003 -2.40625,-36.67383 -2.9525,-7.79989 -12.9436,-18.4742 -21.11719,-22.55859 -7.00182,-3.49886 -11.93189,-4.7898 -23.19335,-4.97266 z m -1.72071,28.03125 c 8.35712,0.28429 11.76861,1.94343 16.04492,6.35547 l 3.38086,3.48828 -3.60351,3.30078 c -2.37558,2.17595 -3.98608,4.81658 -4.72461,7.75 -0.61615,2.44733 -2.5024,8.27422 -4.19336,12.94922 -7.77505,21.49576 -8.3199,24.20504 -8.3457,41.5 -0.0131,8.8 0.20156,23.425 0.47656,32.5 l 0.5,16.5 -7.11524,0.29102 -7.11523,0.29101 0.41406,-14.29101 c 0.24695,-8.49998 1.02051,-16.35372 1.9082,-19.38086 1.33833,-4.56393 1.32923,-5.5724 -0.0937,-9.76367 -1.4332,-4.22139 -2.05626,-16.8132 -2.45508,-49.64649 -0.0228,-1.8769 -3.08387,-5.40851 -12.28125,-14.17187 -6.7379,-6.41995 -11.93536,-11.98848 -11.55078,-12.37305 2.28853,-2.28853 15.3809,-4.66339 28.5332,-5.17578 4.09958,-0.15971 7.43499,-0.21781 10.2207,-0.12305 z m -22.9082,152.78711 13.125,0.2793 13.12305,0.27734 2.35351,8.8711 c 3.13412,11.81331 6.90803,19.43783 14.67188,29.64843 8.06183,10.60249 11.90342,14.6124 17.9414,18.72266 2.6193,1.78305 5.2622,4.33549 5.8711,5.67187 1.1549,2.53473 0.3991,16.09162 -1.02539,18.39649 -1.01412,1.64088 -17.54891,5.73492 -28.61719,7.08594 -10.56404,1.28952 -42.60292,1.26861 -50.45508,-0.0332 -2.99972,-0.49733 -5.84193,-1.45889 -6.31641,-2.13476 -1.51036,-2.15145 -0.008,-30.49607 2.15821,-40.72852 2.68755,-12.69304 8.18559,-28.2603 14.16797,-40.11133 l 3.00195,-5.94531 z"
       style="fill:url(#linearGradient5694)" />
    <path
       id="path5725"
       d="m 628.54883,136.50781 c -15.39071,0.0954 -42.66852,3.13335 -52,5.79102 -11.24443,3.2025 -20.21181,11.05836 -23.99024,21.02148 -1.94281,5.12288 -2.15835,7.12331 -1.66992,15.51758 0.63933,10.98776 3.12569,19.19407 7.44336,24.57617 l 2.90039,3.61524 -1.9707,7.08593 c -1.64706,5.92227 -1.9973,10.61628 -2.13867,28.58594 l -0.16993,21.5 -5.45312,5.5 c -6.30457,6.35919 -10.24812,13.19704 -12.41992,21.53516 -3.13259,12.02681 -0.99003,20.13716 7.54883,28.57226 5.81719,5.74651 16.75721,11.34264 24.68359,12.62891 l 3.49805,0.56836 -0.72852,8.09766 c -0.40069,4.45383 -1.03682,15.97265 -1.41406,25.59765 l -0.6875,17.5 -3.9082,8.5 c -3.32408,7.22824 -3.9177,9.54733 -3.9668,15.5 -0.0746,9.04126 3.24219,15.88403 11.79687,24.33985 11.31712,11.18634 27.49185,19.04602 46.64649,22.66796 8.88542,1.68013 26.88133,1.2463 38.20312,-0.91992 9.09411,-1.73999 21.9458,-6.89979 28.24219,-11.33789 14.79063,-10.4254 16.41752,-33.45315 3.42969,-48.56055 -2.27495,-2.64621 -7.25056,-7.29522 -11.05664,-10.33203 -3.80609,-3.03682 -8.46605,-7.62247 -10.35547,-10.18945 -4.94519,-6.71855 -13.72531,-24.82881 -18.50586,-38.16797 -2.26678,-6.325 -4.46517,-12.39388 -4.88477,-13.48633 -0.66344,-1.72727 0.32943,-2.53341 7.61329,-6.18945 7.91422,-3.97246 15.20805,-8.92765 18.11914,-12.30859 5.04586,-5.86027 6.61951,-16.16504 3.30078,-21.60742 -4.3947,-7.20688 -14.04869,-12.83653 -26.35547,-15.36719 l -5.75,-1.18164 0.0957,-16.67969 c 0.053,-9.1735 0.61553,-19.11447 1.25,-22.08984 l 1.1543,-5.40821 11.14258,-2.73047 c 12.64906,-3.09972 26.40651,-7.40838 30.625,-9.58984 6.00405,-3.10482 10.69163,-8.41649 12.29492,-13.93164 2.85196,-9.81039 -0.89837,-19.36726 -12.39649,-31.58984 -12.87902,-13.69048 -24.54254,-21.40033 -37.81445,-24.9961 -6.42372,-1.74039 -10.4901,-2.11061 -22.35156,-2.03711 z m 4.13672,28.41407 c 12.40442,0.59731 19.12782,3.6587 29.87109,13.5996 l 7.49219,6.93164 -6.51367,2.01954 c -3.58164,1.10989 -10.83577,2.95449 -16.1211,4.09961 -12.86934,2.78824 -14.64632,3.54859 -19.69922,8.4375 -8.83739,8.55057 -11.07911,17.59876 -11.13281,44.9414 l -0.0332,17.75 -3.06641,0 c -1.68616,0 -3.88844,0.44202 -4.89453,0.98047 -1.32668,0.71002 -2.16392,0.57561 -3.04687,-0.48828 -2.36594,-2.85078 -8.53629,-5.96175 -13.98047,-7.04883 l -5.50977,-1.09961 -0.7832,-4.92187 c -0.42991,-2.70664 -0.5126,-8.38417 -0.18555,-12.61719 0.56067,-7.2569 0.81301,-7.91654 4.43359,-11.53711 4.94892,-4.94892 6.49009,-10.34032 5.10157,-17.85156 -0.56237,-3.04213 -1.23537,-5.87696 -1.4961,-6.29883 -0.26073,-0.42186 0.22366,-3.4326 1.07618,-6.69141 3.058,-11.68939 -0.18538,-19.06246 -9.58985,-21.80468 -4.07778,-1.18902 -4.30975,-1.41589 -2.46289,-2.4043 5.35225,-2.86444 37.1723,-6.63985 50.54102,-5.99609 z M 604.84961,288.375 c 0.90381,0.074 1.89556,0.31818 2.89844,0.75781 1.81541,0.79581 4.53828,1.70827 6.05078,2.02735 2.49393,0.52612 2.75,0.98834 2.75,4.96679 0,4.33027 -0.062,4.40706 -4.67969,5.98047 -7.25601,2.47237 -7.75533,2.26737 -8.94141,-3.65625 -0.57817,-2.8875 -1.38519,-6.00155 -1.79296,-6.92187 -0.9197,-2.07568 1.00342,-3.37642 3.71484,-3.1543 z m -35.52539,5.32617 c 0.7144,0 5.22461,8.22454 5.22461,9.52735 0,1.05409 -1.88898,0.353 -4.61524,-1.7129 -1.58667,-1.20235 -3.01117,-2.26492 -3.16406,-2.36132 -0.59912,-0.37768 1.77867,-5.45313 2.55469,-5.45313 z m 50.35351,36.20899 1.02344,2.64648 c 0.56288,1.45495 2.72244,7.36953 4.80078,13.14453 11.72133,32.56961 20.39939,46.11691 41.33203,64.52344 7.50034,6.59522 7.51986,8.47833 0.1211,11.97851 -3.07593,1.45515 -8.58843,3.24075 -12.25,3.96876 -10.65687,2.11881 -17.10963,2.3427 -25.65625,0.89257 -14.36778,-2.43784 -23.97875,-6.88406 -32.65039,-15.10937 l -3.64844,-3.46094 2.30664,-5.2168 c 4.47987,-10.12977 5.49747,-15.51908 6.05274,-32.04687 0.45844,-13.64545 2.16608,-36.66202 2.75585,-37.14844 0.10045,-0.0828 3.70006,-1.05427 7.99805,-2.16015 l 7.81445,-2.01172 z"
       style="fill:url(#linearGradient5694)" />
  </g>
</svg>
