<?xml version="1.0" encoding="UTF-8" standalone="no"?>
<svg
   xmlns:osb="http://www.openswatchbook.org/uri/2009/osb"
   xmlns:dc="http://purl.org/dc/elements/1.1/"
   xmlns:cc="http://creativecommons.org/ns#"
   xmlns:rdf="http://www.w3.org/1999/02/22-rdf-syntax-ns#"
   xmlns:svg="http://www.w3.org/2000/svg"
   xmlns="http://www.w3.org/2000/svg"
   xmlns:xlink="http://www.w3.org/1999/xlink"
   version="1.1"
   id="svg2985"
   height="914.47406"
   width="592.28119">
  <defs
     id="defs5498">
    <linearGradient
       osb:paint="solid"
       id="linearGradient4756">
      <stop
         id="stop4758"
         offset="0"
         style="stop-color:#ffffff;stop-opacity:1;" />
    </linearGradient>
    <linearGradient
       osb:paint="solid"
       id="linearGradient4750">
      <stop
         id="stop4752"
         offset="0"
         style="stop-color:#000000;stop-opacity:1;" />
    </linearGradient>
    <linearGradient
       osb:paint="solid"
       id="linearGradient5694">
      <stop
         id="stop5696"
         offset="0"
         style="stop-color:#002b11;stop-opacity:1;" />
    </linearGradient>
    <linearGradient
       osb:paint="solid"
       id="linearGradient4712">
      <stop
         id="stop4714"
         offset="0"
         style="stop-color:#162d50;stop-opacity:1;" />
    </linearGradient>
    <linearGradient
       osb:paint="solid"
       id="linearGradient4706">
      <stop
         id="stop4708"
         offset="0"
         style="stop-color:#d40000;stop-opacity:1;" />
    </linearGradient>
    <linearGradient
       gradientUnits="userSpaceOnUse"
       y2="508.69208"
       x2="761.44257"
       y1="508.69208"
       x1="262.13925"
       id="linearGradient4716"
       xlink:href="#linearGradient4712" />
    <linearGradient
       gradientUnits="userSpaceOnUse"
       y2="500.0004"
       x2="771.30902"
       y1="500.0004"
       x1="228.69211"
       id="linearGradient4754"
       xlink:href="#linearGradient4750" />
    <linearGradient
       gradientUnits="userSpaceOnUse"
       y2="500.10483"
       x2="752.40271"
       y1="500.10483"
       x1="248.61133"
       id="linearGradient4760"
       xlink:href="#linearGradient4756" />
    <linearGradient
       y2="508.69208"
       x2="761.44257"
       y1="508.69208"
       x1="262.13925"
       gradientUnits="userSpaceOnUse"
       id="linearGradient501"
       xlink:href="#linearGradient4712" />
    <linearGradient
       y2="508.69208"
       x2="761.44257"
       y1="508.69208"
       x1="262.13925"
       gradientUnits="userSpaceOnUse"
       id="linearGradient503"
       xlink:href="#linearGradient4712" />
    <linearGradient
       y2="508.69208"
       x2="761.44257"
       y1="508.69208"
       x1="262.13925"
       gradientUnits="userSpaceOnUse"
       id="linearGradient505"
       xlink:href="#linearGradient4712" />
  </defs>
  <metadata
     id="metadata5594">
    <rdf:RDF>
      <cc:Work
         rdf:about="">
        <dc:format>image/svg+xml</dc:format>
        <dc:type
           rdf:resource="http://purl.org/dc/dcmitype/StillImage" />
        <dc:title />
      </cc:Work>
    </rdf:RDF>
  </metadata>
  <g
     transform="translate(-203.85937,-42.762366)"
     style="display:inline"
     id="layer19">
    <path
       id="path4874"
       d="m 675.52148,60.564453 c -6.23635,0.0018 -12.72851,0.118033 -18.16601,0.302735 -5.4375,0.184701 -9.82034,0.437922 -11.83399,0.716796 -2.01365,0.278875 -8.28691,0.64065 -16.77343,1 -8.48653,0.359351 -19.18633,0.716278 -30.04883,0.982422 -18.86865,0.462305 -32.55016,0.910224 -44.42969,1.519532 -11.87952,0.609307 -21.95705,1.380003 -33.61719,2.484374 -2.90017,0.274686 -7.50323,0.52375 -12.58203,0.705079 -5.07879,0.181328 -10.63332,0.294921 -15.43945,0.294921 -3.98019,0 -9.05229,0.170396 -14.7832,0.476563 -5.73092,0.306167 -12.12014,0.747742 -18.73438,1.289063 -6.61424,0.54132 -13.45382,1.183211 -20.08398,1.888671 -6.63016,0.70546 -13.05141,1.474852 -18.83008,2.273438 -6.38468,0.882333 -17.3506,2.246363 -40.5,5.041015 -6.70917,0.809949 -12.31344,1.544546 -17.3125,2.314454 -4.99907,0.769907 -9.39301,1.575338 -13.6836,2.527343 -4.29058,0.952006 -8.47681,2.050009 -13.06054,3.40625 -4.58373,1.356242 -9.56487,2.970508 -15.44336,4.953125 -2.70338,0.911759 -5.91773,2.211394 -9.30078,3.720704 -3.38305,1.509309 -6.93556,3.22913 -10.31641,4.982422 -3.38085,1.75329 -6.58838,3.53989 -9.28515,5.18359 -2.69678,1.64371 -4.88206,3.14368 -6.2129,4.32422 -1.53996,1.36606 -3.46602,3.55244 -5.54101,6.19922 -2.07499,2.64678 -4.29975,5.7539 -6.43359,8.96484 -2.13385,3.21095 -4.17799,6.52545 -5.89454,9.58399 -1.71654,3.05854 -3.10465,5.86121 -3.92773,8.05078 -0.99228,2.63968 -2.12314,6.65814 -3.29883,11.5625 -1.17569,4.90436 -2.39611,10.69528 -3.56836,16.87891 -1.17225,6.18362 -2.29537,12.76078 -3.27734,19.23828 -0.98197,6.47749 -1.82289,12.85466 -2.42774,18.64062 -0.69727,6.67013 -1.54424,13.04086 -2.61328,19.5586 -1.06903,6.51773 -2.36012,13.18248 -3.94726,20.4414 -1.04967,4.80075 -1.74867,8.87592 -2.26953,13.90039 -0.52087,5.02448 -0.86359,10.99827 -1.20313,19.59961 -0.25175,6.37749 -0.76584,14.14175 -1.4375,22.05469 -0.67166,7.91294 -1.50088,15.97457 -2.38281,22.94531 -2.23635,17.67603 -3.37457,26.78342 -3.72461,31.66211 -0.17502,2.43935 -0.15251,3.82249 0.0273,4.68946 0.17986,0.86696 0.51769,1.21844 0.97461,1.59765 0.27698,0.22987 0.51654,0.66317 0.71875,1.28125 0.20222,0.61808 0.36625,1.42107 0.49414,2.39258 0.25578,1.94302 0.36511,4.55702 0.32617,7.70508 -0.0389,3.14806 -0.22451,6.82944 -0.55468,10.90429 -0.33018,4.07486 -0.80588,8.54417 -1.42383,13.26758 -0.63966,4.88905 -1.11939,9.6456 -1.43945,14.27735 -0.32007,4.63175 -0.47998,9.13918 -0.48047,13.52539 -5e-4,4.3862 0.15749,8.65227 0.47656,12.80468 0.31907,4.15242 0.79887,8.19071 1.4375,12.1211 0.47539,2.92591 0.83558,5.3887 1.10352,8.63672 0.26793,3.24801 0.44406,7.28103 0.54687,13.34765 0.20562,12.13325 0.12286,32.40042 -0.0781,70.78711 -0.13561,25.90088 -0.34059,46.64961 -0.5996,61.48633 -0.25902,14.83672 -0.57206,23.76142 -0.92774,26.01367 -0.53435,3.38369 -1.0023,6.9057 -1.41601,10.75 -0.41371,3.8443 -0.77379,8.01163 -1.0918,12.6836 -0.63602,9.34393 -1.10496,20.7095 -1.50781,35.5664 -0.27306,10.07036 -0.60864,18.26802 -1.00977,24.66211 -0.40113,6.39409 -0.8678,10.98462 -1.40625,13.83789 -0.55537,2.94296 -0.97497,8.32168 -1.25781,14.9961 -0.28285,6.67442 -0.42947,14.64477 -0.4375,22.76953 -0.008,8.12475 0.12156,16.4033 0.39062,23.69726 0.26907,7.29397 0.67812,13.60312 1.22657,17.78516 0.79154,6.03564 1.72664,11.42684 2.8457,16.2793 0.55953,2.42622 1.16527,4.71867 1.82226,6.88867 0.657,2.17 1.36406,4.21805 2.12891,6.1582 0.76485,1.94015 1.5876,3.77113 2.4707,5.50781 0.8831,1.73669 1.82811,3.37791 2.83985,4.9375 1.01174,1.5596 2.08947,3.03838 3.24023,4.44727 1.15077,1.40889 2.37365,2.74864 3.67383,4.0332 1.26704,1.25181 2.41367,2.31377 3.58984,3.28125 1.17618,0.96748 2.38102,1.84139 3.76563,2.71289 2.76922,1.74301 6.25549,3.4815 11.6543,5.97071 7.11612,3.281 15.01672,7.17204 17.55664,8.64648 2.26572,1.31527 6.57428,3.27495 11.94726,5.51367 5.37299,2.23873 11.80956,4.75583 18.33594,7.18946 6.52638,2.43362 13.14129,4.78363 18.86719,6.68359 5.72589,1.89996 10.56361,3.35054 13.53515,3.98828 5.86304,1.2583 18.38249,4.35225 29.66602,7.25391 11.28353,2.90165 21.33113,5.61102 22.25391,6.09765 0.97699,0.51524 5.37734,1.68737 9.77734,2.60352 4.4,0.91615 11.375,2.53538 15.5,3.59961 2.51146,0.64795 7.64719,1.63603 14.125,2.76562 6.4778,1.1296 14.29812,2.39994 22.17578,3.61524 7.87766,1.21529 15.81241,2.37424 22.52344,3.27929 6.71102,0.90506 12.19788,1.55699 15.17578,1.75586 5.225,0.34894 14,1.46723 19.5,2.48438 2.16787,0.40092 4.15403,0.71509 6.36914,0.95703 2.21511,0.24194 4.65834,0.41242 7.73828,0.52539 6.15989,0.22594 14.86787,0.2232 29.39258,0.11328 9.2125,-0.0697 19.61289,-0.26496 28.94726,-0.52344 9.33438,-0.25847 17.60274,-0.58016 22.55274,-0.90234 9.32119,-0.60669 17.30675,-1.20974 24.33594,-1.86719 7.02918,-0.65744 13.10278,-1.36984 18.59765,-2.1914 5.49488,-0.82156 10.41066,-1.75253 15.12891,-2.85157 4.71825,-1.09903 9.23819,-2.36558 13.9375,-3.85546 4.1979,-1.33092 8.07517,-2.70862 11.62305,-4.13086 3.54787,-1.42224 6.76585,-2.88901 9.64843,-4.39454 2.88258,-1.50552 5.42886,-3.05009 7.63086,-4.63085 2.20201,-1.58077 4.06025,-3.19773 5.56641,-4.84571 1.09387,-1.19687 1.97835,-2.22043 2.73242,-3.2207 0.75407,-1.00027 1.37775,-1.97717 1.94727,-3.08203 1.13903,-2.20973 2.06419,-4.92992 3.39648,-9.36524 1.68121,-5.59689 4.36045,-14.45078 5.95508,-19.67578 1.59464,-5.225 5.40524,-19.175 8.4668,-31 1.3203,-5.09953 2.37943,-9.32338 3.28125,-13.26953 0.90182,-3.94614 1.64699,-7.61532 2.33789,-11.60742 1.38178,-7.9842 2.54861,-17.25893 4.33203,-32.62305 1.23863,-10.67083 2.15273,-18.15728 2.82812,-25.46289 0.67539,-7.3056 1.11286,-14.42971 1.39649,-24.38086 0.28362,-9.95115 0.41321,-22.72846 0.47656,-41.33594 0.0634,-18.60747 0.0597,-43.04574 0.0742,-76.32031 0.0151,-34.5125 0.12422,-67.9125 0.28711,-93.92187 0.16288,-26.00938 0.37953,-44.62813 0.61133,-49.57813 0.4636,-9.9 1.27824,-40.05 1.81054,-67 0.26615,-13.475 0.62754,-26.67837 0.9961,-37.0957 0.36855,-10.41733 0.74427,-18.04862 1.03711,-20.37891 0.58567,-4.66057 1.06445,-12.32678 1.06445,-17.03711 0,-2.35517 0.16703,-5.84184 0.4375,-9.5625 0.27047,-3.72065 0.64438,-7.67529 1.05469,-10.96484 0.4103,-3.28955 0.78713,-7.40442 1.0625,-11.38477 0.27536,-3.98034 0.44928,-7.82617 0.45703,-10.57617 0.009,-3.15611 0.22063,-7.71035 0.5664,-12.91992 0.34578,-5.20957 0.82587,-11.07526 1.36914,-16.85547 0.54328,-5.78021 1.15056,-11.47376 1.75196,-16.3418 0.6014,-4.86803 1.19664,-8.90976 1.71679,-11.38281 1.70883,-8.12451 3.12645,-15.37542 4.28907,-22.08008 1.16261,-6.70466 2.07102,-12.86381 2.76367,-18.80273 0.69265,-5.93892 1.16785,-11.65707 1.4668,-17.48438 0.29895,-5.8273 0.42084,-11.76301 0.40234,-18.13281 -0.0287,-9.89583 -0.11129,-15.71848 -0.48633,-20.51172 -0.18752,-2.39661 -0.4491,-4.53631 -0.8125,-6.79882 -0.3634,-2.26252 -0.82892,-4.64768 -1.42773,-7.53711 -0.92041,-4.44118 -1.94175,-8.76435 -3.01758,-12.83399 -1.07583,-4.06963 -2.20594,-7.88531 -3.3457,-11.308592 -1.13977,-3.42328 -2.28818,-6.454918 -3.40039,-8.957031 -1.11222,-2.502113 -2.18847,-4.475115 -3.18165,-5.78125 -0.74201,-0.97583 -1.59648,-1.922737 -2.5625,-2.839844 -0.96601,-0.917107 -2.04401,-1.804276 -3.22851,-2.660156 -2.36901,-1.711761 -5.16901,-3.298169 -8.37891,-4.75 -3.20989,-1.451832 -6.82925,-2.769537 -10.83593,-3.941406 -4.00669,-1.17187 -8.40077,-2.198438 -13.16016,-3.070313 -5.77982,-1.058809 -10.30951,-1.871758 -14.20313,-2.49414 -3.89361,-0.622383 -7.15182,-1.053353 -10.38867,-1.353516 -3.23685,-0.300163 -6.45219,-0.468394 -10.26172,-0.560547 -3.80952,-0.09215 -8.21258,-0.109072 -13.82422,-0.107422 z"
       style="color:#000000;clip-rule:nonzero;display:inline;overflow:visible;visibility:visible;opacity:1;isolation:auto;mix-blend-mode:normal;color-interpolation:sRGB;color-interpolation-filters:linearRGB;solid-color:#000000;solid-opacity:1;fill:url(#linearGradient4756);fill-opacity:1;fill-rule:nonzero;stroke:none;stroke-width:1;stroke-linecap:butt;stroke-linejoin:miter;stroke-miterlimit:4;stroke-dasharray:none;stroke-dashoffset:0;stroke-opacity:1;color-rendering:auto;image-rendering:auto;shape-rendering:auto;text-rendering:auto;enable-background:accumulate" />
    <path
       id="path4872"
       d="m 655.76953,42.84375 c -8.53133,0.115982 -16.66685,0.359812 -23.57031,0.744141 -11,0.612392 -34.85,1.501798 -53,1.978515 -9.075,0.238359 -18.05547,0.574159 -25.21484,0.921875 -7.15938,0.347717 -12.49766,0.70735 -14.28516,0.996094 -1.7875,0.288744 -6.56328,0.612434 -12.81641,0.902344 -6.25312,0.289909 -13.98359,0.546038 -21.68359,0.697265 -15.4,0.302454 -32.725,0.994283 -38.5,1.53711 -16.00015,1.503949 -28.56943,2.783334 -40.0586,4.107422 -11.48916,1.324087 -21.89822,2.692879 -33.57812,4.378906 -5.57494,0.804758 -11.92579,1.462891 -14.11328,1.46289 -2.1875,10e-7 -6.27385,0.434607 -9.08008,0.966797 -2.80623,0.53219 -9.05538,1.450808 -13.88672,2.041016 -3.56833,0.435915 -8.10205,1.341055 -13.16015,2.578125 -5.05811,1.23707 -10.63974,2.805609 -16.30274,4.568359 -5.66299,1.762751 -11.408,3.719464 -16.79101,5.732422 -5.38302,2.012958 -10.40489,4.082621 -14.62305,6.070313 -4.73282,2.230213 -8.81637,4.369022 -12.45703,6.59375 -1.82033,1.112363 -3.53022,2.245966 -5.1543,3.423828 -1.62408,1.177862 -3.16354,2.39956 -4.64258,3.6875 -1.47903,1.28794 -2.89802,2.641386 -4.2832,4.083988 -1.38518,1.44259 -2.7356,2.97339 -4.07813,4.61523 -2.68505,3.28367 -5.33658,7.01127 -8.1582,11.35938 -1.72279,2.65482 -3.31582,5.29152 -4.77539,7.90039 -1.45956,2.60886 -2.78533,5.19085 -3.9707,7.73047 -1.18537,2.53961 -2.23065,5.0373 -3.13086,7.48437 -0.90021,2.44707 -1.65568,4.84259 -2.25977,7.17383 -1.46224,5.64296 -3.4407,15.72179 -5.24609,26.22461 -1.80539,10.50282 -3.43772,21.42964 -4.20703,28.76562 -0.73678,7.02585 -1.67413,14.17989 -2.72461,20.90039 -1.05049,6.72051 -2.21411,13.00748 -3.40235,18.30078 -0.76395,3.40323 -1.45252,6.98317 -2.05664,10.64844 -0.60411,3.66528 -1.12336,7.41491 -1.54687,11.1582 -0.42351,3.7433 -0.75247,7.47991 -0.97461,11.11719 -0.22214,3.63728 -0.33789,7.1762 -0.33789,10.52344 0,3.37572 -0.22034,8.16453 -0.57617,13.16016 -0.35583,4.99562 -0.84715,10.19807 -1.38672,14.40234 -1.07914,8.40854 -3.09275,25.41406 -4.47461,37.78906 -0.80367,7.1971 -1.7938,14.44377 -2.9043,21.33008 -1.11049,6.88631 -2.34135,13.41225 -3.62695,19.16992 -1.65378,7.40659 -2.88722,13.6185 -3.69922,18.81641 -0.406,2.59896 -0.70745,4.94453 -0.90234,7.05859 -0.1949,2.11407 -0.28423,3.99786 -0.26758,5.67188 0.0166,1.67402 0.1405,3.13914 0.36914,4.41797 0.22863,1.27882 0.56285,2.37034 1.00391,3.29882 0.44105,0.92849 0.98865,1.69342 1.64257,2.31641 0.65392,0.62299 1.41403,1.10445 2.28125,1.4668 0.80888,0.33797 1.41591,0.59293 1.88868,0.94531 0.47276,0.35238 0.81203,0.80182 1.08398,1.53125 0.54389,1.45886 0.82067,4.03482 1.37305,9.17773 0.60843,5.66475 1.85376,15.69883 2.76757,22.29883 0.69557,5.02375 1.07842,9.00024 1.20313,14.23242 0.12471,5.23219 -0.009,11.72008 -0.3457,21.76758 -0.44275,13.20141 -0.6849,24.08251 -0.73829,35.16016 -0.0534,11.07765 0.082,22.35185 0.39454,36.33984 0.12042,5.39028 0.14099,11.06501 0.0703,16.80078 -0.0707,5.73578 -0.2321,11.53351 -0.47461,17.16602 -0.24251,5.63251 -0.56588,11.10116 -0.96094,16.18164 -0.39505,5.08048 -0.8623,9.77187 -1.39062,13.85156 -0.40955,3.1625 -0.88231,9.69297 -1.3125,17.66797 -0.4302,7.975 -0.81783,17.39453 -1.06055,26.33203 -0.48545,17.875 -1.10174,33.625 -1.37109,35 -0.8493,4.33558 -1.51234,8.05164 -2.02149,11.71094 -0.50915,3.6593 -0.86462,7.26118 -1.09765,11.37305 -0.23303,4.11186 -0.3443,8.73252 -0.36524,14.42578 -0.0209,5.69326 0.0487,12.45979 0.17578,20.86328 0.17368,11.48189 0.42686,20.87144 0.86133,28.8125 0.21724,3.97053 0.48009,7.57883 0.80078,10.90625 0.32069,3.32742 0.69879,6.37303 1.14844,9.21875 0.44965,2.84572 0.97011,5.49021 1.57422,8.01562 0.60411,2.52542 1.29209,4.93232 2.07617,7.29883 0.78408,2.36652 1.66475,4.69349 2.6543,7.0625 0.98955,2.36902 2.08806,4.77959 3.30859,7.3125 1.22056,2.53299 2.23662,4.5787 3.1875,6.33203 0.95088,1.75334 1.83699,3.21375 2.79297,4.58008 0.95597,1.36633 1.9829,2.6378 3.21875,4.00977 1.23585,1.37197 2.6802,2.84498 4.4707,4.61523 3.2327,3.19612 5.62226,5.35656 7.90039,7.00977 1.13907,0.8266 2.25159,1.52652 3.42578,2.16601 1.1742,0.63949 2.41089,1.21795 3.80274,1.80274 3.85,1.61758 12.85,5.93273 20,9.58984 6.42423,3.28589 13.00162,6.37796 19.82617,9.3086 6.82455,2.93063 13.8955,5.70051 21.31055,8.34374 7.41504,2.64324 15.17342,5.15834 23.36914,7.58204 8.19571,2.42369 16.82953,4.75532 25.99609,7.02734 14.57601,3.61279 29.13348,7.47552 32.34961,8.58203 3.21613,1.10651 9.51518,2.70086 13.99805,3.54492 4.48287,0.84407 10.17539,2.17923 12.65039,2.96485 2.475,0.78562 8.1,1.93764 12.5,2.56054 4.4,0.6229 18.75471,2.8984 31.89844,5.05664 6.57186,1.07913 13.23242,2.06598 18.66992,2.78711 5.4375,0.72114 9.65194,1.17656 11.33008,1.19141 1.67813,0.0149 4.38555,0.23915 7.39453,0.58984 3.00898,0.3507 6.31953,0.8278 9.20703,1.34571 2.37668,0.42628 4.49999,0.75495 7.01172,1.0039 2.51172,0.24896 5.412,0.41911 9.3457,0.52539 7.86741,0.21258 19.86558,0.17357 41.14258,0.0234 12.925,-0.0912 25.96914,-0.30005 36.57226,-0.56445 10.60313,-0.2644 18.76524,-0.58433 21.92774,-0.89453 6.325,-0.62039 16.675,-1.60784 23,-2.19336 4.0364,-0.37366 7.86979,-0.82939 11.60937,-1.39258 3.73958,-0.56319 7.38511,-1.23456 11.04688,-2.03516 3.66177,-0.8006 7.3396,-1.73051 11.14258,-2.8164 3.80297,-1.08589 7.73134,-2.32703 11.89453,-3.7461 5.68662,-1.93834 10.60135,-3.77831 14.89648,-5.60937 4.29514,-1.83106 7.97077,-3.65248 11.18164,-5.5586 1.60544,-0.95305 3.09435,-1.92758 4.48633,-2.93359 1.39198,-1.00601 2.68738,-2.04325 3.9043,-3.125 2.43384,-2.1635 4.55551,-4.50225 6.51953,-7.10547 1.45217,-1.92479 2.63176,-3.58113 3.66211,-5.26172 1.03035,-1.68059 1.91059,-3.3858 2.76562,-5.40429 0.85504,-2.0185 1.68511,-4.35054 2.61133,-7.28907 0.92622,-2.93852 1.94946,-6.48316 3.19336,-10.92382 2.23,-7.96096 4.52537,-15.71498 5.10156,-17.23047 0.57619,-1.5155 3.753,-13.25712 7.06055,-26.09375 1.35824,-5.27134 2.43412,-9.54802 3.33594,-13.42578 0.90181,-3.87777 1.63034,-7.3574 2.28906,-11.03125 1.31744,-7.34772 2.36125,-15.47649 3.98633,-29.14649 l 3.59766,-30.26172 0.9414,-64.5 c 0.55079,-37.75662 0.83272,-61.66766 0.86524,-83.37109 0.0325,-21.70343 -0.1844,-41.19925 -0.63477,-70.12891 -0.23792,-15.28299 -0.31977,-26.82744 -0.23633,-35.52929 0.0834,-8.70186 0.33218,-14.56111 0.75391,-18.47071 0.3263,-3.025 0.72091,-11.11953 1.09375,-21.72265 0.37284,-10.60313 0.72391,-23.71485 0.96289,-36.77735 0.52056,-28.4537 1.12889,-51.30473 1.86133,-69.49219 0.36621,-9.09372 0.76186,-17.02161 1.19531,-23.90039 0.43345,-6.87878 0.90386,-12.70917 1.41406,-17.60742 0.83067,-7.975 1.50981,-18.775 1.50781,-24 -0.002,-5.225 0.41842,-13.325 0.93555,-18 0.51714,-4.675 1.44942,-14.35 2.07227,-21.5 0.62286,-7.15 1.58485,-14.75542 2.13672,-16.90039 1.00837,-3.91925 2.9974,-14.99702 7.02148,-39.09961 0.4711,-2.82172 0.84283,-5.30021 1.13672,-7.85156 0.29389,-2.55135 0.51085,-5.17472 0.66992,-8.28711 0.31815,-6.22478 0.40816,-14.40389 0.44141,-27.86133 0.0376,-15.24819 0.0454,-23.05029 -0.30469,-28.61328 -0.17507,-2.78149 -0.43915,-5.00339 -0.83398,-7.31641 -0.39484,-2.31301 -0.9207,-4.71686 -1.61719,-7.86328 -1.4633,-6.61041 -2.89595,-12.37304 -4.36133,-17.439449 -1.46538,-5.066407 -2.9635,-9.435864 -4.55664,-13.259766 -1.59314,-3.823902 -3.28234,-7.103431 -5.12891,-9.986328 -0.92328,-1.441449 -1.88628,-2.784146 -2.89648,-4.046875 -1.01021,-1.262729 -2.06686,-2.44471 -3.17969,-3.566406 -1.21344,-1.223111 -2.56474,-2.409968 -4.04687,-3.556641 -1.48214,-1.146673 -3.09456,-2.252702 -4.83399,-3.318359 -1.73943,-1.065658 -3.60453,-2.090249 -5.58984,-3.070313 -1.98531,-0.980064 -4.09076,-1.916747 -6.31055,-2.806641 -4.43957,-1.779786 -9.33744,-3.373989 -14.64648,-4.765624 -5.30905,-1.391636 -11.02992,-2.580014 -17.11719,-3.546876 -2.54387,-0.404051 -6.27524,-0.757652 -10.83984,-1.054687 -4.56461,-0.297035 -9.96314,-0.537274 -15.84376,-0.716797 -11.76123,-0.359046 -25.4491,-0.4728 -38.24609,-0.298828 z m 19.75195,17.720703 c 5.61164,-0.0016 10.0147,0.01527 13.82422,0.107422 3.80953,0.09215 7.02487,0.260384 10.26172,0.560547 3.23685,0.300163 6.49506,0.731133 10.38867,1.353516 3.89362,0.622382 8.42331,1.435331 14.20313,2.49414 4.75939,0.871875 9.15347,1.898443 13.16016,3.070313 4.00668,1.171869 7.62604,2.489574 10.83593,3.941406 3.2099,1.451831 6.0099,3.038239 8.37891,4.75 1.1845,0.85588 2.2625,1.743049 3.22851,2.660156 0.96602,0.917107 1.82049,1.864014 2.5625,2.839844 0.99318,1.306135 2.06943,3.279137 3.18165,5.78125 1.11221,2.502113 2.26062,5.533751 3.40039,8.957031 1.13976,3.423282 2.26987,7.238962 3.3457,11.308592 1.07583,4.06964 2.09717,8.39281 3.01758,12.83399 0.59881,2.88943 1.06433,5.27459 1.42773,7.53711 0.3634,2.26251 0.62498,4.40221 0.8125,6.79882 0.37504,4.79324 0.45758,10.61589 0.48633,20.51172 0.0185,6.3698 -0.10339,12.30551 -0.40234,18.13281 -0.29895,5.82731 -0.77415,11.54546 -1.4668,17.48438 -0.69265,5.93892 -1.60106,12.09807 -2.76367,18.80273 -1.16262,6.70466 -2.58024,13.95557 -4.28907,22.08008 -0.52015,2.47305 -1.11539,6.51478 -1.71679,11.38281 -0.6014,4.86804 -1.20868,10.56159 -1.75196,16.3418 -0.54327,5.78021 -1.02336,11.6459 -1.36914,16.85547 -0.34577,5.20957 -0.5575,9.76381 -0.5664,12.91992 -0.008,2.75 -0.18167,6.59583 -0.45703,10.57617 -0.27537,3.98035 -0.6522,8.09522 -1.0625,11.38477 -0.41031,3.28955 -0.78422,7.24419 -1.05469,10.96484 -0.27047,3.72066 -0.4375,7.20733 -0.4375,9.5625 0,4.71033 -0.47878,12.37654 -1.06445,17.03711 -0.29284,2.33029 -0.66856,9.96158 -1.03711,20.37891 -0.36856,10.41733 -0.72995,23.6207 -0.9961,37.0957 -0.5323,26.95 -1.34694,57.1 -1.81054,67 -0.2318,4.95 -0.44845,23.56875 -0.61133,49.57813 -0.16289,26.00937 -0.27201,59.40937 -0.28711,93.92187 -0.0145,33.27457 -0.0109,57.71284 -0.0742,76.32031 -0.0634,18.60748 -0.19294,31.38479 -0.47656,41.33594 -0.28363,9.95115 -0.7211,17.07526 -1.39649,24.38086 -0.67539,7.30561 -1.58949,14.79206 -2.82812,25.46289 -1.78342,15.36412 -2.95025,24.63885 -4.33203,32.62305 -0.6909,3.9921 -1.43607,7.66128 -2.33789,11.60742 -0.90182,3.94615 -1.96095,8.17 -3.28125,13.26953 -3.06156,11.825 -6.87216,25.775 -8.4668,31 -1.59463,5.225 -4.27387,14.07889 -5.95508,19.67578 -1.33229,4.43532 -2.25745,7.15551 -3.39648,9.36524 -0.56952,1.10486 -1.1932,2.08176 -1.94727,3.08203 -0.75407,1.00027 -1.63855,2.02383 -2.73242,3.2207 -1.50616,1.64798 -3.3644,3.26494 -5.56641,4.84571 -2.202,1.58076 -4.74828,3.12533 -7.63086,4.63085 -2.88258,1.50553 -6.10056,2.9723 -9.64843,4.39454 -3.54788,1.42224 -7.42515,2.79994 -11.62305,4.13086 -4.69931,1.48988 -9.21925,2.75643 -13.9375,3.85546 -4.71825,1.09904 -9.63403,2.03001 -15.12891,2.85157 -5.49487,0.82156 -11.56847,1.53396 -18.59765,2.1914 -7.02919,0.65745 -15.01475,1.2605 -24.33594,1.86719 -4.95,0.32218 -13.21836,0.64387 -22.55274,0.90234 -9.33437,0.25848 -19.73476,0.45373 -28.94726,0.52344 -14.52471,0.10992 -23.23269,0.11266 -29.39258,-0.11328 -3.07994,-0.11297 -5.52317,-0.28345 -7.73828,-0.52539 -2.21511,-0.24194 -4.20127,-0.55611 -6.36914,-0.95703 -5.5,-1.01715 -14.275,-2.13544 -19.5,-2.48438 -2.9779,-0.19887 -8.46476,-0.8508 -15.17578,-1.75586 -6.71103,-0.90505 -14.64578,-2.064 -22.52344,-3.27929 -7.87766,-1.2153 -15.69798,-2.48564 -22.17578,-3.61524 -6.47781,-1.12959 -11.61354,-2.11767 -14.125,-2.76562 -4.125,-1.06423 -11.1,-2.68346 -15.5,-3.59961 -4.4,-0.91615 -8.80035,-2.08828 -9.77734,-2.60352 -0.92278,-0.48663 -10.97038,-3.196 -22.25391,-6.09765 -11.28353,-2.90166 -23.80298,-5.99561 -29.66602,-7.25391 -2.97154,-0.63774 -7.80926,-2.08832 -13.53515,-3.98828 -5.7259,-1.89996 -12.34081,-4.24997 -18.86719,-6.68359 -6.52638,-2.43363 -12.96295,-4.95073 -18.33594,-7.18946 -5.37298,-2.23872 -9.68154,-4.1984 -11.94726,-5.51367 -2.53992,-1.47444 -10.44052,-5.36548 -17.55664,-8.64648 -5.39881,-2.48921 -8.88508,-4.2277 -11.6543,-5.97071 -1.38461,-0.8715 -2.58945,-1.74541 -3.76563,-2.71289 -1.17617,-0.96748 -2.3228,-2.02944 -3.58984,-3.28125 -1.30018,-1.28456 -2.52306,-2.62431 -3.67383,-4.0332 -1.15076,-1.40889 -2.22849,-2.88767 -3.24023,-4.44727 -1.01174,-1.55959 -1.95675,-3.20081 -2.83985,-4.9375 -0.8831,-1.73668 -1.70585,-3.56766 -2.4707,-5.50781 -0.76485,-1.94015 -1.47191,-3.9882 -2.12891,-6.1582 -0.65699,-2.17 -1.26273,-4.46245 -1.82226,-6.88867 -1.11906,-4.85246 -2.05416,-10.24366 -2.8457,-16.2793 -0.54845,-4.18204 -0.9575,-10.49119 -1.22657,-17.78516 -0.26906,-7.29396 -0.39865,-15.57251 -0.39062,-23.69726 0.008,-8.12476 0.15465,-16.09511 0.4375,-22.76953 0.28284,-6.67442 0.70244,-12.05314 1.25781,-14.9961 0.53845,-2.85327 1.00512,-7.4438 1.40625,-13.83789 0.40113,-6.39409 0.73671,-14.59175 1.00977,-24.66211 0.40285,-14.8569 0.87179,-26.22247 1.50781,-35.5664 0.31801,-4.67197 0.67809,-8.8393 1.0918,-12.6836 0.41371,-3.8443 0.88166,-7.36631 1.41601,-10.75 0.35568,-2.25225 0.66872,-11.17695 0.92774,-26.01367 0.25901,-14.83672 0.46399,-35.58545 0.5996,-61.48633 0.20099,-38.38669 0.28375,-58.65386 0.0781,-70.78711 -0.10281,-6.06662 -0.27894,-10.09964 -0.54687,-13.34765 -0.26794,-3.24802 -0.62813,-5.71081 -1.10352,-8.63672 -0.63863,-3.93039 -1.11843,-7.96868 -1.4375,-12.1211 -0.31907,-4.15241 -0.47706,-8.41848 -0.47656,-12.80468 4.9e-4,-4.38621 0.1604,-8.89364 0.48047,-13.52539 0.32006,-4.63175 0.79979,-9.3883 1.43945,-14.27735 0.61795,-4.72341 1.09365,-9.19272 1.42383,-13.26758 0.33017,-4.07485 0.51575,-7.75623 0.55468,-10.90429 0.0389,-3.14806 -0.0704,-5.76206 -0.32617,-7.70508 -0.12789,-0.97151 -0.29192,-1.7745 -0.49414,-2.39258 -0.20221,-0.61808 -0.44177,-1.05138 -0.71875,-1.28125 -0.45692,-0.37921 -0.79475,-0.73069 -0.97461,-1.59765 -0.17985,-0.86697 -0.20236,-2.25011 -0.0273,-4.68946 0.35004,-4.87869 1.48826,-13.98608 3.72461,-31.66211 0.88193,-6.97074 1.71115,-15.03237 2.38281,-22.94531 0.67166,-7.91294 1.18575,-15.6772 1.4375,-22.05469 0.33954,-8.60134 0.68226,-14.57513 1.20313,-19.59961 0.52086,-5.02447 1.21986,-9.09964 2.26953,-13.90039 1.58714,-7.25892 2.87823,-13.92367 3.94726,-20.4414 1.06904,-6.51774 1.91601,-12.88847 2.61328,-19.5586 0.60485,-5.78596 1.44577,-12.16313 2.42774,-18.64062 0.98197,-6.4775 2.10509,-13.05466 3.27734,-19.23828 1.17225,-6.18363 2.39267,-11.97455 3.56836,-16.87891 1.17569,-4.90436 2.30655,-8.92282 3.29883,-11.5625 0.82308,-2.18957 2.21119,-4.99224 3.92773,-8.05078 1.71655,-3.05854 3.76069,-6.37304 5.89454,-9.58399 2.13384,-3.21094 4.3586,-6.31806 6.43359,-8.96484 2.07499,-2.64678 4.00105,-4.83316 5.54101,-6.19922 1.33084,-1.18054 3.51612,-2.68051 6.2129,-4.32422 2.69677,-1.6437 5.9043,-3.4303 9.28515,-5.18359 3.38085,-1.753292 6.93336,-3.473113 10.31641,-4.982422 3.38305,-1.50931 6.5974,-2.808945 9.30078,-3.720704 5.87849,-1.982617 10.85963,-3.596883 15.44336,-4.953125 4.58373,-1.356241 8.76996,-2.454244 13.06054,-3.40625 4.29059,-0.952005 8.68453,-1.757436 13.6836,-2.527343 4.99906,-0.769908 10.60333,-1.504505 17.3125,-2.314454 23.1494,-2.794652 34.11532,-4.158682 40.5,-5.041015 5.77867,-0.798586 12.19992,-1.567978 18.83008,-2.273438 6.63016,-0.70546 13.46974,-1.347351 20.08398,-1.888671 6.61424,-0.541321 13.00346,-0.982896 18.73438,-1.289063 5.73091,-0.306167 10.80301,-0.476563 14.7832,-0.476563 4.80613,0 10.36066,-0.113593 15.43945,-0.294921 5.0788,-0.181329 9.68186,-0.430393 12.58203,-0.705079 11.66014,-1.104371 21.73767,-1.875067 33.61719,-2.484374 11.87953,-0.609308 25.56104,-1.057227 44.42969,-1.519532 10.8625,-0.266144 21.5623,-0.623071 30.04883,-0.982422 8.48652,-0.35935 14.75978,-0.721125 16.77343,-1 2.01365,-0.278874 6.39649,-0.532095 11.83399,-0.716796 5.4375,-0.184702 11.92966,-0.300885 18.16601,-0.302735 z"
       style="color:#000000;clip-rule:nonzero;display:inline;overflow:visible;visibility:visible;opacity:1;isolation:auto;mix-blend-mode:normal;color-interpolation:sRGB;color-interpolation-filters:linearRGB;solid-color:#000000;solid-opacity:1;fill:url(#linearGradient4750);fill-opacity:1;fill-rule:nonzero;stroke:none;stroke-width:1;stroke-linecap:butt;stroke-linejoin:miter;stroke-miterlimit:4;stroke-dasharray:none;stroke-dashoffset:0;stroke-opacity:1;color-rendering:auto;image-rendering:auto;shape-rendering:auto;text-rendering:auto;enable-background:accumulate" />
    <path
       id="path5939"
       d="m 537.45508,117.57422 c -23.14469,0.005 -38.52185,2.51281 -58.2461,9.49609 -13.8156,4.89135 -25.71362,15.34029 -32.45117,28.5 -6.14193,11.99636 -5.04007,20.91873 4.07227,33.01172 6.3753,8.46066 9.73356,11.39895 14.42969,12.61914 2.88986,0.75088 2.86663,0.77683 -1.38477,1.52735 -15.61714,2.75697 -30.13872,17.73899 -30.16602,31.12304 -0.012,5.89298 3.16662,15.68179 7.09571,21.84961 8.42912,13.23188 27.6364,25.20496 42.88476,26.73242 l 6.50977,0.65235 -0.24805,5.99218 c -0.33157,8.0204 -2.61295,13.7244 -7.04883,17.61915 -3.39925,2.98458 -7.21043,4.94111 -30.15429,15.48828 -13.77676,6.33311 -24.69705,16.14015 -27.17188,24.40039 -1.39793,4.6659 0.1649,14.18541 3.35547,20.43945 2.91518,5.71422 13.01421,15.33594 21.78516,20.75391 5.93314,3.66501 10.15055,5.31522 20,7.82226 12.2224,3.11104 12.84556,3.16702 29.98242,2.70117 20.38313,-0.55411 36.75254,-3.63639 48.50976,-9.13085 11.74918,-5.49071 16.49024,-11.77866 16.49024,-21.87305 0,-10.91168 -8.63921,-21.80671 -22.51953,-28.39844 -5.92107,-2.81191 -7.4721,-3.99823 -7.4375,-5.69141 0.0449,-2.2 3.54073,-25.42125 6.49414,-43.13867 0.91683,-5.5 1.96876,-10.32669 2.33789,-10.72461 0.36913,-0.39792 4.03636,-1.36815 8.14844,-2.15625 9.98348,-1.91339 16.37162,-4.44996 23.52929,-9.34375 11.14014,-7.61666 14.6939,-13.37122 14.6836,-23.77539 -0.0103,-10.31802 -1.6383,-14.17346 -8.94141,-21.16015 -6.33878,-6.06415 -17.40544,-12.69021 -25.54492,-15.29493 -3.14848,-1.00755 -3.75,-1.64791 -3.75,-3.98632 0,-2.41835 0.82318,-3.19435 6.25,-5.89258 10.61753,-5.27905 20.11502,-12.32841 27.58789,-20.47656 3.93921,-4.29517 7.16211,-8.23267 7.16211,-8.75 0,-0.24257 0.0909,-0.45605 0.2207,-0.62305 -0.26895,-6.54107 -0.48232,-12.8892 -0.72265,-19.33008 -0.21906,-5.87065 -0.33422,-11.37927 -0.48243,-17.00195 l -0.30468,0.92383 -3.83985,-3.28711 c -10.47289,-8.9644 -22.17603,-11.62419 -51.11523,-11.61719 z m 2.54687,27.15625 c 17.63812,0.0701 31.69727,2.75961 31.69727,6.4043 0,0.69337 -2.27365,3.98264 -5.05274,7.30859 -4.71552,5.6434 -11.73956,10.7597 -21.30859,15.52344 -2.12406,1.05742 -4.65549,3.22802 -5.625,4.82226 -0.96952,1.59424 -3.28225,3.7052 -5.13867,4.69141 -4.22784,2.24601 -7.72016,7.27296 -8.51758,12.25976 l -0.61328,3.83008 -11.37305,0 -11.37109,0 -0.0215,-10.25 c -0.0322,-15.05191 -2.93307,-20.27528 -13.49414,-24.30859 -5.68399,-2.17074 -10.83065,-1.24942 -14.71289,2.63281 -3.29868,3.29869 -3.77148,3.496 -3.77148,1.57031 0,-2.48224 6.98867,-10.55532 11.35351,-13.11328 10.78628,-6.32118 29.11198,-10.42182 50.20118,-11.23633 2.63524,-0.10177 5.22831,-0.14477 7.74804,-0.13476 z m -68.21875,55.96289 c 0.34724,-0.0146 0.74258,0.0489 1.10352,0.19336 0.79773,0.31922 0.56143,0.55551 -0.60352,0.60351 -1.05416,0.0434 -1.64479,-0.19114 -1.3125,-0.52343 0.16615,-0.16613 0.46527,-0.25884 0.8125,-0.27344 z m 46.57813,26.84961 c 6.5048,-0.0479 5.74049,0.5636 3.83984,13.4082 -0.82356,5.56563 -2.20157,15.06914 -3.0625,21.11914 -0.86093,6.05 -1.68427,11.675 -1.83008,12.5 -0.5957,3.37046 -7.64912,-26.37127 -10.13867,-42.75 l -0.64648,-4.25 8.58789,0 c 1.24387,0 2.32074,-0.0205 3.25,-0.0273 z m -42.90039,1.0332 c 3.10968,-0.0358 3.42969,2.40745 5.15625,11.24414 1.20895,6.1875 2.42679,12.0375 2.70703,13 0.64607,2.21892 -0.0868,2.15187 -5.625,-0.51953 -6.3606,-3.06807 -16,-12.63263 -16,-15.875 0,-3.36677 2.53681,-5.51152 8.01367,-6.77344 2.20936,-0.50906 3.84333,-0.91302 5.08789,-1.03711 0.23336,-0.0233 0.45285,-0.0367 0.66016,-0.0391 z m 75.44726,6.06055 3.64649,1.91211 c 2.00472,1.05152 4.94981,2.9837 6.54492,4.29297 l 2.90039,2.3789 -3.50977,2.16992 c -1.93045,1.1931 -5.42445,2.84461 -7.76367,3.66993 l -4.2539,1.5 0.66406,-4.74414 c 0.36484,-2.61 0.91374,-6.19369 1.21875,-7.96289 l 0.55273,-3.2168 z m -34.83398,53.12109 c 0.0682,-0.0251 0.14544,9.1e-4 0.22851,0.084 0.33225,0.33229 0.36895,1.19413 0.0801,1.91601 -0.31922,0.79773 -0.55747,0.56144 -0.60547,-0.60351 -0.0326,-0.79062 0.0922,-1.32114 0.29688,-1.39649 z m -6.14453,30.48633 -0.65821,4.41211 c -0.36166,2.42712 -1.14904,7.38697 -1.75,11.02148 -1.60797,9.72461 -0.48451,15.23587 4.01954,19.71485 2.03791,2.02657 6.38301,4.72501 9.67773,6.00976 11.4458,4.4632 13.54079,5.50609 12.71289,6.33399 -0.45814,0.45814 -4.8606,1.72431 -9.7832,2.8125 -11.87612,2.62537 -38.55834,2.65292 -48.52344,0.0508 -9.25302,-2.41619 -23.21292,-12.13732 -21.47266,-14.95313 1.19477,-1.93318 9.00326,-6.77252 13.04688,-8.08593 6.58393,-2.13853 22.0751,-9.60344 27.20508,-13.10938 2.63696,-1.80214 7.20916,-5.73647 10.16015,-8.74219 l 5.36524,-5.46484 z"
       style="fill:url(#linearGradient4706)" />
    <path
       id="path5927"
       d="m 593.23047,721.12695 -0.20508,0.32032 -3.41406,-5.15235 c -3.88325,-5.86218 -12.81679,-12.42279 -21.17188,-15.54883 -2.99224,-1.11954 -12.81999,-3.74727 -21.83984,-5.83789 l -16.40039,-3.80078 -31.07227,-0.33203 c -4.34955,-0.0465 -8.23348,-0.0784 -11.72265,-0.0859 -3.48918,-0.008 -6.5836,0.009 -9.35157,0.0566 -16.60781,0.28441 -21.4871,1.71088 -29.66992,6.07227 -13.78755,7.34869 -19.48196,16.68803 -18.35742,30.10156 1.22488,14.61043 10.99884,27.06039 27.43555,34.94727 l 8.31836,3.99023 -0.61524,4.60547 c -0.3379,2.53345 -0.76593,5.10342 -0.95117,5.70899 -0.18773,0.61369 -3.80669,1.34447 -8.17578,1.65234 -10.09276,0.7112 -17.54642,3.57776 -23.99805,9.22656 -9.63783,8.4385 -11.64745,17.72025 -6.2832,29.01953 3.10916,6.54913 12.82532,16.11315 20.81641,20.49024 3.5057,1.92024 6.48871,3.94524 6.62695,4.5 0.13825,0.55477 0.7423,4.19972 1.34375,8.09765 0.60145,3.89793 1.35054,7.75526 1.66406,8.57227 0.4191,1.09215 -0.56544,1.76146 -3.71875,2.53125 -15.3077,3.73696 -27.66721,7.7418 -30.45117,9.86523 -9.97586,7.60896 -10.41831,18.89682 -1.0625,27.11133 11.52134,10.11588 30.24861,16.5785 83.22461,28.7168 6.05,1.38622 11.9,2.74233 13,3.01562 1.1,0.27329 9.875,0.32862 19.5,0.12305 18.9857,-0.4055 24.32448,-1.39847 33.0625,-6.1543 15.61011,-8.49609 20.64779,-21.94502 13.28516,-35.47265 -6.71904,-12.34509 -22.8895,-20.92571 -45.09766,-23.92969 l -9.25,-1.25195 0,-4.68164 0,-4.68164 7.58203,-1.64649 c 9.13321,-1.98198 13.66192,-4.59516 15.81055,-9.12305 2.03005,-4.27804 2.03726,-7.8751 0.0215,-12.12304 -1.69632,-3.57472 -4.69166,-5.98883 -8.66601,-6.98633 l -2.45899,-0.61719 1.92383,-3.67773 c 3.25851,-6.22824 1.05157,-16.49202 -5.43359,-25.26367 -1.77665,-2.40306 -1.86153,-3.32412 -0.92579,-10.0293 0.56678,-4.06135 1.31086,-9.9509 1.6543,-13.08789 0.70151,-6.40759 -0.12461,-5.85076 12.32813,-8.31446 15.84208,-3.13426 26.62809,-8.25279 35.4414,-16.81835 l 4.31641,-4.19532 c 0.74102,-5.32196 1.43378,-10.50846 2.32617,-16.2207 0.29496,-1.88807 0.31574,-1.84179 0.61133,-3.69141 z m -103.14453,-3.42578 c 2.82118,0.0177 5.93511,0.0574 9.38086,0.11328 25.27094,0.40998 26.01261,0.4805 41.4082,4.02149 8.62189,1.98303 17.14848,4.36668 18.94727,5.29687 l 3.26953,1.69141 -3.76172,1.93164 c -6.28283,3.22328 -18.58808,5.91412 -28.90039,6.32031 -15.74884,0.62032 -18.10189,3.3258 -19.13281,21.99414 -0.36449,6.6 -0.92455,13.9125 -1.24415,16.25 -0.60089,4.39469 -0.83753,4.52635 -5.85351,3.25 -1.65,-0.41985 -5.1575,-0.81771 -7.79492,-0.88281 l -4.79688,-0.11719 0.79688,-3.75 c 0.43742,-2.0625 0.79492,-8.51115 0.79492,-14.33008 0,-9.99111 -0.15174,-10.77874 -2.73828,-14.16796 -3.00475,-3.9372 -8.3693,-6.25501 -12.58594,-5.4375 -5.16303,1.00101 -18.88889,-8.22661 -20.54883,-13.81446 -0.44354,-1.49309 0.22448,-2.55925 2.63867,-4.20703 4.23168,-2.88831 8.83005,-3.97319 22.49414,-4.14648 2.27735,-0.0289 4.80578,-0.0333 7.62696,-0.0156 z m -3.07227,86.86914 4.47656,0 c 2.46193,0 6.25113,0.53186 8.41993,1.18164 4.42115,1.32461 4.28761,0.10495 1.58789,14.56836 -1.13609,6.08644 -1.24603,6.24671 -4.23243,6.15821 -2.81316,-0.0834 -13.62678,-2.63461 -14.38671,-3.39454 -0.17911,-0.17911 0.67959,-4.41816 1.90625,-9.41992 l 2.22851,-9.09375 z m -29.5957,0.39258 c 1.42492,-0.0961 1.32883,0.56529 0.7207,2.98828 -0.74145,2.95415 -1.20821,3.1101 -3.68945,1.22656 -2.51505,-1.90919 -2.15971,-3.29536 1,-3.90234 0.85021,-0.16332 1.49378,-0.28046 1.96875,-0.3125 z m 28.78125,47.72656 4,0.49414 c 11.4027,1.40965 10.5,0.7706 10.5,7.43164 0,3.27508 -0.225,5.95508 -0.5,5.95508 -0.275,0 -0.5,-0.7181 -0.5,-1.5957 0,-2.85594 -4.06811,-7.39942 -8.83594,-9.86914 l -4.66406,-2.41602 z m 13.73242,18.10352 c 0.28722,-0.0349 0.92546,1.26253 1.70508,3.55078 3.74987,11.00618 6.35296,12.22018 36.00586,16.7832 5.56012,0.8556 14.37814,3.85371 17.25,5.86524 2.16387,1.51564 2.15425,1.53373 -1.47656,3.05078 -4.93081,2.06022 -31.49386,1.97252 -40.7168,-0.13477 -12.03869,-2.75065 -42.46194,-10.34847 -47,-11.73828 -3.98374,-1.22004 -4.21319,-1.43964 -2,-1.9043 5.8183,-1.22157 13.83807,-2.59926 18.5,-3.17968 2.75,-0.34238 6.43921,-1.07684 8.19922,-1.63086 3.85225,-1.2126 9.27379,-7.09579 9.37109,-10.16992 0.0101,-0.32035 0.0664,-0.48058 0.16211,-0.49219 z"
       style="fill:url(#linearGradient4706)" />
    <path
       id="path5925"
       d="m 593.23047,721.12695 c -0.29559,1.84962 -0.31637,1.80334 -0.61133,3.69141 -0.89239,5.71224 -1.58515,10.89874 -2.32617,16.2207 l 0.0547,-0.0527 1.72851,4.18164 c 2.48597,6.01052 9.80508,13.03086 15.78516,15.14258 4.68288,1.65365 4.9475,1.93233 4.41015,4.63476 -0.31441,1.58125 -0.57226,4.51797 -0.57226,6.52735 l 0,3.65429 -8.48047,1.15625 c -10.46348,1.42681 -19.94437,6.04413 -22.89258,11.14844 -2.78666,4.82461 -2.45544,11.28816 0.83203,16.25586 3.12016,4.71488 14.34757,12.33372 24.16407,16.39648 3.78194,1.56523 7.17625,3.10236 7.54296,3.41602 0.36671,0.31367 0.80777,7.69755 0.97852,16.4082 l 0.31055,15.83789 -3.76172,2.26953 c -9.67157,5.83705 -13.72132,13.2486 -11.54492,21.13086 1.77281,6.42059 6.04462,9.95685 17.38476,14.39063 5.73114,2.24076 11.893,4.34689 13.69336,4.67969 1.80036,0.33279 9.79844,2.55018 17.77344,4.92773 22.76809,6.78775 31.51509,7.68431 47.58008,4.88281 10.19332,-1.77757 15.47731,-4.38423 19.81445,-9.77929 4.23945,-5.27354 4.35597,-13.01337 0.30273,-19.92969 -3.3285,-5.67966 -7.69846,-8.81134 -17.12695,-12.27148 -11.78403,-4.32466 -13.00238,-5.99536 -10.4082,-14.26954 0.98422,-3.13918 2.74793,-8.9836 3.91992,-12.98828 1.89496,-6.4751 2.499,-7.43414 5.44727,-8.66601 1.82343,-0.76187 4.10198,-2.58772 5.06445,-4.05664 l 1.75,-2.66993 1.91015,5.11719 c 1.04994,2.81454 2.94217,5.79361 4.20508,6.6211 8.54135,5.59651 18.84843,2.22705 21.39453,-6.99415 1.40237,-5.07893 -0.28409,-14.74385 -3.54296,-20.30468 -3.47596,-5.93128 -13.27185,-13.91965 -21.56055,-17.58203 -6.32829,-2.79616 -6.75,-3.18297 -6.75,-6.2168 0,-3.0222 0.34687,-3.34929 5.25,-4.92969 6.69786,-2.1589 18.80633,-8.61586 25.25976,-13.4707 13.26702,-9.98062 14.2759,-26.00548 2.55274,-40.54492 -9.54287,-11.83537 -41.29035,-26.85696 -62.33789,-29.4961 -20.82272,-2.61095 -45.85085,0.42082 -59.07422,7.15625 -5.08626,2.59073 -12.32506,9.30082 -15.65039,14.50782 l -2.46875,3.86718 z m 62.0918,1.46094 c 13.4567,-0.0165 14.62449,0.14622 24.78515,3.47461 11.81245,3.86947 14.11118,4.91331 23.6836,10.75195 10.06963,6.1419 10.21036,6.90034 2.14453,11.64453 -7.58091,4.45897 -12.18834,5.8983 -21.10743,6.5918 -6.91574,0.53772 -11.52041,2.51481 -13.20898,5.66992 -2.47205,4.61908 -2.85883,8.00086 -1.39453,12.20313 0.79481,2.28098 1.45098,4.70898 1.45898,5.39648 0.0157,1.34808 -0.62954,1.36198 -8.98437,0.20703 -3.025,-0.41817 -8.0875,-0.80302 -11.25,-0.85742 -3.1625,-0.0544 -5.75758,-0.43711 -5.76758,-0.84961 -0.01,-0.4125 -0.42708,-4.64165 -0.92773,-9.39843 -0.94026,-8.93365 -3.19876,-14.86403 -6.94922,-18.25586 -1.15853,-1.04774 -2.10547,-2.55335 -2.10547,-3.34571 0,-4.56551 -7.65314,-10.25 -13.80078,-10.25 -3.93693,0 -4.42314,-0.81317 -2.4668,-4.125 3.50534,-5.93406 15.25113,-8.83202 35.89063,-8.85742 z m 2.46093,82.10547 c 0.34724,-0.0146 0.74258,0.0489 1.10352,0.19336 0.79773,0.31922 0.56143,0.55551 -0.60352,0.60351 -1.05416,0.0434 -1.64479,-0.19114 -1.3125,-0.52343 0.16615,-0.16613 0.46527,-0.25884 0.8125,-0.27344 z m -17.08398,25.08789 3.75,0.87109 c 2.0625,0.47896 7.6397,0.88143 12.39453,0.89454 l 8.64648,0.0234 -1.89648,6.08789 c -2.79792,8.98973 -2.90853,9.11074 -6.20703,6.70508 -2.98113,-2.17419 -9.18647,-2.85209 -13.9375,-1.52344 l -2.75,0.76758 0,-6.91211 0,-6.91406 z m 18.10937,36.00195 c 0.33908,-0.15823 1.19126,1.09594 1.89258,2.78907 0.70132,1.69313 2.59449,4.90211 4.20899,7.13085 1.61451,2.22877 2.79129,4.18433 2.61328,4.34571 -0.53521,0.48522 -23.8258,-6.73387 -23.8125,-7.38086 0.007,-0.32923 3.26727,-1.94766 7.24609,-3.59766 3.97883,-1.65 7.51247,-3.12888 7.85156,-3.28711 z"
       style="fill:url(#linearGradient5694)" />
    <path
       id="path5892"
       d="m 365.66211,672.6543 c -4.18435,0.0213 -9.45891,0.0985 -16.29883,0.20898 -31.20457,0.50419 -39.20329,1.4465 -52.9668,6.23633 -8.52885,2.96812 -18.41168,9.37889 -21.57812,14 -6.26191,9.13867 -5.96642,18.41188 0.92969,29.20898 4.57368,7.16093 7.24006,9.22164 12.91211,9.98243 3.60592,0.48365 4.03906,0.83627 4.03906,3.28906 0,2.55051 -0.47078,2.8643 -6.59375,4.40234 -8.62235,2.16587 -19.46718,7.68199 -22.73242,11.5625 -8.65499,10.28587 -2.85441,23.99435 15.33593,36.24219 9.7357,6.55521 9.48676,5.6537 5.45313,19.65234 -3.65393,12.68087 -5.16514,15.11758 -10.62695,17.14258 -6.80956,2.52468 -10.82482,5.7496 -12.93164,10.38867 -3.60423,7.9363 -1.40358,16.54718 5.76367,22.56446 3.73412,3.13498 31.44247,16.68856 42.83008,20.94922 4.44517,1.66313 14.46394,4.2721 36.00195,9.3789 4.60967,1.09299 25.69478,0.5871 34.5,-0.82812 15.49787,-2.49089 21.90165,-7.00583 23.51953,-16.58204 1.78453,-10.5625 -6.61753,-21.65785 -22.59766,-29.84179 l -8.42187,-4.3125 -0.11719,-6.82813 c -0.0647,-3.75491 -0.42572,-10.34498 -0.80078,-14.64453 l -0.68164,-7.8164 4.96094,-2.09571 c 5.86639,-2.47848 8.48066,-6.5984 8.38086,-13.20117 -0.0566,-3.74257 0.41431,-4.78077 3.32226,-7.33398 3.92942,-3.45008 5.57176,-8.27011 4.47461,-13.13477 -0.98461,-4.36561 -5.9941,-11.66684 -10.62305,-15.48242 l -3.59375,-2.96094 0.7168,-10.0957 c 0.39365,-5.55241 0.9983,-9.92053 1.34375,-9.70703 1.37258,0.84831 11.863,-1.74607 17.57031,-4.34571 8.39349,-3.82318 11.97219,-7.17143 15.64454,-14.63086 2.80416,-5.69609 3.08428,-7.02094 2.46679,-11.6875 -0.98043,-7.40943 -3.61204,-12.77006 -8.6875,-17.68945 -5.57133,-5.40001 -9.66542,-7.48749 -19.85547,-10.12891 -3.84377,-0.99635 -6.34209,-1.51888 -11.30078,-1.73828 -2.47934,-0.10969 -5.57347,-0.14432 -9.75781,-0.12304 z M 434.375,675 598.26367,690.7207 434.375,675 Z m -77.4375,24.98047 c 11.92861,0.0354 22.43047,0.5025 25.10352,1.44726 4.48267,1.58435 4.01436,2.29425 -3.01563,4.57422 -2.84517,0.92275 -5.67321,2.28023 -6.28516,3.01758 -0.8642,1.0413 -1.88192,1.1053 -4.56054,0.2832 -5.07151,-1.55649 -10.73787,0.42557 -14.20508,4.97071 -2.61044,3.422 -2.79676,4.34698 -3.13086,15.46875 -0.40611,13.5189 0.78058,12.52313 -11.64453,9.76953 -4.4,-0.97511 -9.575,-1.8172 -11.5,-1.8711 -6.97989,-0.19528 -8,-0.89312 -8,-5.47656 0,-5.22082 -2.45605,-14.8348 -4.64258,-18.17187 -2.20755,-3.36915 -6.9347,-5.69531 -11.57226,-5.69531 -2.08228,0 -3.78516,-0.1789 -3.78516,-0.39844 0,-1.07976 9.99369,-4.46225 17.76367,-6.01172 5.72759,-1.14219 20.34399,-1.79533 34.29297,-1.89453 1.74362,-0.0124 3.47755,-0.0168 5.18164,-0.0117 z m -36.36719,64.61914 c 0.40132,-0.006 0.85829,-0.004 1.37891,0 2.3375,0.0165 8.975,1.04932 14.75,2.29492 11.56019,2.49339 11.93747,2.8629 10.54101,10.30664 -0.56614,3.01783 -0.9653,3.36066 -3.83593,3.28516 -1.76258,-0.0464 -7.03008,-0.98702 -11.70508,-2.08985 -4.675,-1.10282 -9.85,-2.32117 -11.5,-2.70703 -1.94533,-0.45491 -2.97002,-1.30195 -2.91602,-2.41015 0.0458,-0.93995 0.1583,-3.28399 0.25,-5.20899 0.14292,-3.00121 0.2279,-3.43003 3.03711,-3.4707 z m -6.25781,38.3125 c 1.23516,0.0922 6.07364,0.9897 11.70117,2.18164 6.43147,1.36222 12.97477,2.47656 14.54102,2.47656 l 2.84765,0 0.59766,11.75 c 0.46602,9.14418 0.25516,12.86004 -0.95508,16.75391 -2.95363,9.50302 1.1379,17.16951 11.95117,22.39258 l 6.20313,2.99609 -4.5,-0.0625 c -5.12825,-0.0709 -4.45642,0.0557 -20.6543,-3.90234 -15.31468,-3.74223 -20.91472,-5.67441 -30.54297,-10.53907 l -7.69726,-3.88867 3.42383,-5.41601 c 4.05559,-6.41628 7.67772,-15.59821 10.45703,-26.50391 1.10997,-4.35543 2.15688,-8.05728 2.32617,-8.22656 0.0212,-0.0212 0.12433,-0.0249 0.30078,-0.0117 z"
       style="fill:url(#linearGradient5694)" />
    <path
       id="path5934"
       d="m 698.19922,442.07031 -27,0.0215 c -29.83251,0.0246 -43.83019,1.30042 -54.73633,4.99023 -7.74374,2.61989 -11.3228,5.34751 -13.39258,10.20508 -1.847,4.33472 -1.69389,7.97509 0.54102,12.89648 1.56649,3.44947 3.40402,5.02838 11.39844,9.79883 5.24214,3.12809 11.14078,5.95007 13.10937,6.26953 1.96859,0.31946 3.58008,0.63583 3.58008,0.70313 0,0.0673 -0.95511,3.27089 -2.1211,7.11914 -1.58856,5.24304 -2.16993,10.0804 -2.32031,19.30273 l -0.19922,12.30664 -4.11328,2.72266 c -4.87752,3.22905 -7.5043,6.42789 -9.08593,11.0625 -3.69246,10.81975 2.74159,26.57975 14.0664,34.45117 5.13989,3.57253 5.32654,3.87258 7.35742,11.9082 1.14579,4.53356 1.98539,8.37694 1.86719,8.54102 -0.1182,0.16408 -4.88139,1.37076 -10.58398,2.68164 -19.2131,4.41662 -29.25602,9.55998 -32.7461,16.76953 -5.63141,11.63295 0.29545,24.82705 16.25977,36.19336 6.2801,4.47131 10.30361,6.49333 21.61914,10.86914 3.575,1.38248 9.425,3.74507 13,5.25 3.575,1.50493 10.1,3.33106 14.5,4.0586 8.93068,1.47671 30.0386,1.07949 38.70898,-0.72852 8.68273,-1.81058 17.49644,-6.50358 20.81446,-11.08398 7.72489,-10.66389 3.69488,-21.26165 -11.40625,-29.99024 -3.91428,-2.26248 -7.26102,-4.22782 -7.43555,-4.36719 -0.17452,-0.13937 0.24624,-5.70956 0.93359,-12.3789 1.21246,-11.76463 1.32534,-12.14391 3.81641,-12.73047 11.14088,-2.62325 14.58456,-17.03327 5.69141,-23.81641 -1.82167,-1.38945 -3.83122,-2.52539 -4.4668,-2.52539 -0.63559,0 -1.16192,-1.2375 -1.16992,-2.75 -0.008,-1.5125 -0.30195,-3.82782 -0.6543,-5.14453 l -0.64063,-2.39453 2.9375,2.17187 c 9.04512,6.68733 21.39611,0.68005 21.34571,-10.38281 -0.01,-2.2 -0.84507,-5.82051 -1.85547,-8.04492 -2.09492,-4.61202 -11.22417,-13.17158 -17.72656,-16.62109 l -4.39258,-2.33008 0.0176,-14.50195 0.0156,-14.50196 5.73438,-2.47461 c 15.49444,-6.68774 21.55236,-20.67403 14.87109,-34.33008 -3.2654,-6.67423 -7.61903,-10.35334 -18.2793,-15.44335 l -7.85937,-3.75196 z m -37.20117,26.5 14.20117,0 c 13.30338,0 21.13358,1.16722 20.01172,2.98242 -0.26752,0.43286 -3.44513,1.34517 -7.06055,2.02735 -11.53417,2.17635 -16.70039,9.81117 -13.07031,19.3164 1.14423,2.99614 1.61914,7.53156 1.61914,15.45704 l 0,11.21679 -11,0 -11,0 0.0176,-6.25 c 0.01,-3.4375 1.13284,-10.975 2.49609,-16.75 1.36324,-5.775 2.77359,-14.4375 3.13281,-19.25 l 0.65235,-8.75 z m -4.52149,77.75196 9.57227,0.41796 c 5.26465,0.23026 9.83079,0.6765 10.14648,0.99219 0.31572,0.31569 0.44589,5.30929 0.28907,11.0957 l -0.28516,10.52149 -5.5,-1.71875 c -11.78161,-3.67995 -12.08943,-4.04178 -13.5586,-15.93555 l -0.66406,-5.37304 z m 15.54688,50.40625 c 0.14277,-10e-4 0.30287,0.0191 0.48047,0.0547 1.42199,0.28457 1.64707,1.38068 1.39648,6.8125 -0.16426,3.56045 -1.00856,10.90723 -1.87695,16.32618 -1.79108,11.17676 -1.12419,15.35634 3.29101,20.60351 l 2.5625,3.04492 -6.83984,-0.10156 c -7.78023,-0.11428 -13.00442,-1.15694 -17.54297,-3.50391 -1.7264,-0.89276 -7.0934,-3.09329 -11.92773,-4.89062 -4.83434,-1.79733 -10.92017,-4.51735 -13.52344,-6.04297 -4.61175,-2.70267 -4.67067,-2.79751 -2.28906,-3.68555 1.34438,-0.50129 6.72031,-1.79126 11.94531,-2.86718 27.18527,-5.59792 33.48479,-9.59975 33.22266,-21.10938 -0.0823,-3.6119 0.10215,-4.63257 1.10156,-4.64062 z"
       style="fill:url(#linearGradient5694)" />
    <path
       id="path5882"
       d="m 511.41992,426.58398 c -11.96878,0.13515 -22.80217,1.21259 -29.35937,3.26563 -9.86534,3.0888 -20.56957,9.64399 -24.41407,14.95117 -7.22065,9.96781 -6.08,30.69804 2.67579,48.62891 2.98654,6.11609 4.41867,7.8711 8.48437,10.39843 4.15843,2.58504 4.89136,3.50486 4.88086,6.14063 -0.0115,2.88386 -0.48314,3.29467 -6.75,5.86523 -17.05842,6.99709 -23.43143,17.43259 -18.75,30.70118 1.81432,5.14234 6.63521,11.38725 11.52539,14.92968 2.17956,1.57887 3.45646,3.23342 3.17969,4.1211 -1.28603,4.1247 -8.58983,17.60115 -12.04688,22.22851 -10.03846,13.43674 -13.16107,26.5614 -9.75976,41.01563 2.43429,10.34476 10.08197,18.41417 21.60937,22.80273 3.02264,1.15075 15.84764,3.84401 28.5,5.98438 12.65236,2.14037 24.35391,4.34622 26.00391,4.90039 4.40995,1.48111 27.88428,0.55348 35,-1.38281 7.99266,-2.17492 14.27589,-6.16952 17.96875,-11.42383 2.64555,-3.76415 3.02988,-5.16001 3.01758,-10.97656 -0.0188,-8.85623 -2.72335,-13.66131 -15.61133,-27.74805 l -9.98633,-10.91602 0.51563,-9 c 0.28292,-4.95 1.09464,-11.20313 1.80468,-13.89648 1.24444,-4.72044 1.46473,-4.94177 6.12305,-6.11719 5.77966,-1.45837 9.50122,-4.05547 12.05469,-8.41602 3.69837,-6.31569 1.51666,-15.51823 -4.4043,-18.58007 -3.07507,-1.59018 -3.60222,-2.96497 -2.06641,-5.39063 0.74074,-1.16991 1.4354,-1.07772 4.23047,0.55469 2.78472,1.62636 3.45304,2.71724 3.99805,6.52734 0.83617,5.84552 2.09762,8.14285 5.99219,10.91602 6.38706,4.548 15.67814,1.97037 19.55664,-5.42578 2.31334,-4.41145 2.08158,-15.14344 -0.44922,-20.81641 -3.90085,-8.74402 -18.21648,-18.82999 -29.02734,-20.45117 -4.43769,-0.66548 -4.17368,-2.35537 0.37304,-2.38867 4.33753,-0.0318 14.11453,-6.03903 20.2793,-12.45899 8.66894,-9.0278 11.64617,-15.72892 11.57617,-26.05664 -0.0669,-9.87607 -2.85249,-15.98509 -10.37891,-22.75195 -6.9587,-6.25649 -21.03861,-13.31748 -31.21484,-15.65625 -11.09048,-2.54889 -25.96521,-3.92579 -39.9414,-4.07813 -1.74703,-0.019 -3.47963,-0.0193 -5.18946,0 z m -0.22265,27.16797 c 7.40979,0.0601 16.384,0.48102 23.33593,1.23438 15.29381,1.65734 19.4088,2.65285 27.26368,6.59765 10.08289,5.06373 11.18165,8.63052 4.54492,14.74805 -4.95938,4.57139 -8.65022,5.69941 -15.53907,4.75195 -6.1152,-0.84106 -10.96415,1.07897 -14.20507,5.62305 -2.11611,2.96698 -2.39844,4.45233 -2.39844,12.60938 l 0,9.24609 -11.61133,0.004 c -6.38573,0.002 -13.69823,0.28892 -16.25,0.63867 l -4.63867,0.63672 -0.008,-12.38672 c -0.009,-14.01765 -1.33189,-27.59546 -3.53321,-36.28516 -0.82195,-3.24453 -1.22929,-6.16328 -0.90625,-6.48633 0.69134,-0.69133 6.53552,-0.99177 13.94532,-0.93164 z m 17.69335,82.76953 c 2.89149,0.0307 4.80355,0.12466 4.79297,0.29883 -0.008,0.1375 -0.62021,2.275 -1.35937,4.75 l -1.34375,4.5 -13.89063,0.12696 c -18.41395,0.16821 -18.36251,0.18025 -17.3457,-4.32813 0.44558,-1.97567 1.40554,-3.96857 2.13281,-4.42969 0.8492,-0.53844 18.33924,-1.0101 27.01367,-0.91797 z m -38.18164,35.94727 c 0.0568,-2.2e-4 0.1122,0.008 0.16602,0.0254 0.72839,0.23314 8.21519,0.61846 16.63867,0.85742 13.50634,0.38316 15.24325,0.62372 14.70313,2.03125 -0.33686,0.87784 -1.08111,7.90869 -1.6543,15.62305 -0.76908,10.35071 -0.7409,15.0299 0.10742,17.86133 0.77818,2.59734 4.50221,7.44947 11.52735,15.01953 l 10.37695,11.18359 -4.1875,0.67578 c -5.80883,0.93745 -12.62482,0.82484 -16.1875,-0.26757 -3.06622,-0.94018 -16.76768,-3.41141 -35.5,-6.40235 -5.775,-0.92209 -12.4125,-2.51292 -14.75,-3.53515 l -4.25,-1.85938 0,-5.89844 c 0,-5.43146 0.38356,-6.44766 4.83008,-12.80664 6.3986,-9.15066 12.05825,-19.42597 14.79492,-26.85937 1.35719,-3.68645 2.53352,-5.64508 3.38476,-5.64844 z"
       style="fill:url(#linearGradient4706)" />
    <path
       id="path5876"
       d="m 671.05273,91.841797 c -5.71528,-0.0223 -11.84149,0.378425 -18.60351,1.148437 -17.00897,1.936866 -28.17452,4.604568 -35.16992,8.406246 -10.17666,5.53057 -20.24633,17.07285 -23.50196,26.9375 l -1.0625,3.22071 c 0.14821,5.62268 0.26337,11.1313 0.48243,17.00195 0.24033,6.44088 0.4537,12.78901 0.72265,19.33008 0.14708,-0.18918 0.34741,-0.31641 0.58203,-0.31641 0.44174,0 1.79296,3.07038 3.00196,6.82422 3.12057,9.68905 10.07324,20.17587 15.33789,23.13477 5.86934,3.29875 11.67995,3.17626 16.29492,-0.34375 1.95959,-1.49466 3.5625,-2.24047 3.5625,-1.65821 0,0.58225 0.87582,7.46755 1.94726,15.30078 1.07143,7.83324 2.2368,16.72601 2.5879,19.76172 l 0.63671,5.51954 -4.83593,1.29296 c -23.72757,6.34021 -31.16201,22.47276 -16.91993,36.71485 2.89435,2.89435 8.03541,6.66062 11.42383,8.37109 3.38842,1.71047 6.16016,3.59254 6.16016,4.18164 0,0.5891 -2.29045,5.53064 -5.08984,10.98047 -4.16733,8.11293 -6.26012,10.93708 -11.55079,15.58203 -6.7704,5.94408 -16.96539,18.68331 -20.50976,25.63086 -4.79175,9.39258 -1.0911,21.36103 8.97265,29.02344 16.23161,12.35853 50.13604,27.64588 68.00196,30.66016 7.32797,1.23633 12.40709,1.13728 20.43359,-0.39844 12.50454,-2.39252 19.02151,-6.26019 22.66602,-13.45313 8.53203,-16.83908 -4.48727,-42.72185 -26.67578,-53.02929 -2.84626,-1.3222 -4.9464,-2.77485 -4.66602,-3.22852 0.28039,-0.45366 1.88719,-5.44656 3.57031,-11.0957 1.68312,-5.64913 4.42466,-13.42149 6.09375,-17.27149 2.88247,-6.64883 3.32971,-7.14313 8.91797,-9.83203 7.22264,-3.47532 14.51174,-10.70673 18.68945,-18.54492 5.69246,-10.68015 3.64162,-23.41721 -4.87304,-30.25977 -3.50447,-2.81627 -3.68629,-3.23177 -2.92383,-6.68359 0.71462,-3.23525 2.94336,-27.69476 2.94336,-32.30273 0,-1.07408 1.28667,-2.14622 3.41797,-2.84961 5.56698,-1.83727 19.72488,-10.83764 24.73828,-15.72657 9.49706,-9.26128 12.74938,-20.93572 9.88672,-35.48632 -1.49749,-7.61163 -2.89658,-10.51759 -8.81446,-18.31446 -7.39801,-9.74696 -11.24799,-13.43689 -20.22851,-19.38281 -19.27222,-12.759968 -34.01333,-18.315366 -53.2207,-18.810547 -0.80031,-0.02063 -1.60932,-0.03197 -2.42579,-0.03516 z m -0.55468,27.875003 c 0.91859,0.007 1.82023,0.0244 2.70117,0.0527 13.41417,0.43069 17.71624,1.75471 32.23047,9.92578 7.80637,4.39476 17.77597,13.37815 21.3457,19.23242 2.80182,4.59491 2.63077,12.64488 -0.32617,15.35743 -4.67771,4.2911 -14.21576,9.55899 -20.61328,11.38476 -13.36829,3.81513 -14.64226,6.18252 -16.08789,29.90039 -0.58666,9.625 -1.34434,19.6375 -1.68555,22.25 l -0.62109,4.75 -11.3711,0 -11.37109,0 0,-2.54101 c 0,-5.06871 -5.09532,-38.51566 -7.0293,-46.14063 -4.57762,-18.04789 -11.01746,-29.04407 -17.25586,-29.46875 -7.44713,-0.50696 -14.09609,2.83321 -15.3164,7.69531 -0.93294,3.71711 -2.03193,2.96721 -3.35547,-2.28906 -2.38831,-9.48484 -2.99185,-19.44294 -1.40821,-23.24023 2.05439,-4.92606 6.81666,-9.53313 12.28321,-11.88477 6.577,-2.82935 24.102,-5.08626 37.88086,-4.98437 z m 1.45117,140.92382 c 4.97877,0.0483 6.62345,0.3395 5.25,0.92969 -2.81068,1.20779 -12.5,1.20779 -12.5,0 0,-0.58118 3.03648,-0.97048 7.25,-0.92969 z m -6.64453,29.92969 4.44531,0 -1.68555,3.25 c -2.72534,5.2542 -11.47706,33.80952 -12.02929,39.25 -0.40743,4.01394 -0.0311,5.88745 1.90234,9.5 2.08525,3.89614 3.67525,5.17096 11.84961,9.5 5.19272,2.75 10.90296,5.8883 12.69141,6.97461 3.83218,2.32768 8.59806,9.09666 7.82421,11.11328 -0.39151,1.02026 -2.2811,1.38913 -6.82226,1.33203 -3.45476,-0.0434 -6.73125,-0.22882 -7.28125,-0.41406 -0.55,-0.18524 -5.95274,-1.91324 -12.00586,-3.83984 -9.55223,-3.04029 -29.02395,-12.38074 -37.80274,-18.13281 l -2.73242,-1.79102 2.70118,-3.62109 c 1.48621,-1.9918 6.80074,-7.6711 11.81054,-12.6211 8.39171,-8.29155 9.58757,-9.98658 15.19141,-21.5332 3.34545,-6.89325 6.40242,-13.98075 6.79101,-15.75 0.66641,-3.03414 0.9586,-3.2168 5.15235,-3.2168 z"
       style="fill:url(#linearGradient5694)" />
    <path
       id="path5884"
       d="m 378.3418,442.57227 c -34.19777,0.005 -62.82525,5.11563 -80.02539,14.2832 -6.74198,3.59344 -9.60829,7.47894 -9.61329,13.03125 -0.005,4.97488 1.238,7.32767 6.43555,12.18359 3.97469,3.71343 4.47534,4.78806 7,15 1.49571,6.05 2.93894,11.7875 3.20703,12.75 0.26809,0.9625 -0.043,1.75 -0.69336,1.75 -0.65031,0 -5.74411,2.22317 -11.31836,4.94141 -20.56807,10.02985 -27.46201,20.51847 -21.53515,32.76172 2.81314,5.81118 8.92052,9.86336 18.07226,11.98633 4.03011,0.93489 7.49294,1.81581 7.69532,1.95703 0.20238,0.14123 -2.78226,5.7904 -6.63282,12.55468 -7.78656,13.67866 -12.58204,23.02733 -13.74609,26.79883 -0.42438,1.375 -2.72724,4.68 -5.11719,7.34375 -11.44196,12.75285 -6.61708,28.93758 10.12891,33.98242 5.20877,1.56918 27.02898,5.47404 48.5,8.67969 15.73272,2.34892 43.18917,2.10268 52.33594,-0.4707 13.95113,-3.92505 24.451,-11.50195 26.58398,-19.18359 1.82943,-6.58848 1.30474,-14.32519 -1.35742,-20.04297 -3.631,-7.79869 -6.32872,-10.93702 -13.79297,-16.03711 -4.61649,-3.15431 -6.63937,-5.13934 -6.32422,-6.20508 0.58501,-1.97833 6.55469,-28.06116 6.55469,-28.63867 0,-0.2354 2.36954,-0.42774 5.26562,-0.42774 6.54149,0 11.45821,-2.49786 13.90625,-7.0625 2.9037,-5.41426 2.11893,-11.6467 -1.98437,-15.75 -1.85653,-1.85653 -1.8252,-1.91617 1.70898,-3.16015 8.11163,-2.85517 14.0586,-10.26959 14.0586,-17.52735 0,-4.36125 -3.30898,-10.96263 -6.78321,-13.53125 l -3.01367,-2.22656 5.94531,-3.9707 c 9.94475,-6.64085 14.13658,-13.92808 14.14258,-24.58594 0.003,-5.00389 -0.59853,-7.4955 -2.90039,-12 -4.29767,-8.4101 -10.60989,-12.38778 -25.70312,-16.19531 -11.11963,-2.80512 -13.0467,-2.99128 -31,-2.98828 z m -7.82813,28.09961 c 13.60351,-0.26653 26.65118,0.17767 31.85938,1.4746 4.02979,1.00349 7.32617,2.12353 7.32617,2.48829 0,1.68848 -12.24412,5.90837 -19.92774,6.86914 -4.6353,0.5796 -9.99389,1.86788 -11.9082,2.86132 -3.85733,2.00177 -7.16406,7.23836 -7.16406,11.34571 0,2.47163 -0.39327,2.72216 -5.25,3.33984 -2.8875,0.36724 -10.65,1.55139 -17.25,2.63281 -6.6,1.08142 -12.79065,2.20522 -13.75586,2.4961 -1.10443,0.33284 -2.0084,-0.13722 -2.44141,-1.26563 -0.99861,-2.60233 -7.06616,-26.79343 -6.80273,-27.12304 0.12239,-0.15313 4.6728,-1.20077 10.11133,-2.33008 7.43911,-1.54473 21.59961,-2.52254 35.20312,-2.78906 z m 3.8086,55.33398 -0.98047,4.2832 c -0.84146,3.67718 -1.34359,4.28222 -3.56055,4.29492 -1.41983,0.008 -9.01085,0.45561 -16.86914,0.99219 -7.85828,0.53658 -15.32348,1.2354 -16.58789,1.55274 -2.08609,0.52358 -2.25619,0.29127 -1.84766,-2.49219 0.24761,-1.68708 0.65859,-3.06641 0.91406,-3.06641 0.25548,0 5.67706,-0.91959 12.04883,-2.04297 6.37177,-1.12337 15.0278,-2.37459 19.23438,-2.78125 l 7.64844,-0.74023 z m -7.79297,36.48437 -1.29102,5.28907 c -7.83373,32.06764 -7.81012,31.9394 -6.55859,36.19531 1.71121,5.81908 5.3309,9.15781 13.17773,12.15625 3.75741,1.43579 7.84551,3.46204 9.08594,4.50391 1.93348,1.62397 2.0418,2.04048 0.75586,2.91211 -0.825,0.55919 -3.075,1.46548 -5,2.01367 -6.23373,1.77523 -26.78076,2.03684 -37.5,0.47851 -18.819,-2.73585 -30.00074,-4.53511 -34.62695,-5.57226 l -4.62696,-1.03711 1.96094,-5.16211 c 1.07865,-2.83877 5.83079,-12.14463 10.56055,-20.67969 4.72975,-8.53507 9.83876,-18.44258 11.35351,-22.01758 l 2.75391,-6.5 10.3125,-0.66015 c 5.67182,-0.36303 14.66249,-0.94457 19.97851,-1.29102 l 9.66407,-0.62891 z"
       style="fill:url(#linearGradient5694)" />
    <path
       id="path5878"
       d="m 371.19922,142.59375 c -47.93973,-0.0225 -76.21115,13.95815 -79.10156,39.11719 -0.77092,6.71039 1.66987,19.04936 5.11914,25.8789 2.32491,4.60332 9.63474,12.14807 15.00781,15.49024 4.52899,2.81714 5.47461,4.45861 5.47461,9.5039 0,4.6155 -0.0268,4.65012 -7.03906,9.44141 -12.05544,8.23712 -21.91975,21.55335 -24.98243,33.71875 -3.38772,13.45648 6.24304,27.29031 24.0293,34.51563 l 6.91797,2.81054 -0.55273,4 c -0.30338,2.2 -1.17172,7.46762 -1.93165,11.70508 -0.75991,4.23746 -1.93593,13.51608 -2.61328,20.62109 l -1.23242,12.91993 -4.54687,2.87695 c -10.70141,6.77022 -15.42869,13.37388 -15.33789,21.43359 0.14546,12.91212 10.62196,20.53416 36.28906,26.40235 15.88907,3.63268 37.90731,3.00069 49.41797,-1.41797 1.60457,-0.61595 8.35457,-2.70347 15,-4.64063 16.55246,-4.82507 27.8858,-10.37306 31.01367,-15.18164 7.10157,-10.91751 4.96236,-20.95989 -7.36133,-34.55859 -3.33916,-3.68463 -6.07031,-7.40218 -6.07031,-8.25977 0,-0.85759 -2.52217,-8.16152 -5.60352,-16.23047 -7.87585,-20.62401 -9.06458,-24.12788 -9.75195,-28.72656 -0.58549,-3.91711 -0.48855,-4.09867 2.85742,-5.30859 4.57707,-1.65509 13.90679,-10.26828 17.19141,-15.87305 1.97233,-3.36553 2.73648,-6.28502 3.08984,-11.79101 0.63098,-9.83202 -1.63403,-14.61881 -9.6914,-20.48633 l -5.84571,-4.25586 1.85938,-5.28906 c 2.91354,-8.28956 3.34949,-15.29863 1.20312,-19.36915 -2.61968,-4.9681 -6.65297,-7.57031 -11.73047,-7.57031 -7.69053,0 -12.60606,4.52265 -14.1289,13 -0.3952,2.2 -1.36329,5.64392 -2.15235,7.65235 -1.18264,3.01022 -2.07635,3.77011 -5.08203,4.33398 -4.97226,0.9328 -8.92836,3.11063 -10.29492,5.66406 -3.52329,6.58334 -2.73963,13.34643 2.06641,17.83594 2.74301,2.56236 2.77836,2.74287 2.26757,11.70117 l -0.51953,9.09961 -7.11718,2.01758 c -3.91455,1.10976 -8.12969,2.24145 -9.36719,2.51367 l -2.25,0.49414 -0.01,-19.15625 c -0.005,-10.53601 -0.45482,-27.63862 -1,-38.00586 -1.2715,-24.17872 -2.39696,-26.79763 -12.70117,-29.57226 -7.70304,-2.07422 -12.28906,-7.8488 -12.28906,-15.47266 0,-6.15514 8.76716,-11.29478 24.79883,-14.53516 2.91457,-0.5891 13.39261,-1.07031 23.2832,-1.07031 19.35366,0 23.23198,0.75539 26.28711,5.11719 2.64106,3.77065 2.12574,11.17824 -1.11914,16.08398 -6.40287,9.68011 -0.82664,21.77407 10.04883,21.79297 4.84805,0.008 8.55956,-1.93075 12.67773,-6.62109 6.26212,-7.13216 8.79181,-17.75235 7.08008,-29.72852 -1.72371,-12.06003 -2.80062,-14.54866 -8.95508,-20.70312 -10.63483,-10.63483 -20.653,-13.90767 -42.60156,-13.91797 z m -53.5625,129.47656 0.0312,5.75 c 0.0329,6.06955 -0.63634,6.87921 -3.27735,3.96094 -1.50083,-1.65842 -1.44267,-2.07874 0.8125,-5.75 l 2.4336,-3.96094 z m 46.6289,40.20313 c 2.72744,-0.34911 3.12936,0.86002 3.94532,5.23242 0.36589,1.96067 2.38691,7.61445 4.49023,12.56445 2.10333,4.95 5.69589,14.60362 7.98438,21.45313 4.92699,14.74665 5.10391,15.10393 10.18945,20.62109 4.57016,4.95804 4.50222,5.05373 -5.67578,7.91016 -3.3,0.92613 -8.38287,2.54639 -11.29492,3.60156 -2.91205,1.05516 -9.15836,2.59248 -13.88086,3.41602 -8.20917,1.43155 -14.50088,1.72244 -18.82422,0.87109 -9.61943,-1.89427 -13.10232,-2.66175 -13.71289,-3.02344 -0.39211,-0.23228 1.04393,-2.00911 3.1914,-3.94922 5.20969,-4.70663 6.68979,-9.39226 7.94336,-25.14843 0.57972,-7.28649 2.02224,-19.27313 3.20508,-26.63672 l 2.15039,-13.38867 5.61133,-0.63672 c 3.08627,-0.35002 8.06995,-1.28471 11.07422,-2.07813 1.52716,-0.40331 2.69437,-0.69222 3.60351,-0.80859 z m 165.42188,95.53906 93.75,3.125 -93.75,-3.125 z"
       style="fill:url(#linearGradient5694)" />
  </g>
</svg>
