<?xml version="1.0" encoding="UTF-8" standalone="no"?>
<svg
   xmlns:osb="http://www.openswatchbook.org/uri/2009/osb"
   xmlns:dc="http://purl.org/dc/elements/1.1/"
   xmlns:cc="http://creativecommons.org/ns#"
   xmlns:rdf="http://www.w3.org/1999/02/22-rdf-syntax-ns#"
   xmlns:svg="http://www.w3.org/2000/svg"
   xmlns="http://www.w3.org/2000/svg"
   xmlns:xlink="http://www.w3.org/1999/xlink"
   version="1.1"
   id="svg2985"
   height="884.44843"
   width="570.05481">
  <defs
     id="defs5498">
    <linearGradient
       osb:paint="solid"
       id="linearGradient4756">
      <stop
         id="stop4758"
         offset="0"
         style="stop-color:#ffffff;stop-opacity:1;" />
    </linearGradient>
    <linearGradient
       osb:paint="solid"
       id="linearGradient4750">
      <stop
         id="stop4752"
         offset="0"
         style="stop-color:#000000;stop-opacity:1;" />
    </linearGradient>
    <linearGradient
       osb:paint="solid"
       id="linearGradient5694">
      <stop
         id="stop5696"
         offset="0"
         style="stop-color:#002b11;stop-opacity:1;" />
    </linearGradient>
    <linearGradient
       osb:paint="solid"
       id="linearGradient4712">
      <stop
         id="stop4714"
         offset="0"
         style="stop-color:#162d50;stop-opacity:1;" />
    </linearGradient>
    <linearGradient
       osb:paint="solid"
       id="linearGradient4706">
      <stop
         id="stop4708"
         offset="0"
         style="stop-color:#d40000;stop-opacity:1;" />
    </linearGradient>
    <linearGradient
       gradientUnits="userSpaceOnUse"
       y2="508.69208"
       x2="761.44257"
       y1="508.69208"
       x1="262.13925"
       id="linearGradient4716"
       xlink:href="#linearGradient4712" />
    <linearGradient
       gradientUnits="userSpaceOnUse"
       y2="500.0004"
       x2="771.30902"
       y1="500.0004"
       x1="228.69211"
       id="linearGradient4754"
       xlink:href="#linearGradient4750" />
    <linearGradient
       gradientUnits="userSpaceOnUse"
       y2="500.10483"
       x2="752.40271"
       y1="500.10483"
       x1="248.61133"
       id="linearGradient4760"
       xlink:href="#linearGradient4756" />
    <linearGradient
       y2="508.69208"
       x2="761.44257"
       y1="508.69208"
       x1="262.13925"
       gradientUnits="userSpaceOnUse"
       id="linearGradient501"
       xlink:href="#linearGradient4712" />
    <linearGradient
       y2="508.69208"
       x2="761.44257"
       y1="508.69208"
       x1="262.13925"
       gradientUnits="userSpaceOnUse"
       id="linearGradient503"
       xlink:href="#linearGradient4712" />
    <linearGradient
       y2="508.69208"
       x2="761.44257"
       y1="508.69208"
       x1="262.13925"
       gradientUnits="userSpaceOnUse"
       id="linearGradient505"
       xlink:href="#linearGradient4712" />
  </defs>
  <metadata
     id="metadata5594">
    <rdf:RDF>
      <cc:Work
         rdf:about="">
        <dc:format>image/svg+xml</dc:format>
        <dc:type
           rdf:resource="http://purl.org/dc/dcmitype/StillImage" />
        <dc:title />
      </cc:Work>
    </rdf:RDF>
  </metadata>
  <g
     transform="translate(-214.97266,-57.776194)"
     style="display:inline"
     id="layer16">
    <path
       id="path4833"
       d="m 443.09766,75.541016 -5.0625,0.609375 c -2.78458,0.334624 -15.1875,1.544154 -27.5625,2.6875 -7.22074,0.667136 -16.03573,1.806899 -25.45118,3.230468 -9.41544,1.42357 -19.43171,3.13132 -29.05078,4.9375 -9.61906,1.806181 -18.84224,3.710421 -26.67382,5.525391 -3.9158,0.907485 -7.48254,1.791269 -10.57813,2.630859 -3.09559,0.839591 -5.71959,1.634406 -7.74609,2.359375 -2.06342,0.738177 -3.72776,1.367523 -5.25,2.056641 -1.52224,0.689115 -2.90211,1.438405 -4.39454,2.412105 -1.49242,0.9737 -3.09829,2.17176 -5.07226,3.76368 -1.97397,1.59192 -4.31632,3.57731 -7.2832,6.12109 -6.07235,5.20638 -10.0516,8.8304 -12.87891,11.89062 -1.41366,1.53012 -2.53853,2.91904 -3.49414,4.29493 -0.95561,1.37589 -1.74158,2.7383 -2.47461,4.21484 -1.13676,2.28978 -2.67341,6.50395 -4.41211,11.91797 -1.7387,5.41402 -3.67937,12.02883 -5.62305,19.11914 -1.94367,7.09031 -3.89088,14.65598 -5.64257,21.97461 -1.7517,7.31863 -3.30795,14.38929 -4.47071,20.48828 -0.39622,2.07829 -0.80993,5.11141 -1.24023,9.07227 -0.4303,3.96086 -0.87792,8.84934 -1.33789,14.63672 -0.91994,11.57474 -1.89409,26.74657 -2.90625,45.29101 -0.55536,10.175 -1.22261,19.85 -1.48242,21.5 -0.25981,1.65 -1.27538,14.025 -2.25586,27.5 -0.51686,7.10326 -0.91456,15.52211 -1.19141,24.60938 -0.27685,9.08726 -0.43223,18.84336 -0.46484,28.62304 -0.0326,9.77968 0.0576,19.58317 0.27343,28.76367 0.21587,9.18051 0.55681,17.73762 1.02539,25.02735 0.43318,6.73898 0.77125,19.71974 1.00782,35.74023 0.23656,16.02049 0.37249,35.07999 0.40234,53.97461 0.0299,18.89463 -0.0474,37.62494 -0.23437,52.98633 -0.18698,15.36139 -0.48454,27.3546 -0.89844,32.77539 -1.5623,20.46136 -2.82509,37.7599 -3.83985,53.02539 -1.01476,15.26549 -1.78157,28.49832 -2.35351,40.82617 -0.57195,12.32785 -0.94778,23.75196 -1.18164,35.40039 -0.23386,11.64844 -0.32567,23.52081 -0.32617,36.74805 -5e-4,16.32586 0.0646,29.0903 0.33007,39.34375 0.13275,5.12673 0.31515,9.6263 0.56446,13.62891 0.24931,4.0026 0.56558,7.50729 0.96484,10.64843 0.39926,3.14115 0.88225,5.91861 1.46485,8.46094 0.58259,2.54233 1.26514,4.85047 2.06445,7.05664 0.79931,2.20618 1.71621,4.31069 2.76562,6.44336 1.04941,2.13267 2.23157,4.29342 3.56446,6.61524 1.76695,3.07793 3.61698,6.00308 5.54882,8.77148 1.93184,2.7684 3.94491,5.38042 6.03711,7.83398 2.09221,2.45357 4.26367,4.74744 6.51172,6.88086 2.24805,2.13343 4.57328,4.10608 6.97266,5.91407 2.39521,1.80485 4.36126,3.2475 6.18164,4.47656 1.82037,1.22906 3.49514,2.24416 5.30859,3.19531 1.81345,0.95116 3.76619,1.83747 6.14063,2.8086 2.37443,0.97112 5.17049,2.02743 8.67383,3.3164 5.025,1.84883 10.41849,3.59796 16.04882,5.21875 5.63033,1.6208 11.49754,3.11399 17.4668,4.44727 5.96926,1.33327 12.04218,2.50787 18.08399,3.49414 6.0418,0.98627 12.05244,1.7835 17.90039,2.36328 3.91307,0.38795 12.69193,0.69418 25.52343,0.91797 12.83151,0.22379 29.71565,0.36482 49.83594,0.41992 40.24058,0.1102 93.42908,-0.12118 153.04688,-0.71289 33.94082,-0.33687 52.82658,-0.56551 63.87695,-0.91211 5.52518,-0.1733 9.09186,-0.3763 11.60156,-0.63672 2.5097,-0.26042 3.96275,-0.57844 5.26172,-0.98242 1.19733,-0.37238 2.3098,-0.80339 3.50195,-1.41016 1.19216,-0.60676 2.4632,-1.38853 3.97657,-2.46093 3.02673,-2.1448 7.02308,-5.45286 13.29297,-10.84766 4.48055,-3.85521 8.23482,-7.19628 11.3789,-10.1543 3.14408,-2.95801 5.67833,-5.53348 7.7168,-7.85742 2.03847,-2.32393 3.58236,-4.39663 4.74609,-6.34961 1.16373,-1.95298 1.94695,-3.78572 2.4668,-5.63086 0.95642,-3.39473 2.75809,-12.96891 4.49609,-23.32031 1.73801,-10.3514 3.41235,-21.48002 4.11719,-27.98047 1.13312,-10.45016 2.16908,-22.95618 3.03125,-36.3125 0.86217,-13.35632 1.55056,-27.56294 1.98633,-41.41601 0.41269,-13.11917 0.90701,-20.97117 1.2832,-24.90821 0.0335,-0.0828 0.0701,-0.17521 0.10352,-0.25781 2.0813,-5.14526 3.91211,-9.7832 4.98633,-13.00586 0.53709,-1.61133 1.0679,-3.72354 1.58593,-6.18555 0.51804,-2.462 1.02259,-5.27307 1.50781,-8.28515 0.97047,-6.02417 1.86231,-12.84864 2.61915,-19.26953 0.16272,-1.38056 0.11781,-1.25654 0.26757,-2.58789 1.03008,-4.32492 3.36178,-14.22016 5.52735,-23.47071 2.27892,-9.73471 4.80757,-19.40971 5.61914,-21.5 0.81157,-2.09028 2.84162,-9.28686 4.51172,-15.99219 l 3.03711,-12.1914 -0.002,-32.8086 c -1.4e-4,-9.02233 0.12351,-19.87722 0.32422,-30.09765 0.20072,-10.22043 0.47851,-19.80641 0.7832,-26.29102 0.42548,-9.05503 0.63027,-16.10576 0.60938,-22.80469 -0.0209,-6.69892 -0.26746,-13.04606 -0.74609,-20.69531 -0.7664,-12.24811 -1.37175,-23.65278 -1.96094,-37.6582 -0.58919,-14.00542 -1.16223,-30.61158 -1.86328,-53.26172 -0.59582,-19.25 -1.56923,-41.075 -2.16407,-48.5 -0.59483,-7.425 -1.47377,-23.49812 -1.95312,-35.71875 -0.47935,-12.22063 -1.14006,-22.65296 -1.4668,-23.18164 -0.32674,-0.52869 -1.04143,-10.55361 -1.58984,-22.2793 -0.73201,-15.65141 -1.38366,-26.81939 -2.13281,-35.57031 -0.37458,-4.37546 -0.77375,-8.14769 -1.21875,-11.57227 -0.44501,-3.42457 -0.93657,-6.50234 -1.4961,-9.49218 -1.09987,-5.87719 -2.51934,-14.24316 -3.15429,-18.5918 -0.4364,-2.98876 -1.29002,-7.10881 -2.39063,-11.74805 -1.10061,-4.63923 -2.44885,-9.79847 -3.87109,-14.86718 -1.42224,-5.06872 -2.91903,-10.04702 -4.32031,-14.32422 -1.40129,-4.27721 -2.70641,-7.85249 -3.74415,-10.11719 -0.86855,-1.89549 -1.93329,-3.79063 -3.17187,-5.66992 -1.23858,-1.8793 -2.65158,-3.74298 -4.2168,-5.57227 -1.56521,-1.82928 -3.2824,-3.62564 -5.13086,-5.37109 -1.84845,-1.74545 -3.82772,-3.44057 -5.91601,-5.068361 -2.0883,-1.62779 -4.28557,-3.187752 -6.57031,-4.664062 -2.28475,-1.476311 -4.65596,-2.867195 -7.09376,-4.158203 -2.43779,-1.291009 -4.94278,-2.482804 -7.49023,-3.554688 -2.54745,-1.071884 -5.13824,-2.024812 -7.75195,-2.84375 -2.51399,-0.787691 -5.59645,-1.586722 -9,-2.355468 -3.40355,-0.768747 -7.12758,-1.506916 -10.92383,-2.169922 -3.79625,-0.663006 -7.66534,-1.252185 -11.35742,-1.722657 -3.69209,-0.470471 -7.20778,-0.822529 -10.29883,-1.013671 -3.25612,-0.201351 -8.28112,-0.222673 -14.27344,-0.105469 -5.99232,0.117204 -12.95263,0.372669 -20.08008,0.728515 -7.12744,0.355847 -14.42054,0.811596 -21.08203,1.326172 -6.66149,0.514577 -12.69069,1.088247 -17.28515,1.681641 -7.46058,0.963565 -18.07792,2.020051 -29.70899,2.992187 -11.63107,0.972136 -24.27586,1.859922 -35.79101,2.482422 -6.05,0.327058 -15.05,1.016833 -20,1.53125 -4.95,0.514417 -15.73592,1.109864 -23.9668,1.324219 L 448.04102,88.5 445.15039,85.607422 c -1.18258,-1.18258 -1.88513,-2.068362 -2.25,-3.025391 -0.36487,-0.957028 -0.39206,-1.985302 -0.2207,-3.453125 l 0.41797,-3.58789 z"
       style="color:#000000;clip-rule:nonzero;display:inline;overflow:visible;visibility:visible;opacity:1;isolation:auto;mix-blend-mode:normal;color-interpolation:sRGB;color-interpolation-filters:linearRGB;solid-color:#000000;solid-opacity:1;fill:url(#linearGradient4756);fill-opacity:1;fill-rule:nonzero;stroke:none;stroke-width:1;stroke-linecap:butt;stroke-linejoin:miter;stroke-miterlimit:4;stroke-dasharray:none;stroke-dashoffset:0;stroke-opacity:1;color-rendering:auto;image-rendering:auto;shape-rendering:auto;text-rendering:auto;enable-background:accumulate" />
    <path
       id="path4831"
       d="m 467.58789,57.775391 c -6.2555,0 -11.42028,0.03087 -16.33984,0.148437 -4.91957,0.117571 -9.5934,0.321862 -14.8711,0.667969 -10.55538,0.692215 -23.52159,1.952453 -45.67383,4.224609 -2.82407,0.289665 -7.27422,0.940302 -12.16796,1.75586 -4.89375,0.815557 -10.2311,1.796035 -14.83204,2.74414 -9.20186,1.89621 -21.86785,4.368079 -28.14648,5.492188 -3.77811,0.676423 -7.61441,1.467005 -11.36133,2.330078 -3.74691,0.863072 -7.40453,1.79808 -10.82226,2.763672 -3.41774,0.965592 -6.59616,1.961331 -9.38672,2.945312 -2.79057,0.983981 -5.19318,1.95676 -7.0586,2.875 -1.85022,0.910765 -4.641,2.756582 -7.88476,5.13086 -3.24377,2.374277 -6.94118,5.276993 -10.59961,8.304687 -3.65844,3.027697 -7.2788,6.179767 -10.37305,9.050777 -3.09424,2.87102 -5.6617,5.461 -7.21289,7.36524 -1.2493,1.53365 -2.64981,3.45202 -3.90039,5.30664 -1.25058,1.85462 -2.35123,3.64551 -3,4.92578 -0.83259,1.64305 -1.86101,4.21793 -3.02344,7.52148 -1.16242,3.30356 -2.45964,7.33547 -3.83007,11.89454 -2.74088,9.11813 -5.77518,20.3426 -8.61719,32.05273 -1.97712,8.14645 -3.45784,14.2366 -4.61524,19.58984 -1.15739,5.35325 -1.99169,9.96896 -2.67773,15.16797 -0.68604,5.19902 -1.22404,10.98226 -1.78711,18.66602 -0.56307,7.68376 -1.15098,17.26869 -1.93945,30.07617 -2.22618,36.16089 -4.57131,69.57278 -6.00391,85.55273 -0.3035,3.38534 -0.53047,7.53027 -0.67969,12.19922 -0.14921,4.66896 -0.22146,9.86145 -0.21679,15.33985 0.009,10.95678 0.32682,23.05875 0.94921,34.4082 0.76384,13.9282 1.41411,31.10187 1.92774,49.40625 0.51363,18.30438 0.89121,37.74028 1.10547,56.1875 0.21425,18.44722 0.26514,35.90694 0.13086,50.26367 -0.0671,7.17837 -0.18026,13.58137 -0.34375,18.94336 -0.1635,5.362 -0.37659,9.68277 -0.64258,12.69922 -0.83164,9.43103 -2.28323,29.66615 -3.73047,51.36328 -1.44724,21.69714 -2.89013,44.85628 -3.70703,60.13672 -0.35284,6.6 -0.67366,17.71953 -0.90625,30.31641 -0.23259,12.59687 -0.37695,26.67109 -0.37695,39.18359 0,15.41757 0.0907,27.74935 0.37695,37.87305 0.14311,5.06184 0.33606,9.5706 0.58984,13.63867 0.25378,4.06807 0.56847,7.69419 0.95899,10.98828 0.39051,3.29409 0.85683,6.25619 1.41015,8.99609 0.55333,2.73991 1.19334,5.25856 1.93555,7.66407 0.74221,2.40551 1.58581,4.69932 2.54297,6.99023 0.95716,2.29091 2.02838,4.5785 3.22656,6.97461 1.28261,2.56494 2.64307,5.07111 4.07617,7.51367 1.43311,2.44257 2.93844,4.82184 4.51368,7.13282 1.57523,2.31097 3.22068,4.55443 4.92968,6.7246 1.709,2.17018 3.48201,4.26695 5.31641,6.28711 1.8344,2.02017 3.73021,3.96328 5.68164,5.82422 1.95143,1.86095 3.95943,3.63952 6.01953,5.33203 2.0601,1.69252 4.17163,3.29763 6.33203,4.8125 2.16041,1.51488 4.36875,2.93955 6.6211,4.26758 1.94632,1.1476 4.57294,2.44453 7.65234,3.80664 3.0794,1.36211 6.61071,2.78859 10.36914,4.19532 3.75843,1.40672 7.74316,2.79473 11.72656,4.07617 3.98341,1.28143 7.96636,2.4571 11.72071,3.44336 5.58426,1.46696 10.41693,2.67859 14.96093,3.71289 4.54401,1.0343 8.80006,1.8904 13.22657,2.65039 4.4265,0.75999 9.02411,1.42237 14.25586,2.0664 5.23174,0.64404 11.0969,1.27061 18.05664,1.95703 2.36664,0.23343 12.19487,0.38433 27.17968,0.46094 14.98481,0.0766 35.126,0.0785 58.11719,0.0117 45.98238,-0.13349 103.36594,-0.53978 153.70313,-1.16601 32.19924,-0.40059 48.60003,-0.61345 57.6875,-1.00196 4.54373,-0.19425 7.25876,-0.43248 9.20703,-0.75976 1.94827,-0.32729 3.12905,-0.7439 4.60351,-1.29493 1.64965,-0.61649 3.58995,-1.46891 5.38868,-2.3457 1.79872,-0.87679 3.45585,-1.77794 4.53515,-2.49219 1.73106,-1.14556 4.65325,-3.47355 8.14063,-6.41601 3.48738,-2.94246 7.54031,-6.50015 11.52929,-10.10547 3.98899,-3.60532 7.91452,-7.25846 11.15039,-10.39258 3.23588,-3.13412 5.78173,-5.74847 7.00977,-7.27734 2.1321,-2.65441 3.82255,-4.94928 5.25586,-7.50195 0.71665,-1.27634 1.36902,-2.6168 1.98047,-4.09961 0.61144,-1.48282 1.18181,-3.10728 1.73437,-4.95118 1.10513,-3.6878 2.13953,-8.25272 3.28711,-14.3125 1.14758,-6.05978 2.4081,-13.61458 3.96875,-23.2832 0.77532,-4.80331 1.57136,-11.21891 2.32813,-18.47656 0.75676,-7.25766 1.47434,-15.35651 2.0957,-23.53125 0.62136,-8.17474 1.14652,-16.42395 1.51562,-23.97852 0.36911,-7.55457 0.58204,-14.41536 0.58204,-19.8125 0,-5.42951 0.0928,-10.33014 0.30273,-14.91211 0.20997,-4.58196 0.53671,-8.84617 1.00391,-13 0.46719,-4.15382 1.07598,-8.1967 1.84765,-12.34179 0.77168,-4.1451 1.70668,-8.3915 2.83008,-12.94727 6.20628,-25.16849 12.83272,-53.00677 14.46485,-60.76562 0.83663,-3.97723 2.19458,-8.83774 3.01562,-10.80274 0.82103,-1.965 3.03713,-10.17858 4.92578,-18.25195 l 3.4336,-14.67969 0.56445,-69.5 c 0.15891,-19.54182 0.20071,-38.01027 0.13867,-52.29687 -0.062,-14.2866 -0.2279,-24.39135 -0.48438,-27.20313 -0.50165,-5.5 -1.40458,-25.3 -2.00585,-44 -0.60128,-18.7 -1.52151,-41.65 -2.04493,-51 -0.87191,-15.57496 -1.63449,-30.49817 -3.99023,-78 -0.46369,-9.35 -1.30622,-20.825 -1.87109,-25.5 -0.56488,-4.675 -1.29055,-16.825 -1.61329,-27 -0.16136,-5.0875 -0.46252,-10.83828 -0.81835,-16.00391 -0.35584,-5.16562 -0.76634,-9.74609 -1.14454,-12.49609 -1.15295,-8.38358 -2.99669,-19.53947 -4.80273,-29.45898 -1.80605,-9.91952 -3.5744,-18.60267 -4.57422,-22.04102 -3.69131,-12.69438 -6.11527,-20.70256 -8.06445,-26.30469 -0.97459,-2.80106 -1.82992,-5.00034 -2.66602,-6.88281 -0.83609,-1.88247 -1.6532,-3.4489 -2.54883,-4.98242 -1.46757,-2.51283 -3.09429,-4.96444 -4.86718,-7.3457 -1.77289,-2.381271 -3.69274,-4.691479 -5.74219,-6.919926 -2.04946,-2.228448 -4.23009,-4.375321 -6.52734,-6.429688 -2.29726,-2.054367 -4.71026,-4.015975 -7.22657,-5.875 -2.5163,-1.859025 -5.1352,-3.615391 -7.84179,-5.257812 -2.7066,-1.642422 -5.50102,-3.171616 -8.36914,-4.576172 -2.86813,-1.404556 -5.80966,-2.684649 -8.81055,-3.830078 -3.00089,-1.14543 -6.06111,-2.156444 -9.16602,-3.021485 -2.59828,-0.723894 -5.75602,-1.468737 -9.22851,-2.195312 -3.4725,-0.726576 -7.26025,-1.434274 -11.1211,-2.082031 -7.72169,-1.295515 -15.73374,-2.352505 -22.09375,-2.84375 -3.1075,-0.240023 -8.171,-0.280573 -14.38086,-0.164063 -6.20985,0.116511 -13.56662,0.390373 -21.26171,0.78125 -7.6951,0.390878 -15.72779,0.89739 -23.29102,1.480469 -7.56323,0.583079 -14.65644,1.242433 -20.4707,1.935547 -9.30993,1.10983 -18.0497,2.015329 -27.43555,2.822265 -9.38586,0.806937 -19.4178,1.51531 -31.31445,2.228516 -4.73719,0.283995 -7.17454,0.414421 -8.42774,0.214844 -0.6266,-0.09979 -0.95698,-0.281065 -1.13086,-0.56836 -0.17387,-0.287295 -0.1914,-0.680008 -0.1914,-1.199218 0,-0.587746 -0.32938,-1.451902 -0.85938,-2.369141 -0.52999,-0.917239 -1.2606,-1.88756 -2.06445,-2.691406 l -2.92383,-2.923828 -26.03711,0 z m -24.49023,17.765625 -0.41797,3.58789 c -0.17136,1.467823 -0.14417,2.496097 0.2207,3.453125 0.36487,0.957029 1.06742,1.842811 2.25,3.025391 L 448.04102,88.5 463.00586,88.109375 c 8.23088,-0.214355 19.0168,-0.809802 23.9668,-1.324219 4.95,-0.514417 13.95,-1.204192 20,-1.53125 11.51515,-0.6225 24.15994,-1.510286 35.79101,-2.482422 11.63107,-0.972136 22.24841,-2.028622 29.70899,-2.992187 4.59446,-0.593394 10.62366,-1.167064 17.28515,-1.681641 6.66149,-0.514576 13.95459,-0.970325 21.08203,-1.326172 7.12745,-0.355846 14.08776,-0.611311 20.08008,-0.728515 5.99232,-0.117204 11.01732,-0.09588 14.27344,0.105469 3.09105,0.191142 6.60674,0.5432 10.29883,1.013671 3.69208,0.470472 7.56117,1.059651 11.35742,1.722657 3.79625,0.663006 7.52028,1.401175 10.92383,2.169922 3.40355,0.768746 6.48601,1.567777 9,2.355468 2.61371,0.818938 5.2045,1.771866 7.75195,2.84375 2.54745,1.071884 5.05244,2.263679 7.49023,3.554688 2.4378,1.291008 4.80901,2.681892 7.09376,4.158203 2.28474,1.47631 4.48201,3.036272 6.57031,4.664062 2.08829,1.627791 4.06756,3.322911 5.91601,5.068361 1.84846,1.74545 3.56565,3.54181 5.13086,5.37109 1.56522,1.82929 2.97822,3.69297 4.2168,5.57227 1.23858,1.87929 2.30332,3.77443 3.17187,5.66992 1.03774,2.2647 2.34286,5.83998 3.74415,10.11719 1.40128,4.2772 2.89807,9.2555 4.32031,14.32422 1.42224,5.06871 2.77048,10.22795 3.87109,14.86718 1.10061,4.63924 1.95423,8.75929 2.39063,11.74805 0.63495,4.34864 2.05442,12.71461 3.15429,18.5918 0.55953,2.98984 1.05109,6.06761 1.4961,9.49218 0.445,3.42458 0.84417,7.19681 1.21875,11.57227 0.74915,8.75092 1.4008,19.9189 2.13281,35.57031 0.54841,11.72569 1.2631,21.75061 1.58984,22.2793 0.32674,0.52868 0.98745,10.96101 1.4668,23.18164 0.47935,12.22063 1.35829,28.29375 1.95312,35.71875 0.59484,7.425 1.56825,29.25 2.16407,48.5 0.70105,22.65014 1.27409,39.2563 1.86328,53.26172 0.58919,14.00542 1.19454,25.41009 1.96094,37.6582 0.47863,7.64925 0.7252,13.99639 0.74609,20.69531 0.0209,6.69893 -0.1839,13.74966 -0.60938,22.80469 -0.30469,6.48461 -0.58248,16.07059 -0.7832,26.29102 -0.20071,10.22043 -0.32436,21.07532 -0.32422,30.09765 l 0.002,32.8086 -3.03711,12.1914 c -1.6701,6.70533 -3.70015,13.90191 -4.51172,15.99219 -0.81157,2.09029 -3.34022,11.76529 -5.61914,21.5 -2.16557,9.25055 -4.49727,19.14579 -5.52735,23.47071 -0.14976,1.33135 -0.10485,1.20733 -0.26757,2.58789 -0.75684,6.42089 -1.64868,13.24536 -2.61915,19.26953 -0.48522,3.01208 -0.98977,5.82315 -1.50781,8.28515 -0.51803,2.46201 -1.04884,4.57422 -1.58593,6.18555 -1.07422,3.22266 -2.90503,7.8606 -4.98633,13.00586 -0.0334,0.0826 -0.07,0.17497 -0.10352,0.25781 -0.37619,3.93704 -0.87051,11.78904 -1.2832,24.90821 -0.43577,13.85307 -1.12416,28.05969 -1.98633,41.41601 -0.86217,13.35632 -1.89813,25.86234 -3.03125,36.3125 -0.70484,6.50045 -2.37918,17.62907 -4.11719,27.98047 -1.738,10.3514 -3.53967,19.92558 -4.49609,23.32031 -0.51985,1.84514 -1.30307,3.67788 -2.4668,5.63086 -1.16373,1.95298 -2.70762,4.02568 -4.74609,6.34961 -2.03847,2.32394 -4.57272,4.89941 -7.7168,7.85742 -3.14408,2.95802 -6.89835,6.29909 -11.3789,10.1543 -6.26989,5.3948 -10.26624,8.70286 -13.29297,10.84766 -1.51337,1.0724 -2.78441,1.85417 -3.97657,2.46093 -1.19215,0.60677 -2.30462,1.03778 -3.50195,1.41016 -1.29897,0.40398 -2.75202,0.722 -5.26172,0.98242 -2.5097,0.26042 -6.07638,0.46342 -11.60156,0.63672 -11.05037,0.3466 -29.93613,0.57524 -63.87695,0.91211 -59.6178,0.59171 -112.8063,0.82309 -153.04688,0.71289 -20.12029,-0.0551 -37.00443,-0.19613 -49.83594,-0.41992 -12.8315,-0.22379 -21.61036,-0.53002 -25.52343,-0.91797 -5.84795,-0.57978 -11.85859,-1.37701 -17.90039,-2.36328 -6.04181,-0.98627 -12.11473,-2.16087 -18.08399,-3.49414 -5.96926,-1.33328 -11.83647,-2.82647 -17.4668,-4.44727 -5.63033,-1.62079 -11.02382,-3.36992 -16.04882,-5.21875 -3.50334,-1.28897 -6.2994,-2.34528 -8.67383,-3.3164 -2.37444,-0.97113 -4.32718,-1.85744 -6.14063,-2.8086 -1.81345,-0.95115 -3.48822,-1.96625 -5.30859,-3.19531 -1.82038,-1.22906 -3.78643,-2.67171 -6.18164,-4.47656 -2.39938,-1.80799 -4.72461,-3.78064 -6.97266,-5.91407 -2.24805,-2.13342 -4.41951,-4.42729 -6.51172,-6.88086 -2.0922,-2.45356 -4.10527,-5.06558 -6.03711,-7.83398 -1.93184,-2.7684 -3.78187,-5.69355 -5.54882,-8.77148 -1.33289,-2.32182 -2.51505,-4.48257 -3.56446,-6.61524 -1.04941,-2.13267 -1.96631,-4.23718 -2.76562,-6.44336 -0.79931,-2.20617 -1.48186,-4.51431 -2.06445,-7.05664 -0.5826,-2.54233 -1.06559,-5.31979 -1.46485,-8.46094 -0.39926,-3.14114 -0.71553,-6.64583 -0.96484,-10.64843 -0.24931,-4.00261 -0.43171,-8.50218 -0.56446,-13.62891 -0.26548,-10.25345 -0.33057,-23.01789 -0.33007,-39.34375 5e-4,-13.22724 0.0923,-25.09961 0.32617,-36.74805 0.23386,-11.64843 0.60969,-23.07254 1.18164,-35.40039 0.57194,-12.32785 1.33875,-25.56068 2.35351,-40.82617 1.01476,-15.26549 2.27755,-32.56403 3.83985,-53.02539 0.4139,-5.42079 0.71146,-17.414 0.89844,-32.77539 0.18697,-15.36139 0.26422,-34.0917 0.23437,-52.98633 -0.0298,-18.89462 -0.16578,-37.95412 -0.40234,-53.97461 -0.23657,-16.02049 -0.57464,-29.00125 -1.00782,-35.74023 -0.46858,-7.28973 -0.80952,-15.84684 -1.02539,-25.02735 -0.21586,-9.1805 -0.30604,-18.98399 -0.27343,-28.76367 0.0326,-9.77968 0.18799,-19.53578 0.46484,-28.62304 0.27685,-9.08727 0.67455,-17.50612 1.19141,-24.60938 0.98048,-13.475 1.99605,-25.85 2.25586,-27.5 0.25981,-1.65 0.92706,-11.325 1.48242,-21.5 1.01216,-18.54444 1.98631,-33.71627 2.90625,-45.29101 0.45997,-5.78738 0.90759,-10.67586 1.33789,-14.63672 0.4303,-3.96086 0.84401,-6.99398 1.24023,-9.07227 1.16276,-6.09899 2.71901,-13.16965 4.47071,-20.48828 1.75169,-7.31863 3.6989,-14.8843 5.64257,-21.97461 1.94368,-7.09031 3.88435,-13.70512 5.62305,-19.11914 1.7387,-5.41402 3.27535,-9.62819 4.41211,-11.91797 0.73303,-1.47654 1.519,-2.83895 2.47461,-4.21484 0.95561,-1.37589 2.08048,-2.76481 3.49414,-4.29493 2.82731,-3.06022 6.80656,-6.68424 12.87891,-11.89062 2.96688,-2.54378 5.30923,-4.52917 7.2832,-6.12109 1.97397,-1.59192 3.57984,-2.78998 5.07226,-3.76368 1.49243,-0.9737 2.8723,-1.72299 4.39454,-2.412105 1.52224,-0.689118 3.18658,-1.318464 5.25,-2.056641 2.0265,-0.724969 4.6505,-1.519784 7.74609,-2.359375 3.09559,-0.83959 6.66233,-1.723374 10.57813,-2.630859 7.83158,-1.81497 17.05476,-3.71921 26.67382,-5.525391 9.61907,-1.80618 19.63534,-3.51393 29.05078,-4.9375 9.41545,-1.423569 18.23044,-2.563332 25.45118,-3.230468 12.375,-1.143346 24.77792,-2.352876 27.5625,-2.6875 l 5.0625,-0.609375 z"
       style="color:#000000;clip-rule:nonzero;display:inline;overflow:visible;visibility:visible;opacity:1;isolation:auto;mix-blend-mode:normal;color-interpolation:sRGB;color-interpolation-filters:linearRGB;solid-color:#000000;solid-opacity:1;fill:url(#linearGradient4750);fill-opacity:1;fill-rule:nonzero;stroke:none;stroke-width:1;stroke-linecap:butt;stroke-linejoin:miter;stroke-miterlimit:4;stroke-dasharray:none;stroke-dashoffset:0;stroke-opacity:1;color-rendering:auto;image-rendering:auto;shape-rendering:auto;text-rendering:auto;enable-background:accumulate" />
    <path
       id="path5760"
       d="m 674.80859,550.90234 c -14.6507,-0.0728 -34.37602,0.85769 -41.69921,2.31641 -30.473,6.06996 -49.81198,19.65502 -52.14649,36.62891 -1.20623,8.77037 4.99911,25.18521 13.6543,36.11328 4.10183,5.17899 17.69622,15.29137 24.52148,18.24218 0.0917,0.0396 -0.90718,4.57229 -2.2207,10.07227 -1.31352,5.49998 -2.40227,10.95022 -2.41797,12.11133 -0.025,1.85249 -0.77476,2.1791 -6.12305,2.66406 -7.96116,0.7219 -14.57459,4.17847 -18.39648,9.61524 -2.65019,3.76999 -3.04581,5.25455 -3.32227,12.44531 -0.24058,6.25768 0.16181,9.52855 1.72657,14.00586 4.05929,11.61503 13.48639,21.91262 26.74609,29.21875 l 5.1582,2.84375 0.39649,14.04687 c 0.31382,11.14325 0.10869,14.25563 -0.98633,15.04883 -0.75927,0.55 -4.15714,2.77354 -7.55274,4.94141 -9.62841,6.14714 -22.01114,19.03011 -24.01562,24.98632 -2.17289,6.45663 -2.09299,9.04381 0.44336,14.28321 2.84412,5.87518 5.90833,7.94843 23.39844,15.82422 8.25,3.71496 18.93264,8.96505 23.74023,11.66797 16.73853,9.41074 21.21834,11.03584 31.89063,11.57031 16.01235,0.80191 25.60575,-2.70452 35.46679,-12.9668 8.25334,-8.58916 9.90235,-12.05358 9.90235,-20.80664 0,-11.72682 -2.72571,-16.48486 -18.10352,-31.61914 -10.21198,-10.05026 -12.53143,-12.84938 -12.14453,-14.65234 0.26303,-1.2257 1.55194,-7.46915 2.86328,-13.875 l 2.38477,-11.64649 7.41796,-1.63476 c 13.90028,-3.06126 28.91087,-11.74213 38.9004,-22.49805 1.8253,-1.96533 3.0301,-3.00176 2.67773,-2.30273 -0.0598,0.11863 -0.18482,4.28698 -0.26172,5.09179 0.0335,-0.0828 0.0701,-0.17523 0.10352,-0.25781 2.0813,-5.14526 3.91211,-9.7832 4.98633,-13.00586 0.5371,-1.61133 1.0679,-3.72354 1.58593,-6.18555 0.51804,-2.462 1.0226,-5.27307 1.50781,-8.28515 0.97047,-6.02417 1.86231,-12.84864 2.61915,-19.26953 0.16272,-1.38056 0.11781,-1.25655 0.26757,-2.58789 -0.0539,0.22635 -0.24329,1.03702 -0.28906,1.22851 l -1.67383,7 -2.2832,-4.75195 c -1.2555,-2.61399 -4.67146,-7.14216 -7.5918,-10.0625 -6.42859,-6.42859 -25.104,-19.3613 -31.40429,-21.74805 l -4.5625,-1.73047 -0.28907,-6.86719 -0.28906,-6.86914 6.78906,-1.27343 c 8.61158,-1.61627 23.69601,-8.88624 28.88086,-13.91797 6.05889,-5.87995 7.91573,-10.4374 7.85743,-19.2793 -0.0432,-6.54878 -0.47525,-8.29946 -3.41602,-13.80273 C 731.79965,566.55148 713.29474,555.59722 690,551.66797 c -2.92144,-0.49277 -8.532,-0.73253 -15.19141,-0.76563 z m -1.05664,27.98047 c 2.97765,-0.0141 5.4048,0.0168 7.47266,0.10157 4.13572,0.16948 6.83746,0.55201 9.64453,1.21093 7.99577,1.8769 17.56076,6.69161 21.88477,11.01563 l 3.01367,3.01562 -7.21875,3.41406 c -5.03932,2.38364 -9.38459,3.6277 -14.39649,4.11915 -11.1529,1.09361 -15.80267,4.33087 -17.33203,12.06835 -0.37481,1.89626 -1.59069,4.68436 -2.70117,6.19532 -1.30043,1.76939 -2.17108,4.84161 -2.44531,8.63281 l -0.42578,5.88672 -4.91993,0.47265 c -9.55172,0.9178 -15.56207,10.65953 -11.45117,18.56055 2.74668,5.27905 9.20946,9.19922 15.16407,9.19922 2.06526,0 2.33665,0.61109 2.99218,6.73242 0.3965,3.70242 0.47405,13.85492 0.17188,22.5625 -0.52679,15.18031 -0.66172,15.99518 -3.27735,19.76953 l -2.72851,3.93555 -8.61328,-0.0156 c -4.7377,-0.008 -9.13447,-0.34663 -9.77149,-0.75196 -1.10621,-0.70389 -1.5779,-2.70683 -2.77148,-11.78906 -0.50727,-3.8599 -0.37449,-4.11219 2.75586,-5.24414 1.80918,-0.65421 4.61466,-2.57119 6.23242,-4.25977 2.57054,-2.68306 2.94141,-3.80807 2.94141,-8.92382 0,-4.86387 -0.42276,-6.30618 -2.5,-8.5293 -3.15792,-3.37971 -7.17053,-5.48633 -10.45118,-5.48633 -1.89574,0 -2.54882,-0.51962 -2.54882,-2.0293 0,-3.74083 5.14318,-23.42899 7.08203,-27.10742 2.25654,-4.28117 2.40231,-8.39204 0.41797,-11.86328 -0.8787,-1.53712 -1.44305,-5.39468 -1.46485,-10.01562 -0.0421,-8.9243 -2.02461,-13.43555 -7.09765,-16.15625 -6.63495,-3.55837 -14.32921,-1.33686 -18.27344,5.27734 l -2.30274,3.86328 -3.07812,-3.23437 c -1.69252,-1.77879 -4.4497,-5.98658 -6.12695,-9.34961 l -3.04883,-6.11328 2.69531,-2.5254 c 4.05138,-3.79492 10.42589,-6.65431 21.0918,-9.46289 8.37293,-2.20479 12.29859,-2.59118 30.60547,-3.00586 4.27351,-0.0968 7.80165,-0.15584 10.77929,-0.16992 z m 28.09375,96.95117 c 0.92263,-0.17927 2.4732,1.22682 5.12696,3.05079 8.4223,5.78877 11.5,8.89533 11.5,11.60937 0,4.18806 -2.62898,8.78463 -7.45118,13.0293 -2.59795,2.2868 -6.14687,4.99673 -7.88671,6.02344 l -3.16211,1.86718 0.2832,-16.06836 c 0.25671,-14.50944 0.0521,-19.21293 1.58984,-19.51172 z m -85.88281,20.94141 c 0.8418,0 1.50977,0.8839 1.50977,2 0,1.1 -0.11707,2 -0.25977,2 -0.1427,0 -0.8228,-0.9 -1.50977,-2 -1.04174,-1.66811 -0.99838,-2 0.25977,-2 z m 32.19922,46.05859 5.4043,0.61133 c 2.97269,0.33624 5.57015,0.74982 5.77148,0.91992 0.20133,0.17009 -0.8591,5.82165 -2.35742,12.5586 -4.59609,20.66559 -3.02602,25.3905 14.24805,42.85156 16.17681,16.35193 14.89642,14.62169 12.65039,17.10352 -1.04645,1.15631 -3.028,2.66717 -4.4043,3.35937 -4.06623,2.04508 -10.20079,2.53129 -14.00195,1.10938 -6.10969,-2.28549 -13.40744,-5.77843 -16.26954,-7.78907 -1.52283,-1.0698 -6.92284,-3.83916 -12,-6.15429 -5.07716,-2.31513 -10.78571,-5.03852 -12.68554,-6.05078 l -3.45508,-1.83985 2.95508,-2.39258 c 1.62483,-1.31511 6.43468,-4.44384 10.6875,-6.95312 13.77383,-8.12695 15.0291,-11.02876 14.0957,-32.59375 l -0.63867,-14.74024 z"
       style="fill:url(#linearGradient5694)" />
    <path
       id="path5766"
       d="m 320.14062,562.81836 c -9.63663,-0.008 -19.58816,0.45765 -24.875,1.40039 -15.97604,2.84881 -32.24459,13.98981 -37.90234,25.95313 -4.0642,8.59374 -4.45623,12.93196 -2.03125,22.52148 4.54059,17.95558 16.37629,33.08203 25.88477,33.08203 1.4963,0 1.74477,0.66762 1.43945,3.86523 l -0.36914,3.86524 -8.1582,0.54687 c -15.95388,1.07003 -24.76854,6.92779 -28.05664,18.64649 -2.30277,8.20699 -1.60793,12.65628 3.38281,21.68555 5.16048,9.33634 12.86318,16.36221 21.99414,20.05859 l 6.99805,2.83203 0.004,5.5 c 0.006,9.36397 -1.12729,16.01033 -2.89258,16.95508 -0.89405,0.47849 -5.21073,1.60874 -9.59179,2.51367 -17.85225,3.68749 -26.41076,11.22916 -26.47266,23.32422 -0.0314,6.13325 2.70746,18.53984 5.47461,24.79687 4.77208,10.79052 15.67307,23.73021 29.15234,34.60547 6.99416,5.64298 9.75498,7.16769 17.57422,9.70899 9.12758,2.96653 9.623,3.01617 30.77735,3.04687 19.18486,0.0278 22.64434,-0.22773 32.12695,-2.3789 16.81264,-3.81402 24.82747,-7.60234 31.35937,-14.82032 10.45147,-11.54925 12.06371,-22.37473 6.02149,-40.43164 -1.92027,-5.73865 -4.68753,-12.54595 -6.15039,-15.12695 -5.25533,-9.27226 -8.81287,-14.7681 -12.42578,-19.19336 -7.32279,-8.96931 -8.93348,-12.0153 -8.92188,-16.88867 0.025,-10.47859 0.46132,-11.20773 9.35938,-15.61133 13.75065,-6.80512 24.66015,-20.00797 26.24218,-31.76172 0.71012,-5.27592 -2.2943,-13.79113 -6.93554,-19.65625 -4.17773,-5.27939 -13.59775,-12.39946 -20.92578,-15.8164 -5.42313,-2.52871 -5.75,-2.88422 -5.75,-6.2461 0,-3.06429 0.50334,-3.836 3.58593,-5.49609 5.05353,-2.72151 13.15017,-11.91139 14.37305,-16.31445 1.48354,-5.34168 1.27576,-14.88443 -0.46875,-21.58204 -3.92019,-15.05063 -19.1357,-27.02773 -40.83398,-32.14453 -4.02866,-0.95 -13.3516,-1.43192 -22.98829,-1.43945 z m 157.53907,2.0293 c -2.94733,-0.009 -5.37235,0.0254 -7.45899,0.11328 -4.17327,0.17569 -6.99587,0.56091 -9.94531,1.21875 -11.87259,2.64804 -21.73604,9.55345 -27.39844,19.18164 -3.08049,5.23798 -6.40429,18.22007 -6.40429,25.00976 0,11.90768 4.76171,26.64832 10.84961,33.58203 2.37613,2.70628 3.14757,4.53633 3.14257,7.45508 -0.007,3.82584 -0.0698,3.88839 -5.75,5.71289 -12.532,4.02533 -19.24218,11.67941 -19.24218,21.94922 0,7.46695 1.95622,11.6203 8.61523,18.2793 4.35922,4.35923 16.07521,11.48992 22.26953,13.55469 0.65448,0.21816 1.81771,4.44176 2.58399,9.38476 0.76628,4.943 1.66864,10.33633 2.00586,11.98633 0.59611,2.91685 0.29985,3.19378 -10.68165,9.99023 -13.00718,8.05021 -19.06446,13.24135 -22.1289,18.96485 -3.21767,6.00972 -3.03127,20.04031 0.35937,27.04492 3.89019,8.03662 15.84321,19.26062 27.47657,25.80273 12.72851,7.15806 44.9824,21.36045 51.23046,22.5586 2.623,0.50299 9.74617,0.96584 15.83008,1.02734 18.13056,0.18331 31.96995,-4.45242 41.4668,-13.88867 5.95127,-5.9133 8.28351,-11.00386 8.78125,-19.16992 0.85082,-13.95904 -6.07503,-27.25929 -25.78711,-49.51563 -9.97527,-11.2628 -10.35338,-12.35537 -7.51172,-21.72265 0.81905,-2.69991 1.49024,-8.2264 1.49024,-12.28125 0,-5.0438 0.39482,-7.4841 1.25,-7.72461 18.52651,-5.21035 24.30178,-8.70821 29.25586,-17.72071 3.74339,-6.81 3.92892,-14.55525 0.55664,-23.20898 -4.43222,-11.37369 -17.00007,-22.83222 -28.8125,-26.26953 -4.93005,-1.4346 -5.25,-1.72437 -5.25,-4.74805 0,-3.1304 0.18623,-3.26975 6.73828,-5.01562 13.06296,-3.48079 28.19835,-12.4377 32.96289,-19.50782 5.31898,-7.89283 3.79481,-16.79614 -4.22071,-24.65429 -6.08006,-5.96073 -23.25863,-14.89932 -42.48046,-22.10156 l -12.5,-4.6836 -20.69727,-0.44922 c -4.17873,-0.0909 -7.64837,-0.14481 -10.5957,-0.15429 z m -142.23242,25.80468 8.59375,3.26368 c 9.75917,3.70705 13.43164,7.07062 13.43164,12.30078 0,2.964 -0.41811,3.43532 -4.25,4.79687 -2.3375,0.83056 -6.10221,2.0178 -8.36524,2.63672 -2.26303,0.61893 -5.29033,2.048 -6.72656,3.17773 -5.05436,3.97578 -5.99017,14.5268 -1.63867,18.46485 2.72601,2.46701 2.50679,6.28051 -0.4961,8.64258 -3.05936,2.40649 -4.99477,8.51537 -4.14062,13.06836 0.35301,1.88171 1.98576,4.70896 3.62891,6.2832 l 2.98828,2.86328 0,14.3125 0,14.3125 -16,0 -16,0 0,-4.25 c 2e-5,-3.63808 0.49179,-4.64097 3.41406,-6.97266 6.22913,-4.97023 7.0865,-13.64933 1.95312,-19.75 l -2.55078,-3.0332 1.69922,-12.82812 c 1.09533,-8.27018 1.57225,-17.2686 1.3418,-25.32227 -0.33027,-11.54232 -0.56117,-12.79801 -3.01953,-16.51172 -6.57638,-9.93455 -22.1158,-9.57032 -25.43555,0.5957 l -1.0957,3.35743 -0.67578,-3.375 c -0.93647,-4.68234 1.48271,-7.60716 9.8496,-11.91016 l 6.80469,-3.5 18.34375,-0.31055 18.34571,-0.3125 z m 148.02539,1.625 c 17.17222,-10e-4 18.91368,0.29562 32,5.45313 9.1781,3.61722 19,8.29884 19,9.05664 0,1.0627 -9.9357,3.99094 -16.86719,4.9707 -9.31626,1.31685 -14.13178,5.92887 -14.10938,13.51758 0.006,2.2 -0.78324,6.5583 -1.75586,9.68359 -1.58596,5.09612 -2.09997,5.74428 -4.98828,6.28907 -6.3739,1.20222 -12.38424,9.19583 -10.97265,14.59375 0.27815,1.06367 0.43561,1.89887 0.34961,1.85547 -0.8574,-0.43285 -3.33296,-1.04637 -10,-2.47852 l -7.84375,-1.68555 0.68554,-7.75 c 0.82133,-9.27846 -0.21974,-11.90369 -7.02734,-17.72265 -5.311,-4.5397 -7.36431,-9.3281 -7.42774,-17.32227 -0.0603,-7.6084 3.11753,-13.79282 8.45704,-16.46094 3.51376,-1.75581 6.00572,-1.999 20.5,-2 z m 16.625,76.61524 c 0.18744,0.009 0.39475,0.0318 0.625,0.0645 2.12355,0.30159 2.26574,0.83822 2.53711,9.56836 l 0.28711,9.25 -15.41993,0 c -15.0606,0 -15.43455,-0.0503 -15.99804,-2.20508 -0.31735,-1.21348 -0.43661,-2.34855 -0.26368,-2.52148 0.17292,-0.17292 2.69431,0.19486 5.60157,0.81836 2.90726,0.62351 7.06708,0.89552 9.24414,0.60351 6.07508,-0.81484 11.76172,-7.20407 11.76172,-13.21484 0,-1.8762 0.31292,-2.42955 1.625,-2.36328 z m -133.625,5.42773 2.72656,2.72852 2.72656,2.72656 -2.72656,2.72852 -2.72656,2.72656 0,-5.45508 0,-5.45508 z m 165,2 2.75,2.78321 c 2.68173,2.71366 2.70153,2.81985 0.80859,4.22851 -2.99293,2.22724 -3.55859,1.78427 -3.55859,-2.7832 l 0,-4.22852 z m -254.31446,5.51758 c 0.44962,0.0171 0.81719,0.10821 0.97266,0.26367 0.2764,0.27639 0.35381,1.55316 0.17187,2.83789 l -0.33007,2.33594 -1.77735,-2.5 c -1.59701,-2.24636 -1.61457,-2.53382 -0.17187,-2.83789 0.22077,-0.0465 0.44473,-0.0769 0.66211,-0.0918 0.16302,-0.0112 0.32278,-0.0135 0.47265,-0.008 z m 199.08594,32.9375 13.61328,0 13.61524,0 0,4.60547 c 0,2.53311 -0.7249,7.37061 -1.60938,10.75 -2.05442,7.84939 -1.49655,22.60644 1.03906,27.50976 0.95375,1.84435 5.23096,7.0165 9.50586,11.49415 13.39832,14.03376 23.06446,27.70134 23.06446,32.61523 0,2.33603 -4.62096,5.5563 -10,6.96875 -4.53148,1.1899 -15.65725,1.97718 -19.5,1.37891 -1.65,-0.25688 -7.275,-2.30081 -12.5,-4.54102 -5.225,-2.24021 -12.65,-5.41232 -16.5,-7.04883 -17.64044,-7.49837 -33.504,-18.59362 -33.5,-23.43359 8.9e-4,-1.21866 4.10732,-4.3668 12.75,-9.77149 13.50223,-8.44359 20.49184,-14.1617 22.82617,-18.67578 1.83058,-3.53994 1.84048,-14.60286 0.0176,-18.97851 -0.77266,-1.85466 -1.72347,-5.51055 -2.11329,-8.12305 l -0.70898,-4.75 z m -154.36523,8 15.40625,0 0.34375,9.75 c 0.39747,11.27488 2.37236,16.06344 11.2207,27.19141 13.81671,17.37636 21.28912,35.3387 17.25977,41.48828 -1.61215,2.46044 -2.8139,2.9575 -16.13672,6.67773 -5.22902,1.46013 -11.30095,2.07076 -24,2.41211 -24.92545,0.67001 -28.63858,-0.58785 -42.35938,-14.35156 -8.35522,-8.38136 -14.51675,-17.64906 -15.29883,-23.00977 -0.31523,-2.16069 0.31446,-2.51204 8.15821,-4.56445 4.675,-1.22327 10.12628,-3.00479 12.11523,-3.95898 5.72858,-2.74825 12.60913,-10.29003 14.45313,-15.8418 1.25606,-3.78165 2.99287,-16.59871 3.39453,-25.04297 0.0196,-0.4125 6.9699,-0.75 15.44336,-0.75 z"
       style="fill:url(#linearGradient5694)" />
    <path
       id="path5764"
       d="m 372.49805,132.94922 c -35.24233,-0.43417 -52.2936,1.94215 -71.08789,9.9082 -18.48016,7.8329 -24.9747,16.99295 -22.0586,31.11133 1.49622,7.24394 3.02137,10.48702 7.14844,15.1875 1.64518,1.87376 4.2264,6.47472 5.73438,10.22461 2.98584,7.42493 7.24539,11.39453 12.22656,11.39453 2.19389,0 3.18558,0.90516 5.35156,4.88477 1.58472,2.91164 2.65634,6.44667 2.65234,8.75 -0.006,3.29934 -0.52316,4.21746 -3.53906,6.27148 -8.48216,5.77688 -13.39954,15.25124 -13.43164,25.87695 -0.0278,9.2027 1.48218,12.79773 8.44141,20.09375 3.5858,3.75934 5.53425,6.65203 5.53125,8.21289 -0.007,3.70871 -3.78398,27.93153 -5.02539,32.23047 -1.46842,5.08505 -6.84671,10.86149 -15.64258,16.79688 -13.84828,9.34473 -19.30664,17.3692 -19.30664,28.38281 0,18.99711 20.71333,35.33535 53.98047,42.57813 11.95204,2.60214 34.12718,2.1448 41.82812,-0.86329 7.25736,-2.83483 17.24858,-9.48997 22.02149,-14.66796 5.13158,-5.56711 10.78658,-17.42343 12.85546,-26.95704 1.50193,-6.92129 1.51006,-8.28571 0.0937,-15.83203 -0.8524,-4.5417 -3.1556,-11.85781 -5.11718,-16.25781 -3.90365,-8.75625 -6.26497,-20.3238 -7.2461,-35.5 l -0.61328,-9.5 8.23047,-4.5 c 9.79259,-5.35388 16.70966,-11.18794 18.58399,-15.67383 3.4454,-8.246 0.79793,-17.40563 -7.72266,-26.72851 -4.12665,-4.51522 -6.86054,-6.35344 -16.7461,-11.26172 -0.18206,-0.0904 1.61794,-6.32214 4,-13.84766 3.63361,-11.47944 4.74787,-13.89869 6.91993,-15.02734 4.51152,-2.34428 13.69299,-13.21951 17.0664,-20.21485 5.73349,-11.88941 4.79645,-25.99613 -2.29687,-34.60156 -1.62896,-1.97622 -5.90034,-5.01772 -9.61914,-6.84961 l -6.68946,-3.29492 -26.52343,-0.32617 z m 0.67578,26.98828 c 20.43497,0.37978 21.64769,0.75357 19.19726,5.92773 -1.31776,2.78247 -1.97594,3.13606 -6.16601,3.30274 -9.04254,0.35969 -14.36986,7.38105 -15.88672,20.93945 -0.5026,4.49238 -2.25759,12.21219 -3.90039,17.1543 -5.08993,15.31231 -6.94531,26.96351 -6.94531,43.62109 l 0,14.89258 -10,0 -10,0 0,-5.75 c 3e-5,-5.36143 0.23298,-5.93652 3.46289,-8.51367 6.76476,-5.39761 7.01562,-15.62991 0.51757,-21.09766 -2.46856,-2.07717 -2.98046,-3.25848 -2.98046,-6.86328 0,-6.41402 -2.64842,-15.53882 -6.29297,-21.68359 -3.72735,-6.28436 -13.02759,-16.74131 -15.6211,-17.56446 -0.98123,-0.31143 -2.28045,-1.65727 -2.88867,-2.99218 -0.60822,-1.3349 -2.75066,-4.24686 -4.75976,-6.47071 l -3.65235,-4.04296 4.85742,-2.11133 c 14.0756,-6.11597 35.73357,-9.21871 61.0586,-8.74805 z m -36.51563,133.77539 11.65625,0.28125 11.65821,0.28125 0.74023,9 c 1.15583,14.03788 4.38152,28.36337 8.75391,38.86914 2.20239,5.2918 4.00586,10.9125 4.00586,12.49024 0,1.57773 -1.6875,6.17437 -3.75,10.21679 -3.41312,6.68959 -4.289,7.63952 -9.75,10.57227 -4.12004,2.21261 -7.87996,3.38472 -12,3.74023 -10.97531,0.94704 -30.73829,-3.47066 -40.45118,-9.04297 -5.52978,-3.17246 -10.16694,-7.34575 -9.45117,-8.5039 0.28956,-0.4685 3.3095,-2.72485 6.71289,-5.01367 9.53643,-6.41339 17.18919,-13.37411 20.67774,-18.81055 4.76059,-7.41872 6.69927,-14.73953 10.54101,-39.79883 l 0.65625,-4.28125 z"
       style="fill:url(#linearGradient5694)" />
    <path
       id="path5762"
       d="m 651.97266,111.99805 c -22.60977,-0.7656 -41.05368,5.219 -54.7461,17.76562 -11.01307,10.09148 -14.10455,18.81709 -11.24609,31.73633 3.27385,14.79661 10.68899,26.7679 19.03125,30.72656 3.4446,1.63457 3.46094,1.67344 3.46094,8.41211 0,3.72318 0.4138,9.21462 0.91992,12.20313 0.50631,2.98851 1.19202,7.75896 1.52344,10.59961 l 0.60156,5.16406 -3.375,1.11328 c -4.30574,1.42103 -6.99618,4.31137 -9.83985,10.57031 -1.88425,4.14725 -2.27152,6.75534 -2.29882,15.48633 -0.0401,12.84368 1.66476,16.98986 11.08203,26.97266 6.86921,7.28172 6.01241,4.89126 9.85156,27.52734 0.83954,4.95 1.52925,13.34174 1.53125,18.64844 l 0.004,9.64844 -7.25,2.54296 c -3.9875,1.39794 -9.05,3.07798 -11.25,3.73438 -2.2,0.65639 -5.30925,1.85572 -6.90821,2.66601 -4.29793,2.17802 -12.20065,9.90259 -13.60742,13.29883 -1.68479,4.06744 -2.61219,3.71413 -3.38867,-1.28906 -1.82259,-11.74378 -10.93303,-22.07268 -25.51563,-28.92969 -8.69718,-4.0896 -9.15861,-4.46381 -8.66796,-7.02148 0.28503,-1.48584 0.78123,-7.56084 1.10351,-13.5 0.85482,-15.75342 1.06364,-16.61853 4.5,-18.64844 7.76534,-4.5871 25.49778,-24.68162 30.45508,-34.51172 2.0266,-4.01875 3.05092,-12.54168 2.10937,-17.56054 -1.39823,-7.45324 -12.52982,-15.58293 -23.51171,-17.16993 -6.13239,-0.8862 -7.06946,-1.8525 -7.06446,-7.28125 0.003,-2.54516 -0.72092,-8.45195 -1.60742,-13.12695 -0.8865,-4.675 -1.78803,-9.47676 -2.00391,-10.67187 -0.21589,-1.19511 -1.51741,-3.51026 -2.89257,-5.14454 -1.37516,-1.63429 -2.5,-3.3973 -2.5,-3.91601 0,-0.5187 3.73317,-1.8636 8.29687,-2.99024 15.67577,-3.86988 27.97656,-11.07824 31.57031,-18.50195 2.54576,-5.25883 2.68113,-9.5388 0.53711,-16.84375 -2.04724,-6.97519 -9.33621,-14.29456 -18.95507,-19.0332 l -6.89844,-3.39844 -24.52539,-0.32031 c -23.63312,-0.30974 -39.07875,0.64601 -49.02539,3.03711 -6.9059,1.66012 -21.90426,8.66377 -27.68946,12.92969 -6.51265,4.80233 -10.08398,9.44431 -11.89648,15.46679 -3.93506,13.0752 0.74128,24.34775 13.66211,32.9375 3.72337,2.47529 8.491,5.09521 10.5957,5.82031 4.85209,1.67163 5.22307,4.17423 2.38477,16.125 -1.30065,5.47643 -2.05664,12.04969 -2.05664,17.875 l 0,9.21485 -4.25,1.16992 c -6.14673,1.69306 -13.53958,7.83188 -17.15235,14.24414 -2.75194,4.8844 -3.09765,6.39993 -3.09765,13.53906 0,7.41482 0.27172,8.48883 3.5,13.84375 1.925,3.1931 5.11764,7.27503 7.0957,9.07032 l 3.5957,3.26367 0.13672,11.39258 c 0.0752,6.26522 0.80351,15.43583 1.61719,20.3789 0.81364,4.94308 1.15754,9.26658 0.76562,9.60938 -0.39193,0.3428 -4.83565,2.31029 -9.87695,4.37109 -15.3446,6.27264 -17.0648,9.82476 -13.33203,27.54883 2.59347,12.31444 4.54324,16.50084 10.83984,23.2832 9.82697,10.5851 24.16206,16.91924 42.15821,18.62891 5.225,0.49639 14.9,2.06167 21.5,3.47851 14.41786,3.09514 23.56569,3.26238 33.67968,0.61329 11.20781,-2.93562 15.75001,-5.19245 22.04883,-10.94922 6.2254,-5.68966 9.66275,-10.59184 10.81641,-15.42969 0.70403,-2.95238 0.75536,-2.98386 0.85156,-0.50586 0.15125,3.89635 5.96184,11.93549 11.10352,15.36328 6.52013,4.34675 16.57639,7.90314 32.5,11.49219 7.7,1.73551 18.275,4.30655 23.5,5.71484 5.225,1.40828 12.65,3.16757 16.5,3.9082 14.323,2.75533 42.46011,-0.3261 50.92382,-5.57617 8.01781,-4.97349 12.22203,-12.61087 11.32422,-20.57617 -0.6242,-5.53795 -5.53022,-16.00508 -9.75976,-20.82226 -4.109,-4.67989 -13.66609,-11.54451 -21.19532,-15.22461 l -5.70507,-2.78907 0.54883,-4.5625 c 0.30171,-2.50998 1.40635,-10.57186 2.45507,-17.91406 1.2166,-8.51759 1.90821,-18.93495 1.90821,-28.78125 0,-13.83564 0.18102,-15.48498 1.75,-15.94336 4.96756,-1.45131 16.53518,-7.97702 18.69922,-10.54883 2.58393,-3.07082 4.53829,-8.61517 4.53906,-12.87695 10e-4,-6.40306 -8.40294,-14.47931 -19.75977,-18.99023 l -5.93164,-2.35547 -0.74805,-18.07813 c -0.41208,-9.94208 -1.043,-24.66779 -1.40039,-32.72461 l -0.64843,-14.64843 5.5,-1.21875 c 7.07431,-1.56613 16.59461,-5.89197 20.79296,-9.44727 9.71349,-8.22568 9.28279,-21.17822 -0.99609,-29.97656 -4.33123,-3.70737 -8.01492,-5.61405 -22.79687,-11.79297 -5.225,-2.18407 -13.325,-5.58348 -18,-7.55469 -7.82476,-3.29929 -9.45328,-3.61617 -20.5,-3.99023 z m -0.80469,27.19922 c 1.72063,0.084 3.36152,0.27866 4.88867,0.5957 5.14437,1.06797 25.35056,9.98242 22.62695,9.98242 -2.08439,0 -8.06017,6.04094 -8.69921,8.79297 -0.35382,1.52366 -2.02474,3.5847 -3.82032,4.71289 -4.67565,2.93779 -6.89108,7.89124 -6.25781,13.99414 0.28535,2.75 0.99485,13.775 1.57617,24.5 0.58133,10.725 0.92925,21.975 0.77344,25 l -0.2832,5.5 -11.16993,-1.39844 -11.16796,-1.39648 -0.64454,-6.10352 c -0.35367,-3.35608 -1.06419,-8.54664 -1.58007,-11.53515 -0.51589,-2.98851 -0.9375,-11.62237 -0.9375,-19.18555 0,-7.56318 -0.44585,-14.92164 -0.99024,-16.35352 -1.70584,-4.48668 -5.81265,-7.38743 -12.25195,-8.65429 -5.68864,-1.11917 -6.10105,-1.39979 -7.77539,-5.27735 -3.42041,-7.92124 -3.41288,-8.3888 0.1914,-11.77148 7.56563,-7.10046 23.47709,-11.99007 35.52149,-11.40234 z m -123.76953,8.74023 c 9.51144,-0.0924 17.96432,0.15547 20.07422,0.79688 l 2.5,0.75976 -2.88282,1.16602 c -1.58478,0.64105 -4.95978,1.60811 -7.5,2.14843 -2.54021,0.54032 -5.6222,1.20952 -6.84961,1.48829 -3.77532,0.8574 -9.14932,6.33031 -9.84179,10.02148 -0.38347,2.04405 -1.37193,3.62224 -2.48828,3.97656 -2.83105,0.89854 -6.78473,6.14299 -7.49805,9.94531 -0.76435,4.07433 0.88846,9.61853 3.59766,12.07032 1.31898,1.19366 1.96289,3.07115 1.96289,5.72656 0,2.17287 0.64798,6.48936 1.4414,9.59375 0.79343,3.10438 1.58093,7.85712 1.75,10.56055 0.29574,4.72875 0.1918,4.9451 -2.73047,5.72265 -8.23356,2.19077 -12.21506,13.57359 -7.28515,20.82617 1.43238,2.10722 3.91657,4.0381 6.33984,4.92774 2.19126,0.80447 4.09569,1.53209 4.23242,1.61719 0.13673,0.0851 -0.4379,4.39233 -1.27734,9.57226 -0.83944,5.17994 -1.75615,10.86532 -2.03711,12.63281 -0.42819,2.69378 -1.11153,3.38009 -4.22266,4.24415 -3.62413,1.00652 -7.70382,1.23167 -9.71093,0.5371 -0.55,-0.19033 -3.94062,-0.62937 -7.53321,-0.97656 -9.76313,-0.9435 -9.5856,-0.60475 -6.64062,-12.64258 2.10814,-8.61716 2.55285,-12.90846 2.62305,-25.3125 0.0654,-11.56222 0.55906,-16.86998 2.18359,-23.5 1.3715,-5.59736 2.14482,-12.20206 2.23242,-19.06445 0.11516,-9.0218 -0.17135,-11.06312 -2.0293,-14.5 -3.74702,-6.93132 -11.18499,-12.50133 -22.67382,-16.97656 -4.6004,-1.79199 -4.39175,-3.23212 0.91406,-6.26758 7.52854,-4.3071 15.0077,-6.48478 26.92383,-7.84375 6.34432,-0.72353 16.91433,-1.1576 26.42578,-1.25 z m 114.89062,109.83789 c 1.54899,0 5.48649,0.45667 8.75,1.01563 3.26351,0.55896 7.3961,1.2559 9.1836,1.54687 2.62029,0.42651 3.25,0.99437 3.25,2.93555 0,1.92917 -0.74528,2.61705 -3.75,3.45703 -2.0625,0.57658 -7.4625,1.33795 -12,1.69336 l -8.25,0.64648 0,-5.64648 c 0,-5.52652 0.0604,-5.64844 2.8164,-5.64844 z m 21.08594,36.99023 c 1.15901,0.008 1.2938,2.05085 0.7793,11.75977 -0.34246,6.4625 -1.32474,15.575 -2.1836,20.25 -1.42085,7.73404 -2.59636,22.26295 -2.88672,35.68555 -0.0966,4.46371 0.30593,5.63002 2.88868,8.38867 1.65,1.76236 6.825,4.99196 11.5,7.17773 8.53096,3.9886 19,10.47725 19,11.77539 0,0.38197 -2.3625,0.97739 -5.25,1.32422 -9.93145,1.1929 -19.10091,0.58607 -28.25,-1.87304 -4.95,-1.33047 -12.375,-3.12963 -16.5,-3.99805 -18.19835,-3.83122 -35.22755,-8.68614 -37.49219,-10.6875 -1.3923,-1.23043 0.7251,-2.36166 8.99219,-4.80664 11.59295,-3.42859 21.73463,-8.22096 25.61914,-12.10547 6.18385,-6.18385 7.29526,-11.45291 6.50586,-30.83789 -0.37048,-9.09796 -1.25334,-19.50218 -1.96094,-23.11914 l -1.28516,-6.57617 9.56055,-1.1836 c 5.25835,-0.65086 10.19142,-1.17882 10.96289,-1.17383 z m -180.07617,6.77149 3.83594,0.61523 c 2.11029,0.33897 9.37156,0.90571 16.13671,1.25782 l 12.30079,0.63867 -0.69336,9.61328 c -0.50518,7.00108 -1.19042,10.2523 -2.52344,11.96484 -3.93021,5.04913 -3.26304,13.62024 1.39453,17.89258 1.22154,1.1205 8.90492,5.09845 17.07422,8.83985 9.73692,4.45935 15.40185,7.63794 16.44531,9.23046 0.87547,1.33613 1.776,4.96387 2,8.06055 0.4887,6.7563 -0.67678,8.17971 -9.12891,11.15039 -7.04589,2.47644 -15.71186,2.45061 -25.66796,-0.0762 -4.125,-1.04689 -13.24769,-2.5679 -20.27149,-3.38086 -15.07895,-1.74529 -24.57322,-5.56915 -28.47851,-11.4668 -3.56093,-5.37761 -3.05526,-6.25229 5.76172,-9.95703 9.84256,-4.13568 12.71782,-6.33943 15.09179,-11.5664 2.36388,-5.20469 2.35964,-9.96682 -0.0137,-21.66797 -1.04966,-5.17512 -2.2128,-12.05105 -2.58594,-15.2793 l -0.67773,-5.86914 z"
       style="fill:url(#linearGradient5694)" />
  </g>
</svg>
