<?xml version="1.0" encoding="UTF-8" standalone="no"?>
<svg
   xmlns:osb="http://www.openswatchbook.org/uri/2009/osb"
   xmlns:dc="http://purl.org/dc/elements/1.1/"
   xmlns:cc="http://creativecommons.org/ns#"
   xmlns:rdf="http://www.w3.org/1999/02/22-rdf-syntax-ns#"
   xmlns:svg="http://www.w3.org/2000/svg"
   xmlns="http://www.w3.org/2000/svg"
   xmlns:xlink="http://www.w3.org/1999/xlink"
   version="1.1"
   id="svg2985"
   height="930.1601"
   width="555.51971">
  <defs
     id="defs5498">
    <linearGradient
       osb:paint="solid"
       id="linearGradient4756">
      <stop
         id="stop4758"
         offset="0"
         style="stop-color:#ffffff;stop-opacity:1;" />
    </linearGradient>
    <linearGradient
       osb:paint="solid"
       id="linearGradient4750">
      <stop
         id="stop4752"
         offset="0"
         style="stop-color:#000000;stop-opacity:1;" />
    </linearGradient>
    <linearGradient
       osb:paint="solid"
       id="linearGradient5694">
      <stop
         id="stop5696"
         offset="0"
         style="stop-color:#002b11;stop-opacity:1;" />
    </linearGradient>
    <linearGradient
       osb:paint="solid"
       id="linearGradient4712">
      <stop
         id="stop4714"
         offset="0"
         style="stop-color:#162d50;stop-opacity:1;" />
    </linearGradient>
    <linearGradient
       osb:paint="solid"
       id="linearGradient4706">
      <stop
         id="stop4708"
         offset="0"
         style="stop-color:#d40000;stop-opacity:1;" />
    </linearGradient>
    <linearGradient
       gradientUnits="userSpaceOnUse"
       y2="508.69208"
       x2="761.44257"
       y1="508.69208"
       x1="262.13925"
       id="linearGradient4716"
       xlink:href="#linearGradient4712" />
    <linearGradient
       gradientUnits="userSpaceOnUse"
       y2="500.0004"
       x2="771.30902"
       y1="500.0004"
       x1="228.69211"
       id="linearGradient4754"
       xlink:href="#linearGradient4750" />
    <linearGradient
       gradientUnits="userSpaceOnUse"
       y2="500.10483"
       x2="752.40271"
       y1="500.10483"
       x1="248.61133"
       id="linearGradient4760"
       xlink:href="#linearGradient4756" />
    <linearGradient
       y2="508.69208"
       x2="761.44257"
       y1="508.69208"
       x1="262.13925"
       gradientUnits="userSpaceOnUse"
       id="linearGradient501"
       xlink:href="#linearGradient4712" />
    <linearGradient
       y2="508.69208"
       x2="761.44257"
       y1="508.69208"
       x1="262.13925"
       gradientUnits="userSpaceOnUse"
       id="linearGradient503"
       xlink:href="#linearGradient4712" />
    <linearGradient
       y2="508.69208"
       x2="761.44257"
       y1="508.69208"
       x1="262.13925"
       gradientUnits="userSpaceOnUse"
       id="linearGradient505"
       xlink:href="#linearGradient4712" />
  </defs>
  <metadata
     id="metadata5594">
    <rdf:RDF>
      <cc:Work
         rdf:about="">
        <dc:format>image/svg+xml</dc:format>
        <dc:type
           rdf:resource="http://purl.org/dc/dcmitype/StillImage" />
        <dc:title />
      </cc:Work>
    </rdf:RDF>
  </metadata>
  <g
     transform="translate(-222.24015,-34.920063)"
     style="display:inline"
     id="layer17">
    <path
       id="path4852"
       d="m 610.71484,52.505859 c -6.32513,0.03289 -11.73823,0.117439 -16.79492,0.279297 -5.05669,0.161858 -9.75589,0.400564 -14.65234,0.740235 -9.79291,0.679342 -20.37462,1.763613 -36.17578,3.447265 -7.47823,0.796824 -16.25323,1.444253 -19.5,1.439453 -3.24676,-0.0048 -13.55235,0.659973 -22.90235,1.476563 -9.35,0.816589 -26,2.175312 -37,3.021484 -8.13916,0.626103 -16.50063,1.416652 -24.71289,2.320313 -8.21226,0.903661 -16.27531,1.921262 -23.81445,2.996093 -7.53914,1.074832 -14.55402,2.208043 -20.67383,3.347657 -6.11981,1.139614 -11.34457,2.284804 -15.29883,3.382812 -4.41411,1.225701 -10.11189,3.070902 -16.10742,5.1875 -5.99553,2.116598 -12.28883,4.504593 -17.89062,6.814453 -2.84249,1.172081 -5.55169,2.377206 -8.13672,3.623047 -2.58503,1.245842 -5.0462,2.532355 -7.39258,3.867188 -2.34638,1.334833 -4.57854,2.717195 -6.70508,4.15625 -2.12654,1.439051 -4.14675,2.935631 -6.07226,4.494141 -1.92551,1.55851 -3.75476,3.17986 -5.49805,4.87305 -1.74329,1.69319 -3.40059,3.45768 -4.98047,5.30078 -1.57988,1.8431 -3.08231,3.76519 -4.51758,5.77344 -1.43527,2.00824 -2.8038,4.10239 -4.11328,6.29101 -2.31493,3.8691 -4.44317,8.12653 -6.33594,12.59766 -1.89277,4.47113 -3.54886,9.15618 -4.91797,13.8789 -1.3691,4.72272 -2.45138,9.48355 -3.19531,14.10743 -0.37196,2.31193 -0.66078,4.58902 -0.85742,6.81054 -0.19664,2.22152 -0.30192,4.38732 -0.31055,6.47461 -0.0175,4.243 -0.67514,13.78789 -1.46093,21.21289 -0.89297,8.43775 -1.57781,15.24432 -2.07813,21.04492 -0.50032,5.80061 -0.81659,10.59439 -0.9668,15.00977 -0.1502,4.41538 -0.13591,8.45228 0.0215,12.73437 0.1574,4.28209 0.45838,8.81022 0.88086,14.21094 0.882,11.275 2.28004,26.125 3.10547,33 0.82544,6.875 1.90091,17.9431 2.39062,24.5957 0.32169,4.37007 0.66813,7.58253 1.09375,9.94727 0.42563,2.36474 0.93044,3.88177 1.57227,4.86133 0.40406,0.61667 0.71006,1.13976 0.92382,1.69531 0.21377,0.55555 0.33593,1.14373 0.3711,1.88672 0.0703,1.48597 -0.20545,3.5952 -0.7793,7.32227 -0.29999,1.94838 -0.51399,4.02161 -0.64258,6.13867 -0.12858,2.11706 -0.17074,4.27887 -0.13086,6.40625 0.0399,2.12738 0.16178,4.21987 0.36719,6.19922 0.20541,1.97934 0.49333,3.84462 0.86133,5.51757 0.27236,1.23814 0.30938,2.16395 0,3.10938 -0.30938,0.94543 -0.96516,1.91048 -2.07422,3.22851 -0.61328,0.72896 -1.12055,1.29564 -1.59766,1.73047 -0.4771,0.43484 -0.9233,0.73698 -1.41406,0.93946 -0.49076,0.20248 -1.02542,0.30601 -1.67968,0.33789 -0.65427,0.0319 -1.42887,-0.007 -2.39649,-0.084 -1.99319,-0.15852 -3.10707,-0.18397 -3.88477,0.17578 -0.38884,0.17988 -0.69349,0.45551 -0.98242,0.85938 -0.28892,0.40387 -0.56176,0.93614 -0.88672,1.62695 -1.13856,2.42038 -2.29769,5.18243 -3.45507,8.19532 -1.15739,3.01288 -2.31298,6.27661 -3.44336,9.70117 -2.26077,6.8491 -4.42099,14.34119 -6.29883,21.75195 -1.87784,7.41076 -3.47321,14.73992 -4.60156,21.26562 -0.56418,3.26286 -1.01224,6.32537 -1.32032,9.09571 -0.30807,2.77033 -0.47627,5.24872 -0.48242,7.3457 -0.007,2.26893 -0.16717,5.31422 -0.43359,8.71875 -0.26643,3.40453 -0.63903,7.16881 -1.06836,10.87305 -0.42933,3.70423 -0.9148,7.34953 -1.41016,10.51758 -0.49536,3.16804 -1.00032,5.85834 -1.46484,7.65429 -0.5681,2.19643 -1.13075,5.01955 -1.67383,8.34375 -0.54308,3.3242 -1.06592,7.14949 -1.55469,11.34961 -0.97754,8.40026 -1.81784,18.30051 -2.40234,28.69336 -0.57225,10.175 -1.45106,24.575 -1.95313,32 -0.29714,4.39358 -0.52069,12.33803 -0.66992,22.10352 -0.14922,9.76548 -0.22359,21.35129 -0.22461,33.03125 -0.001,11.67995 0.0713,23.45285 0.21875,33.58984 0.14747,10.13699 0.36979,18.6388 0.66602,23.77539 1.07345,18.61293 3.51643,55.31565 4.92578,74 0.53933,7.15 1.91053,19.3 3.04883,27 1.1383,7.7 2.52577,17.6 3.08203,22 0.55627,4.4 1.65794,11.6 2.44922,16 1.77425,9.86597 4.72243,29.96841 7.48633,51.05078 0.53434,4.07584 1.02895,7.43577 1.55859,10.32422 0.52964,2.88845 1.09491,5.30561 1.76953,7.49219 0.67462,2.18658 1.45844,4.14306 2.42774,6.11328 0.96929,1.97022 2.12345,3.95398 3.53711,6.19336 0.98766,1.56457 2.00332,2.91076 3.18164,4.125 1.17831,1.21424 2.52018,2.29603 4.1621,3.33203 1.64193,1.036 3.58246,2.02681 5.96094,3.05664 2.37849,1.02983 5.19403,2.09919 8.58203,3.29492 4.23755,1.49556 8.95667,2.98349 14.12305,4.45508 5.16638,1.47159 10.77959,2.9275 16.80859,4.35938 6.02901,1.43188 12.47342,2.83841 19.29883,4.21484 6.82542,1.37643 14.03229,2.7221 21.58789,4.02734 14.025,2.42284 27.75,4.81808 30.5,5.32227 1.68413,0.30877 10.34446,0.54926 22.54493,0.71875 12.20046,0.16949 27.94189,0.26799 43.7832,0.28906 15.84131,0.0211 31.78396,-0.0334 44.39062,-0.16992 12.60667,-0.1365 21.87652,-0.355 24.37305,-0.6582 4.34995,-0.52831 16.2332,-1.6587 26.4082,-2.51172 11.92915,-1.00008 20.57067,-1.69531 27.68555,-2.39844 7.11488,-0.70312 12.703,-1.41322 18.5293,-2.4414 5.8263,-1.02819 11.88971,-2.37629 19.95312,-4.35157 8.06341,-1.97527 18.12693,-4.57866 31.95313,-8.12304 7.59575,-1.94719 15.1625,-3.99845 21.23437,-5.73438 6.07188,-1.73593 10.64888,-3.15654 12.26563,-3.84375 4.63447,-1.96989 9.27432,-4.25346 13.71679,-6.70898 4.44248,-2.45553 8.68751,-5.08389 12.5293,-7.74219 3.8418,-2.6583 7.28086,-5.34561 10.11328,-7.92383 1.41621,-1.28911 2.68034,-2.55153 3.76758,-3.76758 1.08724,-1.21605 1.9979,-2.3865 2.70508,-3.49414 1.33901,-2.09725 2.72707,-5.09114 4.0957,-8.72851 1.36864,-3.63738 2.71706,-7.91885 3.97852,-12.58985 1.26145,-4.671 2.43566,-9.73156 3.45312,-14.92968 1.01746,-5.19813 1.87896,-10.53322 2.51563,-15.75196 0.90582,-7.425 2.1202,-15.3 2.69922,-17.5 0.29138,-1.10712 0.63913,-6.628 0.96679,-14.67383 0.32766,-8.04582 0.63524,-18.61657 0.84571,-29.82617 0.36469,-19.42358 1.19483,-42.13738 2.10351,-60.38867 0.45434,-9.12565 0.92754,-17.13568 1.37305,-23.06055 0.44551,-5.92487 0.863,-9.76515 1.20312,-10.55078 0.17859,-0.4125 0.42733,-14.68164 0.6836,-37.33789 0.25626,-22.65625 0.52005,-53.69961 0.73047,-87.66211 0.41858,-67.56435 0.92922,-119.30421 1.57421,-157.68164 0.3225,-19.18871 0.67953,-35.03616 1.07422,-47.85156 0.39469,-12.8154 0.82741,-22.59856 1.30469,-29.65625 0.4766,-7.04767 0.72024,-12.43262 0.73438,-17.40625 0.0141,-4.97363 -0.20124,-9.53594 -0.64258,-14.9375 -0.31533,-3.85922 -0.60279,-9.38945 -0.81055,-15.18945 -0.20776,-5.8 -0.33582,-11.86977 -0.33594,-16.81055 -2.7e-4,-11.49967 -0.42752,-28.2945 -1.02539,-43.75 -0.59787,-15.4555 -1.36636,-29.57166 -2.04883,-35.7168 -0.57009,-5.1332 -1.62932,-12.28565 -2.76171,-18.99414 -1.1324,-6.70849 -2.33796,-12.97303 -3.20118,-16.33398 -0.72896,-2.83823 -1.89248,-6.71288 -3.29296,-11.06836 -1.40049,-4.35549 -3.0382,-9.19153 -4.7168,-13.94922 -1.67861,-4.75769 -3.39761,-9.43758 -4.96094,-13.48242 -1.56333,-4.044849 -2.97073,-7.45493 -4.02539,-9.671878 -1.7027,-3.579153 -3.32902,-6.710907 -4.94922,-9.484375 -1.62019,-2.773468 -3.23502,-5.188375 -4.91015,-7.332031 -1.67514,-2.143657 -3.41178,-4.017314 -5.2793,-5.707032 -1.86752,-1.689718 -3.86515,-3.195768 -6.0625,-4.607422 -3.99605,-2.567198 -9.96563,-6.51221 -13.26563,-8.767578 l -6,-4.101562 -50.5,-0.324219 c -12.98716,-0.08364 -23.0411,-0.133694 -31.47461,-0.08984 z"
       style="color:#000000;clip-rule:nonzero;display:inline;overflow:visible;visibility:visible;opacity:1;isolation:auto;mix-blend-mode:normal;color-interpolation:sRGB;color-interpolation-filters:linearRGB;solid-color:#000000;solid-opacity:1;fill:url(#linearGradient4756);fill-opacity:1;fill-rule:nonzero;stroke:none;stroke-width:1;stroke-linecap:butt;stroke-linejoin:miter;stroke-miterlimit:4;stroke-dasharray:none;stroke-dashoffset:0;stroke-opacity:1;color-rendering:auto;image-rendering:auto;shape-rendering:auto;text-rendering:auto;enable-background:accumulate" />
    <path
       id="path4850"
       d="m 638.68945,34.919922 c -23.53832,0 -38.5283,0.07575 -49.38867,0.332031 -5.43018,0.12814 -9.82831,0.301916 -13.74609,0.533203 -3.91778,0.231288 -7.35513,0.520372 -10.86524,0.88086 -9.35,0.96024 -23.075,2.20914 -30.5,2.77539 -7.425,0.56625 -18.675,1.488398 -25,2.048828 -6.325,0.56044 -18.025,1.467675 -26,2.015625 -16.04211,1.102225 -25.89608,1.825829 -34.5,2.638672 -8.60391,0.812843 -15.95777,1.714926 -27,3.171875 -13.55385,1.788341 -22.77272,3.104362 -29.90625,4.337891 -3.56676,0.616765 -6.61224,1.213858 -9.41797,1.837891 -2.80572,0.624032 -5.37112,1.275291 -7.97851,2.003906 -6.19123,1.73009 -14.15241,4.415684 -22.04688,7.36914 -7.89446,2.953457 -15.72221,6.174777 -21.65039,8.978516 -5.51836,2.609918 -10.38246,5.16502 -14.7539,7.796875 -2.18573,1.315928 -4.24816,2.650779 -6.20703,4.021484 -1.95888,1.370706 -3.81594,2.777982 -5.5879,4.236329 -1.77195,1.458346 -3.45902,2.968025 -5.08398,4.546874 -1.62496,1.57885 -3.1872,3.226769 -4.70508,4.958985 -3.03576,3.464433 -5.89714,7.267903 -8.74414,11.542973 -1.77564,2.66631 -3.41805,5.28372 -4.93554,7.88085 -1.5175,2.59714 -2.91077,5.17399 -4.1875,7.75782 -1.27674,2.58383 -2.43688,5.17437 -3.49024,7.80078 -1.05335,2.6264 -1.99834,5.28881 -2.8457,8.01367 -0.84736,2.72486 -1.59711,5.5134 -2.25586,8.39258 -0.65875,2.87918 -1.22732,5.84811 -1.71485,8.9375 -0.48752,3.08939 -0.89288,6.29883 -1.22656,9.6543 -0.33368,3.35546 -0.59575,6.85772 -0.79297,10.53515 -0.47194,8.8 -1.44642,20.725 -2.16406,26.5 -0.54128,4.35578 -0.91325,10.65497 -1.125,17.95899 -0.21175,7.30401 -0.2642,15.61238 -0.16797,23.98828 0.0962,8.3759 0.34194,16.81919 0.72461,24.39062 0.38267,7.57144 0.90322,14.2715 1.55078,19.16211 1.16521,8.8 2.84317,24.94009 3.72852,35.86524 0.79931,9.86344 1.19723,14.84195 1.13086,18.24023 -0.0332,1.69914 -0.18126,3.00389 -0.45508,4.32617 -0.27382,1.32229 -0.67253,2.66187 -1.20313,4.4336 -0.58771,1.96242 -1.55693,4.47801 -2.64648,6.94922 -1.08955,2.4712 -2.29942,4.89804 -3.36523,6.68554 -2.28066,3.82494 -4.51027,8.26127 -6.53907,12.96094 -2.0288,4.69967 -3.85679,9.66266 -5.33203,14.53906 -2.14043,7.07522 -3.9294,13.31689 -5.43359,19.06836 -1.50419,5.75147 -2.72412,11.013 -3.72656,16.12695 -1.00245,5.11396 -1.78666,10.0795 -2.42188,15.24219 -0.63522,5.16269 -1.12093,10.52227 -1.52344,16.41992 -0.29761,4.3608 -0.73678,9.2418 -1.20507,13.5918 -0.4683,4.35 -0.96571,8.169 -1.37891,10.4082 -0.82641,4.47839 -2.13329,11.53961 -2.90235,15.68946 -1.00345,5.41476 -1.87237,11.87037 -2.62695,19.55078 -0.75458,7.6804 -1.39483,16.5856 -1.9375,26.90234 -0.52075,9.9 -1.38429,23.625 -1.91797,30.5 -0.32343,4.16636 -0.56682,11.96173 -0.73047,21.54688 -0.16364,9.58514 -0.24709,20.96054 -0.25,32.28711 -0.003,11.32657 0.0737,22.6035 0.23243,31.99414 0.15877,9.39064 0.39929,16.89452 0.7207,20.67187 0.56156,6.6 1.4718,20.55 2.02148,31 1.23692,23.51545 2.29239,40.35773 3.44336,53.77539 0.57549,6.70884 1.17359,12.56283 1.83203,17.96485 0.65845,5.40201 1.37646,10.35282 2.1875,15.25976 0.72725,4.4 1.61339,10.25 1.96875,13 0.68537,5.30392 4.9773,33.25854 6.5254,42.5 0.50673,3.025 1.89651,13.375 3.08984,23 0.80621,6.50267 1.53251,11.35949 2.32422,15.28711 0.79171,3.92762 1.64884,6.92604 2.71484,9.71289 1.32363,3.46036 2.84657,6.68128 4.56055,9.65625 1.71398,2.97497 3.61852,5.70466 5.70898,8.17774 2.09047,2.47308 4.36528,4.68984 6.81836,6.64453 2.45308,1.95468 5.0849,3.64662 7.88672,5.0664 3.1922,1.61761 7.71838,3.39667 13.26758,5.25391 5.5492,1.85724 12.12111,3.79299 19.4043,5.72461 7.28318,1.93162 15.27772,3.85847 23.67187,5.69922 8.39415,1.84075 17.18822,3.59505 26.07031,5.17969 11,1.9625 23.6,4.21522 28,5.00585 1.64652,0.2958 3.80983,0.53034 7.10547,0.7129 3.29564,0.18255 7.72444,0.31377 13.90235,0.40039 12.35581,0.17322 31.70847,0.17121 62.99218,0.0644 25.02716,-0.0854 44.62409,-0.24693 58.54102,-0.47852 13.91693,-0.23158 22.15385,-0.53323 24.45898,-0.90234 3.85,-0.61649 13.75,-1.5835 22,-2.14844 6.52574,-0.44686 11.81103,-0.84631 16.51563,-1.30859 4.7046,-0.46228 8.82767,-0.98715 13.03125,-1.68359 4.20358,-0.69645 8.48708,-1.56548 13.50976,-2.71485 5.02268,-1.14937 10.78537,-2.57933 17.94727,-4.40039 15.39777,-3.9152 32.32593,-8.14847 37.61719,-9.4082 3.5543,-0.84621 6.71824,-1.65869 9.64648,-2.49219 2.92824,-0.8335 5.62151,-1.68887 8.23633,-2.62109 2.61482,-0.93223 5.14964,-1.94161 7.76367,-3.08399 2.61403,-1.14238 5.30655,-2.41689 8.23242,-3.88086 3.207,-1.60462 6.70254,-3.57174 10.22852,-5.7207 3.52598,-2.14896 7.0834,-4.48011 10.41601,-6.81445 3.33262,-2.33435 6.43951,-4.67124 9.06641,-6.83204 2.6269,-2.16079 4.77281,-4.14514 6.18164,-5.77343 1.11421,-1.28778 2.20836,-2.757 3.27735,-4.39063 1.06898,-1.63362 2.11375,-3.4316 3.12695,-5.38086 1.0132,-1.94925 1.99455,-4.04853 2.9414,-6.2832 0.94686,-2.23467 1.85856,-4.6039 2.72852,-7.09375 1.73991,-4.97971 3.31464,-10.44064 4.68359,-16.25977 1.36895,-5.81912 2.53181,-11.9973 3.44532,-18.41406 1.09619,-7.7 2.72247,-18.05 3.61328,-23 0.60708,-3.37342 1.05552,-8.12676 1.41601,-15.78515 0.36049,-7.6584 0.63304,-18.22186 0.89063,-33.21485 0.18899,-11 0.54513,-24.14961 0.9668,-36.47461 0.42166,-12.325 0.90883,-23.82539 1.35937,-31.52539 0.90109,-15.4 2.09336,-36.1 2.65039,-46 0.27852,-4.95 0.53805,-20.13789 0.73242,-40.61914 0.19438,-20.48125 0.3236,-46.25586 0.33985,-72.38086 0.0304,-48.93473 0.25674,-88.37712 0.73242,-122.11914 0.23784,-16.87101 0.53902,-32.31821 0.9082,-46.8125 0.36918,-14.49428 0.80643,-28.03637 1.32031,-41.10156 0.29208,-7.42582 0.4658,-16.15946 0.52344,-26.01563 0.0576,-9.85616 -3.7e-4,-20.8351 -0.17187,-32.74804 -0.1715,-11.91295 -0.45622,-24.76127 -0.85157,-38.35743 -0.39534,-13.59615 -0.90174,-27.93989 -1.51562,-42.8457 -0.35858,-8.70672 -0.85606,-16.56508 -1.54883,-23.89062 -0.69277,-7.32555 -1.58052,-14.11757 -2.7168,-20.69532 -1.13627,-6.57774 -2.52185,-12.94096 -4.21093,-19.40429 -1.68909,-6.46333 -3.682,-13.02748 -6.03321,-20.00977 -1.80676,-5.36546 -3.39494,-9.92287 -4.87109,-13.921873 -1.47615,-3.999003 -2.83974,-7.439562 -4.20117,-10.568359 -1.36144,-3.128798 -2.71901,-5.946323 -4.18164,-8.701172 -1.46264,-2.754849 -3.03081,-5.447063 -4.81055,-8.324219 -1.76493,-2.853218 -3.50681,-5.40845 -5.29688,-7.736328 -1.79006,-2.327879 -3.62811,-4.428887 -5.58203,-6.369141 -1.95391,-1.940254 -4.02478,-3.719812 -6.28125,-5.410156 -2.25647,-1.690344 -4.69874,-3.290991 -7.39648,-4.869141 -4.60824,-2.695772 -9.28378,-5.711312 -10.39063,-6.701172 -1.10685,-0.98986 -4.25685,-2.835249 -7,-4.099609 l -4.98828,-2.298828 -57,0 z m -27.97461,17.585937 c 8.43351,-0.04385 18.48745,0.0062 31.47461,0.08984 l 50.5,0.324219 6,4.101562 c 3.3,2.255368 9.26958,6.20038 13.26563,8.767578 2.19735,1.411654 4.19498,2.917704 6.0625,4.607422 1.86752,1.689718 3.60416,3.563375 5.2793,5.707032 1.67513,2.143656 3.28996,4.558563 4.91015,7.332031 1.6202,2.773468 3.24652,5.905222 4.94922,9.484375 1.05466,2.216948 2.46206,5.627029 4.02539,9.671882 1.56333,4.04484 3.28233,8.72473 4.96094,13.48242 1.6786,4.75769 3.31631,9.59373 4.7168,13.94922 1.40048,4.35548 2.564,8.23013 3.29296,11.06836 0.86322,3.36095 2.06878,9.62549 3.20118,16.33398 1.13239,6.70849 2.19162,13.86094 2.76171,18.99414 0.68247,6.14514 1.45096,20.2613 2.04883,35.7168 0.59787,15.4555 1.02512,32.25033 1.02539,43.75 1.2e-4,4.94078 0.12818,11.01055 0.33594,16.81055 0.20776,5.8 0.49522,11.33023 0.81055,15.18945 0.44134,5.40156 0.65671,9.96387 0.64258,14.9375 -0.0141,4.97363 -0.25778,10.35858 -0.73438,17.40625 -0.47728,7.05769 -0.91,16.84085 -1.30469,29.65625 -0.39469,12.8154 -0.75172,28.66285 -1.07422,47.85156 -0.64499,38.37743 -1.15563,90.11729 -1.57421,157.68164 -0.21042,33.9625 -0.47421,65.00586 -0.73047,87.66211 -0.25627,22.65625 -0.50501,36.92539 -0.6836,37.33789 -0.34012,0.78563 -0.75761,4.62591 -1.20312,10.55078 -0.44551,5.92487 -0.91871,13.9349 -1.37305,23.06055 -0.90868,18.25129 -1.73882,40.96509 -2.10351,60.38867 -0.21047,11.2096 -0.51805,21.78035 -0.84571,29.82617 -0.32766,8.04583 -0.67541,13.56671 -0.96679,14.67383 -0.57902,2.2 -1.7934,10.075 -2.69922,17.5 -0.63667,5.21874 -1.49817,10.55383 -2.51563,15.75196 -1.01746,5.19812 -2.19167,10.25868 -3.45312,14.92968 -1.26146,4.671 -2.60988,8.95247 -3.97852,12.58985 -1.36863,3.63737 -2.75669,6.63126 -4.0957,8.72851 -0.70718,1.10764 -1.61784,2.27809 -2.70508,3.49414 -1.08724,1.21605 -2.35137,2.47847 -3.76758,3.76758 -2.83242,2.57822 -6.27148,5.26553 -10.11328,7.92383 -3.84179,2.6583 -8.08682,5.28666 -12.5293,7.74219 -4.44247,2.45552 -9.08232,4.73909 -13.71679,6.70898 -1.61675,0.68721 -6.19375,2.10782 -12.26563,3.84375 -6.07187,1.73593 -13.63862,3.78719 -21.23437,5.73438 -13.8262,3.54438 -23.88972,6.14777 -31.95313,8.12304 -8.06341,1.97528 -14.12682,3.32338 -19.95312,4.35157 -5.8263,1.02818 -11.41442,1.73828 -18.5293,2.4414 -7.11488,0.70313 -15.7564,1.39836 -27.68555,2.39844 -10.175,0.85302 -22.05825,1.98341 -26.4082,2.51172 -2.49653,0.3032 -11.76638,0.5217 -24.37305,0.6582 -12.60666,0.1365 -28.54931,0.19099 -44.39062,0.16992 -15.84131,-0.0211 -31.58274,-0.11957 -43.7832,-0.28906 -12.20047,-0.16949 -20.8608,-0.40998 -22.54493,-0.71875 -2.75,-0.50419 -16.475,-2.89943 -30.5,-5.32227 -7.5556,-1.30524 -14.76247,-2.65091 -21.58789,-4.02734 -6.82541,-1.37643 -13.26982,-2.78296 -19.29883,-4.21484 -6.029,-1.43188 -11.64221,-2.88779 -16.80859,-4.35938 -5.16638,-1.47159 -9.8855,-2.95952 -14.12305,-4.45508 -3.388,-1.19573 -6.20354,-2.26509 -8.58203,-3.29492 -2.37848,-1.02983 -4.31901,-2.02064 -5.96094,-3.05664 -1.64192,-1.036 -2.98379,-2.11779 -4.1621,-3.33203 -1.17832,-1.21424 -2.19398,-2.56043 -3.18164,-4.125 -1.41366,-2.23938 -2.56782,-4.22314 -3.53711,-6.19336 -0.9693,-1.97022 -1.75312,-3.9267 -2.42774,-6.11328 -0.67462,-2.18658 -1.23989,-4.60374 -1.76953,-7.49219 -0.52964,-2.88845 -1.02425,-6.24838 -1.55859,-10.32422 -2.7639,-21.08237 -5.71208,-41.18481 -7.48633,-51.05078 -0.79128,-4.4 -1.89295,-11.6 -2.44922,-16 -0.55626,-4.4 -1.94373,-14.3 -3.08203,-22 -1.1383,-7.7 -2.5095,-19.85 -3.04883,-27 -1.40935,-18.68435 -3.85233,-55.38707 -4.92578,-74 -0.29623,-5.13659 -0.51855,-13.6384 -0.66602,-23.77539 -0.14746,-10.13699 -0.21977,-21.90989 -0.21875,-33.58984 0.001,-11.67996 0.0754,-23.26577 0.22461,-33.03125 0.14923,-9.76549 0.37278,-17.70994 0.66992,-22.10352 0.50207,-7.425 1.38088,-21.825 1.95313,-32 0.5845,-10.39285 1.4248,-20.2931 2.40234,-28.69336 0.48877,-4.20012 1.01161,-8.02541 1.55469,-11.34961 0.54308,-3.3242 1.10573,-6.14732 1.67383,-8.34375 0.46452,-1.79595 0.96948,-4.48625 1.46484,-7.65429 0.49536,-3.16805 0.98083,-6.81335 1.41016,-10.51758 0.42933,-3.70424 0.80193,-7.46852 1.06836,-10.87305 0.26642,-3.40453 0.42694,-6.44982 0.43359,-8.71875 0.006,-2.09698 0.17435,-4.57537 0.48242,-7.3457 0.30808,-2.77034 0.75614,-5.83285 1.32032,-9.09571 1.12835,-6.5257 2.72372,-13.85486 4.60156,-21.26562 1.87784,-7.41076 4.03806,-14.90285 6.29883,-21.75195 1.13038,-3.42456 2.28597,-6.68829 3.44336,-9.70117 1.15738,-3.01289 2.31651,-5.77494 3.45507,-8.19532 0.32496,-0.69081 0.5978,-1.22308 0.88672,-1.62695 0.28893,-0.40387 0.59358,-0.6795 0.98242,-0.85938 0.7777,-0.35975 1.89158,-0.3343 3.88477,-0.17578 0.96762,0.077 1.74222,0.11587 2.39649,0.084 0.65426,-0.0319 1.18892,-0.13541 1.67968,-0.33789 0.49076,-0.20248 0.93696,-0.50462 1.41406,-0.93946 0.47711,-0.43483 0.98438,-1.00151 1.59766,-1.73047 1.10906,-1.31803 1.76484,-2.28308 2.07422,-3.22851 0.30938,-0.94543 0.27236,-1.87124 0,-3.10938 -0.368,-1.67295 -0.65592,-3.53823 -0.86133,-5.51757 -0.20541,-1.97935 -0.3273,-4.07184 -0.36719,-6.19922 -0.0399,-2.12738 0.002,-4.28919 0.13086,-6.40625 0.12859,-2.11706 0.34259,-4.19029 0.64258,-6.13867 0.57385,-3.72707 0.84963,-5.8363 0.7793,-7.32227 -0.0352,-0.74299 -0.15733,-1.33117 -0.3711,-1.88672 -0.21376,-0.55555 -0.51976,-1.07864 -0.92382,-1.69531 -0.64183,-0.97956 -1.14664,-2.49659 -1.57227,-4.86133 -0.42562,-2.36474 -0.77206,-5.5772 -1.09375,-9.94727 -0.48971,-6.6526 -1.56518,-17.7207 -2.39062,-24.5957 -0.82543,-6.875 -2.22347,-21.725 -3.10547,-33 -0.42248,-5.40072 -0.72346,-9.92885 -0.88086,-14.21094 -0.1574,-4.28209 -0.17169,-8.31899 -0.0215,-12.73437 0.15021,-4.41538 0.46648,-9.20916 0.9668,-15.00977 0.50032,-5.8006 1.18516,-12.60717 2.07813,-21.04492 0.78579,-7.425 1.44343,-16.96989 1.46093,-21.21289 0.009,-2.08729 0.11391,-4.25309 0.31055,-6.47461 0.19664,-2.22152 0.48546,-4.49861 0.85742,-6.81054 0.74393,-4.62388 1.82621,-9.38471 3.19531,-14.10743 1.36911,-4.72272 3.0252,-9.40777 4.91797,-13.8789 1.89277,-4.47113 4.02101,-8.72856 6.33594,-12.59766 1.30948,-2.18862 2.67801,-4.28277 4.11328,-6.29101 1.43527,-2.00825 2.9377,-3.93034 4.51758,-5.77344 1.57988,-1.8431 3.23718,-3.60759 4.98047,-5.30078 1.74329,-1.69319 3.57254,-3.31454 5.49805,-4.87305 1.92551,-1.55851 3.94572,-3.05509 6.07226,-4.494145 2.12654,-1.439055 4.3587,-2.821417 6.70508,-4.15625 2.34638,-1.334833 4.80755,-2.621346 7.39258,-3.867188 2.58503,-1.245841 5.29423,-2.450966 8.13672,-3.623047 5.60179,-2.30986 11.89509,-4.697855 17.89062,-6.814453 5.99553,-2.116598 11.69331,-3.961799 16.10742,-5.1875 3.95426,-1.098008 9.17902,-2.243198 15.29883,-3.382812 6.11981,-1.139614 13.13469,-2.272825 20.67383,-3.347657 7.53914,-1.074831 15.60219,-2.092432 23.81445,-2.996093 8.21226,-0.903661 16.57373,-1.69421 24.71289,-2.320313 11,-0.846172 27.65,-2.204895 37,-3.021484 9.35,-0.81659 19.65559,-1.481363 22.90235,-1.476563 3.24677,0.0048 12.02177,-0.642629 19.5,-1.439453 15.80116,-1.683652 26.38287,-2.767923 36.17578,-3.447265 4.89645,-0.339671 9.59565,-0.578377 14.65234,-0.740235 5.05669,-0.161858 10.46979,-0.246408 16.79492,-0.279297 z"
       style="color:#000000;clip-rule:nonzero;display:inline;overflow:visible;visibility:visible;opacity:1;isolation:auto;mix-blend-mode:normal;color-interpolation:sRGB;color-interpolation-filters:linearRGB;solid-color:#000000;solid-opacity:1;fill:url(#linearGradient4750);fill-opacity:1;fill-rule:nonzero;stroke:none;stroke-width:1;stroke-linecap:butt;stroke-linejoin:miter;stroke-miterlimit:4;stroke-dasharray:none;stroke-dashoffset:0;stroke-opacity:1;color-rendering:auto;image-rendering:auto;shape-rendering:auto;text-rendering:auto;enable-background:accumulate" />
    <path
       id="path5790"
       d="m 379.83789,434.67773 c -1.31234,0.002 -2.69335,0.0562 -4.14844,0.15821 -16.44312,1.1529 -25.93628,2.30816 -32,3.89258 -14.89085,3.89092 -23.22783,5.71757 -26.03711,5.70507 -3.7566,-0.0167 -9.48222,3.01987 -24.85937,13.18164 -8.36331,5.52678 -11.72861,10.05066 -12.35938,16.61524 -1.1596,12.06815 12.58182,28.28161 22.80664,26.91015 4.66488,-0.62567 4.67017,-0.59936 2.4336,11.7793 -0.79499,4.4 -1.45405,9.1725 -1.46485,10.60547 -0.0186,2.46043 -0.36728,2.64031 -6.26953,3.22461 -3.4375,0.34031 -7.96888,1.11011 -10.07031,1.71094 -4.67343,1.3362 -11.50953,7.32433 -13.33203,11.67773 -4.6071,11.00497 3.50384,26.43521 18.98633,36.11719 l 4.83594,3.02344 -3.54297,0.97851 c -11.57712,3.19659 -23.44793,18.88213 -24.43555,32.28907 -0.57941,7.86537 1.43544,18.57915 4.85352,25.80664 3.29755,6.97267 11.00766,15.61149 17.82421,19.9746 6.67894,4.27504 18.70644,8.84573 27.77539,10.55469 11.49296,2.16574 44.51131,1.38983 57.19532,-1.34375 17.03265,-3.67077 29.77312,-10.15479 34.19336,-17.40429 2.91169,-4.77538 2.66179,-14.13683 -0.59571,-22.2793 -2.00477,-5.01111 -2.42189,-7.35446 -1.91211,-10.75391 1.03451,-6.89864 -1.24434,-25.07837 -4.85937,-38.77344 l -3.32227,-12.59179 4.4375,-2.35547 c 2.44122,-1.29506 7.74036,-5.43875 11.77539,-9.20703 5.72504,-5.34655 7.78807,-8.05661 9.39063,-12.33985 3.96733,-10.60363 2.4228,-17.87671 -5.63672,-26.54492 -6.06756,-6.5258 -13.94138,-11.61461 -22.29883,-14.41601 -6.45444,-2.16351 -6.51962,-2.22354 -7.4082,-6.70508 -0.87707,-4.42345 -0.79394,-4.64821 3.82812,-10.32227 12.39483,-15.21595 13.98538,-29.9881 4.40235,-40.875 -4.40264,-5.00166 -9.34,-7.53477 -16.44532,-8.14453 -1.18421,-0.10162 -2.42789,-0.15078 -3.74023,-0.14844 z m -6.12305,28.05079 c 1.53413,-0.0109 2.47461,0.10848 2.47461,0.39062 0,0.37009 -1.72565,2.72594 -3.83398,5.23633 -8.44919,10.06051 -9.68074,12.73274 -9.51367,20.62695 l 0.15234,7.20117 -5.56836,1.11914 c -3.06305,0.61515 -6.4393,1.11719 -7.50195,1.11719 -6.57815,0 -12.73438,6.76806 -12.73438,14 0,5.35762 2.94006,10.26962 7.41797,12.39453 4.00657,1.90124 5.77382,1.93282 15.24805,0.26953 l 7.16406,-1.25781 1.59961,8.54688 c 0.87925,4.70119 1.70413,10.54276 1.83398,12.98047 l 0.23633,4.43164 -7.5,2.375 c -4.125,1.30633 -10.65,2.78564 -14.5,3.28711 -9.67268,1.2599 -20.5,1.21834 -20.5,-0.0781 0,-0.57806 1.4625,-1.6632 3.25,-2.41211 3.44207,-1.44213 6.76513,-4.60953 8.625,-8.2207 2.5395,-4.93076 0.60028,-11.05567 -4.99023,-15.75977 l -3.1875,-2.68164 1.65234,-11.6875 c 0.90889,-6.42799 1.64663,-13.7125 1.64063,-16.1875 -0.006,-2.475 0.76133,-10.23341 1.70508,-17.24219 l 1.71484,-12.74414 3.54492,-0.61523 c 1.9495,-0.33857 6.91992,-1.42869 11.04492,-2.42188 5.9724,-1.43798 15.92302,-2.63531 20.52539,-2.66796 z m 24.69141,68.68554 c 0.39772,-10e-4 0.83458,0.28046 1.21289,0.89258 0.30141,0.48768 -0.12247,1.44338 -0.94141,2.12305 -1.23911,1.02837 -1.48828,0.87954 -1.48828,-0.88672 0,-1.07268 0.35455,-1.79035 0.83594,-2.03516 0.12035,-0.0612 0.24829,-0.0934 0.38086,-0.0937 z m -23.57617,46.4668 c 1.09315,0.0413 1.8514,2.32246 3.85156,10.6875 3.56886,14.92557 4.06188,20.61806 2.50391,28.875 -1.20603,6.39168 -1.14459,7.3032 0.85351,12.7832 1.18327,3.24522 2.15039,6.13051 2.15039,6.41406 0,0.94515 -11.46037,3.74821 -21.54101,5.26758 -23.25915,3.50564 -44.98165,0.0803 -56.83789,-8.96289 -4.0398,-3.0813 -7.6211,-10.77901 -7.6211,-16.38281 0,-4.77969 3.93309,-10.14258 7.43946,-10.14258 9.698,0 19.53468,-10.18606 19.55468,-20.25 l 0.006,-2.75 14.25,-0.002 c 11.62937,-0.002 15.99709,-0.43649 23.75,-2.36524 5.225,-1.29987 10.24082,-2.67834 11.14649,-3.06445 0.1744,-0.0743 0.33797,-0.11332 0.49414,-0.10742 z"
       style="fill:url(#linearGradient5694)" />
    <path
       id="path5800"
       d="m 314.68945,683.91992 -10.5,3.33008 c -5.775,1.83123 -13.2,4.7483 -16.5,6.48242 -7.61416,4.00118 -16.94906,13.19338 -19.69922,19.39649 -2.90761,6.55826 -3.54931,17.52436 -1.40234,23.98828 3.30232,9.94233 17.04989,21.75095 33.74609,28.98633 8.49484,3.68128 15.9105,4.36714 19.56055,1.81054 2.13097,-1.49259 2.12857,-1.4497 -0.27734,4.68946 -1.33552,3.40781 -2.42774,6.33515 -2.42774,6.50586 0,0.1707 -3.39546,0.31054 -7.54492,0.31054 -14.90995,0 -26.76381,5.14059 -34.12891,14.79688 -6.19959,8.1282 -6.90553,19.25761 -1.85937,29.35156 3.28616,6.57339 6.66372,10.24256 12.5332,13.61914 2.475,1.42381 4.68859,2.73478 4.91797,2.91211 0.22938,0.17733 -1.03437,2.12667 -2.80664,4.33203 -5.0196,6.24622 -6.41335,10.51472 -5.87695,17.98633 0.82542,11.49748 5.57989,17.94178 24.57422,33.30664 15.504,12.54146 30.87392,20.27814 43.6914,21.99414 6.60555,0.88436 14.35149,0.5949 21,-0.78711 28.35281,-5.8936 41.28214,-23.30013 28.29493,-38.0918 -3.11352,-3.54609 -11.36834,-8.41992 -14.26172,-8.41992 -1.26235,0 -1.52998,-1.54596 -1.51368,-8.75 0.0207,-9.13048 1.31847,-20.26885 3.0586,-26.25 0.93058,-3.19857 1.97185,-3.95885 12.07617,-8.8457 11.33529,-5.48219 17.87731,-10.38131 20.41016,-15.2793 1.66537,-3.22047 1.89885,-12.52512 0.41211,-16.43554 -1.52281,-4.00532 -13.70632,-15.6673 -19.82227,-18.97266 -5.1937,-2.80693 -5.33051,-2.99034 -4.76172,-6.42774 0.32203,-1.94619 0.5897,-6.52037 0.5957,-10.16601 l 0.0117,-6.62891 6.54493,-1.64453 c 13.903,-3.49233 23.58134,-9.95148 27.00195,-18.02148 1.17488,-2.77181 1.37245,-2.87934 1.99414,-1.07813 4.06424,11.77521 11.47238,21.73456 20.45703,27.5 2.75138,1.76555 5.00195,3.6214 5.00195,4.125 0,0.50359 -1.08493,3.58433 -2.41015,6.8457 -1.32521,3.2614 -2.7292,7.41528 -3.1211,9.23047 -0.39191,1.81519 -1.55849,4.97031 -2.59179,7.01172 -1.51808,2.99915 -2.69342,3.91092 -6.12696,4.75391 -10.60486,2.60371 -16.3829,7.87889 -17.46484,15.94531 -0.74977,5.58999 1.22084,10.37875 6.13477,14.9082 l 4.3164,3.97852 -5.86328,13.07227 c -9.62689,21.45933 -12.93076,36.54352 -9.8125,44.81445 1.47667,3.91672 6.6998,9.08623 10.36719,10.26172 1.68965,0.54157 8.69726,1.67411 15.57226,2.51562 6.875,0.84151 17,2.8187 22.5,4.39453 9.57499,2.74336 11.27504,2.90039 40,3.70704 47.43125,1.3319 44.84679,1.44124 48.45899,-2.02149 3.68797,-3.53538 5.54361,-9.0545 4.64844,-13.82617 -1.00987,-5.38305 -7.77935,-14.96461 -16.50196,-23.35938 l -7.93164,-7.63476 -0.69531,-10.20313 c -0.61059,-8.95814 -0.42193,-11.1068 1.54883,-17.61133 1.23452,-4.07456 2.3725,-7.91394 2.52929,-8.5332 0.15678,-0.61925 4.60551,-3.28403 9.88477,-5.92187 15.73055,-7.85997 25.47701,-18.2545 25.53711,-27.23438 0.0287,-4.2878 -2.40855,-10.0053 -5.78125,-13.5625 -3.01983,-3.18504 -11.51049,-7.77494 -17.94727,-9.70117 -2.3375,-0.6995 -4.25,-1.5469 -4.25,-1.88477 0,-0.33787 1.57848,-1.46488 3.50782,-2.5039 5.76519,-3.10475 12.94088,-11.49324 15.47656,-18.0918 4.83349,-12.57813 1.90459,-31.27043 -6.30469,-40.23633 -4.92247,-5.37616 -14.526,-11.85103 -19.59375,-13.21093 -1.97256,-0.52932 -13.93594,-1.01659 -26.58594,-1.08399 -24.96562,-0.133 -32.04078,0.78941 -50.5,6.5918 -14.47335,4.54948 -25.63365,12.96262 -29.93164,22.5625 l -1.78125,3.97656 -0.58789,-4.96875 c -0.76835,-6.48754 -3.82759,-12.33335 -9.17383,-17.5293 -4.77189,-4.63774 -11.67866,-7.17042 -33.52539,-12.29882 -11.18828,-2.62638 -12.35384,-2.70109 -43,-2.73829 l -31.5,-0.0391 z m 365.74414,20.04883 c -2.69826,-0.008 -5.75614,-0.003 -9.24414,0.004 l -25.5,0.0508 -16.64843,3.63281 c -19.04132,4.15492 -26.33099,7.3068 -32.57618,14.08203 -4.80177,5.20931 -5.75195,8.76911 -5.03125,18.8418 0.76692,10.71871 6.72178,22.03664 16.90235,32.12304 7.601,7.53071 7.85365,7.93369 7.84765,12.5 l -0.006,4.7168 -8.74414,0.0527 c -9.88315,0.0579 -16.85972,2.53752 -23.47265,8.34375 -12.17998,10.69417 -9.80555,29.63081 4.98242,39.74414 6.47133,4.42567 15.64837,7.66736 25.19141,8.89843 4.47525,0.57731 5.14803,0.90389 3.78125,1.83204 -0.91466,0.62113 -3.97855,2.7039 -6.81055,4.6289 -13.29758,9.03879 -17.57675,15.78338 -16.63086,26.21485 1.0311,11.37121 8.28567,19.24537 22.15625,24.04882 7.85323,2.7196 8.47811,2.77805 24.55859,2.3086 21.81669,-0.63691 32.87504,-3.21624 48.25391,-11.25391 13.38471,-6.99544 19.01404,-14.74902 17.30859,-23.83984 -0.74381,-3.96483 -5.75404,-10.21967 -9.25,-11.54883 -2.48046,-0.94307 -2.96036,-4.38067 -1.68554,-12.08984 0.55796,-3.37416 0.96911,-3.74982 5.24023,-4.80469 13.06663,-3.22718 18.43655,-5.31472 22.0293,-8.56055 5.55838,-5.02167 7.49734,-13.08686 4.94531,-20.57422 -2.73795,-8.03284 -14.83567,-21.92194 -24.04687,-27.60742 -5.52671,-3.41128 -5.92359,-3.89966 -5.38086,-6.61328 0.32228,-1.6114 0.58593,-6.24844 0.58593,-10.30469 l 0,-7.375 2.81836,0 c 4.87923,0 12.53723,-2.82129 16.46094,-6.0664 5.34463,-4.42029 7.7207,-9.59346 7.7207,-16.80469 0,-11.61647 -5.62152,-20.89064 -17.21093,-28.39453 -8.35795,-5.41176 -9.6571,-6.1286 -28.54493,-6.18555 z m -345.88086,7.51758 c 3.97887,0.0176 9.00194,0.0913 15.54493,0.19726 27.23491,0.44115 27.74056,0.48811 39.09179,3.61329 15.0275,4.13724 15,4.12857 15,5.05078 0,1.25709 -12.65518,5.07226 -16.82422,5.07226 -4.10421,0 -10.86908,3.74966 -15.125,8.38477 -2.17312,2.36673 -2.53016,3.93028 -3.17968,13.89258 -0.4025,6.17339 -0.76238,12.91015 -0.80078,14.97265 -0.0442,2.37286 -0.52937,3.70199 -1.32032,3.61719 -0.6875,-0.0737 -4.44496,-0.55917 -8.34961,-1.07813 l -7.09961,-0.94336 0.95704,-5.17187 c 1.1791,-6.38238 0.3625,-16.25312 -1.76563,-21.34766 -3.45906,-8.2807 -9.71271,-12.32617 -19.05859,-12.32617 -9.93756,0 -16.4336,5.28519 -16.4336,13.36914 0,1.99759 -0.34439,3.63086 -0.76562,3.63086 -1.1041,0 -14.15143,-7.70935 -17.98438,-10.62695 -7.97639,-6.07154 -0.93948,-13.37114 17.65821,-18.31836 3.98772,-1.06078 6.4442,-1.61438 11.17578,-1.84961 2.36578,-0.11762 5.30043,-0.15623 9.27929,-0.13867 z m 189.25,4.0332 c 3.90249,0.0262 6.77543,0.12601 7.67579,0.29492 5.16979,0.96986 9.42755,5.53306 10.24414,10.97852 1.16507,7.7692 -2.62035,11.43389 -13.97657,13.5332 -7.90735,1.46175 -9.99264,3.03349 -13.6582,10.29492 -2.62651,5.2031 -3.01285,6.87405 -2.49609,10.76953 l 0.61132,4.61133 -4.25781,1.14063 c -2.37767,0.63688 -5.58014,2.52446 -7.25586,4.27539 -2.63468,2.75294 -3,3.84734 -3,8.98828 0,4.85484 0.42662,6.31542 2.5,8.5625 2.87172,3.11231 7.79359,5.45117 11.46875,5.45117 2.2888,0 2.53125,0.38665 2.53125,4.01367 0,3.89122 -0.16184,4.08426 -5.37695,6.39063 -2.95779,1.30807 -7.7065,2.87829 -10.55078,3.48828 -8.36094,1.7931 -9.51254,1.54622 -10.91211,-2.32422 -1.13217,-3.13098 -5.80768,-8.15143 -9.5332,-10.23633 -1.31361,-0.73513 -1.27746,-1.62475 0.31054,-7.35156 2.81586,-10.15485 6.07173,-17.15221 9.83399,-21.13672 3.84104,-4.06796 5.2521,-10.41131 3.30273,-14.84375 -5.11542,-11.6313 -11.83523,-17.09706 -19.20508,-15.62304 -2.47385,0.49477 -3.66115,-0.0649 -7.34961,-3.46485 -2.42004,-2.23071 -4.17671,-4.64242 -3.90234,-5.35742 0.91155,-2.37544 9.7518,-6.31887 20.38281,-9.09375 9.03943,-2.35945 13.0396,-2.80686 28.75782,-3.21094 5.02093,-0.12907 9.95297,-0.17656 13.85546,-0.15039 z m 147.60352,15.43359 c 9.45086,-0.006 18.40026,0.43986 20.5332,1.33985 3.28033,1.38412 4.36087,3.12695 1.9375,3.12695 -1.78115,0 -6.33155,4.89659 -7.55078,8.125 -0.71772,1.90047 -1.95025,2.80598 -4.46289,3.27735 -7.92016,1.48583 -12.24505,8.17995 -11.11719,17.20703 0.764,6.11483 1.22743,5.88473 -8.55664,4.22265 -3.025,-0.51388 -8.28473,-0.79848 -11.6875,-0.63281 l -6.18554,0.30078 -0.34571,-15.5 c -0.18975,-8.525 -0.70109,-16.24704 -1.13672,-17.16211 -0.66275,-1.39217 0.15806,-1.87269 5.03125,-2.9375 4.13751,-0.90404 14.09016,-1.36105 23.54102,-1.36719 z m -328.14063,57.75586 c 0.35121,0.0536 1.86915,0.72601 3.67383,1.63672 2.07736,1.04832 7.13759,2.18769 11.34571,2.55469 l 7.59765,0.66211 -0.49023,5.17969 c -0.26963,2.84849 -0.99247,6.9223 -1.60547,9.05469 -1.09267,3.80095 -1.29034,3.93314 -10.10547,6.6914 -5.23881,1.63922 -11.39205,2.83845 -14.74219,2.87305 -5.02468,0.052 -5.75,-0.18305 -5.75,-1.86133 0,-1.31407 0.93262,-2.12458 2.95313,-2.56836 4.08205,-0.89656 8.02823,-4.22204 9.66797,-8.14648 1.87845,-4.49577 1.73467,-7.24454 -0.6211,-11.86524 -1.1,-2.15759 -2,-4.04543 -2,-4.19531 0,-0.0187 0.026,-0.0233 0.0762,-0.0156 z m 303.01172,6.03516 c 0.55911,0.0144 1.29879,0.0838 2.26368,0.1875 2.28124,0.24508 7.08709,0.70582 10.67968,1.02344 8.92754,0.78929 9.62662,1.32667 8.15039,6.2539 -0.65001,2.16954 -1.18164,6.66807 -1.18164,9.99805 0,5.81051 -0.11084,6.07624 -2.75,6.58203 -1.5125,0.28986 -6.07168,0.82651 -10.13086,1.19336 l -7.3789,0.66797 0.63672,-3.36523 c 1.74708,-9.21061 1.80267,-11.68844 0.33593,-14.97266 -0.83308,-1.86536 -1.7383,-4.3901 -2.01172,-5.60938 -0.23129,-1.03141 -0.28294,-1.57766 0.20508,-1.81445 0.24402,-0.11839 0.62254,-0.15896 1.18164,-0.14453 z m -339.26562,11.85938 -1.28125,3.1582 c -0.70456,1.73742 -1.45121,3.69432 -1.66016,4.34766 -0.61269,1.91566 -5.81033,-1.49048 -5.86523,-3.84376 -0.008,-0.36079 1.96852,-1.33353 4.39453,-2.16015 l 4.41211,-1.50195 z m 386.78906,6.19921 c 0.11953,-0.005 0.25117,0.0322 0.38867,0.11719 0.55,0.33992 1,1.04301 1,1.56055 0,0.51754 -0.45,0.93945 -1,0.93945 -0.55,0 -1,-0.70113 -1,-1.55859 0,-0.64311 0.25274,-1.0426 0.61133,-1.0586 z m -81.61133,4.7461 c 0.45313,0 0.90625,0.0703 1.25,0.20898 0.6875,0.27741 0.125,0.50586 -1.25,0.50586 -1.375,0 -1.9375,-0.22845 -1.25,-0.50586 0.34375,-0.1387 0.79688,-0.20898 1.25,-0.20898 z m -104.77148,17.3164 c 1.08179,-0.0286 1.33353,2.5739 1.57617,14.26954 0.25159,12.12659 0.66028,15.49564 2.35938,19.44531 1.13041,2.62769 2.68059,5.29698 3.44531,5.93164 0.76472,0.63466 1.39062,1.5486 1.39062,2.03125 0,0.86658 -27.15754,1.01255 -32,0.17187 -1.375,-0.2387 -5.98341,-1.52007 -10.24023,-2.8457 -4.25682,-1.32563 -11.79869,-2.94885 -16.75977,-3.60937 -10.61908,-1.41383 -10.47051,0.87092 -1.28906,-19.91993 l 6.43945,-14.58007 4.67383,0.77148 c 9.82392,1.61904 32.19575,0.71261 40.17578,-1.62695 0.0797,-0.0234 0.1564,-0.0372 0.22852,-0.0391 z m -150.17774,7.70313 -0.67187,17.2168 c -0.73253,18.76781 -0.17598,22.34448 4.29687,27.66015 l 2.50196,2.97461 -4.83789,-0.0723 c -5.11566,-0.0772 -11.92788,-2.15959 -19.35157,-5.91407 -5.59292,-2.82857 -27.99338,-20.70109 -27.97461,-22.32031 0.008,-0.65556 2.48116,-4.09405 5.4961,-7.64062 3.01493,-3.54657 5.72671,-7.2191 6.02539,-8.16016 0.4787,-1.50822 2.10827,-1.69857 13.75391,-1.60547 7.26626,0.0581 14.90981,-0.39814 16.98632,-1.01562 l 3.77539,-1.12305 z m 308.38868,4.25391 c 1.39451,-0.0221 2.32769,0.0308 2.46093,0.16406 0.26648,0.26649 -0.34207,4.68608 -1.35156,9.82031 -1.6736,8.51171 -1.66854,11.53253 0.0293,15.95703 0.44215,1.15221 -0.7291,1.94567 -4.7461,3.21094 -6.11295,1.92546 -34.17742,3.31453 -35.15039,1.74023 -0.3212,-0.51971 2.58236,-2.93537 6.45118,-5.36914 3.86881,-2.43377 8.97309,-5.87064 11.34375,-7.63867 4.53291,-3.38064 8.52343,-10.14925 8.52343,-14.45703 0,-2.42822 0.31468,-2.56475 7.20703,-3.14258 1.98205,-0.16617 3.83791,-0.26311 5.23243,-0.28515 z"
       style="fill:url(#linearGradient5694)" />
    <path
       id="path5788"
       d="m 532.39453,404.61914 c -1.52254,-0.009 -3.08095,2.4e-4 -4.66992,0.0273 -21.18624,0.36143 -47.71998,3.89605 -64.70899,9.5625 -12.10628,4.03789 -27.42484,15.2586 -32.38281,23.71875 -3.39343,5.79044 -5.77718,17.49248 -5.04687,24.78125 1.31085,13.0827 6.91771,20.03197 22.64453,28.07032 9.60162,4.90761 13.28105,5.56062 17.90039,3.17187 l 2.84375,-1.4707 -1.875,7.2207 c -1.0315,3.97108 -1.88358,9.71329 -1.89258,12.76172 l -0.0176,5.54297 -4.38476,1.17187 C 448.34733,522.50956 440.70123,543.92488 447,557.8418 c 3.66527,8.09828 8.46848,13.07918 16.45703,17.07226 6.76363,3.3808 7.34011,3.92942 8.88672,8.45703 l 1.6543,4.8418 -6.6543,3.05078 c -3.65962,1.67783 -10.0293,4.0868 -14.1543,5.35352 -5.71845,1.75603 -8.46356,3.26098 -11.55859,6.33593 -5.45142,5.41608 -6.84432,10.65702 -6.22852,23.44532 0.65754,13.65507 3.90771,20.37143 14.19532,29.34375 13.81554,12.04918 20.70223,16.37399 30.59179,19.20898 3.15607,0.90474 12.88894,1.31816 32.58985,1.38086 24.59924,0.0783 29.02219,-0.14989 35.58398,-1.82812 20.05176,-5.12837 29.9416,-14.9892 28.55078,-28.46485 -0.30449,-2.95024 -1.50997,-7.23837 -2.67968,-9.53125 -2.52328,-4.94601 -9.39929,-11.88773 -12.5625,-12.68164 -2.54359,-0.6384 -3.45241,-4.18083 -3.47071,-13.52539 -0.0168,-8.54806 -4.31292,-30.68328 -7.63476,-39.33984 -0.22289,-0.58085 2.63902,-1.91096 6.35937,-2.95508 14.46209,-4.0588 22.88371,-10.08586 25.71875,-18.40625 2.16281,-6.34751 1.97645,-8.28173 -1.63672,-16.96094 -4.13397,-9.93025 -15.65423,-22.36326 -25.38086,-27.39258 -5.80001,-2.999 -6.43059,-3.62902 -6.43359,-6.41601 -0.003,-2.73609 0.47017,-3.24499 4.13086,-4.45313 10.18638,-3.36181 24.6629,-16.57098 31.0332,-28.31445 3.32492,-6.12905 3.33203,-6.17275 3.33203,-20.14258 0,-15.54187 -0.57512,-17.50677 -6.99218,-23.92383 -4.06179,-4.0618 -15.58458,-11.0001 -23.82813,-14.34765 -4.93991,-2.00601 -13.81682,-2.96594 -24.47461,-3.0293 z m 171.12109,7.67383 c -1.99103,-0.006 -4.21107,0.008 -6.7246,0.0293 -48.69259,0.41326 -85.28664,9.58498 -98.56055,24.70312 -5.93113,6.75519 -8.43263,13.10062 -8.43359,21.39453 -0.002,11.42719 2.99934,16.86042 16.70898,30.25 6.05303,5.91171 12.78831,11.53496 14.9668,12.4961 l 3.96093,1.74609 -0.61523,6.50391 c -0.33798,3.57714 -0.61709,8.21607 -0.62109,10.30664 -0.006,3.45816 -0.34608,3.9348 -3.75782,5.29101 -11.11071,4.41666 -18.78491,10.71685 -22.93945,18.83203 -2.10429,4.11043 -2.45528,5.96447 -2.12109,11.21289 0.32953,5.17506 0.93861,6.95266 3.4414,10.04493 3.79789,4.69242 12.03231,10.34299 19.84375,13.61523 l 5.97656,2.50195 1.6504,8.34961 c 0.90731,4.59239 2.33147,9.97676 3.16601,11.96485 l 1.51758,3.61523 -8.14258,4.28516 c -22.54288,11.86298 -35.24699,24.41221 -37.22265,36.76757 -0.97727,6.11141 1.89748,14.52093 6.77148,19.8086 5.56241,6.03449 19.16091,12.796 28.93945,14.38867 4.0529,0.66011 9.80292,1.88665 12.77735,2.72656 2.97443,0.83991 9.27443,2.34285 14,3.33985 11.40463,2.40616 42.51883,2.66541 53.27734,0.44336 9.31032,-1.92295 18.74737,-6.66211 25.42773,-12.76758 6.95981,-6.36087 9.38672,-11.51809 9.38672,-19.94922 0,-12.20174 -4.74407,-22.40456 -15.00586,-32.27344 -5.36264,-5.15731 -6.62281,-7.67255 -8.06054,-16.08984 -0.64917,-3.80062 -2.66033,-10.87491 -4.47071,-15.72266 -2.23275,-5.97875 -2.91701,-8.9379 -2.12695,-9.19726 0.64061,-0.2103 5.88906,-1.79582 11.66406,-3.52344 25.20777,-7.54104 32.43,-12.2225 35.99219,-23.33203 3.1143,-9.71266 -0.84039,-19.5656 -12.5,-31.13477 -8.34361,-8.27889 -15.36776,-13.04556 -24.96289,-16.94531 -3.06639,-1.24628 -5.72631,-2.44366 -5.91211,-2.66016 -0.1858,-0.2165 -0.62743,-2.28162 -0.98047,-4.58789 l -0.64258,-4.1914 10.65821,-5.14258 c 9.16603,-4.42119 11.7987,-6.28422 18.79492,-13.30664 13.8307,-13.8825 17.44708,-26.41505 11.57617,-40.11133 -2.9658,-6.91893 -7.65584,-11.34849 -16.94336,-16.00781 -13.12958,-6.58678 -15.81649,-7.63022 -29.75391,-7.67383 z m -159.43945,20.12695 8.30664,4.25 c 8.27792,4.23522 8.30784,4.2654 8.61328,8.48047 0.39131,5.39999 -1.86821,10.1729 -7.46289,15.76758 -6.08742,6.08741 -13.14448,9.28388 -23.32617,10.56055 -9.73769,1.22101 -14.06986,3.42752 -16.41015,8.35937 -2.69214,5.67325 -1.6607,10.78865 3.20703,15.90625 2.60938,2.74333 2.63035,2.8647 0.76562,4.23438 -7.78439,5.71775 -7.22131,19.08486 0.98828,23.47851 2.36991,1.26833 2.57472,1.81722 2.03125,5.4375 -0.33245,2.21462 -0.89747,7.85039 -1.2539,12.52539 -0.35643,4.675 -1.14154,8.83225 -1.7461,9.23633 -0.60455,0.40408 -6.36713,0.742 -12.80468,0.75 l -11.70508,0.0156 -0.64453,-3.44141 c -0.35496,-1.89209 -0.44586,-11.22959 -0.20118,-20.75 0.38081,-14.81636 0.80367,-18.46101 2.92969,-25.30859 1.36609,-4.40002 3.06317,-12.35649 3.77149,-17.67969 1.19182,-8.95667 1.14915,-9.95884 -0.57813,-13.43555 -2.70552,-5.44572 -6.53294,-7.88477 -12.36719,-7.88476 -5.51377,-1e-5 -9.57329,2.39946 -12,7.0957 -0.825,1.59656 -1.61423,3.09288 -1.7539,3.32422 -0.13967,0.23134 -1.40698,-0.66225 -2.81641,-1.98633 -1.40943,-1.32409 -5.57018,-3.98964 -9.24609,-5.92188 -5.89296,-3.09765 -6.72008,-3.88979 -6.99219,-6.69921 -0.16973,-1.75249 0.37626,-4.50909 1.21289,-6.12696 1.67682,-3.24262 10.05902,-9.23096 16.17383,-11.55469 12.09652,-4.59689 40.51018,-8.60479 61.11523,-8.62109 l 12.19336,-0.0117 z m 154.06055,7.125 c 0.9793,0.003 1.92115,0.0175 2.82812,0.0449 7.25579,0.21946 12.24506,1.23019 15.72461,3.05274 2.75,1.44042 5.88216,3.28082 6.96094,4.08984 1.9278,1.44573 1.91528,1.537 -0.73633,5.36328 -5.13111,7.40419 -14.87025,13.52232 -26.16211,16.4336 -6.04453,1.5584 -7.6538,2.50536 -12.5,7.35156 -5.48931,5.48934 -5.5625,5.63836 -5.5625,11.44531 0,4.20062 0.5007,6.4379 1.75,7.81836 2.59934,2.87224 2.22204,7.48561 -0.8457,10.35156 -3.32053,3.10209 -5.4043,7.12181 -5.4043,10.42383 0,3.30202 2.08377,7.32369 5.4043,10.42578 3.3053,3.08789 3.26541,4.98129 -0.41016,18.95899 -1.64649,6.26139 -2.99414,11.54889 -2.99414,11.75 0,0.2011 -5.625,0.36523 -12.5,0.36523 l -12.5,0 0,-4.95508 c 0,-3.63691 0.66525,-5.93501 2.5,-8.63867 3.20611,-4.72439 3.18332,-9.1216 -0.0742,-13.92187 -2.55132,-3.75958 -2.56527,-3.88569 -1.5,-13.67774 0.59139,-5.43616 1.07422,-19.44592 1.07422,-31.13281 0,-20.0691 -0.12493,-21.49245 -2.25,-25.63672 -6.2937,-12.27382 -24.65941,-9.58355 -26.46484,3.87695 -0.62778,4.68041 -1.71594,4.35985 -5.39063,-1.58593 l -2.13086,-3.44727 2.36719,-2.53906 c 6.13976,-6.58323 23.62025,-11.42182 52.32031,-14.48242 10.97727,-1.17063 19.64101,-1.7538 26.4961,-1.73438 z m -225.57227,42.0625 c 0.0682,-0.0251 0.14545,9.1e-4 0.22852,0.084 0.33225,0.33229 0.36895,1.19413 0.0801,1.91601 -0.31922,0.79773 -0.55747,0.56144 -0.60547,-0.60351 -0.0326,-0.79062 0.0922,-1.32114 0.29687,-1.39649 z m 238.28516,52.76953 c 0.18435,0.009 0.38781,0.0467 0.61133,0.11133 0.59604,0.17233 1.33756,0.53942 2.2539,1.08008 4.59588,2.71163 12.11472,9.50968 11.36719,10.27734 -0.33417,0.34317 -3.93417,1.53242 -8,2.64258 -4.06584,1.11015 -8.11677,2.23401 -9.00195,2.49805 -1.45504,0.43401 -1.47902,-0.0237 -0.25,-4.76172 0.74768,-2.88238 1.35937,-6.22929 1.35937,-7.43945 0,-3.12906 0.36974,-4.46873 1.66016,-4.40821 z m -161.83594,0.63086 c 0.42112,0.10134 1.03529,0.69929 2.12695,1.86133 1.3148,1.39951 2.19926,2.73434 1.9668,2.9668 -0.23246,0.23247 -1.65855,0.732 -3.16992,1.11133 -2.2709,0.56996 -2.73583,0.36781 -2.67773,-1.16797 0.0386,-1.02213 0.38889,-2.66706 0.77929,-3.65625 0.32416,-0.82134 0.55349,-1.21658 0.97461,-1.11524 z m -25.21484,43.17969 2.62109,9.86719 c 2.97007,11.1827 3.41981,14.0998 4.75391,30.86523 1.19589,15.02866 2.434,18.94252 7.65625,24.18164 3.49191,3.5032 3.89959,4.29868 2.51367,4.92188 l 0,0.002 c -0.90951,0.40897 -12.4543,0.88355 -25.6543,1.05469 -18.4522,0.23923 -24.9893,-0.01 -28.2832,-1.07813 -4.22975,-1.37167 -16.22411,-9.77626 -21.36133,-14.96875 -3.16782,-3.20191 -4.34575,-9.54607 -1.91601,-10.31445 10.20081,-3.2259 29.56756,-13.05108 34.93945,-17.72656 5.24219,-4.56259 6.59562,-13.72602 3.14844,-21.32031 l -1.92969,-4.25 6.70117,-0.01 c 3.68561,-0.005 8.97566,-0.28307 11.75586,-0.61719 l 5.05469,-0.60742 z m 141.70898,7.23242 11.31641,0 3.10937,7.75 c 3.76335,9.38252 4.75305,12.64127 6.63868,21.86719 2.01664,9.8669 6.20426,17.55486 14.51757,26.65234 4.52967,4.95695 7.09961,8.61075 7.09961,10.0918 0,3.28087 -7.82248,7.33393 -16.60547,8.60352 -14.44224,2.0876 -30.73407,0.92107 -47.39453,-3.39258 -5.225,-1.35283 -12.35447,-2.9618 -15.84375,-3.57617 -6.49528,-1.14366 -13.15625,-3.75058 -13.15625,-5.14844 0,-1.74353 11.3013,-9.08087 24.5,-15.90625 14.87892,-7.69426 19.89279,-11.46966 22.11914,-16.65821 2.22674,-5.18946 1.64935,-8.4927 -3.11914,-17.83789 -6.54111,-12.81913 -6.74541,-12.44531 6.81836,-12.44531 z"
       style="fill:url(#linearGradient5694)" />
    <path
       id="path5808"
       d="m 617.37695,818.73828 c 0.79773,0.31922 0.56144,0.55552 -0.60351,0.60352 -1.05416,0.0434 -1.64479,-0.1931 -1.3125,-0.52539 0.33229,-0.33225 1.19414,-0.367 1.91601,-0.0781 z"
       style="fill:url(#linearGradient5694)" />
    <path
       id="path5786"
       d="m 480.36328,86.419922 c -36.25118,0 -52.91741,4.748099 -67.1582,19.126958 -15.50596,15.65627 -17.03802,30.16934 -5.04883,47.82421 6.73972,9.92468 11.52113,13.35786 22.83594,16.39844 5.42488,1.4578 11.23619,2.65039 12.91406,2.65039 2.75431,0 3.24881,0.51004 5.0918,5.25 1.97449,5.07815 3.50705,10.00615 4.45898,14.33594 0.44537,2.0257 0.34027,2.04516 -3.6543,0.65039 -6.80027,-2.37444 -14.60941,-2.66861 -21.05468,-0.79492 -21.3941,6.21944 -28.14158,25.40518 -14.43946,41.05273 4.05874,4.635 13.77153,11.10452 18.09766,12.05469 2.82219,0.61986 2.93639,0.7829 1.20117,1.7207 -1.05481,0.57008 -4.39297,2.60375 -7.41797,4.51953 -28.85353,18.27338 -36,26.57618 -36,41.82227 0,9.88945 1.56224,16.62718 5.69727,24.57031 6.82868,13.11744 22.98214,24.5321 41.48242,29.3125 8.96717,2.31708 10.65741,2.40973 44.57617,2.45703 44.66418,0.0623 55.53387,-1.31562 77.09571,-9.77929 10.32415,-4.05253 15.25682,-7.99518 18.25195,-14.58985 3.68096,-8.10475 1.63219,-26.59053 -4.40625,-39.76367 -4.20826,-9.1805 -14.29338,-20.20969 -29.09375,-31.81836 l -9.56055,-7.5 -0.0215,-6.75 c -0.0144,-4.59805 0.3616,-6.75 1.17968,-6.75 3.10983,0 25.65526,-12.22845 29.66407,-16.08984 12.82988,-12.35807 9.98772,-27.35974 -6.16211,-32.52344 -2.86142,-0.9149 -9.25313,-1.93923 -14.20313,-2.27539 l -9,-0.61133 -0.86914,-9.70898 c -1.16319,-13.0023 -0.66198,-14.79002 4.13867,-14.79102 8.30208,-0.002 23.85795,-10.58429 28.49805,-19.38672 4.87783,-9.25342 1.90214,-22.85789 -6.60547,-30.19922 -5.67886,-4.90037 -21.45393,-12.201575 -31.16211,-14.423824 -20.92963,-4.790895 -30.79773,-5.990234 -49.32617,-5.990234 z m -11.30469,28.210938 c 3.77291,-0.0765 7.99313,-0.0629 12.78125,0.0293 23.0971,0.44473 39.94191,3.16138 51.30078,8.27148 l 7.45118,3.35156 -3.32813,1.81836 c -1.82992,1.0004 -4.68631,2.92699 -6.34765,4.28125 -2.11094,1.72075 -4.00462,2.37845 -6.28907,2.18164 -6.97503,-0.60094 -14.67581,6.09173 -16.52734,14.36524 -0.69038,3.08489 -0.99083,10.79178 -0.75586,19.34765 l 0.39063,14.22071 -5.52344,1.59375 c -3.03713,0.87707 -6.37438,2.18469 -7.41602,2.90625 -5.64049,3.90725 -7.34011,12.87919 -3.58984,18.94726 2.59049,4.1915 8.13437,6.87464 12.68164,6.13672 6.61254,-1.07307 2.82152,1.72218 -6.76953,4.99024 -5.18473,1.76665 -11.12429,3.24179 -13.19727,3.27929 -3.63581,0.0658 -3.74201,-0.0289 -3.02148,-2.68164 0.41082,-1.5125 0.73043,-9.05 0.71094,-16.75 -0.0354,-13.94615 -0.0535,-14.05385 -4.6875,-28 -6.21158,-18.69396 -8.73243,-28.80904 -8.73243,-35.03906 0,-8.80211 -5.26522,-14.43164 -13.5,-14.43164 -8.35642,0 -13.5,5.6127 -13.5,14.72851 0,5.4442 -0.008,5.45729 -2.75,4.82422 -3.38396,-0.78135 -10.24404,-8.2988 -10.24804,-11.23047 -0.004,-3.15816 9.94535,-11.84537 15.73632,-13.74023 6.51975,-2.13333 13.81215,-3.17092 25.13086,-3.40039 z m 36.29688,129.08984 c 0.7063,0.057 0.83398,1.09776 0.83398,4.125 0,8.77603 4.17141,14.93217 16.5,24.35157 9.91956,7.57883 20.56904,17.37054 23.17383,21.30664 2.56904,3.88208 5.29425,12.59806 5.31445,16.99804 0.01,2.09706 -0.69284,2.8208 -3.73828,3.84571 -10.58461,3.56215 -17.75793,5.27335 -27.68554,6.60546 -14.26264,1.9138 -62.09062,1.88524 -71.56446,-0.043 -17.91627,-3.64648 -30,-13.5459 -30,-24.57618 0,-4.3583 0.36028,-5.06123 4.43555,-8.64843 4.92233,-4.3328 7.27671,-5.9514 22.71289,-15.62891 10.37537,-6.5047 22.8871,-18.02004 24.25195,-22.32031 0.51937,-1.63637 1.84902,-1.85886 11.8418,-1.97852 10.04486,-0.1203 17.12617,-1.29015 23.00781,-3.80273 0.38066,-0.16261 0.68058,-0.25338 0.91602,-0.23438 z"
       style="fill:url(#linearGradient4706)" />
  </g>
</svg>
