<?xml version="1.0" encoding="UTF-8" standalone="no"?>
<svg
   xmlns:osb="http://www.openswatchbook.org/uri/2009/osb"
   xmlns:dc="http://purl.org/dc/elements/1.1/"
   xmlns:cc="http://creativecommons.org/ns#"
   xmlns:rdf="http://www.w3.org/1999/02/22-rdf-syntax-ns#"
   xmlns:svg="http://www.w3.org/2000/svg"
   xmlns="http://www.w3.org/2000/svg"
   xmlns:xlink="http://www.w3.org/1999/xlink"
   version="1.1"
   id="svg2985"
   height="930.3103"
   width="570.33643">
  <defs
     id="defs5498">
    <linearGradient
       osb:paint="solid"
       id="linearGradient4756">
      <stop
         id="stop4758"
         offset="0"
         style="stop-color:#ffffff;stop-opacity:1;" />
    </linearGradient>
    <linearGradient
       osb:paint="solid"
       id="linearGradient4750">
      <stop
         id="stop4752"
         offset="0"
         style="stop-color:#000000;stop-opacity:1;" />
    </linearGradient>
    <linearGradient
       osb:paint="solid"
       id="linearGradient5694">
      <stop
         id="stop5696"
         offset="0"
         style="stop-color:#002b11;stop-opacity:1;" />
    </linearGradient>
    <linearGradient
       osb:paint="solid"
       id="linearGradient4712">
      <stop
         id="stop4714"
         offset="0"
         style="stop-color:#162d50;stop-opacity:1;" />
    </linearGradient>
    <linearGradient
       osb:paint="solid"
       id="linearGradient4706">
      <stop
         id="stop4708"
         offset="0"
         style="stop-color:#d40000;stop-opacity:1;" />
    </linearGradient>
    <linearGradient
       gradientUnits="userSpaceOnUse"
       y2="508.69208"
       x2="761.44257"
       y1="508.69208"
       x1="262.13925"
       id="linearGradient4716"
       xlink:href="#linearGradient4712" />
    <linearGradient
       gradientUnits="userSpaceOnUse"
       y2="500.0004"
       x2="771.30902"
       y1="500.0004"
       x1="228.69211"
       id="linearGradient4754"
       xlink:href="#linearGradient4750" />
    <linearGradient
       gradientUnits="userSpaceOnUse"
       y2="500.10483"
       x2="752.40271"
       y1="500.10483"
       x1="248.61133"
       id="linearGradient4760"
       xlink:href="#linearGradient4756" />
    <linearGradient
       y2="508.69208"
       x2="761.44257"
       y1="508.69208"
       x1="262.13925"
       gradientUnits="userSpaceOnUse"
       id="linearGradient501"
       xlink:href="#linearGradient4712" />
    <linearGradient
       y2="508.69208"
       x2="761.44257"
       y1="508.69208"
       x1="262.13925"
       gradientUnits="userSpaceOnUse"
       id="linearGradient503"
       xlink:href="#linearGradient4712" />
    <linearGradient
       y2="508.69208"
       x2="761.44257"
       y1="508.69208"
       x1="262.13925"
       gradientUnits="userSpaceOnUse"
       id="linearGradient505"
       xlink:href="#linearGradient4712" />
  </defs>
  <metadata
     id="metadata5594">
    <rdf:RDF>
      <cc:Work
         rdf:about="">
        <dc:format>image/svg+xml</dc:format>
        <dc:type
           rdf:resource="http://purl.org/dc/dcmitype/StillImage" />
        <dc:title />
      </cc:Work>
    </rdf:RDF>
  </metadata>
  <g
     transform="translate(-214.83161,-34.844271)"
     style="display:inline"
     id="layer21">
    <path
       id="path4929"
       d="m 277.28125,160.43555 c -0.31534,-0.0665 -0.32791,3.80087 -0.33203,13.88867 l -0.008,16.5 1.29101,-10.01367 c 0.52561,-4.07948 0.78832,-6.88358 0.78906,-9.32813 7.5e-4,-2.44454 -0.26046,-4.52953 -0.7832,-7.17187 -0.47081,-2.37931 -0.76783,-3.8351 -0.95703,-3.875 z"
       style="color:#000000;clip-rule:nonzero;display:inline;overflow:visible;visibility:visible;opacity:1;isolation:auto;mix-blend-mode:normal;color-interpolation:sRGB;color-interpolation-filters:linearRGB;solid-color:#000000;solid-opacity:1;fill:#ffcc00;fill-opacity:1;fill-rule:nonzero;stroke:none;stroke-width:1;stroke-linecap:butt;stroke-linejoin:miter;stroke-miterlimit:4;stroke-dasharray:none;stroke-dashoffset:0;stroke-opacity:1;color-rendering:auto;image-rendering:auto;shape-rendering:auto;text-rendering:auto;enable-background:accumulate" />
    <path
       id="path4927"
       d="m 608.89844,53.53125 c -23.23876,-0.147533 -54.33184,-0.01334 -80.8418,0.318359 -13.25498,0.165849 -25.3653,0.380594 -34.77344,0.634766 -9.40813,0.254172 -16.11488,0.547636 -18.5664,0.869141 -8.61168,1.12938 -18.94389,2.845095 -28.45703,4.662109 -9.51315,1.817014 -18.20721,3.735326 -23.54297,5.269531 -5.775,1.6605 -19.95,5.494575 -31.5,8.521485 -15.16349,3.973905 -25.38948,6.717984 -33.03907,8.908203 -7.64958,2.190218 -12.72276,3.826577 -17.58398,5.585937 -3.0306,1.096828 -6.83965,2.707778 -10.96094,4.59375 -4.12129,1.885973 -8.55388,4.046359 -12.83203,6.242188 -4.27815,2.195831 -8.40311,4.426731 -11.9043,6.453121 -3.50118,2.0264 -6.37953,3.84889 -8.16992,5.22657 -1.6156,1.24318 -3.25226,2.74407 -4.84375,4.41211 -1.59149,1.66803 -3.13867,3.50248 -4.57031,5.41406 -1.43164,1.91157 -2.74872,3.90122 -3.88477,5.875 -1.13604,1.97378 -2.0902,3.93244 -2.79492,5.78711 -0.48829,1.28507 -1.01354,3.22633 -1.51172,5.42969 -0.49817,2.20335 -0.96953,4.66863 -1.34961,7.0039 -0.38007,2.33527 -0.66873,4.53987 -0.80273,6.2207 -0.134,1.68084 -0.11309,2.83808 0.12695,3.07813 0.17095,0.17094 0.32692,0.0998 0.43946,-0.15234 0.11253,-0.25209 0.18164,-0.68507 0.18164,-1.23829 0,-0.58492 0.11872,-1.1428 0.33593,-1.66601 0.21722,-0.52322 0.53232,-1.01266 0.92774,-1.45899 0.79084,-0.89265 1.90033,-1.61533 3.16992,-2.10937 1.26959,-0.49404 2.70048,-0.75843 4.13672,-0.73242 0.71812,0.013 1.43741,0.0979 2.13867,0.26367 0.70126,0.16578 1.38391,0.41235 2.0293,0.74609 1.04978,0.54286 1.97471,1.32591 2.78125,2.36719 0.80654,1.04128 1.4945,2.34037 2.07031,3.91406 0.57581,1.57369 1.0389,3.4224 1.39648,5.5625 0.35759,2.1401 0.60986,4.572 0.76172,7.3125 0.15227,2.74766 0.17872,5.51127 0.0625,8.41992 -0.11621,2.90866 -0.376,5.96228 -0.79296,9.28907 -0.41697,3.32679 -0.99221,6.92763 -1.74219,10.92969 -0.74998,4.00205 -1.67381,8.40539 -2.78907,13.33984 -2.13058,9.42677 -3.45665,15.79222 -4.40039,21.78125 -0.94373,5.98903 -1.50515,11.60163 -2.10937,19.52539 -0.53238,6.98156 -2.15037,22.14336 -3.59375,33.69336 -0.97337,7.78894 -1.68378,14.97509 -2.22656,22.99609 -0.54279,8.021 -0.91796,16.87685 -1.22461,28.00391 -0.44591,16.18007 -0.97533,28.87756 -1.62305,38.61914 -0.32386,4.87079 -0.67688,9.0028 -1.06445,12.46094 -0.38757,3.45813 -0.80942,6.24312 -1.26953,8.41992 -0.32197,1.52323 -0.71256,7.02463 -1.08399,14.70703 -0.37142,7.6824 -0.72368,17.54579 -0.9707,27.79297 -0.49057,20.35 -1.30346,40.825 -1.80664,45.5 -0.64873,6.02731 -2.1115,15.52863 -3.61524,24.09961 -1.50373,8.57098 -3.04842,16.21162 -3.86132,18.51562 -0.75424,2.13774 -1.9151,7.25991 -2.58008,11.38477 -0.66498,4.12487 -2.07492,10.67936 -3.13282,14.56445 -0.52893,1.94254 -1.01229,4.32031 -1.36523,6.58594 -0.35294,2.26562 -0.57547,4.4191 -0.58203,5.91406 -0.0131,2.98991 -0.46946,7.23555 -1.01367,9.43555 -0.54422,2.2 -1.41303,9.4 -1.93164,16 -0.54146,6.89071 -1.02354,12.60611 -1.57422,18.08789 -0.55068,5.48178 -1.16989,10.72946 -1.98828,16.68359 -1.6368,11.90828 -4.06758,26.64303 -8.32617,51.72852 -1.67111,9.84377 -2.9526,17.53583 -3.93555,24.04883 -0.98295,6.51299 -1.66754,11.84674 -2.14258,16.97461 -0.47504,5.12786 -0.74128,10.04989 -0.88867,15.73828 -0.1474,5.68839 -0.17578,12.14332 -0.17578,20.33789 0,8.9387 0.0954,16.30225 0.39062,22.79687 0.29517,6.49463 0.78935,12.1207 1.58594,17.58594 0.79659,5.46524 1.89615,10.7686 3.40039,16.61914 1.50424,5.85055 3.41389,12.2479 5.83203,19.89844 1.07948,3.41527 2.14738,6.52237 3.24805,9.36523 1.10067,2.84286 2.23508,5.42159 3.44922,7.78125 1.21413,2.35967 2.50786,4.49916 3.92773,6.46485 1.41987,1.96569 2.96571,3.75703 4.6836,5.41797 1.71788,1.66093 3.60667,3.19132 5.71484,4.63671 2.10817,1.44539 4.43466,2.80594 7.02539,4.125 2.59073,1.31907 5.44576,2.59695 8.61133,3.87891 3.16556,1.28196 6.64193,2.56828 10.47461,3.90234 2.78772,0.97035 6.22271,2.34452 9.51172,3.7754 3.289,1.43087 6.43203,2.91844 8.63476,4.11914 4.40547,2.4014 10.48477,5.34025 13.50977,6.53125 3.025,1.1911 8.875,3.86565 13,5.94335 2.15147,1.08366 5.51845,2.41752 9.35156,3.74415 3.83311,1.32662 8.13236,2.64601 12.14844,3.69726 7.7,2.0155 18.05,4.74706 23,6.06836 4.95,1.3214 16.41934,3.61792 25.48632,5.10352 9.06699,1.4857 18.24838,3.32338 20.4043,4.08398 1.71512,0.60515 6.23784,1.62053 12.25196,2.81836 6.01411,1.19783 13.52045,2.57862 21.20117,3.91211 7.68071,1.33349 15.53509,2.62068 22.25,3.63281 6.71491,1.01213 12.28954,1.74867 15.40625,1.98242 6.48869,0.4866 10.97379,0.936 15.28125,1.64844 4.30745,0.71244 8.43726,1.68792 14.21875,3.23047 2.0625,0.5503 5.17422,1.1756 8.52734,1.74023 3.35313,0.56464 6.94766,1.0686 9.97266,1.375 6.05,0.6127 15.5,1.83565 21,2.71875 7.9654,1.27905 16.25308,2.33326 24.5664,3.1504 8.31333,0.81713 16.65249,1.39765 24.72071,1.72851 8.06821,0.33086 15.86564,0.4122 23.0957,0.23242 7.23006,-0.17978 13.89254,-0.62116 19.69141,-1.33593 5.76362,-0.71046 10.54399,-1.48312 14.64843,-2.47852 2.05222,-0.4977 3.93501,-1.05054 5.6875,-1.67969 1.7525,-0.62915 3.37482,-1.33402 4.9043,-2.13476 1.52948,-0.80075 2.96643,-1.69846 4.34961,-2.71094 1.38318,-1.01249 2.7118,-2.13993 4.02539,-3.4043 1.31359,-1.26437 2.61288,-2.66431 3.93359,-4.2207 1.32072,-1.55639 2.66381,-3.26964 4.06836,-5.1582 2.43349,-3.27208 4.59091,-6.61684 6.51172,-10.14258 1.92081,-3.52574 3.60442,-7.23248 5.0918,-11.22461 1.48738,-3.99214 2.77893,-8.27015 3.91211,-12.94141 1.13318,-4.67125 2.10857,-9.73572 2.96679,-15.29883 0.5011,-3.24817 0.98207,-9.16077 1.41797,-16.89062 0.43591,-7.72985 0.82731,-17.2775 1.14649,-27.79102 0.31918,-10.51351 0.56586,-21.99457 0.7168,-33.59375 0.15093,-11.59917 0.20556,-23.3159 0.13671,-34.30273 -0.30253,-48.2815 -0.4666,-87.46536 -0.44726,-119.75195 0.0193,-32.2866 0.22299,-57.67551 0.65625,-78.36719 0.21663,-10.34584 0.49075,-19.51696 0.82812,-27.78906 0.33737,-8.27211 0.73742,-15.64616 1.20703,-22.39454 0.46962,-6.74837 1.00773,-12.87185 1.6211,-18.64648 0.61337,-5.77463 1.30168,-11.19989 2.07031,-16.55078 1.06656,-7.425 2.60803,-18.9 3.42578,-25.5 1.31992,-10.65282 2.21208,-17.61653 2.95508,-22.87305 0.743,-5.25652 1.33685,-8.80584 2.0625,-12.62695 0.78337,-4.125 1.44763,-9.46715 1.47656,-11.87305 0.0145,-1.20294 0.31365,-3.71375 0.78516,-6.78906 0.4715,-3.07531 1.11531,-6.71515 1.8164,-10.17773 2.7524,-13.59364 5.36396,-27.57114 7.28711,-38.75782 0.96158,-5.59334 1.7512,-10.48941 2.30079,-14.29101 0.54958,-3.80161 0.85823,-6.50807 0.85937,-7.72461 0.003,-2.81243 0.4745,-7.53743 1.05078,-10.5 0.57628,-2.96257 1.4695,-10.11172 1.98438,-15.88672 1.94705,-21.8389 3.29227,-36.47296 4.33398,-46.89258 1.04171,-10.41962 1.77991,-16.6248 2.51367,-21.60742 1.07184,-7.27827 1.88879,-12.92098 2.51172,-17.8125 0.62294,-4.89152 1.05246,-9.03169 1.34961,-13.3086 0.29716,-4.2769 0.46215,-8.69056 0.55664,-14.125 0.0945,-5.43443 0.11787,-11.88981 0.13281,-20.2539 0.0244,-13.65877 -0.0372,-22.40202 -0.27148,-28.54688 -0.11716,-3.07243 -0.27733,-5.49635 -0.49219,-7.55859 -0.21486,-2.06224 -0.48378,-3.76363 -0.81836,-5.39453 -0.90219,-4.39781 -1.91458,-8.27034 -3.17383,-11.84766 -0.62962,-1.78866 -1.32198,-3.50342 -2.09179,-5.17383 -0.76982,-1.6704 -1.61659,-3.29619 -2.56055,-4.90625 -0.94396,-1.61005 -1.98466,-3.202921 -3.13672,-4.810542 -1.15206,-1.607622 -2.41643,-3.229482 -3.81054,-4.892579 -2.78824,-3.326193 -6.09452,-6.821239 -10.05469,-10.716797 -2.97824,-2.929649 -5.37457,-5.242106 -7.45703,-7.130859 -2.08246,-1.888752 -3.85053,-3.352948 -5.57618,-4.585937 -1.72564,-1.23299 -3.4086,-2.234905 -5.3164,-3.197266 -1.90781,-0.962361 -4.04099,-1.886023 -6.66992,-2.962891 -3.26363,-1.336847 -6.04643,-2.387656 -9.2461,-3.277343 -3.19966,-0.889688 -6.81681,-1.61879 -11.74609,-2.314454 -4.92928,-0.695663 -11.17057,-1.356553 -19.62305,-2.111328 -8.45247,-0.754775 -19.11551,-1.602899 -32.88476,-2.669922 -4.82452,-0.373867 -16.82586,-0.596957 -32.31836,-0.695312 z"
       style="color:#000000;clip-rule:nonzero;display:inline;overflow:visible;visibility:visible;opacity:1;isolation:auto;mix-blend-mode:normal;color-interpolation:sRGB;color-interpolation-filters:linearRGB;solid-color:#000000;solid-opacity:1;fill:url(#linearGradient4756);fill-opacity:1;fill-rule:nonzero;stroke:none;stroke-width:1;stroke-linecap:butt;stroke-linejoin:miter;stroke-miterlimit:4;stroke-dasharray:none;stroke-dashoffset:0;stroke-opacity:1;color-rendering:auto;image-rendering:auto;shape-rendering:auto;text-rendering:auto;enable-background:accumulate" />
    <path
       id="path4925"
       d="m 569.7168,34.845703 c -21.15394,0.0037 -39.77129,0.119842 -54.5625,0.332031 -14.79122,0.21219 -25.75631,0.520377 -31.60742,0.904297 -4.83537,0.31727 -10.28463,0.833089 -15.91602,1.480469 -5.63139,0.64738 -11.44534,1.425508 -17.00781,2.271484 -5.56247,0.845977 -10.87335,1.758816 -15.50196,2.671875 -4.6286,0.91306 -8.5745,1.827154 -11.40429,2.675782 -7.42667,2.22718 -42.9823,11.730102 -47.5,12.695312 -1.65,0.35252 -6.6,1.708842 -11,3.013672 -4.4,1.30482 -13.625,4.042081 -20.5,6.082031 -3.29084,0.976463 -6.21706,1.90052 -9.03711,2.878906 -2.82006,0.978387 -5.53373,2.011587 -8.39844,3.207032 -5.72942,2.390889 -12.06381,5.430543 -21.06445,9.980468 -6.8224,3.448796 -11.70159,6.109994 -15.72071,8.671876 -2.00955,1.28094 -3.80529,2.535794 -5.51953,3.853515 -1.71423,1.317721 -3.34786,2.69777 -5.03711,4.224609 -2.35245,2.126288 -4.63638,4.675628 -6.77734,7.509768 -2.14096,2.83414 -4.13925,5.95352 -5.91797,9.21875 -1.77872,3.26523 -3.33778,6.67613 -4.60352,10.0957 -1.26573,3.41957 -2.23783,6.84738 -2.83984,10.14453 -0.32509,1.78051 -0.59543,6.92682 -0.78516,14.37696 -0.18972,7.45013 -0.29882,17.20409 -0.29882,28.19921 l 0,36.64258 2.34375,2.20117 c 0.64468,0.60565 1.59492,1.18132 2.60742,1.6211 1.0125,0.43977 2.08725,0.74365 2.97851,0.80469 0.79468,0.0544 1.39365,0.0999 1.83594,0.19726 0.4423,0.0974 0.72742,0.24652 0.89453,0.50781 0.16712,0.2613 0.21641,0.63542 0.18555,1.18164 -0.0309,0.54623 -0.14135,1.26465 -0.29297,2.2168 -0.3401,2.13575 -1.04426,9.33575 -1.56445,16 -0.52019,6.66424 -2.34548,23.81719 -4.05664,38.11719 -1.29504,10.82258 -2.10784,18.77078 -2.6836,27.61133 -0.57575,8.84054 -0.91446,18.57344 -1.26172,32.96679 -0.26975,11.1812 -0.6139,20.65851 -1.01367,28.10157 -0.39976,7.44305 -0.85514,12.85186 -1.34961,15.89843 -0.60224,3.71061 -1.06361,6.64481 -1.43164,9.57813 -0.36802,2.93332 -0.64296,5.86571 -0.87304,9.57422 -0.46017,7.41701 -0.74047,17.93691 -1.22657,37.76953 -0.42755,17.44426 -0.71218,27.14143 -1.25,34.6289 -0.2689,3.74374 -0.60141,6.9345 -1.04687,10.26563 -0.44546,3.33113 -1.00327,6.80255 -1.72461,11.10547 -1.70573,10.175 -3.76918,20.49374 -4.58594,22.92969 -0.81676,2.43596 -2.16321,8.33733 -2.99219,13.11523 -0.82898,4.77789 -2.17338,10.88612 -2.98828,13.57227 -0.40745,1.34308 -0.77998,3.07092 -1.05078,4.77148 -0.27079,1.70056 -0.43986,3.37383 -0.44336,4.61133 -0.007,2.475 -0.68626,8.325 -1.50976,13 -0.8235,4.675 -1.49896,10.975 -1.50196,14 -0.003,3.025 -0.67106,9.55 -1.48437,14.5 -0.8133,4.95 -1.48611,11.48551 -1.49609,14.52344 -0.005,1.51897 -0.28893,4.47148 -0.74415,8.00586 -0.45521,3.53437 -1.0815,7.65061 -1.76757,11.49414 -2.63492,14.76151 -5.73127,33.37867 -8.3125,49.68164 -2.58124,16.30296 -4.64736,30.29173 -5.22071,35.79492 -0.39013,3.74446 -0.64962,9.23557 -0.77343,16.23242 -0.12382,6.99685 -0.11195,15.49942 0.0391,25.26758 0.13605,8.80032 0.31489,15.95139 0.63281,22.15039 0.31792,6.199 0.77558,11.44648 1.46875,16.43555 0.69318,4.98907 1.62099,9.72008 2.88281,14.89062 1.26183,5.17054 2.857,10.78004 4.88086,17.52344 1.87201,6.23744 3.69818,11.70414 5.54688,16.5293 1.84869,4.82515 3.71994,9.00819 5.68359,12.67968 0.98182,1.83575 1.98695,3.5448 3.02344,5.14063 1.03649,1.59582 2.10446,3.07856 3.21289,4.46679 1.10843,1.38824 2.25741,2.68157 3.45508,3.89454 1.19766,1.21296 2.44386,2.34598 3.74804,3.41601 1.57563,1.29275 3.87612,2.81871 6.625,4.44141 2.74889,1.62269 5.94658,3.34287 9.31836,5.02148 3.37179,1.67862 6.917,3.31684 10.36133,4.77735 3.44434,1.4605 6.78738,2.74256 9.75391,3.71093 2.09178,0.6828 4.78464,1.738 7.4375,2.88672 2.65286,1.14873 5.26571,2.39097 7.19922,3.45117 3.86702,2.1205 9.95625,5.05975 13.53125,6.53125 3.575,1.4715 10.55,4.6618 15.5,7.0918 2.475,1.215 5.84922,2.61521 9.29297,3.89258 3.44375,1.27737 6.95703,2.4319 9.70703,3.1543 5.5,1.4447 14.95,3.93455 21,5.53515 6.05,1.6006 19.55,4.42795 30,6.28125 10.45,1.8534 21.51306,4.10546 24.58398,5.00586 2.37612,0.69665 6.98749,1.70783 12.76563,2.84766 5.77813,1.13983 12.72276,2.40859 19.76562,3.62304 7.04286,1.21446 14.18322,2.37441 20.35352,3.29493 6.1703,0.92052 11.3708,1.60135 14.53125,1.85937 6.82733,0.55735 12.32786,1.16532 16.93359,1.89063 4.60573,0.7253 8.31666,1.56795 11.56641,2.59765 3.18217,1.0083 8.51887,2.12854 13.79882,2.9961 5.27996,0.86755 10.50318,1.48242 13.45704,1.48242 1.37353,0 4.26824,0.27567 7.82422,0.7207 3.55597,0.44503 7.77322,1.05943 11.79492,1.73438 8.04339,1.3499 20.7,3.09646 28.125,3.88086 6.6823,0.7059 14.14172,1.15434 21.86328,1.36132 7.72156,0.20699 15.70592,0.17176 23.43945,-0.0859 7.73353,-0.25769 15.21539,-0.73766 21.93359,-1.42578 3.35911,-0.34407 6.52681,-0.7403 9.43946,-1.18555 2.91265,-0.44525 5.57041,-0.94026 7.9082,-1.48242 3.52272,-0.817 6.80701,-1.85694 9.9082,-3.1543 3.1012,-1.29736 6.01934,-2.852 8.80664,-4.70117 2.78731,-1.84917 5.44437,-3.9924 8.0254,-6.46485 2.58102,-2.47244 5.08598,-5.27423 7.56836,-8.4414 1.9442,-2.48055 3.61815,-4.70951 5.10156,-6.82227 1.48341,-2.11275 2.77533,-4.10855 3.95703,-6.125 1.1817,-2.01644 2.25389,-4.05253 3.29297,-6.24414 1.03908,-2.1916 2.04601,-4.53948 3.10156,-7.17773 1.15723,-2.89243 2.17815,-5.7162 3.10156,-8.63477 0.92342,-2.91857 1.74936,-5.93286 2.51563,-9.20508 0.76627,-3.27222 1.47241,-6.80247 2.1582,-10.75586 0.68579,-3.95338 1.35122,-8.32896 2.0332,-13.29101 0.54623,-3.97431 0.95742,-7.01855 1.26368,-11.52149 0.30625,-4.50293 0.50737,-10.46471 0.63671,-20.27734 0.25869,-19.62525 0.22681,-54.65079 0.15625,-124.20117 -0.039,-38.5 0.0282,-75.75 0.16797,-104.75 0.13981,-29 0.35221,-49.75 0.60352,-55.25 0.93564,-20.47735 1.69544,-34.58403 2.52344,-45.58008 0.41399,-5.49802 0.84507,-10.21746 1.32422,-14.56836 0.47914,-4.35089 1.00564,-8.33233 1.61132,-12.35156 2.45072,-16.26265 3.84467,-25.65356 4.62891,-31.5332 0.78424,-5.87964 0.95876,-8.24801 0.97266,-10.4668 0.0155,-2.475 0.68243,-7.425 1.48242,-11 0.79999,-3.575 1.92048,-11.13628 2.49023,-16.80469 0.56976,-5.6684 1.72388,-13.5434 2.56641,-17.5 1.88097,-8.83328 4.50635,-22.78893 6.7207,-35.33203 2.21435,-12.5431 4.01767,-23.67365 4.25781,-26.85742 0.29059,-3.85244 1.17872,-11.95586 1.97461,-18.00586 0.79589,-6.05 1.90731,-16.85 2.46875,-24 0.82237,-10.47296 1.80449,-21.6749 2.65625,-30.57813 0.85176,-8.90322 1.57316,-15.50772 1.875,-16.7832 0.47609,-2.01179 1.33986,-8.25071 2.24414,-15.82227 0.90429,-7.57155 1.8491,-16.47574 2.49024,-23.8164 0.41244,-4.72219 0.71611,-11.03634 0.91211,-18.05078 0.19599,-7.01444 0.28416,-14.72928 0.26758,-22.25196 -0.0166,-7.52267 -0.138,-14.85271 -0.36329,-21.0996 -0.22528,-6.2469 -0.55426,-11.41055 -0.98437,-14.59766 -0.44101,-3.26794 -0.96742,-6.37465 -1.59766,-9.35156 -0.63024,-2.97692 -1.36459,-5.82349 -2.21875,-8.57032 -0.85415,-2.74682 -1.82865,-5.39499 -2.9414,-7.97265 -1.11275,-2.577665 -2.3635,-5.085256 -3.76953,-7.55469 -1.40604,-2.469434 -2.96717,-4.900129 -4.70118,-7.322266 -1.73401,-2.422136 -3.64161,-4.835714 -5.73828,-7.271484 -2.09667,-2.43577 -4.38294,-4.893962 -6.87695,-7.404297 -2.49402,-2.510335 -5.19505,-5.072919 -8.12109,-7.71875 -2.08259,-1.883141 -4.16648,-3.638377 -6.26758,-5.273437 -2.1011,-1.635061 -4.21992,-3.149148 -6.375,-4.550782 -2.15508,-1.401633 -4.34531,-2.690185 -6.58985,-3.873046 -2.24453,-1.182862 -4.54265,-2.261491 -6.91211,-3.240235 -2.36945,-0.978744 -4.81,-1.859157 -7.33984,-2.648437 -2.52984,-0.789281 -5.14931,-1.487091 -7.875,-2.101563 -2.72569,-0.614472 -5.55862,-1.145292 -8.51562,-1.599609 -2.95701,-0.454318 -6.03793,-0.831808 -9.26172,-1.140625 -10.68436,-1.023493 -19.21217,-1.810172 -27.05664,-2.414063 -7.84448,-0.60389 -15.0052,-1.025405 -22.95704,-1.318359 -7.95183,-0.292954 -16.69472,-0.458146 -27.70117,-0.548828 -11.00644,-0.09068 -24.27686,-0.106441 -41.28515,-0.103516 z m 39.18164,18.685547 c 15.4925,0.09835 27.49384,0.321445 32.31836,0.695312 13.76925,1.067023 24.43229,1.915147 32.88476,2.669922 8.45248,0.754775 14.69377,1.415665 19.62305,2.111328 4.92928,0.695664 8.54643,1.424766 11.74609,2.314454 3.19967,0.889687 5.98247,1.940496 9.2461,3.277343 2.62893,1.076868 4.76211,2.00053 6.66992,2.962891 1.9078,0.962361 3.59076,1.964276 5.3164,3.197266 1.72565,1.232989 3.49372,2.697185 5.57618,4.585937 2.08246,1.888753 4.47879,4.20121 7.45703,7.130859 3.96017,3.895558 7.26645,7.390604 10.05469,10.716797 1.39411,1.663097 2.65848,3.284957 3.81054,4.892579 1.15206,1.607621 2.19276,3.200492 3.13672,4.810542 0.94396,1.61006 1.79073,3.23585 2.56055,4.90625 0.76981,1.67041 1.46217,3.38517 2.09179,5.17383 1.25925,3.57732 2.27164,7.44985 3.17383,11.84766 0.33458,1.6309 0.6035,3.33229 0.81836,5.39453 0.21486,2.06224 0.37503,4.48616 0.49219,7.55859 0.23432,6.14486 0.29588,14.88811 0.27148,28.54688 -0.0149,8.36409 -0.0383,14.81947 -0.13281,20.2539 -0.0945,5.43444 -0.25948,9.8481 -0.55664,14.125 -0.29715,4.27691 -0.72667,8.41708 -1.34961,13.3086 -0.62293,4.89152 -1.43988,10.53423 -2.51172,17.8125 -0.73376,4.98262 -1.47196,11.1878 -2.51367,21.60742 -1.04171,10.41962 -2.38693,25.05368 -4.33398,46.89258 -0.51488,5.775 -1.4081,12.92415 -1.98438,15.88672 -0.57628,2.96257 -1.04778,7.68757 -1.05078,10.5 -10e-4,1.21654 -0.30979,3.923 -0.85937,7.72461 -0.54959,3.8016 -1.33921,8.69767 -2.30079,14.29101 -1.92315,11.18668 -4.53471,25.16418 -7.28711,38.75782 -0.70109,3.46258 -1.3449,7.10242 -1.8164,10.17773 -0.47151,3.07531 -0.77071,5.58612 -0.78516,6.78906 -0.0289,2.4059 -0.69319,7.74805 -1.47656,11.87305 -0.72565,3.82111 -1.3195,7.37043 -2.0625,12.62695 -0.743,5.25652 -1.63516,12.22023 -2.95508,22.87305 -0.81775,6.6 -2.35922,18.075 -3.42578,25.5 -0.76863,5.35089 -1.45694,10.77615 -2.07031,16.55078 -0.61337,5.77463 -1.15148,11.89811 -1.6211,18.64648 -0.46961,6.74838 -0.86966,14.12243 -1.20703,22.39454 -0.33737,8.2721 -0.61149,17.44322 -0.82812,27.78906 -0.43326,20.69168 -0.63691,46.08059 -0.65625,78.36719 -0.0193,32.28659 0.14473,71.47045 0.44726,119.75195 0.0688,10.98683 0.0142,22.70356 -0.13671,34.30273 -0.15094,11.59918 -0.39762,23.08024 -0.7168,33.59375 -0.31918,10.51352 -0.71058,20.06117 -1.14649,27.79102 -0.4359,7.72985 -0.91687,13.64245 -1.41797,16.89062 -0.85822,5.56311 -1.83361,10.62758 -2.96679,15.29883 -1.13318,4.67126 -2.42473,8.94927 -3.91211,12.94141 -1.48738,3.99213 -3.17099,7.69887 -5.0918,11.22461 -1.92081,3.52574 -4.07823,6.8705 -6.51172,10.14258 -1.40455,1.88856 -2.74764,3.60181 -4.06836,5.1582 -1.32071,1.55639 -2.62,2.95633 -3.93359,4.2207 -1.31359,1.26437 -2.64221,2.39181 -4.02539,3.4043 -1.38318,1.01248 -2.82013,1.91019 -4.34961,2.71094 -1.52948,0.80074 -3.1518,1.50561 -4.9043,2.13476 -1.75249,0.62915 -3.63528,1.18199 -5.6875,1.67969 -4.10444,0.9954 -8.88481,1.76806 -14.64843,2.47852 -5.79887,0.71477 -12.46135,1.15615 -19.69141,1.33593 -7.23006,0.17978 -15.02749,0.0984 -23.0957,-0.23242 -8.06822,-0.33086 -16.40738,-0.91138 -24.72071,-1.72851 -8.31332,-0.81714 -16.601,-1.87135 -24.5664,-3.1504 -5.5,-0.8831 -14.95,-2.10605 -21,-2.71875 -3.025,-0.3064 -6.61953,-0.81036 -9.97266,-1.375 -3.35312,-0.56463 -6.46484,-1.18993 -8.52734,-1.74023 -5.78149,-1.54255 -9.9113,-2.51803 -14.21875,-3.23047 -4.30746,-0.71244 -8.79256,-1.16184 -15.28125,-1.64844 -3.11671,-0.23375 -8.69134,-0.97029 -15.40625,-1.98242 -6.71491,-1.01213 -14.56929,-2.29932 -22.25,-3.63281 -7.68072,-1.33349 -15.18706,-2.71428 -21.20117,-3.91211 -6.01412,-1.19783 -10.53684,-2.21321 -12.25196,-2.81836 -2.15592,-0.7606 -11.33731,-2.59828 -20.4043,-4.08398 -9.06698,-1.4856 -20.53632,-3.78212 -25.48632,-5.10352 -4.95,-1.3213 -15.3,-4.05286 -23,-6.06836 -4.01608,-1.05125 -8.31533,-2.37064 -12.14844,-3.69726 -3.83311,-1.32663 -7.20009,-2.66049 -9.35156,-3.74415 -4.125,-2.0777 -9.975,-4.75225 -13,-5.94335 -3.025,-1.191 -9.1043,-4.12985 -13.50977,-6.53125 -2.20273,-1.2007 -5.34576,-2.68827 -8.63476,-4.11914 -3.28901,-1.43088 -6.724,-2.80505 -9.51172,-3.7754 -3.83268,-1.33406 -7.30905,-2.62038 -10.47461,-3.90234 -3.16557,-1.28196 -6.0206,-2.55984 -8.61133,-3.87891 -2.59073,-1.31906 -4.91722,-2.67961 -7.02539,-4.125 -2.10817,-1.44539 -3.99696,-2.97578 -5.71484,-4.63671 -1.71789,-1.66094 -3.26373,-3.45228 -4.6836,-5.41797 -1.41987,-1.96569 -2.7136,-4.10518 -3.92773,-6.46485 -1.21414,-2.35966 -2.34855,-4.93839 -3.44922,-7.78125 -1.10067,-2.84286 -2.16857,-5.94996 -3.24805,-9.36523 -2.41814,-7.65054 -4.32779,-14.04789 -5.83203,-19.89844 -1.50424,-5.85054 -2.6038,-11.1539 -3.40039,-16.61914 -0.79659,-5.46524 -1.29077,-11.09131 -1.58594,-17.58594 -0.29517,-6.49462 -0.39062,-13.85817 -0.39062,-22.79687 0,-8.19457 0.0284,-14.6495 0.17578,-20.33789 0.14739,-5.68839 0.41363,-10.61042 0.88867,-15.73828 0.47504,-5.12787 1.15963,-10.46162 2.14258,-16.97461 0.98295,-6.513 2.26444,-14.20506 3.93555,-24.04883 4.25859,-25.08549 6.68937,-39.82024 8.32617,-51.72852 0.81839,-5.95413 1.4376,-11.20181 1.98828,-16.68359 0.55068,-5.48178 1.03276,-11.19718 1.57422,-18.08789 0.51861,-6.6 1.38742,-13.8 1.93164,-16 0.54421,-2.2 1.00057,-6.44564 1.01367,-9.43555 0.007,-1.49496 0.22909,-3.64844 0.58203,-5.91406 0.35294,-2.26563 0.8363,-4.6434 1.36523,-6.58594 1.0579,-3.88509 2.46784,-10.43958 3.13282,-14.56445 0.66498,-4.12486 1.82584,-9.24703 2.58008,-11.38477 0.8129,-2.304 2.35759,-9.94464 3.86132,-18.51562 1.50374,-8.57098 2.96651,-18.0723 3.61524,-24.09961 0.50318,-4.675 1.31607,-25.15 1.80664,-45.5 0.24702,-10.24718 0.59928,-20.11057 0.9707,-27.79297 0.37143,-7.6824 0.76202,-13.1838 1.08399,-14.70703 0.46011,-2.1768 0.88196,-4.96179 1.26953,-8.41992 0.38757,-3.45814 0.74059,-7.59015 1.06445,-12.46094 0.64772,-9.74158 1.17714,-22.43907 1.62305,-38.61914 0.30665,-11.12706 0.68182,-19.98291 1.22461,-28.00391 0.54278,-8.021 1.25319,-15.20715 2.22656,-22.99609 1.44338,-11.55 3.06137,-26.7118 3.59375,-33.69336 0.60422,-7.92376 1.16564,-13.53636 2.10937,-19.52539 0.94374,-5.98903 2.26981,-12.35448 4.40039,-21.78125 1.11526,-4.93445 2.03909,-9.33779 2.78907,-13.33984 0.74998,-4.00206 1.32522,-7.6029 1.74219,-10.92969 0.41696,-3.32679 0.67675,-6.38041 0.79296,-9.28907 0.11622,-2.90865 0.0898,-5.67226 -0.0625,-8.41992 -0.15186,-2.7405 -0.40413,-5.1724 -0.76172,-7.3125 -0.35758,-2.1401 -0.82067,-3.98881 -1.39648,-5.5625 -0.57581,-1.57369 -1.26377,-2.87278 -2.07031,-3.91406 -0.80654,-1.04128 -1.73147,-1.82433 -2.78125,-2.36719 -0.64539,-0.33374 -1.32804,-0.58031 -2.0293,-0.74609 -0.70126,-0.16579 -1.42055,-0.25067 -2.13867,-0.26367 -1.43624,-0.026 -2.86713,0.23838 -4.13672,0.73242 -1.26959,0.49404 -2.37908,1.21672 -3.16992,2.10937 -0.39542,0.44633 -0.71052,0.93577 -0.92774,1.45899 -0.21721,0.52321 -0.33593,1.08109 -0.33593,1.66601 0,0.55322 -0.0691,0.9862 -0.18164,1.23829 -0.11254,0.25209 -0.26851,0.32328 -0.43946,0.15234 -0.24004,-0.24005 -0.26095,-1.39729 -0.12695,-3.07813 0.134,-1.68083 0.42266,-3.88543 0.80273,-6.2207 0.38008,-2.33527 0.85144,-4.80055 1.34961,-7.0039 0.49818,-2.20336 1.02343,-4.14462 1.51172,-5.42969 0.70472,-1.85467 1.65888,-3.81333 2.79492,-5.78711 1.13605,-1.97378 2.45313,-3.96343 3.88477,-5.875 1.43164,-1.91158 2.97882,-3.74603 4.57031,-5.41406 1.59149,-1.66804 3.22815,-3.16893 4.84375,-4.41211 1.79039,-1.37768 4.66874,-3.20017 8.16992,-5.22657 3.50119,-2.02639 7.62615,-4.25729 11.9043,-6.453121 4.27815,-2.195829 8.71074,-4.356215 12.83203,-6.242188 4.12129,-1.885972 7.93034,-3.496922 10.96094,-4.59375 4.86122,-1.75936 9.9344,-3.395719 17.58398,-5.585937 7.64959,-2.190219 17.87558,-4.934298 33.03907,-8.908203 11.55,-3.02691 25.725,-6.860985 31.5,-8.521485 5.33576,-1.534205 14.02982,-3.452517 23.54297,-5.269531 9.51314,-1.817014 19.84535,-3.532729 28.45703,-4.662109 2.45152,-0.321505 9.15827,-0.614969 18.5664,-0.869141 9.40814,-0.254172 21.51846,-0.468917 34.77344,-0.634766 26.50996,-0.331697 57.60304,-0.465892 80.8418,-0.318359 z m -331.61719,106.9043 c 0.1892,0.0399 0.48622,1.49569 0.95703,3.875 0.52274,2.64234 0.78395,4.72733 0.7832,7.17187 -7.4e-4,2.44455 -0.26345,5.24865 -0.78906,9.32813 l -1.29101,10.01367 0.008,-16.5 c 0.004,-10.0878 0.0167,-13.95518 0.33203,-13.88867 z"
       style="color:#000000;clip-rule:nonzero;display:inline;overflow:visible;visibility:visible;opacity:1;isolation:auto;mix-blend-mode:normal;color-interpolation:sRGB;color-interpolation-filters:linearRGB;solid-color:#000000;solid-opacity:1;fill:url(#linearGradient4750);fill-opacity:1;fill-rule:nonzero;stroke:none;stroke-width:1;stroke-linecap:butt;stroke-linejoin:miter;stroke-miterlimit:4;stroke-dasharray:none;stroke-dashoffset:0;stroke-opacity:1;color-rendering:auto;image-rendering:auto;shape-rendering:auto;text-rendering:auto;enable-background:accumulate" />
    <path
       id="path4919"
       d="m 509.36523,185.41211 c -6.46385,0.56514 -12.73871,4.35027 -16.03711,11.11133 -2.22996,4.571 -2.73021,7.43525 -3.62695,20.80078 -0.57198,8.525 -1.28513,18.711 -1.58594,22.63476 l -0.54687,7.13477 -3.92578,0.62695 c -2.15887,0.34522 -9.6631,1.07927 -16.67578,1.63086 -7.01267,0.55158 -15,1.43731 -17.75,1.96875 -4.32262,0.83534 -13.50388,1.96742 -37.5,4.62305 -3.025,0.33478 -10.16417,0.5744 -15.86524,0.5332 -12.3331,-0.0891 -16.58399,1.54896 -20.88281,8.04492 -2.26305,3.41969 -2.75195,5.26412 -2.75195,10.39454 0,5.3225 0.44283,6.86588 3.01758,10.52929 1.89854,2.70131 5.04977,5.36034 8.5,7.17383 5.34169,2.80767 5.75286,2.86669 15.98242,2.23438 14.64507,-0.90524 45.92093,-4.29234 55.5,-6.00977 4.4,-0.78887 12.3875,-1.73193 17.75,-2.0957 7.9081,-0.53644 9.74909,-0.40328 9.74609,0.70703 -0.009,2.98696 -3.16353,20.59693 -5.41016,30.20312 -1.30781,5.59199 -2.68705,12.64102 -3.0664,15.66602 -0.37935,3.025 -1.79355,9.1 -3.14258,13.5 -1.99143,6.4952 -6.34839,32.74946 -6.37109,38.39062 -0.005,1.15357 -2.43273,1.27532 -14.25586,0.71485 -21.01882,-0.99638 -47.2613,-4.82201 -56.01953,-8.16602 -7.08785,-2.70623 -17.12312,-1.29045 -20.60352,2.90625 -0.75485,0.91019 -2.4595,1.6543 -3.78906,1.6543 -4.08321,0 -10.19421,3.82761 -13.08594,8.19531 -2.67671,4.04291 -2.76987,4.65793 -3.41211,22.73047 -0.36305,10.21622 -0.69975,30.72422 -0.74805,45.57422 -0.10941,33.6453 -2.29955,71.04683 -6.17773,105.5 -1.64061,14.575 -3.66879,33.025 -4.50781,41 -0.83902,7.975 -3.06943,26.65 -4.95508,41.5 -1.88566,14.85 -4.07789,32.4 -4.87305,39 -1.51189,12.54912 -5.09625,53.38673 -6.07422,69.20703 -0.313,5.06325 -1.27746,10.90018 -2.14258,12.9707 -1.01826,2.43705 -1.41887,5.60364 -1.13867,8.98243 1.63065,19.66353 27.49548,23.87951 36.28516,5.91406 3.20794,-6.55679 4.15444,-12.54741 5.45703,-34.54883 0.53646,-9.06117 1.20318,-17.61117 1.48242,-19 0.27924,-1.38884 0.98846,-9.27539 1.57617,-17.52539 0.58771,-8.25 1.92406,-20.85 2.96875,-28 2.55025,-17.4544 5.3632,-40.37475 9.02344,-73.5 1.67127,-15.125 3.91547,-34.925 4.98633,-44 3.13111,-26.53465 4.06024,-43.66502 5.03906,-93 1.03341,-52.08673 1.38865,-57.31428 3.84961,-56.5332 5.07661,1.61125 25.3221,4.81309 36.10938,5.71093 6.875,0.57221 34.325,1.37294 61,1.78125 44.07745,0.67469 49.36627,0.93636 58,2.85938 5.225,1.16379 10.55413,2.13014 11.84375,2.14844 5.43059,0.0769 34.79456,9.6186 40.16406,13.05078 8.0575,5.15033 14.28983,18.11336 16.04492,33.375 1.41441,12.29912 1.13084,36.9583 -0.56445,49.03515 -0.83193,5.9265 -2.65655,20.51709 -4.05469,32.42383 -10.92197,93.01325 -11.22717,96.98733 -12.24414,159.85352 -0.43571,26.93422 -1.08026,43.58807 -1.71289,44.2207 -0.68638,0.68638 -4.46828,0.40373 -11.68555,-0.87305 -13.59304,-2.4047 -22.86114,-7.09526 -35.44922,-17.94336 -9.97784,-8.59866 -14.24947,-10.60416 -20.97851,-9.8457 -12.44174,1.40236 -19.6652,14.44714 -14.77149,26.67773 2.95649,7.38899 23.9051,23.93197 39.93555,31.53907 7.59622,3.60472 19.40502,6.70105 30.75977,8.06445 3.18339,0.38224 8.35839,1.54011 11.5,2.57227 7.82415,2.57061 18.05414,2.14925 24.52929,-1.00977 8.61593,-4.20344 10.7001,-9.7793 14.06446,-37.60742 1.12305,-9.2892 1.70498,-25.84507 2.03711,-58 0.32192,-31.16602 0.92705,-48.84277 1.96875,-57.5 0.82725,-6.875 2.21995,-19.25 3.09375,-27.5 2.01175,-18.99416 6.89476,-60.27788 10.07226,-85.14649 2.68436,-21.00905 3.11308,-38.87219 1.42774,-59.62695 -1.35419,-16.67669 -3.75482,-25.49007 -10.56641,-38.80664 -11.84106,-23.14912 -23.21528,-30.51674 -64.41406,-41.72852 -4.125,-1.12256 -9.975,-2.34494 -13,-2.71679 -3.025,-0.37185 -9.775,-1.58301 -15,-2.68945 -6.89091,-1.45921 -14.92416,-2.15223 -29.25,-2.5254 -13.658,-0.35578 -19.74065,-0.86055 -19.71875,-1.63671 0.12639,-4.47341 3.24212,-21.29272 4.93164,-26.62305 1.13315,-3.575 2.94192,-11.9 4.01953,-18.5 1.0776,-6.6 2.61292,-14.25 3.41211,-17 1.48078,-5.09531 3.53959,-17.0414 5.64258,-32.75391 0.6445,-4.81541 1.57081,-9.00322 2.05859,-9.30469 0.48778,-0.30146 6.40203,-0.98023 13.14453,-1.50976 6.74251,-0.52954 15.63477,-1.59901 19.75977,-2.375 4.125,-0.77599 15.35025,-1.69811 24.94531,-2.05078 18.25645,-0.67102 22.28965,-1.54067 26.91992,-5.80274 3.37182,-3.10369 5.13477,-7.80902 5.13477,-13.70312 0,-6.35678 -1.84614,-10.85209 -5.83789,-14.21094 -5.10879,-4.29878 -9.27983,-5.15491 -21.10157,-4.33789 -5.8085,0.40144 -15.06536,0.86115 -20.57031,1.02344 -5.50494,0.16229 -13.60494,0.98669 -18,1.83203 -4.39505,0.84535 -10.91523,1.7718 -14.49023,2.05664 l -6.5,0.51758 0.2832,-9.68946 c 0.15604,-5.32942 0.80334,-12.6164 1.4375,-16.1914 2.05277,-11.57217 1.64961,-18.09094 -1.4043,-22.70313 -4.05127,-6.11847 -10.70411,-8.77412 -17.16797,-8.20898 z m -49.65234,274.85547 c -6.05153,0.005 -12.10444,2.75592 -15.74414,8.25 -2.50087,3.77502 -2.78192,5.13891 -3.08984,14.99023 -0.41151,13.16564 1.19241,23.58578 4.3457,28.23242 l 2.32812,3.43165 -3.66796,-0.5293 c -2.01751,-0.29123 -6.81797,-1.18093 -10.66797,-1.97656 -20.00581,-4.13434 -24.21875,-4.11773 -30.6211,0.11914 -10.47741,6.93363 -10.53789,24.12958 -0.10937,30.99218 6.6878,4.40097 43.55135,10.54688 63.25781,10.54688 8.8783,0 10.10909,0.20344 9.58008,1.58203 -0.33385,0.86998 -0.60742,3.34498 -0.60742,5.5 l 0,3.91797 -26.93555,0 c -16.5995,0 -28.0151,0.40896 -29.75,1.06445 -6.77608,2.56018 -11.31445,9.5539 -11.31445,17.43555 0,7.88165 4.53837,14.87732 11.31445,17.4375 1.71569,0.64823 12.59542,1.0625 27.85742,1.0625 22.69514,0 24.98453,0.15366 24.41992,1.625 -0.91964,2.39654 -5.75135,67.44532 -6.31445,85.01172 -0.39483,12.31698 -0.17021,16.21948 1.20703,20.95703 3.25458,11.19536 8.50638,18.89598 14.51563,21.28515 l 0,0.002 c 1.375,0.54668 4.65108,1.02174 7.28125,1.05664 14.57853,0.19324 22.72742,-13.26765 16.80078,-27.75195 -3.07534,-7.5159 -3.19347,-9.3635 -1.64453,-25.42774 0.80914,-8.39166 1.96273,-23.13281 2.56445,-32.75781 1.21683,-19.46412 2.82285,-37.31928 3.66406,-40.75 0.30344,-1.2375 1.06353,-2.24619 1.69141,-2.24219 5.50535,0.0318 36.65369,4.47836 42.20703,6.02539 3.88508,1.08229 9.06008,1.95741 11.5,1.94531 16.59155,-0.0821 24.79813,-18.95268 13.72656,-31.5625 -2.3248,-2.6478 -4.82494,-3.97119 -11.14453,-5.89648 -10.40338,-3.16944 -15.07056,-4.03278 -32.1875,-5.95703 -23.10326,-2.59721 -21.45898,-2.07688 -21.45898,-6.80469 l 0,-4.06445 12.75,0.66797 c 7.0125,0.36731 18.15,1.55237 24.75,2.63476 20.49768,3.36161 26.70228,2.66754 32.68554,-3.65625 5.19577,-5.49149 6.37886,-14.35194 2.8418,-21.28515 -4.08783,-8.01281 -7.69575,-9.49581 -31.39062,-12.89844 l -18.49805,-2.65625 9.40625,-4.95117 c 14.28732,-7.52034 27.41,-17.32347 30.16601,-22.53516 6.09937,-11.53409 -1.00241,-26.03616 -13.57617,-27.72266 -6.55677,-0.87945 -10.47741,0.45098 -18.6875,6.3418 -4.28208,3.07243 -12.77268,8.30308 -18.86718,11.62305 -6.0945,3.31998 -12.37289,7.20843 -13.95313,8.64062 -7.04664,6.38646 -7.68416,19.02646 -1.31055,25.99024 l 2.1836,2.38476 -6.5,-0.63086 c -3.575,-0.34684 -11.74974,-0.92384 -18.16602,-1.2832 l -11.66601,-0.6543 2.66601,-4.02539 c 2.98078,-4.5023 3.04195,-5.6488 1.50195,-27.78125 -0.78323,-11.25643 -1.16828,-13.04469 -3.60742,-16.73047 -3.63184,-5.4881 -9.68089,-8.22763 -15.73242,-8.22265 z"
       style="fill:#000000" />
  </g>
</svg>
