<?xml version="1.0" encoding="UTF-8" standalone="no"?>
<svg
   xmlns:osb="http://www.openswatchbook.org/uri/2009/osb"
   xmlns:dc="http://purl.org/dc/elements/1.1/"
   xmlns:cc="http://creativecommons.org/ns#"
   xmlns:rdf="http://www.w3.org/1999/02/22-rdf-syntax-ns#"
   xmlns:svg="http://www.w3.org/2000/svg"
   xmlns="http://www.w3.org/2000/svg"
   xmlns:xlink="http://www.w3.org/1999/xlink"
   version="1.1"
   id="svg2985"
   height="900.7934"
   width="541.1322">
  <defs
     id="defs5498">
    <linearGradient
       osb:paint="solid"
       id="linearGradient4756">
      <stop
         id="stop4758"
         offset="0"
         style="stop-color:#ffffff;stop-opacity:1;" />
    </linearGradient>
    <linearGradient
       osb:paint="solid"
       id="linearGradient4750">
      <stop
         id="stop4752"
         offset="0"
         style="stop-color:#000000;stop-opacity:1;" />
    </linearGradient>
    <linearGradient
       osb:paint="solid"
       id="linearGradient5694">
      <stop
         id="stop5696"
         offset="0"
         style="stop-color:#002b11;stop-opacity:1;" />
    </linearGradient>
    <linearGradient
       osb:paint="solid"
       id="linearGradient4712">
      <stop
         id="stop4714"
         offset="0"
         style="stop-color:#162d50;stop-opacity:1;" />
    </linearGradient>
    <linearGradient
       osb:paint="solid"
       id="linearGradient4706">
      <stop
         id="stop4708"
         offset="0"
         style="stop-color:#d40000;stop-opacity:1;" />
    </linearGradient>
    <linearGradient
       gradientUnits="userSpaceOnUse"
       y2="508.69208"
       x2="761.44257"
       y1="508.69208"
       x1="262.13925"
       id="linearGradient4716"
       xlink:href="#linearGradient4712" />
    <linearGradient
       gradientUnits="userSpaceOnUse"
       y2="500.0004"
       x2="771.30902"
       y1="500.0004"
       x1="228.69211"
       id="linearGradient4754"
       xlink:href="#linearGradient4750" />
    <linearGradient
       gradientUnits="userSpaceOnUse"
       y2="500.10483"
       x2="752.40271"
       y1="500.10483"
       x1="248.61133"
       id="linearGradient4760"
       xlink:href="#linearGradient4756" />
    <linearGradient
       y2="508.69208"
       x2="761.44257"
       y1="508.69208"
       x1="262.13925"
       gradientUnits="userSpaceOnUse"
       id="linearGradient501"
       xlink:href="#linearGradient4712" />
    <linearGradient
       y2="508.69208"
       x2="761.44257"
       y1="508.69208"
       x1="262.13925"
       gradientUnits="userSpaceOnUse"
       id="linearGradient503"
       xlink:href="#linearGradient4712" />
    <linearGradient
       y2="508.69208"
       x2="761.44257"
       y1="508.69208"
       x1="262.13925"
       gradientUnits="userSpaceOnUse"
       id="linearGradient505"
       xlink:href="#linearGradient4712" />
  </defs>
  <metadata
     id="metadata5594">
    <rdf:RDF>
      <cc:Work
         rdf:about="">
        <dc:format>image/svg+xml</dc:format>
        <dc:type
           rdf:resource="http://purl.org/dc/dcmitype/StillImage" />
        <dc:title />
      </cc:Work>
    </rdf:RDF>
  </metadata>
  <g
     transform="translate(-229.43351,-49.60351)"
     style="display:inline"
     id="layer22">
    <path
       id="path4946"
       d="m 524.82812,68.572266 c -6.98931,-0.0017 -14.21082,0.08245 -20.58398,0.251953 -6.37316,0.169501 -11.89796,0.424322 -15.49219,0.765625 -6.07534,0.57691 -17.11992,1.92617 -24.54492,3 -10.37245,1.500105 -17.51185,2.487477 -23.55078,3.222656 -6.03893,0.735179 -10.97737,1.218166 -16.94922,1.707031 -9.47372,0.775533 -17.784,1.530554 -25.52734,2.351563 -7.74334,0.821009 -14.92001,1.707409 -22.12696,2.746094 -7.20694,1.038684 -14.44407,2.229645 -22.30859,3.658203 -7.86452,1.428557 -16.35618,3.095307 -26.07226,5.085937 -7.8366,1.605558 -14.3606,3.074906 -19.91211,4.546875 -5.55152,1.471969 -10.12986,2.946484 -14.07422,4.562497 -1.97219,0.80801 -3.78687,1.6508 -5.48438,2.54688 -1.69751,0.89607 -3.27758,1.84638 -4.78515,2.86523 -1.50758,1.01885 -2.94137,2.10688 -4.34375,3.28321 -1.40239,1.17632 -2.77432,2.44008 -4.15625,3.80859 -1.4601,1.44591 -2.69986,2.83367 -3.81446,4.36523 -1.1146,1.53157 -2.10496,3.20692 -3.0664,5.22852 -0.96145,2.0216 -1.89389,4.38869 -2.89454,7.30469 -1.00064,2.91599 -2.06858,6.38093 -3.30078,10.5957 -1.02357,3.50118 -1.79938,6.23706 -2.35546,8.54297 -0.55609,2.30591 -0.89328,4.18191 -1.03516,5.96289 -0.14188,1.78098 -0.0901,3.4662 0.1289,5.39258 0.21903,1.92637 0.60617,4.09384 1.13282,6.83593 0.82795,4.31088 2.44854,15.22529 3.60156,24.25586 0.49744,3.89605 0.8763,7.07202 1.15625,10.5879 0.27995,3.51587 0.46183,7.37072 0.56641,12.625 0.20914,10.50855 0.10881,26.61344 -0.13086,56.7871 -0.16682,21.0019 -0.38976,37.32255 -0.66407,48.80469 -0.2743,11.48214 -0.59994,18.12576 -0.97461,19.77735 -0.47911,2.11207 -0.91116,4.97521 -1.3125,8.88867 -0.40133,3.91345 -0.77155,8.87656 -1.1289,15.1875 -0.7147,12.62187 -1.37562,30.63547 -2.11719,56.42383 -0.39143,13.6125 -0.91515,28.06953 -1.44336,40.39453 -0.5282,12.325 -1.0609,22.51797 -1.4707,27.60547 -0.8196,10.175 -1.9795,27.725 -2.57813,39 -0.29931,5.6375 -0.69788,11.32539 -1.09765,15.94726 -0.39978,4.62188 -0.80077,8.17774 -1.10742,9.55274 -0.19367,0.86839 -0.36702,3.9717 -0.52344,9.47851 -0.15642,5.50682 -0.29667,13.41729 -0.41992,23.90039 -0.24651,20.9662 -0.43002,52.22265 -0.56836,95.1211 -0.17108,53.04953 -0.21528,84.50692 -0.0508,104.4746 0.0822,9.98385 0.21655,17.09536 0.41406,22.59766 0.19751,5.5023 0.45733,9.3947 0.79101,12.94141 0.42726,4.54122 0.8221,11.08711 1.11524,17.97461 0.29313,6.8875 0.48456,14.11661 0.50195,20.02539 0.0348,11.81755 0.4015,26.33182 0.81445,32.2539 0.1871,2.68319 0.32818,4.69904 0.49414,6.27344 0.16597,1.5744 0.35662,2.70731 0.64258,3.62695 0.28596,0.91965 0.66776,1.62484 1.21485,2.34375 0.54708,0.71892 1.25964,1.45162 2.20898,2.42383 0.86308,0.88388 1.58384,1.5782 2.30078,2.14453 0.71694,0.56634 1.4292,1.00449 2.2793,1.375 1.7002,0.74104 3.94686,1.21234 7.85547,1.90039 7.30316,1.28561 15.05489,2.43716 22.74609,3.39258 7.6912,0.95543 15.32188,1.71473 22.38086,2.21289 35.62581,2.51417 43.21111,3.10307 52.5,4.07813 5.60647,0.58851 13.61571,1.20705 24.03125,1.85742 10.41554,0.65037 23.23738,1.33257 38.46875,2.04492 11.54825,0.5401 22.08129,1.23015 31.02344,2.01953 8.94215,0.78938 16.29342,1.67808 21.47656,2.61524 2.15028,0.38878 7.64171,0.6648 14.91602,0.83398 7.2743,0.16918 16.3309,0.23111 25.61523,0.19336 9.28433,-0.0378 18.7962,-0.1762 26.97656,-0.4082 8.18036,-0.232 15.0298,-0.55712 18.99219,-0.97071 5.775,-0.60278 16.8,-1.61416 24.5,-2.24804 7.64878,-0.62967 13.77929,-1.18851 19.02539,-1.8125 5.24611,-0.624 9.60804,-1.31361 13.7168,-2.20703 4.10876,-0.89343 7.96443,-1.98979 12.20117,-3.42774 4.23674,-1.43795 8.85433,-3.21703 14.48438,-5.47461 7.10892,-2.8506 13.06039,-5.43191 18.08984,-7.91406 2.51472,-1.24108 4.79968,-2.45771 6.88281,-3.66992 2.08314,-1.21222 3.96538,-2.42096 5.67578,-3.64649 1.71041,-1.22552 3.24801,-2.469 4.64453,-3.75 1.39653,-1.28099 2.65147,-2.59987 3.79297,-3.97851 1.14151,-1.37864 2.1699,-2.81553 3.11524,-4.33399 0.94533,-1.51845 1.80721,-3.11792 2.61523,-4.81835 3.82015,-8.0391 6.7023,-14.12627 9.02149,-19.53711 1.15959,-2.70543 2.1785,-5.24061 3.10351,-7.76758 0.92501,-2.52698 1.75682,-5.04529 2.54102,-7.71289 1.5684,-5.33521 2.94782,-11.27181 4.51562,-19.08399 1.5678,-7.81217 3.32325,-17.50004 5.64063,-30.34179 0.794,-4.4 2.74112,-14.75 4.32812,-23 1.77775,-9.24128 2.93842,-15.59592 3.89453,-21.7129 0.95612,-6.11697 1.70768,-11.99628 2.66993,-20.2871 1.99645,-17.20232 3.42784,-29.07024 4.51953,-37.30664 1.09168,-8.23641 1.84367,-12.84132 2.48242,-15.51563 0.64155,-2.6861 1.33516,-7.29968 2.2207,-15.08203 0.88554,-7.78235 1.963,-18.73346 3.375,-34.0957 0.3033,-3.3 0.76677,-7.0875 1.26953,-10.53125 0.50276,-3.44375 1.04481,-6.54375 1.50391,-8.46875 0.38347,-1.60783 0.67839,-3.79605 0.90039,-8.85157 0.222,-5.05551 0.37159,-12.9784 0.46484,-26.05468 0.18651,-26.15257 0.14773,-72.91966 0.0156,-158.59375 -0.0921,-59.74284 -0.25613,-107.2219 -0.48047,-140.5254 -0.22434,-33.30348 -0.50899,-52.4314 -0.83984,-55.4746 -0.5682,-5.225 -1.4115,-22.55 -1.875,-38.5 -0.325,-11.1848 -0.65482,-19.07422 -1.10547,-25.24805 -0.45065,-6.17383 -1.02213,-10.63206 -1.82813,-14.95117 -0.92465,-4.95497 -2.08676,-9.76639 -3.43554,-14.3125 -1.34879,-4.54612 -2.88518,-8.82674 -4.55469,-12.72266 -1.66952,-3.89592 -3.47252,-7.40577 -5.35938,-10.41016 -0.94342,-1.50219 -1.90834,-2.87922 -2.88672,-4.11328 -0.97837,-1.23405 -1.9703,-2.325961 -2.9707,-3.261716 -1.22395,-1.144877 -2.69518,-2.309055 -4.26758,-3.410156 -1.57239,-1.101101 -3.24641,-2.138691 -4.875,-3.035156 -1.62859,-0.896465 -3.21098,-1.650671 -4.60351,-2.181641 -1.39254,-0.530969 -2.59476,-0.839135 -3.45899,-0.84375 -1.0062,-0.005 -4.6062,-1.103003 -8,-2.439453 -2.11195,-0.831669 -4.33613,-1.611129 -6.7207,-2.34375 -2.38457,-0.73262 -4.92965,-1.418271 -7.67969,-2.064453 -5.50007,-1.292363 -11.8228,-2.424999 -19.34179,-3.447266 -7.51899,-1.022266 -16.23496,-1.934062 -26.51563,-2.787109 -10.28067,-0.853047 -22.12701,-1.646936 -35.91211,-2.431641 -13.6646,-0.777845 -23.53027,-1.443831 -31.0957,-2.136718 -7.56543,-0.692888 -12.83061,-1.412677 -17.29102,-2.294922 -1.73223,-0.342628 -5.86007,-0.599273 -11.30273,-0.771485 -5.44266,-0.172211 -12.20013,-0.259987 -19.18946,-0.261718 z"
       style="color:#000000;clip-rule:nonzero;display:inline;overflow:visible;visibility:visible;opacity:1;isolation:auto;mix-blend-mode:normal;color-interpolation:sRGB;color-interpolation-filters:linearRGB;solid-color:#000000;solid-opacity:1;fill:url(#linearGradient4756);fill-opacity:1;fill-rule:nonzero;stroke:none;stroke-width:1;stroke-linecap:butt;stroke-linejoin:miter;stroke-miterlimit:4;stroke-dasharray:none;stroke-dashoffset:0;stroke-opacity:1;color-rendering:auto;image-rendering:auto;shape-rendering:auto;text-rendering:auto;enable-background:accumulate" />
    <path
       id="path4944"
       d="m 546.85352,49.705078 c -6.92512,-0.167965 -16.62638,-0.118688 -32.07813,0.07617 -16.76386,0.21141 -26.42409,0.390702 -33.75977,0.808594 -3.66783,0.208945 -6.75519,0.477384 -9.85742,0.839844 -3.10222,0.362459 -6.22028,0.818441 -9.95117,1.402343 -13.87652,2.171745 -23.44805,3.604137 -30.19726,4.492188 -6.74922,0.888051 -10.67614,1.231762 -13.26368,1.226562 -3.44323,-0.0069 -12.69386,0.86474 -23.96289,2.173828 -11.26903,1.309089 -24.55645,3.055607 -36.07617,4.800782 -4.39147,0.665285 -17.9119,3.35632 -31.13672,6.111328 -13.22481,2.755007 -26.154,5.573987 -29.36328,6.492187 -2.37497,0.679496 -4.75629,1.49688 -7.12109,2.435547 -2.36481,0.938668 -4.71236,1.998642 -7.01758,3.160156 -2.30522,1.161515 -4.56941,2.425402 -6.76563,3.773438 -2.19621,1.348036 -4.32548,2.781064 -6.36328,4.279297 -2.03779,1.498233 -3.9845,3.061722 -5.81445,4.673828 -1.82995,1.612105 -3.54255,3.271284 -5.11523,4.96094 -1.57269,1.68965 -3.00549,3.40975 -4.27149,5.14062 -1.266,1.73088 -2.36549,3.47321 -3.27539,5.20899 -0.86716,1.65425 -1.97728,4.36933 -3.18359,7.67773 -1.20632,3.30841 -2.50789,7.21029 -3.76172,11.23633 -1.25384,4.02604 -2.45904,8.17722 -3.46875,11.98438 -1.00971,3.80715 -1.82488,7.27013 -2.29883,9.92187 -0.83873,4.6928 -1.25593,7.10436 -1.20312,9.11719 0.0264,1.00641 0.16961,1.91275 0.4375,2.95508 0.26788,1.04232 0.65987,2.22068 1.18164,3.76953 0.58352,1.73214 1.36088,4.9555 2.14257,8.7539 0.78169,3.79841 1.56771,8.17186 2.16993,12.20313 0.5112,3.42202 0.90351,6.27419 1.20507,9.42383 0.30157,3.14963 0.51294,6.59617 0.66016,11.20508 0.29444,9.21781 0.33495,23.08639 0.34375,48.53125 0.01,27.65782 -0.0876,44.29007 -0.5293,56.55273 -0.22085,6.13133 -0.52774,11.17128 -0.95117,15.94922 -0.42342,4.77794 -0.9626,9.29466 -1.64844,14.38281 -0.422,3.13083 -0.90628,9.47656 -1.34765,17.17969 -0.44138,7.70312 -0.83987,16.76364 -1.08789,25.32031 -1.12085,38.66774 -1.8195,61.57021 -2.36914,75.74414 -0.27482,7.08697 -0.51172,11.9918 -0.7461,15.59375 -0.23437,3.60195 -0.46634,5.90146 -0.72851,7.77735 -0.61494,4.4 -1.57248,17 -2.12696,28 -0.55448,11 -1.73254,27.2 -2.61718,36 -0.3375,3.35727 -0.61099,7.21967 -0.83594,12.66796 -0.22495,5.44829 -0.40211,12.48282 -0.54688,22.1875 -0.28953,19.40938 -0.45031,49.49659 -0.61328,98.92383 -0.13051,39.58394 -0.14043,69.90805 -0.0273,91.23633 0.11308,21.32828 0.34917,33.66071 0.70898,37.26367 0.29442,2.94811 0.66572,9.66426 1.02539,18.10938 0.35967,8.44511 0.7077,18.61919 0.95899,28.48437 0.50257,19.73036 1.12104,36.08003 1.37304,36.33203 0.252,0.252 -0.20057,2.03363 -1.00585,3.96094 -0.56125,1.34327 -0.86609,2.40518 -0.92969,3.4375 -0.0636,1.03233 0.11404,2.03507 0.51758,3.25781 0.33462,1.01391 1.52735,2.71315 3.20117,4.72266 1.67382,2.00951 3.82839,4.32842 6.08594,6.58008 2.25755,2.25165 4.61926,4.43739 6.70507,6.17773 2.08582,1.74034 3.89608,3.03616 5.05469,3.51172 1.34298,0.55123 3.18014,1.11272 5.4707,1.67969 2.29057,0.56697 5.034,1.14008 8.18946,1.71289 6.31092,1.14561 14.26861,2.29276 23.54297,3.40234 9.27435,1.10959 19.86515,2.1814 31.4414,3.17578 11.57626,0.99439 24.13886,1.91094 37.35547,2.71094 8.525,0.51602 19.1,1.3737 23.5,1.90625 4.4,0.53254 16.325,1.22419 26.5,1.53711 10.175,0.31291 23.225,0.9911 29,1.50781 5.775,0.51672 16.8,1.43135 24.5,2.03125 7.7,0.5999 15.575,1.46963 17.5,1.9336 1.24455,0.29997 6.74959,0.52501 14.43555,0.67578 7.68595,0.15077 17.55237,0.2274 27.52344,0.22851 9.97106,10e-4 20.04661,-0.0737 28.14648,-0.22265 8.09987,-0.149 14.2245,-0.37232 16.29688,-0.67188 3.79719,-0.54886 13.4722,-1.41719 21.5,-1.92968 10.41474,-0.66487 20.27735,-1.58231 28.58203,-2.625 4.15233,-0.52135 7.91484,-1.07408 11.16211,-1.64258 3.24727,-0.56851 5.97981,-1.15221 8.07031,-1.73633 4.89722,-1.36837 10.66818,-3.36003 16.72461,-5.70313 6.05642,-2.34309 12.39783,-5.03723 18.43359,-7.8125 6.03576,-2.77527 11.76633,-5.63197 16.60156,-8.29687 2.41762,-1.33245 4.61155,-2.61718 6.50782,-3.82031 1.89626,-1.20314 3.49523,-2.32408 4.72265,-3.33008 2.67583,-2.19313 5.05875,-4.47929 7.31055,-7.13086 1.1259,-1.32579 2.21867,-2.74226 3.29883,-4.28516 1.08016,-1.5429 2.14806,-3.21266 3.22265,-5.04101 2.14918,-3.6567 4.32736,-7.95164 6.69532,-13.16016 2.36795,-5.20852 4.92586,-11.32969 7.83398,-18.63672 1.28108,-3.21886 2.37279,-6.16094 3.37891,-9.25586 1.00611,-3.09491 1.92706,-6.34296 2.86914,-10.17187 1.88415,-7.65783 3.85069,-17.6413 6.74414,-33.38281 2.679,-14.575 6.21753,-33.7 7.86523,-42.5 0.8239,-4.4 1.8586,-10.87422 2.86328,-17.76172 1.00468,-6.8875 1.97934,-14.18828 2.67969,-20.23828 2.1421,-18.50455 3.30319,-28.44991 4.10938,-34.60938 0.80618,-6.15947 1.25746,-8.53304 1.97656,-11.89062 1.00845,-4.70822 2.06885,-11.43332 2.96875,-18.49414 0.8999,-7.06083 1.6393,-14.45736 2.00195,-20.50586 0.3462,-5.775 1.29236,-15 2.10156,-20.5 0.9205,-6.25603 1.62344,-11.31989 2.15625,-16.68555 0.53282,-5.36567 0.89459,-11.03292 1.13672,-18.49805 0.24214,-7.46512 0.36366,-16.72685 0.41211,-29.28125 0.0485,-12.55439 0.0248,-28.40167 -0.0234,-49.03515 -0.15619,-66.80706 -0.66248,-142.54418 -1.26757,-202.39844 -0.30255,-29.92713 -0.63046,-55.88344 -0.95117,-74.76758 -0.32072,-18.88414 -0.63399,-30.69603 -0.91016,-32.33398 -0.2782,-1.65 -0.54138,-5.40079 -0.74219,-10.11329 -0.2008,-4.7125 -0.33923,-10.38671 -0.36523,-15.88671 -0.0386,-8.15542 -0.33887,-15.53179 -0.95508,-22.3711 -0.30811,-3.41965 -0.69574,-6.70495 -1.16797,-9.88672 -0.47223,-3.18176 -1.03018,-6.25903 -1.67969,-9.26367 -0.6495,-3.00464 -1.39054,-5.93594 -2.23047,-8.82422 -0.83992,-2.88827 -1.77876,-5.73374 -2.82226,-8.5664 -1.0435,-2.83267 -2.19095,-5.65242 -3.45117,-8.49024 -1.26023,-2.83782 -2.63295,-5.69392 -4.12305,-8.59765 -1.27513,-2.484803 -2.8343,-4.976809 -4.58399,-7.37696 -1.74968,-2.40015 -3.68959,-4.707685 -5.7246,-6.826171 -2.03502,-2.118487 -4.16578,-4.047694 -6.29688,-5.6875 -2.1311,-1.639807 -4.26283,-2.990968 -6.30078,-3.955079 -2.84198,-1.344464 -6.27353,-2.745159 -10.07422,-4.134765 -3.80069,-1.389607 -7.96958,-2.767409 -12.28516,-4.068359 -4.31557,-1.300951 -8.77937,-2.525021 -13.16601,-3.603516 -4.38664,-1.078495 -8.69706,-2.012133 -12.71094,-2.734375 -8.9469,-1.609875 -17.04345,-2.813261 -25.85547,-3.783203 -8.81201,-0.969942 -18.33948,-1.70644 -30.14453,-2.38086 -21.1743,-1.20968 -33.85983,-1.972431 -42.46289,-2.621093 -8.60306,-0.648663 -13.12365,-1.183237 -17.96875,-1.935547 -2.17392,-0.337545 -4.29779,-0.602941 -6.74414,-0.804688 -2.44635,-0.201747 -5.21518,-0.339845 -8.67773,-0.423828 z m -22.0254,18.867188 c 6.98933,0.0017 13.7468,0.08951 19.18946,0.261718 5.44266,0.172212 9.5705,0.428857 11.30273,0.771485 4.46041,0.882245 9.72559,1.602034 17.29102,2.294922 7.56543,0.692887 17.4311,1.358873 31.0957,2.136718 13.7851,0.784705 25.63144,1.578594 35.91211,2.431641 10.28067,0.853047 18.99664,1.764843 26.51563,2.787109 7.51899,1.022267 13.84172,2.154903 19.34179,3.447266 2.75004,0.646182 5.29512,1.331833 7.67969,2.064453 2.38457,0.732621 4.60875,1.512081 6.7207,2.34375 3.3938,1.33645 6.9938,2.434453 8,2.439453 0.86423,0.0046 2.06645,0.312781 3.45899,0.84375 1.39253,0.53097 2.97492,1.285176 4.60351,2.181641 1.62859,0.896465 3.30261,1.934055 4.875,3.035156 1.5724,1.101101 3.04363,2.265279 4.26758,3.410156 1.0004,0.935755 1.99233,2.027666 2.9707,3.261716 0.97838,1.23406 1.9433,2.61109 2.88672,4.11328 1.88686,3.00439 3.68986,6.51424 5.35938,10.41016 1.66951,3.89592 3.2059,8.17654 4.55469,12.72266 1.34878,4.54611 2.51089,9.35753 3.43554,14.3125 0.806,4.31911 1.37748,8.77734 1.82813,14.95117 0.45065,6.17383 0.78047,14.06325 1.10547,25.24805 0.4635,15.95 1.3068,33.275 1.875,38.5 0.33085,3.0432 0.6155,22.17112 0.83984,55.4746 0.22434,33.3035 0.38837,80.78256 0.48047,140.5254 0.1321,85.67409 0.17088,132.44118 -0.0156,158.59375 -0.0933,13.07628 -0.24284,20.99917 -0.46484,26.05468 -0.222,5.05552 -0.51692,7.24374 -0.90039,8.85157 -0.4591,1.925 -1.00115,5.025 -1.50391,8.46875 -0.50276,3.44375 -0.96623,7.23125 -1.26953,10.53125 -1.412,15.36224 -2.48946,26.31335 -3.375,34.0957 -0.88554,7.78235 -1.57915,12.39593 -2.2207,15.08203 -0.63875,2.67431 -1.39074,7.27922 -2.48242,15.51563 -1.09169,8.2364 -2.52308,20.10432 -4.51953,37.30664 -0.96225,8.29082 -1.71381,14.17013 -2.66993,20.2871 -0.95611,6.11698 -2.11678,12.47162 -3.89453,21.7129 -1.587,8.25 -3.53412,18.6 -4.32812,23 -2.31738,12.84175 -4.07283,22.52962 -5.64063,30.34179 -1.5678,7.81218 -2.94722,13.74878 -4.51562,19.08399 -0.7842,2.6676 -1.61601,5.18591 -2.54102,7.71289 -0.92501,2.52697 -1.94392,5.06215 -3.10351,7.76758 -2.31919,5.41084 -5.20134,11.49801 -9.02149,19.53711 -0.80802,1.70043 -1.6699,3.2999 -2.61523,4.81835 -0.94534,1.51846 -1.97373,2.95535 -3.11524,4.33399 -1.1415,1.37864 -2.39644,2.69752 -3.79297,3.97851 -1.39652,1.281 -2.93412,2.52448 -4.64453,3.75 -1.7104,1.22553 -3.59264,2.43427 -5.67578,3.64649 -2.08313,1.21221 -4.36809,2.42884 -6.88281,3.66992 -5.02945,2.48215 -10.98092,5.06346 -18.08984,7.91406 -5.63005,2.25758 -10.24764,4.03666 -14.48438,5.47461 -4.23674,1.43795 -8.09241,2.53431 -12.20117,3.42774 -4.10876,0.89342 -8.47069,1.58303 -13.7168,2.20703 -5.2461,0.62399 -11.37661,1.18283 -19.02539,1.8125 -7.7,0.63388 -18.725,1.64526 -24.5,2.24804 -3.96239,0.41359 -10.81183,0.73871 -18.99219,0.97071 -8.18036,0.232 -17.69223,0.37045 -26.97656,0.4082 -9.28433,0.0377 -18.34093,-0.0242 -25.61523,-0.19336 -7.27431,-0.16918 -12.76574,-0.4452 -14.91602,-0.83398 -5.18314,-0.93716 -12.53441,-1.82586 -21.47656,-2.61524 -8.94215,-0.78938 -19.47519,-1.47943 -31.02344,-2.01953 -15.23137,-0.71235 -28.05321,-1.39455 -38.46875,-2.04492 -10.41554,-0.65037 -18.42478,-1.26891 -24.03125,-1.85742 -9.28889,-0.97506 -16.87419,-1.56396 -52.5,-4.07813 -7.05898,-0.49816 -14.68966,-1.25746 -22.38086,-2.21289 -7.6912,-0.95542 -15.44293,-2.10697 -22.74609,-3.39258 -3.90861,-0.68805 -6.15527,-1.15935 -7.85547,-1.90039 -0.8501,-0.37051 -1.56236,-0.80866 -2.2793,-1.375 -0.71694,-0.56633 -1.4377,-1.26065 -2.30078,-2.14453 -0.94934,-0.97221 -1.6619,-1.70491 -2.20898,-2.42383 -0.54709,-0.71891 -0.92889,-1.4241 -1.21485,-2.34375 -0.28596,-0.91964 -0.47661,-2.05255 -0.64258,-3.62695 -0.16596,-1.5744 -0.30704,-3.59025 -0.49414,-6.27344 -0.41295,-5.92208 -0.77965,-20.43635 -0.81445,-32.2539 -0.0174,-5.90878 -0.20882,-13.13789 -0.50195,-20.02539 -0.29314,-6.8875 -0.68798,-13.43339 -1.11524,-17.97461 -0.33368,-3.54671 -0.5935,-7.43911 -0.79101,-12.94141 -0.19751,-5.5023 -0.33182,-12.61381 -0.41406,-22.59766 -0.1645,-19.96768 -0.1203,-51.42507 0.0508,-104.4746 0.13834,-42.89845 0.32185,-74.1549 0.56836,-95.1211 0.12325,-10.4831 0.2635,-18.39357 0.41992,-23.90039 0.15642,-5.50681 0.32977,-8.61012 0.52344,-9.47851 0.30665,-1.375 0.70764,-4.93086 1.10742,-9.55274 0.39977,-4.62187 0.79834,-10.30976 1.09765,-15.94726 0.59863,-11.275 1.75853,-28.825 2.57813,-39 0.4098,-5.0875 0.9425,-15.28047 1.4707,-27.60547 0.52821,-12.325 1.05193,-26.78203 1.44336,-40.39453 0.74157,-25.78836 1.40249,-43.80196 2.11719,-56.42383 0.35735,-6.31094 0.72757,-11.27405 1.1289,-15.1875 0.40134,-3.91346 0.83339,-6.7766 1.3125,-8.88867 0.37467,-1.65159 0.70031,-8.29521 0.97461,-19.77735 0.27431,-11.48214 0.49725,-27.80279 0.66407,-48.80469 0.23967,-30.17366 0.34,-46.27855 0.13086,-56.7871 -0.10458,-5.25428 -0.28646,-9.10913 -0.56641,-12.625 -0.27995,-3.51588 -0.65881,-6.69185 -1.15625,-10.5879 -1.15302,-9.03057 -2.77361,-19.94498 -3.60156,-24.25586 -0.52665,-2.74209 -0.91379,-4.90956 -1.13282,-6.83593 -0.21902,-1.92638 -0.27078,-3.6116 -0.1289,-5.39258 0.14188,-1.78098 0.47907,-3.65698 1.03516,-5.96289 0.55608,-2.30591 1.33189,-5.04179 2.35546,-8.54297 1.2322,-4.21477 2.30014,-7.67971 3.30078,-10.5957 1.00065,-2.916 1.93309,-5.28309 2.89454,-7.30469 0.96144,-2.0216 1.9518,-3.69695 3.0664,-5.22852 1.1146,-1.53156 2.35436,-2.91932 3.81446,-4.36523 1.38193,-1.36851 2.75386,-2.63227 4.15625,-3.80859 1.40238,-1.17633 2.83617,-2.26436 4.34375,-3.28321 1.50757,-1.01885 3.08764,-1.96916 4.78515,-2.86523 1.69751,-0.89608 3.51219,-1.73887 5.48438,-2.54688 3.94436,-1.616013 8.5227,-3.090528 14.07422,-4.562497 5.55151,-1.471969 12.07551,-2.941317 19.91211,-4.546875 9.71608,-1.99063 18.20774,-3.65738 26.07226,-5.085937 7.86452,-1.428558 15.10165,-2.619519 22.30859,-3.658203 7.20695,-1.038685 14.38362,-1.925085 22.12696,-2.746094 7.74334,-0.821009 16.05362,-1.57603 25.52734,-2.351563 5.97185,-0.488865 10.91029,-0.971852 16.94922,-1.707031 6.03893,-0.735179 13.17833,-1.722551 23.55078,-3.222656 7.425,-1.07383 18.46958,-2.42309 24.54492,-3 3.59423,-0.341303 9.11903,-0.596124 15.49219,-0.765625 6.37316,-0.169502 13.59467,-0.253685 20.58398,-0.251953 z"
       style="color:#000000;clip-rule:nonzero;display:inline;overflow:visible;visibility:visible;opacity:1;isolation:auto;mix-blend-mode:normal;color-interpolation:sRGB;color-interpolation-filters:linearRGB;solid-color:#000000;solid-opacity:1;fill:url(#linearGradient4750);fill-opacity:1;fill-rule:nonzero;stroke:none;stroke-width:1;stroke-linecap:butt;stroke-linejoin:miter;stroke-miterlimit:4;stroke-dasharray:none;stroke-dashoffset:0;stroke-opacity:1;color-rendering:auto;image-rendering:auto;shape-rendering:auto;text-rendering:auto;enable-background:accumulate" />
    <path
       id="path4936"
       d="m 563.27344,264.91992 c -11.89571,0.06 -23.02891,0.31162 -27.56641,0.6582 -42.85615,3.27351 -68.8809,4.74353 -96.5,5.45118 -9.625,0.24661 -27.625,1.32676 -40,2.40039 -20.1699,1.7499 -33.07164,2.55634 -57.08008,3.56445 -8.94891,0.37577 -12.88343,2.12488 -16.39257,7.28906 -1.84002,2.70783 -2.52735,5.03357 -2.52735,8.53907 0,11.09908 9.25078,18.63581 21.29688,17.34961 2.86127,-0.30553 11.95312,-1.02169 20.20312,-1.5918 23.64922,-1.63425 41.66973,-3.0836 45.79688,-3.68164 l 3.79687,-0.54883 -3.01367,4.3457 c -2.56327,3.69795 -3.23492,6.06014 -4.50977,15.84571 -1.4537,11.15843 -2.38974,27.83286 -2.51172,44.75 l -0.0586,8.25 -11.94336,0 c -12.66384,0 -45.18578,3.03891 -58.55664,5.47265 -4.4,0.80088 -11.06652,1.70063 -14.8125,1.99805 -3.74599,0.29743 -8.11996,1.21715 -9.7207,2.04492 -7.74585,4.00553 -10.46005,15.35177 -5.43945,22.74024 3.2219,4.74146 7.04801,6.6984 14.05468,7.18554 3.06851,0.21334 5.77375,0.58038 6.00977,0.81641 1.95577,1.95577 2.59434,31.64368 2.55664,118.74219 -0.043,99.17865 0.47079,117.44348 4.45703,158.5 3.62762,37.36277 7.52761,47.99155 18.51562,50.45703 6.90256,1.54879 13.46602,-0.98596 17.34961,-6.70117 2.04139,-3.00419 2.5293,-4.93044 2.5293,-10 l 0,-6.2793 4.25,0.76172 c 2.3375,0.419 12.35,0.7425 22.25,0.7207 14.07392,-0.0311 20.61738,-0.5172 30,-2.23047 6.6,-1.20516 17.85,-3.14006 25,-4.30078 7.15,-1.16072 19.975,-3.8519 28.5,-5.97852 27.7962,-6.93396 55.24502,-12.04322 96.92578,-18.04492 19.5404,-2.81368 40.23048,-2.37717 54.42578,1.14844 l 9.85157,2.44727 -0.69141,10.5 c -1.3228,20.05517 -1.2221,22.20785 1.2168,25.62695 4.7415,6.64729 16.19584,8.41129 23.02734,3.54687 5.5481,-3.95063 7.48687,-9.79813 8.32227,-25.08789 0.4082,-7.47239 1.27879,-16.62142 1.93359,-20.33007 0.8504,-4.81615 1.04811,-18.38991 0.69141,-47.5 -0.5918,-48.30773 -0.75887,-51.29189 -5.23047,-93.25586 -2.9329,-27.52429 -3.46094,-36.09782 -3.46094,-56 0.002,-15.2141 0.53692,-27.5548 1.51563,-35 1.79159,-13.62745 1.73781,-13.43315 6.35351,-23 3.3401,-6.92308 3.61652,-8.1923 3.60352,-16.5 -0.0105,-6.80418 -0.46413,-9.85393 -1.86133,-12.5 -2.3496,-4.4497 -7.3205,-9.75015 -10.9043,-11.62696 -3.0944,-1.62053 -17.29645,-5.87447 -22.71875,-6.80468 -8.0469,-1.38048 -63.01333,-5.56836 -73.08203,-5.56836 l -10.91797,0 0,-40.375 c 0,-22.20625 -0.25977,-41.66875 -0.57617,-43.25 l -0.57617,-2.875 18.43945,0.18164 c 16.6834,0.16484 18.76297,0.37861 21.82617,2.24609 4.1035,2.50169 12.60735,2.78358 16.90625,0.56055 7.2981,-3.77402 10.16857,-14.2993 6.07617,-22.2793 -2.5177,-4.90939 -5.56717,-7.63427 -11.60937,-10.37305 -4.7679,-2.16116 -6.24133,-2.26852 -33.48633,-2.44922 -3.91875,-0.026 -7.96836,-0.0278 -11.93359,-0.008 z m -42.29883,34.41992 c 2.06085,0.0206 3.44924,0.15872 3.73242,0.41016 0.63536,0.56414 1,15.54776 1,41.08984 l 0,40.20118 -3.5,0.13671 c -1.925,0.0754 -11.375,-0.48804 -21,-1.25195 -9.625,-0.76391 -28.075,-1.72524 -41,-2.13672 l -23.5,-0.74804 0.34766,-18.5 c 0.19211,-10.175 1.01279,-22.325 1.82226,-27 2.91228,-16.81962 2.85793,-18.97787 -0.60156,-23.75 l -3.08203,-4.25 8.25586,-0.0664 c 4.54095,-0.0361 10.95781,-0.23749 14.25781,-0.44727 3.3,-0.20978 14.775,-0.88464 25.5,-1.5 10.725,-0.61536 24.225,-1.46744 30,-1.89257 2.97341,-0.21889 5.70673,-0.31552 7.76758,-0.29493 z m -80.39453,110.20118 10.5625,0.0195 c 5.80965,0.011 23.16445,0.90239 38.56445,1.98047 15.4,1.07808 29.04185,1.96751 30.31641,1.97851 1.73821,0.0149 2.18463,0.45887 1.78711,1.77149 -0.51177,1.6899 -2.39924,16.53221 -4.61133,36.25 -0.58618,5.225 -3.73002,20.525 -6.98438,34 -4.71205,19.51078 -11.32761,53.00708 -16.49218,83.5 -2.61797,15.45714 -4.77154,53.35592 -4.92578,86.68554 l -0.0899,19.6875 -16.5,4.06446 c -9.075,2.23577 -27.525,5.89761 -41,8.13867 -22.8108,3.79372 -39.35235,5.33534 -46.5,4.33398 -10.67775,-1.49591 -21.75155,-3.92357 -22.05273,-4.83594 -0.19507,-0.59092 -1.10291,-10.97421 -2.01758,-23.07421 -1.37192,-18.1487 -1.70596,-40.20616 -1.90234,-126 -0.15887,-69.40058 -0.61532,-107.46795 -1.375,-114.42383 -0.62613,-5.73304 -1.03011,-10.52743 -0.89649,-10.6543 0.99401,-0.94371 33.24032,-3.46582 41.23242,-3.22461 l 9.99024,0.30274 0.71679,5 c 2.88621,20.15868 4.99787,60.71969 5.25977,101 0.24316,37.40035 2.22782,112.20954 3.13086,118 1.37684,8.82849 7.1173,13.78515 15.96094,13.78515 6.24243,0 10.9997,-2.5507 13.92968,-7.46679 2.4169,-4.05525 2.46097,-8.83305 0.55664,-60.81836 -0.73539,-20.075 -1.26297,-45.95 -1.17187,-57.5 0.18616,-23.61189 -2.34974,-84.11769 -4.24414,-101.25 l -1.24414,-11.25 z m 121.12304,6.03125 c 8.00902,-0.0487 22.60651,0.79857 42.01563,2.48242 29.026,2.51817 39.48828,4.02807 39.48828,5.69531 0,0.48979 -0.71815,2.27557 -1.59375,3.96875 -5.3306,10.30832 -7.36072,28.67862 -7.38672,66.79492 -0.018,26.81037 0.29637,32.45716 3.48047,62.5 3.9462,37.23277 4.19908,41.17637 5.11328,79.69727 l 0.65625,27.67187 -7.38476,-2.0332 c -8.6571,-2.38344 -36.47527,-3.76454 -51.88477,-2.57617 -10.8109,0.83372 -47.48182,6.24904 -56.5,8.34375 -3.3,0.76651 -6.225,1.39925 -6.5,1.40625 -1.30789,0.0348 1.20993,-70.45727 3,-83.98242 2.87853,-21.74922 11.72322,-67.5791 17.61328,-91.27344 4.92208,-19.80036 6.19241,-26.28774 7.83985,-40.01563 3.05498,-25.45653 4.626,-37.03105 5.13672,-37.85742 0.2364,-0.3825 1.56262,-0.62957 3.88281,-0.74609 0.87007,-0.0437 1.87929,-0.0692 3.02343,-0.0762 z"
       style="fill:#000000" />
  </g>
</svg>
